<?xml version="1.0" standalone="no"?>
<!DOCTYPE svg PUBLIC "-//W3C//DTD SVG 1.1//EN" "http://www.w3.org/Graphics/SVG/1.1/DTD/svg11.dtd" >
<svg xmlns="http://www.w3.org/2000/svg">
<metadata></metadata>
<defs>
<font id="nanami_outlineitalic" horiz-adv-x="1228" >
<font-face units-per-em="2048" ascent="1536" descent="-512" />
<missing-glyph horiz-adv-x="593" />
<glyph horiz-adv-x="2048" />
<glyph horiz-adv-x="2048" />
<glyph unicode="&#xd;" horiz-adv-x="2048" />
<glyph unicode=" "  horiz-adv-x="593" />
<glyph unicode="&#x09;" horiz-adv-x="593" />
<glyph unicode="&#xa0;" horiz-adv-x="593" />
<glyph unicode="!" horiz-adv-x="462" d="M88 166q10 54 50.5 96t92.5 57h-110l252 1178h336l-250 -1178h-121q50 -17 74 -62.5t12 -104.5q-15 -65 -72 -112.5t-125 -47.5q-70 0 -113 53t-26 121zM125 160q-10 -52 20.5 -90.5t81.5 -38.5q55 0 101 38t57 91q11 56 -18 93.5t-84 37.5q-52 0 -99 -38t-59 -93z M168 358h258l236 1102h-259z" />
<glyph unicode="&#x22;" horiz-adv-x="843" d="M270 874l133 623h295l-133 -623h-295zM317 911h218l116 549h-217zM618 874l134 623h295l-132 -623h-297zM666 911h217l116 549h-215z" />
<glyph unicode="#" horiz-adv-x="1441" d="M166 385l53 258h283l51 139h-248l55 258h285q19 56 68 193.5t71 202.5h263l-138 -396h101q19 56 68 193.5t71 202.5h262l-139 -396h252l-58 -258h-284q-8 -24 -24.5 -65t-27.5 -74h248l-51 -258h-287q-24 -67 -71 -200.5t-66 -184.5h-252q8 60 37 141q6 17 19 50.5 t30.5 81t40.5 112.5h-102q-24 -67 -71 -200.5t-66 -184.5h-252q11 70 37 141q31 75 90 244h-248zM213 422h254q-28 -81 -53.5 -150.5t-39 -106.5t-24 -65t-15 -41t-5.5 -20h182l137 383h182q-28 -81 -53.5 -150.5t-39 -106.5t-24 -65t-15 -41t-5.5 -20h183l137 383h282 l37 182h-256l76 217h283l39 183h-256l139 393h-182l-138 -393h-182l137 393h-182l-137 -393h-281l-41 -183h254l-76 -217h-280zM715 604l76 217h180l-76 -217h-180zM768 643h98q49 130 52 139h-99z" />
<glyph unicode="$" horiz-adv-x="1095" d="M150 354l319 52q8 -26 19.5 -42t28 -23t30 -9t35.5 -2q45 0 84.5 34t48.5 80q6 30 6 48q0 28 -22 50t-44 32t-69 28q-132 48 -211.5 141.5t-79.5 221.5q0 44 10 92q37 171 143 286t261 150q4 25 19.5 91t19.5 93h296l-43 -198q86 -37 133 -100t56 -165l-334 -147 q-15 94 -84 94q-39 0 -74.5 -33t-44.5 -75q-4 -24 5.5 -45t32 -37.5t41 -26.5t46.5 -22l17 -9q48 -19 96 -49q97 -58 141.5 -129t44.5 -174q0 -61 -16 -133q-30 -143 -132.5 -257t-236.5 -159q-4 -21 -19.5 -88.5t-21.5 -97.5h-295l37 174q-266 46 -243 354zM184 322 q-9 -130 58.5 -205.5t195.5 -83.5l-35 -170h215l39 176q131 39 234 148.5t133 248.5q31 147 -5 237.5t-147 157.5q-43 27 -94 50q-84 36 -112 57q-67 50 -50 123q11 53 57.5 95t98.5 42q87 0 109 -80l270 119q-9 81 -62 135.5t-133 81.5l41 184h-217l-37 -178 q-154 -29 -260 -137.5t-141 -273.5q-31 -149 40.5 -253.5t215.5 -156.5q32 -12 45 -16.5t38 -16t34 -20t23 -24t17 -32.5t3.5 -41t-6.5 -53q-11 -58 -60 -100.5t-110 -42.5q-22 0 -38.5 2t-37.5 8.5t-36.5 22t-25.5 39.5z" />
<glyph unicode="%" horiz-adv-x="1873" d="M328 1044q0 91 40 176t104.5 145t147.5 96t166 36q139 0 226.5 -86t87.5 -221q0 -47 -8 -78q-34 -155 -166 -264t-287 -109q-138 0 -224.5 86.5t-86.5 218.5zM373 1118q-31 -141 47 -240.5t219 -99.5q142 0 263.5 99.5t152.5 240.5q31 142 -48.5 242t-220.5 100 q-143 0 -263.5 -100t-149.5 -242zM453 78l1040 1440l170 -97q-250 -347 -475 -657.5t-336.5 -464t-151.5 -209.5l-90 -123zM506 86l94 -72q0 2 132 184q382 528 876 1213l-103 57zM561 1118q12 64 66.5 109t117.5 45q64 0 99.5 -44.5t23.5 -109.5q-15 -63 -69.5 -108 t-118.5 -45t-99 45t-20 108zM598 1112q-9 -46 14.5 -77t67.5 -31q51 0 95 35.5t54 86.5q9 46 -15.5 77.5t-68.5 31.5q-51 0 -93.5 -36t-53.5 -87zM1018 307q0 31 6 80q34 155 166 263t287 108q139 0 227 -86.5t88 -220.5q0 -36 -8 -80q-32 -154 -165 -262.5t-288 -108.5 q-139 0 -226 86.5t-87 220.5zM1063 379q-29 -141 49 -240.5t219 -99.5q142 0 263.5 99.5t150.5 240.5q31 142 -48 242t-220 100q-143 0 -264 -100t-150 -242zM1251 379q12 64 66.5 108.5t118.5 44.5t99.5 -44t23.5 -109q-15 -64 -69 -109t-118 -45t-100 45.5t-21 108.5z M1288 371q-9 -44 15.5 -75.5t68.5 -31.5q51 0 94 36t54 87q9 46 -15.5 77.5t-68.5 31.5q-51 0 -94.5 -36.5t-53.5 -88.5z" />
<glyph unicode="&#x26;" horiz-adv-x="1480" d="M137 360q0 35 8 97q52 242 304 401q-68 80 -68 197q0 42 10 90q31 150 168.5 259t292.5 109q136 0 222.5 -88t86.5 -219q0 -42 -10 -78l2 2q-44 -191 -233 -311l65 -76l209 293l264 -149l-276 -381l250 -287l-261 -233l-145 164l-57 65q-81 -106 -199.5 -167.5 t-239.5 -61.5q-174 0 -283.5 106t-109.5 268zM184 449q-25 -116 12.5 -214t126 -155t207.5 -57q114 0 223.5 58.5t186.5 158.5l25 34q23 -24 98.5 -109.5t112.5 -125.5l202 184l-235 273q-2 4 -2 14q4 12 8 16l254 351l-197 108l-221 -305l-123 149q211 118 254 310 q28 137 -49.5 236.5t-214.5 99.5q-141 0 -268 -100t-156 -236q-40 -178 80 -289q-272 -152 -324 -401zM430 457q16 66 71 123t122 92l190 -223l-8 -11q-117 -170 -225 -170q-79 0 -122 54.5t-28 134.5zM469 449q-12 -59 20 -100.5t91 -41.5q52 0 101 44.5t83 97.5 q-9 10 -64 72t-88 102q-122 -78 -143 -174zM674 1128q7 40 42.5 68.5t76.5 28.5q40 0 62 -28.5t13 -68.5q-7 -35 -45 -80t-78 -67q0 -3 -21.5 19.5t-39 59t-10.5 68.5zM709 1118q-4 -18 6 -40.5t23 -35.5l12 -14q39 32 57.5 56.5t26.5 54.5v6q0 17 -11 30t-30 13 q-28 0 -52 -17.5t-30 -44.5zM1174 514l4 -4z" />
<glyph unicode="'" horiz-adv-x="462" d="M260 874l133 623h297l-133 -623h-297zM309 911h215l119 549h-217z" />
<glyph unicode="(" horiz-adv-x="702" d="M137 217q0 76 15 150l147 696q68 317 381 528l176 -248q-112 -91 -154.5 -163.5t-68.5 -198.5l-119 -563q-22 -99 -22 -154q0 -48 20.5 -95.5t69.5 -109.5l-265 -237q-180 171 -180 395zM190 358q-65 -303 127 -485l213 190q-66 83 -75.5 162.5t20.5 198.5l121 563 q26 132 66.5 205.5t144.5 157.5l-135 190q-269 -182 -334 -485z" />
<glyph unicode=")" horiz-adv-x="702" d="M115 70q109 89 151.5 163t69.5 199l121 563q20 105 20 154q0 88 -90 205l268 237q179 -165 179 -391q0 -66 -17 -153l-149 -697q-64 -315 -379 -528zM164 63l135 -190q271 185 332 485l147 697q64 302 -125 485l-215 -190q66 -84 75.5 -163.5t-19.5 -199.5l-119 -563 q-30 -133 -70 -205.5t-141 -155.5z" />
<glyph unicode="*" horiz-adv-x="903" d="M244 893l63 311l51 -20l-43 33l244 200l29 -43v51h303l-12 -26l16 22l168 -217l-21 -12l29 6l-63 -305l-56 16l41 -30l-258 -213h-311l8 24l-12 -16l-170 213l18 12zM293 942l217 47l-205 -112l115 -146l151 180l-90 -206h205l-2 204l76 -178l174 146l-156 112l199 -47 l43 207l-217 -47l203 115l-113 143l-154 -180l95 209h-207l2 -209l-74 180l-176 -143l153 -115l-196 47z" />
<glyph unicode="+" d="M154 375l61 293h365l75 358h297l-75 -358h364l-61 -293h-365q-50 -228 -78 -361h-295l78 361h-366zM201 414h366l-78 -361h218l77 361h363l47 215h-365l76 358h-217l-76 -358h-366z" />
<glyph unicode="," horiz-adv-x="460" d="M94 254l303 59l-51 -436l-225 -27zM135 221l23 -330l153 19l43 356z" />
<glyph unicode="-" horiz-adv-x="878" d="M170 436l63 293h680l-61 -293h-682zM217 473h602l47 217h-600z" />
<glyph unicode="." horiz-adv-x="464" d="M96 143q13 58 64.5 103t113.5 45q63 0 97.5 -49t23.5 -113q-14 -57 -62 -97t-106 -40q-71 0 -108 44t-23 107zM135 137q-11 -45 15 -75.5t77 -30.5q44 0 82 31t47 75t-15 79.5t-67 35.5q-49 0 -90 -35.5t-49 -79.5z" />
<glyph unicode="/" horiz-adv-x="735" d="M39 8l749 1510l187 -43l-744 -1491zM96 39l113 -14l709 1421l-107 27z" />
<glyph unicode="0" d="M166 410q0 52 8 104l102 485q29 135 123.5 253.5t229.5 189.5t274 71q189 0 308.5 -123t119.5 -303q0 -49 -12 -104l-100 -483q-45 -208 -229 -361t-396 -153q-189 0 -308.5 122t-119.5 302zM213 506q-27 -127 13.5 -238.5t138.5 -178t229 -66.5q199 0 371.5 144 t214.5 339l102 485q27 127 -13.5 238.5t-138 178.5t-227.5 67q-199 0 -372.5 -144.5t-215.5 -339.5zM481 510l103 477q19 85 96.5 150t163.5 65q87 0 137 -65t31 -150l-103 -477q-17 -85 -94.5 -150t-163.5 -65q-87 0 -137 64.5t-33 150.5zM520 502q-12 -64 27 -116t104 -52 q73 0 139 56t80 128l103 477q14 67 -23.5 118.5t-105.5 51.5q-70 0 -136 -56.5t-85 -127.5z" />
<glyph unicode="1" d="M496 0l247 1167h-225l70 332h575l-315 -1499h-352zM545 39h270l301 1423h-495l-56 -256h213q13 0 10 -12zM750 1192l2 10q-2 -4 -2 -10z" />
<glyph unicode="2" d="M106 244l623 497q122 91 178.5 162.5t69.5 138.5q13 53 -15 95.5t-90 42.5q-66 0 -146 -64.5t-142 -154.5l-205 227q114 147 254 236t299 89q195 0 300 -103t105 -271q0 -68 -10 -117q-29 -130 -128.5 -253t-293.5 -273l-203 -156h478l-72 -340h-948zM150 227l40 -188 h887l53 262h-526q-6 0 -6 4l6 6l279 213q187 145 283 263.5t122 242.5q41 192 -53 318.5t-303 126.5q-279 0 -504 -285l152 -170q55 81 136 139t156 58q84 0 121.5 -56t22.5 -125q-14 -75 -74 -152t-188 -173z" />
<glyph unicode="3" d="M209 182l231 299q119 -151 215 -151q68 0 124 42t69 109q14 70 -31 114t-123 54q-18 0 -72 2t-69 2l65 308l97 4h-2q67 5 121.5 45t66.5 96q5 28 -13.5 51t-56.5 23q-95 0 -270 -142l-80 299q214 176 424 176q167 0 261 -88t94 -225q0 -36 -11 -86q-37 -156 -182 -274 q133 -95 133 -281q0 -43 -10 -98q-42 -200 -207 -336.5t-377 -136.5q-129 0 -223 46.5t-174 147.5zM262 186q132 -159 344 -159q198 0 352.5 127.5t194.5 314.5q25 120 -12 214t-131 146q-6 6 -6 7q0 4 6 10q74 50 129 122.5t73 153.5q32 151 -50.5 252t-256.5 101 q-194 0 -383 -152l60 -217q140 111 249 111q61 0 89 -37t18 -82q-13 -68 -78.5 -116.5t-144.5 -53.5l-64 -4l-51 -234l98 -4q97 -11 151.5 -66.5t35.5 -146.5q-17 -81 -83 -130.5t-147 -49.5q-121 0 -215 127z" />
<glyph unicode="4" d="M115 229l67 322l389 463l281 332q110 132 119 151h348l-197 -926h133l-75 -352h-133l-46 -219h-350l47 229h-583zM162 268h573q11 0 8 -12l-45 -217h273l45 219h133l57 274h-131l197 926h-277q-1 -1 -395 -469q-260 -306 -381 -454zM514 526l4 6l379 478q2 2 6 2 q2 0 -100 -482q-3 -10 -15 -10h-270q-4 0 -4 6zM588 557h180q58 269 72 322z" />
<glyph unicode="5" d="M174 164l193 330q143 -162 266 -162q90 0 157.5 55.5t83.5 132.5q14 68 -25.5 120t-113.5 52q-94 0 -176 -45q-7 -4 -46.5 -25.5t-61.5 -35.5l-154 202q4 30 18 62l-2 -2q47 119 138.5 349t119.5 300h746l-72 -342h-483q-65 -144 -66 -145q55 12 125 12q196 0 303 -107.5 t107 -283.5q0 -39 -12 -121q-46 -217 -230.5 -370.5t-406.5 -153.5q-129 0 -219 41t-189 137zM221 170q82 -79 161.5 -113t199.5 -34q103 0 203.5 39.5t180 106.5t136.5 158t78 191q23 97 7.5 182t-58.5 148.5t-123 100t-185 36.5q-84 0 -170 -24h-8q-3 3 0 6l90 215 q3 10 15 10h464l58 268h-672l-250 -626q-8 -25 -10 -35l121 -164q37 24 84 45q93 49 192 49q95 0 145 -65t31 -152q-20 -90 -96.5 -153.5t-181.5 -63.5q-67 0 -135 35t-125 98z" />
<glyph unicode="6" d="M145 422q0 65 11 113q32 153 133 272l614 729l258 -193l-262 -305q162 -31 257 -138.5t95 -268.5q0 -53 -10 -111q-31 -146 -129 -269t-236.5 -194t-283.5 -71q-197 0 -322 124t-125 312zM195 526q-29 -137 13.5 -253t144.5 -183t239 -67t267.5 67t222 183t120.5 253 q43 199 -63 332t-305 154q-5 0 -5 2q0 4 5 6l272 319l-197 146l-592 -705q-91 -106 -122 -254zM465 526q22 100 102 167t181 67q98 0 152 -68t32 -166q-22 -100 -103 -165.5t-180 -65.5q-103 0 -154.5 65t-29.5 166zM498 473q0 -64 40.5 -102.5t110.5 -38.5q86 0 155.5 57.5 t88.5 145.5q17 79 -25 133.5t-120 54.5q-88 0 -156.5 -58.5t-87.5 -144.5q-6 -30 -6 -47z" />
<glyph unicode="7" d="M205 109l493 757l189 291h-502l72 340h870l25 -227l-854 -1305zM260 123l225 -109l828 1266l-21 180h-803l-57 -266h516q6 0 6 -6z" />
<glyph unicode="8" d="M174 393q0 50 10 105q22 94 88.5 184.5t149.5 155.5q-51 82 -51 174q0 33 8 69q37 178 190 304t330 126q160 0 261.5 -101t101.5 -255q0 -39 -7 -90q-29 -121 -151 -236q100 -124 100 -264q0 -48 -10 -90q-39 -143 -128.5 -255t-213.5 -174t-260 -62q-183 0 -300.5 116.5 t-117.5 292.5zM223 489q-27 -127 13 -235t134.5 -171t221.5 -63t248 63t206.5 171t112.5 235q22 100 -10.5 188.5t-97.5 153.5q138 120 166 242q34 165 -59.5 282.5t-258.5 117.5q-108 0 -211 -54t-176 -146t-96 -200q-16 -69 0.5 -125.5t56.5 -116.5q-90 -63 -159 -152 t-91 -190zM492 489q19 85 87.5 141t153.5 56t130 -56.5t26 -140.5q-17 -85 -86 -141.5t-154 -56.5q-84 0 -129 57t-28 141zM530 481q-12 -65 22 -109t97 -44q71 0 129.5 49t71.5 121q15 63 -19 107t-98 44q-70 0 -129 -48.5t-74 -119.5zM684 1073q10 55 57 93t103 38 q55 0 85 -37.5t19 -93.5q-14 -56 -59.5 -94.5t-100.5 -38.5t-85.5 38.5t-18.5 94.5zM719 1065q-7 -37 12.5 -61.5t56.5 -24.5q42 0 77 29.5t46 72.5h-2q8 35 -11 59.5t-54 24.5q-43 0 -78.5 -28.5t-44.5 -71.5h-2z" />
<glyph unicode="9" d="M242 862q0 53 10 111q50 222 239.5 378t411.5 156q196 0 320.5 -123t124.5 -311q0 -67 -11 -115q-30 -146 -131 -272l-612 -723l-262 193l262 297q-161 33 -256.5 141t-95.5 268zM291 965q-42 -198 64.5 -331.5t306.5 -152.5q4 0 4 -4t-4 -4l-273 -311l199 -148l590 697 q91 107 120 254q25 105 3.5 197t-73.5 160.5t-137 108t-188 39.5q-137 0 -268 -67.5t-223 -184t-121 -253.5zM561 965q23 102 104.5 167.5t180.5 65.5q103 0 154 -65t28 -168q-20 -99 -100.5 -166.5t-182.5 -67.5q-98 0 -151 68t-33 166zM600 958q-15 -78 27 -133t118 -55 q87 0 157 58t87 145q8 40 8 49q0 63 -41 101t-110 38q-84 0 -154 -58t-92 -145z" />
<glyph unicode=":" horiz-adv-x="468" d="M102 143q11 58 63 103t116 45q61 0 95 -49t23 -113q-12 -57 -61 -97t-107 -40q-71 0 -107.5 44.5t-21.5 106.5zM139 137q-9 -45 16.5 -75.5t75.5 -30.5q44 0 82 31t47 75t-14 79.5t-65 35.5q-51 0 -92 -35t-50 -80zM242 809q14 65 63 106t115 41q64 0 99 -46.5t20 -114.5 q-12 -56 -61.5 -97t-104.5 -41q-69 0 -105.5 44.5t-25.5 107.5zM281 803q-9 -45 16.5 -76t75.5 -31q44 0 82 31.5t47 75.5q10 50 -13.5 82.5t-68.5 32.5q-51 0 -90 -32t-49 -83z" />
<glyph unicode=";" horiz-adv-x="462" d="M98 254l303 59l-53 -436l-223 -27zM137 221l23 -330l153 19l45 356zM240 813q12 62 61 103.5t107 41.5q70 0 106.5 -45t22.5 -114q-14 -58 -64 -97.5t-113 -39.5t-98 44t-22 107zM279 807q-10 -44 14 -75.5t67 -31.5q50 0 89.5 31t48.5 76q10 49 -15 81t-75 32 q-45 0 -82.5 -32t-46.5 -81z" />
<glyph unicode="&#x3c;" horiz-adv-x="1372" d="M178 416l45 211l1176 446l-53 -258l-805 -315q43 -10 174.5 -66.5t501.5 -222.5l-52 -244zM221 436l916 -416l34 170q-205 92 -344.5 155t-210.5 95t-106.5 49t-40.5 19.5t-4 3.5l848 332l35 168l-1090 -414z" />
<glyph unicode="=" horiz-adv-x="1169" d="M131 219l62 293h946l-62 -293h-946zM180 258h867l45 215h-867zM201 539l59 292h946l-59 -292h-946zM248 575h866l45 218h-866z" />
<glyph unicode="&#x3e;" horiz-adv-x="1370" d="M82 -39l53 256q578 219 771 292l14 5l-658 309l51 242l983 -447l-41 -210zM133 20l1088 416l32 162l-911 414l-37 -168l707 -332q-7 -7 -844 -322z" />
<glyph unicode="?" horiz-adv-x="921" d="M262 166q13 62 64 107t112 53h-143q-5 168 18 282q15 61 43 114.5t69 99.5t73.5 75.5t81.5 69.5q44 35 68 56t46.5 49.5t28.5 53.5q5 24 -4 33.5t-21 9.5q-32 0 -80.5 -28t-79.5 -54t-79 -69l-174 227q71 79 164 146h-3q176 122 320 122q156 0 240 -70.5t84 -209.5 q0 -39 -11 -111q-14 -61 -37.5 -114t-46 -86.5t-60.5 -70t-60.5 -53.5t-65.5 -48h2q-51 -36 -76.5 -57t-54 -60.5t-37.5 -85.5v2q-10 -55 -10 -96q0 -20 6 -125l-160 -2q66 -7 99.5 -56t19.5 -118q-14 -64 -71 -112t-124 -48q-69 0 -112.5 52.5t-28.5 121.5zM301 160 q-10 -52 20.5 -90.5t81.5 -38.5q55 0 100.5 38t57.5 91q11 56 -18 93.5t-84 37.5q-53 0 -100.5 -38t-57.5 -93zM334 365l264 2q-6 127 6 186q11 51 37 92t60 69.5t73 55.5t79 58.5t76 69.5t65.5 97.5t45.5 134.5q36 171 -37 258t-237 87q-137 0 -297 -115q-81 -58 -135 -117 l131 -170q42 38 70.5 61t76.5 48.5t86 25.5q81 0 64 -90q-9 -43 -49.5 -86t-93.5 -84t-107 -87.5t-99 -113.5t-61 -145q-20 -105 -18 -237z" />
<glyph unicode="@" horiz-adv-x="1863" d="M231 553q0 86 17 158q52 223 210 408t377.5 289.5t450.5 104.5q120 0 228.5 -32t194.5 -92t136.5 -156t50.5 -215q0 -72 -14 -129q-31 -135 -113 -257t-202 -210q-155 -98 -295 -98q-149 0 -182 90q-107 -90 -242 -90q-119 0 -182.5 60t-63.5 169q0 104 43 209.5t114 188 t169.5 134.5t201.5 52q129 0 189 -80q8 10 22 31t15 22h207l-263 -573q0 -17 23 -17q77 0 168 82q133 108 176 303q12 50 12 88q0 144 -114 227t-316 83q-173 0 -340.5 -82t-289 -226t-160.5 -315q-13 -54 -13 -94q0 -174 135 -283.5t351 -109.5q307 0 551 153l69 -143 q-329 -217 -639 -217q-140 0 -262.5 37t-216.5 106t-148.5 178.5t-54.5 245.5zM276 463q19 -108 75.5 -190.5t142.5 -138t192.5 -83.5t226.5 -28q302 0 592 194l-39 74q-218 -135 -534 -135q-173 0 -301 68t-185 190t-26 274q39 183 166 334t303 235t360 84 q253 0 376.5 -121.5t80.5 -322.5q-46 -206 -188 -322q-97 -94 -195 -94q-33 0 -49.5 18.5t-11.5 47.5l20 47l221 477h-129l-65 -92q-13 62 -56.5 90.5t-122.5 28.5q-159 0 -299 -131t-182 -328q-28 -131 23.5 -204t175.5 -73q82 0 147 34t129 104q-13 -73 30 -105.5 t118 -32.5q129 0 274 93q240 176 299 442q24 115 4.5 207t-70.5 161.5t-128.5 116t-170 70t-194.5 23.5q-227 0 -439 -99t-363.5 -276.5t-198.5 -394.5q-28 -134 -9 -242zM805 639q31 146 126 252t197 106q61 0 93 -36t18 -105q-8 -38 -16 -55l-64 -135q-42 -90 -113 -145.5 t-141 -55.5q-138 0 -100 174zM836 575q0 -73 69 -73q59 0 121 49.5t100 128.5l60 135q1 2 16 47q6 46 -15 72.5t-59 26.5q-91 0 -174.5 -98t-111.5 -232q-6 -27 -6 -56z" />
<glyph unicode="A" horiz-adv-x="1536" d="M-6 0l934 1530h264l291 -1530h-375l-66 270h-493l-168 -270h-387zM61 39h299l162 262q8 8 19 8h524q12 0 12 -8l62 -262h297l-277 1452h-211zM688 573l4 9l250 407q0 2 2 4q4 4 6 4q2 -2 2 -4t2 -4l74 -407q2 -2 2 -4t-2 -3q0 -8 -8 -8h-324q-8 0 -8 6zM754 606h229 l-53 289z" />
<glyph unicode="B" horiz-adv-x="1169" d="M80 0l323 1530h449q149 0 252.5 -103t103.5 -245q0 -42 -10 -90q-35 -143 -125 -250q90 -110 90 -254q0 -115 -50 -222.5t-131.5 -185.5t-188 -127t-215.5 -53h-498zM129 39h449q185 5 341.5 135t194.5 315q11 51 11 98q0 52 -13 100q-25 92 -90 155q103 113 137 256 q9 41 9 80q0 109 -70 196q-94 117 -246 117h-416zM465 328l74 346q3 12 14 12h152q73 0 111 -54q28 -39 28 -89q0 -20 -4 -41q-18 -75 -79.5 -131t-133.5 -56h-152q-11 0 -11 9q0 2 1 4zM508 354h119q54 0 105 48.5t69 107.5q3 16 3 32q0 37 -19 65q-27 40 -80 40h-132z M596 936l55 266q3 12 17 12h108q60 0 92 -42q23 -30 22 -68q0 -15 -3 -31q-11 -58 -57.5 -101.5t-104.5 -47.5h-121q-9 0 -9 7q0 2 1 5zM637 963h86q44 3 81 38t46 80q1 9 1 17q1 28 -15 50q-20 28 -60 28h-90z" />
<glyph unicode="C" horiz-adv-x="1460" d="M227 610q0 87 19 168q42 167 134.5 310.5t216.5 243.5t277 157t312 57q84 0 162 -18.5t127.5 -41.5t96.5 -56.5t63 -49t32 -32.5l-270 -275q-119 116 -271 119q-190 -8 -336 -127.5t-190 -308.5q-10 -48 -10 -80q0 -143 93.5 -233.5t246.5 -102.5q160 3 327 119l158 -287 q-26 -20 -63 -43t-110.5 -60t-172.5 -61t-201 -24q-140 0 -260 48t-203 131.5t-130.5 199t-47.5 247.5zM272 530q12 -110 62.5 -203.5t126 -161t181 -105t226.5 -37.5q97 0 188.5 20t156 51t98 51.5t53.5 36.5l-123 221q-149 -102 -313 -102q-188 11 -298 142 q-80 95 -80 223q0 48 11 100q41 195 201.5 326t361.5 139q162 0 273 -103l217 220q-159 159 -428 159q-156 0 -307 -58.5t-270.5 -158t-205.5 -236t-118 -288.5q-16 -85 -16 -162q-1 -38 3 -74z" />
<glyph unicode="D" horiz-adv-x="1503" d="M84 0l324 1530h510q185 0 329.5 -81.5t222.5 -222t78 -313.5q0 -121 -37.5 -238.5t-102.5 -216.5t-155 -183.5t-193 -144t-219 -94t-231 -36.5h-526zM133 39h477q148 0 295.5 58.5t266 156.5t204.5 232t117 280q17 75 17 145q0 23 -2 46q-8 92 -36 172.5t-82 147 t-123.5 114t-159 74t-189.5 26.5h-478zM471 328l184 874q3 12 17 12h198q196 0 292 -124q67 -87 67 -211q0 -53 -12 -113q-43 -199 -197 -325t-352 -126h-189q-9 0 -9 8q0 2 1 5zM514 354h154q184 0 327 116.5t183 301.5q12 59 12 107q0 135 -85.5 216t-234.5 81h-180z" />
<glyph unicode="E" horiz-adv-x="1079" d="M82 0l321 1530h881l-74 -354h-522l-51 -230h522l-74 -354h-522l-51 -238h522l-73 -354h-879zM129 39h799l57 276h-510q-11 0 -8 13l61 290q3 11 15 11h508l61 278h-510q-14 0 -10 11l61 284q3 12 15 12h510l57 277h-797z" />
<glyph unicode="F" horiz-adv-x="1064" d="M82 0l324 1530h880l-74 -354h-524l-51 -230h524l-76 -354h-522l-123 -592h-358zM129 39h277l122 579q3 11 15 11h510l61 278h-512q-14 0 -10 11l61 284q3 12 15 12h512l57 277h-799z" />
<glyph unicode="G" horiz-adv-x="1677" d="M231 610q0 103 13 158q58 229 199 407t335.5 274.5t409.5 96.5q84 0 166 -20t138.5 -47t108 -61t75 -55t38.5 -36l-270 -274q-58 57 -148.5 98t-169.5 41q-117 0 -229.5 -58.5t-192 -159t-104.5 -218.5q-8 -36 -8 -86q0 -143 99 -237.5t259 -94.5q176 0 285 74l22 110 h-350l72 346h715l-23 -104l-106 -500q-128 -125 -303 -202.5t-390 -77.5q-140 0 -260.5 48t-203.5 131.5t-130 199t-47 247.5zM274 530q12 -110 62.5 -203.5t126.5 -161t181.5 -105t227.5 -37.5q206 0 371 71.5t285 186.5l104 489l13 59h-633l-58 -268h346q7 0 7 -6 l-37 -166q-127 -90 -320 -90q-135 0 -233.5 63t-138.5 170q-25 65 -25 138q0 46 10 96q27 126 112.5 233t205.5 169.5t245 62.5q84 0 175 -37.5t143 -87.5l217 221q-19 19 -48 41t-89.5 57.5t-149 58.5t-186.5 23q-208 0 -400 -99.5t-324.5 -269t-176.5 -372.5 q-16 -85 -16 -162q0 -38 3 -74z" />
<glyph unicode="H" horiz-adv-x="1343" d="M84 0l324 1530h358l-125 -584h416l125 584h358l-323 -1530h-359l123 592h-414l-125 -592h-358zM133 39h277l122 579q3 11 13 11h473q13 0 10 -11l-123 -579h279l307 1452h-277l-122 -573q-4 -11 -13 -11h-473q-14 0 -10 11l123 573h-279zM987 616l2 11q-2 -4 -2 -11z" />
<glyph unicode="I" horiz-adv-x="526" d="M74 0l323 1530h359l-324 -1530h-358zM123 39h276l308 1452h-277z" />
<glyph unicode="J" horiz-adv-x="964" d="M80 242l342 180q12 -84 65 -84q35 0 67.5 28t41.5 66q35 163 114.5 542t118.5 556h359l-236 -1114q-40 -182 -191.5 -307t-332.5 -125q-128 0 -219.5 64t-128.5 194zM127 223q29 -93 109.5 -146.5t191.5 -53.5q167 0 307.5 116t177.5 285l226 1067h-277l-227 -1067 q-10 -52 -53.5 -88.5t-94.5 -36.5q-36 0 -61 17.5t-29 50.5z" />
<glyph unicode="K" horiz-adv-x="1193" d="M84 0l324 1530h358q-95 -456 -125 -545l457 545h413l-634 -770l311 -760h-410q-127 307 -219 549l-117 -549h-358zM133 39h277l133 631l50 -116q41 -98 212 -515h325l-294 715q-2 2 -2 12l6 10l592 715h-318l-522 -625q-4 -4 -6 -4t131 629h-277z" />
<glyph unicode="L" horiz-adv-x="1024" d="M78 0l323 1532h359l-252 -1178h487l-73 -354h-844zM125 39h764l57 276h-463q-21 0 -18 25l246 1153h-277z" />
<glyph unicode="M" horiz-adv-x="1789" d="M90 0l324 1530h432l141 -938l543 938h440l-323 -1530h-355l178 819q-4 -12 -11 -26.5t-23.5 -44t-36 -63.5t-59 -101t-81.5 -139t-113.5 -194t-146.5 -251h-268l-113 780l-161 -780h-367zM139 39h285l203 962l139 -962h211q557 955 565 955v-1l-203 -954h275l307 1452 h-371l-583 -1014l-156 1014h-365z" />
<glyph unicode="N" horiz-adv-x="1456" d="M86 0l324 1528l315 2l387 -838l25 113l151 723h359l-324 -1528h-313l-389 836l-23 -109l-154 -727h-358zM135 39h277l147 696l47 223l428 -919h256l309 1450h-276l-147 -692l-50 -226l-424 920l-260 -2z" />
<glyph unicode="O" horiz-adv-x="1794" d="M231 610q0 78 19 162q44 210 186 388.5t342.5 282t411.5 103.5q140 0 259.5 -47.5t202.5 -130.5t130 -198.5t47 -247.5q0 -90 -21 -179q-54 -217 -193 -390.5t-334.5 -271t-408.5 -97.5q-140 0 -260 48t-203 131.5t-130.5 199t-47.5 247.5zM276 530q12 -110 62.5 -203.5 t126 -161t181 -105t226.5 -37.5q205 0 396 96.5t325.5 267.5t178.5 379q16 85 16 164q0 36 -3 70q-11 110 -61.5 203.5t-126 161t-181 105t-226.5 37.5q-152 0 -302 -58.5t-271 -157.5t-208.5 -236.5t-119.5 -288.5q-16 -85 -16 -162q-1 -38 3 -74zM565 766 q40 192 205.5 328.5t357.5 136.5q126 0 220 -62.5t134 -169.5q24 -64 24 -135q0 -48 -11 -98q-40 -192 -205.5 -328.5t-357.5 -136.5q-126 0 -220 62.5t-134 169.5q-24 65 -23 136q0 47 10 97zM594 668q0 -141 94.5 -234.5t243.5 -93.5q179 0 333 127t191 305q10 44 10 90 q0 142 -94.5 236t-243.5 94q-178 0 -332 -128t-194 -308q-8 -36 -8 -88z" />
<glyph unicode="P" horiz-adv-x="1138" d="M80 0l326 1530h479q173 0 276 -103t103 -268q0 -49 -11 -110q-47 -199 -205 -338.5t-352 -139.5h-137l-121 -571h-358zM129 39h277l118 559q3 12 15 12h157q184 0 331 129t187 318q12 55 12 105q0 118 -65 205q-92 124 -276 124h-447zM588 899l63 303q3 12 17 12h159 q40 0 66.5 -16t35.5 -40t12 -52q1 -8 0 -14q0 -19 -5 -35q-5 -26 -17.5 -53.5t-33 -54.5t-54 -44.5t-73.5 -17.5h-160q-11 0 -11 8q0 2 1 4zM631 926h127q105 0 141 137q1 15 1 32v17q-1 26 -20 45t-53 19h-141z" />
<glyph unicode="Q" horiz-adv-x="1794" d="M231 610q0 78 19 162q44 210 186 388.5t342.5 282t411.5 103.5q140 0 259.5 -47.5t202.5 -130.5t130 -198.5t47 -247.5q0 -80 -19 -164q-56 -256 -239 -451l94 -110l-307 -230l-94 111q-199 -94 -392 -94q-140 0 -260 48t-203 131.5t-130.5 199t-47.5 247.5zM276 530 q12 -110 62.5 -203.5t126 -161t181 -105t226.5 -37.5q212 0 402 102l90 -107l246 185l-92 106q199 199 254 457q16 85 16 164q0 36 -3 70q-11 111 -61.5 204t-126 160.5t-181 105t-226.5 37.5q-152 0 -302 -58.5t-271 -157.5t-208.5 -236.5t-119.5 -288.5q-16 -85 -16 -162 q0 -38 3 -74zM565 766q40 192 205.5 328.5t357.5 136.5q126 0 220 -62.5t134 -169.5q24 -64 24 -135q0 -47 -11 -98q-26 -138 -133 -258l-107 141l-233 -184l98 -127q-93 -37 -188 -37q-126 0 -220 62.5t-134 169.5q-23 65 -23 136q0 47 10 97zM594 668q0 -141 94.5 -234.5 t243.5 -93.5q74 0 125 16l-88 117l295 229l100 -133q68 85 92 203q10 44 10 90q0 142 -94.5 236t-243.5 94q-178 0 -332 -128t-194 -308q-8 -36 -8 -88z" />
<glyph unicode="R" horiz-adv-x="1218" d="M82 0l321 1530h490q186 0 288.5 -108t102.5 -277q0 -65 -12 -117q-23 -105 -72.5 -184t-136.5 -150q-44 -37 -94 -65l213 -629h-400l-188 569h-35l-119 -569h-358zM129 39h277l118 557q3 12 15 12h73q12 0 15 -12l182 -557h317l-204 604q-7 10 2 10q69 33 114 70 q81 67 127.5 141t67.5 172q13 58 13 112q0 61 -16 115q-30 103 -118 165.5t-219 62.5h-455zM582 868l71 334q3 12 15 12h166q74 0 106 -52q22 -36 23 -82q0 -21 -5 -44q-16 -75 -71 -127.5t-129 -52.5h-168q-8 0 -8 12zM627 895h131q55 0 102.5 45t59.5 104q4 18 4 34 q0 33 -16 59q-22 39 -74 39h-146z" />
<glyph unicode="S" horiz-adv-x="1103" d="M143 354l306 121q25 -65 56 -101t85 -36q47 0 87 34.5t48 80.5q4 19 4 36q0 15 -3 27q-7 28 -31.5 48t-45 30.5t-59.5 26.5q-293 130 -293 358q0 114 45.5 218t121.5 179.5t180.5 120.5t217.5 45q87 0 162.5 -33t128 -103t61.5 -167l-342 -145q-11 53 -35.5 72.5 t-50.5 19.5q-40 0 -76.5 -34t-45.5 -77q-1 -7 -1 -14q-1 -27 21 -53q28 -32 76 -54q123 -52 180 -94q79 -56 117.5 -125.5t38.5 -161.5q0 -51 -15 -135q-41 -189 -197 -321.5t-339 -132.5h-19q-168 0 -268 99.5t-115 270.5zM186 330q12 -135 103.5 -221t236.5 -86h19 q169 0 314 123t183 300q15 69 15 126q0 58 -15 102q-30 90 -127 155q-25 18 -80.5 46.5t-93.5 44.5q-60 28 -93 70q-25 33 -25 70q0 11 2 23q12 55 60 98.5t101 43.5q89 0 111 -82l274 121q-8 75 -56 131t-114 82t-139 26q-193 0 -334 -117.5t-182 -314.5q-11 -61 -11 -108 q0 -45 16 -85q16 -41 38 -72.5t57.5 -59.5t73.5 -49.5t86 -41.5q87 -37 113 -57q51 -38 51 -104q0 -22 -6 -48q-11 -59 -61.5 -103t-112.5 -44q-69 0 -104 33t-58 92z" />
<glyph unicode="T" horiz-adv-x="1193" d="M328 1176l73 354h1006l-74 -354h-327l-248 -1176h-359l248 1176h-319zM377 1214h311q2 0 6 -4q1 -2 0.5 -4.5t-1.5 -6.5t-1 -5l-243 -1155h276l244 1155l4 20h327l60 277h-926z" />
<glyph unicode="U" horiz-adv-x="1243" d="M172 373q0 53 8 86l226 1069h358l-223 -1045q-3 -14 -3 -27q0 -43 32 -73q42 -39 102 -39q62 0 117.5 42.5t76.5 102.5l221 1039h359l-229 -1084q-34 -135 -128.5 -240t-219 -159.5t-257.5 -54.5q-186 0 -313 107t-127 276zM219 451q-9 -41 -9 -79q0 -47 13 -91 q23 -80 78.5 -134.5t136.5 -86t174 -31.5q123 0 243 53t208.5 151t114.5 218l221 1038h-279l-211 -989q-18 -85 -88 -140t-149 -55q-77 0 -132 52q-41 39 -41 93q0 19 5 39l213 1000h-279z" />
<glyph unicode="V" horiz-adv-x="1413" d="M344 1530h377l100 -885l479 885h392l-869 -1530h-268zM389 1491l201 -1452h211l825 1452h-299l-520 -956l-10 -17l-2 17l-111 956h-295z" />
<glyph unicode="W" horiz-adv-x="1912" d="M383 1530h367l28 -715l340 715h279l28 -715l336 715h373l-737 -1530h-283q-26 529 -31 711l-335 -711h-277zM424 1491l84 -1452h217l385 821l41 -821h221l701 1452h-289l-383 -819q-4 -4 -6 -4q-1 0 -7 151q-13 321 -28 672h-217l-389 -819q-4 -4 -6 -4q-1 0 -7 151 q-13 321 -28 672h-289z" />
<glyph unicode="X" horiz-adv-x="1347" d="M-35 0l639 770l-307 762h412l172 -432l356 430h430l-647 -770l313 -760h-413l-175 430l-358 -430h-422zM45 39h324l376 450q3 7 13 7q2 0 6 -7l182 -450h330l-295 715q-2 2 -2 12l6 10l598 715h-328l-376 -453q-3 -6 -9 -6q-3 0 -6 6l-182 455h-326l289 -717q3 -8 2 -10 q0 -3 -6 -12z" />
<glyph unicode="Y" horiz-adv-x="1216" d="M315 1530h390l98 -529l325 527h396l-637 -981q-18 -82 -56 -270.5t-57 -276.5h-358l116 559zM365 1491l208 -930l-110 -522h278l109 522l602 928h-303l-358 -578q-3 -6 -7 -6q-3 0 -6 6l-108 580h-305z" />
<glyph unicode="Z" horiz-adv-x="1200" d="M80 0l57 268q225 267 395 473q86 104 211 256.5t146 178.5h-559l73 354h998l-64 -270q-76 -95 -176 -216q-67 -81 -210.5 -250.5t-238 -282.5t-128.5 -157h567l-74 -354h-997zM129 39h913l60 276h-545q-32 0 -29 17q4 14 198.5 249.5t387 464.5t191.5 230l47 215h-916 l-57 -277h547q15 0 22.5 -4t5.5 -10q-7 -14 -10 -18q-188 -232 -383 -465q-227 -275 -387 -465z" />
<glyph unicode="[" horiz-adv-x="727" d="M23 -279l399 1903h543l-64 -305h-192q-40 -192 -86.5 -408.5t-103 -478t-87.5 -407.5h195l-66 -304h-538zM70 -242h458l50 230h-181q-11 0 -8 10l287 1348q3 12 10 12h182l50 227h-463z" />
<glyph unicode="\" horiz-adv-x="737" d="M354 1473l195 57l115 -1505l-191 -52zM395 1446l113 -1426l117 33l-111 1428z" />
<glyph unicode="]" horiz-adv-x="727" d="M18 -279l66 304h190l275 1294h-191l64 305h543l-408 -1903h-539zM66 -242h458l394 1827h-463l-49 -227h182q11 0 8 -12l-287 -1348q-3 -10 -12 -10h-182zM555 1346l2 8q-2 -4 -2 -8z" />
<glyph unicode="^" horiz-adv-x="1146" d="M135 670l629 827h197l280 -827h-305l-150 436l-327 -436h-324zM211 707h229l361 481l162 -481h227l-256 753h-152z" />
<glyph unicode="_" horiz-adv-x="1372" d="M-76 -256l43 211h1348l-43 -211h-1348zM-29 -217h1268l29 133h-1268z" />
<glyph unicode="`" horiz-adv-x="694" d="M334 1274l174 264l397 -184l-207 -242zM389 1290l299 -133l158 184l-324 150z" />
<glyph unicode="a" horiz-adv-x="1202" d="M129 412q0 66 12 116q64 228 238.5 369t388.5 141q124 0 215 -49l8 35h316l-217 -1024h-316l6 27q-99 -41 -217 -41q-190 0 -312 121.5t-122 304.5zM178 512q-11 -53 -11 -102q0 -74 25 -142q42 -112 140.5 -178.5t230.5 -66.5q142 0 271 69l-13 -53h236l200 946h-233 l-14 -55q-96 71 -242 71q-131 0 -257.5 -66t-216 -178.5t-116.5 -244.5zM434 512q20 99 102 167.5t181 68.5q97 0 151 -68q38 -49 38 -113q0 -26 -7 -55q-22 -100 -104.5 -168t-180.5 -68t-150 68q-37 48 -36 112q0 27 6 56zM471 504q-5 -23 -4 -44q1 -51 29 -90 q42 -55 118 -55q87 0 158 59t90 146q5 23 5 43q-1 52 -31 91q-42 55 -119 55q-86 0 -156.5 -58.5t-89.5 -146.5z" />
<glyph unicode="b" horiz-adv-x="1232" d="M63 0l297 1405h338l-86 -399q98 32 195 32q190 0 313 -122.5t123 -305.5q1 -4 1 -24v-16v-11q0 -8 -3 -26.5t-8 -38.5q-64 -222 -239 -365t-394 -143q-110 0 -207 43q-4 -28 -4 -29h-326zM111 39h243l11 47q102 -63 235 -63q131 0 258 66t217.5 178.5t118.5 244.5 q10 51 10 100q0 76 -26 144q-42 112 -141 178.5t-230 66.5q-129 0 -248 -61l92 428h-258zM471 512q22 100 103.5 168t179.5 68t152 -68q38 -49 39 -113q0 -26 -7 -55q-22 -100 -104.5 -168t-180.5 -68t-151 68q-37 48 -37 112q0 27 6 56zM508 504q-5 -23 -4 -43 q0 -52 30 -91q42 -55 119 -55q85 0 156 59t90 146q5 23 5 44q0 51 -30 90q-42 55 -120 55q-86 0 -156.5 -58.5t-89.5 -146.5z" />
<glyph unicode="c" horiz-adv-x="1126" d="M143 410q0 44 11 112q46 214 230 365t402 151q134 0 246 -74t158 -192l-279 -180l-37 49l5 -4q-19 22 -32 33.5t-42.5 23t-67.5 11.5q-85 0 -155.5 -58t-87.5 -141q-5 -22 -4 -43q0 -51 30 -89q42 -54 119 -55q114 0 221 134l266 -150q-118 -161 -251 -239t-295 -78 q-194 0 -315.5 120t-121.5 304zM193 514q-12 -55 -12 -107q1 -74 25 -140q42 -113 141 -178.5t233 -65.5q138 0 269 73.5t222 196.5l-201 113q-59 -64 -113 -93.5t-118 -29.5q-97 -1 -151 67q-38 48 -37 110q0 26 6 54q20 95 101.5 162t178.5 67q27 0 50 -5t38 -10.5 t32 -18.5t23.5 -19.5t22.5 -23.5t19 -21l221 141q-38 91 -137.5 153t-219.5 62q-135 0 -261.5 -65.5t-215 -177.5t-116.5 -244z" />
<glyph unicode="d" horiz-adv-x="1241" d="M168 412q0 64 12 114q63 225 239.5 368.5t389.5 143.5q106 0 195 -39q13 62 43 201t43 203h335l-295 -1403h-321l2 27q-100 -41 -209 -41q-190 0 -312 121.5t-122 304.5zM217 512q-11 -53 -11 -102q0 -74 25 -142q42 -112 140.5 -178.5t230.5 -66.5q122 0 260 67l-8 -51 h244l280 1327h-258l-88 -426q-95 61 -223 61q-132 0 -259 -66t-216.5 -178.5t-116.5 -244.5zM473 512q22 100 103.5 168t179.5 68t151 -68q37 -48 38 -112q0 -27 -7 -56q-20 -99 -103 -167.5t-180 -68.5q-98 0 -151 68q-37 48 -37 112q0 27 6 56zM510 504q-5 -23 -4 -43 q0 -52 30 -91q42 -55 119 -55q85 0 156 59t90 146q5 23 5 44q0 51 -30 90q-42 55 -120 55q-86 0 -156.5 -58.5t-89.5 -146.5z" />
<glyph unicode="e" horiz-adv-x="1091" d="M127 399q0 41 12 123q30 141 122 259t224 186.5t273 68.5q189 0 289 -99.5t100 -270.5q0 -56 -14 -142q-19 -82 -37 -137h-162l88 -254q-128 -80 -232 -113.5t-225 -33.5q-200 0 -319 113.5t-119 299.5zM178 514q-14 -63 -14 -120q0 -134 78 -232q110 -138 323 -139 q115 0 207 29t205 98l-66 184q-162 -76 -272 -76q-87 0 -141 43.5t-60 114.5q0 8 8 8h619q21 67 29 108q15 72 15 134q0 120 -57 205q-87 128 -294 128q-200 0 -368.5 -141.5t-211.5 -343.5zM477 621q2 12 23 40.5t51 53.5q72 59 151 59q89 0 127 -51q25 -29 25 -75 q0 -14 -2 -30q-4 -4 -10 -4h-359q-7 0 -7 4q0 1 1 3zM483 387q16 -41 57 -66.5t99 -25.5q61 0 129.5 23t165.5 69h-451zM543 653h272q0 22 -12 43q-31 39 -101 39q-60 0 -127 -49q-17 -14 -32 -33z" />
<glyph unicode="f" horiz-adv-x="870" d="M184 717l66 307h153l13 61q31 146 137 234t258 88h215l-61 -299h-134q-72 0 -90 -78q-2 -4 -2 -6h277l-66 -307h-274q-24 -120 -77 -364t-75 -353h-338l152 717h-154zM231 756h154l-152 -717h259l151 717h275l49 229h-275l13 51q21 109 126 109h101l47 225h-168 q-137 0 -232.5 -80t-123.5 -213l-21 -92h-153z" />
<glyph unicode="g" horiz-adv-x="1245" d="M115 -252l252 219q90 -86 170 -86q67 0 130.5 35.5t104.5 95.5q-72 -26 -174 -26q-190 0 -312 121.5t-122 304.5q0 69 12 118q44 153 145 271t227.5 177.5t256.5 59.5q126 0 211 -43l8 29h319l-188 -893q-25 -113 -91 -215.5t-155.5 -177.5t-202.5 -119.5t-227 -44.5 q-103 0 -198 46t-166 128zM168 -256q53 -62 135 -97.5t176 -35.5q145 0 281 71.5t231 192.5t125 264l180 846h-243l-13 -49q-98 65 -235 65q-131 0 -257.5 -66t-216.5 -178.5t-118 -244.5q-11 -52 -11 -100q0 -76 26 -144q42 -113 140.5 -179t229.5 -66q128 0 250 61l-2 -2 l2 -4q-34 -100 -122.5 -168t-188.5 -68q-92 0 -170 74zM469 512q22 99 104 167.5t179 68.5q99 0 152 -68q38 -49 38 -113q0 -26 -6 -55q-22 -100 -104.5 -168t-180.5 -68t-150 68q-38 49 -38 115q0 25 6 53zM508 504q-5 -23 -5 -44q0 -51 29 -90q42 -55 119 -55q87 0 158 59 t90 146q5 22 5 43q0 52 -31 91q-43 55 -121 55q-85 0 -155 -58.5t-89 -146.5z" />
<glyph unicode="h" horiz-adv-x="1095" d="M61 0l297 1405h338l-80 -381q52 14 115 14q188 0 287.5 -87.5t99.5 -250.5q0 -64 -12 -125q-72 -329 -121 -575h-338l123 586q2 12 2 22q0 36 -20 62q-26 34 -74 35q-56 0 -104 -39.5t-58 -94.5l-121 -571h-334zM109 39h256l112 539q15 69 74 117t127 48t106 -48 q27 -34 27 -79q0 -18 -4 -38l-113 -539h258l115 543q13 64 13 118q0 117 -60 192q-88 109 -289 109q-75 0 -168 -34l86 401h-258z" />
<glyph unicode="i" horiz-adv-x="462" d="M51 0l217 1026h170q-72 3 -110 53q-27 36 -27 84q0 19 4 39q14 64 72 112t125 48q70 0 112 -52q31 -39 31 -87q0 -17 -4 -35q-13 -66 -69 -113t-119 -49h151l-215 -1026h-338zM98 39h258l201 948h-258zM344 1194q-3 -16 -3 -31q1 -37 21 -63q30 -38 84 -37q52 0 99 38 t59 93q3 14 3 27q-1 36 -23 64q-30 38 -82 38q-55 0 -101 -38t-57 -91z" />
<glyph unicode="j" horiz-adv-x="462" d="M-127 -426l70 332h82l6 20l233 1102h150q-63 9 -94 58q-23 35 -23 78q0 18 4 38q15 64 73 112t126 48q70 0 112 -53q30 -38 30 -83q0 -18 -5 -38q-12 -61 -61 -106t-109 -54h135l-252 -1194q-19 -90 -71.5 -151t-112 -85t-123.5 -24h-170zM-80 -389h123q41 0 81 13 t77.5 39t67 72.5t42.5 106.5l244 1147h-258l-227 -1071q-8 -41 -35 -51h-62zM340 1194q-3 -15 -3 -29q0 -37 21 -65q29 -37 84 -37q52 0 99 38t59 93q3 13 3 25q0 37 -23 65q-29 39 -80 39q-55 0 -102 -38t-58 -91z" />
<glyph unicode="k" horiz-adv-x="958" d="M61 0l318 1499h338l-164 -768l246 293h381l-435 -516l216 -508h-371q-121 288 -127 303l-64 -303h-338zM109 39h258l79 381q4 8 7 8q12 -24 28 -68q33 -94 133 -321h289l-194 465q-2 6 -2 12q0 2 6 8l387 461h-283l-323 -383q-1 0 -3.5 -1t-3.5 -1v4l181 858h-256z" />
<glyph unicode="l" horiz-adv-x="462" d="M51 0l297 1403h338l-297 -1403h-338zM100 39h258l281 1327h-258z" />
<glyph unicode="m" horiz-adv-x="1728" d="M70 0l217 1024h315l-2 -8q56 22 143 22q177 0 279 -82q131 82 309 82q187 0 287 -87.5t100 -250.5q0 -64 -12 -125l-123 -575h-338l125 586q1 10 1 18q-1 38 -21 66q-26 34 -72 35q-54 0 -101.5 -35t-60.5 -88l-121 -582h-338l125 586q1 10 1 18q-1 38 -21 66 q-26 34 -72 35q-56 0 -102.5 -35t-59.5 -90v2l-120 -582h-338zM119 39h256l117 551q19 66 75.5 109.5t122.5 43.5q69 0 106 -48q27 -35 27 -81q0 -17 -4 -36l-112 -539h256l116 551q13 65 72.5 109t126.5 44q69 0 106 -48q27 -35 27 -81q0 -17 -4 -36l-113 -539h258l115 543 q13 64 13 118q0 117 -60 192q-88 109 -289 109q-177 0 -313 -94q-94 94 -275 94q-111 0 -194 -49l6 33h-236z" />
<glyph unicode="n" horiz-adv-x="1091" d="M59 0l215 1024h314l-2 -10q63 24 145 24q188 0 287.5 -87.5t99.5 -250.5q0 -64 -12 -125l-123 -575h-336l123 586q1 10 1 18q-1 38 -21 66q-26 34 -72 35q-56 0 -102.5 -35t-59.5 -90l2 2l-123 -582h-336zM106 39h259l114 551q19 66 76 109.5t123 43.5q68 0 106 -48 q27 -34 27 -79q0 -18 -4 -38l-113 -539h258l115 543q13 64 13 118q0 117 -60 192q-88 109 -289 109q-104 0 -196 -51l8 35h-236z" />
<glyph unicode="o" horiz-adv-x="1191" d="M143 410q0 52 13 112q29 140 123 259t229 188t278 69q192 0 313.5 -120.5t121.5 -303.5q0 -48 -11 -108q-59 -221 -239 -370.5t-391 -149.5q-194 0 -315.5 120t-121.5 304zM193 514q-11 -54 -11 -105q0 -75 24 -142q42 -113 141 -178.5t233 -65.5q133 0 258.5 65.5 t214.5 178.5t118 247q11 53 11 103q0 74 -24 141q-42 112 -140.5 177.5t-231.5 65.5q-204 0 -377 -143t-216 -344zM453 514q20 95 101.5 162t178.5 67q95 0 147 -67q38 -49 38 -112q0 -24 -5 -50q-22 -97 -102.5 -164t-175.5 -67q-97 -1 -151 67q-38 48 -37 110q0 26 6 54z M492 506q-5 -23 -5 -43q-1 -49 29 -89q42 -54 119 -55q80 0 150 60t92 143q3 19 3 36q0 53 -32 93q-42 54 -115 54q-83 0 -153.5 -58t-87.5 -141z" />
<glyph unicode="p" horiz-adv-x="1230" d="M-23 -389l302 1413h323l-6 -25q98 39 209 39q190 0 313 -122.5t123 -305.5q0 -59 -16 -125q-40 -144 -135 -258.5t-224 -177.5t-268 -63q-115 0 -192 39l-91 -414h-338zM25 -350h258l94 434q89 -61 221 -61q201 0 376 144t218 345q11 52 11 101q0 75 -26 143 q-43 113 -142 179t-230 66t-262 -67l12 51h-246zM469 512q22 100 103.5 168t179.5 68q99 0 152 -68q38 -49 38 -113q0 -26 -6 -55q-22 -100 -104.5 -168t-180.5 -68t-151 68q-37 48 -37 112q0 27 6 56zM508 504q-6 -24 -6 -47q0 -49 30 -87q42 -55 119 -55q85 0 156 59 t90 146q5 23 5 44q0 51 -30 90q-42 55 -120 55q-86 0 -155.5 -58.5t-88.5 -146.5z" />
<glyph unicode="q" horiz-adv-x="1241" d="M166 412q0 59 10 114q64 223 238.5 367.5t392.5 144.5q126 0 211 -43l6 29h322l-302 -1413h-335l86 407q-94 -32 -195 -32q-190 0 -312 121.5t-122 304.5zM215 512q-11 -53 -11 -102q0 -75 25 -142q42 -113 140.5 -179t230.5 -66q126 0 248 61l-92 -434h258l284 1335 h-245l-11 -49q-98 65 -235 65q-201 0 -375 -144t-217 -345zM471 512q22 100 103.5 168t179.5 68q99 0 152 -68q38 -49 38 -113q0 -26 -6 -55q-22 -100 -104.5 -168t-180.5 -68t-151 68q-37 48 -37 112q0 27 6 56zM508 504q-5 -23 -5 -43q0 -52 31 -91q42 -55 119 -55 q85 0 156 59t90 146q5 23 5 44q0 51 -30 90q-42 55 -120 55q-86 0 -156.5 -58.5t-89.5 -146.5z" />
<glyph unicode="r" horiz-adv-x="757" d="M55 0l215 1024h318l-2 -12q65 26 143 26h180l-69 -333h-168q-54 0 -99.5 -35t-60.5 -90l2 2l-123 -582h-336zM102 39h258l115 551q19 66 75 108.5t122 42.5h135l55 260h-133q-117 0 -194 -57l10 41h-242z" />
<glyph unicode="s" horiz-adv-x="735" d="M68 246l272 145q0 -24 12 -51q15 -33 41 -33q21 0 29 25q4 25 -53 57q-14 5 -19 8q-3 2 -21.5 15t-25 18t-24.5 18.5t-25.5 23t-22 25.5t-21.5 31t-15 34.5t-11.5 41t-3.5 45.5q0 41 8 74q31 146 132.5 230.5t248.5 84.5q208 0 260 -268l-270 -117q-3 66 -33 66 q-8 0 -16.5 -7t-9.5 -16q1 -5 0 -7.5t2.5 -7t4 -6.5t6 -6.5t8 -6.5t9 -6.5t10 -6.5t11.5 -6.5t12 -7.5l64 -39q110 -90 110 -219q0 -32 -8 -82q-34 -131 -140.5 -220t-230.5 -89q-220 0 -290 260zM113 227q24 -91 84.5 -147.5t160.5 -56.5q113 0 210 81t122 199q9 43 9 79 q0 44 -14 78q-26 61 -81 105q-19 14 -53 35t-50.5 33t-29 31t-8.5 41q6 22 24.5 36.5t38.5 14.5q55 0 62 -58l196 93q-17 93 -69.5 151.5t-145.5 58.5q-130 0 -222.5 -77.5t-121.5 -208.5q-7 -34 -7 -63v-7q1 -32 8 -58t20 -47t28 -38t32 -30t32.5 -23t29.5 -18l3 -1.5 l3 -1.5t3 -2q20 -10 30.5 -16.5t27 -20t22.5 -30t2 -35.5q-6 -21 -27 -38.5t-39 -17.5q-22 0 -39 12.5t-24 24t-17 31.5z" />
<glyph unicode="t" horiz-adv-x="884" d="M190 717l64 307h225l56 272h337l-55 -272h217l-63 -307h-219q-24 -120 -77 -364t-75 -353h-338l152 717h-224zM238 756h223l-152 -717h258l152 717h219l49 229h-219l57 275h-258l-57 -275h-223z" />
<glyph unicode="u" horiz-adv-x="1095" d="M143 322q0 62 15 127l121 575h337l-127 -586q-1 -9 -1 -18q0 -38 22 -66q27 -34 74 -35q53 0 99.5 35t59.5 88l123 582h338l-217 -1024h-317v8q-68 -22 -142 -22q-186 0 -285.5 86.5t-99.5 249.5zM195 442q-14 -66 -14 -122q1 -114 59 -188q88 -109 288 -109 q116 0 193 51l-6 -35h239l201 946h-256l-119 -551q-13 -65 -71 -109t-125 -44q-69 0 -107 48q-28 35 -28 81q0 17 4 36l114 539h-256z" />
<glyph unicode="v" horiz-adv-x="978" d="M209 1024h354l35 -424l213 424h365l-574 -1024h-256zM252 985l129 -946h199l532 946h-278l-252 -498q-9 -18 -13 -18q-2 14 -2 16l-41 500h-274z" />
<glyph unicode="w" horiz-adv-x="1476" d="M219 1024h346l13 -446l217 444h260q28 -346 32 -436l195 438h354l-493 -1024h-277l-63 446q-13 -26 -43 -77.5t-43 -77.5q-23 -40 -61.5 -111t-51.5 -94h2l-47 -86h-280zM260 985l55 -946h220q3 4 23.5 42t57.5 105.5t68 122.5l141 256l76 -526h217l457 946h-268 l-240 -539q-4 -4 -6 -4q-1 0 -3 32.5t-11.5 173.5t-26.5 337h-201l-267 -549q-4 -4 -7 -4q-1 0 -1.5 11t-1.5 49.5t-2 92.5t-4.5 163t-7.5 237h-268z" />
<glyph unicode="x" horiz-adv-x="1054" d="M-25 0l441 516l-209 508h393l66 -225l168 225h407l-434 -518l215 -506h-397l-70 227l-166 -227h-414zM57 39h314l186 256q4 4 8 4q8 0 8 -4l80 -256h314l-195 455q-6 12 -6 18t6 12l387 461h-307l-188 -256q-4 -4 -7 -4q-6 0 -8 4l-78 256h-307l193 -461q2 -6 2 -12 q0 -4 -6 -10z" />
<glyph unicode="y" horiz-adv-x="976" d="M23 -393l299 528v6l2 -6l-119 889h356l33 -422l215 422h360l-784 -1417h-362zM88 -354h274l742 1339h-273l-256 -508l-4 -4l-4 -2l-2 2q2 2 0 4l-39 508h-278l112 -833v-15l-6 -18z" />
<glyph unicode="z" horiz-adv-x="874" d="M47 0l53 260l398 434h-305l69 330h742l-52 -240q-18 -30 -104 -125q-213 -226 -301 -327h309l-68 -332h-741zM94 39h662l53 256h-303q-15 0 -20.5 2.5t-4.5 9.5q2 11 111.5 132.5t216.5 237.5t106 116l41 192h-661l-55 -254h297q30 0 30 -10q0 -7 -12 -19 q-4 -6 -420 -460z" />
<glyph unicode="{" horiz-adv-x="792" d="M203 557l51 254q98 8 154 61.5t79 163.5l52 240q29 137 66 208.5t116 114.5q88 48 311 48l-45 -238q-88 -7 -123.5 -45.5t-56.5 -134.5l-51 -244q-28 -125 -73.5 -195.5t-137.5 -111.5q96 -53 96 -178q0 -47 -18 -135l-52 -244q-14 -75 -14 -101q0 -31 27 -46t94 -19 l-51 -236q-208 0 -283 48q-43 28 -60.5 67.5t-17.5 95.5q0 44 23 174l51 242q14 68 14 94q0 105 -151 117zM248 592q95 -11 126 -70.5t5 -183.5l-51 -242q-29 -114 -24 -186.5t61 -110.5q61 -43 229 -43l37 164q-85 7 -104 55.5t8 153.5l51 242q18 87 15.5 147.5t-37.5 99 t-113 60.5q-7 0 -7 4t9 4q126 32 180.5 100t83.5 207l51 244q25 112 61.5 157t124.5 52l33 162q-173 0 -246 -41q-70 -38 -103.5 -104t-62.5 -195l-51 -240q-26 -126 -82.5 -186t-156.5 -66z" />
<glyph unicode="|" horiz-adv-x="466" d="M76 0l315 1497h297l-317 -1497h-295zM123 39h215l303 1421h-217z" />
<glyph unicode="}" horiz-adv-x="802" d="M18 -281l45 238q90 6 126 44.5t57 135.5l51 242q27 119 73 192t136 113q-50 30 -71 72t-21 104q0 73 16 141l51 242q15 67 15 100q0 32 -28 48t-95 20l51 236q205 0 285 -50q77 -55 77 -161q0 -60 -26 -174h2l-51 -242q-11 -51 -11 -92q0 -55 38 -84t116 -35l-53 -252 q-101 -9 -156 -62.5t-80 -164.5l-51 -240q-29 -137 -66.5 -209.5t-117.5 -116.5q-93 -45 -312 -45zM63 -244q168 0 250 43q72 39 104 103.5t58 193.5l51 242q28 125 84.5 184.5t157.5 69.5l37 184q-96 6 -126.5 65.5t-4.5 186.5l51 240q18 86 22.5 136t-8.5 93t-51 70 q-61 41 -231 41l-37 -162q87 -7 106.5 -55.5t-6.5 -153.5l-51 -244q-34 -129 -7.5 -202t138.5 -105q8 0 8 -4t-10 -4q-127 -32 -180.5 -100t-81.5 -207l-51 -242q-24 -111 -62 -156.5t-127 -52.5z" />
<glyph unicode="~" horiz-adv-x="1290" d="M145 305l70 320q201 73 330 73h8q25 -1 61 -6.5t62 -11.5l71.5 -16.5t61.5 -14.5q90 -22 113 -22h6q52 1 123 18t117.5 32.5t136.5 47.5l-64 -287q-32 -28 -139 -64t-213 -40h-21q-64 0 -151 33h2q-124 39 -201 41h-12q-51 0 -129 -22.5t-232 -80.5zM199 367 q122 45 187 62t120 17h12q68 -2 134 -20.5t120.5 -36.5t95.5 -18h21q99 4 195 34t122 52l45 207q-190 -72 -321 -76h-8q-20 0 -160 34.5t-209 36.5h-8q-24 0 -49.5 -2.5t-47.5 -6t-46.5 -9t-42 -10t-38 -11t-31 -10t-25 -9t-15.5 -5.5z" />
<glyph unicode="&#xa1;" horiz-adv-x="462" d="M55 31l250 1177h121q-51 17 -74.5 62.5t-11.5 105.5q15 65 72 112.5t125 47.5q70 0 113 -53t26 -121q-10 -54 -51 -96.5t-93 -57.5h111l-252 -1177h-336zM102 68h258l236 1101h-258zM379 1368q-11 -56 18 -93.5t84 -37.5q52 0 99 38t59 93q10 52 -20.5 90.5t-81.5 38.5 q-55 0 -101 -38t-57 -91z" />
<glyph unicode="&#xa2;" horiz-adv-x="1153" d="M143 408q0 50 11 114q38 170 165.5 304.5t296.5 185.5l41 190h295l-39 -180q94 -27 166 -93.5t113 -156.5l-270 -170l-39 51q-25 35 -37 47l-76 -358q36 20 68 57q7 5 30 50l258 -146q-193 -255 -430 -307l-34 -158h-297l43 176q-124 46 -194.5 151t-70.5 243zM193 514 q-36 -169 36.5 -300.5t221.5 -174.5l-37 -162h217l35 154q117 22 222.5 90.5t182.5 171.5l-186 102q-3 -6 -17 -20q-71 -73 -151 -105l102 486q21 -7 39.5 -20.5t27 -23.5t24 -31.5t20.5 -27.5l213 133q-35 75 -107.5 131t-167.5 74l37 174h-215l-41 -182 q-166 -43 -293.5 -173t-162.5 -296zM428 514q13 68 59 126.5t111 92.5l-94 -438q-50 33 -70.5 90.5t-5.5 128.5zM461 457q0 -53 20 -84l58 270q-56 -59 -74 -137q-4 -18 -4 -49z" />
<glyph unicode="&#xa3;" horiz-adv-x="1327" d="M170 0l72 348h145q26 0 46.5 20.5t27.5 61.5q6 25 -12 85t-46 112h-182l62 305h88q0 65 8 98q43 207 210.5 345t377.5 138q229 0 372 -180l-303 -227q-48 59 -125 59q-63 0 -115.5 -40.5t-64.5 -94.5q-10 -57 0 -98h406l-64 -305h-276q22 -61 22 -127q0 -41 -8 -74l2 2 q-8 -36 -25 -78h9q70 0 111 37t61 119h325q-43 -234 -211 -370t-393 -136h-520zM217 39h473q200 0 358.5 121.5t198.5 308.5h-250q-22 -83 -68.5 -119.5t-131.5 -36.5h-80q20 27 27 37t15.5 32t14.5 54q11 35 6 81t-13.5 75t-25.5 74h301l48 227h-388q-20 87 -10 143 q14 67 77.5 116.5t141.5 49.5q96 0 133 -43l242 182q-108 134 -319 134q-195 0 -352.5 -129t-198.5 -324q-8 -34 -8 -129h-93l-47 -227h158q34 -54 57 -131.5t17 -112.5q-13 -55 -44.5 -83t-68.5 -28h-113z" />
<glyph unicode="&#xa4;" horiz-adv-x="1443" d="M133 250l225 188q-28 79 -28 158q0 44 10 96q12 66 43.5 122.5t85.5 125.5l-152 193l199 163l152 -192q148 74 272 74q109 0 231 -74l232 190l141 -172l-231 -188q30 -85 30 -166q0 -53 -8 -92q-22 -109 -127 -248l152 -188l-197 -164l-151 186q-128 -74 -275 -74 q-119 0 -239 76l-232 -190zM184 244l88 -115l224 182q130 -86 241 -86q148 0 285 88l145 -184l140 115l-146 184q111 145 135 254q30 126 -28 262l223 184l-94 113l-226 -184q-60 40 -113.5 61t-117.5 21q-73 0 -138 -20t-145 -62l-147 186l-139 -115l147 -186 q-118 -146 -141 -258q-27 -136 26 -256zM571 684q23 109 119.5 189.5t204.5 80.5t170 -80.5t39 -189.5t-118.5 -187.5t-205.5 -78.5q-108 0 -170 79t-39 187zM608 678q-19 -91 32 -157t140 -66q94 0 178.5 71t106.5 166q6 24 6 47q0 75 -49.5 125.5t-126.5 50.5 q-96 0 -181.5 -70.5t-105.5 -166.5z" />
<glyph unicode="&#xa5;" horiz-adv-x="1359" d="M199 528l45 230h307q-3 18 -13 52t-14 50h-256l47 230h160l-88 407h377l96 -514l318 514h387l-262 -407h149l-45 -230h-252l-68 -102h295l-45 -230h-395l-111 -528h-350l111 528h-393zM244 567h387l4 -20l-107 -508h273l104 508l15 20h385l32 154h-319l117 178h239 l33 154h-174l262 405h-297l-348 -567q-3 -6 -6 -6t-6 6l-107 569h-297l88 -407h-176l-31 -154h242l41 -178h-322zM811 903q4 11 10 15z" />
<glyph unicode="&#xa6;" horiz-adv-x="464" d="M70 -18l141 667h297l-143 -667h-295zM117 18h217l127 592h-217zM258 862l141 674h297l-143 -674h-295zM305 901h215l127 596h-215z" />
<glyph unicode="&#xa7;" horiz-adv-x="1316" d="M92 76h379q12 -53 27 -64q23 -35 69 -35q38 0 77.5 22t47.5 56q3 20 -8 38.5t-37.5 35.5t-51.5 29t-67 30l-69 29q-57 25 -96 48t-79 58.5t-60.5 85t-20.5 111.5q0 46 8 82q40 187 221 326q-37 58 -37 129q0 32 8 71l-2 -2q25 119 106 208.5t191 134t232 44.5 q101 0 194.5 -37t159.5 -118l-82 -389q-63 87 -121 145h2q-86 74 -172 74q-42 0 -81.5 -29.5t-49.5 -71.5q-4 -28 24 -48t91 -46h2q61 -22 137 -63q48 -23 81 -41.5t71 -46.5t60.5 -57t38 -69.5t15.5 -86.5q0 -26 -4 -62q-28 -120 -89 -196.5t-173 -149.5q33 -71 33 -129 q0 -25 -4 -61q-37 -172 -187 -275.5t-327 -103.5q-283 0 -399 192q-55 99 -58 232zM133 39q3 -100 49 -176q106 -174 367 -174q105 0 204 40.5t173.5 122t97.5 187.5q11 55 1 98t-40 101q80 50 128.5 91t87 103t56.5 143q6 29 6 55.5t-5 48.5t-16 43t-24 38t-32 33.5 t-37 29.5t-42.5 27t-45 24.5t-47.5 22.5q-31 18 -70 35.5t-68.5 28t-58.5 24.5t-46.5 27.5t-26.5 34.5t-3 47q12 57 61.5 94t108.5 37q106 0 197 -84q40 -37 74 -80l61 287q-105 127 -313 127q-175 0 -315.5 -96.5t-174.5 -260.5q-11 -69 -1 -108.5t46 -89.5 q-102 -69 -158 -144.5t-79 -181.5q-8 -37 -8.5 -70.5t6.5 -60.5t18.5 -50.5t30 -44t37 -36.5t44.5 -31.5t48 -26.5t51 -24q22 -10 66 -27.5t66.5 -27.5t53.5 -27.5t45 -33t22.5 -38.5t2.5 -49q-11 -49 -62 -78.5t-102 -29.5q-63 0 -98 49q-18 21 -27 51h-309zM539 627 q17 70 112 133l191 -82q129 -50 110 -141q-10 -47 -41.5 -79t-83.5 -61l-219 103q-85 42 -69 127zM578 618q-11 -54 49 -86h-2l200 -92q77 43 88 105q14 62 -86 98l-172 76q-70 -56 -77 -101z" />
<glyph unicode="&#xa8;" horiz-adv-x="927" d="M371 1341q15 68 69.5 112t124.5 44q73 0 113.5 -49t23.5 -123q-14 -65 -70 -111.5t-122 -46.5q-76 0 -115 50.5t-24 123.5zM410 1333q-12 -53 16.5 -90t83.5 -37q52 0 98 37t58 90q10 55 -19 91t-82 36q-56 0 -100.5 -36t-54.5 -91zM762 1341q13 67 69 111.5t123 44.5 q75 0 115 -48.5t25 -123.5q-14 -65 -71 -111.5t-124 -46.5q-73 0 -112.5 51t-24.5 123zM801 1333q-12 -53 16 -90t82 -37q55 0 100.5 37t57.5 90q10 55 -18.5 91t-84.5 36q-55 0 -99 -36t-54 -91z" />
<glyph unicode="&#xa9;" horiz-adv-x="1710" d="M233 582q0 74 15 147q42 194 175 359.5t319 261.5t378 96q175 0 311 -76t209.5 -208t73.5 -296q0 -85 -16 -153q-36 -141 -122 -272t-201 -229t-259 -157t-289 -59q-128 0 -239 45t-188.5 123t-122 186.5t-44.5 231.5zM277 506q11 -102 58.5 -188.5t117.5 -149t167 -98 t207 -35.5q189 0 367.5 93t303 250.5t163.5 342.5q40 187 -17 345t-196 250.5t-328 92.5q-137 0 -275.5 -54.5t-251 -146.5t-195 -220t-111.5 -267q-21 -113 -10 -215zM389 721q34 159 141 293.5t258 212.5t310 78q119 0 219 -45.5t162 -125t88.5 -186t-0.5 -227.5 q-34 -159 -143 -293t-261.5 -211.5t-312.5 -77.5q-159 0 -277 77.5t-167.5 211.5t-16.5 293zM416 598q0 -184 121 -303t313 -119q151 0 296 73.5t248 201t134 278.5q14 55 14 111q0 185 -125 306.5t-319 121.5q-113 0 -225 -44t-201.5 -118t-155 -177t-88.5 -216 q-12 -49 -12 -115zM582 647q0 49 8 82q37 159 173.5 272t295.5 113q161 0 268 -110l-170 -168q-55 55 -129 55t-137 -51.5t-78 -122.5q-14 -68 23 -116t104 -48q76 0 158 55l106 -178q-139 -100 -297 -100q-144 0 -234.5 90t-90.5 227zM627 721q-31 -148 50 -250t230 -102 q146 0 248 73l-70 113q-54 -39 -145 -39q-87 0 -136 61t-30 148q19 84 93 144.5t161 60.5q88 0 129 -41l117 115q-70 73 -215 73q-149 0 -274.5 -103.5t-157.5 -252.5z" />
<glyph unicode="&#xaa;" horiz-adv-x="860" d="M266 1014q0 39 10 78h-2q31 150 159 254t278 104q71 0 137 -29l6 29h236l-156 -729l-180 43q-83 -45 -185 -45q-133 0 -218 84t-85 211zM313 1085q-31 -136 45 -232.5t211 -96.5q99 0 181 49l153 -39l139 647h-159l-13 -49q-71 49 -159 49q-137 0 -253.5 -96t-144.5 -232 zM485 1085q14 66 67.5 111t119.5 45q67 0 104 -45t23 -111q-15 -67 -70 -112t-123 -45q-66 0 -100.5 44.5t-20.5 112.5zM522 1077q-9 -48 15 -80t69 -32q54 0 99 36.5t55 90.5q10 47 -15.5 79.5t-72.5 32.5q-53 0 -95.5 -36t-54.5 -91z" />
<glyph unicode="&#xab;" horiz-adv-x="1067" d="M180 565l377 447l209 -181l-246 -280q66 -139 121 -272l-260 -183zM225 557l172 -403l197 139l-117 264l238 270l-154 131zM557 565l375 447l211 -181l-248 -280q50 -105 123 -272l-260 -183zM600 557l172 -403l199 139l-119 264l238 270l-154 131z" />
<glyph unicode="&#xac;" horiz-adv-x="1290" d="M197 578l61 292h1073l-153 -723h-295l90 431h-776zM244 616h778l-92 -430h217l137 645h-993z" />
<glyph unicode="&#xad;" horiz-adv-x="878" d="M170 436l63 293h680l-61 -293h-682zM217 473h602l47 217h-600z" />
<glyph unicode="&#xae;" horiz-adv-x="1792" d="M240 602q0 86 18 154h-2q43 203 183 378t336 277t399 102q139 0 256.5 -47t197.5 -129t125 -194t45 -240q0 -94 -16 -162q-55 -216 -190.5 -388t-326 -269.5t-401.5 -97.5q-136 0 -253 47.5t-198 130t-127 196t-46 242.5zM282.5 522q11.5 -108 61.5 -199.5t124 -158 t177 -104t219 -37.5q200 0 388.5 98.5t320 265.5t172.5 363q22 120 12 227.5t-59 198.5t-122.5 157.5t-177.5 104t-224 37.5q-145 0 -291.5 -58t-265 -155.5t-205.5 -232t-119 -279.5q-22 -120 -10.5 -228zM403 750q35 167 147.5 309t272 224.5t326.5 82.5q168 0 295 -82.5 t182 -224.5t19 -309q-35 -168 -150.5 -310.5t-277 -224.5t-330.5 -82q-167 0 -291 82.5t-176 224.5t-17 310zM428 621q0 -195 128.5 -323t330.5 -128q197 0 379 117h-238l-94 245l-51 -245h-226l193 921h287q115 0 178 -62t63 -163q0 -24 -8 -74q-23 -106 -83.5 -175 t-147.5 -91l137 -350q127 84 215 204.5t117 258.5q12 54 12 118q0 196 -133 324.5t-338 128.5q-159 0 -310 -78.5t-258 -213t-141 -294.5q-12 -65 -12 -120zM705 324h145l70 327q0 2 6 2q23 -45 129 -329h170l-123 311l-12 33q0 6 4 6q87 9 151.5 74t87.5 170 q22 112 -29 181.5t-167 69.5h-254zM952 797l49 237q4 4 9 4h96q50 0 69.5 -35t8.5 -85q-10 -53 -45.5 -91.5t-85.5 -38.5h-97q-7 0 -4 9zM954 633v4v-4zM954 637l2 6q0 -1 -1 -3t-1 -3zM997 827h56q35 0 60.5 29t33.5 70q6 31 -4.5 53t-36.5 22h-74z" />
<glyph unicode="&#xaf;" horiz-adv-x="876" d="M332 1167l63 293h676l-61 -293h-678zM379 1206h598l47 215h-596z" />
<glyph unicode="&#xb0;" horiz-adv-x="884" d="M309 1040q0 22 8 72v2q29 138 149 236t259 98q125 0 206 -79t81 -200q0 -25 -8 -71q-29 -139 -148.5 -237.5t-259.5 -98.5q-125 0 -206 79.5t-81 198.5zM356 1106q-28 -127 43 -216t197 -89q127 0 235 88.5t136 216.5q26 126 -45 215.5t-197 89.5t-234.5 -89.5 t-134.5 -215.5zM483 1106q17 72 80 124t135 52t113.5 -52t26.5 -124t-79 -124t-136 -52t-113.5 52t-26.5 124zM522 1098q-11 -54 19 -92.5t82 -38.5q60 0 112 43.5t64 103.5q12 54 -18 91.5t-83 37.5q-60 0 -112 -42.5t-64 -102.5z" />
<glyph unicode="&#xb1;" horiz-adv-x="1306" d="M84 12l61 291h394l49 221h-395l61 293h395l49 234h297l-51 -234h395l-61 -293h-395l-47 -221h393l-60 -291h-1085zM131 49h1006l45 217h-1004zM240 563h395l-49 -233h215l49 233h395l47 217h-395l49 232h-215l-49 -232h-395z" />
<glyph unicode="&#xb2;" horiz-adv-x="735" d="M201 569l51 252q14 16 201 160t213 160q35 27 45 67q5 27 -10.5 46.5t-45.5 19.5q-27 0 -56.5 -24.5t-53.5 -63.5l-211 80q61 110 159.5 178.5t198.5 68.5q117 0 189.5 -73.5t72.5 -184.5q0 -27 -6 -65q-28 -118 -147 -223q-52 -48 -215 -160h284l-51 -238h-618zM248 606 h538l37 164h-350q-4 0 -4 4l137 96q120 85 170 125q110 90 135 203q25 115 -39 196t-180 81q-92 0 -175 -52.5t-128 -136.5l141 -53q21 35 54.5 57.5t70.5 22.5q50 0 76 -33.5t17 -81.5q-13 -49 -62 -88q-30 -21 -207.5 -156t-191.5 -149z" />
<glyph unicode="&#xb3;" horiz-adv-x="733" d="M225 870l224 29q2 -46 18 -73t43 -27q36 0 66.5 28.5t39.5 69.5q6 31 -8.5 56.5t-40.5 33.5l-110 31l39 178l102 25q22 7 27 41q4 18 -11 18q-37 0 -88 -39q-11 -8 -28.5 -24.5t-29.5 -29.5l-11 -13l-60 206q50 64 116 100t136 36q104 0 165.5 -78t41.5 -185 q-17 -69 -72 -133q74 -77 74 -184q0 -38 -6 -68q-28 -129 -137.5 -220t-241.5 -91q-78 0 -138.5 37t-94.5 104q-36 66 -15 172zM258 836q-13 -60 14 -121q63 -119 201 -119q118 0 216.5 82.5t123.5 198.5q33 151 -80 239q-2 0 -2 4q0 3 6 6q62 59 80 136q19 89 -31 152 t-137 63q-61 0 -116 -28t-93 -79l35 -125q7 7 47 37q62 37 92 37q28 0 42 -19t8 -47q-7 -32 -21.5 -47t-38.5 -20l-76 -21l-26 -121l73 -20q43 -11 65.5 -48t12.5 -87q-11 -53 -52.5 -91t-90.5 -38q-44 0 -69 26.5t-27 71.5z" />
<glyph unicode="&#xb4;" horiz-adv-x="694" d="M350 1362l461 180l66 -276l-420 -158zM401 1341l78 -184l355 133l-50 201z" />
<glyph unicode="&#xb6;" horiz-adv-x="1339" d="M301 975q0 48 8 84q19 87 59 152t91.5 105.5t122 65t143 34t162.5 9.5h614l-389 -1826h-297l328 1534h-101l-325 -1534h-295l233 1089q-175 9 -264.5 83t-89.5 204zM348 1051q-34 -154 57.5 -239t296.5 -85l-233 -1092h215l328 1534h178l-326 -1534h215l373 1754h-565 q-106 0 -189 -15t-157 -51.5t-123 -104.5t-70 -167z" />
<glyph unicode="&#xb7;" horiz-adv-x="464" d="M231 758q13 58 64 102.5t115 44.5q60 0 95 -50.5t23 -111.5q-12 -56 -60.5 -96.5t-105.5 -40.5q-69 0 -106 44.5t-25 107.5zM268 752q-8 -45 18 -76t76 -31q44 0 82.5 31.5t47.5 75.5q9 43 -15.5 78.5t-66.5 35.5q-50 0 -90.5 -34.5t-51.5 -79.5z" />
<glyph unicode="&#xb8;" horiz-adv-x="630" d="M-6 -358l37 176h-19l238 258h219l-92 -96q60 -14 87.5 -62.5t12.5 -122.5q-23 -99 -110 -154t-177 -55q-33 0 -97.5 15.5t-98.5 40.5zM35 -344q21 -13 73 -22t82 -9q80 0 155.5 46.5t94.5 131.5q13 66 -18 105t-94 39q-6 0 -20.5 -3t-20.5 -3l94 98h-115l-170 -182h109 q20 0 31.5 -2.5t19 -15t2.5 -36.5q-12 -53 -68 -53h-16q-28 0 -74 12q-18 5 -41 15zM57 -182q37 -16 54 -19q36 -12 63 -12h16q24 0 29 23q1 4 -1 5.5t-5 2t-8 0.5h-148z" />
<glyph unicode="&#xb9;" horiz-adv-x="493" d="M180 569l148 699h-133l47 229h379l-197 -928h-244zM227 606h164l182 854h-301l-30 -153h129q4 0 4 -7z" />
<glyph unicode="&#xba;" horiz-adv-x="847" d="M268 1012q0 47 8 78h-2q32 149 159 252.5t278 103.5q134 0 218.5 -84t84.5 -211q0 -39 -8 -78l2 2q-34 -151 -160.5 -255.5t-274.5 -104.5q-136 0 -220.5 83t-84.5 214zM313 1083q-31 -138 45.5 -233.5t214.5 -95.5q135 0 251 95.5t145 233.5q29 135 -47 230.5t-211 95.5 q-138 0 -254 -95.5t-144 -230.5zM487 1083q12 63 67 108.5t122 45.5q63 0 98 -45.5t23 -108.5q-13 -67 -68 -111t-121 -44t-100 44t-21 111zM524 1075q-9 -47 15.5 -78.5t68.5 -31.5q51 0 94.5 36.5t55.5 88.5q8 44 -16.5 76t-65.5 32q-54 0 -97.5 -36t-54.5 -87z" />
<glyph unicode="&#xbb;" horiz-adv-x="1067" d="M111 281l245 278q-2 5 -51 115t-69 157l260 183l200 -467l-377 -447zM164 285l153 -131l334 399l-172 405l-196 -139l116 -266zM485 281l246 278l-121 272l260 183l201 -467l-375 -447zM539 285l153 -131l336 399l-172 405l-199 -139l119 -266z" />
<glyph unicode="&#xbc;" horiz-adv-x="1683" d="M324 496l157 759h-143l51 242h402l-211 -1001h-256zM371 532h176l196 928h-321l-37 -168h139q6 0 4 -6zM438 8l752 1510l184 -43l-743 -1491zM485 1268l4 20q-6 -13 -4 -20zM498 39l110 -14l711 1421l-109 27zM850 150l49 225q167 203 296.5 357t175.5 207.5t52 59.5h242 l-127 -602h88l-57 -256h-86l-29 -141h-256l31 150h-379zM897 188h373q7 0 4 -8l-29 -141h178l27 141h88l41 180h-88l127 601h-180q-39 -44 -240 -287.5t-262 -313.5zM1126 356l248 314q-54 -284 -61 -312q0 -8 -8 -8h-175q-4 0 -4 6zM1200 389h78l31 131z" />
<glyph unicode="&#xbd;" horiz-adv-x="1712" d="M324 496l159 759h-145l51 242h404l-213 -1001h-256zM371 532h176l198 928h-323l-35 -168h137q8 0 6 -6zM440 8l750 1510l186 -43l-743 -1491zM487 1268l5 20q-7 -14 -5 -20zM498 39l112 -14l709 1421l-109 27zM926 0l53 268l207 160q226 173 227 174q44 30 51 74 q6 30 -11 53t-46 23q-30 0 -62.5 -27.5t-56.5 -69.5l-223 84q62 114 167 187t210 73q122 0 200 -76t78 -194q0 -40 -6 -70q-27 -131 -158 -237q-58 -49 -184 -135l2 2l-51 -39h305l-51 -250h-651zM973 39h571l37 174h-373q-2 2 -2 4l146 102q27 18 58 40t51.5 37.5t44 33 t28.5 21.5q117 97 141 217q26 122 -42.5 207.5t-190.5 85.5q-96 0 -185 -56t-137 -145l152 -55q21 36 58.5 59.5t76.5 23.5q51 0 78 -35t16 -85q-14 -56 -65 -95q-20 -17 -217 -168t-205 -157z" />
<glyph unicode="&#xbe;" horiz-adv-x="1884" d="M231 809l238 33q0 -48 18 -79.5t48 -31.5q38 0 71.5 32t42.5 77q7 36 -9 64t-46 36l-113 35l41 186l105 27l-2 -2q15 3 22.5 12.5t11.5 32.5q3 7 -1.5 14.5t-12.5 7.5q-30 0 -76 -32l-94 -70l-59 209q53 65 122 102t142 37q109 0 172.5 -82t46.5 -194q-19 -84 -74 -142 q80 -80 80 -198q0 -12 -6 -72q-29 -137 -148 -234.5t-257 -97.5q-167 0 -246 148q-41 87 -17 182zM262 776q-13 -65 21 -131q69 -127 211 -127q126 0 233 88t133 213q17 80 -6 147t-80 109q-2 0 -2 2v2q2 2 4 8q69 57 84 144q22 96 -31 163.5t-149 67.5q-64 0 -121.5 -30.5 t-99.5 -83.5l37 -134l49 37q59 41 100 41q27 0 42 -20.5t9 -48.5q-6 -36 -20 -52t-41 -22l-80 -21l-29 -129l78 -22q45 -12 69 -52.5t15 -93.5q-12 -57 -57 -97t-96 -40q-47 0 -75 29.5t-28 75.5zM596 8l752 1510l186 -43l-743 -1491zM655 39l113 -14l709 1421l-109 27z M1008 150l49 225q493 593 524 624h242l-127 -602h88l-58 -256h-84l-28 -141h-256l31 150h-381zM1055 188h372q10 0 7 -8l-29 -141h176l29 141h86l41 180h-88l127 601h-181q-108 -125 -501 -601zM1286 356l248 314l-64 -312q0 -8 -6 -8h-176q-2 0 -2 6zM1360 389h78l26 131z " />
<glyph unicode="&#xbf;" horiz-adv-x="921" d="M139 311q0 39 11 111q14 61 37.5 114t46 87t60.5 70t60.5 53.5t65.5 48.5h-2q51 36 76.5 56.5t54 60t37.5 85.5v-2q10 55 10 97q0 20 -6 125h160q-66 8 -100 57t-19 119q14 64 70.5 111.5t123.5 47.5q70 0 113.5 -53t28.5 -121q-13 -63 -64 -108t-112 -53l143 2 q5 -165 -19 -283q-15 -61 -42.5 -114t-68.5 -99t-73.5 -75.5t-81.5 -69.5q-65 -52 -100 -88t-43 -72q-5 -24 3.5 -33.5t20.5 -9.5q32 0 80.5 28t80.5 54.5t79 68.5l174 -227q-69 -76 -164 -145h2q-177 -123 -319 -123q-156 0 -240 70.5t-84 209.5zM188 414 q-36 -171 37.5 -257.5t237.5 -86.5q139 0 297 114q81 58 135 117l-131 170q-42 -37 -71 -60.5t-77 -49t-86 -25.5q-80 0 -63 90q9 43 49.5 86t93.5 84t107 87.5t99 113.5t61 145q20 105 18 238l-264 -2q6 -128 -6 -187q-11 -51 -37 -92t-60 -69.5t-73.5 -55.5t-79.5 -58.5 t-75.5 -69.5t-65.5 -97.5t-46 -134.5zM668 1384q-11 -56 18 -93.5t84 -37.5q53 0 100.5 38t57.5 93q10 52 -21 90.5t-82 38.5q-55 0 -100 -38t-57 -91z" />
<glyph unicode="&#xc0;" horiz-adv-x="1536" d="M-6 0l934 1530h258l-346 153l174 265l397 -185l-207 -241l-12 4l291 -1526h-375l-66 270h-493l-168 -270h-387zM61 39h299l162 262q8 8 19 8h524q12 0 12 -8l62 -262h297l-277 1452h-211zM688 573l4 9l250 407q0 2 2 4q4 4 6 4q2 -2 2 -4t2 -4l74 -407q4 -4 0 -7 q0 -8 -8 -8h-324q-8 0 -8 6zM754 606h229l-53 289zM895 1700l299 -133l158 184l-324 150z" />
<glyph unicode="&#xc1;" horiz-adv-x="1536" d="M-6 0l934 1530h28l-100 242l461 180l65 -277l-387 -145h197l291 -1530h-375l-66 270h-493l-168 -270h-387zM61 39h299l162 262q8 8 19 8h524q12 0 12 -8l62 -262h297l-277 1452h-211zM688 573l4 9l250 407q0 2 2 4q4 4 6 4q2 -2 2 -4t2 -4l74 -407q4 -4 0 -7q0 -8 -8 -8 h-324q-8 0 -8 6zM754 606h229l-53 289zM907 1751l78 -184l354 133l-49 201z" />
<glyph unicode="&#xc2;" horiz-adv-x="1536" d="M-6 0l934 1530h264l291 -1530h-375l-66 270h-493l-168 -270h-387zM61 39h299l162 262q8 8 19 8h524q12 0 12 -8l62 -262h297l-277 1452h-211zM688 573l4 9l250 407q0 2 2 4q4 4 6 4q2 -2 2 -4t2 -4l74 -407q4 -4 0 -7q0 -8 -8 -8h-324q-8 0 -8 6zM754 606h229l-53 289z M795 1808l358 129l326 -149l-211 -244l-166 80l-195 -70zM846 1786l80 -184l178 63l153 -74l160 185l-264 120z" />
<glyph unicode="&#xc3;" horiz-adv-x="1536" d="M-6 0l934 1530h264l291 -1530h-375l-66 270h-493l-168 -270h-387zM61 39h299l162 262q8 8 19 8h524q12 0 12 -8l62 -262h297l-277 1452h-211zM688 573l4 9l250 407q0 2 2 4q4 4 6 4q2 -2 2 -4t2 -4l74 -407q4 -4 0 -7q0 -8 -8 -8h-324q-8 0 -8 6zM715 1499l76 348l36 17 q105 51 189 51q50 0 147 -29q65 -18 78 -18q91 0 281 106l-60 -297l-37 -28q-105 -74 -202 -74q-46 0 -133 27h2q-82 24 -115 24q-138 0 -262 -127zM754 606h229l-53 289zM774 1595q90 72 201 72q38 0 124 -26.5t124 -26.5q64 0 118.5 26.5t85.5 57.5l46 207 q-140 -76 -232 -76q-25 0 -101 24.5t-124 24.5q-38 0 -76.5 -10.5t-76 -27.5t-38.5 -17z" />
<glyph unicode="&#xc4;" horiz-adv-x="1536" d="M-6 0l934 1530h264l291 -1530h-375l-66 270h-493l-168 -270h-387zM61 39h299l162 262q8 8 19 8h524q12 0 12 -8l62 -262h297l-277 1452h-211zM688 573l4 9l250 407q0 2 2 4q4 4 6 4q2 -2 2 -4t2 -4l74 -407q4 -4 0 -7q0 -8 -8 -8h-324q-8 0 -8 6zM754 606h229l-53 289z M760 1751q15 68 69.5 112t124.5 44q73 0 114 -49t24 -123q-14 -65 -70.5 -111.5t-122.5 -46.5q-76 0 -115 50.5t-24 123.5zM799 1743q-12 -53 16.5 -90t83.5 -37q52 0 98 37t58 90q10 55 -19 91t-82 36q-56 0 -100.5 -36t-54.5 -91zM1151 1751q13 67 69 111.5t123 44.5 q75 0 115 -48.5t25 -123.5q-14 -65 -71 -111.5t-124 -46.5q-73 0 -112.5 51t-24.5 123zM1190 1743q-12 -53 16 -90t82 -37q55 0 100.5 37t57.5 90q10 55 -18.5 91t-84.5 36q-55 0 -99 -36t-54 -91z" />
<glyph unicode="&#xc5;" horiz-adv-x="1536" d="M-6 0l934 1530h59q-55 28 -78 84t-8 127q20 92 96 154.5t168 62.5q100 0 154.5 -67t32.5 -165q-13 -65 -56.5 -117t-103.5 -79l291 -1530h-375l-66 270h-493l-168 -270h-387zM61 39h299l162 262q8 8 19 8h524q12 0 12 -8l62 -262h297l-277 1452h-211zM688 573l4 9 l250 407q0 2 2 4q4 4 6 4q2 -2 2 -4t2 -4l74 -407q4 -4 0 -7q0 -8 -8 -8h-324q-8 0 -8 6zM754 606h229l-53 289zM938 1733q-17 -79 26 -133t123 -54q78 0 144.5 54t83.5 133t-26.5 133.5t-123.5 54.5q-78 0 -144 -54.5t-83 -133.5zM1006 1733q9 51 52 86.5t93 35.5t78 -35.5 t18 -86.5q-10 -49 -53.5 -85t-93.5 -36t-78 36t-16 85zM1040 1726q-6 -32 11.5 -53.5t48.5 -21.5q38 0 70.5 26.5t41.5 63.5h-2q5 31 -12.5 53.5t-46.5 22.5q-37 0 -69 -27t-40 -64h-2z" />
<glyph unicode="&#xc6;" horiz-adv-x="1908" d="M-4 0l1073 1530h1028l-74 -354h-524q-7 -40 -24.5 -116.5t-24.5 -113.5h522l-76 -354h-520l-53 -238h522l-71 -354h-879l55 270h-362l-201 -270h-391zM70 39h299l190 262q8 8 19 8h419l-55 -270h797l59 276h-510q-13 0 -10 13l63 290q3 11 13 11h510l59 278h-508 q-14 0 -10 11l59 284q3 12 17 12h508l59 277h-958zM737 573l4 9l441 622q3 4 2 -1q-1 -8 -22 -111l-107 -525h-310q-8 0 -8 6zM807 606h215l90 436z" />
<glyph unicode="&#xc7;" horiz-adv-x="1460" d="M227 610q0 87 19 168q42 167 134.5 310.5t216.5 243.5t277 157t312 57q84 0 162 -18.5t127.5 -41.5t96.5 -56.5t63 -49t32 -32.5l-270 -275q-119 116 -271 119q-190 -8 -336 -127.5t-190 -308.5q-10 -48 -10 -80q0 -143 93.5 -233.5t246.5 -102.5q160 3 327 119l158 -287 q-26 -20 -63 -43t-110.5 -60t-172.5 -61t-201 -24q-23 0 -73 4l-7 -8q60 -14 88 -63t13 -122q-23 -99 -110 -154t-177 -55q-33 0 -97.5 15.5t-98.5 40.5l36 176h-18l192 209q-179 68 -284 224.5t-105 358.5zM285 766q-55 -257 57.5 -456t339.5 -263l-174 -190h108 q15 0 23.5 -1.5t19.5 -6.5t11.5 -16t-0.5 -30q-12 -53 -68 -53h-16q-28 0 -74 12q-18 5 -41 15l-25 -121q21 -13 73.5 -22t82.5 -9q80 0 155.5 46.5t94.5 131.5q13 66 -18.5 105t-94.5 39q-6 0 -20.5 -3t-20.5 -3l82 86q58 -4 88 -4q97 0 188.5 20t156 51t98 51.5t53.5 36.5 l-123 221q-149 -102 -313 -102q-188 11 -298 142t-69 323q41 195 201.5 326t361.5 139q162 0 273 -103l217 220q-159 159 -428 159q-156 0 -307 -58.5t-270.5 -158t-205.5 -236t-118 -288.5zM469 -182q37 -16 53 -19q36 -12 64 -12h16q24 0 29 23q1 3 0 4.5t-4 2.5t-5 1h-6 h-147z" />
<glyph unicode="&#xc8;" horiz-adv-x="1079" d="M82 0l321 1530h553l-346 153l174 265l398 -185l-201 -233h303l-74 -354h-522l-51 -230h522l-74 -354h-522l-51 -238h522l-73 -354h-879zM129 39h799l57 276h-510q-11 0 -8 13l61 290q3 11 15 11h508l61 278h-510q-14 0 -10 11l61 284q3 12 15 12h510l57 277h-797z M666 1700l299 -133l157 184l-323 150z" />
<glyph unicode="&#xc9;" horiz-adv-x="1079" d="M82 0l321 1530h324l-100 242l460 180l66 -277l-387 -145h518l-74 -354h-522l-51 -230h522l-74 -354h-522l-51 -238h522l-73 -354h-879zM129 39h799l57 276h-510q-11 0 -8 13l61 290q3 11 15 11h508l61 278h-510q-14 0 -10 11l61 284q3 12 15 12h510l57 277h-797z M678 1751l78 -184l354 133l-49 201z" />
<glyph unicode="&#xca;" horiz-adv-x="1079" d="M82 0l321 1530h881l-74 -354h-522l-51 -230h522l-74 -354h-522l-51 -238h522l-73 -354h-879zM129 39h799l57 276h-510q-11 0 -8 13l61 290q3 11 15 11h508l61 278h-510q-14 0 -10 11l61 284q3 12 15 12h510l57 277h-797zM567 1808l359 129l325 -149l-211 -244l-166 80 l-194 -70zM618 1786l80 -184l179 63l153 -74l160 185l-264 120z" />
<glyph unicode="&#xcb;" horiz-adv-x="1079" d="M82 0l321 1530h881l-74 -354h-522l-51 -230h522l-74 -354h-522l-51 -238h522l-73 -354h-879zM129 39h799l57 276h-510q-11 0 -8 13l61 290q3 11 15 11h508l61 278h-510q-14 0 -10 11l61 284q3 12 15 12h510l57 277h-797zM532 1751q15 68 70 112t125 44q73 0 113.5 -49 t23.5 -123q-14 -65 -70 -111.5t-122 -46.5q-76 0 -115.5 50.5t-24.5 123.5zM571 1743q-12 -53 17 -90t84 -37q52 0 97.5 37t57.5 90q10 55 -18.5 91t-81.5 36q-56 0 -101 -36t-55 -91zM924 1751q13 67 69 111.5t123 44.5q75 0 114.5 -48.5t24.5 -123.5q-14 -65 -70.5 -111.5 t-123.5 -46.5q-73 0 -112.5 51t-24.5 123zM963 1743q-12 -53 16 -90t82 -37q55 0 100.5 37t57.5 90q10 55 -18.5 91t-84.5 36q-55 0 -99 -36t-54 -91z" />
<glyph unicode="&#xcc;" horiz-adv-x="526" d="M74 0l323 1530h287l-346 153l174 265l397 -185l-200 -233h47l-324 -1530h-358zM123 39h276l308 1452h-277zM393 1700l299 -133l158 184l-324 150z" />
<glyph unicode="&#xcd;" horiz-adv-x="526" d="M74 0l323 1530h58l-101 242l461 180l66 -277l-387 -145h262l-324 -1530h-358zM123 39h276l308 1452h-277zM406 1751l77 -184l355 133l-50 201z" />
<glyph unicode="&#xce;" horiz-adv-x="526" d="M74 0l323 1530h359l-324 -1530h-358zM123 39h276l308 1452h-277zM295 1808l358 129l326 -149l-211 -244l-166 80l-194 -70zM346 1786l80 -184l178 63l154 -74l160 185l-265 120z" />
<glyph unicode="&#xcf;" horiz-adv-x="526" d="M74 0l323 1530h359l-324 -1530h-358zM123 39h276l308 1452h-277zM260 1751q15 68 70 112t125 44q73 0 113.5 -49t23.5 -123q-14 -65 -70.5 -111.5t-122.5 -46.5q-76 0 -115 50.5t-24 123.5zM299 1743q-12 -53 16.5 -90t83.5 -37q52 0 98 37t58 90q10 55 -18.5 91 t-81.5 36q-56 0 -101 -36t-55 -91zM651 1751q13 67 69.5 111.5t123.5 44.5q75 0 114.5 -48.5t24.5 -123.5q-14 -65 -71 -111.5t-124 -46.5q-73 0 -112.5 51t-24.5 123zM690 1743q-12 -53 16 -90t82 -37q55 0 100.5 37t57.5 90q11 56 -18 91.5t-84 35.5t-99.5 -36t-54.5 -91z " />
<glyph unicode="&#xd0;" horiz-adv-x="1708" d="M205 580l63 299h199l137 651h510q138 0 256 -47.5t199.5 -130t127.5 -196.5t46 -243q0 -77 -17 -155q-43 -204 -181 -378.5t-335 -277t-405 -102.5h-526l124 580h-198zM254 618h197l-123 -579h477q199 0 388.5 99t322.5 266t174 362t-20.5 361.5t-209 265t-346.5 98.5 h-477l-139 -651h-197zM666 328l63 290h199l47 222h-201l78 362q3 12 16 12h199q197 0 292 -124.5t54 -323.5q-43 -199 -197 -325t-352 -126h-188q-13 0 -10 13zM711 354h153q184 0 327 116.5t183 301.5q10 65 10 107q0 135 -84 216t-233 81h-180l-64 -297h199l-61 -299h-199 z" />
<glyph unicode="&#xd1;" horiz-adv-x="1456" d="M86 0l324 1528l272 2l70 317l36 17q105 51 189 51q50 0 147 -29q65 -18 78 -18q91 0 281 106l-60 -297l-37 -28q-105 -74 -202 -74q-46 0 -133 27h2q-82 24 -115 24q-119 0 -229 -96h16l387 -838l25 113l151 723h359l-324 -1528h-313l-389 836l-23 -109l-154 -727h-358z M135 39h277l147 696l47 223l428 -919h256l309 1450h-276l-147 -692l-50 -226l-424 920l-260 -2zM735 1595q90 72 201 72q38 0 124 -26.5t124 -26.5q64 0 119 26.5t86 57.5l45 207q-140 -76 -232 -76q-25 0 -101 24.5t-124 24.5q-38 0 -76.5 -10.5t-76 -27.5t-38.5 -17z" />
<glyph unicode="&#xd2;" horiz-adv-x="1794" d="M231 610q0 78 19 162q44 210 186 388.5t342.5 282t411.5 103.5q57 0 104 -8l-325 145l174 265l397 -185l-199 -233q221 -46 354.5 -212.5t133.5 -395.5q0 -90 -21 -179q-54 -217 -193 -390.5t-334.5 -271t-408.5 -97.5q-140 0 -260 48t-203 131.5t-130.5 199t-47.5 247.5 zM276.5 530.5q11.5 -110.5 62 -204t126 -161t181 -105t226.5 -37.5q205 0 396 96.5t325.5 267.5t178.5 379q24 124 13 234.5t-61.5 203.5t-126 160.5t-181 105t-226.5 37.5q-152 0 -302 -58.5t-271 -157.5t-208.5 -236.5t-119.5 -288.5q-24 -125 -12.5 -235.5zM565 766 q40 192 205.5 328.5t357.5 136.5q126 0 220 -62.5t134 -169.5t13 -233q-40 -192 -205.5 -328.5t-357.5 -136.5q-126 0 -220 62.5t-133.5 169.5t-13.5 233zM594 668q0 -141 94.5 -234.5t243.5 -93.5q179 0 333 127t191 305q10 44 10 90q0 142 -94.5 236t-243.5 94 q-178 0 -332 -128t-194 -308q-8 -36 -8 -88zM1024 1700l299 -133l158 184l-324 150z" />
<glyph unicode="&#xd3;" horiz-adv-x="1794" d="M231 610q0 78 19 162q40 192 163.5 359t299.5 274.5t368 132.5l-96 234l461 180l65 -277l-346 -131q4 0 12.5 1t12.5 1q140 0 259.5 -47.5t202.5 -130.5t130 -198.5t47 -247.5q0 -90 -21 -179q-54 -217 -193 -390.5t-334.5 -271t-408.5 -97.5q-140 0 -260 48t-203 131.5 t-130.5 199t-47.5 247.5zM276.5 530.5q11.5 -110.5 62 -204t126 -161t181 -105t226.5 -37.5q205 0 396 96.5t325.5 267.5t178.5 379q24 124 13 234.5t-61.5 203.5t-126 160.5t-181 105t-226.5 37.5q-152 0 -302 -58.5t-271 -157.5t-208.5 -236.5t-119.5 -288.5 q-24 -125 -12.5 -235.5zM565 766q40 192 205.5 328.5t357.5 136.5q126 0 220 -62.5t134 -169.5t13 -233q-40 -192 -205.5 -328.5t-357.5 -136.5q-126 0 -220 62.5t-133.5 169.5t-13.5 233zM594 668q0 -141 94.5 -234.5t243.5 -93.5q179 0 333 127t191 305q10 44 10 90 q0 142 -94.5 236t-243.5 94q-178 0 -332 -128t-194 -308q-8 -36 -8 -88zM1036 1751l78 -184l354 133l-49 201z" />
<glyph unicode="&#xd4;" horiz-adv-x="1794" d="M231 610q0 78 19 162q44 210 186 388.5t342.5 282t411.5 103.5q140 0 259.5 -47.5t202.5 -130.5t130 -198.5t47 -247.5q0 -90 -21 -179q-54 -217 -193 -390.5t-334.5 -271t-408.5 -97.5q-140 0 -260 48t-203 131.5t-130.5 199t-47.5 247.5zM276.5 530.5 q11.5 -110.5 62 -204t126 -161t181 -105t226.5 -37.5q205 0 396 96.5t325.5 267.5t178.5 379q24 124 13 234.5t-61.5 203.5t-126 160.5t-181 105t-226.5 37.5q-152 0 -302 -58.5t-271 -157.5t-208.5 -236.5t-119.5 -288.5q-24 -125 -12.5 -235.5zM565 766 q40 192 205.5 328.5t357.5 136.5q126 0 220 -62.5t134 -169.5t13 -233q-40 -192 -205.5 -328.5t-357.5 -136.5q-126 0 -220 62.5t-133.5 169.5t-13.5 233zM594 668q0 -141 94.5 -234.5t243.5 -93.5q179 0 333 127t191 305q10 44 10 90q0 142 -94.5 236t-243.5 94 q-178 0 -332 -128t-194 -308q-8 -36 -8 -88zM924 1808l358 129l326 -149l-211 -244l-166 80l-195 -70zM975 1786l80 -184l178 63l153 -74l160 185l-264 120z" />
<glyph unicode="&#xd5;" horiz-adv-x="1794" d="M231 610q0 78 19 162q44 210 186 388.5t342.5 282t411.5 103.5q140 0 259.5 -47.5t202.5 -130.5t130 -198.5t47 -247.5q0 -90 -21 -179q-54 -217 -193 -390.5t-334.5 -271t-408.5 -97.5q-140 0 -260 48t-203 131.5t-130.5 199t-47.5 247.5zM276.5 530.5 q11.5 -110.5 62 -204t126 -161t181 -105t226.5 -37.5q205 0 396 96.5t325.5 267.5t178.5 379q24 124 13 234.5t-61.5 203.5t-126 160.5t-181 105t-226.5 37.5q-152 0 -302 -58.5t-271 -157.5t-208.5 -236.5t-119.5 -288.5q-24 -125 -12.5 -235.5zM565 766 q40 192 205.5 328.5t357.5 136.5q126 0 220 -62.5t134 -169.5t13 -233q-40 -192 -205.5 -328.5t-357.5 -136.5q-126 0 -220 62.5t-133.5 169.5t-13.5 233zM594 668q0 -141 94.5 -234.5t243.5 -93.5q179 0 333 127t191 305q10 44 10 90q0 142 -94.5 236t-243.5 94 q-178 0 -332 -128t-194 -308q-8 -36 -8 -88zM844 1499l76 348l36 17q105 51 189 51q50 0 147 -29q65 -18 78 -18q91 0 281 106l-60 -297l-37 -28q-105 -74 -202 -74q-46 0 -133 27h2q-82 24 -115 24q-138 0 -262 -127zM903 1595q90 72 201 72q38 0 124 -26.5t124 -26.5 q64 0 118.5 26.5t85.5 57.5l46 207q-140 -76 -232 -76q-25 0 -101 24.5t-124 24.5q-38 0 -76.5 -10.5t-76 -27.5t-38.5 -17z" />
<glyph unicode="&#xd6;" horiz-adv-x="1794" d="M231 610q0 78 19 162q44 210 186 388.5t342.5 282t411.5 103.5q140 0 259.5 -47.5t202.5 -130.5t130 -198.5t47 -247.5q0 -90 -21 -179q-54 -217 -193 -390.5t-334.5 -271t-408.5 -97.5q-140 0 -260 48t-203 131.5t-130.5 199t-47.5 247.5zM276.5 530.5 q11.5 -110.5 62 -204t126 -161t181 -105t226.5 -37.5q205 0 396 96.5t325.5 267.5t178.5 379q24 124 13 234.5t-61.5 203.5t-126 160.5t-181 105t-226.5 37.5q-152 0 -302 -58.5t-271 -157.5t-208.5 -236.5t-119.5 -288.5q-24 -125 -12.5 -235.5zM565 766 q40 192 205.5 328.5t357.5 136.5q126 0 220 -62.5t134 -169.5t13 -233q-40 -192 -205.5 -328.5t-357.5 -136.5q-126 0 -220 62.5t-133.5 169.5t-13.5 233zM594 668q0 -141 94.5 -234.5t243.5 -93.5q179 0 333 127t191 305q10 44 10 90q0 142 -94.5 236t-243.5 94 q-178 0 -332 -128t-194 -308q-8 -36 -8 -88zM889 1751q15 68 69.5 112t124.5 44q73 0 114 -49t24 -123q-14 -65 -70.5 -111.5t-122.5 -46.5q-76 0 -115 50.5t-24 123.5zM928 1743q-12 -53 16.5 -90t83.5 -37q52 0 98 37t58 90q10 55 -19 91t-82 36q-56 0 -100.5 -36 t-54.5 -91zM1280 1751q13 67 69.5 111.5t123.5 44.5q75 0 114.5 -48.5t24.5 -123.5q-14 -65 -71 -111.5t-124 -46.5q-73 0 -112.5 51t-24.5 123zM1319 1743q-12 -53 16 -90t82 -37q55 0 100.5 37t57.5 90q11 56 -18 91.5t-84 35.5t-99.5 -36t-54.5 -91z" />
<glyph unicode="&#xd7;" horiz-adv-x="1175" d="M176 268l316 258l-201 256l244 201l198 -254q59 46 173.5 140.5t140.5 115.5l170 -211l-314 -258l199 -254l-242 -203l-205 258q-36 -30 -146.5 -123.5t-162.5 -136.5zM229 264l121 -153l314 260l200 -256l185 153l-199 254l313 258l-123 154l-311 -258l-201 252 l-184 -152l201 -254z" />
<glyph unicode="&#xd8;" horiz-adv-x="1794" d="M231 610q0 175 81 347t212 300.5t307.5 208.5t358.5 80q58 0 104 -6l45 88h220l-70 -147q159 -75 249.5 -223.5t90.5 -337.5q0 -81 -19 -162q-59 -226 -198.5 -402.5t-332.5 -274t-407 -97.5q-73 0 -127 10l-47 -84h-223l78 149q-151 77 -236.5 223.5t-85.5 327.5z M289 766q-49 -232 39 -418.5t278 -269.5l-67 -131h137l49 92q75 -16 147 -16q152 0 302 58.5t270.5 158t208 237t119.5 289.5q50 235 -43.5 426t-290.5 268l61 129h-133l-51 -94q-62 12 -125 12q-152 0 -302 -58.5t-271 -157.5t-208.5 -236.5t-119.5 -288.5zM565 766 q40 192 205.5 328.5t357.5 136.5q18 0 54 -4l-443 -881q-106 60 -154.5 172t-19.5 248zM594 670q0 -85 34.5 -154.5t96.5 -114.5l395 791q-177 -5 -328.5 -132t-189.5 -304q-8 -36 -8 -86zM858 305l442 889q117 -55 171 -170t24 -258q-40 -192 -205.5 -328.5t-357.5 -136.5 q-34 0 -74 4zM918 340h14q179 0 333 127t191 305q10 44 10 90q0 86 -40 159.5t-107 117.5z" />
<glyph unicode="&#xd9;" horiz-adv-x="1243" d="M172 373q0 53 8 86l226 1069h358l-223 -1045q-13 -61 29.5 -100t101.5 -39q62 0 117.5 42.5t76.5 102.5l221 1039h359l-229 -1084q-34 -135 -128.5 -240t-219 -159.5t-257.5 -54.5q-186 0 -313 107t-127 276zM219 451q-19 -90 4 -170t78.5 -134.5t136.5 -86t174 -31.5 q123 0 243 53t208.5 151t114.5 218l221 1038h-279l-211 -989q-18 -85 -88 -140t-149 -55q-77 0 -132 52t-36 132l213 1000h-279zM692 1683l174 265l398 -185l-207 -241zM748 1700l299 -133l157 184l-323 150z" />
<glyph unicode="&#xda;" horiz-adv-x="1243" d="M172 373q0 53 8 86l226 1069h358l-223 -1045q-13 -61 29.5 -100t101.5 -39q62 0 117.5 42.5t76.5 102.5l221 1039h359l-229 -1084q-34 -135 -128.5 -240t-219 -159.5t-257.5 -54.5q-186 0 -313 107t-127 276zM219 451q-19 -90 4 -170t78.5 -134.5t136.5 -86t174 -31.5 q123 0 243 53t208.5 151t114.5 218l221 1038h-279l-211 -989q-18 -85 -88 -140t-149 -55q-77 0 -132 52t-36 132l213 1000h-279zM709 1772l460 180l66 -277l-420 -157zM760 1751l78 -184l354 133l-49 201z" />
<glyph unicode="&#xdb;" horiz-adv-x="1243" d="M172 373q0 53 8 86l226 1069h358l-223 -1045q-13 -61 29.5 -100t101.5 -39q62 0 117.5 42.5t76.5 102.5l221 1039h359l-229 -1084q-34 -135 -128.5 -240t-219 -159.5t-257.5 -54.5q-186 0 -313 107t-127 276zM219 451q-19 -90 4 -170t78.5 -134.5t136.5 -86t174 -31.5 q123 0 243 53t208.5 151t114.5 218l221 1038h-279l-211 -989q-18 -85 -88 -140t-149 -55q-77 0 -132 52t-36 132l213 1000h-279zM649 1808l359 129l325 -149l-211 -244l-166 80l-194 -70zM700 1786l80 -184l178 63l154 -74l160 185l-264 120z" />
<glyph unicode="&#xdc;" horiz-adv-x="1243" d="M172 373q0 53 8 86l226 1069h358l-223 -1045q-13 -61 29.5 -100t101.5 -39q62 0 117.5 42.5t76.5 102.5l221 1039h359l-229 -1084q-34 -135 -128.5 -240t-219 -159.5t-257.5 -54.5q-186 0 -313 107t-127 276zM219 451q-19 -90 4 -170t78.5 -134.5t136.5 -86t174 -31.5 q123 0 243 53t208.5 151t114.5 218l221 1038h-279l-211 -989q-18 -85 -88 -140t-149 -55q-77 0 -132 52t-36 132l213 1000h-279zM614 1751q15 68 70 112t125 44q73 0 113.5 -49t23.5 -123q-14 -65 -70 -111.5t-122 -46.5q-76 0 -115.5 50.5t-24.5 123.5zM653 1743 q-12 -53 17 -90t84 -37q52 0 97.5 37t57.5 90q10 55 -18.5 91t-81.5 36q-56 0 -101 -36t-55 -91zM1006 1751q13 67 69 111.5t123 44.5q75 0 114.5 -48.5t24.5 -123.5q-14 -65 -70.5 -111.5t-123.5 -46.5q-73 0 -112.5 51t-24.5 123zM1044 1743q-12 -53 16.5 -90t82.5 -37 q55 0 100 37t57 90q11 56 -18 91.5t-84 35.5t-99.5 -36t-54.5 -91z" />
<glyph unicode="&#xdd;" horiz-adv-x="1216" d="M315 1530h390l98 -529l325 527h396l-637 -981q-18 -82 -56 -270.5t-57 -276.5h-358l116 559zM365 1491l208 -930l-110 -522h278l109 522l602 928h-303l-358 -578q-3 -6 -7 -6q-3 0 -6 6l-108 580h-305zM696 1772l461 180l66 -277l-420 -157zM748 1751l77 -184l355 133 l-50 201z" />
<glyph unicode="&#xde;" horiz-adv-x="1787" d="M80 0l323 1530h359l-55 -268q23 0 59.5 1t46.5 1h14q174 0 277.5 -104t103.5 -269q0 -61 -12 -111q-45 -198 -203.5 -336.5t-353.5 -138.5h-139l-62 -305h-358zM129 39h277l61 295q0 8 14 8h158q183 0 330.5 129.5t187.5 316.5q39 187 -53.5 312t-276.5 125 q-1 0 -29.5 -0.5t-70 -1t-72.5 -0.5l58 268h-277zM530 631l66 305q3 12 12 12h160q33 0 57 -11t35.5 -28.5t18.5 -39t5.5 -42.5t-3.5 -39q-6 -26 -19 -52.5t-34 -53.5t-55 -44t-75 -17h-159q-12 0 -9 10zM575 659h123q58 0 95 44t49 94q2 23 0.5 48t-21 44.5t-53.5 19.5 h-137z" />
<glyph unicode="&#xdf;" horiz-adv-x="1146" d="M86 0l231 1092q24 111 103.5 205.5t185 147t209.5 52.5h27q153 0 249.5 -101t96.5 -247q0 -41 -10 -82q-26 -129 -119 -244q86 -106 86 -248q0 -55 -10 -104q-40 -195 -196.5 -333t-348.5 -138h-504zM133 39h270l222 1046q20 61 64 86q33 19 77 19q60 0 91 -41t20 -98 q-13 -60 -48.5 -101.5t-89.5 -44.5l-51 -233q68 0 112 -54t29 -126q-18 -76 -71 -129.5t-123 -53.5h-123l-57 -270h135q178 0 323.5 128.5t184.5 311.5q23 104 -2 193.5t-88 152.5q104 113 133 250q21 99 -10 187.5t-108 143t-181 54.5h-27q-96 0 -194 -49t-171.5 -136.5 t-95.5 -189.5zM508 346h127q54 0 98 46t58 108q9 53 -37.5 93t-112.5 40l66 307q54 4 88.5 38t42.5 81q8 38 -12.5 65t-59.5 27q-82 0 -104 -76z" />
<glyph unicode="&#xe0;" horiz-adv-x="1202" d="M129 412q0 66 12 116q64 228 238.5 369t388.5 141q124 0 215 -49l8 35h316l-217 -1024h-316l6 27q-99 -41 -217 -41q-190 0 -312 121.5t-122 304.5zM178 512q-28 -132 14 -244.5t140.5 -178.5t230.5 -66q142 0 271 69l-13 -53h236l200 946h-233l-14 -55q-96 71 -242 71 q-131 0 -257.5 -66t-216 -178.5t-116.5 -244.5zM434 512q20 99 102 167.5t181 68.5q97 0 150.5 -68.5t31.5 -167.5q-22 -100 -104.5 -168t-180.5 -68q-97 0 -149.5 68.5t-30.5 167.5zM471 504q-17 -79 24.5 -134t118.5 -55q87 0 158 59t90 146q17 79 -25.5 134t-119.5 55 q-86 0 -156.5 -58.5t-89.5 -146.5zM586 1274l174 264l397 -184l-207 -242zM641 1290l299 -133l158 184l-324 150z" />
<glyph unicode="&#xe1;" horiz-adv-x="1202" d="M129 412q0 66 12 116q64 228 238.5 369t388.5 141q124 0 215 -49l8 35h316l-217 -1024h-316l6 27q-99 -41 -217 -41q-190 0 -312 121.5t-122 304.5zM178 512q-28 -132 14 -244.5t140.5 -178.5t230.5 -66q142 0 271 69l-13 -53h236l200 946h-233l-14 -55q-96 71 -242 71 q-131 0 -257.5 -66t-216 -178.5t-116.5 -244.5zM434 512q20 99 102 167.5t181 68.5q97 0 150.5 -68.5t31.5 -167.5q-22 -100 -104.5 -168t-180.5 -68q-97 0 -149.5 68.5t-30.5 167.5zM471 504q-17 -79 24.5 -134t118.5 -55q87 0 158 59t90 146q17 79 -25.5 134t-119.5 55 q-86 0 -156.5 -58.5t-89.5 -146.5zM602 1362l461 180l65 -276l-419 -158zM653 1341l78 -184l354 133l-49 201z" />
<glyph unicode="&#xe2;" horiz-adv-x="1202" d="M129 412q0 66 12 116q64 228 238.5 369t388.5 141q124 0 215 -49l8 35h316l-217 -1024h-316l6 27q-99 -41 -217 -41q-190 0 -312 121.5t-122 304.5zM178 512q-28 -132 14 -244.5t140.5 -178.5t230.5 -66q142 0 271 69l-13 -53h236l200 946h-233l-14 -55q-96 71 -242 71 q-131 0 -257.5 -66t-216 -178.5t-116.5 -244.5zM434 512q20 99 102 167.5t181 68.5q97 0 150.5 -68.5t31.5 -167.5q-22 -100 -104.5 -168t-180.5 -68q-97 0 -149.5 68.5t-30.5 167.5zM471 504q-17 -79 24.5 -134t118.5 -55q87 0 158 59t90 146q17 79 -25.5 134t-119.5 55 q-86 0 -156.5 -58.5t-89.5 -146.5zM543 1399l358 129l326 -150l-211 -243l-166 79l-195 -69zM594 1376l80 -184l178 63l154 -73l159 184l-264 121z" />
<glyph unicode="&#xe3;" horiz-adv-x="1202" d="M129 412q0 66 12 116q64 228 238.5 369t388.5 141q124 0 215 -49l8 35h316l-217 -1024h-316l6 27q-99 -41 -217 -41q-190 0 -312 121.5t-122 304.5zM178 512q-28 -132 14 -244.5t140.5 -178.5t230.5 -66q142 0 271 69l-13 -53h236l200 946h-233l-14 -55q-96 71 -242 71 q-131 0 -257.5 -66t-216 -178.5t-116.5 -244.5zM434 512q20 99 102 167.5t181 68.5q97 0 150.5 -68.5t31.5 -167.5q-22 -100 -104.5 -168t-180.5 -68q-97 0 -149.5 68.5t-30.5 167.5zM463 1090l76 348l36 16q105 51 189 51q53 0 147 -28q7 -2 25.5 -8t30.5 -8.5t22 -2.5 q90 0 281 107l-60 -297l-36 -29q-105 -74 -203 -74q-46 0 -133 27h2q-85 25 -115 25q-138 0 -262 -127zM471 504q-17 -79 24.5 -134t118.5 -55q87 0 158 59t90 146q17 79 -25.5 134t-119.5 55q-86 0 -156.5 -58.5t-89.5 -146.5zM522 1186q88 71 201 71q38 0 124 -26.5 t124 -26.5q64 0 119 26.5t86 57.5l45 207q-140 -76 -232 -76q-25 0 -101 24.5t-124 24.5q-38 0 -76.5 -10.5t-76 -27.5t-38.5 -17z" />
<glyph unicode="&#xe4;" horiz-adv-x="1202" d="M129 412q0 66 12 116q64 228 238.5 369t388.5 141q124 0 215 -49l8 35h316l-217 -1024h-316l6 27q-99 -41 -217 -41q-190 0 -312 121.5t-122 304.5zM178 512q-28 -132 14 -244.5t140.5 -178.5t230.5 -66q142 0 271 69l-13 -53h236l200 946h-233l-14 -55q-96 71 -242 71 q-131 0 -257.5 -66t-216 -178.5t-116.5 -244.5zM434 512q20 99 102 167.5t181 68.5q97 0 150.5 -68.5t31.5 -167.5q-22 -100 -104.5 -168t-180.5 -68q-97 0 -149.5 68.5t-30.5 167.5zM471 504q-17 -79 24.5 -134t118.5 -55q87 0 158 59t90 146q17 79 -25.5 134t-119.5 55 q-86 0 -156.5 -58.5t-89.5 -146.5zM508 1341q15 68 69.5 112t124.5 44q73 0 114 -49t24 -123q-14 -65 -70.5 -111.5t-122.5 -46.5q-76 0 -115 50.5t-24 123.5zM547 1333q-12 -53 16.5 -90t83.5 -37q52 0 98 37t58 90q10 55 -19 91t-82 36q-56 0 -100.5 -36t-54.5 -91z M899 1341q13 67 69.5 111.5t123.5 44.5q75 0 114.5 -48.5t24.5 -123.5q-14 -65 -71 -111.5t-124 -46.5q-73 0 -112.5 51t-24.5 123zM938 1333q-12 -53 16 -90t82 -37q55 0 100.5 37t57.5 90q11 56 -18 91.5t-84 35.5t-99.5 -36t-54.5 -91z" />
<glyph unicode="&#xe5;" horiz-adv-x="1202" d="M129 412q0 66 12 116q64 228 238.5 369t388.5 141q124 0 215 -49l8 35h316l-217 -1024h-316l6 27q-99 -41 -217 -41q-190 0 -312 121.5t-122 304.5zM178 512q-28 -132 14 -244.5t140.5 -178.5t230.5 -66q142 0 271 69l-13 -53h236l200 946h-233l-14 -55q-96 71 -242 71 q-131 0 -257.5 -66t-216 -178.5t-116.5 -244.5zM434 512q20 99 102 167.5t181 68.5q97 0 150.5 -68.5t31.5 -167.5q-22 -100 -104.5 -168t-180.5 -68q-97 0 -149.5 68.5t-30.5 167.5zM471 504q-17 -79 24.5 -134t118.5 -55q87 0 158 59t90 146q17 79 -25.5 134t-119.5 55 q-86 0 -156.5 -58.5t-89.5 -146.5zM647 1331q20 92 96 154.5t168 62.5q100 0 154.5 -66.5t32.5 -164.5q-20 -94 -96 -156.5t-168 -62.5q-100 0 -154.5 67t-32.5 166zM684 1323q-17 -79 26.5 -132.5t123.5 -53.5q78 0 144 53.5t83 132.5t-26.5 133.5t-123.5 54.5 q-78 0 -144 -54.5t-83 -133.5zM752 1323q9 51 52 87t93 36t78 -36t18 -87q-10 -49 -53.5 -85t-93.5 -36t-78 36t-16 85zM786 1317q-6 -32 11.5 -54t48.5 -22q38 0 70.5 26.5t41.5 63.5h-2q5 31 -12.5 53.5t-46.5 22.5q-37 0 -69.5 -26.5t-39.5 -63.5h-2z" />
<glyph unicode="&#xe6;" horiz-adv-x="1896" d="M137 412q0 51 13 108q30 140 125.5 259.5t229.5 189t273 69.5q124 0 215 -49l8 35h314l-6 -27q103 41 209 41q189 0 289 -99.5t100 -270.5q0 -50 -15 -142q-4 -18 -13 -47.5t-13 -46.5q0 -4 -1 -23t-1 -20h-170l88 -254q-128 -80 -232 -113.5t-225 -33.5q-130 0 -219 45 l-6 -33h-318l6 27q-99 -41 -215 -41q-191 0 -313.5 121.5t-122.5 304.5zM188 512q-28 -132 14 -244.5t140.5 -178.5t230.5 -66q140 0 269 69l-13 -53h238l10 53q103 -67 248 -67q115 0 207 29t205 98l-66 184q-162 -76 -272 -76q-87 0 -141 43.5t-60 114.5q0 8 8 8h619 q17 55 28 109q45 211 -41.5 338.5t-293.5 127.5q-137 0 -263 -69l13 53h-234l-16 -55q-96 71 -240 71q-131 0 -257.5 -66t-216 -178.5t-116.5 -244.5zM444 512q20 99 102 167.5t181 68.5q97 0 150.5 -68.5t31.5 -167.5q-22 -100 -104 -168t-180 -68q-97 0 -150 68.5 t-31 167.5zM481 504q-17 -79 25 -134t119 -55q86 0 157 58.5t90 146.5q17 79 -25.5 134t-119.5 55q-86 0 -156.5 -58.5t-89.5 -146.5zM1237 623q2 12 23 40.5t51 53.5q72 59 151 59q86 0 127 -51q32 -42 23 -104q-5 -5 -10 -5h-359q-9 0 -6 7zM1243 389q16 -41 57 -66.5 t99 -25.5q61 0 129.5 23t165.5 69h-451zM1303 655h272q0 25 -14 45q-29 37 -99 37q-60 0 -127 -49q-17 -14 -32 -33z" />
<glyph unicode="&#xe7;" horiz-adv-x="1126" d="M143 410q0 44 11 112q46 214 230 365t402 151q134 0 246 -74t158 -192l-279 -180l-37 49l5 -4q-19 22 -32 33.5t-42.5 23t-67.5 11.5q-85 0 -155.5 -58t-87.5 -141q-17 -78 25.5 -132.5t119.5 -54.5q114 0 221 134l266 -150q-214 -295 -497 -315l-8 -8q60 -14 87.5 -62.5 t12.5 -122.5q-16 -67 -65.5 -115.5t-107 -69t-114.5 -20.5q-60 0 -114 14t-82 34l36 180h-18l174 188q-132 41 -209.5 149.5t-77.5 254.5zM193 514q-39 -183 49 -320t258 -165l-160 -172h109q20 0 31.5 -2.5t19 -15t2.5 -36.5q-12 -53 -68 -53h-16q-28 0 -74 12 q-18 5 -41 15l-24 -121q21 -13 73 -22t82 -9q80 0 155.5 46.5t94.5 131.5q13 66 -18.5 105t-94.5 39q-6 0 -20.5 -3t-20.5 -3l80 82q131 9 253 81.5t208 188.5l-201 113q-59 -64 -113 -93.5t-118 -29.5q-97 0 -150.5 67.5t-31.5 163.5q20 95 101.5 162t178.5 67q27 0 50 -5 t38 -10.5t32 -18.5t23.5 -19.5t22.5 -23.5t19 -21l221 141q-38 91 -137.5 153t-219.5 62q-135 0 -261.5 -65.5t-215 -177.5t-116.5 -244zM301 -182q37 -16 53 -19q36 -12 64 -12h16q24 0 29 23q1 4 -1 5.5t-5 2t-8 0.5h-148z" />
<glyph unicode="&#xe8;" horiz-adv-x="1091" d="M127 399q0 41 12 123q30 141 122 259t224 186.5t273 68.5q189 0 289 -99.5t100 -270.5q0 -56 -14 -142q-19 -82 -37 -137h-162l88 -254q-128 -80 -232 -113.5t-225 -33.5q-200 0 -319 113.5t-119 299.5zM178 514q-46 -214 63.5 -352.5t323.5 -138.5q115 0 207 29t205 98 l-66 184q-162 -76 -272 -76q-87 0 -141 43.5t-60 114.5q0 8 8 8h619q21 67 29 108q45 211 -42 339t-294 128q-200 0 -368.5 -141.5t-211.5 -343.5zM477 621q2 12 23 40.5t51 53.5q72 59 151 59q89 0 127 -51q33 -38 23 -105q-4 -4 -10 -4h-359q-9 0 -6 7zM483 387 q16 -41 57 -66.5t99 -25.5q61 0 129.5 23t165.5 69h-451zM530 1274l175 264l397 -184l-207 -242zM543 653h272q0 22 -12 43q-31 39 -101 39q-60 0 -127 -49q-17 -14 -32 -33zM586 1290l299 -133l157 184l-323 150z" />
<glyph unicode="&#xe9;" horiz-adv-x="1091" d="M127 399q0 41 12 123q30 141 122 259t224 186.5t273 68.5q189 0 289 -99.5t100 -270.5q0 -56 -14 -142q-19 -82 -37 -137h-162l88 -254q-128 -80 -232 -113.5t-225 -33.5q-200 0 -319 113.5t-119 299.5zM178 514q-46 -214 63.5 -352.5t323.5 -138.5q115 0 207 29t205 98 l-66 184q-162 -76 -272 -76q-87 0 -141 43.5t-60 114.5q0 8 8 8h619q21 67 29 108q45 211 -42 339t-294 128q-200 0 -368.5 -141.5t-211.5 -343.5zM477 621q2 12 23 40.5t51 53.5q72 59 151 59q89 0 127 -51q33 -38 23 -105q-4 -4 -10 -4h-359q-9 0 -6 7zM483 387 q16 -41 57 -66.5t99 -25.5q61 0 129.5 23t165.5 69h-451zM543 653h272q0 22 -12 43q-31 39 -101 39q-60 0 -127 -49q-17 -14 -32 -33zM547 1362l461 180l65 -276l-420 -158zM598 1341l78 -184l354 133l-49 201z" />
<glyph unicode="&#xea;" horiz-adv-x="1091" d="M127 399q0 41 12 123q30 141 122 259t224 186.5t273 68.5q189 0 289 -99.5t100 -270.5q0 -56 -14 -142q-19 -82 -37 -137h-162l88 -254q-128 -80 -232 -113.5t-225 -33.5q-200 0 -319 113.5t-119 299.5zM178 514q-46 -214 63.5 -352.5t323.5 -138.5q115 0 207 29t205 98 l-66 184q-162 -76 -272 -76q-87 0 -141 43.5t-60 114.5q0 8 8 8h619q21 67 29 108q45 211 -42 339t-294 128q-200 0 -368.5 -141.5t-211.5 -343.5zM477 621q2 12 23 40.5t51 53.5q72 59 151 59q89 0 127 -51q33 -38 23 -105q-4 -4 -10 -4h-359q-9 0 -6 7zM483 387 q16 -41 57 -66.5t99 -25.5q61 0 129.5 23t165.5 69h-451zM487 1399l359 129l325 -150l-210 -243l-166 79l-195 -69zM539 1376l79 -184l179 63l153 -73l160 184l-264 121zM543 653h272q0 22 -12 43q-31 39 -101 39q-60 0 -127 -49q-17 -14 -32 -33z" />
<glyph unicode="&#xeb;" horiz-adv-x="1091" d="M127 399q0 41 12 123q30 141 122 259t224 186.5t273 68.5q189 0 289 -99.5t100 -270.5q0 -56 -14 -142q-19 -82 -37 -137h-162l88 -254q-128 -80 -232 -113.5t-225 -33.5q-200 0 -319 113.5t-119 299.5zM178 514q-46 -214 63.5 -352.5t323.5 -138.5q115 0 207 29t205 98 l-66 184q-162 -76 -272 -76q-87 0 -141 43.5t-60 114.5q0 8 8 8h619q21 67 29 108q45 211 -42 339t-294 128q-200 0 -368.5 -141.5t-211.5 -343.5zM453 1341q15 68 69.5 112t124.5 44q73 0 113.5 -49t23.5 -123q-14 -65 -70 -111.5t-122 -46.5q-76 0 -115 50.5t-24 123.5z M477 621q2 12 23 40.5t51 53.5q72 59 151 59q89 0 127 -51q33 -38 23 -105q-4 -4 -10 -4h-359q-9 0 -6 7zM483 387q16 -41 57 -66.5t99 -25.5q61 0 129.5 23t165.5 69h-451zM492 1333q-12 -53 16.5 -90t83.5 -37q52 0 98 37t58 90q10 55 -19 91t-82 36q-56 0 -100.5 -36 t-54.5 -91zM543 653h272q0 22 -12 43q-31 39 -101 39q-60 0 -127 -49q-17 -14 -32 -33zM844 1341q13 67 69 111.5t123 44.5q75 0 115 -48.5t25 -123.5q-14 -65 -71 -111.5t-124 -46.5q-73 0 -112.5 51t-24.5 123zM883 1333q-12 -53 16 -90t82 -37q55 0 100.5 37t57.5 90 q10 55 -18.5 91t-84.5 36q-55 0 -99 -36t-54 -91z" />
<glyph unicode="&#xec;" horiz-adv-x="430" d="M49 0l217 1024h309l-217 -1024h-309zM98 39h230l200 946h-229zM203 1274l174 264l397 -184l-207 -242zM258 1290l299 -133l158 184l-324 150z" />
<glyph unicode="&#xed;" horiz-adv-x="430" d="M49 0l217 1024h309l-217 -1024h-309zM98 39h230l200 946h-229zM219 1362l461 180l65 -276l-419 -158zM270 1341l78 -184l354 133l-49 201z" />
<glyph unicode="&#xee;" horiz-adv-x="430" d="M49 0l217 1024h309l-217 -1024h-309zM98 39h230l200 946h-229zM160 1399l358 129l326 -150l-211 -243l-166 79l-195 -69zM211 1376l80 -184l178 63l154 -73l159 184l-264 121z" />
<glyph unicode="&#xef;" horiz-adv-x="430" d="M49 0l217 1024h309l-217 -1024h-309zM98 39h230l200 946h-229zM125 1341q15 68 69.5 112t124.5 44q73 0 114 -49t24 -123q-14 -65 -70.5 -111.5t-122.5 -46.5q-76 0 -115 50.5t-24 123.5zM164 1333q-12 -53 16.5 -90t83.5 -37q52 0 98 37t58 90q10 55 -19 91t-82 36 q-56 0 -100.5 -36t-54.5 -91zM516 1341q13 67 69.5 111.5t123.5 44.5q75 0 114.5 -48.5t24.5 -123.5q-14 -65 -71 -111.5t-124 -46.5q-73 0 -112.5 51t-24.5 123zM555 1333q-12 -53 16 -90t82 -37q55 0 100.5 37t57.5 90q11 56 -18 91.5t-84 35.5t-99.5 -36t-54.5 -91z" />
<glyph unicode="&#xf0;" horiz-adv-x="1310" d="M184 422q0 49 11 113q36 167 155.5 292.5t284.5 184.5l-92 192l108 70l-30 74l305 196l43 -76l118 70l119 -246l-121 -75l179 -420q28 -70 28 -154q0 -59 -14 -125q-35 -145 -131.5 -267t-233 -193.5t-282.5 -71.5q-196 0 -321.5 124t-125.5 312zM233 526 q-29 -137 14 -253t145 -183t239 -67t267.5 67t222.5 183t120 253q36 147 -12 254l-193 455l121 72l-86 178l-113 -68l-47 74l-243 -158l34 -73l-110 -70l86 -174l108 63l33 -63v-6q0 -2 -4 -2q-209 -21 -374 -152.5t-208 -329.5zM504 526q22 99 103 166.5t179 67.5 q102 0 154.5 -67.5t30.5 -166.5q-22 -101 -101 -166t-182 -65q-99 0 -152.5 65.5t-31.5 165.5zM543 520q-15 -81 26.5 -134.5t118.5 -53.5q89 0 157.5 56.5t88.5 146.5q17 80 -25 134t-123 54q-82 0 -151.5 -59.5t-91.5 -143.5z" />
<glyph unicode="&#xf1;" horiz-adv-x="1091" d="M59 0l215 1024h314l-2 -10q63 24 145 24q188 0 287.5 -87.5t99.5 -250.5q0 -64 -12 -125l-123 -575h-336l123 586q6 50 -19.5 84.5t-72.5 34.5q-56 0 -102.5 -35t-59.5 -90l2 2l-123 -582h-336zM106 39h259l114 551q19 66 76 109.5t123 43.5q69 0 106.5 -48t22.5 -117 l-113 -539h258l115 543q41 201 -47 310t-289 109q-104 0 -196 -51l8 35h-236zM408 1090l75 348l37 16q105 51 189 51q53 0 147 -28q7 -2 25.5 -8t30.5 -8.5t22 -2.5q89 0 280 107l-59 -297l-37 -29q-105 -74 -203 -74q-46 0 -133 27h2q-85 25 -114 25q-138 0 -262 -127z M467 1186q88 71 201 71q38 0 123.5 -26.5t123.5 -26.5q64 0 119 26.5t86 57.5l45 207q-140 -76 -231 -76q-25 0 -101 24.5t-124 24.5q-38 0 -76.5 -10.5t-76 -27.5t-38.5 -17z" />
<glyph unicode="&#xf2;" horiz-adv-x="1191" d="M143 410q0 52 13 112q29 140 123 259t229 188t278 69q192 0 313.5 -120.5t121.5 -303.5q0 -48 -11 -108q-59 -221 -239 -370.5t-391 -149.5q-194 0 -315.5 120t-121.5 304zM193 514q-28 -134 13.5 -247t140.5 -178.5t233 -65.5q133 0 258.5 65.5t214.5 178.5t118 247 q28 132 -13.5 244t-140 177.5t-231.5 65.5q-204 0 -377 -143t-216 -344zM453 514q20 95 101.5 162t178.5 67q95 0 147.5 -67t32.5 -162q-22 -97 -102.5 -164t-175.5 -67q-97 0 -150.5 67.5t-31.5 163.5zM492 506q-17 -78 24.5 -132.5t118.5 -54.5q80 0 150 60t92 143 q14 75 -28.5 129t-115.5 54q-83 0 -153.5 -58t-87.5 -141zM582 1274l174 264l397 -184l-207 -242zM637 1290l299 -133l158 184l-324 150z" />
<glyph unicode="&#xf3;" horiz-adv-x="1191" d="M143 410q0 52 13 112q29 140 123 259t229 188t278 69q192 0 313.5 -120.5t121.5 -303.5q0 -48 -11 -108q-59 -221 -239 -370.5t-391 -149.5q-194 0 -315.5 120t-121.5 304zM193 514q-28 -134 13.5 -247t140.5 -178.5t233 -65.5q133 0 258.5 65.5t214.5 178.5t118 247 q28 132 -13.5 244t-140 177.5t-231.5 65.5q-204 0 -377 -143t-216 -344zM453 514q20 95 101.5 162t178.5 67q95 0 147.5 -67t32.5 -162q-22 -97 -102.5 -164t-175.5 -67q-97 0 -150.5 67.5t-31.5 163.5zM492 506q-17 -78 24.5 -132.5t118.5 -54.5q80 0 150 60t92 143 q14 75 -28.5 129t-115.5 54q-83 0 -153.5 -58t-87.5 -141zM598 1362l461 180l65 -276l-419 -158zM649 1341l78 -184l354 133l-49 201z" />
<glyph unicode="&#xf4;" horiz-adv-x="1191" d="M143 410q0 52 13 112q29 140 123 259t229 188t278 69q192 0 313.5 -120.5t121.5 -303.5q0 -48 -11 -108q-59 -221 -239 -370.5t-391 -149.5q-194 0 -315.5 120t-121.5 304zM193 514q-28 -134 13.5 -247t140.5 -178.5t233 -65.5q133 0 258.5 65.5t214.5 178.5t118 247 q28 132 -13.5 244t-140 177.5t-231.5 65.5q-204 0 -377 -143t-216 -344zM453 514q20 95 101.5 162t178.5 67q95 0 147.5 -67t32.5 -162q-22 -97 -102.5 -164t-175.5 -67q-97 0 -150.5 67.5t-31.5 163.5zM492 506q-17 -78 24.5 -132.5t118.5 -54.5q80 0 150 60t92 143 q14 75 -28.5 129t-115.5 54q-83 0 -153.5 -58t-87.5 -141zM537 1399l358 129l326 -150l-211 -243l-166 79l-195 -69zM588 1376l80 -184l178 63l153 -73l160 184l-264 121z" />
<glyph unicode="&#xf5;" horiz-adv-x="1191" d="M143 410q0 52 13 112q29 140 123 259t229 188t278 69q192 0 313.5 -120.5t121.5 -303.5q0 -48 -11 -108q-59 -221 -239 -370.5t-391 -149.5q-194 0 -315.5 120t-121.5 304zM193 514q-28 -134 13.5 -247t140.5 -178.5t233 -65.5q133 0 258.5 65.5t214.5 178.5t118 247 q28 132 -13.5 244t-140 177.5t-231.5 65.5q-204 0 -377 -143t-216 -344zM453 514q20 95 101.5 162t178.5 67q95 0 147.5 -67t32.5 -162q-22 -97 -102.5 -164t-175.5 -67q-97 0 -150.5 67.5t-31.5 163.5zM457 1090l75 348l37 16q105 51 189 51q53 0 147 -28q7 -2 25.5 -8 t30.5 -8.5t22 -2.5q90 0 281 107l-60 -297l-37 -29q-105 -74 -202 -74q-47 0 -134 27h3q-85 25 -115 25q-138 0 -262 -127zM492 506q-17 -78 24.5 -132.5t118.5 -54.5q80 0 150 60t92 143q14 75 -28.5 129t-115.5 54q-83 0 -153.5 -58t-87.5 -141zM516 1186q88 71 201 71 q38 0 124 -26.5t124 -26.5q64 0 118.5 26.5t85.5 57.5l45 207q-140 -76 -231 -76q-25 0 -101 24.5t-124 24.5q-38 0 -76.5 -10.5t-76 -27.5t-38.5 -17z" />
<glyph unicode="&#xf6;" horiz-adv-x="1191" d="M143 410q0 52 13 112q29 140 123 259t229 188t278 69q192 0 313.5 -120.5t121.5 -303.5q0 -48 -11 -108q-59 -221 -239 -370.5t-391 -149.5q-194 0 -315.5 120t-121.5 304zM193 514q-28 -134 13.5 -247t140.5 -178.5t233 -65.5q133 0 258.5 65.5t214.5 178.5t118 247 q28 132 -13.5 244t-140 177.5t-231.5 65.5q-204 0 -377 -143t-216 -344zM453 514q20 95 101.5 162t178.5 67q95 0 147.5 -67t32.5 -162q-22 -97 -102.5 -164t-175.5 -67q-97 0 -150.5 67.5t-31.5 163.5zM492 506q-17 -78 24.5 -132.5t118.5 -54.5q80 0 150 60t92 143 q14 75 -28.5 129t-115.5 54q-83 0 -153.5 -58t-87.5 -141zM502 1341q15 68 69.5 112t124.5 44q73 0 114 -49t24 -123q-14 -65 -70.5 -111.5t-122.5 -46.5q-76 0 -115 50.5t-24 123.5zM541 1333q-12 -53 16.5 -90t83.5 -37q52 0 98 37t58 90q10 55 -19 91t-82 36 q-56 0 -100.5 -36t-54.5 -91zM893 1341q13 67 69 111.5t123 44.5q75 0 115 -48.5t25 -123.5q-14 -65 -71 -111.5t-124 -46.5q-73 0 -112.5 51t-24.5 123zM932 1333q-12 -53 16 -90t82 -37q55 0 100.5 37t57.5 90q10 55 -18.5 91t-84.5 36q-55 0 -99 -36t-54 -91z" />
<glyph unicode="&#xf7;" d="M154 377l61 293h442q-48 22 -69.5 69.5t-9.5 106.5q15 73 79 125.5t138 52.5q81 0 125.5 -57t27.5 -136q-12 -55 -48.5 -98t-88.5 -63h432l-61 -293h-445q45 -25 66.5 -73t9.5 -105q-17 -72 -80 -124t-135 -52q-82 0 -126.5 57t-25.5 137h-2q10 52 45.5 94t85.5 66h-421z M201 416h948l45 215h-946zM481 209q-13 -61 21 -104.5t96 -43.5q61 0 113.5 43t66.5 105q12 61 -22.5 104t-96.5 43q-60 0 -112.5 -43t-65.5 -104zM614 838q-12 -62 23 -105t96 -43q60 0 112.5 43.5t65.5 104.5q12 62 -21.5 104.5t-94.5 42.5q-62 0 -115.5 -43t-65.5 -104z " />
<glyph unicode="&#xf8;" horiz-adv-x="1191" d="M143 406q0 56 13 116q29 140 123 259t229 188t278 69q36 0 52 -2q8 18 27.5 54t25.5 49h207l-82 -158q93 -57 149 -154t56 -211q0 -46 -11 -110q-31 -142 -126 -262t-229 -189t-275 -69q-44 0 -62 2l-55 -105h-199l78 162q-98 54 -148.5 146.5t-50.5 214.5zM193 514 q-32 -152 22.5 -272.5t175.5 -178.5l-67 -143h116l56 111q36 -8 84 -8q133 0 258.5 65.5t214.5 178.5t118 247q32 150 -24.5 270.5t-179.5 178.5l69 139h-121l-55 -107q-38 6 -74 6q-204 0 -377 -143t-216 -344zM428 514q23 106 114 181t197 75h11l-242 -477 q-52 33 -73.5 91.5t-6.5 129.5zM461 457q0 -70 35 -105l186 373q-77 -19 -137.5 -79.5t-77.5 -139.5q-6 -27 -6 -49zM610 258l244 481q54 -32 77.5 -92.5t8.5 -132.5q-23 -107 -113.5 -181.5t-197.5 -74.5h-19zM674 299q82 15 146 77.5t83 145.5q9 44 -0.5 87t-34.5 71z" />
<glyph unicode="&#xf9;" horiz-adv-x="1095" d="M143 322q0 62 15 127l121 575h337l-127 -586q-6 -50 21 -84.5t74 -34.5q53 0 99.5 35t59.5 88l123 582h338l-217 -1024h-317v8q-68 -22 -142 -22q-186 0 -285.5 86.5t-99.5 249.5zM195 442q-43 -201 44.5 -310t288.5 -109q116 0 193 51l-6 -35h239l201 946h-256 l-119 -551q-13 -65 -71 -109t-125 -44q-69 0 -107 48t-24 117l114 539h-256zM532 1274l175 264l397 -184l-207 -242zM588 1290l299 -133l157 184l-323 150z" />
<glyph unicode="&#xfa;" horiz-adv-x="1095" d="M143 322q0 62 15 127l121 575h337l-127 -586q-6 -50 21 -84.5t74 -34.5q53 0 99.5 35t59.5 88l123 582h338l-217 -1024h-317v8q-68 -22 -142 -22q-186 0 -285.5 86.5t-99.5 249.5zM195 442q-43 -201 44.5 -310t288.5 -109q116 0 193 51l-6 -35h239l201 946h-256 l-119 -551q-13 -65 -71 -109t-125 -44q-69 0 -107 48t-24 117l114 539h-256zM549 1362l461 180l65 -276l-420 -158zM600 1341l78 -184l354 133l-49 201z" />
<glyph unicode="&#xfb;" horiz-adv-x="1095" d="M143 322q0 62 15 127l121 575h337l-127 -586q-6 -50 21 -84.5t74 -34.5q53 0 99.5 35t59.5 88l123 582h338l-217 -1024h-317v8q-68 -22 -142 -22q-186 0 -285.5 86.5t-99.5 249.5zM195 442q-43 -201 44.5 -310t288.5 -109q116 0 193 51l-6 -35h239l201 946h-256 l-119 -551q-13 -65 -71 -109t-125 -44q-69 0 -107 48t-24 117l114 539h-256zM489 1399l359 129l326 -150l-211 -243l-166 79l-195 -69zM541 1376l80 -184l178 63l153 -73l160 184l-264 121z" />
<glyph unicode="&#xfc;" horiz-adv-x="1095" d="M143 322q0 62 15 127l121 575h337l-127 -586q-6 -50 21 -84.5t74 -34.5q53 0 99.5 35t59.5 88l123 582h338l-217 -1024h-317v8q-68 -22 -142 -22q-186 0 -285.5 86.5t-99.5 249.5zM195 442q-43 -201 44.5 -310t288.5 -109q116 0 193 51l-6 -35h239l201 946h-256 l-119 -551q-13 -65 -71 -109t-125 -44q-69 0 -107 48t-24 117l114 539h-256zM455 1341q15 68 69.5 112t124.5 44q73 0 113.5 -49t23.5 -123q-14 -65 -70 -111.5t-122 -46.5q-76 0 -115 50.5t-24 123.5zM494 1333q-12 -53 16.5 -90t83.5 -37q52 0 98 37t58 90q10 55 -19 91 t-82 36q-56 0 -100.5 -36t-54.5 -91zM846 1341q13 67 69 111.5t123 44.5q75 0 115 -48.5t25 -123.5q-14 -65 -71 -111.5t-124 -46.5q-73 0 -112.5 51t-24.5 123zM885 1333q-12 -53 16 -90t82 -37q55 0 100.5 37t57.5 90q10 55 -18.5 91t-84.5 36q-55 0 -99 -36t-54 -91z" />
<glyph unicode="&#xfd;" horiz-adv-x="976" d="M23 -393l299 528v6l2 -6l-119 889h356l33 -422l215 422h360l-784 -1417h-362zM88 -354h274l742 1339h-273l-256 -508l-4 -4l-4 -2l-2 2q2 2 0 4l-39 508h-278l112 -833v-15l-6 -18zM489 1362l461 180l66 -276l-420 -158zM541 1341l77 -184l355 133l-49 201z" />
<glyph unicode="&#xfe;" horiz-adv-x="1230" d="M-23 -393l379 1796h338l-84 -397q91 32 195 32q190 0 313 -122.5t123 -305.5q0 -64 -12 -114q-63 -225 -239 -367.5t-392 -142.5q-115 0 -192 39q-13 -60 -44.5 -203.5t-46.5 -214.5h-338zM25 -354h258l94 438q89 -61 221 -61q201 0 376 144t218 345q28 132 -15 244.5 t-142 178.5t-230 66q-128 0 -246 -59l88 424h-258zM469 512q22 100 103.5 168t179.5 68q99 0 152.5 -68.5t31.5 -167.5q-22 -100 -104.5 -168t-180.5 -68t-151 68t-31 168zM508 504q-19 -79 23.5 -134t119.5 -55q85 0 156 59t90 146q17 79 -25 134t-120 55 q-86 0 -155.5 -58.5t-88.5 -146.5z" />
<glyph unicode="&#xff;" horiz-adv-x="976" d="M23 -393l299 528v6l2 -6l-119 889h356l33 -422l215 422h360l-784 -1417h-362zM88 -354h274l742 1339h-273l-256 -508l-4 -4l-4 -2l-2 2q2 2 0 4l-39 508h-278l112 -833v-15l-6 -18zM395 1341q15 68 70 112t125 44q73 0 113.5 -49t23.5 -123q-14 -65 -70 -111.5 t-122 -46.5q-76 0 -115.5 50.5t-24.5 123.5zM434 1333q-12 -53 17 -90t84 -37q52 0 97.5 37t57.5 90q10 55 -18.5 91t-81.5 36q-56 0 -101 -36t-55 -91zM786 1341q13 67 69.5 111.5t123.5 44.5q75 0 114.5 -48.5t24.5 -123.5q-14 -65 -70.5 -111.5t-123.5 -46.5 q-73 0 -113 51t-25 123zM825 1333q-12 -53 16.5 -90t82.5 -37q55 0 100 37t57 90q11 56 -18 91.5t-84 35.5t-99.5 -36t-54.5 -91z" />
<glyph unicode="&#x152;" horiz-adv-x="2314" d="M231 610q0 78 19 162q44 210 186 388.5t342.5 282t411.5 103.5q135 0 251.5 -45.5t203.5 -126.5l32 156h881l-74 -354h-522l-51 -230h522l-74 -354h-522l-51 -238h522l-74 -354h-878l30 154q-244 -170 -514 -170q-140 0 -260 48t-203 131.5t-130.5 199t-47.5 247.5z M276.5 530.5q11.5 -110.5 62 -204t126 -161t181 -105t226.5 -37.5q152 0 300 57.5t274 161.5l-43 -203h799l57 276h-510q-11 0 -8 13l61 290q3 11 15 11h507l62 278h-510q-14 0 -10 11l61 284q3 12 15 12h509l58 277h-797l-43 -203q-81 103 -204.5 161t-274.5 58 q-152 0 -302 -58.5t-271 -157.5t-208.5 -236.5t-119.5 -288.5q-24 -125 -12.5 -235.5zM565 766q40 192 205.5 328.5t357.5 136.5q126 0 220 -62.5t134 -169.5t13 -233q-40 -192 -205.5 -328.5t-357.5 -136.5q-126 0 -220 62.5t-133.5 169.5t-13.5 233zM594 668 q0 -141 94.5 -234.5t243.5 -93.5q179 0 333 127t191 305q10 44 10 90q0 142 -94.5 236t-243.5 94q-178 0 -332 -128t-194 -308q-8 -36 -8 -88z" />
<glyph unicode="&#x153;" horiz-adv-x="1892" d="M143 410q0 52 13 112q29 140 123 259t229 188t278 69q113 0 205 -45t150 -123q88 77 194 121.5t217 44.5q189 0 289.5 -99.5t100.5 -270.5q0 -50 -15 -142q0 -3 -29 -137h-169l88 -254q-128 -80 -232 -113.5t-225 -33.5q-122 0 -216 44t-151 124q-90 -80 -196.5 -124 t-216.5 -44q-194 0 -315.5 120t-121.5 304zM193 514q-28 -134 13.5 -247t140.5 -178.5t233 -65.5q115 0 225.5 50t198.5 138q46 -89 138.5 -138.5t217.5 -49.5q115 0 207 29t205 98l-66 184q-162 -76 -272 -76q-87 0 -141 43.5t-60 114.5q0 8 8 8h619q18 57 28 108 q45 211 -42 339t-294 128q-116 0 -225 -50t-194 -138q-48 88 -139 139t-208 51q-204 0 -377 -143t-216 -344zM453 514q20 95 101.5 162t178.5 67q95 0 147.5 -67t32.5 -162q-22 -97 -102.5 -164t-175.5 -67q-97 0 -150.5 67.5t-31.5 163.5zM492 506q-17 -78 24.5 -132.5 t118.5 -54.5q80 0 150 60t92 143q14 75 -28.5 129t-115.5 54q-83 0 -153.5 -58t-87.5 -141zM1272 621q2 12 23 40.5t51 53.5q72 59 151 59q89 0 127 -51q33 -38 23 -105q-4 -4 -11 -4h-358q-10 0 -6 7zM1278 387q16 -41 57 -66.5t99 -25.5q61 0 129.5 23t165.5 69h-451z M1337 653h273q-4 25 -15 45q-29 37 -98 37q-60 0 -127 -49q-20 -16 -33 -33z" />
<glyph unicode="&#x178;" horiz-adv-x="1216" d="M315 1530h390l98 -529l325 527h396l-637 -981q-18 -82 -56 -270.5t-57 -276.5h-358l116 559zM365 1491l208 -930l-110 -522h278l109 522l602 928h-303l-358 -578q-3 -6 -7 -6q-3 0 -6 6l-108 580h-305zM600 1751q15 68 70 112t125 44q73 0 113.5 -49t23.5 -123 q-14 -65 -70.5 -111.5t-122.5 -46.5q-76 0 -115 50.5t-24 123.5zM639 1743q-12 -53 16.5 -90t83.5 -37q52 0 98 37t58 90q10 55 -18.5 91t-81.5 36q-56 0 -101 -36t-55 -91zM991 1751q13 67 69.5 111.5t123.5 44.5q75 0 114.5 -48.5t24.5 -123.5q-14 -65 -71 -111.5 t-124 -46.5q-73 0 -112.5 51t-24.5 123zM1030 1743q-12 -53 16 -90t82 -37q55 0 100.5 37t57.5 90q11 56 -18 91.5t-84 35.5t-99.5 -36t-54.5 -91z" />
<glyph unicode="&#x2c6;" horiz-adv-x="815" d="M350 1399l359 129l325 -150l-211 -243l-166 79l-194 -69zM401 1376l80 -184l178 63l154 -73l160 184l-264 121z" />
<glyph unicode="&#x2dc;" horiz-adv-x="909" d="M315 1090l76 348l37 16q105 51 188 51q54 0 148 -28q7 -2 25.5 -8t30.5 -8.5t22 -2.5q89 0 280 107l-59 -297l-37 -29q-105 -74 -203 -74q-46 0 -133 27h2q-85 25 -114 25q-139 0 -263 -127zM375 1186q88 71 200 71q38 0 124 -26.5t124 -26.5q64 0 119 26.5t86 57.5 l45 207q-140 -76 -231 -76q-25 0 -101.5 24.5t-124.5 24.5q-38 0 -76.5 -10.5t-75 -27t-38.5 -17.5z" />
<glyph unicode="&#x2000;" horiz-adv-x="987" />
<glyph unicode="&#x2001;" horiz-adv-x="1974" />
<glyph unicode="&#x2002;" horiz-adv-x="987" />
<glyph unicode="&#x2003;" horiz-adv-x="1974" />
<glyph unicode="&#x2004;" horiz-adv-x="658" />
<glyph unicode="&#x2005;" horiz-adv-x="493" />
<glyph unicode="&#x2006;" horiz-adv-x="329" />
<glyph unicode="&#x2007;" horiz-adv-x="329" />
<glyph unicode="&#x2008;" horiz-adv-x="246" />
<glyph unicode="&#x2009;" horiz-adv-x="394" />
<glyph unicode="&#x200a;" horiz-adv-x="109" />
<glyph unicode="&#x2010;" horiz-adv-x="878" d="M170 436l63 293h680l-61 -293h-682zM217 473h602l47 217h-600z" />
<glyph unicode="&#x2011;" horiz-adv-x="878" d="M170 436l63 293h680l-61 -293h-682zM217 473h602l47 217h-600z" />
<glyph unicode="&#x2012;" horiz-adv-x="878" d="M170 436l63 293h680l-61 -293h-682zM217 473h602l47 217h-600z" />
<glyph unicode="&#x2013;" horiz-adv-x="1257" d="M178 436l62 293h1030l-62 -293h-1030zM225 473h951l47 217h-951z" />
<glyph unicode="&#x2014;" horiz-adv-x="1617" d="M186 436l62 293h1362l-62 -293h-1362zM233 473h1283l47 217h-1282z" />
<glyph unicode="&#x2018;" horiz-adv-x="460" d="M356 1497h306l-52 -418l-223 -26zM397 1460l27 -366l154 20l38 346h-219z" />
<glyph unicode="&#x2019;" horiz-adv-x="460" d="M272 1081l129 416h310l-219 -444zM322 1114l147 -20l182 366h-221z" />
<glyph unicode="&#x201a;" horiz-adv-x="460" d="M6 -119l129 416h309l-219 -444zM55 -88l148 -18l182 366h-221z" />
<glyph unicode="&#x201c;" horiz-adv-x="790" d="M362 1497h603l-50 -418l-225 -26l-28 422l-46 -396l-223 -26zM403 1460l27 -366l154 20l39 346h-220zM700 1460l27 -366l154 20l39 346h-220z" />
<glyph unicode="&#x201d;" horiz-adv-x="790" d="M279 1081l129 416h606l-219 -444l-217 28l110 359l-190 -387zM328 1114l147 -20l180 366h-219zM627 1114l145 -20l182 366h-221z" />
<glyph unicode="&#x201e;" horiz-adv-x="790" d="M12 -119l129 416h607l-220 -444l-217 28l111 359l-191 -387zM61 -88l148 -18l180 366h-219zM360 -88l146 -18l182 366h-221z" />
<glyph unicode="&#x2022;" horiz-adv-x="716" d="M205 614q22 106 114.5 182t198.5 76q114 0 178 -80t39 -192q-23 -107 -115 -182.5t-198 -75.5q-114 0 -178 80t-39 192zM242 606q-20 -94 33 -160.5t147 -66.5t174 66.5t100 160.5t-32 161t-146 67t-175 -67t-101 -161z" />
<glyph unicode="&#x2026;" horiz-adv-x="1501" d="M119 143q13 58 64.5 103t113.5 45q63 0 97.5 -49t23.5 -113q-14 -57 -62 -97t-106 -40q-71 0 -108 44t-23 107zM158 137q-11 -45 15 -75.5t77 -30.5q44 0 82 31t47 75t-15 79.5t-67 35.5q-49 0 -90 -35.5t-49 -79.5zM596 143q11 58 62.5 103t115.5 45q63 0 97 -49.5 t22 -112.5q-12 -57 -60 -97t-106 -40q-72 0 -108.5 44t-22.5 107zM633 137q-9 -45 16.5 -75.5t77.5 -30.5q43 0 81 31t48 75q8 44 -15.5 79.5t-66.5 35.5q-49 0 -90.5 -35t-50.5 -80zM1071 143q13 58 64.5 103t113.5 45q63 0 97.5 -49t23.5 -113q-14 -57 -62 -97t-106 -40 q-71 0 -108 44t-23 107zM1110 137q-11 -45 15 -75.5t77 -30.5q44 0 82 31t47 75t-15 79.5t-67 35.5q-49 0 -90 -35.5t-49 -79.5z" />
<glyph unicode="&#x202f;" horiz-adv-x="394" />
<glyph unicode="&#x2039;" horiz-adv-x="655" d="M172 561l387 451l191 -191l-240 -274l127 -279l-275 -170zM215 553l164 -399l211 131l-123 268l231 266l-137 139z" />
<glyph unicode="&#x203a;" horiz-adv-x="655" d="M102 281l246 278l-121 272l260 183l201 -467l-375 -447zM156 285l153 -131l336 399l-172 405l-199 -139l119 -266z" />
<glyph unicode="&#x205f;" horiz-adv-x="493" />
<glyph unicode="&#x20ac;" horiz-adv-x="1232" d="M154 434l61 297h102q0 5 5 25h-101l62 284h106q31 83 86.5 161.5t131.5 144t177 105.5t209 40q69 0 146 -28t144 -81.5t97 -119.5l-297 -205q-39 52 -72.5 80t-72.5 28q-115 0 -193 -121h357l-62 -288h-372q0 -1 -4 -27h372l-63 -301h-25l205 -235q-96 -92 -227.5 -149.5 t-235.5 -57.5q-203 0 -319 123.5t-111 324.5h-106zM201 473h102q-2 -8 -2 -24q-11 -190 95 -308t294 -118q96 0 212 48t198 124l-158 186q-41 -36 -94.5 -61t-102.5 -25q-70 0 -122 46.5t-52 107.5q0 6 4 18h367l47 223h-375l23 103h371l45 215h-371l4 6l12 24 q91 164 240 164q51 0 86 -24.5t70 -69.5l237 166q-35 78 -136 128t-202 50q-103 0 -198 -37t-165.5 -99t-122.5 -135t-81 -151q-9 -23 -10 -26h-103l-45 -211h101l-21 -99h-100zM612 428q8 -40 46 -68t87 -28q40 0 93 28t100 68h-326z" />
<glyph unicode="&#x2122;" horiz-adv-x="1773" d="M367 1264l49 237h626v-2h248l74 -528l299 528h291l-197 -930h-241l86 404l-66 -109l-166 -295h-176l-41 312l-10 94l-86 -404h-248l145 693h-153l-148 -697h-243l147 697h-190zM414 1300h186q6 0 6 -4v-2l-2 -6l-147 -684h164l145 684l2 12h193l32 164h-544zM856 608h168 l121 561h2q2 2 4 2q1 0 2 -1t2 -1q-1 -3 4.5 -43.5t15.5 -113t17 -129.5l35 -277h123l155 277q35 59 74 130t61.5 112t24.5 44q6 9 12 9t6 -9l-120 -563h161l183 856h-224l-331 -590q0 -6 -9 -6q-1 0 -4 6l-84 590h-217z" />
<glyph unicode="&#xe000;" horiz-adv-x="1024" d="M0 0v1024h1024v-1024h-1024z" />
<glyph unicode="&#xfb01;" horiz-adv-x="1406" d="M246 717l65 307h154l12 61q31 146 137 234t258 88h215l-61 -299h-133q-72 0 -90 -78q-2 -4 -2 -6h276l-65 -307h-275q-25 -121 -77 -365t-74 -352h-338l151 717h-153zM293 756h153l-151 -717h258l152 717h274l49 229h-274l12 51q21 109 127 109h100l47 225h-168 q-137 0 -232.5 -80t-123.5 -213l-20 -92h-154zM997 0l217 1026h170q-72 3 -110 53t-23 123q14 64 72 112t125 48q70 0 112 -52.5t27 -121.5q-13 -66 -69 -113t-119 -49h151l-215 -1026h-338zM1044 39h259l200 948h-258zM1290 1194q-12 -55 17.5 -93t85.5 -38q52 0 98.5 38 t58.5 93q11 53 -19.5 91t-82.5 38q-55 0 -101 -38t-57 -91z" />
<glyph unicode="&#xfb02;" horiz-adv-x="1435" d="M246 717l65 307h154l12 61q31 146 137 234t258 88h215l-61 -299h-133q-72 0 -90 -78q-2 -4 -2 -6h276l-65 -307h-275q-25 -121 -77 -365t-74 -352h-338l151 717h-153zM293 756h153l-151 -717h258l152 717h274l49 229h-274l12 51q21 109 127 109h100l47 225h-168 q-137 0 -232.5 -80t-123.5 -213l-20 -92h-154zM1024 0l297 1403h338l-297 -1403h-338zM1073 39h258l281 1327h-258z" />
</font>
</defs>
</svg>
