<?xml version="1.0" standalone="no"?>
<!DOCTYPE svg PUBLIC "-//W3C//DTD SVG 1.1//EN" "http://www.w3.org/Graphics/SVG/1.1/DTD/svg11.dtd" >
<svg xmlns="http://www.w3.org/2000/svg">
<metadata></metadata>
<defs>
<font id="nanamiblack" horiz-adv-x="1228" >
<font-face units-per-em="2048" ascent="1536" descent="-512" />
<missing-glyph horiz-adv-x="593" />
<glyph horiz-adv-x="2048" />
<glyph horiz-adv-x="2048" />
<glyph unicode="&#xd;" horiz-adv-x="2048" />
<glyph unicode=" "  horiz-adv-x="593" />
<glyph unicode="&#x09;" horiz-adv-x="593" />
<glyph unicode="&#xa0;" horiz-adv-x="593" />
<glyph unicode="!" horiz-adv-x="491" d="M78 160q0 69 50 118.5t118 49.5q69 0 118.5 -49.5t49.5 -118.5q0 -68 -49.5 -118t-118.5 -50q-68 0 -118 50t-50 118zM80 416v1122h334v-1122h-334z" />
<glyph unicode="&#x22;" horiz-adv-x="806" d="M84 877v620h291v-620h-291zM432 877v620h293v-620h-293z" />
<glyph unicode="#" horiz-adv-x="1296" d="M39 385v258h289l20 139h-248v258h283l57 394h262l-59 -394h105l55 394h260l-55 -394h247v-258h-284q-3 -29 -10 -69t-11 -70h248v-258h-283l-55 -385h-254l49 385h-104l-51 -385h-258l49 385h-252zM588 643h102l23 139h-103z" />
<glyph unicode="$" horiz-adv-x="987" d="M49 322l281 127q12 -33 35 -60q48 -59 114 -59h10q42 0 71.5 31t31.5 73q-2 42 -14 70t-37.5 46.5t-50.5 28t-70 21.5q-168 57 -268.5 171.5t-100.5 277.5q0 179 80.5 293t233.5 149v184h292v-194q82 -31 145 -91t91 -143l-313 -145l-13 22q-17 37 -80 37 q-36 0 -62 -30.5t-26 -69.5q0 -21 10.5 -40t23 -31.5t37.5 -26t39 -19.5l42 -18l27 -13q132 -57 207.5 -116.5t115 -147t39.5 -213.5q0 -143 -79.5 -258t-203.5 -166v-190h-292v178q-132 30 -218 114.5t-98 207.5z" />
<glyph unicode="%" horiz-adv-x="1714" d="M53 1118q0 157 112 268t269 111q156 0 267.5 -111.5t111.5 -267.5t-111.5 -267.5t-267.5 -111.5q-157 0 -269 111t-112 268zM317 1118q0 -47 34 -80.5t83 -33.5q47 0 81 33.5t34 80.5q0 49 -33.5 83t-81.5 34q-50 0 -83.5 -33.5t-33.5 -83.5zM408 94l737 1450l184 -92 l-745 -1466zM901 379q0 156 111.5 267.5t267.5 111.5q157 0 269 -111t112 -268t-112 -268t-269 -111q-156 0 -267.5 111.5t-111.5 267.5zM1165 379q0 -47 34 -81t81 -34q49 0 83 33.5t34 81.5q0 49 -33.5 83t-83.5 34q-48 0 -81.5 -34t-33.5 -83z" />
<glyph unicode="&#x26;" horiz-adv-x="1411" d="M63 449q0 119 57 223.5t159 181.5q-117 108 -117 285q0 153 116.5 263.5t272.5 110.5q154 0 264.5 -110t110.5 -264q0 -190 -166 -316q54 -50 84 -80l131 248l291 -143l-179 -334l304 -281l-183 -229l-266 229q-61 -117 -165 -182t-236 -65q-129 0 -239 61.5t-174.5 168 t-64.5 233.5zM387 457q0 -63 43.5 -106.5t106.5 -43.5q83 0 149 135l-74 74q-25 21 -62 57t-58 54q-105 -80 -105 -170zM487 1133q0 -34 20 -72.5t32 -38.5q10 0 10 2l31 29q30 38 32 75q0 31 -20 48.5t-47 17.5q-30 0 -44 -17.5t-14 -43.5z" />
<glyph unicode="'" horiz-adv-x="446" d="M80 870v627h291v-627h-291z" />
<glyph unicode="(" horiz-adv-x="653" d="M102 358v697q0 324 244 516l223 -248q-77 -77 -98.5 -144t-21.5 -192v-563q0 -124 22 -193t98 -141l-223 -248q-244 189 -244 516z" />
<glyph unicode=")" horiz-adv-x="655" d="M102 90q76 76 98.5 144t22.5 190v563q0 122 -23 188.5t-98 147.5l224 248q243 -192 243 -516v-697q0 -328 -243 -516z" />
<glyph unicode="*" horiz-adv-x="890" d="M47 950v185h180q-4 4 -23 20t-48.5 43t-61.5 59l135 136q6 -4 30.5 -28.5t55 -57t39.5 -41.5l-8 178h197v-174l119 125l133 -135l-125 -125l174 6v-191q-15 0 -86 2t-88 2q3 -7 58 -59.5t67 -60.5l-138 -138q-12 11 -56.5 61.5t-59.5 65.5v-174h-193l6 176l-123 -129 l-135 138l131 116h-180z" />
<glyph unicode="+" horiz-adv-x="1071" d="M25 371v297h366v356h291v-356h369v-293h-369v-365h-291v361h-366z" />
<glyph unicode="," horiz-adv-x="417" d="M29 246l284 57l49 -420l-223 -30z" />
<glyph unicode="-" horiz-adv-x="829" d="M76 436v293h678v-293h-678z" />
<glyph unicode="." horiz-adv-x="419" d="M61 137q0 60 44 107t110 47q58 0 100.5 -47.5t42.5 -106.5q0 -60 -41.5 -102.5t-101.5 -42.5q-68 0 -111 42t-43 103z" />
<glyph unicode="/" horiz-adv-x="604" d="M-2 39l424 1470l184 -57q-36 -126 -424 -1475z" />
<glyph unicode="0" d="M92 504v526q0 138 69.5 258t190.5 192t262 72t262 -72t191 -192t70 -258v-526q0 -138 -70 -257.5t-191 -191t-262 -71.5t-262 71.5t-190.5 191t-69.5 257.5zM438 508q0 -70 52.5 -123t123.5 -53q72 0 123 53t51 123v518q0 72 -51 125t-123 53q-71 0 -123.5 -53.5 t-52.5 -124.5v-518z" />
<glyph unicode="1" d="M326 1206l2 330h571v-1536h-346v1206h-227z" />
<glyph unicode="2" d="M154 1270q182 266 467 266q212 0 356.5 -136.5t144.5 -340.5q0 -104 -53 -204t-139 -185l-336 -336h539v-334h-965v281l526 563q109 114 109 198q0 71 -45.5 123t-136.5 52q-65 0 -139.5 -41.5t-129.5 -120.5z" />
<glyph unicode="3" d="M166 188l153 254q143 -133 256 -133q90 0 143.5 55t53.5 132q0 75 -63.5 131.5t-169.5 60.5l-123 2v250l55 2q94 3 147.5 48.5t53.5 115.5q0 51 -35 87t-86 36t-109 -28t-108 -75l-139 252q80 75 182 120.5t213 45.5q183 0 292 -108t109 -275q0 -165 -125 -284 q240 -150 240 -404q0 -140 -69.5 -252.5t-184.5 -173.5t-252 -61q-135 0 -236.5 50t-197.5 152z" />
<glyph unicode="4" d="M100 268v326l295 465l301 477h330v-944h135v-322h-135v-270h-348v268h-578zM492 596h186v326z" />
<glyph unicode="5" d="M172 139l156 273q66 -50 126.5 -71.5t135.5 -21.5q82 0 144.5 59t62.5 157q0 90 -55 152.5t-150 62.5q-75 0 -178 -62l-242 121l98 711h754v-328h-502l-20 -166q113 18 157 18q206 0 345 -146t139 -382q0 -105 -42.5 -203t-115 -170t-174 -115.5t-213.5 -43.5 q-257 0 -426 155z" />
<glyph unicode="6" d="M72 524q0 160 73 275l478 751l292 -188l-213 -324q199 -38 327 -176t128 -338q0 -148 -73 -272.5t-198 -196t-272 -71.5q-110 0 -210.5 42.5t-173 114.5t-115.5 172t-43 211zM420 524q0 -85 54 -139.5t140 -54.5t140.5 54.5t54.5 139.5q0 86 -54.5 141.5t-140.5 55.5 t-140 -55t-54 -142z" />
<glyph unicode="7" d="M166 1196v340h901v-246l-524 -1300l-322 135l445 1071h-500z" />
<glyph unicode="8" d="M109 506q0 102 46 200t115 164q-94 113 -94 244q0 180 129 309t309 129t309.5 -129t129.5 -309q0 -69 -25 -125.5t-72 -118.5q70 -66 117 -164.5t47 -199.5q0 -138 -67.5 -258t-184.5 -192t-254 -72t-253.5 72t-184 192t-67.5 258zM444 498q0 -72 49 -121t121 -49 q70 0 119 49t49 121q0 69 -49.5 118.5t-118.5 49.5q-72 0 -121 -49t-49 -119zM512 1122q0 -41 30.5 -71.5t71.5 -30.5t71 30.5t30 71.5t-30 71t-71 30t-71.5 -30t-30.5 -71z" />
<glyph unicode="9" d="M72 1010q0 112 43 212.5t115.5 172.5t173 114.5t210.5 42.5q147 0 272 -71.5t198 -196.5t73 -274q0 -159 -74 -275l-489 -770l-295 189l225 342q-198 38 -325 176.5t-127 337.5zM420 1010q0 -85 54 -140t140 -55t140.5 55t54.5 140q0 86 -54.5 141t-140.5 55t-140 -55 t-54 -141z" />
<glyph unicode=":" horiz-adv-x="434" d="M70 137q0 60 43.5 107t109.5 47q59 0 101.5 -47.5t42.5 -106.5q0 -60 -42 -102.5t-102 -42.5q-68 0 -110.5 42t-42.5 103zM70 803q0 68 42 110.5t111 42.5q61 0 102.5 -43t41.5 -110q0 -60 -42 -103t-102 -43q-68 0 -110.5 42.5t-42.5 103.5z" />
<glyph unicode=";" horiz-adv-x="421" d="M43 246l285 57l49 -420l-223 -30zM55 807q0 63 42 107t102 44q65 0 108 -43.5t43 -107.5q0 -61 -43 -103t-108 -42q-60 0 -102 42.5t-42 102.5z" />
<glyph unicode="&#x3c;" horiz-adv-x="1241" d="M33 627l1040 428l86 -215l-778 -326l776 -319l-78 -220l-1044 435z" />
<glyph unicode="=" horiz-adv-x="1105" d="M84 170v293h940v-293h-940zM84 539v292h940v-292h-940z" />
<glyph unicode="&#x3e;" horiz-adv-x="1241" d="M33 840l86 215l1040 -428l-2 -217l-1044 -435l-78 220l776 319z" />
<glyph unicode="?" horiz-adv-x="866" d="M43 1223q0 70 54 139t140 112.5t175 43.5q180 0 299.5 -101.5t119.5 -273.5q0 -85 -31.5 -150.5t-76.5 -104t-89.5 -69t-76 -61.5t-31.5 -66q0 -38 37 -139q2 -7 39 -88l-319 -115q-36 36 -69.5 128t-33.5 171q0 67 31 124t75 96.5t87.5 76t74.5 80t31 92.5q0 51 -43 51 q-11 0 -21 -7t-25 -23.5t-25 -24.5zM309 160q0 68 49.5 118t116.5 50q71 0 120.5 -49t49.5 -119q0 -68 -49.5 -118t-120.5 -50q-66 0 -116 50.5t-50 117.5z" />
<glyph unicode="@" horiz-adv-x="1712" d="M59 705q0 171 70 322.5t188.5 257.5t279 167t337.5 61q107 0 210 -24.5t195 -75.5t162 -122.5t111 -173t41 -220.5q0 -284 -217 -473q-140 -100 -281 -100q-153 0 -197 92q-86 -92 -225 -92q-145 0 -220 82t-75 233q0 141 57.5 256t154 178.5t210.5 63.5q130 0 199 -78 q7 11 24 51h201l-129 -526q-8 -27 -8 -37q0 -27 35 -27q79 0 147 80q109 109 109 297q0 182 -138.5 294t-375.5 112q-174 0 -322.5 -79t-238 -221t-89.5 -315q0 -141 77.5 -254.5t211.5 -177t297 -63.5q304 0 516 149l97 -133q-287 -223 -603 -223q-125 0 -243 29t-221.5 89 t-180.5 144t-121.5 202t-44.5 255zM668 639q0 -137 102 -137q55 0 103.5 48.5t68.5 123.5l35 135q4 36 4 47q0 51 -29 78t-73 27q-87 0 -149 -96t-62 -226z" />
<glyph unicode="A" horiz-adv-x="1572" d="M41 0l618 1538h254l613 -1538h-373l-119 270h-495l-119 -270h-379zM670 606h231l-115 289z" />
<glyph unicode="B" horiz-adv-x="1112" d="M86 0v1536h467q117 0 214 -62t149.5 -160.5t52.5 -209.5q0 -135 -70 -252q73 -67 114.5 -161.5t41.5 -201.5q0 -199 -140.5 -341.5t-341.5 -147.5h-487zM440 354h123q59 0 98 43.5t39 104.5t-39 103t-98 42h-123v-293zM440 969h90q45 4 70 33.5t25 68.5q0 41 -27.5 74 t-75.5 37h-82v-213z" />
<glyph unicode="C" horiz-adv-x="1368" d="M55 770q0 159 62 304t166.5 249.5t249 166.5t303.5 62q283 0 481 -163q4 -4 6 -5l-221 -282q-118 96 -264 96q-185 -1 -306.5 -125t-121.5 -303q0 -189 121 -309.5t307 -120.5q67 0 137.5 26t126.5 68l223 -280q-13 -13 -32.5 -28.5t-65 -42.5t-97.5 -47.5t-131 -36 t-163 -15.5q-159 0 -304 62.5t-249 168t-166 251t-62 304.5z" />
<glyph unicode="D" horiz-adv-x="1425" d="M86 0v1536h516q157 0 299.5 -61.5t245 -165t163 -245t60.5 -294.5q0 -155 -60.5 -297t-163 -246t-245 -165.5t-299.5 -61.5h-516zM440 354h162q180 0 297 117t117 299q0 181 -112 296.5t-292 115.5h-172v-828z" />
<glyph unicode="E" horiz-adv-x="1044" d="M86 0v1536h881v-354h-527v-232h527v-354h-527v-242h527v-354h-881z" />
<glyph unicode="F" horiz-adv-x="991" d="M86 0v1536h881v-354h-527v-232h527v-354h-527v-596h-354z" />
<glyph unicode="G" horiz-adv-x="1505" d="M61 764q0 213 100.5 393.5t277.5 286.5t390 106q100 0 189.5 -19t151.5 -50t95 -52.5t58 -42.5l4 -4l-217 -280q-125 94 -281 94q-116 0 -212 -58.5t-149.5 -157.5t-53.5 -216q0 -169 123.5 -296.5t298.5 -127.5q166 0 235 90v100h-321v322h684v-559 q-89 -131 -243.5 -220t-361.5 -89q-155 0 -297.5 62t-245.5 166.5t-164 249t-61 302.5z" />
<glyph unicode="H" horiz-adv-x="1300" d="M88 0v1536h354v-590h418v590h354v-1536h-354v592h-418v-592h-354z" />
<glyph unicode="I" horiz-adv-x="520" d="M84 0v1536h356v-1536h-356z" />
<glyph unicode="J" horiz-adv-x="929" d="M35 205l313 176q15 -43 68 -43q35 0 58.5 25t23.5 61v1112h354v-1112q0 -183 -127.5 -311.5t-308.5 -128.5q-122 0 -224 59t-157 162z" />
<glyph unicode="K" horiz-adv-x="1216" d="M84 0v1536h354v-549l334 549h414l-475 -770l485 -766h-426l-332 545v-545h-354z" />
<glyph unicode="L" horiz-adv-x="942" d="M84 0v1536h354v-1182h467v-354h-821z" />
<glyph unicode="M" horiz-adv-x="1720" d="M84 0v1536h430l340 -963l346 963h436v-1536h-354v846q-135 -399 -178 -516l-115 -330h-272l-271 842v-842h-362z" />
<glyph unicode="N" horiz-adv-x="1400" d="M84 0v1536h348l531 -879v879h354v-1536h-344l-535 872v-872h-354z" />
<glyph unicode="O" horiz-adv-x="1679" d="M59 766q0 159 62 304.5t166 251t249 168t304 62.5t303.5 -62.5t249 -168t166 -251t61.5 -304.5t-61.5 -305t-166 -252t-249 -169t-303.5 -63q-212 0 -392 106.5t-284.5 288t-104.5 394.5zM414 766q0 -178 125.5 -304t300.5 -126q178 0 302 125.5t124 304.5 q0 116 -56.5 215.5t-154.5 158t-215 58.5q-175 0 -300.5 -127.5t-125.5 -304.5z" />
<glyph unicode="P" horiz-adv-x="1052" d="M84 0v1536h485q200 0 330.5 -136.5t130.5 -338.5q0 -133 -58.5 -244t-164.5 -176.5t-238 -65.5h-131v-575h-354zM438 930h131q55 0 81 42.5t26 88.5q0 24 -9 50t-34.5 48.5t-63.5 22.5h-131v-252z" />
<glyph unicode="Q" horiz-adv-x="1685" d="M59 770q0 159 62 304t166.5 249.5t249 166.5t303.5 62t303.5 -62t249 -166.5t166 -249.5t61.5 -304q0 -261 -137 -453l104 -124l-264 -242l-121 121q-163 -88 -362 -88q-159 0 -304 62.5t-249 168t-166 251t-62 304.5zM414 770q0 -178 125.5 -304t300.5 -126q68 0 110 12 l-76 103l256 221l91 -103q45 86 45 197q0 178 -124 303t-302 125q-175 0 -300.5 -125.5t-125.5 -302.5z" />
<glyph unicode="R" horiz-adv-x="1196" d="M84 0v1536h512q202 0 337.5 -137.5t135.5 -341.5q0 -288 -227 -424l358 -633h-391l-317 586h-54v-586h-354zM438 924h146q61 0 96 37t35 96q0 52 -36 88.5t-95 36.5h-146v-258z" />
<glyph unicode="S" horiz-adv-x="1032" d="M66 1077q0 214 125 342.5t337 128.5q78 0 157 -30t146 -92.5t95 -145.5l-322 -147q-29 59 -92 59q-37 0 -64.5 -31.5t-27.5 -70.5q0 -26 13.5 -48.5t40.5 -40t48 -28t53 -23.5l27 -12q201 -89 286 -196.5t85 -295.5q0 -192 -130 -327t-317 -135q-225 0 -358 157 q-55 64 -92 158l282 127q31 -45 65 -66.5t91 -21.5q46 0 78.5 28t32.5 78q0 28 -10 51t-24 39t-41.5 32t-48.5 25.5t-59 24.5q-170 68 -273 183.5t-103 277.5z" />
<glyph unicode="T" horiz-adv-x="1079" d="M41 1182v354h1001v-354h-327v-1180h-355v1180h-319z" />
<glyph unicode="U" horiz-adv-x="1187" d="M76 444v1092h354v-1053q0 -62 54.5 -103.5t115.5 -41.5q62 0 108 39.5t50 99.5v1059h354v-1092q0 -98 -43 -185t-114 -146.5t-164 -94t-191 -34.5q-134 0 -253.5 57.5t-195 164.5t-75.5 238z" />
<glyph unicode="V" horiz-adv-x="1404" d="M25 1536h381l294 -899l291 899h387l-542 -1536h-269z" />
<glyph unicode="W" horiz-adv-x="1763" d="M12 1536h367l178 -729l184 729h283l180 -729l185 729h364l-412 -1536h-276l-184 721l-183 -721h-278z" />
<glyph unicode="X" horiz-adv-x="1427" d="M18 0l478 766l-476 770h416l269 -430l264 430h415l-473 -770l482 -766h-424l-264 428l-267 -428h-420z" />
<glyph unicode="Y" horiz-adv-x="1255" d="M20 1536h396l213 -537l213 537h391l-426 -981v-555h-354v555z" />
<glyph unicode="Z" horiz-adv-x="1103" d="M51 1182v354h998v-352l-545 -830h553v-354h-994v322l605 860h-617z" />
<glyph unicode="[" horiz-adv-x="690" d="M86 -279l2 1903h537v-305h-195v-1294h195v-304h-539z" />
<glyph unicode="\" horiz-adv-x="600" d="M-2 1452l184 57l424 -1470l-184 -62q-388 1349 -424 1475z" />
<glyph unicode="]" horiz-adv-x="688" d="M86 25h195v1294h-195v305h537l2 -1903h-539v304z" />
<glyph unicode="^" horiz-adv-x="1021" d="M39 819l381 690h186l369 -688l-236 -147l-227 432l-236 -434z" />
<glyph unicode="_" horiz-adv-x="1298" d="M0 -45h1298v-211h-1298v211z" />
<glyph unicode="`" horiz-adv-x="610" d="M47 1264l119 274l395 -174l-110 -268z" />
<glyph unicode="a" horiz-adv-x="1193" d="M57 512q0 142 71.5 264t193 193t262.5 71q132 0 243 -57v51h287v-1034h-287v39q-102 -55 -243 -55t-262.5 71t-193 193t-71.5 264zM389 512q0 -86 56.5 -142.5t138.5 -56.5q86 0 141 56t55 143t-55 143t-141 56q-82 0 -138.5 -56.5t-56.5 -142.5z" />
<glyph unicode="b" horiz-adv-x="1165" d="M82 0v1436h334v-435q86 37 198 37q141 0 262.5 -71t193 -193t71.5 -264q0 -143 -71.5 -264.5t-193 -191.5t-262.5 -70q-125 0 -245 55v-39h-287zM418 510q0 -86 55 -141.5t141 -55.5q83 0 139 56t56 141t-56 141t-139 56q-86 0 -141 -55.5t-55 -141.5z" />
<glyph unicode="c" horiz-adv-x="1095" d="M57 514q0 143 70.5 264t193 191.5t267.5 70.5q129 0 246.5 -66t187.5 -165l-268 -174q-26 24 -42 36t-49.5 24t-72.5 12q-80 0 -136.5 -56.5t-56.5 -136.5q0 -82 56.5 -139.5t136.5 -57.5q54 0 95 26.5t81 82.5l291 -150q-69 -133 -193.5 -212.5t-275.5 -79.5 q-145 0 -267.5 70.5t-193 192.5t-70.5 267z" />
<glyph unicode="d" horiz-adv-x="1165" d="M25 510q0 107 42 204.5t113 168t168.5 112t204.5 41.5q111 0 197 -37v437h333v-1436h-286v39q-113 -55 -244 -55q-107 0 -204.5 41.5t-168.5 112t-113 168t-42 204.5zM356 510q0 -86 56 -141.5t141 -55.5t140 55.5t55 141.5t-55 141.5t-140 55.5t-141 -55.5t-56 -141.5z " />
<glyph unicode="e" horiz-adv-x="1110" d="M57 516q0 219 150.5 371.5t370.5 152.5q202 0 335.5 -142t133.5 -368v-133h-639q0 -39 61.5 -85t148.5 -46q76 0 142 15q47 11 133 49l104 -234q-85 -55 -179 -83.5t-230 -28.5q-150 0 -272.5 71t-190.5 193t-68 268zM403 627h336q0 45 -46.5 83t-123.5 38 q-67 0 -115 -40t-51 -81z" />
<glyph unicode="f" horiz-adv-x="776" d="M45 717v307h115v84q0 156 77 241t222 85h215v-299h-109q-71 0 -71 -66v-45h237v-307h-237v-717h-334v717h-115z" />
<glyph unicode="g" horiz-adv-x="1187" d="M57 514q0 107 42.5 204.5t113.5 168t168.5 112t204.5 41.5q130 0 243 -55v39h287v-883q0 -167 -69 -303.5t-198.5 -217.5t-295.5 -81q-103 0 -198.5 37.5t-168.5 104.5l211 231q86 -66 164 -66q70 0 129 48t76 122q-82 -30 -180 -30q-142 0 -264 71t-193.5 193t-71.5 264 zM389 514q0 -86 56 -141.5t141 -55.5t139.5 55.5t54.5 141.5t-54.5 141.5t-139.5 55.5t-141 -55.5t-56 -141.5z" />
<glyph unicode="h" horiz-adv-x="1038" d="M82 0v1440h334v-418q45 16 125 16q220 0 340 -118.5t120 -337.5v-582h-333v578q0 54 -36.5 90.5t-90.5 36.5t-90.5 -36.5t-36.5 -90.5v-578h-332z" />
<glyph unicode="i" horiz-adv-x="485" d="M76 0v1024h334v-1024h-334zM76 1231q0 68 49.5 118t118.5 50q68 0 118 -50.5t50 -117.5q0 -69 -50 -118.5t-118 -49.5q-69 0 -118.5 49.5t-49.5 118.5z" />
<glyph unicode="j" horiz-adv-x="610" d="M66 -135q7 3 44.5 6.5t43.5 5.5q49 18 49 62v1085h334v-1182q0 -68 -20 -122.5t-51.5 -87.5t-73.5 -54.5t-82 -30t-81 -8.5h-161zM188 1231q0 68 49.5 118t118.5 50q68 0 118 -50.5t50 -117.5q0 -69 -50 -118.5t-118 -49.5q-69 0 -118.5 49.5t-49.5 118.5z" />
<glyph unicode="k" horiz-adv-x="978" d="M82 0v1434h334v-711l188 301h375l-322 -508q21 -33 156 -249.5t170 -266.5h-377l-190 305v-305h-334z" />
<glyph unicode="l" horiz-adv-x="491" d="M80 0v1434h334v-1434h-334z" />
<glyph unicode="m" horiz-adv-x="1669" d="M82 0v1022h276v-23q75 41 185 41q177 0 293 -84q116 84 294 84q220 0 340.5 -118.5t120.5 -337.5v-584h-334v580q0 54 -36.5 90.5t-90.5 36.5q-50 0 -85.5 -33.5t-40.5 -83.5v-590h-334v580q0 54 -36.5 90.5t-90.5 36.5q-51 0 -86.5 -33.5t-40.5 -83.5v-590h-334z" />
<glyph unicode="n" horiz-adv-x="1077" d="M82 0v1022h276v-23q75 41 185 41q220 0 340.5 -118.5t120.5 -337.5v-584h-334v580q0 54 -36.5 90.5t-90.5 36.5q-49 0 -85.5 -33.5t-41.5 -83.5v-590h-334z" />
<glyph unicode="o" horiz-adv-x="1169" d="M57 514q0 143 70 264t192 191.5t267 70.5q143 0 264 -70.5t191.5 -191.5t70.5 -264q0 -145 -70.5 -267t-191.5 -192.5t-264 -70.5q-145 0 -267 70.5t-192 192.5t-70 267zM393 514q0 -82 55.5 -138.5t137.5 -56.5q80 0 136 56.5t56 138.5q0 80 -56.5 136.5t-135.5 56.5 q-81 0 -137 -56.5t-56 -136.5z" />
<glyph unicode="p" horiz-adv-x="1165" d="M82 -420v1444h287v-41q120 55 245 55q141 0 262.5 -70t193 -191.5t71.5 -264.5t-71.5 -264.5t-193 -191.5t-262.5 -70q-112 0 -198 37v-443h-334zM418 512q0 -86 55 -141.5t141 -55.5q83 0 139 56t56 141t-56 141t-139 56q-86 0 -141 -55.5t-55 -141.5z" />
<glyph unicode="q" horiz-adv-x="1165" d="M51 512q0 143 71.5 264.5t193 191.5t262.5 70q125 0 245 -55v41h287v-1444h-334v443q-86 -37 -198 -37q-141 0 -262.5 70t-193 191.5t-71.5 264.5zM383 512q0 -85 56 -141t139 -56q86 0 141 55.5t55 141.5t-55 141.5t-141 55.5q-83 0 -139 -56t-56 -141z" />
<glyph unicode="r" horiz-adv-x="733" d="M82 0v1024h276v-25q75 41 185 41h16q49 0 154 -14v-319h-166q-59 0 -95 -33.5t-36 -83.5v-590h-334z" />
<glyph unicode="s" horiz-adv-x="763" d="M43 266l229 82q16 -29 42.5 -51.5t54.5 -22.5q45 0 45 39q0 9 -7.5 18t-21.5 18t-27 15.5t-29.5 14.5t-23.5 12l-10 6q-82 49 -110 73q-112 97 -113 247q0 148 86.5 235.5t234.5 87.5q114 0 205.5 -71t103.5 -164l-253 -88q0 1 -3 4.5t-5 6t-6 7t-7.5 7.5t-8.5 6 t-10.5 4.5t-11.5 1.5q-37 0 -37 -37q0 -19 43 -47t62 -33l8 -4q48 -27 79 -49t69.5 -62t58.5 -95.5t20 -125.5q0 -132 -91 -224.5t-220 -92.5q-195 0 -291 141q-40 63 -55 141z" />
<glyph unicode="t" horiz-adv-x="831" d="M25 717v307h225v274h334v-274h221v-307h-221v-717h-334v717h-225z" />
<glyph unicode="u" horiz-adv-x="1075" d="M74 440v584h334v-580q0 -54 36.5 -90.5t90.5 -36.5q51 0 89 33.5t38 81.5v592h333v-1024h-278v23q-72 -39 -182 -39q-220 0 -340.5 118.5t-120.5 337.5z" />
<glyph unicode="v" horiz-adv-x="989" d="M6 1024h361l125 -428l129 428h358l-358 -1024h-256z" />
<glyph unicode="w" horiz-adv-x="1447" d="M12 1024h355l106 -459l125 461h252l131 -448l102 446h353l-279 -1024h-280l-154 459l-154 -459h-276z" />
<glyph unicode="x" horiz-adv-x="1073" d="M8 0l326 514l-318 510h396l120 -229l121 229h396l-320 -512l332 -512h-410l-119 229l-116 -229h-408z" />
<glyph unicode="y" horiz-adv-x="1001" d="M16 1024h363l123 -428l123 426h358l-485 -1419l-348 8q178 512 178 528z" />
<glyph unicode="z" horiz-adv-x="884" d="M76 0v262l364 430l-364 2v330h739v-242l-319 -450h319v-332h-739z" />
<glyph unicode="{" horiz-adv-x="727" d="M49 551v262h92q152 0 152 215v240q0 142 22 213.5t95 117.5q86 48 266 48v-240q-67 -7 -88 -42.5t-21 -127.5v-244q0 -127 -30 -198.5t-113 -112.5q83 -41 113 -112.5t30 -198.5v-242q0 -93 20 -129.5t83 -40.5v-240q-174 0 -260 48q-73 46 -95 117.5t-22 211.5v242 q0 204 -152 213h-92z" />
<glyph unicode="|" horiz-adv-x="452" d="M82 0v1536h293v-1536h-293z" />
<glyph unicode="}" horiz-adv-x="727" d="M49 1407v240q180 0 266 -48q73 -46 95 -117.5t22 -213.5v-240q0 -215 152 -215h92v-262h-92q-152 -9 -152 -213v-242q0 -140 -22 -211.5t-95 -117.5q-86 -48 -260 -48v240q63 4 83 40.5t20 129.5v242q0 127 30 198.5t113 112.5q-83 41 -113 112.5t-30 198.5v244 q0 92 -21 128t-88 42z" />
<glyph unicode="~" horiz-adv-x="1198" d="M70 451q0 109 88.5 193.5t236.5 84.5q37 0 84.5 -13t73 -24t80.5 -35l14 -6q108 -51 152 -51q45 0 100 59l57 70l172 -145q0 -51 -22 -100t-62.5 -89t-103.5 -64t-139 -24q-92 0 -252 78q-108 51 -150 51q-41 0 -94 -53l-51 -64z" />
<glyph unicode="&#xa1;" horiz-adv-x="491" d="M78 1370q0 68 50 118t118 50q69 0 118.5 -50t49.5 -118q0 -69 -49.5 -118.5t-118.5 -49.5q-68 0 -118 49.5t-50 118.5zM80 -8v1122h334v-1122h-334z" />
<glyph unicode="&#xa2;" horiz-adv-x="1091" d="M41 514q0 170 99.5 306.5t258.5 191.5v192h293v-180q97 -24 179.5 -82t134.5 -135l-267 -160l-47 47v-360q39 29 74 82l274 -137q-55 -104 -146 -177t-202 -102v-164h-293v176q-160 55 -259 190.5t-99 311.5zM352 514q0 -80 47 -139v278q-47 -59 -47 -139z" />
<glyph unicode="&#xa3;" horiz-adv-x="1212" d="M61 627v305h95q-1 3 -5 13t-6.5 17.5t-5 23.5t-2.5 36q0 211 139.5 351t350.5 140q225 0 374 -143l-260 -235q-30 30 -110 30q-62 0 -104 -38.5t-42 -90.5q0 -45 29 -104h277v-305h-150q55 -105 55 -191q0 -62 -8 -86h19q126 0 129 109v10h325q0 -203 -144.5 -336 t-359.5 -133h-567v348h207q25 0 37 21t12 53q0 23 -32 84.5t-72 120.5h-181z" />
<glyph unicode="&#xa4;" horiz-adv-x="1368" d="M70 1128l168 168l194 -192q141 74 260 74q68 0 123.5 -18t120.5 -56q35 33 102 100.5t90 89.5l168 -166l-190 -190q76 -123 76 -256q0 -121 -72 -248l190 -190l-167 -168l-187 188q-119 -76 -264 -76q-125 0 -254 76l-190 -188l-166 168l188 190q-74 117 -74 250 q0 116 76 250zM457 684q0 -93 68 -161t161 -68q92 0 159.5 67.5t67.5 161.5t-67.5 162.5t-159.5 68.5q-94 0 -161.5 -68.5t-67.5 -162.5z" />
<glyph unicode="&#xa5;" horiz-adv-x="1126" d="M-33 1536h381l215 -537l211 537h387l-231 -545h104v-286h-229l-33 -76h260v-293h-291v-336h-354v336h-295v293h262l-32 76h-230v286h103z" />
<glyph unicode="&#xa6;" horiz-adv-x="448" d="M80 -25v676h293v-676h-293zM80 866v672h293v-672h-293z" />
<glyph unicode="&#xa7;" horiz-adv-x="1204" d="M49 -45l250 166q35 -48 107 -96t151 -48q37 0 68.5 18.5t31.5 51.5q0 16 -6.5 30t-23 27t-29.5 22.5t-43 22t-46 19t-54 20.5q-13 3 -37.5 13.5t-32.5 13.5q-54 19 -97.5 40.5t-87.5 54.5t-74 72t-48.5 93.5t-18.5 118.5q0 108 36 183.5t116 146.5q-38 46 -55 88.5 t-17 105.5q0 122 62.5 213t164 136.5t226.5 45.5q61 0 129.5 -12t140 -36.5t130 -70t85.5 -104.5l-295 -194l-18 18q-38 36 -69 55t-70 19q-42 0 -72.5 -27t-30.5 -67q0 -32 35.5 -53t114.5 -50q62 -21 143 -55q58 -24 100.5 -45.5t89 -54.5t76 -68.5t49 -85t19.5 -107.5 q0 -110 -48 -191.5t-138 -154.5q65 -102 65 -190q0 -120 -62 -209.5t-159.5 -133.5t-214.5 -44h-29q-232 0 -395 151q-72 69 -119 152zM420 627q0 -33 18.5 -54t55.5 -41l223 -92q31 20 45 41.5t14 55.5q0 64 -114 106l-191 74q-51 -44 -51 -90z" />
<glyph unicode="&#xa8;" horiz-adv-x="864" d="M72 1333q0 69 48.5 116.5t117.5 47.5t117 -47.5t48 -116.5t-48 -117.5t-117 -48.5t-117.5 48.5t-48.5 117.5zM461 1333q0 68 49 116t117 48q69 0 117.5 -47.5t48.5 -116.5t-48.5 -117.5t-117.5 -48.5q-68 0 -117 48.5t-49 117.5z" />
<glyph unicode="&#xa9;" horiz-adv-x="1564" d="M57 721q0 147 58 281t156 231.5t231.5 155t279.5 57.5q200 0 367 -97.5t262.5 -264t95.5 -363.5t-95.5 -363.5t-262.5 -264t-367 -97.5q-146 0 -279.5 57.5t-231.5 155t-156 231.5t-58 281zM238 721q0 -148 72 -273.5t197 -198.5t275 -73q149 0 277 73t203 198.5 t75 273.5q0 149 -75 275t-203 199t-277 73q-150 0 -275 -73t-197 -199t-72 -275zM399 721q0 164 115 278.5t279 114.5q147 0 254 -82l-142 -172q-36 31 -112 31q-69 0 -119.5 -49.5t-50.5 -116.5q0 -71 50.5 -121.5t119.5 -50.5q65 0 112 31l142 -170q-106 -84 -254 -84 q-164 0 -279 114t-115 277z" />
<glyph unicode="&#xaa;" horiz-adv-x="872" d="M57 1085q0 152 106.5 258.5t258.5 106.5q87 0 160 -37v27h211v-723l-209 39q-70 -37 -162 -37q-152 0 -258.5 107t-106.5 259zM305 1085q0 -53 33.5 -86.5t83.5 -33.5q54 0 87.5 33t33.5 87q0 51 -33.5 85t-87.5 34q-50 0 -83.5 -34t-33.5 -85z" />
<glyph unicode="&#xab;" horiz-adv-x="1060" d="M23 551l280 450l229 -180l-180 -268q171 -251 185 -272l-248 -170zM494 551l280 450l230 -180l-181 -268q171 -251 185 -272l-248 -170z" />
<glyph unicode="&#xac;" horiz-adv-x="1165" d="M27 578v292h1056v-720h-292v428h-764z" />
<glyph unicode="&#xad;" horiz-adv-x="829" d="M76 436v293h678v-293h-678z" />
<glyph unicode="&#xae;" horiz-adv-x="1640" d="M57 750q0 205 103 381t278.5 279t380.5 103q210 0 386 -103t277 -278.5t101 -381.5q0 -154 -59.5 -295t-161.5 -244t-244 -164t-299 -61q-153 0 -294 61t-243.5 163.5t-163.5 244t-61 295.5zM242 750q0 -119 45.5 -226.5t123 -185t184 -123t224.5 -45.5q157 0 293 77 t216.5 211t80.5 292q0 156 -80.5 289.5t-216.5 210.5t-293 77q-118 0 -224.5 -45.5t-184 -123t-123 -184t-45.5 -224.5zM547 301v922h291q133 0 208.5 -82t75.5 -209q0 -104 -46 -176t-126 -97l224 -358h-265l-143 242v-242h-219zM766 842h65q33 0 50.5 26t17.5 64 q0 35 -17.5 59.5t-50.5 24.5h-65v-174z" />
<glyph unicode="&#xaf;" horiz-adv-x="823" d="M76 1167v293h676v-293h-676z" />
<glyph unicode="&#xb0;" horiz-adv-x="802" d="M57 1106q0 141 101 241.5t243 100.5t243 -100.5t101 -241.5q0 -142 -100.5 -243t-243.5 -101t-243.5 101t-100.5 243zM262 1106q0 -57 41 -98t98 -41t98.5 41t41.5 98t-41.5 97t-98.5 40t-98 -40t-41 -97z" />
<glyph unicode="&#xb1;" horiz-adv-x="1183" d="M51 12v291h1082v-291h-1082zM51 524v293h395v215h291v-215h396v-293h-396v-186h-291v186h-395z" />
<glyph unicode="&#xb2;" horiz-adv-x="778" d="M94 1327q31 95 113.5 156t185.5 61q131 0 223.5 -92.5t92.5 -222.5q0 -127 -103 -230q-64 -64 -184 -161h291v-238h-611l2 260q69 76 269 250l65 59q31 28 31 60t-22 54t-54 22q-25 0 -44 -15.5t-27 -40.5z" />
<glyph unicode="&#xb3;" horiz-adv-x="724" d="M51 866l225 31q6 -30 28 -48t52 -18q32 0 55 26t23 63q0 42 -12 68.5t-47 37.5q-10 10 -66 14q-16 2 -55 2v164q22 4 31 8q30 10 61 29q21 15 21 41q0 10 -7.5 17.5t-17.5 7.5q-5 0 -31 -21l-186 131q36 57 92.5 91t122.5 34q104 0 178 -74.5t74 -177.5q0 -77 -39 -133 q56 -44 88.5 -109t32.5 -141q0 -130 -94.5 -224.5t-223.5 -94.5q-78 0 -145 36t-109 97q-51 74 -51 143z" />
<glyph unicode="&#xb4;" horiz-adv-x="610" d="M47 1364l395 174l119 -274l-403 -168z" />
<glyph unicode="&#xb6;" horiz-adv-x="1222" d="M33 1059q0 89 25.5 155.5t69 108t109.5 67t137.5 35t162.5 9.5h604v-1837h-291v1544h-102v-1544h-293v1099q-207 7 -314.5 101.5t-107.5 261.5z" />
<glyph unicode="&#xb7;" horiz-adv-x="411" d="M57 752q0 60 44 106.5t110 46.5q59 0 101 -47t42 -106q0 -60 -41.5 -103t-101.5 -43q-68 0 -111 42.5t-43 103.5z" />
<glyph unicode="&#xb8;" horiz-adv-x="565" d="M68 -307l112 104q17 -7 53 -10q17 0 17 16q0 10 -10 15t-32.5 8t-33.5 6l-53 68l65 118h201l-22 -34q65 -12 104 -58.5t39 -122.5q0 -69 -42 -120.5t-97 -74t-109 -22.5q-69 0 -139 54q-31 22 -53 53z" />
<glyph unicode="&#xb9;" horiz-adv-x="485" d="M29 1307l2 229h375v-922h-240v693h-137z" />
<glyph unicode="&#xba;" horiz-adv-x="845" d="M57 1087q0 151 107 257t260 106q152 0 258 -106t106 -257q0 -154 -106 -261t-258 -107q-154 0 -260.5 107t-106.5 261zM307 1087q0 -51 33.5 -84.5t83.5 -33.5t83.5 33.5t33.5 84.5q0 48 -34 81.5t-83 33.5t-83 -33.5t-34 -81.5z" />
<glyph unicode="&#xbb;" horiz-adv-x="1060" d="M23 281q35 53 184 272l-180 268l229 180l281 -450l-267 -440zM494 281q35 53 184 272l-180 268l229 180l281 -450l-267 -440z" />
<glyph unicode="&#xbc;" horiz-adv-x="1746" d="M90 1319l2 215h371v-999h-225v784h-148zM508 57l424 1471l184 -58q-25 -88 -424 -1474zM967 174v213l190 303q40 63 90.5 142.5t77 121.5t29.5 45h213v-614h88v-209h-88v-176h-226v174h-374zM1221 387h120v213z" />
<glyph unicode="&#xbd;" horiz-adv-x="1818" d="M90 1319l2 215h371v-999h-225v784h-148zM508 57l424 1471l184 -58q-25 -88 -424 -1474zM1077 786q31 99 115.5 160.5t189.5 61.5q135 0 229.5 -94.5t94.5 -229.5q0 -132 -104 -233q-184 -184 -236 -228h346v-223h-627l-2 254q2 2 43.5 44.5t86 88t98.5 99t86 81.5l47 41 q37 37 37 76q0 41 -29 69.5t-70 28.5q-32 0 -56.5 -18.5t-35.5 -48.5z" />
<glyph unicode="&#xbe;" horiz-adv-x="1828" d="M35 797l211 26q11 -37 38.5 -60.5t63.5 -23.5q41 0 69.5 35.5t28.5 83.5q0 42 -27.5 79t-64.5 48q-34 8 -69 12q-10 2 -31 2v162q18 7 31 15q8 4 17 9.5t21.5 13.5t20.5 13q31 22 31 58q0 17 -12 30t-29 13q-16 0 -47 -31l-174 125q36 58 93.5 92.5t125.5 34.5 q105 0 179.5 -73.5t74.5 -182.5q0 -93 -47 -158q61 -45 98 -119t37 -155q0 -135 -96.5 -233.5t-231.5 -98.5q-158 0 -258 135q-53 67 -53 148zM600 57l424 1471l184 -58q-25 -88 -424 -1474zM1059 174v213l190 303q40 63 90.5 142.5t77 121.5t29.5 45h213v-614h88v-209h-88 v-176h-225v174h-375zM1313 387h121v213z" />
<glyph unicode="&#xbf;" horiz-adv-x="866" d="M43 367q0 62 17 114t43.5 86.5t59.5 63.5t65.5 51t59 42t43.5 43.5t17 49.5q0 33 -39 139q-9 26 -37 88l320 115q36 -36 69 -128t33 -171q0 -67 -31 -124t-75 -96.5t-87.5 -76t-74.5 -80t-31 -92.5q0 -51 43 -51q11 0 21 7t26 23.5t25 24.5l321 -108q0 -70 -53.5 -139 t-139.5 -112.5t-175 -43.5q-182 0 -301 101t-119 274zM229 1350q0 68 50 118t120 50q66 0 116 -50.5t50 -117.5q0 -68 -49.5 -118t-116.5 -50q-71 0 -120.5 49t-49.5 119z" />
<glyph unicode="&#xc0;" horiz-adv-x="1572" d="M41 0l618 1538h254l613 -1538h-373l-119 270h-495l-119 -270h-379zM528 1704l119 274l395 -174l-110 -268zM670 606h231l-115 289z" />
<glyph unicode="&#xc1;" horiz-adv-x="1572" d="M41 0l618 1538h254l613 -1538h-373l-119 270h-495l-119 -270h-379zM528 1804l396 174l118 -274l-403 -168zM670 606h231l-115 289z" />
<glyph unicode="&#xc2;" horiz-adv-x="1572" d="M41 0l618 1538h254l613 -1538h-373l-119 270h-495l-119 -270h-379zM461 1817l323 137l326 -135l-117 -271q-204 89 -207 90l-204 -88q-1 0 -3.5 -1t-3.5 -1zM670 606h231l-115 289z" />
<glyph unicode="&#xc3;" horiz-adv-x="1572" d="M41 0l618 1538h254l613 -1538h-373l-119 270h-495l-119 -270h-379zM434 1710q0 94 61.5 149.5t155.5 55.5q57 0 142 -29q56 -18 71 -18t30.5 4.5t30 13t24 15t20.5 15t12 9.5l158 -145q0 -85 -69.5 -145t-154.5 -60q-39 0 -122 27q-12 3 -34 9.5t-35.5 9.5t-23.5 3 q-22 0 -39.5 -11t-29 -25t-13.5 -15zM670 606h231l-115 289z" />
<glyph unicode="&#xc4;" horiz-adv-x="1572" d="M41 0l618 1538h254l613 -1538h-373l-119 270h-495l-119 -270h-379zM426 1743q0 69 48.5 116.5t117.5 47.5t117.5 -47.5t48.5 -116.5t-48.5 -117.5t-117.5 -48.5t-117.5 48.5t-48.5 117.5zM670 606h231l-115 289zM815 1743q0 68 49 116t117 48q69 0 117.5 -47.5 t48.5 -116.5t-48.5 -117.5t-117.5 -48.5q-68 0 -117 48.5t-49 117.5z" />
<glyph unicode="&#xc5;" horiz-adv-x="1572" d="M41 0l618 1538h13q-51 30 -81 81.5t-30 113.5q0 94 65.5 159.5t159.5 65.5t160 -65.5t66 -159.5q0 -62 -30.5 -113.5t-82.5 -81.5h14l613 -1538h-373l-119 270h-495l-119 -270h-379zM670 606h231l-115 289zM705 1733q0 -35 23 -58.5t58 -23.5t59.5 23.5t24.5 58.5 t-24.5 59.5t-59.5 24.5t-58 -24t-23 -60z" />
<glyph unicode="&#xc6;" horiz-adv-x="1849" d="M41 0l618 1536h1127v-354h-526v-232h526v-354h-526v-242h526v-354h-881v270h-366l-119 -270h-379zM670 606h231v576z" />
<glyph unicode="&#xc7;" horiz-adv-x="1368" d="M55 770q0 159 62 304t166.5 249.5t249 166.5t303.5 62q283 0 481 -163q4 -4 6 -5l-221 -282q-118 96 -264 96q-185 -1 -306.5 -125t-121.5 -303q0 -189 121 -309.5t307 -120.5q67 0 137.5 26t126.5 68l223 -280q-13 -13 -32.5 -28.5t-65 -42.5t-97.5 -47.5t-131 -36 t-163 -15.5q-24 0 -74 4l-2 -4q65 -12 104 -58.5t39 -122.5q0 -69 -42 -120.5t-97 -74t-109 -22.5q-69 0 -139 54q-31 22 -53 53l112 104q16 -7 54 -10q16 0 16 16q0 10 -10 15t-32.5 8t-33.5 6l-53 68l66 118h22q-241 74 -395 282t-154 470z" />
<glyph unicode="&#xc8;" horiz-adv-x="1044" d="M86 0v1536h881v-354h-527v-232h527v-354h-527v-242h527v-354h-881zM264 1710l119 275l395 -175l-110 -268z" />
<glyph unicode="&#xc9;" horiz-adv-x="1044" d="M86 0v1536h881v-354h-527v-232h527v-354h-527v-242h527v-354h-881zM264 1806l395 174l119 -274l-403 -168z" />
<glyph unicode="&#xca;" horiz-adv-x="1044" d="M86 0v1536h881v-354h-527v-232h527v-354h-527v-242h527v-354h-881zM197 1817l323 137l326 -135l-117 -271q-204 89 -207 90l-205 -88q-1 0 -3 -1t-3 -1z" />
<glyph unicode="&#xcb;" horiz-adv-x="1044" d="M86 0v1536h881v-354h-527v-232h527v-354h-527v-242h527v-354h-881zM162 1743q0 69 48.5 116.5t117.5 47.5t117.5 -47.5t48.5 -116.5t-48.5 -117.5t-117.5 -48.5t-117.5 48.5t-48.5 117.5zM551 1743q0 68 49 116t117 48q69 0 117.5 -47.5t48.5 -116.5t-48.5 -117.5 t-117.5 -48.5q-68 0 -117 48.5t-49 117.5z" />
<glyph unicode="&#xcc;" horiz-adv-x="520" d="M6 1706l119 274l395 -174l-110 -268zM84 0v1536h356v-1536h-356z" />
<glyph unicode="&#xcd;" horiz-adv-x="520" d="M6 1808l395 174l119 -274l-403 -168zM84 0v1536h356v-1536h-356z" />
<glyph unicode="&#xce;" horiz-adv-x="520" d="M-61 1817l323 137l326 -135l-117 -271q-204 89 -207 90l-205 -88q-1 0 -3 -1t-3 -1zM84 0v1536h356v-1536h-356z" />
<glyph unicode="&#xcf;" horiz-adv-x="520" d="M-98 1743q0 69 48.5 116.5t117.5 47.5t117 -47.5t48 -116.5t-48 -117.5t-117 -48.5t-117.5 48.5t-48.5 117.5zM84 0v1536h356v-1536h-356zM291 1743q0 68 49 116t117 48q69 0 117.5 -47.5t48.5 -116.5t-48.5 -117.5t-117.5 -48.5q-68 0 -117 48.5t-49 117.5z" />
<glyph unicode="&#xd0;" horiz-adv-x="1591" d="M51 584v299h201v653h514q157 0 299.5 -61.5t245 -165t163 -245t60.5 -294.5q0 -155 -60.5 -297t-163 -246t-245 -165.5t-299.5 -61.5h-516v584h-199zM604 354h162q180 0 297 117t117 299q0 181 -112 296.5t-292 115.5h-172v-299h195v-299h-195v-230z" />
<glyph unicode="&#xd1;" horiz-adv-x="1400" d="M84 0v1536h348l531 -879v879h354v-1536h-344l-535 872v-872h-354zM348 1710q0 94 61.5 149.5t155.5 55.5q57 0 142 -29q56 -18 71 -18t30.5 4.5t30 13t24 15t20.5 15t12 9.5l158 -145q0 -85 -69.5 -145t-154.5 -60q-39 0 -122 27q-12 3 -34 9.5t-35.5 9.5t-23.5 3 q-22 0 -39.5 -11t-29 -25t-13.5 -15z" />
<glyph unicode="&#xd2;" horiz-adv-x="1679" d="M59 766q0 159 62 304.5t166 251t249 168t304 62.5q68 0 133 -12l-391 164l118 274l396 -174l-111 -266q179 -35 324 -145t228 -275t83 -352q0 -159 -61.5 -305t-166 -252t-249 -169t-303.5 -63q-212 0 -392 106.5t-284.5 288t-104.5 394.5zM414 766q0 -178 125.5 -304 t300.5 -126q178 0 302 125.5t124 304.5q0 116 -56.5 215.5t-154.5 158t-215 58.5q-175 0 -300.5 -127.5t-125.5 -304.5z" />
<glyph unicode="&#xd3;" horiz-adv-x="1679" d="M59 766q0 159 62 304.5t166 251t249 168t304 62.5t303.5 -62.5t249 -168t166 -251t61.5 -304.5t-61.5 -305t-166 -252t-249 -169t-303.5 -63q-212 0 -392 106.5t-284.5 288t-104.5 394.5zM414 766q0 -178 125.5 -304t300.5 -126q178 0 302 125.5t124 304.5 q0 116 -56.5 215.5t-154.5 158t-215 58.5q-175 0 -300.5 -127.5t-125.5 -304.5zM582 1810l395 175l119 -275l-404 -168z" />
<glyph unicode="&#xd4;" horiz-adv-x="1679" d="M59 766q0 159 62 304.5t166 251t249 168t304 62.5t303.5 -62.5t249 -168t166 -251t61.5 -304.5t-61.5 -305t-166 -252t-249 -169t-303.5 -63q-212 0 -392 106.5t-284.5 288t-104.5 394.5zM414 766q0 -178 125.5 -304t300.5 -126q178 0 302 125.5t124 304.5 q0 116 -56.5 215.5t-154.5 158t-215 58.5q-175 0 -300.5 -127.5t-125.5 -304.5zM514 1817l324 137l325 -135l-116 -271q-204 89 -207 90l-205 -88q-1 0 -3 -1t-3 -1z" />
<glyph unicode="&#xd5;" horiz-adv-x="1679" d="M59 766q0 159 62 304.5t166 251t249 168t304 62.5t303.5 -62.5t249 -168t166 -251t61.5 -304.5t-61.5 -305t-166 -252t-249 -169t-303.5 -63q-212 0 -392 106.5t-284.5 288t-104.5 394.5zM414 766q0 -178 125.5 -304t300.5 -126q178 0 302 125.5t124 304.5 q0 116 -56.5 215.5t-154.5 158t-215 58.5q-175 0 -300.5 -127.5t-125.5 -304.5zM487 1710q0 94 62 149.5t156 55.5q56 0 141 -29q56 -18 72 -18q15 0 30.5 4.5t29.5 13t24 15t20.5 15t11.5 9.5l158 -145q0 -85 -69 -145t-154 -60q-40 0 -123 27q-12 3 -34 9.5t-35 9.5t-23 3 q-22 0 -39.5 -11t-29 -25t-13.5 -15z" />
<glyph unicode="&#xd6;" horiz-adv-x="1679" d="M59 766q0 159 62 304.5t166 251t249 168t304 62.5t303.5 -62.5t249 -168t166 -251t61.5 -304.5t-61.5 -305t-166 -252t-249 -169t-303.5 -63q-212 0 -392 106.5t-284.5 288t-104.5 394.5zM414 766q0 -178 125.5 -304t300.5 -126q178 0 302 125.5t124 304.5 q0 116 -56.5 215.5t-154.5 158t-215 58.5q-175 0 -300.5 -127.5t-125.5 -304.5zM479 1743q0 69 48.5 116.5t117.5 47.5t117.5 -47.5t48.5 -116.5t-48.5 -117.5t-117.5 -48.5t-117.5 48.5t-48.5 117.5zM868 1743q0 68 49 116t117 48q69 0 117.5 -47.5t48.5 -116.5 t-48.5 -117.5t-117.5 -48.5q-68 0 -117 48.5t-49 117.5z" />
<glyph unicode="&#xd7;" horiz-adv-x="1079" d="M68 260l260 260l-252 252l205 205l251 -252l263 262l206 -209l-262 -260l258 -258l-204 -205l-256 254l-258 -258z" />
<glyph unicode="&#xd8;" horiz-adv-x="1662" d="M51 766q0 159 61.5 303.5t166 249t249 166t303.5 61.5q57 0 103 -6l29 86h211q0 -4 -16.5 -64t-16.5 -69l-2 -8q211 -91 342 -286t131 -433q0 -159 -62 -304t-166.5 -249.5t-249 -166.5t-303.5 -62q-64 0 -116 8h-8l-31 -101l-215 3l45 159q-205 95 -330 287t-125 426z M406 766q0 -115 53 -208.5t147 -151.5q32 116 107.5 374.5t117.5 411.5q-175 0 -300 -124.5t-125 -301.5zM807 340h24q178 0 302 124.5t124 301.5q0 116 -61.5 216t-161.5 157z" />
<glyph unicode="&#xd9;" horiz-adv-x="1187" d="M76 444v1092h354v-1053q0 -62 54.5 -103.5t115.5 -41.5q62 0 108 39.5t50 99.5v1059h354v-1092q0 -98 -43 -185t-114 -146.5t-164 -94t-191 -34.5q-134 0 -253.5 57.5t-195 164.5t-75.5 238zM336 1706l119 274l395 -174l-111 -268z" />
<glyph unicode="&#xda;" horiz-adv-x="1187" d="M76 444v1092h354v-1053q0 -62 54.5 -103.5t115.5 -41.5q62 0 108 39.5t50 99.5v1059h354v-1092q0 -98 -43 -185t-114 -146.5t-164 -94t-191 -34.5q-134 0 -253.5 57.5t-195 164.5t-75.5 238zM336 1806l395 174l119 -274l-404 -168z" />
<glyph unicode="&#xdb;" horiz-adv-x="1187" d="M76 444v1092h354v-1053q0 -62 54.5 -103.5t115.5 -41.5q62 0 108 39.5t50 99.5v1059h354v-1092q0 -98 -43 -185t-114 -146.5t-164 -94t-191 -34.5q-134 0 -253.5 57.5t-195 164.5t-75.5 238zM268 1817l324 137l326 -135l-117 -271q-204 89 -207 90l-205 -88q-1 0 -3 -1 t-3 -1z" />
<glyph unicode="&#xdc;" horiz-adv-x="1187" d="M76 444v1092h354v-1053q0 -62 54.5 -103.5t115.5 -41.5q62 0 108 39.5t50 99.5v1059h354v-1092q0 -98 -43 -185t-114 -146.5t-164 -94t-191 -34.5q-134 0 -253.5 57.5t-195 164.5t-75.5 238zM233 1743q0 69 48.5 116.5t117.5 47.5t117.5 -47.5t48.5 -116.5t-48.5 -117.5 t-117.5 -48.5t-117.5 48.5t-48.5 117.5zM623 1743q0 69 48.5 116.5t116.5 47.5q69 0 117.5 -47.5t48.5 -116.5t-48.5 -117.5t-117.5 -48.5q-68 0 -116.5 48.5t-48.5 117.5z" />
<glyph unicode="&#xdd;" horiz-adv-x="1255" d="M20 1536h396l213 -537l213 537h391l-426 -981v-555h-354v555zM371 1804l395 174l119 -274l-404 -168z" />
<glyph unicode="&#xde;" horiz-adv-x="1044" d="M82 0v1536h354v-274q119 0 125 2q206 0 336.5 -136t130.5 -340q0 -133 -58.5 -243.5t-164.5 -175t-238 -64.5h-131v-305h-354zM436 659h131q55 0 81 41.5t26 87.5q0 43 -26 82t-81 39h-131v-250z" />
<glyph unicode="&#xdf;" horiz-adv-x="1107" d="M82 0v1536h467q117 0 214 -62t149.5 -160.5t52.5 -209.5q0 -135 -70 -252q73 -67 114.5 -161.5t41.5 -201.5q0 -131 -49.5 -243t-136.5 -179t-191 -67h-187v344h113q42 17 69 59.5t27 90.5q0 43 -22.5 83t-59.5 60q-5 4 -14.5 6t-28.5 5t-28 5l-56 4v277q54 0 94 41 t40 96q0 45 -27 76t-76 35h-80v-1182h-356z" />
<glyph unicode="&#xe0;" horiz-adv-x="1193" d="M57 512q0 142 71.5 264t193 193t262.5 71q132 0 243 -57v51h287v-1034h-287v39q-102 -55 -243 -55t-262.5 71t-193 193t-71.5 264zM340 1264l119 274l395 -174l-111 -268zM389 512q0 -86 56.5 -142.5t138.5 -56.5q86 0 141 56t55 143t-55 143t-141 56q-82 0 -138.5 -56.5 t-56.5 -142.5z" />
<glyph unicode="&#xe1;" horiz-adv-x="1193" d="M57 512q0 142 71.5 264t193 193t262.5 71q132 0 243 -57v51h287v-1034h-287v39q-102 -55 -243 -55t-262.5 71t-193 193t-71.5 264zM340 1364l395 174l119 -274l-403 -168zM389 512q0 -86 56.5 -142.5t138.5 -56.5q86 0 141 56t55 143t-55 143t-141 56q-82 0 -138.5 -56.5 t-56.5 -142.5z" />
<glyph unicode="&#xe2;" horiz-adv-x="1193" d="M57 512q0 142 71.5 264t193 193t262.5 71q132 0 243 -57v51h287v-1034h-287v39q-102 -55 -243 -55t-262.5 71t-193 193t-71.5 264zM272 1407l324 137l326 -135l-117 -270q-204 89 -207 90l-205 -88q-1 0 -3 -1t-3 -1zM389 512q0 -86 56.5 -142.5t138.5 -56.5q86 0 141 56 t55 143t-55 143t-141 56q-82 0 -138.5 -56.5t-56.5 -142.5z" />
<glyph unicode="&#xe3;" horiz-adv-x="1193" d="M57 512q0 142 71.5 264t193 193t262.5 71q132 0 243 -57v51h287v-1034h-287v39q-102 -55 -243 -55t-262.5 71t-193 193t-71.5 264zM244 1300q0 94 61.5 149.5t155.5 55.5q59 0 141 -28q59 -19 72 -19q15 0 30.5 5t30 13t24.5 15t20 15.5t12 9.5l157 -146q0 -85 -69 -145 t-154 -60q-40 0 -123 27q-12 3 -34 9.5t-35 9.5t-23 3q-22 0 -39.5 -11t-29 -25t-13.5 -15zM389 512q0 -86 56.5 -142.5t138.5 -56.5q86 0 141 56t55 143t-55 143t-141 56q-82 0 -138.5 -56.5t-56.5 -142.5z" />
<glyph unicode="&#xe4;" horiz-adv-x="1193" d="M57 512q0 142 71.5 264t193 193t262.5 71q132 0 243 -57v51h287v-1034h-287v39q-102 -55 -243 -55t-262.5 71t-193 193t-71.5 264zM236 1333q0 69 48 116.5t117 47.5t117.5 -47.5t48.5 -116.5t-48.5 -117.5t-117.5 -48.5t-117 48.5t-48 117.5zM389 512q0 -86 56.5 -142.5 t138.5 -56.5q86 0 141 56t55 143t-55 143t-141 56q-82 0 -138.5 -56.5t-56.5 -142.5zM625 1333q0 68 49 116t117 48q69 0 117 -47.5t48 -116.5t-48 -117.5t-117 -48.5q-68 0 -117 48.5t-49 117.5z" />
<glyph unicode="&#xe5;" horiz-adv-x="1193" d="M57 512q0 142 71.5 264t193 193t262.5 71q132 0 243 -57v51h287v-1034h-287v39q-102 -55 -243 -55t-262.5 71t-193 193t-71.5 264zM371 1323q0 94 65.5 159.5t159.5 65.5t159.5 -65.5t65.5 -159.5t-65.5 -159.5t-159.5 -65.5t-159.5 65.5t-65.5 159.5zM389 512 q0 -86 56.5 -142.5t138.5 -56.5q86 0 141 56t55 143t-55 143t-141 56q-82 0 -138.5 -56.5t-56.5 -142.5zM514 1323q0 -35 23.5 -58.5t58.5 -23.5t59.5 23.5t24.5 58.5t-24.5 59.5t-59.5 24.5t-58.5 -24.5t-23.5 -59.5z" />
<glyph unicode="&#xe6;" horiz-adv-x="1820" d="M57 512q0 142 71.5 264t193 193t262.5 71q132 0 243 -57v51h287v-30q85 36 193 36q202 0 335.5 -142t133.5 -368v-133h-639q0 -39 62 -85t149 -46q75 0 141 15q47 11 133 49l104 -234q-85 -55 -179 -83.5t-230 -28.5q-108 0 -203 36v-20h-287v39q-102 -55 -243 -55 t-262.5 71t-193 193t-71.5 264zM389 512q0 -86 56.5 -142.5t138.5 -56.5q86 0 141 56t55 143t-55 143t-141 56q-82 0 -138.5 -56.5t-56.5 -142.5zM1133 627h335q0 45 -46.5 83t-123.5 38q-67 0 -114.5 -40t-50.5 -81z" />
<glyph unicode="&#xe7;" horiz-adv-x="1095" d="M57 514q0 143 70.5 264t193 191.5t267.5 70.5q129 0 246.5 -66t187.5 -165l-268 -174q-26 24 -42 36t-49.5 24t-72.5 12q-80 0 -136.5 -56.5t-56.5 -136.5q0 -82 56.5 -139.5t136.5 -57.5q54 0 95 26.5t81 82.5l291 -150q-66 -125 -179.5 -203t-252.5 -87v-2 q65 -12 104 -58.5t39 -122.5q0 -69 -42 -120.5t-97 -74t-109 -22.5q-69 0 -139 54q-31 22 -53 53l112 104q16 -7 54 -10q16 0 16 16q0 10 -10 15t-32.5 8t-33.5 6l-53 68l57 104q-168 48 -274.5 188.5t-106.5 321.5z" />
<glyph unicode="&#xe8;" horiz-adv-x="1110" d="M57 516q0 219 150.5 371.5t370.5 152.5q202 0 335.5 -142t133.5 -368v-133h-639q0 -39 61.5 -85t148.5 -46q76 0 142 15q47 11 133 49l104 -234q-85 -55 -179 -83.5t-230 -28.5q-150 0 -272.5 71t-190.5 193t-68 268zM297 1264l119 274l395 -174l-111 -268zM403 627h336 q0 45 -46.5 83t-123.5 38q-67 0 -115 -40t-51 -81z" />
<glyph unicode="&#xe9;" horiz-adv-x="1110" d="M57 516q0 219 150.5 371.5t370.5 152.5q202 0 335.5 -142t133.5 -368v-133h-639q0 -39 61.5 -85t148.5 -46q76 0 142 15q47 11 133 49l104 -234q-85 -55 -179 -83.5t-230 -28.5q-150 0 -272.5 71t-190.5 193t-68 268zM297 1364l395 174l119 -274l-403 -168zM403 627h336 q0 45 -46.5 83t-123.5 38q-67 0 -115 -40t-51 -81z" />
<glyph unicode="&#xea;" horiz-adv-x="1110" d="M57 516q0 219 150.5 371.5t370.5 152.5q202 0 335.5 -142t133.5 -368v-133h-639q0 -39 61.5 -85t148.5 -46q76 0 142 15q47 11 133 49l104 -234q-85 -55 -179 -83.5t-230 -28.5q-150 0 -272.5 71t-190.5 193t-68 268zM229 1407l324 137l326 -135l-117 -270 q-204 89 -207 90l-205 -88q-1 0 -3 -1t-3 -1zM403 627h336q0 45 -46.5 83t-123.5 38q-67 0 -115 -40t-51 -81z" />
<glyph unicode="&#xeb;" horiz-adv-x="1110" d="M57 516q0 219 150.5 371.5t370.5 152.5q202 0 335.5 -142t133.5 -368v-133h-639q0 -39 61.5 -85t148.5 -46q76 0 142 15q47 11 133 49l104 -234q-85 -55 -179 -83.5t-230 -28.5q-150 0 -272.5 71t-190.5 193t-68 268zM195 1333q0 69 48 116.5t117 47.5t117.5 -47.5 t48.5 -116.5t-48.5 -117.5t-117.5 -48.5t-117 48.5t-48 117.5zM403 627h336q0 45 -46.5 83t-123.5 38q-67 0 -115 -40t-51 -81zM584 1333q0 68 49 116t117 48q69 0 117 -47.5t48 -116.5t-48 -117.5t-117 -48.5q-68 0 -117 48.5t-49 117.5z" />
<glyph unicode="&#xec;" horiz-adv-x="468" d="M-20 1264l118 274l396 -174l-111 -268zM84 0v1024h305v-1024h-305z" />
<glyph unicode="&#xed;" horiz-adv-x="468" d="M-20 1364l395 174l119 -274l-404 -168zM84 0v1024h305v-1024h-305z" />
<glyph unicode="&#xee;" horiz-adv-x="468" d="M-88 1407l324 137l325 -135l-117 -270q-197 85 -206 90l-205 -88q-1 0 -3 -1t-3 -1zM84 0v1024h305v-1024h-305z" />
<glyph unicode="&#xef;" horiz-adv-x="468" d="M-123 1333q0 69 48.5 116.5t117.5 47.5t117.5 -47.5t48.5 -116.5t-48.5 -117.5t-117.5 -48.5t-117.5 48.5t-48.5 117.5zM84 0v1024h305v-1024h-305zM266 1333q0 68 49 116t117 48q69 0 117.5 -47.5t48.5 -116.5t-48.5 -117.5t-117.5 -48.5q-68 0 -117 48.5t-49 117.5z " />
<glyph unicode="&#xf0;" horiz-adv-x="1177" d="M47 524q0 200 128 338t327 176l-33 52l-70 -48l-157 209l84 72q0 9 -26 43t-26 43l258 184l48 -73l86 59l180 -227l-88 -80l301 -473q74 -116 74 -275q0 -148 -73 -272.5t-198 -196t-272 -71.5t-272 71.5t-198 196t-73 272.5zM395 524q0 -85 54.5 -139.5t140.5 -54.5 t140 54.5t54 139.5q0 87 -54 142t-140 55t-140.5 -55.5t-54.5 -141.5z" />
<glyph unicode="&#xf1;" horiz-adv-x="1077" d="M82 0v1022h276v-23q75 41 185 41q220 0 340.5 -118.5t120.5 -337.5v-584h-334v580q0 54 -36.5 90.5t-90.5 36.5q-49 0 -85.5 -33.5t-41.5 -83.5v-590h-334zM186 1300q0 94 61.5 149.5t155.5 55.5q60 0 142 -28q59 -19 71 -19q15 0 30.5 5t30 13t24.5 15t20 15.5t12 9.5 l158 -146q0 -85 -69 -145t-154 -60q-40 0 -123 27q-12 3 -34 9.5t-35 9.5t-23 3q-22 0 -39.5 -11t-29 -25t-13.5 -15z" />
<glyph unicode="&#xf2;" horiz-adv-x="1169" d="M57 514q0 143 70 264t192 191.5t267 70.5q143 0 264 -70.5t191.5 -191.5t70.5 -264q0 -145 -70.5 -267t-191.5 -192.5t-264 -70.5q-145 0 -267 70.5t-192 192.5t-70 267zM328 1264l118 274l396 -174l-111 -268zM393 514q0 -82 55.5 -138.5t137.5 -56.5q80 0 136 56.5 t56 138.5q0 80 -56.5 136.5t-135.5 56.5q-81 0 -137 -56.5t-56 -136.5z" />
<glyph unicode="&#xf3;" horiz-adv-x="1169" d="M57 514q0 143 70 264t192 191.5t267 70.5q143 0 264 -70.5t191.5 -191.5t70.5 -264q0 -145 -70.5 -267t-191.5 -192.5t-264 -70.5q-145 0 -267 70.5t-192 192.5t-70 267zM328 1364l395 174l119 -274l-404 -168zM393 514q0 -82 55.5 -138.5t137.5 -56.5q80 0 136 56.5 t56 138.5q0 80 -56.5 136.5t-135.5 56.5q-81 0 -137 -56.5t-56 -136.5z" />
<glyph unicode="&#xf4;" horiz-adv-x="1169" d="M57 514q0 143 70 264t192 191.5t267 70.5q143 0 264 -70.5t191.5 -191.5t70.5 -264q0 -145 -70.5 -267t-191.5 -192.5t-264 -70.5q-145 0 -267 70.5t-192 192.5t-70 267zM260 1407l324 137l325 -135l-116 -270q-204 89 -207 90l-205 -88q-1 0 -3 -1t-3 -1zM393 514 q0 -82 55.5 -138.5t137.5 -56.5q80 0 136 56.5t56 138.5q0 80 -56.5 136.5t-135.5 56.5q-81 0 -137 -56.5t-56 -136.5z" />
<glyph unicode="&#xf5;" horiz-adv-x="1169" d="M57 514q0 143 70 264t192 191.5t267 70.5q143 0 264 -70.5t191.5 -191.5t70.5 -264q0 -145 -70.5 -267t-191.5 -192.5t-264 -70.5q-145 0 -267 70.5t-192 192.5t-70 267zM231 1300q0 94 62 149.5t156 55.5q59 0 141 -28q59 -19 72 -19q15 0 30.5 5t29.5 13t24 15t20 15.5 t12 9.5l158 -146q0 -85 -69 -145t-154 -60q-40 0 -123 27q-12 3 -34 9.5t-35 9.5t-23 3q-22 0 -39.5 -11t-29 -25t-13.5 -15zM393 514q0 -82 55.5 -138.5t137.5 -56.5q80 0 136 56.5t56 138.5q0 80 -56.5 136.5t-135.5 56.5q-81 0 -137 -56.5t-56 -136.5z" />
<glyph unicode="&#xf6;" horiz-adv-x="1169" d="M57 514q0 143 70 264t192 191.5t267 70.5q143 0 264 -70.5t191.5 -191.5t70.5 -264q0 -145 -70.5 -267t-191.5 -192.5t-264 -70.5q-145 0 -267 70.5t-192 192.5t-70 267zM223 1333q0 69 48.5 116.5t117.5 47.5t117.5 -47.5t48.5 -116.5t-48.5 -117.5t-117.5 -48.5 t-117.5 48.5t-48.5 117.5zM393 514q0 -82 55.5 -138.5t137.5 -56.5q80 0 136 56.5t56 138.5q0 80 -56.5 136.5t-135.5 56.5q-81 0 -137 -56.5t-56 -136.5zM612 1333q0 68 49 116t117 48q69 0 117.5 -47.5t48.5 -116.5t-48.5 -117.5t-117.5 -48.5q-68 0 -117 48.5t-49 117.5z " />
<glyph unicode="&#xf7;" horiz-adv-x="1073" d="M23 377v293h1026v-293h-1026zM348 166q0 78 54.5 132t132.5 54t132 -54t54 -132t-54 -132t-132 -54t-132.5 54t-54.5 132zM348 881q0 78 54.5 132t132.5 54t132 -54t54 -132t-54 -131.5t-132 -53.5t-132.5 53.5t-54.5 131.5z" />
<glyph unicode="&#xf8;" horiz-adv-x="1146" d="M47 514q0 143 70 263.5t191.5 190.5t266.5 70q36 0 50 -2l32 105h193q0 -4 -8 -33.5t-18.5 -67.5t-14.5 -55q132 -67 212.5 -193.5t80.5 -277.5q0 -145 -70.5 -266.5t-192 -191.5t-264.5 -70q-39 0 -57 2l-26 -105h-199l41 158q-128 66 -207.5 194t-79.5 279zM360 510 q0 -86 64 -156l111 375q-78 -18 -126.5 -80.5t-48.5 -138.5zM606 297q81 12 135 72t54 145q0 98 -76 164z" />
<glyph unicode="&#xf9;" horiz-adv-x="1075" d="M74 440v584h334v-580q0 -54 36.5 -90.5t90.5 -36.5q51 0 89 33.5t38 81.5v592h333v-1024h-278v23q-72 -39 -182 -39q-220 0 -340.5 118.5t-120.5 337.5zM281 1264l118 274l396 -174l-111 -268z" />
<glyph unicode="&#xfa;" horiz-adv-x="1075" d="M74 440v584h334v-580q0 -54 36.5 -90.5t90.5 -36.5q51 0 89 33.5t38 81.5v592h333v-1024h-278v23q-72 -39 -182 -39q-220 0 -340.5 118.5t-120.5 337.5zM281 1364l395 174l119 -274l-404 -168z" />
<glyph unicode="&#xfb;" horiz-adv-x="1075" d="M74 440v584h334v-580q0 -54 36.5 -90.5t90.5 -36.5q51 0 89 33.5t38 81.5v592h333v-1024h-278v23q-72 -39 -182 -39q-220 0 -340.5 118.5t-120.5 337.5zM213 1407l324 137l325 -135l-117 -270q-197 85 -206 90l-205 -88q-1 0 -3 -1t-3 -1z" />
<glyph unicode="&#xfc;" horiz-adv-x="1075" d="M74 440v584h334v-580q0 -54 36.5 -90.5t90.5 -36.5q51 0 89 33.5t38 81.5v592h333v-1024h-278v23q-72 -39 -182 -39q-220 0 -340.5 118.5t-120.5 337.5zM176 1333q0 69 48.5 116.5t117.5 47.5t117.5 -47.5t48.5 -116.5t-48.5 -117.5t-117.5 -48.5t-117.5 48.5 t-48.5 117.5zM565 1333q0 68 49 116t117 48q69 0 117.5 -47.5t48.5 -116.5t-48.5 -117.5t-117.5 -48.5q-68 0 -117 48.5t-49 117.5z" />
<glyph unicode="&#xfd;" horiz-adv-x="1001" d="M16 1024h363l123 -428l123 426h358l-485 -1419l-348 8q178 512 178 528zM244 1364l395 174l119 -274l-404 -168z" />
<glyph unicode="&#xfe;" horiz-adv-x="1153" d="M84 -420v1852h334v-431q87 37 198 37q141 0 262.5 -70t193 -191.5t71.5 -264.5t-71.5 -264.5t-193 -191.5t-262.5 -70q-112 0 -198 37v-443h-334zM420 512q0 -86 55 -141.5t141 -55.5q83 0 139 56t56 141t-56 141t-139 56q-86 0 -141 -55.5t-55 -141.5z" />
<glyph unicode="&#xff;" horiz-adv-x="1001" d="M16 1024h363l123 -428l123 426h358l-485 -1419l-348 8q178 512 178 528zM139 1333q0 69 48.5 116.5t117.5 47.5t117.5 -47.5t48.5 -116.5t-48.5 -117.5t-117.5 -48.5t-117.5 48.5t-48.5 117.5zM528 1333q0 68 49 116t117 48q69 0 117.5 -47.5t48.5 -116.5t-48.5 -117.5 t-117.5 -48.5q-68 0 -117 48.5t-49 117.5z" />
<glyph unicode="&#x152;" horiz-adv-x="2220" d="M59 766q0 159 62 304.5t166 251t249 168t304 62.5q230 0 428 -129v113h880v-354h-526v-232h526v-354h-526v-242h526v-354h-880v106q-194 -129 -428 -129q-212 0 -392 106.5t-284.5 288t-104.5 394.5zM414 766q0 -178 125.5 -304t300.5 -126q178 0 302 125.5t124 304.5 q0 116 -56.5 215.5t-154.5 158t-215 58.5q-175 0 -300.5 -127.5t-125.5 -304.5z" />
<glyph unicode="&#x153;" horiz-adv-x="1824" d="M57 514q0 143 70 264t192 191.5t267 70.5q103 0 196.5 -38t165.5 -107q70 69 164 107t199 38q202 0 335.5 -142t133.5 -368v-133h-639q0 -39 62 -85t149 -46q75 0 141 15q47 11 133 49l105 -234q-85 -55 -179.5 -83.5t-230.5 -28.5q-223 0 -371 145q-72 -69 -166 -107 t-198 -38q-145 0 -267 70.5t-192 192.5t-70 267zM393 514q0 -82 55.5 -138.5t137.5 -56.5q80 0 136 56.5t56 138.5q0 80 -56.5 136.5t-135.5 56.5q-81 0 -137 -56.5t-56 -136.5zM1137 627h336q0 45 -46.5 83t-123.5 38q-67 0 -115 -40t-51 -81z" />
<glyph unicode="&#x178;" horiz-adv-x="1255" d="M20 1536h396l213 -537l213 537h391l-426 -981v-555h-354v555zM266 1743q0 69 48.5 116.5t117.5 47.5t117.5 -47.5t48.5 -116.5t-48.5 -117.5t-117.5 -48.5t-117.5 48.5t-48.5 117.5zM655 1743q0 68 49 116t117 48q69 0 117.5 -47.5t48.5 -116.5t-48.5 -117.5 t-117.5 -48.5q-68 0 -117 48.5t-49 117.5z" />
<glyph unicode="&#x2c6;" horiz-adv-x="737" d="M43 1407l324 137l325 -135l-117 -270q-197 85 -206 90l-205 -88q-1 0 -3 -1t-3 -1z" />
<glyph unicode="&#x2dc;" horiz-adv-x="841" d="M68 1300q0 94 61.5 149.5t155.5 55.5q59 0 141 -28q59 -19 72 -19q15 0 30.5 5t29.5 13t24 15t20 15.5t12 9.5l158 -146q0 -85 -69 -145t-154 -60q-40 0 -123 27q-12 3 -34 9.5t-35 9.5t-23 3q-22 0 -39.5 -11t-29 -25t-13.5 -15z" />
<glyph unicode="&#x2000;" horiz-adv-x="992" />
<glyph unicode="&#x2001;" horiz-adv-x="1985" />
<glyph unicode="&#x2002;" horiz-adv-x="992" />
<glyph unicode="&#x2003;" horiz-adv-x="1985" />
<glyph unicode="&#x2004;" horiz-adv-x="661" />
<glyph unicode="&#x2005;" horiz-adv-x="496" />
<glyph unicode="&#x2006;" horiz-adv-x="330" />
<glyph unicode="&#x2007;" horiz-adv-x="330" />
<glyph unicode="&#x2008;" horiz-adv-x="248" />
<glyph unicode="&#x2009;" horiz-adv-x="397" />
<glyph unicode="&#x200a;" horiz-adv-x="110" />
<glyph unicode="&#x2010;" horiz-adv-x="829" d="M76 436v293h678v-293h-678z" />
<glyph unicode="&#x2011;" horiz-adv-x="829" d="M76 436v293h678v-293h-678z" />
<glyph unicode="&#x2012;" horiz-adv-x="829" d="M76 436v293h678v-293h-678z" />
<glyph unicode="&#x2013;" horiz-adv-x="1177" d="M78 436v293h1024v-293h-1024z" />
<glyph unicode="&#x2014;" horiz-adv-x="1513" d="M78 436v293h1358v-293h-1358z" />
<glyph unicode="&#x2018;" horiz-adv-x="411" d="M45 1452l283 59l39 -421l-224 -31z" />
<glyph unicode="&#x2019;" horiz-adv-x="413" d="M63 1090l39 421l283 -59l-98 -393z" />
<glyph unicode="&#x201a;" horiz-adv-x="411" d="M63 -111l39 422l283 -59l-98 -393z" />
<glyph unicode="&#x201c;" horiz-adv-x="776" d="M63 1452l283 59l39 -421l-223 -31zM408 1452l282 59l39 -421l-223 -31z" />
<glyph unicode="&#x201d;" horiz-adv-x="778" d="M63 1090l39 421l283 -59l-98 -393zM408 1090l38 421l283 -59l-98 -393z" />
<glyph unicode="&#x201e;" horiz-adv-x="759" d="M63 -111l39 422l283 -59l-98 -393zM387 -111l39 422l283 -59l-99 -393z" />
<glyph unicode="&#x2022;" horiz-adv-x="645" d="M57 606q0 110 78.5 188t188.5 78t187 -78t77 -188t-77 -187t-187 -77q-111 0 -189 77t-78 187z" />
<glyph unicode="&#x2026;" horiz-adv-x="1404" d="M78 137q0 60 43.5 107t109.5 47q59 0 101.5 -47.5t42.5 -106.5q0 -60 -42 -102.5t-102 -42.5q-68 0 -110.5 42t-42.5 103zM553 137q0 59 44.5 106.5t109.5 47.5q59 0 102 -47.5t43 -106.5q0 -60 -42.5 -102.5t-102.5 -42.5q-67 0 -110.5 42t-43.5 103zM1030 137 q0 60 44 107t110 47q58 0 100.5 -47.5t42.5 -106.5q0 -60 -41.5 -102.5t-101.5 -42.5q-68 0 -111 42t-43 103z" />
<glyph unicode="&#x202f;" horiz-adv-x="397" />
<glyph unicode="&#x2039;" horiz-adv-x="579" d="M23 551l280 450l229 -180l-180 -268q171 -251 185 -272l-248 -170z" />
<glyph unicode="&#x203a;" horiz-adv-x="583" d="M23 281q35 53 184 272l-180 268l229 180l281 -450l-267 -440z" />
<glyph unicode="&#x205f;" horiz-adv-x="496" />
<glyph unicode="&#x20ac;" horiz-adv-x="1181" d="M49 455v262h107v65h-107v265h109q9 87 46.5 168.5t100.5 149t159.5 108t211.5 40.5q210 0 332 -113.5t127 -295.5h-291q-9 5 -33.5 25.5t-52 28t-82.5 7.5q-64 0 -115 -35.5t-51 -82.5h330v-267h-334v-61h334v-266h-330q0 -47 51 -83t115 -36q39 0 64.5 4.5t34.5 9t25 17 t25 18.5l15 2h315q-2 -87 -29.5 -157t-83 -125.5t-148.5 -86t-218 -30.5q-131 0 -246 63t-188 172t-84 238z" />
<glyph unicode="&#x2122;" horiz-adv-x="1411" d="M16 1360v176h502v-176h-164v-590h-178v590h-160zM578 768v768h215l170 -481l174 481h217v-768h-176v424l-91 -258l-57 -166h-135l-135 422v-422h-182z" />
<glyph unicode="&#xe000;" horiz-adv-x="1024" d="M0 0v1024h1024v-1024h-1024z" />
<glyph unicode="&#xfb01;" horiz-adv-x="1347" d="M123 717v307h115v84q0 156 77 241t222 85h215v-299h-109q-72 0 -72 -66v-45h238v-307h-238v-717h-333v717h-115zM940 0v1024h334v-1024h-334zM940 1231q0 68 49.5 118t118.5 50q68 0 118 -50.5t50 -117.5q0 -69 -50 -118.5t-118 -49.5q-69 0 -118.5 49.5t-49.5 118.5z " />
<glyph unicode="&#xfb02;" horiz-adv-x="1406" d="M123 717v307h115v84q0 156 77 241t222 85h215v-299h-109q-72 0 -72 -66v-45h238v-307h-238v-717h-333v717h-115zM995 0v1434h334v-1434h-334z" />
</font>
</defs>
</svg>
