<?xml version="1.0" standalone="no"?>
<!DOCTYPE svg PUBLIC "-//W3C//DTD SVG 1.1//EN" "http://www.w3.org/Graphics/SVG/1.1/DTD/svg11.dtd" >
<svg xmlns="http://www.w3.org/2000/svg">
<metadata></metadata>
<defs>
<font id="nanamibook_oblique" horiz-adv-x="1228" >
<font-face units-per-em="2048" ascent="1536" descent="-512" />
<missing-glyph horiz-adv-x="593" />
<glyph horiz-adv-x="2048" />
<glyph horiz-adv-x="2048" />
<glyph unicode="&#xd;" horiz-adv-x="2048" />
<glyph unicode=" "  horiz-adv-x="593" />
<glyph unicode="&#x09;" horiz-adv-x="593" />
<glyph unicode="&#xa0;" horiz-adv-x="593" />
<glyph unicode="!" horiz-adv-x="401" d="M106 106q9 49 51.5 83t90.5 34q47 0 74 -34t18 -83q-11 -46 -52.5 -80t-88.5 -34t-75 34t-18 80zM150 307l262 1229h231l-262 -1229h-231z" />
<glyph unicode="&#x22;" horiz-adv-x="718" d="M297 940l127 596h188l-127 -596h-188zM629 940l127 596h188l-127 -596h-188z" />
<glyph unicode="#" horiz-adv-x="1378" d="M178 438l29 137h305l111 314h-285l29 137h307l147 424h137l-145 -424h272l148 424h135l-22 -70q-100 -282 -123 -354h286l-28 -137h-307l-111 -314h285l-29 -137h-305l-152 -438h-141q15 46 64 184.5t89 253.5h-274l-151 -438h-138q27 84 152 438h-285zM653 575h271 l112 314h-272z" />
<glyph unicode="$" horiz-adv-x="1030" d="M150 283l233 36q33 -100 168 -100q80 0 153.5 60.5t90.5 142.5q6 28 6.5 52.5t-6 45t-14.5 37t-25 31.5t-30 25.5t-36.5 22.5t-38 19t-41.5 19q-45 19 -81 38t-71 43.5t-59.5 50.5t-45.5 59t-29 69.5t-10.5 82t10.5 95.5q33 160 145 274t266 150l39 186h209l-39 -184 q87 -22 147 -79t80 -140l-235 -105q-14 48 -54.5 72.5t-88.5 24.5q-75 0 -144 -57.5t-84 -129.5q-5 -21 -5 -40t4.5 -34.5t10.5 -28.5t17 -25t20 -21t24 -18l25 -15t25 -14q10 -6 56.5 -29t80 -41.5t56.5 -34.5q108 -70 145 -165.5t6 -235.5q-32 -151 -149.5 -269.5 t-264.5 -154.5l-38 -186h-209l39 182q-128 17 -197 95t-61 194z" />
<glyph unicode="%" horiz-adv-x="1826" d="M334 1167q32 154 162 261.5t284 107.5t238.5 -107.5t52.5 -261.5q-34 -154 -164 -261t-284 -107t-238.5 107t-50.5 261zM463 45l1112 1503l96 -61q-225 -313 -504 -689t-444 -595.5t-168 -222.5zM508 1167q-19 -82 25 -138t126 -56t150.5 56t87.5 138q17 82 -27.5 138.5 t-126.5 56.5t-150 -56.5t-85 -138.5zM1079 369q32 154 162.5 261t284.5 107t238.5 -107t52.5 -261t-162.5 -261.5t-284.5 -107.5t-238.5 107.5t-52.5 261.5zM1253 369q-19 -81 26.5 -138t127.5 -57q81 0 148.5 56.5t86.5 138.5q17 82 -27 138t-126 56t-150.5 -56t-85.5 -138 z" />
<glyph unicode="&#x26;" horiz-adv-x="1464" d="M158 430q56 258 387 449q-72 76 -102.5 152.5t-8.5 174.5q29 143 156 244.5t280 101.5q138 0 219 -102.5t52 -243.5q-45 -210 -267 -352l156 -197l230 314l180 -103l-258 -352q-10 -10 -15 -20l9 -17l258 -313l-191 -166q-132 158 -231 285l-23 -33q-202 -268 -467 -268 q-189 0 -296 129t-68 317zM385 438q-20 -96 32 -163.5t150 -67.5q81 0 152.5 57t126.5 139q28 35 28 46q-164 201 -215 266q-102 -53 -179 -123t-95 -154zM655 1204q-9 -47 18 -98.5t83 -97.5q32 4 88 61.5t71 128.5q10 52 -19.5 89.5t-80.5 37.5q-56 0 -102 -34t-58 -87z " />
<glyph unicode="'" horiz-adv-x="382" d="M295 942l127 594h188l-127 -594h-188z" />
<glyph unicode="(" horiz-adv-x="608" d="M166 332l164 776q69 325 352 516l119 -162q-63 -51 -104.5 -96.5t-68.5 -99t-42.5 -103.5t-32.5 -129l-133 -628q-17 -78 -23 -128.5t-1.5 -103.5t26.5 -98.5t63 -95.5l-188 -164q-200 191 -131 516z" />
<glyph unicode=")" horiz-adv-x="604" d="M109 -20q119 95 167.5 184t81.5 242l134 628q35 137 23 234t-91 194l186 162q202 -190 133 -516l-163 -776q-68 -321 -355 -516z" />
<glyph unicode="*" horiz-adv-x="897" d="M281 991l41 193l243 -43l-180 145l166 137q66 -132 100 -211l8 252h195l-98 -252l190 211l109 -139q-23 -14 -109 -65t-133 -78l260 43l-41 -193l-241 45q75 -58 180 -145l-166 -137l-100 211l-11 -252h-194l100 252l-190 -211l-109 137q160 98 242 145z" />
<glyph unicode="+" horiz-adv-x="1171" d="M162 430l39 180h424l88 414h180l-88 -414h422l-39 -180h-422l-88 -418h-180l88 418h-424z" />
<glyph unicode="," horiz-adv-x="368" d="M115 213l202 31l-57 -391q-89 -10 -115 -11z" />
<glyph unicode="-" horiz-adv-x="843" d="M201 496l39 184h649l-39 -184h-649z" />
<glyph unicode="." horiz-adv-x="389" d="M109 92q9 42 47 73.5t82 31.5q39 0 62.5 -32.5t14.5 -72.5q-9 -41 -44 -70.5t-76 -29.5q-45 0 -70 29t-16 71z" />
<glyph unicode="/" horiz-adv-x="681" d="M63 16l768 1534l109 -30l-766 -1530z" />
<glyph unicode="0" d="M207 494l115 546q29 134 122.5 251.5t227 188t270.5 70.5q97 0 181.5 -39t140 -107t79.5 -161.5t0 -202.5l-114 -546q-29 -135 -123 -252.5t-226.5 -187.5t-269.5 -70q-134 0 -237.5 67.5t-149.5 186t-16 256.5zM442 498q-23 -107 43 -191t177 -84q109 0 206.5 82.5 t120.5 192.5l115 538q23 109 -40 191t-173 82q-113 0 -211.5 -83t-122.5 -190z" />
<glyph unicode="1" d="M594 0l274 1296q4 21 -14 21h-219l47 219h477l-325 -1536h-240z" />
<glyph unicode="2" d="M150 180q124 102 628 512q155 119 226.5 213.5t91.5 190.5q18 87 -31 154t-150 67q-88 0 -174.5 -54t-156.5 -143q-70 95 -115 162q226 266 498 266q211 0 307.5 -132t54.5 -333q-26 -125 -121 -248t-293 -288l-364 -291q-3 -3 -7.5 -7t-7.5 -6.5t-4 -4.5q0 -5 9 -5h610 l-49 -233h-940z" />
<glyph unicode="3" d="M178 160l156 205q112 -142 260 -142q114 0 201 72.5t108 175.5q24 112 -43 184.5t-194 81.5l-115 4l43 203l92 4q113 9 187 69t92 144q13 66 -26 115t-130 49q-68 0 -145.5 -36t-149.5 -99l-53 199q198 163 411 163q188 0 277.5 -109.5t54.5 -271.5q-19 -91 -83 -172 t-140 -125q-8 -4 -8 -10q0 -2 1 -3t3.5 -2.5t3.5 -2.5q107 -64 147.5 -164t14.5 -227q-44 -202 -210.5 -339.5t-381.5 -137.5q-231 0 -373 172z" />
<glyph unicode="4" d="M154 256l49 231l440 521q113 135 447 526h225l-207 -973q-9 -33 -12 -67q12 -2 41 -2h108l-51 -240h-111q-16 0 -26.5 -3t-15.5 -11.5t-7 -13.5t-3.5 -19t-2.5 -19l-39 -186h-237l51 244q3 12 -10 12h-639zM467 492q-3 -7 6 -7h367q13 0 16 15l129 602q2 8 -2 8t-8 -4 q-266 -321 -506 -608q-2 -2 -2 -6z" />
<glyph unicode="5" d="M176 162l150 213q105 -154 280 -154q127 0 228.5 83.5t126.5 201.5q25 116 -41 195t-189 79q-44 0 -84.5 -6.5t-74 -18t-55 -21t-47 -23t-30.5 -15.5l-106 140l22 69q34 91 115 303.5t123 327.5h713l-52 -236h-510q-19 0 -24 -14l-109 -289l-6 -18l35 10q60 16 156 19 q146 0 248 -65.5t141.5 -179.5t9.5 -253q-30 -143 -124.5 -263.5t-230 -191.5t-280.5 -71q-128 0 -219.5 44.5t-165.5 133.5z" />
<glyph unicode="6" d="M186 518q39 160 129 268l652 770l176 -126q-49 -60 -146 -170.5t-139 -161.5l-47 -58q12 2 41 2q103 -5 188.5 -44t142.5 -106.5t78 -162t-4 -211.5q-31 -147 -128.5 -270t-234.5 -193.5t-282 -70.5q-149 0 -258 70.5t-154 193.5t-14 270zM426 518q-28 -129 38 -213 t195 -84q125 0 228 84.5t131 212.5q26 124 -41.5 210.5t-190.5 86.5q-128 0 -230 -85t-130 -212z" />
<glyph unicode="7" d="M264 78q86 131 344.5 529t392.5 601q7 12 27.5 41.5t30.5 46.5q0 7 -8 7h-596l49 233h860l18 -147l-919 -1405z" />
<glyph unicode="8" d="M221 475q24 115 105 212.5t192 170.5q-114 130 -82 277q37 172 186 293.5t320 121.5q108 0 192.5 -54t123 -147t16.5 -200q-18 -82 -65.5 -149t-135.5 -142q78 -69 117.5 -167.5t15.5 -215.5q-28 -133 -119 -247t-218.5 -180t-258.5 -66q-134 0 -234 67.5t-141.5 181 t-13.5 244.5zM457 475q-23 -107 36 -182.5t166 -75.5q106 0 197 77t113 181q23 109 -35.5 182.5t-165.5 73.5q-108 0 -198.5 -75t-112.5 -181zM672 1135q-15 -76 27 -130.5t116 -54.5t139 55.5t80 129.5q17 75 -24.5 127.5t-116.5 52.5q-76 0 -141 -53t-80 -127z" />
<glyph unicode="9" d="M287.5 798.5q-21.5 94.5 3.5 211.5q31 146 129 269t236 194t282 71q149 0 257.5 -71t153 -194t13.5 -269q-40 -167 -129 -269q-238 -286 -647 -761l-176 124q46 56 140.5 163t139.5 163l47 57q-10 -2 -39 -2q-104 5 -189.5 44t-142.5 107t-78.5 162.5zM530 1010 q-26 -124 41.5 -210.5t190.5 -86.5q128 0 231 85t129 212q28 129 -38 213t-195 84q-125 0 -228 -84.5t-131 -212.5z" />
<glyph unicode=":" horiz-adv-x="393" d="M111 92q9 42 47 73.5t82 31.5q39 0 62.5 -32.5t14.5 -72.5q-9 -41 -44 -70.5t-76 -29.5q-45 0 -70 29t-16 71zM268 829q9 45 45.5 75t81.5 30q40 0 64.5 -30.5t15.5 -74.5q-9 -41 -45.5 -70.5t-77.5 -29.5q-45 0 -69 29t-15 71z" />
<glyph unicode=";" horiz-adv-x="378" d="M117 213l202 31l-59 -391q-89 -10 -115 -11q-4 62 -14 186t-14 185zM266 831q9 44 46 74.5t79 30.5q43 0 67 -31t15 -74q-9 -41 -46 -70.5t-81 -29.5q-43 0 -66 29.5t-14 70.5z" />
<glyph unicode="&#x3c;" horiz-adv-x="1296" d="M176 440l33 156l1175 436l-12 -141q-26 -10 -92.5 -36t-166.5 -65.5t-179 -70.5l-526 -207q345 -161 804 -369l-49 -141z" />
<glyph unicode="=" horiz-adv-x="1132" d="M184 410l6 32l15 70l18 82l8 33h934l-26 -115l-21 -102h-934z" />
<glyph unicode="&#x3e;" horiz-adv-x="1329" d="M121 2l10 141q531 200 965 369l-443 207q-63 30 -147.5 70t-139 66t-77.5 36l51 141l985 -436q-29 -145 -31 -156z" />
<glyph unicode="?" horiz-adv-x="888" d="M313 106q9 49 51.5 83t90.5 34q49 0 75 -33.5t17 -83.5q-11 -47 -51.5 -80.5t-89.5 -33.5q-47 0 -75 34t-18 80zM336 549q16 73 49 136t74 108.5t87.5 85.5t91.5 74.5t83 67.5t65.5 72t36.5 81q31 137 -108 137q-24 0 -50 -7.5t-45 -16t-45.5 -27.5t-38.5 -28.5 t-38.5 -32.5t-32.5 -28l-125 156q71 82 192.5 151.5t237.5 69.5q167 0 250.5 -95t46.5 -273q-16 -74 -49 -136.5t-74 -105.5t-87.5 -80t-92 -70t-84.5 -66.5t-68.5 -77.5t-40.5 -95q-15 -75 4 -197l-231 -33q-27 131 -8 230z" />
<glyph unicode="@" horiz-adv-x="1820" d="M229.5 477.5q-12.5 111.5 12.5 241.5q38 178 145.5 335t254.5 265t325 170.5t356 62.5q153 0 278 -45t207 -125.5t114 -197.5t3 -254q-22 -104 -80.5 -207.5t-139.5 -185t-185 -132.5t-209 -51q-29 0 -56.5 8.5t-52.5 26t-36.5 51.5t-2.5 78q-93 -98 -161.5 -131 t-153.5 -33q-132 0 -186 76.5t-23 216.5q44 208 195.5 350t320.5 142q84 0 128.5 -30t64.5 -105l79 112l121 -6l-235 -510q-15 -27 -23 -55q-8 -37 12 -58.5t62 -21.5q85 0 176.5 65.5t161 173.5t94.5 226q47 225 -91.5 360t-420.5 135q-127 0 -252.5 -37t-233 -104.5 t-196 -156.5t-149 -198t-84.5 -224q-27 -127 3 -238.5t106 -189.5t194.5 -123t263.5 -45q346 0 582 143l34 -66q-316 -202 -632 -202q-147 0 -270 35t-209.5 99.5t-142.5 156t-68.5 203zM788 647q-21 -96 9 -148.5t110 -52.5q79 0 160.5 64t128.5 164l70 147q13 31 20 64 q18 79 -21 122.5t-108 43.5q-117 0 -225.5 -119t-143.5 -285z" />
<glyph unicode="A" horiz-adv-x="1398" d="M33 0l901 1536h178l254 -1536h-254q-46 315 -70 315h-557q-14 0 -20 -12l-178 -303h-254zM612 551q-1 -2 -1 -4q0 -4 7 -4h388q11 0 14 10v6l-82 541q-2 2 -3 5t-3 3q-4 0 -4 -8l-312 -541q-4 -2 -4 -8z" />
<glyph unicode="B" horiz-adv-x="1116" d="M98 0l326 1536h395q122 0 209 -56q87 -54 121 -150q20 -56 20 -120q0 -44 -10 -92q-21 -95 -61.5 -160t-102.5 -127q81 -61 113 -161q17 -55 18 -115q0 -50 -12 -104q-41 -195 -198.5 -323t-352.5 -128h-465zM391 252q-1 -3 -1 -5q0 -9 11 -9h207q110 0 180.5 68.5 t88.5 152.5q6 22 6 45q-1 14 -3 30q-6 40 -23 72.5t-57.5 54t-97.5 21.5h-208q-12 -3 -15 -12zM530 913q-1 -2 -1 -5q0 -9 12 -9h141q100 3 163 65.5t79 137.5q5 19 5 39q0 13 -2 27q-6 34 -22 63t-53.5 48t-91.5 19h-133q-14 0 -17 -16z" />
<glyph unicode="C" horiz-adv-x="1441" d="M238 558q-2 25 -3 52q0 76 19 156q34 159 127.5 304.5t221 251t286 168t317.5 62.5q84 0 159 -15.5t121.5 -35t88 -47.5t56 -41.5t28.5 -28.5l-186 -192q-121 121 -320 121q-152 -2 -293 -75.5t-239 -198.5t-129 -273q-14 -78 -15 -150q0 -9 1 -18q2 -80 33.5 -149 t83 -119.5t136 -79.5t191.5 -29q198 0 370 121l105 -192q-28 -20 -59.5 -39t-101.5 -52.5t-165.5 -54t-198.5 -20.5q-106 0 -202 28t-170.5 79t-133 122.5t-89.5 158t-39 186.5z" />
<glyph unicode="D" horiz-adv-x="1449" d="M98 0l326 1536h487q105 0 199.5 -27.5t167.5 -78t129.5 -121t86.5 -156t38 -183.5q2 -24 2 -49q0 -75 -18 -153q-44 -208 -183.5 -384.5t-338 -280t-408.5 -103.5h-488zM389 250q0 -12 10 -12h236q147 0 284 69.5t232.5 191.5t126.5 269q13 62 13 119q0 79 -25 149 q-43 122 -149 191t-253 69h-239q-13 0 -15 -10z" />
<glyph unicode="E" horiz-adv-x="999" d="M100 0l326 1536h799l-51 -240h-549q-13 0 -15 -10l-82 -385q-1 -6 1.5 -8t9.5 -2h548l-51 -240h-549q-11 0 -14 -10l-84 -391q0 -12 10 -12h549l-49 -238h-799z" />
<glyph unicode="F" horiz-adv-x="993" d="M98 0l326 1536h803l-51 -240h-551q-12 0 -15 -12l-82 -381q-3 -12 11 -12h551l-52 -240h-551q-11 0 -14 -12l-135 -639h-240z" />
<glyph unicode="G" horiz-adv-x="1622" d="M247 520q-4 38 -4 77q0 82 17 171q34 160 127 305t220.5 250t286 167t318.5 62q88 0 169.5 -18.5t142 -49t102.5 -61t72 -61.5l-193 -182q-58 60 -151 96.5t-193 36.5q-147 0 -288.5 -73t-241.5 -198.5t-131 -273.5q-12 -59 -12 -114q0 -84 28 -160q47 -126 159 -199.5 t265 -73.5q127 0 237.5 43t176.5 109l43 200q-73 5 -94 5h-363l51 233h701l-21 -90l-90 -430q-116 -133 -298 -220t-404 -87q-128 0 -240 40t-192 111t-134 169.5t-66 215.5z" />
<glyph unicode="H" horiz-adv-x="1257" d="M98 0l326 1536h238l-136 -635q-3 -12 11 -12h559q11 0 14 12l135 635h238l-326 -1536h-237l135 637q0 12 -11 12h-559q-14 0 -14 -12l-135 -637h-238z" />
<glyph unicode="I" horiz-adv-x="436" d="M98 0l326 1534h238l-326 -1534h-238z" />
<glyph unicode="J" horiz-adv-x="894" d="M102 209l222 104q6 -45 39 -70.5t90 -25.5q68 0 130.5 50t75.5 118l246 1153h240l-246 -1153q-35 -167 -176.5 -284t-308.5 -117q-117 0 -200.5 61t-111.5 164z" />
<glyph unicode="K" horiz-adv-x="1079" d="M88 0l326 1536h239l-143 -672q5 5 1 -2q-1 -2 2 1q5 5 28 30l542 643h273q-156 -187 -358 -425.5t-267 -317.5q-20 -23 -20 -27q3 -11 8 -22.5t12 -26t10 -21.5l295 -696h-282q-196 471 -279 662q-4 8 -6 8l-141 -670h-240z" />
<glyph unicode="L" horiz-adv-x="970" d="M98 0l326 1536h238l-273 -1280q-3 -18 14 -18h527l-49 -238h-783z" />
<glyph unicode="M" horiz-adv-x="1654" d="M98 0l326 1534h326l137 -1002l22 -137l80 137l563 1002h330l-326 -1534h-237l237 1126q0 1 -19 -33.5t-55 -98.5t-82.5 -147t-105.5 -187.5t-119 -210.5t-128 -225t-129 -224h-183l-155 1133l-240 -1133h-242z" />
<glyph unicode="N" horiz-adv-x="1390" d="M98 0l326 1534h250q64 -155 208.5 -499.5t219.5 -528.5q18 -44 39 -84l26 123l211 989h240l-326 -1534h-252l-426 1024q-7 16 -22.5 44.5t-20.5 39.5q-2 -12 -11.5 -55t-14.5 -68l-209 -985h-238z" />
<glyph unicode="O" horiz-adv-x="1748" d="M239 520q-4 38 -4 77q0 82 17 171q34 160 127 305t220.5 250t286 167t318.5 62q128 0 239.5 -40t191.5 -111t133.5 -169.5t65.5 -215.5q4 -38 3 -77q0 -82 -16 -171q-34 -160 -127 -305t-220 -250t-285.5 -167t-318.5 -62q-128 0 -239.5 40t-192 111t-134 169.5 t-65.5 215.5zM489 768q-12 -59 -13 -115q0 -84 28 -159q46 -126 157 -199.5t259 -73.5t289.5 73.5t241 199.5t130.5 274q12 60 12 116q0 84 -27 158q-46 126 -155.5 198.5t-257.5 72.5t-290 -73t-242.5 -198.5t-131.5 -273.5z" />
<glyph unicode="P" horiz-adv-x="1042" d="M98 0l326 1536h407q129 0 218.5 -61t123.5 -166q19 -59 19 -125q0 -52 -12 -109q-42 -198 -197.5 -334.5t-349.5 -136.5h-156q-11 0 -14 -12l-125 -592h-240zM518 854v-4q0 -8 12 -8h127q67 0 120.5 23t85.5 60.5t50.5 74.5t26.5 75q4 28 6 58v11q0 24 -10 48 q-12 30 -30.5 53.5t-58 38t-93.5 14.5h-127q-14 0 -17 -16z" />
<glyph unicode="Q" horiz-adv-x="1748" d="M239 520q-4 38 -4 77q0 82 17 171q34 160 127 305t220.5 250t286 167t318.5 62q128 0 239.5 -40t191.5 -111t133.5 -169.5t65.5 -215.5q4 -38 4 -77q0 -82 -17 -171q-30 -144 -107.5 -274.5t-189.5 -235.5l94 -115q-155 -122 -211 -163q-19 22 -51.5 64.5t-44.5 57.5 q-210 -118 -441 -118q-128 0 -239.5 40t-192 111t-134 169.5t-65.5 215.5zM489 768q-12 -59 -12 -115q0 -83 27 -159q47 -126 157.5 -199.5t258.5 -73.5q131 0 260 60l-133 178q47 37 202 162l142 -191q149 143 190 338q12 60 12 116q0 83 -27 158q-46 125 -155.5 198 t-257.5 73t-290 -73t-242.5 -198.5t-131.5 -273.5z" />
<glyph unicode="R" horiz-adv-x="1048" d="M86 0l326 1536h438q140 0 236 -65t130 -173q19 -59 19 -125q0 -55 -14 -116q-39 -183 -183 -312q-17 -14 -58.5 -41t-74 -48t-33.5 -23q0 -1 1 -2t1 -2l228 -629h-277q-49 133 -211 584q-3 12 -18 12h-133q-11 0 -14 -12l-123 -584h-240zM502 831v-4q0 -10 12 -10h152 q132 0 213 66t104 176q7 37 7 70q0 32 -12 62q-12 31 -34 55t-59 38t-86 14h-183q-15 0 -18 -16z" />
<glyph unicode="S" horiz-adv-x="1034" d="M152 283q58 16 221 65q40 -129 180 -129q79 0 153 61.5t91 141.5q5 24 5.5 46.5t-3.5 40.5t-13 35t-18.5 30t-25.5 26.5t-29 22t-33 19.5t-33.5 17.5t-34.5 16.5q-40 19 -70.5 34.5t-63.5 36t-56.5 41t-45.5 45.5t-34.5 54t-20.5 63q-7 29 -7 62v13q2 41 12 87 q40 190 189.5 314t336.5 124q117 0 207.5 -62.5t114.5 -168.5l-236 -105q-13 48 -53.5 72.5t-89.5 24.5q-75 0 -144 -57.5t-84 -129.5q-5 -22 -6 -41t5 -36t10 -29t18 -25.5t21.5 -21t28 -20.5t29 -18t32.5 -18q74 -36 124.5 -65t95 -63.5t69.5 -69.5q26 -35 40 -79 q14 -42 13 -91v-7q-1 -52 -15 -118q-38 -182 -192 -310t-332 -128h-8q-155 0 -249 86.5t-99 212.5z" />
<glyph unicode="T" horiz-adv-x="1138" d="M354 1296l52 240h976l-51 -240h-356q-1 0 -2 -1t-2 -1l-10 -4l-5 -10l-270 -1280h-240l246 1165l27 119q0 12 -10 12h-355z" />
<glyph unicode="U" horiz-adv-x="1155" d="M186 436l234 1098h239l-227 -1067q-6 -27 -5 -52q1 -69 43 -120q58 -70 157 -70t183.5 68t104.5 164l230 1077h239l-233 -1100q-27 -125 -116.5 -228.5t-212 -161.5t-247.5 -58q-128 0 -227 58.5t-144 162.5q-28 65 -28 138q0 44 10 91z" />
<glyph unicode="V" horiz-adv-x="1335" d="M362 1536h254l119 -973q11 -141 21 -141q15 23 82 141l534 973h256l-872 -1536h-178z" />
<glyph unicode="W" horiz-adv-x="1849" d="M387 1536h250l37 -1012q0 -18 2 -18q29 58 229.5 496.5t247.5 533.5h193l36 -1012l2 -18q3 0 9 6l471 1024h250l-740 -1536h-192q-35 743 -52 997q-81 -165 -466 -997h-187q-47 768 -90 1536z" />
<glyph unicode="X" horiz-adv-x="1288" d="M25 0l628 754l6 12q2 5 -2 12l-307 758h285l213 -528q4 -7 8 -7q6 0 10 7l439 528h284l-633 -758l-6 -12q0 -8 2 -12l312 -754h-285l-215 524q-3 6 -8 6q-8 0 -11 -6l-438 -524h-282z" />
<glyph unicode="Y" horiz-adv-x="1142" d="M350 1536h262l138 -664q3 -6 4 -6q7 0 10 6l418 662h260l-633 -981l-117 -553h-239l116 553z" />
<glyph unicode="Z" horiz-adv-x="1153" d="M90 0l39 184l422 512q111 134 471 578q6 6 6 12q3 10 -18 10h-645l51 240h968l-38 -180q-76 -95 -418 -510.5t-467 -571.5q-5 -6 -9.5 -11.5t-6.5 -8.5t-3 -4q0 -12 19 -12h649l-49 -238h-971z" />
<glyph unicode="[" horiz-adv-x="641" d="M33 -301q83 397 416 1966h450l-39 -188h-155q-10 0 -30.5 -1t-29.5 -1q-15 -55 -27 -111l-288 -1364l-23 -111q18 -2 60 -2h155l-41 -188h-448z" />
<glyph unicode="\" horiz-adv-x="684" d="M383 1520l123 34l119 -1531l-123 -35z" />
<glyph unicode="]" horiz-adv-x="612" d="M16 -301l41 188h211q28 103 39 160l271 1268q9 42 28 162h-211l39 188h451q-223 -1053 -420 -1966h-449z" />
<glyph unicode="^" horiz-adv-x="1089" d="M219 776l578 760h147q39 -116 123.5 -371t130.5 -389q-158 -22 -211 -28l-172 530l-395 -530q-141 21 -201 28z" />
<glyph unicode="_" horiz-adv-x="1333" d="M-55 -262l28 131h1332l-29 -131h-1331z" />
<glyph unicode="`" horiz-adv-x="620" d="M362 1325q82 124 107 160l352 -162l-119 -152z" />
<glyph unicode="a" horiz-adv-x="1196" d="M168 512q46 218 233.5 373t405.5 155q174 0 293 -106l20 90h213l-217 -1024h-213l19 88q-159 -104 -338 -104q-143 0 -250 71t-152 193q-27 72 -27 151q0 55 13 113zM393 512q-8 -37 -8 -70q0 -82 49 -145q69 -88 197 -88q127 0 233.5 87.5t134.5 215.5q7 35 7 67 q0 85 -50 149q-69 88 -196 87q-128 0 -234.5 -88t-132.5 -215z" />
<glyph unicode="b" horiz-adv-x="1222" d="M82 0l305 1436h227l-106 -496q154 100 323 100q143 0 250 -71t153 -193q27 -73 27 -154q0 -53 -12 -110q-31 -143 -128 -264.5t-233.5 -192.5t-279.5 -71q-170 0 -291 100l-16 -84h-219zM418 512q-8 -37 -8 -71q0 -83 49 -145q69 -88 196 -87q128 0 234.5 88t134.5 215 q7 35 7 67q-1 85 -51 149q-70 88 -196 87q-128 0 -234 -88t-132 -215z" />
<glyph unicode="c" horiz-adv-x="1132" d="M176 514q46 218 233 372t408 154q127 0 228 -62.5t155 -160.5l-199 -129q-75 125 -229 125q-126 0 -232 -87t-132 -212q-8 -37 -8 -70q0 -82 48 -145q68 -88 195 -88q86 0 162 40t133 114l186 -91q-91 -133 -233.5 -211.5t-296.5 -78.5q-145 0 -252.5 70.5t-151.5 192.5 q-26 72 -27 152q0 55 13 115z" />
<glyph unicode="d" horiz-adv-x="1198" d="M178 512q30 143 126.5 264.5t233.5 192.5t281 71q165 0 283 -100l104 494h226l-304 -1434h-219l19 88q-158 -104 -332 -104q-144 0 -251.5 71t-152.5 193q-27 72 -27 151q0 55 13 113zM406 512q-8 -37 -8 -71q0 -83 49 -145q69 -88 196 -87q126 0 232.5 88t134.5 215 q7 35 7 67q0 84 -50 148q-69 88 -195 88q-128 0 -234 -88t-132 -215z" />
<glyph unicode="e" horiz-adv-x="1099" d="M170 514q30 144 122 264t224.5 190t276.5 70t237 -66q94 -68 125 -180q16 -56 15.5 -119t-15.5 -134q-8 -38 -27 -109h-729q-5 0 -8 -6q2 -102 71 -163.5t183 -61.5q151 0 313 84l56 -170q-205 -129 -426 -129q-148 0 -255 70q-107 68 -151 190q-25 71 -25 151 q0 57 13 119zM432 610q0 -4 6 -4h490l10 2q4 20 4 40q0 60 -39 112q-52 70 -162 69q-100 0 -196.5 -71.5t-112.5 -147.5z" />
<glyph unicode="f" horiz-adv-x="923" d="M227 0l172 811h-161l43 205h161l29 137q28 128 120.5 205.5t219.5 77.5h182l-43 -201h-123q-113 0 -137 -115l-22 -104h297l-43 -205h-297l-172 -811h-226z" />
<glyph unicode="g" horiz-adv-x="1216" d="M131 -315l186 143q71 -98 213 -98q129 0 242.5 89.5t145.5 217.5l10 47q-154 -98 -324 -98q-144 0 -251.5 70.5t-152.5 191.5q-27 72 -27 151q0 55 13 113q30 143 126.5 264.5t233.5 192.5t281 71q176 0 289 -102l19 86h219l-203 -952q-50 -228 -244.5 -389.5 t-423.5 -161.5q-113 0 -204.5 43.5t-147.5 120.5zM422 512q-8 -37 -8 -71q0 -82 49 -145q69 -87 196 -87q128 0 234.5 88t134.5 215q7 35 7 67q0 85 -51 149q-69 87 -196 87q-128 0 -234 -88t-132 -215z" />
<glyph unicode="h" horiz-adv-x="1073" d="M84 0l303 1434h227l-96 -455q116 61 236 61q198 0 300 -121q72 -86 72 -209q0 -50 -12 -106l-127 -604h-227l125 590q5 24 5 47q0 62 -38 111q-52 67 -145 67q-96 0 -173 -56.5t-100 -164.5l-125 -594h-225z" />
<glyph unicode="i" horiz-adv-x="391" d="M82 0l217 1024h227l-217 -1024h-227zM346 1249q9 44 50.5 77.5t88.5 33.5q45 0 71 -34q20 -25 19 -56q0 -10 -2 -21q-9 -47 -50 -80.5t-87 -33.5q-48 1 -74 33q-19 23 -19 55q0 12 3 26z" />
<glyph unicode="j" horiz-adv-x="432" d="M-66 -479l48 227q1 0 12.5 1t15 2t14.5 3t16.5 4.5t15 7t15 10.5t12 13.5t10.5 18.5t7 24l254 1194h226l-273 -1278q-48 -227 -373 -227zM401 1249q9 44 51 77.5t89 33.5q43 0 70 -34q20 -26 20 -56q0 -10 -2 -21q-9 -46 -50.5 -80t-86.5 -34q-50 0 -76 33q-18 23 -18 55 q0 12 3 26z" />
<glyph unicode="k" horiz-adv-x="870" d="M86 0l315 1487h226l-189 -881q0 -6 4 -6q1 0 9 8q60 67 182 206t186 210h260l-399 -455l-43 -45l20 -51l203 -473h-260q-136 316 -174 403q-3 8 -6.5 17.5t-5.5 15t-4 8.5q-7 0 -7 -8l-92 -436h-225z" />
<glyph unicode="l" horiz-adv-x="397" d="M84 0l303 1432h227l-303 -1432h-227z" />
<glyph unicode="m" horiz-adv-x="1748" d="M84 0l217 1024h215l-12 -55q114 71 250 71q209 0 309 -137q159 137 367 137q199 0 300 -121q72 -86 72 -209q0 -50 -12 -106l-127 -604h-225l125 590q5 24 5 46q0 63 -40 112q-54 67 -144 67t-171 -61t-101 -148l-127 -606h-225l125 590q5 24 5 47q0 62 -38 111 q-52 67 -145 67q-97 0 -171 -52.5t-100 -160.5l-127 -602h-225z" />
<glyph unicode="n" horiz-adv-x="1071" d="M84 0l217 1024h213l-12 -55q113 71 252 71q198 0 300 -121q72 -86 72 -209q0 -50 -12 -106l-127 -604h-227l125 590q5 24 5 47q0 62 -38 111q-52 67 -145 67q-96 0 -170.5 -53.5t-100.5 -161.5l-127 -600h-225z" />
<glyph unicode="o" horiz-adv-x="1189" d="M176 514q46 218 233 372t408 154q143 0 249.5 -70.5t151.5 -191.5q27 -73 27 -153q0 -54 -12 -111q-31 -145 -127.5 -267t-232.5 -192.5t-279 -70.5q-145 0 -252.5 70.5t-151.5 192.5q-26 72 -27 152q0 55 13 115zM406 514q-8 -37 -8 -70q0 -82 48 -145q68 -88 194.5 -88 t233 88t134.5 215q7 34 7 66q0 83 -50 146q-69 87 -195 87t-232 -87t-132 -212z" />
<glyph unicode="p" horiz-adv-x="1222" d="M-4 -420l305 1444h219l-18 -86q161 102 332 102q143 0 250 -71t152 -193q27 -72 27 -153q0 -54 -12 -111q-31 -143 -128 -264.5t-233.5 -192.5t-279.5 -71q-167 0 -282 100l-107 -504h-225zM420 512q-8 -37 -8 -71q0 -82 49 -145q69 -87 196 -87q128 0 234.5 88 t134.5 215q7 35 7 67q0 85 -51 149q-69 87 -196 87q-128 0 -234 -88t-132 -215z" />
<glyph unicode="q" horiz-adv-x="1198" d="M176 307q-11 45 -11 94q0 54 13 111q46 218 233.5 373t405.5 155q174 0 291 -102l18 86h220l-308 -1444h-227l107 504q-151 -98 -324 -98q-107 0 -196.5 41.5t-144.5 112.5t-77 167zM403 512q-8 -37 -8 -70q0 -82 49 -145q69 -88 197 -88t234.5 88t134.5 215q7 35 7 67 q0 85 -51 149q-69 87 -196 87q-128 0 -234.5 -88t-132.5 -215z" />
<glyph unicode="r" horiz-adv-x="724" d="M84 0l217 1024h217l-12 -59q53 36 113.5 54t152.5 21h102l-47 -229h-94q-115 -2 -193.5 -54.5t-103.5 -156.5l-127 -600h-225z" />
<glyph unicode="s" horiz-adv-x="716" d="M100 172l189 107q24 -44 42 -58q23 -18 58 -18t67.5 26t39.5 62q2 9 2 18q0 36 -28 69q-34 41 -101 83q-18 11 -29.5 19t-29.5 21t-29 25.5t-24.5 29.5t-20.5 35.5t-12 41t-4 49.5t7 57q28 129 130 215t231 86q85 0 145 -51.5t80 -126.5l-184 -108q-10 23 -17.5 34 t-25 22t-43.5 11q-35 0 -64.5 -22.5t-36.5 -57.5q-5 -25 9 -48t33 -37.5t57.5 -40.5t58.5 -42q67 -53 98 -121q18 -40 19 -92q0 -37 -10 -81q-26 -126 -129.5 -210.5t-229.5 -84.5q-95 0 -162.5 53.5t-85.5 134.5z" />
<glyph unicode="t" horiz-adv-x="870" d="M227 811l43 205h269l65 305h227l-65 -305h264l-43 -205h-264l-172 -811h-227l172 811h-269z" />
<glyph unicode="u" horiz-adv-x="1067" d="M170 422l129 600h225l-125 -586q-6 -25 -6 -49q1 -61 39 -109q52 -66 143 -67q97 0 173 53.5t98 159.5l129 598h227l-217 -1022h-215l10 57q-107 -73 -250 -73q-199 0 -300 122q-72 86 -72 210q0 50 12 106z" />
<glyph unicode="v" horiz-adv-x="952" d="M244 1024h243q5 -48 16.5 -175t20.5 -216.5t19 -173.5l8 -76q0 -8 2 -12q5 4 23.5 39t25.5 45l297 567q41 0 122 1t122 1l-578 -1024h-180z" />
<glyph unicode="w" horiz-adv-x="1495" d="M246 1024h237q26 -461 45 -655q1 -4 1 -8.5v-7t1 -3.5q3 0 11.5 16.5t19.5 39t14 28.5q278 543 302 588h176q15 -162 55 -647q2 -10 2 -19q2 0 6 2l35 82l289 584h239l-530 -1024h-193l-79 635l-195 -359q-24 -45 -58 -107.5t-56.5 -105t-35.5 -63.5h-192z" />
<glyph unicode="x" horiz-adv-x="964" d="M23 0l430 510q1 2 -0.5 6.5t-1.5 5.5q-164 395 -211 502h272q21 -60 63.5 -175.5t47.5 -129.5q0 -8 8 -12l12 12l242 305h270l-420 -500q-5 -3 -12 -14l6 -12l211 -498h-272l-113 303q-2 2 -4 5.5t-4 4.5q-13 -9 -15 -12l-237 -301h-272z" />
<glyph unicode="y" horiz-adv-x="935" d="M90 -422l266 469q2 6 2 19l-6 79l-121 879h244q2 -19 20 -219.5t33 -302.5l15 -127q0 -2 1 -5.5t1 -4.5l10 14l70 125l276 522h238q-149 -269 -425.5 -762.5t-383.5 -685.5h-240z" />
<glyph unicode="z" horiz-adv-x="872" d="M80 0l35 166q38 41 104.5 119t93.5 108l70 76q242 278 270 311q10 8 15 17q0 8 -25 8h-393l47 219h707l-37 -172q-15 -17 -250.5 -282t-298.5 -345q3 -6 26 -6h394l-45 -219h-713z" />
<glyph unicode="{" horiz-adv-x="806" d="M256 598l41 197q107 9 168.5 74t89.5 200l55 260q30 135 68.5 207.5t116.5 114.5q48 26 103 35.5t144 9.5l-32 -170q-97 -9 -143 -61t-72 -171l-56 -262q-16 -75 -35.5 -125t-51.5 -92.5t-80 -69.5t-119 -45q-9 0 -9 -4t7 -4q83 -24 121.5 -66t41 -107t-17.5 -159 l-55 -262q-27 -117 -2.5 -169.5t118.5 -61.5l-39 -170q-89 0 -140.5 9.5t-88.5 35.5q-61 42 -69.5 119t22.5 202l55 261q29 135 -4.5 199t-136.5 75z" />
<glyph unicode="|" horiz-adv-x="391" d="M94 -8l332 1564h197l-332 -1564h-197z" />
<glyph unicode="}" horiz-adv-x="829" d="M66 -303l34 170q98 9 144 60t71 171l56 262q31 150 89.5 223.5t194.5 108.5q11 0 11 4t-9 4q-84 24 -122 66t-40 107t19 159l55 262q27 115 2.5 169t-118.5 63l34 170q89 0 142 -9.5t92 -35.5q60 -42 68 -120t-23 -202l-55 -260q-28 -135 5.5 -200t137.5 -74l-41 -197 q-109 -11 -170 -75t-90 -199l-55 -261q-30 -137 -67.5 -208t-115.5 -113q-52 -26 -106.5 -35.5t-142.5 -9.5z" />
<glyph unicode="~" horiz-adv-x="1269" d="M203 371v157q24 39 117.5 89.5t216.5 50.5h12q59 -2 143 -30.5t159.5 -57t113.5 -29.5h10q151 3 307 113l4 -146q-21 -41 -118.5 -95t-223.5 -54h-10q-46 0 -101.5 17.5t-100.5 39t-104.5 40.5t-111.5 21h-20q-63 0 -130.5 -28.5t-162.5 -87.5z" />
<glyph unicode="&#xa1;" horiz-adv-x="401" d="M84 -8l260 1229h231l-260 -1229h-231zM385 1421q9 46 51.5 80.5t89.5 34.5t74 -34.5t18 -80.5q-10 -49 -51.5 -82.5t-89.5 -33.5t-75 33.5t-17 82.5z" />
<glyph unicode="&#xa2;" horiz-adv-x="1136" d="M172 514q38 183 182.5 325.5t329.5 184.5l41 190h205l-39 -182q102 -18 180.5 -75.5t124.5 -139.5l-197 -125q-55 102 -155 125l-129 -610q64 16 130.5 58t98.5 93l176 -84q-82 -117 -200 -191t-252 -93l-35 -166h-205l39 176q-167 40 -250.5 183.5t-44.5 330.5zM387 514 q-21 -98 14 -175.5t113 -113.5l123 576q-94 -37 -162 -114.5t-88 -172.5z" />
<glyph unicode="&#xa3;" horiz-adv-x="1261" d="M182 0l49 240h95q54 0 102 38t64 115q12 55 -18 165t-56 149h-152l39 188h88q-11 103 6 180q43 203 209 340t371 137q220 0 338 -143l-215 -158q-39 60 -170 60q-101 0 -184.5 -64.5t-102.5 -154.5q-11 -62 -9 -114.5t13 -80.5h400l-41 -190h-326q40 -103 51.5 -169.5 t-0.5 -136.5q-7 -33 -22 -63.5t-27.5 -47.5t-38.5 -48h146q105 0 164.5 48t84.5 150l226 -4q-30 -145 -118 -245.5t-205.5 -145.5t-258.5 -45h-502z" />
<glyph unicode="&#xa4;" horiz-adv-x="1359" d="M141 221l238 197q-66 130 -33 278q16 75 54 138.5t102 142.5q-14 18 -50 61.5t-61 75t-47 62.5l123 102q46 -57 158 -201q154 94 309 94q114 0 215 -69l35 -25l243 199l84 -100l-239 -197l16 -43q45 -120 21 -242q-14 -66 -51 -131t-101 -145l154 -197l-123 -104 l-156 198q-65 -46 -150 -73t-161 -27q-116 0 -262 96l-41 -32l-197 -162zM524 696q-26 -125 44 -215t194 -90t233 90t135 215q26 123 -45 214t-194 91t-232 -91t-135 -214z" />
<glyph unicode="&#xa5;" horiz-adv-x="1304" d="M201 578l32 151h379l-47 209h-286l30 149h221q-12 59 -98 449h260l139 -664q3 -6 5 -6q7 0 10 6l418 662h260l-289 -447h215l-31 -149h-280l-135 -209h370l-33 -151h-436q-1 -2 -6.5 -11.5t-7.5 -15.5l-117 -551h-239l116 551l-8 27h-442z" />
<glyph unicode="&#xa6;" horiz-adv-x="389" d="M90 -23l137 646h197l-137 -646h-197zM293 930l137 647h197l-138 -647h-196z" />
<glyph unicode="&#xa7;" horiz-adv-x="1241" d="M84 -160l246 74q16 -22 30.5 -38t39.5 -35t60 -29.5t77 -10.5q66 0 127.5 33.5t74.5 91.5q9 41 -1 71.5t-52.5 59.5t-67.5 41.5t-100 44.5q-13 6 -20.5 9t-19 8.5t-21.5 9.5q-4 4 -19 8q-39 16 -71 34t-64 43t-53 53t-37.5 65t-17 79t7.5 95q24 109 85 183t193 167 q-53 53 -67 107t2 118q36 166 181 265.5t329 99.5q107 0 205 -33t155 -96q-78 -164 -115 -246q-1 1 -19.5 20t-22.5 22t-22 20t-26.5 21.5t-26.5 17.5t-31.5 17t-33 11t-39 9.5t-41.5 2.5q-79 0 -142.5 -42t-80.5 -117q-7 -34 4.5 -59.5t45 -47.5t68.5 -39t95 -45t105 -53 q69 -32 117.5 -63.5t87 -73t51.5 -93.5t0 -114q-26 -122 -95.5 -200t-220.5 -161q45 -55 58 -104.5t-1 -124.5q-34 -158 -176 -257t-313 -99q-96 0 -176 24.5t-131.5 65t-82 89.5t-38.5 101zM461 571q-23 -112 90 -172q215 -98 258 -118q37 21 55 32.5t49 36t49 54.5t25 67 q12 56 -21.5 105.5t-115.5 85.5l-229 98l-43 -33q-28 -21 -46.5 -37.5t-41 -49.5t-29.5 -69z" />
<glyph unicode="&#xa8;" horiz-adv-x="786" d="M379 1341q9 47 48 79t87 32q45 0 72 -33t18 -78q-11 -46 -51 -79t-86 -33q-47 0 -72.5 32.5t-15.5 79.5zM750 1341q9 47 49 79t86 32t72.5 -32.5t17.5 -78.5q-11 -46 -50.5 -79t-86.5 -33q-46 0 -72 32.5t-16 79.5z" />
<glyph unicode="&#xa9;" horiz-adv-x="1662" d="M233 504q-12 110 11 233q32 151 121.5 289t210.5 237.5t270.5 158.5t298.5 59q204 0 354 -100t211.5 -271t18.5 -373q-42 -200 -176.5 -370.5t-327 -270.5t-396.5 -100q-119 0 -224 38t-181 106t-127.5 161t-63.5 203zM339 536q9 -95 52.5 -174.5t109 -137.5t156.5 -90 t195 -32q173 0 339.5 84.5t285 231t155.5 319.5q20 107 9.5 202t-55 175t-111 137.5t-158 90t-195.5 32.5q-174 0 -338.5 -85t-280.5 -231.5t-153 -320.5q-20 -106 -11 -201zM584 737q37 176 187.5 301t332.5 125q84 0 146.5 -26.5t97.5 -63.5l-101 -108q-58 63 -172 63 q-125 0 -228.5 -84t-129.5 -205q-25 -119 43.5 -204.5t189.5 -85.5q113 0 197 61l61 -107q-46 -35 -122 -62.5t-162 -27.5q-181 0 -279 124.5t-61 299.5z" />
<glyph unicode="&#xaa;" horiz-adv-x="851" d="M307 1130q31 148 157 251.5t275 103.5q117 0 195 -72l14 62h146l-150 -695q-36 14 -92 41l-39 25q-109 -72 -225 -72q-149 0 -231 104t-50 252zM459 1130q-19 -88 27.5 -146t134.5 -58q85 0 155.5 58.5t89.5 145.5q19 86 -27.5 145.5t-131.5 59.5q-87 0 -158 -59 t-90 -146z" />
<glyph unicode="&#xab;" horiz-adv-x="917" d="M186 557l351 414l133 -107l-269 -309l134 -305l-168 -111q-45 105 -87 200.5t-61 139.5t-33 78zM537 557l350 414l133 -107l-268 -309l133 -305l-168 -111q-177 410 -180 418z" />
<glyph unicode="&#xac;" horiz-adv-x="1222" d="M209 649l39 185h1071l-143 -674h-185l105 489h-887z" />
<glyph unicode="&#xad;" horiz-adv-x="843" d="M201 496l39 184h649l-39 -184h-649z" />
<glyph unicode="&#xae;" horiz-adv-x="1744" d="M250 768q34 158 128 303t221.5 250t285.5 168t315 63q108 0 205 -28.5t171 -80t132 -123t88 -159t38 -187t-17 -206.5q-33 -158 -125 -302.5t-219 -250.5t-286 -168.5t-321 -62.5q-209 0 -367 106t-225.5 287t-23.5 391zM349 554q10 -101 56 -185.5t114.5 -145.5t164 -95 t205.5 -34q185 0 361.5 89.5t302.5 245t165 339.5q39 183 -20.5 338.5t-198 245.5t-323.5 90q-183 0 -356.5 -90t-297 -245.5t-162.5 -338.5q-21 -113 -11 -214zM707 311l194 914h191q147 0 215 -70.5t39 -202.5q-20 -98 -80.5 -165t-145.5 -91q-3 0 -6 -8l119 -377h-150 q-12 37 -37.5 126.5t-43.5 145.5t-25 56q-28 33 -55 33q-7 0 -7 -6l-75 -355h-133zM944 803q0 -4 6 -4h94q68 0 111.5 48.5t54.5 104.5q5 32 2.5 64.5t-29 58t-73.5 25.5h-94q-10 0 -10 -8l-58 -265z" />
<glyph unicode="&#xaf;" horiz-adv-x="837" d="M369 1286l39 184h643l-39 -184h-643z" />
<glyph unicode="&#xb0;" horiz-adv-x="837" d="M332 1153q29 137 146 233.5t253 96.5q137 0 213 -97t47 -233q-29 -137 -146 -233.5t-253 -96.5q-137 0 -213 97t-47 233zM449 1153q-19 -89 30 -152t137 -63q89 0 165.5 63t95.5 152q19 88 -31 150.5t-139 62.5q-88 0 -163.5 -62.5t-94.5 -150.5z" />
<glyph unicode="&#xb1;" horiz-adv-x="1249" d="M90 37l39 184h1081l-39 -184h-1081zM205 578l39 180h448l64 297h180l-64 -297h453l-39 -180h-452l-62 -293h-180l61 293h-448z" />
<glyph unicode="&#xb2;" horiz-adv-x="751" d="M238 614l34 172q10 10 208 163t249 204q62 58 70 107q14 60 -20 103.5t-95 43.5q-49 0 -94 -28.5t-70 -73.5l-125 45q48 88 135.5 144t182.5 56q122 0 189.5 -85t41.5 -205q-12 -58 -61 -123.5t-128 -134t-149.5 -122t-165.5 -118.5q-2 -2 3 -3l10 -1h389l-31 -144h-573z " />
<glyph unicode="&#xb3;" horiz-adv-x="739" d="M258 850q94 12 141 20q2 -55 35.5 -88.5t89.5 -33.5q63 0 119.5 46.5t69.5 112.5q12 63 -19 114.5t-88 61.5q-2 1 -20 5t-27 8l23 112l45 13q1 1 8 5.5t9.5 6.5t9 6.5t9.5 9t7.5 11t7 14t4.5 16.5q2 8 2 23q15 12 18 33q6 28 -5.5 47.5t-41.5 19.5q-71 0 -135 -72l-59 97 q38 55 98.5 85.5t128.5 30.5q85 0 133.5 -64.5t28.5 -156.5q-21 -92 -88 -157q-6 -3 -6 -7l8 -6q62 -44 84.5 -111.5t3.5 -150.5q-26 -123 -130 -210t-228 -87q-107 0 -178 71t-58 175z" />
<glyph unicode="&#xb4;" horiz-adv-x="622" d="M362 1323l422 162q6 -31 20 -90t17 -70l-405 -154z" />
<glyph unicode="&#xb6;" horiz-adv-x="1257" d="M311 1094q23 107 76 180.5t133 112.5t169 55t204 16h588l-404 -1892h-209l359 1685h-207l-358 -1685h-209l252 1177q-219 2 -324 94.5t-70 256.5z" />
<glyph unicode="&#xb7;" horiz-adv-x="387" d="M254 774q9 42 46.5 73.5t82.5 31.5q39 0 62.5 -32.5t15.5 -72.5q-9 -41 -45.5 -71.5t-77.5 -30.5q-45 0 -69 29.5t-15 72.5z" />
<glyph unicode="&#xb8;" horiz-adv-x="579" d="M4 -377q44 79 47 86q71 -33 137 -33q32 0 59 18t34 52t-13 52t-47 18q-3 0 -17 -2t-22 -2l-84 16l160 172h107l-103 -104q5 0 22 3t33 3q67 0 101.5 -42t19.5 -114q-14 -63 -60.5 -108t-100 -64.5t-107.5 -19.5q-44 0 -90.5 19t-75.5 50z" />
<glyph unicode="&#xb9;" horiz-adv-x="403" d="M264 614l166 779q3 10 -10 10h-129l28 133h285l-196 -922h-144z" />
<glyph unicode="&#xba;" horiz-adv-x="843" d="M307 1128q31 147 156 250t274 103q146 0 228 -103.5t51 -249.5q-32 -149 -157 -252.5t-271 -103.5q-149 0 -231 103.5t-50 252.5zM461 1128q-19 -86 27.5 -144t132.5 -58q85 0 154.5 58t88.5 144q17 84 -29 142.5t-130 58.5q-86 0 -156.5 -58.5t-87.5 -142.5z" />
<glyph unicode="&#xbb;" horiz-adv-x="935" d="M121 246l266 307l-133 307l170 111l180 -416q0 -8 -352 -416zM471 246l266 307l-133 307l170 111l180 -416q0 -8 -352 -416z" />
<glyph unicode="&#xbc;" horiz-adv-x="1597" d="M328 537l180 843q4 15 -8 15h-142l31 143h307l-213 -1001h-155zM444 16l768 1534l109 -30l-764 -1528q-5 1 -48 9.5t-65 14.5zM858 168l31 147l301 357q235 281 276 325h146l-133 -626q-1 -4 -4 -15t-3.5 -15.5t0.5 -10.5t7.5 -8.5t17.5 -2.5h70l-33 -155h-70 q-11 0 -18.5 -2t-11 -8t-5 -9t-3 -12.5t-1.5 -11.5l-24 -121h-154l33 160q3 8 -6 8h-416zM1063 322q-3 -7 2 -7h238q9 0 12 9q19 90 47 233l35 168q-2 -2 -2 -4q-15 -20 -47.5 -57t-107 -126t-177.5 -216z" />
<glyph unicode="&#xbd;" horiz-adv-x="1642" d="M328 537l180 843q4 15 -8 15h-142l31 143h307l-213 -1001h-155zM444 16l768 1534l109 -30l-764 -1528q-5 1 -48 9.5t-65 14.5zM942 0l39 184q13 11 119 92t215.5 169t150.5 130q67 60 76 115q10 49 -25.5 103.5t-99.5 54.5q-51 0 -98 -31t-76 -80l-133 49 q51 94 145 153.5t195 59.5q129 0 202.5 -91t45.5 -218q-11 -50 -36.5 -95.5t-73.5 -94.5t-102 -93t-143 -110l-118 -88l-68 -51q0 -4 12 -4h418l-31 -154h-614z" />
<glyph unicode="&#xbe;" horiz-adv-x="1800" d="M233 782l152 21q2 -58 37.5 -94.5t95.5 -36.5q67 0 126.5 50.5t74.5 121.5q15 68 -18.5 122.5t-94.5 65.5l-49 12l21 121q1 0 11.5 5t12.5 6t11.5 6t12.5 7t11.5 7t12 8.5t10 9.5t10.5 11.5t9 12.5t9 15q22 14 31 50q6 34 -10 58.5t-50 24.5q-46 0 -98 -36l-49 -41 l-63 104q97 125 245 125q89 0 143 -66t33 -163q-20 -103 -104 -187q144 -101 104 -284q-28 -132 -140.5 -226t-244.5 -94q-114 0 -193 78.5t-59 185.5zM639 16l768 1534l109 -30l-764 -1528q-5 1 -48 9.5t-65 14.5zM1053 168l30 147l289 340q50 59 154.5 184t134.5 158h145 l-133 -626q-1 -4 -3.5 -13t-3 -13t-0.5 -10t2.5 -9t8.5 -5t15 -2h69l-32 -155h-70q-11 0 -18.5 -2t-11 -8t-5 -9t-3 -12.5t-1.5 -11.5l-25 -121h-153l33 160q3 8 -7 8h-415zM1257 322q-3 -7 3 -7h237q9 0 12 9q19 90 47 233l35 168q-2 -2 -2 -4q-15 -20 -47.5 -57t-107 -126 t-177.5 -216z" />
<glyph unicode="&#xbf;" horiz-adv-x="888" d="M135 360q16 74 49 136.5t74 105.5t87.5 80t92 70t84.5 66.5t68.5 77.5t40.5 95q15 75 -4 197l231 33q27 -131 8 -230q-16 -73 -49 -136t-74 -108t-87.5 -85.5t-91.5 -74.5t-83 -67t-65.5 -72t-36.5 -81q-31 -138 108 -138q24 0 50 7.5t45 16t45.5 27.5t38.5 28.5 t38.5 32.5t32.5 28l125 -156q-71 -82 -192.5 -151.5t-237.5 -69.5q-167 0 -250.5 95t-46.5 273zM655 1434q11 46 52 80t90 34q47 0 74.5 -34t17.5 -80q-9 -49 -51 -83t-90 -34q-49 0 -75.5 33.5t-17.5 83.5z" />
<glyph unicode="&#xc0;" horiz-adv-x="1398" d="M33 0l901 1536h178l254 -1536h-254q-46 315 -70 315h-557q-14 0 -20 -12l-178 -303h-254zM612 551q-4 -8 6 -8h388q11 0 14 10v6l-82 541q-2 2 -3 5t-3 3q-4 0 -4 -8l-312 -541q-4 -2 -4 -8zM836 1735q87 132 106 159l352 -161l-118 -152z" />
<glyph unicode="&#xc1;" horiz-adv-x="1398" d="M33 0l901 1536h178l254 -1536h-254q-46 315 -70 315h-557q-14 0 -20 -12l-178 -303h-254zM612 551q-4 -8 6 -8h388q11 0 14 10v6l-82 541q-2 2 -3 5t-3 3q-4 0 -4 -8l-312 -541q-4 -2 -4 -8zM836 1733l421 161q6 -31 20 -88.5t17 -70.5l-405 -154z" />
<glyph unicode="&#xc2;" horiz-adv-x="1398" d="M33 0l901 1536h178l254 -1536h-254q-46 315 -70 315h-557q-14 0 -20 -12l-178 -303h-254zM612 551q-4 -8 6 -8h388q11 0 14 10v6l-82 541q-2 2 -3 5t-3 3q-4 0 -4 -8l-312 -541q-4 -2 -4 -8zM797 1769l297 111l252 -115l-101 -155q-47 14 -190 86q-181 -72 -226 -82z" />
<glyph unicode="&#xc3;" horiz-adv-x="1398" d="M33 0l901 1536h178l254 -1536h-254q-46 315 -70 315h-557q-14 0 -20 -12l-178 -303h-254zM612 551q-4 -8 6 -8h388q11 0 14 10v6l-82 541q-2 2 -3 5t-3 3q-4 0 -4 -8l-312 -541q-4 -2 -4 -8zM739 1681l6 162q110 94 222 94q49 0 133 -30.5t119 -30.5q53 0 98.5 20.5 t105.5 61.5v-148q-40 -44 -98.5 -79t-116.5 -35q-46 0 -137.5 32.5t-134.5 32.5q-50 0 -103 -22t-94 -58z" />
<glyph unicode="&#xc4;" horiz-adv-x="1398" d="M33 0l901 1536h178l254 -1536h-254q-46 315 -70 315h-557q-14 0 -20 -12l-178 -303h-254zM612 551q-4 -8 6 -8h388q11 0 14 10v6l-82 541q-2 2 -3 5t-3 3q-4 0 -4 -8l-312 -541q-4 -2 -4 -8zM770 1751q9 47 48 79t87 32q45 0 72 -33t18 -78q-11 -46 -51 -79.5t-86 -33.5 q-47 0 -72.5 33t-15.5 80zM1141 1751q9 47 49 79t86 32t72.5 -32.5t17.5 -78.5q-11 -46 -50.5 -79.5t-86.5 -33.5q-46 0 -72 33t-16 80z" />
<glyph unicode="&#xc5;" horiz-adv-x="1398" d="M33 0l901 1536h178l254 -1536h-254q-46 315 -70 315h-557q-14 0 -20 -12l-178 -303h-254zM612 551q-4 -8 6 -8h388q11 0 14 10v6l-82 541q-2 2 -3 5t-3 3q-4 0 -4 -8l-312 -541q-4 -2 -4 -8zM918 1716q13 61 63.5 102.5t110.5 41.5q61 0 93.5 -42t20.5 -102 q-12 -61 -63 -102t-113 -41q-61 0 -92.5 40.5t-19.5 102.5zM973 1716q-8 -39 11.5 -64.5t57.5 -25.5q37 0 69.5 26t39.5 64q7 37 -14 62.5t-58 25.5q-38 0 -68 -25.5t-38 -62.5z" />
<glyph unicode="&#xc6;" horiz-adv-x="1740" d="M33 0l997 1536h952l-51 -240h-547q-12 0 -14 -10l-82 -385q-2 -10 10 -10h547l-51 -240h-547q-11 0 -14 -10l-84 -391q0 -12 10 -12h547l-49 -238h-799l66 315h-412q-14 0 -20 -12l-205 -303h-254zM645 551q-4 -8 6 -8h322l147 694l2 8q2 9 4 26t4 25q-4 0 -4 -4l-4 -2 l-473 -731q-4 -2 -4 -8z" />
<glyph unicode="&#xc7;" horiz-adv-x="1441" d="M254 766q34 159 127.5 304.5t221 251t286 168t317.5 62.5q84 0 159 -15.5t121.5 -35t88 -47.5t56 -41.5t28.5 -28.5l-186 -192q-121 121 -320 121q-152 -2 -293 -75.5t-239 -198.5t-129 -273q-16 -88 -14 -168t33.5 -149t83 -119.5t136 -79.5t191.5 -29q198 0 370 121 l105 -192q-28 -20 -59.5 -39t-101.5 -52.5t-165.5 -54t-198.5 -20.5q-44 0 -88 6l-92 -94q5 0 22.5 3t33.5 3q67 0 101 -42t19 -114q-14 -63 -60.5 -108t-100 -64.5t-107.5 -19.5q-44 0 -90.5 19t-75.5 50q44 79 47 86q71 -33 137 -33q32 0 59 18t34 52t-13 52t-47 18 q-3 0 -17 -2t-22 -2l-84 16l160 172h29q-170 37 -289.5 146t-166.5 272t-7 348z" />
<glyph unicode="&#xc8;" horiz-adv-x="999" d="M100 0l326 1536h799l-51 -240h-549q-13 0 -15 -10l-82 -385q-1 -6 1.5 -8t9.5 -2h548l-51 -240h-549q-11 0 -14 -10l-84 -391q0 -12 10 -12h549l-49 -238h-799zM637 1735q87 132 106 159l353 -161l-119 -152z" />
<glyph unicode="&#xc9;" horiz-adv-x="999" d="M100 0l326 1536h799l-51 -240h-549q-13 0 -15 -10l-82 -385q-1 -6 1.5 -8t9.5 -2h548l-51 -240h-549q-11 0 -14 -10l-84 -391q0 -12 10 -12h549l-49 -238h-799zM637 1733l422 161q6 -31 20 -88.5t17 -70.5l-406 -154z" />
<glyph unicode="&#xca;" horiz-adv-x="999" d="M100 0l326 1536h799l-51 -240h-549q-13 0 -15 -10l-82 -385q-1 -6 1.5 -8t9.5 -2h548l-51 -240h-549q-11 0 -14 -10l-84 -391q0 -12 10 -12h549l-49 -238h-799zM598 1769l297 111l252 -115l-100 -155q-49 15 -191 86q-182 -72 -225 -82z" />
<glyph unicode="&#xcb;" horiz-adv-x="999" d="M100 0l326 1536h799l-51 -240h-549q-13 0 -15 -10l-82 -385q-1 -6 1.5 -8t9.5 -2h548l-51 -240h-549q-11 0 -14 -10l-84 -391q0 -12 10 -12h549l-49 -238h-799zM571 1751q9 47 48.5 79t87.5 32q45 0 72 -33t18 -78q-11 -46 -51.5 -79.5t-86.5 -33.5q-47 0 -72.5 33 t-15.5 80zM942 1751q9 47 49 79t86 32t72.5 -32.5t17.5 -78.5q-11 -46 -50.5 -79.5t-86.5 -33.5q-46 0 -72 33t-16 80z" />
<glyph unicode="&#xcc;" horiz-adv-x="436" d="M98 0l326 1534h238l-326 -1534h-238zM360 1735q70 106 107 159l352 -161l-119 -152z" />
<glyph unicode="&#xcd;" horiz-adv-x="436" d="M98 0l326 1534h238l-326 -1534h-238zM360 1733l422 161q6 -31 20 -88.5t17 -70.5l-405 -154z" />
<glyph unicode="&#xce;" horiz-adv-x="436" d="M98 0l326 1534h238l-326 -1534h-238zM322 1769l296 111l252 -115l-100 -155q-47 14 -190 86q-181 -72 -226 -82z" />
<glyph unicode="&#xcf;" horiz-adv-x="436" d="M98 0l326 1534h238l-326 -1534h-238zM295 1751q9 47 48 79t87 32q45 0 72 -33t18 -78q-11 -46 -51 -79.5t-86 -33.5q-47 0 -72.5 33t-15.5 80zM666 1751q9 47 49 79t86 32t72.5 -32.5t17.5 -78.5q-11 -46 -50.5 -79.5t-86.5 -33.5q-46 0 -72 33t-16 80z" />
<glyph unicode="&#xd0;" horiz-adv-x="1665" d="M217 625l45 209h236l149 702h488q210 0 365 -104t219 -280.5t20 -383.5q-44 -208 -183.5 -384.5t-338 -280t-408.5 -103.5h-487l131 625h-236zM612 250q0 -12 11 -12h235q147 0 284 69.5t232.5 191.5t126.5 269t-12 268.5t-149 190.5t-253 69h-239q-12 0 -14 -10 l-97 -452h236l-45 -209h-236z" />
<glyph unicode="&#xd1;" horiz-adv-x="1390" d="M98 0l326 1534h250q64 -155 208.5 -499.5t219.5 -528.5q18 -44 39 -84l26 123l211 989h240l-326 -1534h-252l-426 1024q-7 16 -22.5 44.5t-20.5 39.5q-2 -12 -11.5 -55t-14.5 -68l-209 -985h-238zM735 1681l6 162q110 94 222 94q49 0 133 -30.5t118 -30.5q53 0 99 20.5 t106 61.5v-148q-40 -44 -98.5 -79t-116.5 -35q-46 0 -137 32.5t-135 32.5q-50 0 -103 -22t-94 -58z" />
<glyph unicode="&#xd2;" horiz-adv-x="1748" d="M239 520q-12 117 13 248q34 160 127 305t220.5 250t286 167t318.5 62q128 0 239.5 -40t191.5 -111t133.5 -169.5t65.5 -215.5t-13 -248q-34 -160 -127 -305t-220 -250t-285.5 -167t-318.5 -62q-128 0 -239.5 40t-192 111t-134 169.5t-65.5 215.5zM489 768 q-31 -148 15.5 -274t157 -199.5t258.5 -73.5t289.5 73.5t241 199.5t130.5 274t-15 273.5t-155.5 198.5t-257.5 73t-290 -73t-242.5 -198.5t-131.5 -273.5zM1012 1735q87 132 106 159l352 -161l-118 -152z" />
<glyph unicode="&#xd3;" horiz-adv-x="1748" d="M239 520q-12 117 13 248q34 160 127 305t220.5 250t286 167t318.5 62q128 0 239.5 -40t191.5 -111t133.5 -169.5t65.5 -215.5t-13 -248q-34 -160 -127 -305t-220 -250t-285.5 -167t-318.5 -62q-128 0 -239.5 40t-192 111t-134 169.5t-65.5 215.5zM489 768 q-31 -148 15.5 -274t157 -199.5t258.5 -73.5t289.5 73.5t241 199.5t130.5 274t-15 273.5t-155.5 198.5t-257.5 73t-290 -73t-242.5 -198.5t-131.5 -273.5zM1012 1733l422 161q4 -24 10 -50.5t14 -58.5t12 -50l-405 -154z" />
<glyph unicode="&#xd4;" horiz-adv-x="1748" d="M239 520q-12 117 13 248q34 160 127 305t220.5 250t286 167t318.5 62q128 0 239.5 -40t191.5 -111t133.5 -169.5t65.5 -215.5t-13 -248q-34 -160 -127 -305t-220 -250t-285.5 -167t-318.5 -62q-128 0 -239.5 40t-192 111t-134 169.5t-65.5 215.5zM489 768 q-31 -148 15.5 -274t157 -199.5t258.5 -73.5t289.5 73.5t241 199.5t130.5 274t-15 273.5t-155.5 198.5t-257.5 73t-290 -73t-242.5 -198.5t-131.5 -273.5zM973 1769l297 111l252 -115l-101 -155q-47 14 -190 86q-182 -72 -225 -82z" />
<glyph unicode="&#xd5;" horiz-adv-x="1748" d="M239 520q-12 117 13 248q34 160 127 305t220.5 250t286 167t318.5 62q128 0 239.5 -40t191.5 -111t133.5 -169.5t65.5 -215.5t-13 -248q-34 -160 -127 -305t-220 -250t-285.5 -167t-318.5 -62q-128 0 -239.5 40t-192 111t-134 169.5t-65.5 215.5zM489 768 q-31 -148 15.5 -274t157 -199.5t258.5 -73.5t289.5 73.5t241 199.5t130.5 274t-15 273.5t-155.5 198.5t-257.5 73t-290 -73t-242.5 -198.5t-131.5 -273.5zM913 1681l7 162q110 94 221 94q49 0 133 -30.5t119 -30.5q53 0 98.5 20.5t105.5 61.5v-148q-40 -44 -98.5 -79 t-116.5 -35q-46 0 -137 32.5t-135 32.5q-50 0 -103 -22t-94 -58z" />
<glyph unicode="&#xd6;" horiz-adv-x="1748" d="M239 520q-12 117 13 248q34 160 127 305t220.5 250t286 167t318.5 62q128 0 239.5 -40t191.5 -111t133.5 -169.5t65.5 -215.5t-13 -248q-34 -160 -127 -305t-220 -250t-285.5 -167t-318.5 -62q-128 0 -239.5 40t-192 111t-134 169.5t-65.5 215.5zM489 768 q-31 -148 15.5 -274t157 -199.5t258.5 -73.5t289.5 73.5t241 199.5t130.5 274t-15 273.5t-155.5 198.5t-257.5 73t-290 -73t-242.5 -198.5t-131.5 -273.5zM946 1751q9 47 48 79t87 32q45 0 72 -33t18 -78q-11 -46 -51 -79.5t-86 -33.5q-47 0 -72.5 33t-15.5 80zM1317 1751 q9 47 49 79t86 32t72.5 -32.5t17.5 -78.5q-11 -46 -50.5 -79.5t-86.5 -33.5q-46 0 -72 33t-16 80z" />
<glyph unicode="&#xd7;" horiz-adv-x="1103" d="M182 221l365 299l-230 293l154 127l231 -293l361 299l102 -127l-364 -299l233 -295l-155 -129l-232 297l-362 -299z" />
<glyph unicode="&#xd8;" horiz-adv-x="1744" d="M250 768q34 160 127 305t220.5 250t286 167t318.5 62q62 0 141 -14l56 104h131l-70 -139q210 -83 311 -284.5t48 -450.5q-34 -160 -127 -305t-220 -250t-285.5 -167t-318.5 -62q-81 0 -163 16l-52 -98h-131l68 135q-202 88 -297 286t-43 445zM487 768q-35 -164 26.5 -299 t193.5 -201l522 1039q-37 6 -78 6q-148 0 -290 -73t-242.5 -198.5t-131.5 -273.5zM821 231q48 -10 97 -10q148 0 289.5 73.5t241 199.5t130.5 274q36 169 -30 306t-206 200z" />
<glyph unicode="&#xd9;" horiz-adv-x="1155" d="M186 436l234 1098h239l-227 -1067q-21 -102 37.5 -172t157.5 -70t183.5 68t104.5 164l230 1077h239l-233 -1100q-27 -125 -116.5 -228.5t-212 -161.5t-247.5 -58q-128 0 -227 58.5t-144 162.5t-18 229zM713 1735l106 159l352 -161l-118 -152z" />
<glyph unicode="&#xda;" horiz-adv-x="1155" d="M186 436l234 1098h239l-227 -1067q-21 -102 37.5 -172t157.5 -70t183.5 68t104.5 164l230 1077h239l-233 -1100q-27 -125 -116.5 -228.5t-212 -161.5t-247.5 -58q-128 0 -227 58.5t-144 162.5t-18 229zM713 1733l422 161q4 -24 10 -50.5t14 -58.5t12 -50l-405 -154z" />
<glyph unicode="&#xdb;" horiz-adv-x="1155" d="M186 436l234 1098h239l-227 -1067q-21 -102 37.5 -172t157.5 -70t183.5 68t104.5 164l230 1077h239l-233 -1100q-27 -125 -116.5 -228.5t-212 -161.5t-247.5 -58q-128 0 -227 58.5t-144 162.5t-18 229zM676 1769l297 111l252 -115l-101 -155q-47 14 -190 86 q-182 -72 -225 -82z" />
<glyph unicode="&#xdc;" horiz-adv-x="1155" d="M186 436l234 1098h239l-227 -1067q-21 -102 37.5 -172t157.5 -70t183.5 68t104.5 164l230 1077h239l-233 -1100q-27 -125 -116.5 -228.5t-212 -161.5t-247.5 -58q-128 0 -227 58.5t-144 162.5t-18 229zM649 1751q9 47 48 79t87 32q45 0 72 -33t18 -78q-11 -46 -51 -79.5 t-86 -33.5q-47 0 -72.5 33t-15.5 80zM1020 1751q9 47 49 79t86 32t72.5 -32.5t17.5 -78.5q-11 -46 -50.5 -79.5t-86.5 -33.5q-46 0 -72 33t-16 80z" />
<glyph unicode="&#xdd;" horiz-adv-x="1142" d="M350 1536h262l138 -664q3 -6 4 -6q7 0 10 6l418 662h260l-633 -981l-117 -553h-239l116 553zM709 1733l421 161q6 -31 20 -88.5t17 -70.5l-405 -154z" />
<glyph unicode="&#xde;" horiz-adv-x="1366" d="M96 0l326 1536h240l-62 -285q34 0 97 1t73 1q129 0 218 -60.5t123 -165.5t7 -234q-42 -198 -197.5 -334.5t-349.5 -136.5h-155q-15 0 -15 -13l-65 -309h-240zM457 569q-1 -4 2.5 -7t9.5 -3h127q54 0 99.5 16t75.5 40.5t53.5 56.5t35.5 61.5t19 59.5q3 28 5.5 58t-9 59.5 t-31 53t-59 38t-93.5 14.5h-127q-12 0 -18 -15z" />
<glyph unicode="&#xdf;" horiz-adv-x="1101" d="M96 0l230 1081q42 198 176 326.5t305 128.5h20q189 0 277.5 -120t52.5 -298q-22 -103 -62 -165t-104 -124q83 -52 114.5 -158t4.5 -229q-41 -194 -201.5 -318t-359.5 -124h-133l49 238h137q67 0 118.5 21.5t82 57.5t47 70.5t24.5 71.5q21 97 -44.5 159t-180.5 62h-45 l47 225q2 0 19.5 1t19.5 1q103 16 160.5 75t71.5 130q15 72 -23 129t-123 57h-8q-61 0 -122 -60t-81 -159l-229 -1079h-240z" />
<glyph unicode="&#xe0;" horiz-adv-x="1196" d="M168 512q46 218 233.5 373t405.5 155q174 0 293 -106l20 90h213l-217 -1024h-213l19 88q-159 -104 -338 -104q-143 0 -250 71t-152 192.5t-14 264.5zM393 512q-28 -127 41 -215t197 -88q127 0 233.5 87.5t134.5 215.5q26 128 -43 215.5t-196 87.5q-128 0 -234.5 -88 t-132.5 -215zM647 1325q82 124 107 160l352 -162l-119 -152z" />
<glyph unicode="&#xe1;" horiz-adv-x="1196" d="M168 512q46 218 233.5 373t405.5 155q174 0 293 -106l20 90h213l-217 -1024h-213l19 88q-159 -104 -338 -104q-143 0 -250 71t-152 192.5t-14 264.5zM393 512q-28 -127 41 -215t197 -88q127 0 233.5 87.5t134.5 215.5q26 128 -43 215.5t-196 87.5q-128 0 -234.5 -88 t-132.5 -215zM647 1323l422 162q6 -31 20 -90t17 -70l-406 -154z" />
<glyph unicode="&#xe2;" horiz-adv-x="1196" d="M168 512q46 218 233.5 373t405.5 155q174 0 293 -106l20 90h213l-217 -1024h-213l19 88q-159 -104 -338 -104q-143 0 -250 71t-152 192.5t-14 264.5zM393 512q-28 -127 41 -215t197 -88q127 0 233.5 87.5t134.5 215.5q26 128 -43 215.5t-196 87.5q-128 0 -234.5 -88 t-132.5 -215zM610 1360l297 110l252 -114l-100 -156q-49 15 -191 86q-182 -72 -225 -82z" />
<glyph unicode="&#xe3;" horiz-adv-x="1196" d="M168 512q46 218 233.5 373t405.5 155q174 0 293 -106l20 90h213l-217 -1024h-213l19 88q-159 -104 -338 -104q-143 0 -250 71t-152 192.5t-14 264.5zM393 512q-28 -127 41 -215t197 -88q127 0 233.5 87.5t134.5 215.5q26 128 -43 215.5t-196 87.5q-128 0 -234.5 -88 t-132.5 -215zM551 1272l6 162q110 94 221 94q50 0 133.5 -31t118.5 -31q53 0 99 20.5t106 61.5v-147q-40 -44 -98.5 -79.5t-116.5 -35.5q-46 0 -137 33t-135 33q-50 0 -103 -22t-94 -58z" />
<glyph unicode="&#xe4;" horiz-adv-x="1196" d="M168 512q46 218 233.5 373t405.5 155q174 0 293 -106l20 90h213l-217 -1024h-213l19 88q-159 -104 -338 -104q-143 0 -250 71t-152 192.5t-14 264.5zM393 512q-28 -127 41 -215t197 -88q127 0 233.5 87.5t134.5 215.5q26 128 -43 215.5t-196 87.5q-128 0 -234.5 -88 t-132.5 -215zM584 1341q9 47 48 79t87 32q45 0 72 -33t18 -78q-11 -46 -51 -79t-86 -33q-47 0 -72.5 32.5t-15.5 79.5zM954 1341q9 47 49.5 79t86.5 32t72.5 -32.5t17.5 -78.5q-11 -46 -51 -79t-87 -33q-46 0 -72 32.5t-16 79.5z" />
<glyph unicode="&#xe5;" horiz-adv-x="1196" d="M168 512q46 218 233.5 373t405.5 155q174 0 293 -106l20 90h213l-217 -1024h-213l19 88q-159 -104 -338 -104q-143 0 -250 71t-152 192.5t-14 264.5zM393 512q-28 -127 41 -215t197 -88q127 0 233.5 87.5t134.5 215.5q26 128 -43 215.5t-196 87.5q-128 0 -234.5 -88 t-132.5 -215zM729 1307q13 61 63.5 102t110.5 41q61 0 94 -41.5t21 -101.5q-12 -61 -63 -102.5t-113 -41.5q-61 0 -93 41t-20 103zM784 1307q-8 -38 12 -64t58 -26q37 0 69.5 26t39.5 64q7 37 -14 62.5t-58 25.5q-38 0 -68.5 -25.5t-38.5 -62.5z" />
<glyph unicode="&#xe6;" horiz-adv-x="1943" d="M168 512q46 218 233.5 373t405.5 155q172 0 291 -106q10 40 20 90h215l-16 -76q148 90 311 90q144 0 238 -66.5t125 -179t0 -253.5q-8 -38 -27 -109h-729q-5 0 -8 -6q2 -102 71 -163.5t183 -61.5q151 0 313 84l55 -170q-205 -129 -426 -129q-174 0 -290 96l-17 -80h-215 l19 88q-156 -104 -336 -104q-143 0 -250 71t-152 192.5t-14 264.5zM393 512q-28 -127 41 -215t197 -88q127 0 233.5 87.5t134.5 215.5q26 128 -43 215.5t-196 87.5q-128 0 -234.5 -88t-132.5 -215zM1268 610q0 -4 6 -4h489l11 2q17 82 -35 151.5t-162 69.5 q-100 0 -196.5 -71.5t-112.5 -147.5z" />
<glyph unicode="&#xe7;" horiz-adv-x="1132" d="M176 514q46 218 233 372t408 154q127 0 228 -62.5t155 -160.5l-199 -129q-75 125 -229 125q-126 0 -232 -87t-132 -212q-28 -127 40.5 -215t194.5 -88q86 0 162 40t133 114l186 -91q-87 -126 -220.5 -203.5t-280.5 -84.5l-86 -90q5 0 22 3t33 3q67 0 101.5 -42t19.5 -114 q-14 -63 -60.5 -108t-100.5 -64.5t-108 -19.5q-44 0 -90 19t-75 50q44 79 47 86q71 -33 137 -33q32 0 58.5 18t33.5 52t-12.5 52t-46.5 18q-3 0 -17 -2t-22 -2l-84 16l149 162q-191 25 -290.5 174t-55.5 350z" />
<glyph unicode="&#xe8;" horiz-adv-x="1099" d="M170 514q30 144 122 264t224.5 190t276.5 70t237.5 -66.5t124.5 -179t0 -253.5q-8 -38 -27 -109h-729q-5 0 -8 -6q2 -102 71 -163.5t183 -61.5q151 0 313 84l56 -170q-205 -129 -426 -129q-148 0 -255 69.5t-150.5 191t-12.5 269.5zM432 610q0 -4 6 -4h490l10 2 q17 82 -35 151.5t-162 69.5q-100 0 -196.5 -71.5t-112.5 -147.5zM600 1325q82 124 107 160l352 -162l-119 -152z" />
<glyph unicode="&#xe9;" horiz-adv-x="1099" d="M170 514q30 144 122 264t224.5 190t276.5 70t237.5 -66.5t124.5 -179t0 -253.5q-8 -38 -27 -109h-729q-5 0 -8 -6q2 -102 71 -163.5t183 -61.5q151 0 313 84l56 -170q-205 -129 -426 -129q-148 0 -255 69.5t-150.5 191t-12.5 269.5zM432 610q0 -4 6 -4h490l10 2 q17 82 -35 151.5t-162 69.5q-100 0 -196.5 -71.5t-112.5 -147.5zM600 1323l422 162q6 -31 20 -90t17 -70l-406 -154z" />
<glyph unicode="&#xea;" horiz-adv-x="1099" d="M170 514q30 144 122 264t224.5 190t276.5 70t237.5 -66.5t124.5 -179t0 -253.5q-8 -38 -27 -109h-729q-5 0 -8 -6q2 -102 71 -163.5t183 -61.5q151 0 313 84l56 -170q-205 -129 -426 -129q-148 0 -255 69.5t-150.5 191t-12.5 269.5zM432 610q0 -4 6 -4h490l10 2 q17 82 -35 151.5t-162 69.5q-100 0 -196.5 -71.5t-112.5 -147.5zM561 1360l297 110l252 -114l-100 -156q-49 15 -191 86q-182 -72 -225 -82z" />
<glyph unicode="&#xeb;" horiz-adv-x="1099" d="M170 514q30 144 122 264t224.5 190t276.5 70t237.5 -66.5t124.5 -179t0 -253.5q-8 -38 -27 -109h-729q-5 0 -8 -6q2 -102 71 -163.5t183 -61.5q151 0 313 84l56 -170q-205 -129 -426 -129q-148 0 -255 69.5t-150.5 191t-12.5 269.5zM432 610q0 -4 6 -4h490l10 2 q17 82 -35 151.5t-162 69.5q-100 0 -196.5 -71.5t-112.5 -147.5zM537 1341q9 47 48 79t87 32q45 0 72 -33t18 -78q-11 -46 -51 -79t-86 -33q-47 0 -72.5 32.5t-15.5 79.5zM907 1341q9 47 49 79t86 32t73 -32.5t18 -78.5q-11 -46 -51 -79t-87 -33q-46 0 -72 32.5t-16 79.5z " />
<glyph unicode="&#xec;" horiz-adv-x="382" d="M86 0l217 1024h211l-217 -1024h-211zM246 1325q100 151 106 160l353 -162l-119 -152z" />
<glyph unicode="&#xed;" horiz-adv-x="382" d="M86 0l217 1024h211l-217 -1024h-211zM246 1323l422 162q6 -31 20 -90t17 -70l-406 -154z" />
<glyph unicode="&#xee;" horiz-adv-x="382" d="M86 0l217 1024h211l-217 -1024h-211zM207 1360l297 110l252 -114l-101 -156q-47 14 -190 86q-182 -72 -225 -82z" />
<glyph unicode="&#xef;" horiz-adv-x="382" d="M86 0l217 1024h211l-217 -1024h-211zM180 1341q9 47 48 79t87 32q45 0 72.5 -33t18.5 -78q-10 -46 -51 -79t-87 -33q-47 0 -72.5 32.5t-15.5 79.5zM551 1341q9 47 49 79t86 32t72.5 -32.5t17.5 -78.5q-11 -46 -50.5 -79t-86.5 -33q-46 0 -72 32.5t-16 79.5z" />
<glyph unicode="&#xf0;" horiz-adv-x="1239" d="M193 518q33 151 130 269.5t227 183t273 71.5q29 0 37 -2l-47 111l-141 -86l-84 166l149 92l-51 107l223 133l52 -101q21 14 45 28.5t53 32t45 27.5l82 -166q-26 -18 -78 -48.5t-74 -45.5q37 -90 110 -258.5t105 -245.5q48 -115 15 -268q-31 -147 -128 -270t-235.5 -193.5 t-286.5 -70.5q-145 0 -253 70.5t-153.5 193.5t-14.5 270zM432 518q-28 -128 39.5 -212.5t192.5 -84.5q129 0 230.5 84t129.5 213q28 127 -38.5 212t-194.5 85q-123 0 -228 -86.5t-131 -210.5z" />
<glyph unicode="&#xf1;" horiz-adv-x="1071" d="M84 0l217 1024h213l-12 -55q113 71 252 71q198 0 299.5 -121t60.5 -315l-127 -604h-227l125 590q19 91 -33.5 158t-144.5 67q-96 0 -170.5 -53.5t-100.5 -161.5l-127 -600h-225zM489 1272l7 162q110 94 221 94q49 0 133 -31t119 -31q53 0 99 20.5t106 61.5v-147 q-40 -44 -99 -79.5t-117 -35.5q-46 0 -137 33t-135 33q-50 0 -103 -22t-94 -58z" />
<glyph unicode="&#xf2;" horiz-adv-x="1189" d="M176 514q46 218 233 372t408 154q143 0 249.5 -70.5t151.5 -191.5t15 -264q-31 -145 -127.5 -267t-232.5 -192.5t-279 -70.5q-145 0 -252.5 70.5t-152 192.5t-13.5 267zM406 514q-28 -127 40.5 -215t194.5 -88t232.5 88t134.5 215q26 125 -43 212t-195 87t-232 -87 t-132 -212zM645 1325q82 124 107 160l352 -162l-119 -152z" />
<glyph unicode="&#xf3;" horiz-adv-x="1189" d="M176 514q46 218 233 372t408 154q143 0 249.5 -70.5t151.5 -191.5t15 -264q-31 -145 -127.5 -267t-232.5 -192.5t-279 -70.5q-145 0 -252.5 70.5t-152 192.5t-13.5 267zM406 514q-28 -127 40.5 -215t194.5 -88t232.5 88t134.5 215q26 125 -43 212t-195 87t-232 -87 t-132 -212zM645 1323l422 162q6 -31 20 -90t17 -70l-406 -154z" />
<glyph unicode="&#xf4;" horiz-adv-x="1189" d="M176 514q46 218 233 372t408 154q143 0 249.5 -70.5t151.5 -191.5t15 -264q-31 -145 -127.5 -267t-232.5 -192.5t-279 -70.5q-145 0 -252.5 70.5t-152 192.5t-13.5 267zM406 514q-28 -127 40.5 -215t194.5 -88t232.5 88t134.5 215q26 125 -43 212t-195 87t-232 -87 t-132 -212zM606 1360l297 110l252 -114l-100 -156q-49 15 -191 86q-182 -72 -225 -82z" />
<glyph unicode="&#xf5;" horiz-adv-x="1189" d="M176 514q46 218 233 372t408 154q143 0 249.5 -70.5t151.5 -191.5t15 -264q-31 -145 -127.5 -267t-232.5 -192.5t-279 -70.5q-145 0 -252.5 70.5t-152 192.5t-13.5 267zM406 514q-28 -127 40.5 -215t194.5 -88t232.5 88t134.5 215q26 125 -43 212t-195 87t-232 -87 t-132 -212zM549 1272l6 162q110 94 221 94q49 0 133 -31t119 -31q53 0 99 20.5t106 61.5v-147q-40 -44 -98.5 -79.5t-116.5 -35.5q-46 0 -137.5 33t-135.5 33q-50 0 -102.5 -22t-93.5 -58z" />
<glyph unicode="&#xf6;" horiz-adv-x="1189" d="M176 514q46 218 233 372t408 154q143 0 249.5 -70.5t151.5 -191.5t15 -264q-31 -145 -127.5 -267t-232.5 -192.5t-279 -70.5q-145 0 -252.5 70.5t-152 192.5t-13.5 267zM406 514q-28 -127 40.5 -215t194.5 -88t232.5 88t134.5 215q26 125 -43 212t-195 87t-232 -87 t-132 -212zM580 1341q9 47 48 79t87 32q45 0 72 -33t18 -78q-11 -46 -51 -79t-86 -33q-47 0 -72.5 32.5t-15.5 79.5zM950 1341q9 47 49 79t86 32t73 -32.5t18 -78.5q-11 -46 -51 -79t-87 -33q-46 0 -72 32.5t-16 79.5z" />
<glyph unicode="&#xf7;" horiz-adv-x="1171" d="M164 432l39 184h1022l-39 -184h-1022zM500 197q10 51 54 85.5t95 34.5q50 0 79.5 -35.5t19.5 -84.5q-11 -51 -55 -88t-95 -37q-52 0 -80.5 36t-17.5 89zM639 852q10 51 55.5 87t96.5 36q49 0 78 -36.5t18 -86.5q-10 -51 -54.5 -87t-95.5 -36q-52 0 -80.5 36t-17.5 87z " />
<glyph unicode="&#xf8;" horiz-adv-x="1185" d="M174 514q46 218 233 372t408 154q45 0 84 -8q16 36 55 109h125l-73 -140q134 -61 197 -193t28 -294q-31 -145 -127.5 -267t-232.5 -192.5t-279 -70.5q-40 0 -92 10l-60 -117q-41 2 -121 2q1 6 9 21t10 22l53 103q-131 63 -191.5 194.5t-25.5 294.5zM389 514 q-20 -92 10 -166t99 -115l297 594h-25q-132 0 -242.5 -91t-138.5 -222zM602 199h35q132 0 243.5 91.5t139.5 223.5q20 92 -12.5 168t-104.5 115z" />
<glyph unicode="&#xf9;" horiz-adv-x="1067" d="M170 422l129 600h225l-125 -586q-20 -92 32.5 -158.5t143.5 -66.5q97 0 173 53.5t98 159.5l129 598h227l-217 -1022h-215l10 57q-107 -73 -250 -73q-199 0 -300 121.5t-60 316.5zM584 1325q100 151 106 160l352 -162l-118 -152z" />
<glyph unicode="&#xfa;" horiz-adv-x="1067" d="M170 422l129 600h225l-125 -586q-20 -92 32.5 -158.5t143.5 -66.5q97 0 173 53.5t98 159.5l129 598h227l-217 -1022h-215l10 57q-107 -73 -250 -73q-199 0 -300 121.5t-60 316.5zM584 1323l422 162q1 -6 36 -160l-405 -154z" />
<glyph unicode="&#xfb;" horiz-adv-x="1067" d="M170 422l129 600h225l-125 -586q-20 -92 32.5 -158.5t143.5 -66.5q97 0 173 53.5t98 159.5l129 598h227l-217 -1022h-215l10 57q-107 -73 -250 -73q-199 0 -300 121.5t-60 316.5zM545 1360l297 110l252 -114l-101 -156q-47 14 -190 86q-182 -72 -225 -82z" />
<glyph unicode="&#xfc;" horiz-adv-x="1067" d="M170 422l129 600h225l-125 -586q-20 -92 32.5 -158.5t143.5 -66.5q97 0 173 53.5t98 159.5l129 598h227l-217 -1022h-215l10 57q-107 -73 -250 -73q-199 0 -300 121.5t-60 316.5zM520 1341q9 47 48 79t87 32q45 0 72 -33t18 -78q-11 -46 -51 -79t-86 -33 q-47 0 -72.5 32.5t-15.5 79.5zM891 1341q9 47 49 79t86 32t72.5 -32.5t17.5 -78.5q-11 -46 -50.5 -79t-86.5 -33q-46 0 -72 32.5t-16 79.5z" />
<glyph unicode="&#xfd;" horiz-adv-x="935" d="M90 -422l266 469q2 6 2 19l-6 79l-121 879h244q2 -19 20 -219.5t33 -302.5l15 -127q0 -2 1 -5.5t1 -4.5l10 14l70 125l276 522h238q-149 -269 -425.5 -762.5t-383.5 -685.5h-240zM518 1323l422 162q6 -31 20 -90t17 -70l-406 -154z" />
<glyph unicode="&#xfe;" horiz-adv-x="1222" d="M-4 -420l391 1854h227l-104 -492q154 98 324 98q143 0 250 -71t152 -192.5t15 -264.5q-31 -143 -128 -264t-233.5 -191.5t-279.5 -70.5q-170 0 -282 98l-107 -504h-225zM420 512q-28 -128 41 -215.5t196 -87.5q128 0 234.5 88t134.5 215q26 128 -43.5 215.5t-196.5 87.5 q-128 0 -234 -88t-132 -215z" />
<glyph unicode="&#xff;" horiz-adv-x="935" d="M90 -422l266 469q2 6 2 19l-6 79l-121 879h244q2 -19 20 -219.5t33 -302.5l15 -127q0 -2 1 -5.5t1 -4.5l10 14l70 125l276 522h238q-149 -269 -425.5 -762.5t-383.5 -685.5h-240zM455 1341q9 47 48 79t87 32q45 0 72 -33t18 -78q-11 -46 -51 -79t-86 -33 q-47 0 -72.5 32.5t-15.5 79.5zM825 1341q9 47 49.5 79t86.5 32t72.5 -32.5t17.5 -78.5q-11 -46 -51 -79t-87 -33q-46 0 -72 32.5t-16 79.5z" />
<glyph unicode="&#x152;" horiz-adv-x="2338" d="M239 520q-12 117 13 248q34 160 127 305t220.5 250t286 167t318.5 62q158 0 287.5 -59.5t214.5 -165.5l45 209h799l-51 -240h-549q-12 0 -15 -10l-82 -385q-1 -6 1.5 -8t9.5 -2h549l-52 -240h-549q-11 0 -14 -10l-84 -391q0 -12 10 -12h549l-49 -238h-799l45 209 q-132 -106 -287 -165.5t-313 -59.5q-128 0 -239.5 40t-192 111t-134 169.5t-65.5 215.5zM489 768q-31 -148 15.5 -274t157 -199.5t258.5 -73.5t289.5 73.5t241 199.5t130.5 274t-15 273.5t-155.5 198.5t-257.5 73t-290 -73t-242.5 -198.5t-131.5 -273.5z" />
<glyph unicode="&#x153;" horiz-adv-x="2035" d="M176 514q46 218 233 372t408 154q134 0 236 -63.5t153 -171.5q91 108 217.5 170.5t262.5 62.5q144 0 237.5 -66.5t124.5 -179t0 -253.5q-8 -38 -27 -109h-729q-5 0 -8 -6q2 -102 71 -163.5t183 -61.5q151 0 313 84l56 -170q-205 -129 -426 -129q-142 0 -246 63t-152 174 q-96 -109 -224.5 -173t-264.5 -64q-145 0 -252.5 70.5t-152 192.5t-13.5 267zM406 514q-28 -127 40.5 -215t194.5 -88t232.5 88t134.5 215q26 125 -43 212t-195 87t-232 -87t-132 -212zM1325 610q0 -4 6 -4h490l10 2q17 82 -35 151.5t-162 69.5q-100 0 -196.5 -71.5 t-112.5 -147.5z" />
<glyph unicode="&#x178;" horiz-adv-x="1142" d="M350 1536h262l138 -664q3 -6 4 -6q7 0 10 6l418 662h260l-633 -981l-117 -553h-239l116 553zM643 1751q9 47 48 79t87 32q45 0 72 -33t18 -78q-11 -46 -51 -79.5t-86 -33.5q-47 0 -72.5 33t-15.5 80zM1014 1751q9 47 49 79t86 32t72.5 -32.5t17.5 -78.5 q-11 -46 -50.5 -79.5t-86.5 -33.5q-46 0 -72 33t-16 80z" />
<glyph unicode="&#x2c6;" horiz-adv-x="706" d="M367 1360l297 110l251 -114l-100 -156q-47 14 -190 86q-181 -72 -226 -82z" />
<glyph unicode="&#x2dc;" horiz-adv-x="870" d="M389 1272l6 162q110 94 221 94q50 0 134 -31t118 -31q53 0 99 20.5t106 61.5v-147q-40 -44 -98.5 -79.5t-116.5 -35.5q-46 0 -137 33t-135 33q-50 0 -103 -22t-94 -58z" />
<glyph unicode="&#x2000;" horiz-adv-x="979" />
<glyph unicode="&#x2001;" horiz-adv-x="1958" />
<glyph unicode="&#x2002;" horiz-adv-x="979" />
<glyph unicode="&#x2003;" horiz-adv-x="1958" />
<glyph unicode="&#x2004;" horiz-adv-x="652" />
<glyph unicode="&#x2005;" horiz-adv-x="489" />
<glyph unicode="&#x2006;" horiz-adv-x="326" />
<glyph unicode="&#x2007;" horiz-adv-x="326" />
<glyph unicode="&#x2008;" horiz-adv-x="244" />
<glyph unicode="&#x2009;" horiz-adv-x="391" />
<glyph unicode="&#x200a;" horiz-adv-x="108" />
<glyph unicode="&#x2010;" horiz-adv-x="843" d="M201 496l39 184h649l-39 -184h-649z" />
<glyph unicode="&#x2011;" horiz-adv-x="843" d="M201 496l39 184h649l-39 -184h-649z" />
<glyph unicode="&#x2012;" horiz-adv-x="843" d="M201 496l39 184h649l-39 -184h-649z" />
<glyph unicode="&#x2013;" horiz-adv-x="1218" d="M201 496l39 184h1024l-39 -184h-1024z" />
<glyph unicode="&#x2014;" horiz-adv-x="1579" d="M201 496l39 184h1384l-39 -184h-1384z" />
<glyph unicode="&#x2018;" horiz-adv-x="366" d="M383 1530l203 6q-9 -74 -29.5 -211t-26.5 -178q-37 -2 -116 -10q-5 76 -16.5 218t-14.5 175z" />
<glyph unicode="&#x2019;" horiz-adv-x="393" d="M322 1147q63 230 108 389l199 -6q-37 -77 -111.5 -222t-87.5 -171q-67 8 -108 10z" />
<glyph unicode="&#x201a;" horiz-adv-x="393" d="M45 -145l109 385l200 -7l-198 -391z" />
<glyph unicode="&#x201c;" horiz-adv-x="665" d="M393 1530l203 6q-9 -76 -30 -219t-25 -170q-39 -2 -117 -10q-5 76 -16.5 218t-14.5 175zM672 1530l205 6q-6 -41 -26.5 -178t-29.5 -211q-37 -2 -116 -10z" />
<glyph unicode="&#x201d;" horiz-adv-x="675" d="M322 1147q63 230 108 389l199 -6q-37 -77 -111.5 -222t-87.5 -171q-67 8 -108 10zM600 1147q64 223 109 389l200 -6l-200 -393q-66 8 -109 10z" />
<glyph unicode="&#x201e;" horiz-adv-x="675" d="M45 -145l109 385l200 -7l-198 -391zM324 -145l108 385l201 -7l-199 -391z" />
<glyph unicode="&#x2022;" horiz-adv-x="610" d="M219 614q19 88 95.5 151.5t166.5 63.5q88 0 137.5 -63.5t30.5 -151.5q-19 -90 -95 -152.5t-165 -62.5q-91 0 -140 62t-30 153z" />
<glyph unicode="&#x2026;" horiz-adv-x="1361" d="M115 92q9 42 46.5 73.5t82.5 31.5q39 0 63 -32.5t15 -72.5q-9 -41 -44.5 -70.5t-76.5 -29.5q-45 0 -70 29t-16 71zM596 92q9 42 46.5 73.5t82.5 31.5q39 0 63 -32.5t15 -72.5q-9 -41 -44.5 -70.5t-76.5 -29.5q-45 0 -70 29t-16 71zM1077 92q9 42 46.5 73.5t82.5 31.5 q39 0 63 -32.5t15 -72.5q-9 -41 -44.5 -70.5t-76.5 -29.5q-45 0 -70 29t-16 71z" />
<glyph unicode="&#x202f;" horiz-adv-x="391" />
<glyph unicode="&#x2039;" horiz-adv-x="557" d="M182 555l357 416l123 -111l-265 -307l138 -307l-179 -107q-174 409 -174 416z" />
<glyph unicode="&#x203a;" horiz-adv-x="585" d="M139 246l267 307l-134 307l170 111l181 -416q0 -6 -353 -416z" />
<glyph unicode="&#x205f;" horiz-adv-x="489" />
<glyph unicode="&#x20ac;" horiz-adv-x="1214" d="M182 512l39 188h111l26 125h-110l39 181h112q21 98 76.5 193t135.5 170.5t188 122t223 46.5q121 0 230.5 -67.5t146.5 -174.5l-219 -129q-30 64 -83 103t-126 39q-63 0 -130.5 -31.5t-122.5 -92t-75 -134.5l-10 -43h481l-39 -183h-481l-27 -127h482l-41 -188h-478l-8 -45 q-19 -88 49 -165t172 -77q72 0 144 38.5t121 98.5l155 -145q-89 -103 -219.5 -167t-251.5 -64q-215 0 -330.5 151t-66.5 377h-113z" />
<glyph unicode="&#x2122;" horiz-adv-x="1542" d="M360 1405l29 133h541l-29 -133h-196l-11 -8l-149 -707h-133l137 643l14 66q0 6 -6 6h-197zM791 692l180 846h184q47 -339 78 -575l10 -48q2 0 2 5q138 234 348 618h187l-181 -846h-133l123 572q1 5 2.5 15t2.5 18t1 14q-1 0 -64.5 -112.5t-153.5 -272.5t-132 -234h-100 l-35 266q-27 232 -47 351q-1 -2 -4.5 -20t-7.5 -25l-123 -572h-137z" />
<glyph unicode="&#xe000;" horiz-adv-x="1024" d="M0 0v1024h1024v-1024h-1024z" />
<glyph unicode="&#xfb01;" horiz-adv-x="1329" d="M227 0l172 811h-161l43 205h161l29 137q28 128 120.5 205.5t219.5 77.5h182l-43 -201h-123q-113 0 -137 -115l-22 -104h297l-43 -205h-297l-172 -811h-226zM879 0l217 1024h227l-217 -1024h-227zM1143 1249q9 44 50.5 77.5t88.5 33.5q44 0 70.5 -34t17.5 -77 q-9 -47 -50 -80.5t-87 -33.5q-48 0 -74 32.5t-16 81.5z" />
</font>
</defs>
</svg>
