<?xml version="1.0" standalone="no"?>
<!DOCTYPE svg PUBLIC "-//W3C//DTD SVG 1.1//EN" "http://www.w3.org/Graphics/SVG/1.1/DTD/svg11.dtd" >
<svg xmlns="http://www.w3.org/2000/svg">
<metadata></metadata>
<defs>
<font id="nanamiextralight_oblique" horiz-adv-x="1228" >
<font-face units-per-em="2048" ascent="1536" descent="-512" />
<missing-glyph horiz-adv-x="593" />
<glyph horiz-adv-x="2048" />
<glyph horiz-adv-x="2048" />
<glyph unicode="&#xd;" horiz-adv-x="2048" />
<glyph unicode=" "  horiz-adv-x="593" />
<glyph unicode="&#x09;" horiz-adv-x="593" />
<glyph unicode="&#xa0;" horiz-adv-x="593" />
<glyph unicode="!" horiz-adv-x="294" d="M90 61q6 28 30.5 48t53.5 20q28 0 44.5 -20t10.5 -48q-6 -29 -31 -49t-53 -20q-29 0 -45 20t-10 49zM129 211l283 1325h125l-283 -1325h-125z" />
<glyph unicode="&#x22;" horiz-adv-x="538" d="M293 940l127 596h104l-127 -596h-104zM541 940l127 596h104l-127 -596h-104z" />
<glyph unicode="#" horiz-adv-x="1314" d="M162 465l14 74h313l140 397h-301l14 74h315l156 446h72q-73 -219 -154 -446h359l155 446h68l-23 -61q-59 -188 -129 -385h303l-14 -74h-315l-142 -397h303l-14 -74h-315l-160 -465h-74v4l162 461h-363l-159 -465l-72 -2l160 467h-299zM563 539h359l141 397h-361z" />
<glyph unicode="$" horiz-adv-x="927" d="M119 240l125 18q17 -71 78 -111.5t151 -40.5q116 0 222.5 88t131.5 207q10 36 6.5 69t-10 59t-25 51t-38 44.5t-48 39t-57 34.5t-63.5 31q-39 18 -67.5 32.5t-62 34t-56 38.5t-45.5 44t-36 52.5t-21.5 60.5t-7.5 73t11 85q29 139 146 251.5t260 141.5l35 172h124 l-34 -166q92 -9 162.5 -61.5t101.5 -134.5l-125 -56q-19 60 -75 95.5t-130 35.5q-109 0 -212.5 -81.5t-125.5 -186.5q-10 -36 -7 -69t8 -57.5t22 -47.5t33.5 -39.5t42.5 -34t50 -30t55 -28t58 -28t59 -29.5t58 -34q187 -125 135 -363q-34 -154 -161.5 -271.5t-280.5 -137.5 l-37 -178h-125l37 178q-128 14 -196 89t-66 161z" />
<glyph unicode="%" horiz-adv-x="1792" d="M317 1167q32 154 162.5 261.5t284.5 107.5t238.5 -107.5t52.5 -261.5q-34 -154 -164.5 -261t-284.5 -107t-238.5 107t-50.5 261zM422 1167q-25 -110 36 -187t171 -77t202 76.5t117 187.5q23 110 -37 186.5t-170 76.5t-203 -76.5t-116 -186.5zM436 29l1151 1519l68 -47 l-1149 -1515zM1063 367q32 154 162 261t284 107t238.5 -107t52.5 -261q-34 -154 -164 -261.5t-284 -107.5t-238.5 107.5t-50.5 261.5zM1167 367q-25 -110 36 -187.5t171 -77.5t202.5 77t117.5 188q23 110 -37 187t-170 77t-203.5 -77t-116.5 -187z" />
<glyph unicode="&#x26;" horiz-adv-x="1429" d="M164 420q29 137 135 246.5t281 207.5q-3 4 -10 11q-21 24 -32.5 36.5t-30.5 37t-28.5 42t-21 45t-15 52t-3.5 56t7 65.5q30 139 147 235t263 96q135 0 209.5 -92t46.5 -221q-28 -133 -109.5 -221t-224.5 -162l262 -330l291 389q17 -9 99 -59q-69 -90 -304 -401l-16 -21 l270 -342l-96 -92q-57 67 -254 324q-66 -100 -130.5 -167.5t-129 -104t-125 -51.5t-131.5 -15q-183 0 -285.5 126.5t-64.5 309.5zM289 424q-28 -131 45.5 -224.5t206.5 -93.5q192 0 342 205l73 103q-157 204 -301 370q-67 -33 -120.5 -66t-107 -77.5t-89.5 -99.5t-49 -117z M569 1221q-16 -75 19 -140.5t114 -134.5q240 72 287 289q17 80 -28.5 136t-131.5 56q-90 0 -165 -58.5t-95 -147.5z" />
<glyph unicode="'" horiz-adv-x="284" d="M293 942l127 594h104l-127 -594h-104z" />
<glyph unicode="(" horiz-adv-x="479" d="M145 317l172 805q67 319 347 508l67 -80q-134 -104 -198 -203.5t-97 -248.5l-160 -756q-32 -143 -10 -246t113 -207l-103 -79q-199 187 -131 507z" />
<glyph unicode=")" horiz-adv-x="473" d="M53 -111q134 104 199 205t96 248l160 756q33 145 11 246.5t-113 205.5l104 80q196 -187 129 -508l-172 -805q-67 -319 -344 -507z" />
<glyph unicode="*" horiz-adv-x="884" d="M276 1032l23 113l305 -25q-31 34 -97 99.5t-97 99.5l102 82q23 -39 72 -117t73 -117l41 308h115l-94 -310l248 236l63 -84l-274 -197l313 25l-22 -113l-306 25l195 -195l-102 -82l-146 234l-39 -309h-114l90 307l-248 -234l-64 84q52 35 146 103t129 92z" />
<glyph unicode="+" horiz-adv-x="1032" d="M139 475l21 96h428l90 424h96l-90 -424h430l-20 -96h-430l-93 -428h-96l92 428h-428z" />
<glyph unicode="," horiz-adv-x="243" d="M88 229l125 13l-74 -398q-7 0 -20.5 -1t-20.5 -1l-2 80q-1 34 -4.5 141.5t-3.5 165.5z" />
<glyph unicode="-" horiz-adv-x="806" d="M207 549l22 100h623l-23 -100h-622z" />
<glyph unicode="." horiz-adv-x="274" d="M84 55q6 26 30 45t50 19q25 0 40 -19.5t9 -44.5q-4 -26 -27 -44.5t-49 -18.5q-27 0 -42.5 18t-10.5 45z" />
<glyph unicode="/" horiz-adv-x="600" d="M39 20l770 1526l82 -22l-772 -1530z" />
<glyph unicode="0" d="M236 457l131 620q26 123 112.5 231.5t210.5 174t252 65.5q89 0 167 -35.5t130.5 -98t75.5 -149t0 -188.5l-131 -620q-40 -190 -211.5 -330.5t-362.5 -140.5q-125 0 -221 63.5t-138 172.5t-15 235zM358 457q-29 -136 54.5 -242t224.5 -106t265 103t155 245l131 618 q31 141 -50.5 243.5t-222.5 102.5q-146 0 -271 -104.5t-155 -241.5z" />
<glyph unicode="1" d="M672 0l301 1417q-50 4 -78 4h-168l25 115h372l-325 -1536h-127z" />
<glyph unicode="2" d="M174 0l12 106l639 529q179 147 269 250.5t114 218.5q27 125 -46 221t-212 96q-124 0 -232.5 -72.5t-178.5 -191.5l-58 88q76 129 210 214t286 85q193 0 293.5 -124t60.5 -312q-24 -118 -105.5 -230t-238.5 -249l-469 -387q-104 -84 -139 -115q20 -2 86 -2h657l-24 -125 h-924z" />
<glyph unicode="3" d="M240 160l82 108q59 -75 140.5 -116t174.5 -41q88 0 166 30.5t133 81.5t92 114t51 130q28 131 -55 229.5t-256 104.5l-141 2l22 106l133 2q146 6 242 84t119 187q6 38 4.5 74t-20 68.5t-47 57t-76 38.5t-107.5 14q-74 0 -166.5 -42.5t-167.5 -111.5l-28 109 q93 77 196.5 120t202.5 43q125 0 209.5 -51.5t115.5 -136t9 -186.5q-21 -94 -91 -176.5t-147 -116.5q-28 -12 -35 -19q0 -1 7.5 -4t20.5 -9t21 -11q214 -139 160 -381q-42 -201 -205.5 -337t-380.5 -136q-120 0 -216 47t-162 125z" />
<glyph unicode="4" d="M178 307l25 113l948 1116h100l-223 -1047q-1 -6 -4.5 -18t-3.5 -17t2 -11t11 -8.5t26 -2.5h145l-26 -125h-146q-16 0 -25 -1t-14.5 -7t-6.5 -8t-3.5 -15t-3.5 -18l-53 -258h-125l53 258q3 15 3 24v14.5t-6.5 8t-8.5 3t-15 0t-18 -0.5h-631zM352 436q0 -4 2 -4h480 q42 0 51.5 8.5t17.5 48.5l158 738q8 40 8 53l-678 -797z" />
<glyph unicode="5" d="M180 315l123 37q17 -110 102 -178t211 -68q166 0 304 115t172 279q35 164 -54.5 278.5t-255.5 114.5h-6q-193 0 -321 -90l-68 80l262 653h674l-27 -123h-548q-22 0 -39 -27q-144 -374 -168 -432q141 64 268 64q141 0 245.5 -69t148.5 -188.5t14 -260.5 q-29 -141 -123.5 -260t-228.5 -187.5t-275 -68.5q-164 0 -269.5 90t-140.5 241z" />
<glyph unicode="6" d="M195 508q38 169 153 299l649 741l95 -65l-420 -479q85 30 162 30q105 0 192.5 -38t144 -107.5t78.5 -166.5t-4 -214q-31 -147 -126 -267.5t-229 -188.5t-278 -68q-149 0 -255.5 68t-149.5 188t-12 268zM319 508q-37 -171 54.5 -285t263.5 -114q168 0 307 114t176 285 q35 167 -56 284t-257 117q-171 0 -311 -115t-177 -286z" />
<glyph unicode="7" d="M281 39q156 235 441 670t398 606l64 96q0 2 -6 2h-682l26 123h832l8 -68l-977 -1478q-20 8 -57 26t-47 23z" />
<glyph unicode="8" d="M246 444q27 129 121.5 236t222.5 170q-75 58 -106 139.5t-11 175.5q35 160 173 273.5t296 113.5q153 0 244 -111t59 -261q-42 -195 -254 -330q102 -57 153 -165.5t23 -240.5q-41 -191 -205 -325.5t-354 -134.5q-126 0 -219 62.5t-131 168t-12 229.5zM369 444 q-31 -139 47.5 -238.5t218.5 -99.5q139 0 259 100.5t150 237.5q29 142 -48.5 241t-217.5 99t-260 -100.5t-149 -239.5zM596 1165q-23 -112 38 -189t169 -77t200 78t115 188q23 107 -36.5 184.5t-166.5 77.5q-108 0 -202 -78t-117 -184z" />
<glyph unicode="9" d="M301 808q-22 97 4 214q46 221 229.5 372.5t403.5 151.5q149 0 255.5 -69t149.5 -189t13 -266q-37 -164 -156 -299l-645 -741l-94 65l418 477q-79 -28 -162 -28q-105 0 -192.5 38t-144.5 107.5t-79 166.5zM430 1022q-37 -167 55 -284t258 -117q171 0 311 115t177 286 q35 170 -56.5 284.5t-261.5 114.5q-169 0 -308.5 -114.5t-174.5 -284.5z" />
<glyph unicode=":" horiz-adv-x="229" d="M59 55q6 26 30 45t50 19q25 0 40 -19.5t9 -44.5q-4 -26 -26.5 -44.5t-48.5 -18.5q-28 0 -43.5 18.5t-10.5 44.5zM225 834q6 26 29.5 44.5t50.5 18.5q25 0 39.5 -19t9.5 -44q-6 -26 -29 -45t-49 -19q-28 0 -42.5 19t-8.5 45z" />
<glyph unicode=";" horiz-adv-x="227" d="M90 229l125 13l-76 -398q-6 0 -19.5 -1t-19.5 -1q0 3 -6 195zM229 834q6 26 29 44.5t49 18.5q25 0 39.5 -19t9.5 -44q-6 -26 -28.5 -45t-48.5 -19t-41 19t-9 45z" />
<glyph unicode="&#x3c;" horiz-adv-x="1243" d="M145 467l21 100l1173 437l15 -80q-31 -11 -103.5 -40t-180 -71t-189.5 -74l-580 -225q856 -392 881 -403l-49 -80z" />
<glyph unicode="=" horiz-adv-x="1095" d="M162 336l22 100h912l-23 -100h-911zM215 582l21 100h911l-21 -100h-911z" />
<glyph unicode="&#x3e;" horiz-adv-x="1275" d="M88 111q417 159 1051 403q-44 20 -439 205l-440 205l51 80l983 -437l-20 -100l-1170 -436z" />
<glyph unicode="?" horiz-adv-x="860" d="M315 440q16 76 55.5 142.5t90 115.5t108.5 93.5t115.5 86t106.5 83t85.5 94.5t49.5 112q25 118 -35.5 185t-167.5 67q-95 0 -175 -56.5t-134 -139.5l-82 71q56 101 172.5 175.5t245.5 74.5q159 0 248 -105.5t55 -271.5q-15 -72 -54 -135.5t-89.5 -111.5t-109 -92 t-116 -84.5t-106.5 -81t-84.5 -90.5t-47.5 -105q-12 -58 6 -105t56 -73l-102 -66q-56 29 -81 88t-10 129zM334 57q6 28 29.5 48t50.5 20q28 0 43.5 -20t9.5 -48q-4 -27 -28 -46t-52 -19t-43 18.5t-10 46.5z" />
<glyph unicode="@" horiz-adv-x="1761" d="M212 481q-11 111 13 238q27 128 98.5 252.5t176 228.5t229.5 184t268.5 125t284.5 45q98 0 183.5 -17t151.5 -48.5t119.5 -75.5t86.5 -98t53.5 -115.5t20.5 -128.5t-13 -137q-21 -103 -79 -205.5t-138 -184.5t-183 -133t-206 -51q-36 0 -63.5 8t-51 28.5t-29 54.5t2.5 86 q-43 -44 -78 -73.5t-53 -40.5t-45 -26q-73 -37 -150 -37q-110 0 -165 76t-25 211q42 200 188.5 344t300.5 144q84 0 128.5 -30t66.5 -114l92 127l67 -12l-233 -504q-14 -30 -19 -55q-11 -52 14 -80.5t85 -28.5q104 0 209.5 75t178 188.5t97.5 232.5q51 234 -100 383 t-439 149q-161 0 -322.5 -65.5t-286.5 -171.5t-215.5 -243t-121.5 -277v-4q-29 -133 1 -251.5t107 -202.5t197 -132.5t265 -48.5q321 0 596 161l24 -49q-301 -198 -622 -198q-144 0 -264 36t-202.5 101.5t-136 157t-64.5 202.5zM721 653q-22 -107 12 -167t127 -60 q81 0 168 70.5t137 175.5l72 149q14 33 23 66q18 85 -26.5 134.5t-113.5 49.5q-124 0 -243.5 -123t-155.5 -295z" />
<glyph unicode="A" horiz-adv-x="1236" d="M35 0l860 1536h94l209 -1536h-131l-41 299q-11 67 -12 72q-31 2 -92 2h-453q-63 0 -94 -2q-3 -5 -18 -31t-21 -41l-168 -299h-133zM449 504q15 -6 38 -6h469q24 0 45 6l-6 39q-44 347 -96 725q0 21 -6 39l-2 -2q-70 -127 -422 -762z" />
<glyph unicode="B" horiz-adv-x="1009" d="M94 0l326 1536h303q184 0 280 -118q69 -84 69 -199q0 -46 -11 -97q-24 -113 -83 -190.5t-147 -136.5q114 -41 166 -147q33 -68 33 -146q0 -44 -10 -92q-38 -180 -181.5 -295t-324.5 -115h-420zM251 135q6 -12 56 -12h234q71 0 134 26t106.5 68t73 92t40.5 101q6 36 6 72 v10q-1 41 -18 78.5t-44 66.5t-72.5 46t-102.5 17h-238q-32 0 -59 -6l-109 -506q-9 -28 -9 -43q0 -6 2 -10zM400 838q4 -13 46 -13h127q72 0 136.5 26.5t109.5 69.5t75 94t42 105q7 33 7 65q0 39 -10 73q-18 64 -78.5 108.5t-156.5 44.5h-123q-35 0 -59 -8l-110 -520 q-8 -23 -8 -36q1 -5 2 -9z" />
<glyph unicode="C" horiz-adv-x="1466" d="M238 766q34 159 127.5 304.5t221 251t286.5 168t319 62.5q91 0 171.5 -18t139 -49t99 -62.5t69.5 -66.5l-100 -101q-149 172 -408 172q-180 0 -351 -88.5t-291.5 -240.5t-158.5 -332q-13 -63 -13 -124q1 -64 15 -126q28 -121 98.5 -210t181.5 -143t241 -54q257 0 477 170 l57 -101q-99 -78 -243.5 -136t-317.5 -58q-212 0 -371 105t-227 285q-40 108 -40 228q0 80 18 164z" />
<glyph unicode="D" horiz-adv-x="1341" d="M94 0l326 1536h403q209 0 363.5 -103t218.5 -279q38 -105 38 -221q0 -80 -18 -165q-33 -157 -123 -299t-214 -245t-278.5 -163.5t-311.5 -60.5h-404zM246 125h276q173 0 339.5 87t284.5 235.5t154 320.5q14 73 14 140q0 32 -4 62q-10 96 -54 176.5t-109.5 139.5 t-156.5 92t-195 33h-203q-49 0 -72 -2l-22 -90l-234 -1100z" />
<glyph unicode="E" horiz-adv-x="911" d="M96 0l326 1536h729l-27 -125h-534q-47 0 -70 -2l-117 -545q20 -4 70 -4h535l-27 -125h-535q-36 0 -71 -6l-129 -604h604l-25 -125h-729z" />
<glyph unicode="F" horiz-adv-x="913" d="M94 0l326 1536h735l-27 -125h-538q-13 0 -36 -1t-34 -1q-9 -26 -16 -66l-88 -415q-11 -41 -13 -68h609l-27 -125h-539q-19 0 -31.5 -1t-21.5 -4.5t-14 -5.5t-8.5 -10t-4.5 -12.5t-3.5 -17.5t-4.5 -20l-139 -664h-125z" />
<glyph unicode="G" horiz-adv-x="1638" d="M233 520q-4 38 -4 77q0 82 17 171q34 160 127 305t220.5 250t286 167t318.5 62q155 0 280.5 -55.5t209.5 -157.5l-109 -90q-69 85 -173.5 131.5t-234.5 46.5q-178 0 -348.5 -88t-292 -240t-159.5 -331q-15 -70 -15 -137q0 -101 34 -193q57 -152 190 -240.5t311 -88.5 q173 0 323.5 71t237.5 178l59 283h-573l27 125h702l-16 -80l-78 -362q-116 -147 -301 -243.5t-408 -96.5q-128 0 -239.5 40t-192 111t-134 169.5t-65.5 215.5z" />
<glyph unicode="H" horiz-adv-x="1138" d="M92 0l326 1536h125l-133 -627q-14 -62 -15 -78q27 -2 82 -2h537q53 0 80 2l18 78l133 627h125l-326 -1536h-124l131 625q12 55 14 77q-37 3 -78 3h-536q-16 0 -44.5 -1.5t-41.5 -1.5l-148 -702h-125z" />
<glyph unicode="I" horiz-adv-x="303" d="M92 0l326 1534h125l-326 -1534h-125z" />
<glyph unicode="J" horiz-adv-x="819" d="M92 254l113 29q9 -89 56 -136t122 -47q115 0 200.5 70.5t106.5 169.5l254 1198h125l-254 -1196q-32 -149 -159 -252.5t-277 -103.5q-125 0 -201.5 72.5t-85.5 195.5z" />
<glyph unicode="K" horiz-adv-x="870" d="M84 0l326 1536h125l-148 -692q0 -2 2 -2q11 13 193 223.5t405 470.5h148q-240 -280 -432.5 -500.5t-237.5 -273.5l338 -762h-150q-70 159 -266 610l-35 72l-143 -682h-125z" />
<glyph unicode="L" horiz-adv-x="880" d="M92 0l326 1536h125l-277 -1300q-16 -74 -22 -111h606l-25 -125h-733z" />
<glyph unicode="M" horiz-adv-x="1492" d="M92 0l326 1534h162l188 -1192l23 -121l77 121l697 1192h161l-325 -1534h-125l274 1300q-72 -118 -381 -654.5t-374 -645.5h-95q-65 400 -206 1303l-277 -1303h-125z" />
<glyph unicode="N" horiz-adv-x="1277" d="M92 0l326 1534h141l506 -1235q21 -57 39 -90l282 1327h125l-325 -1536h-144q-77 183 -159 383.5t-188 462t-156 385.5q-24 53 -39 92q-10 -36 -25 -104l-258 -1219h-125z" />
<glyph unicode="O" horiz-adv-x="1718" d="M223 520q-4 38 -4 77q0 82 17 171q34 160 127 305t220.5 250t286 167t318.5 62q128 0 239.5 -40t191.5 -111t133 -169.5t65 -215.5q4 -38 4 -77q0 -82 -17 -171q-34 -160 -126.5 -305t-219.5 -250t-285.5 -167t-318.5 -62q-128 0 -239.5 40t-192 111t-134 169.5 t-65.5 215.5zM350 560q10 -98 56 -180.5t113.5 -142.5t161 -94t200.5 -34q135 0 268.5 52.5t240 141t184 210t105.5 255.5q16 74 16 142q0 100 -33 190q-55 152 -188 239.5t-313 87.5q-178 0 -349 -88t-292.5 -240t-159.5 -331q-13 -72 -13 -139q-1 -35 3 -69z" />
<glyph unicode="P" horiz-adv-x="874" d="M92 0l326 1536h299q120 0 205.5 -58t119.5 -157q20 -57 19 -121q0 -47 -10 -98q-39 -183 -189 -310.5t-332 -127.5h-120q-9 0 -26.5 -1t-25.5 -1q-3 -9 -18 -78l-123 -584h-125zM388 798q6 -12 52 -12h119q72 0 137.5 30t111 77t76.5 101.5t42 107.5q6 38 6 75v11 q-1 43 -18 83t-44.5 71t-73.5 50t-104 19h-119q-35 0 -59 -8l-119 -559q-8 -24 -8 -37q-1 -5 1 -9z" />
<glyph unicode="Q" horiz-adv-x="1720" d="M223 520q-4 38 -4 77q0 82 17 171q34 160 127 305t220.5 250t286 167t318.5 62q128 0 239.5 -40t191.5 -111t133 -169.5t65 -215.5q4 -38 4 -77q0 -82 -17 -171q-36 -168 -135 -316.5t-242 -258.5l91 -119l-111 -88l-92 127q-222 -129 -461 -129q-128 0 -239.5 40 t-192 111t-134 169.5t-65.5 215.5zM350 560q11 -98 56.5 -180.5t113 -142.5t161 -94t200.5 -34q183 0 364 96l-184 248l110 88l191 -258q121 91 204 216t113 269q16 74 16 142q0 100 -33 190q-55 151 -188 239t-313 88q-178 0 -349 -88t-292.5 -240t-159.5 -331 q-13 -72 -13 -139q0 -35 3 -69z" />
<glyph unicode="R" horiz-adv-x="1001" d="M80 0l326 1536h346q196 0 294 -126q69 -90 70 -212q0 -50 -12 -106q-31 -140 -130 -252t-245 -172l250 -668h-148l-221 582q-22 50 -32 63h-162q-49 0 -74 -2l-135 -643h-127zM378 775q5 -2 14 -3.5t24 -1.5h170q149 0 256.5 94t136.5 230q7 42 7 82v10q-1 46 -19.5 87 t-48.5 71.5t-80 48.5t-113 18h-172q-30 0 -49 -8l-123 -576q-1 -7 -4 -18t-4 -15q-1 -3 -1 -7q0 -10 6 -12z" />
<glyph unicode="S" horiz-adv-x="946" d="M137 240l113 18q18 -73 71.5 -116.5t135.5 -43.5q133 0 244.5 90.5t136.5 212.5q8 27 8 53q0 8 -1 15q-3 33 -10 59t-25 51t-37.5 44.5t-48.5 39t-57.5 35t-64.5 31.5q-39 18 -67.5 32.5t-62 34t-56 38.5t-45.5 44t-36 52.5t-21 60.5q-8 30 -8 65v8q1 40 11 85 q34 164 180.5 283.5t309.5 119.5q107 0 189 -54.5t116 -145.5l-125 -56q-19 60 -75 95.5t-130 35.5q-109 0 -212.5 -81.5t-125.5 -186.5q-8 -35 -8 -67q0 -109 94 -174q36 -24 145 -77.5t148 -78.5q146 -98 147 -265q0 -46 -12 -98q-37 -171 -185.5 -293t-317.5 -122 q-80 0 -142.5 25t-98.5 65t-55 82t-22 84z" />
<glyph unicode="T" horiz-adv-x="1067" d="M344 1411l27 125h977l-27 -125h-363q-12 0 -32.5 -1t-30.5 -1q-1 -3 -18 -74l-283 -1335h-125l283 1335q2 7 5.5 20.5t4 18t1 13.5t-3 11.5t-10.5 6.5t-18.5 5t-28.5 1h-358z" />
<glyph unicode="U" horiz-adv-x="1030" d="M172 410l240 1126h125l-238 -1118q-11 -44 -11 -84q0 -18 2 -36q8 -56 34 -99t80.5 -68t132.5 -25q127 0 233.5 90t132.5 218l240 1122h125l-240 -1128q-38 -176 -190.5 -300t-327.5 -124q-116 0 -203 56.5t-123 154.5q-22 58 -22 123q0 44 10 92z" />
<glyph unicode="V" horiz-adv-x="1220" d="M356 1536h136l163 -1315q53 90 88 162l639 1151q22 0 66.5 1t67.5 1l-859 -1536h-94q-34 256 -103.5 768t-103.5 768z" />
<glyph unicode="W" horiz-adv-x="1785" d="M377 1536h131q4 -102 22.5 -535t26.5 -667l6 -90l43 90q415 906 559 1202h101q3 -89 22.5 -529t28.5 -673l6 -90l43 90q111 236 322 690t237 510h133l-735 -1534h-102l-64 1255l-2 2q-171 -356 -592 -1257h-100z" />
<glyph unicode="X" horiz-adv-x="1198" d="M47 0l592 713q8 8 43 53l-18 55l-289 715h145l242 -592q18 -39 26 -53q176 212 543 645h146l-641 -770l313 -766h-148l-243 590q-9 28 -25 53l-45 -53q-477 -573 -491 -590h-150z" />
<glyph unicode="Y" horiz-adv-x="1011" d="M354 1536h135l152 -729l18 -80q17 24 52 80l463 729h135q-104 -164 -312 -489.5t-311 -489.5l-117 -557h-125l117 557z" />
<glyph unicode="Z" horiz-adv-x="1097" d="M61 0l19 100q127 152 460.5 554.5t516.5 621.5l110 131q-50 4 -80 4h-735l27 125h983l-21 -96l-1095 -1313q25 -2 78 -2h743l-25 -125h-981z" />
<glyph unicode="[" horiz-adv-x="485" d="M23 -301l417 1960h328l-23 -98h-206l-375 -1764h207l-21 -98h-327z" />
<glyph unicode="\" horiz-adv-x="600" d="M358 1524l91 22l122 -1526l-92 -26z" />
<glyph unicode="]" horiz-adv-x="454" d="M8 -301l21 98h207l374 1764h-207l23 98h328l-418 -1960h-328z" />
<glyph unicode="^" horiz-adv-x="999" d="M229 799l543 733h98q40 -122 118 -365.5t118 -365.5q-22 -6 -63 -20.5t-62 -20.5l-193 610l-452 -610z" />
<glyph unicode="_" horiz-adv-x="1316" d="M-47 -223l20 90h1315l-20 -90h-1315z" />
<glyph unicode="`" horiz-adv-x="536" d="M322 1300l55 82l368 -163l-55 -84z" />
<glyph unicode="a" horiz-adv-x="1210" d="M180 514q46 218 233 372t408 154q124 0 218.5 -54.5t144.5 -149.5l41 188h121l-218 -1024h-120l39 186q-91 -94 -208 -148t-241 -54q-145 0 -252.5 70.5t-151.5 192.5q-26 72 -27 152q0 55 13 115zM301 514q-10 -49 -11 -93q0 -112 68 -198q94 -119 265 -119 q169 0 312.5 119t180.5 291q9 45 9 87q0 61 -20 117q-34 94 -115.5 148t-192.5 54q-113 0 -219 -54t-180 -147.5t-97 -204.5z" />
<glyph unicode="b" horiz-adv-x="1208" d="M88 0l303 1434h121l-127 -598q89 95 207 149.5t242 54.5q145 0 252 -70.5t152 -191.5q27 -73 27 -153q0 -54 -12 -111q-31 -145 -127.5 -267t-233.5 -192.5t-282 -70.5q-124 0 -219 54t-143 148l-39 -186h-121zM317 514q-11 -49 -11 -93q0 -111 67 -197q93 -120 262 -120 q172 0 316.5 119t181.5 291q9 46 9 88q0 114 -68 200q-94 118 -265 118q-111 0 -216 -54t-179 -147.5t-97 -204.5z" />
<glyph unicode="c" horiz-adv-x="1140" d="M180 514q46 218 233 372t408 154q134 0 235 -65t154 -176l-110 -70q-34 89 -114 140t-189 51q-113 0 -219 -54t-180 -147.5t-97 -204.5q-10 -49 -11 -93q0 -112 68 -198q94 -119 265 -119q114 0 220.5 55t174.5 148l102 -45q-91 -128 -231 -203t-291 -75 q-145 0 -252.5 70.5t-151.5 192.5q-26 72 -27 152q0 55 13 115z" />
<glyph unicode="d" horiz-adv-x="1179" d="M156 514q46 218 233 372t408 154q124 0 219 -54.5t143 -149.5l127 598h121l-303 -1434h-121l39 186q-89 -94 -207 -148t-242 -54q-145 0 -252 70.5t-151 192.5q-26 72 -27 152q0 55 13 115zM276 514q-10 -49 -11 -93q-1 -112 67 -198q94 -119 266 -119q169 0 313 119.5 t181 290.5q9 44 9 86q-1 62 -21 118q-34 94 -115.5 148t-192.5 54q-113 0 -219 -54t-180 -147.5t-97 -204.5z" />
<glyph unicode="e" horiz-adv-x="1122" d="M180 514q46 220 226 373t399 153q140 0 234.5 -70t128.5 -186q18 -61 17 -129q0 -61 -14 -127q-2 -12 -8 -35t-8 -34h-864q-2 -20 -2 -39q0 -128 82 -216q94 -100 252 -100q197 0 368 119l29 -98q-195 -141 -422 -141q-145 0 -252.5 70.5t-151.5 192.5q-26 72 -27 152 q0 55 13 115zM315 567h740q6 35 6 68q-1 55 -17 104q-26 80 -95.5 130.5t-170.5 50.5q-153 0 -283 -101t-180 -252z" />
<glyph unicode="f" horiz-adv-x="657" d="M205 0l190 903h-157l24 113h158l43 205q21 98 89.5 155.5t158.5 57.5h145l-22 -113h-123q-49 0 -84 -28t-47 -83l-41 -194h282l-24 -113h-283l-190 -903h-119z" />
<glyph unicode="g" horiz-adv-x="1204" d="M119 -293l110 72q38 -75 113 -116.5t176 -41.5q167 0 312 119.5t180 286.5l34 161q-89 -95 -206 -148.5t-242 -53.5q-145 0 -252.5 70t-152.5 190q-27 73 -27 153q0 54 12 111q31 145 127.5 267t233.5 192.5t282 70.5q124 0 219.5 -54t143.5 -148l41 186h120l-215 -1008 q-29 -138 -126.5 -257t-233 -188t-274.5 -69q-127 0 -224 54.5t-151 150.5zM307 510q-10 -46 -10 -88q0 -113 69 -200q93 -118 263 -118t314 118.5t179 287.5q11 49 11 94q0 112 -67 197q-93 119 -263 119t-314.5 -119t-181.5 -291z" />
<glyph unicode="h" horiz-adv-x="995" d="M88 0l303 1434h121l-111 -527q146 133 326 133q172 0 272 -119q74 -88 74 -201q0 -41 -10 -85l-133 -635h-119l131 625q7 33 7 63q1 82 -51 146q-70 88 -193 88q-83 0 -157 -31.5t-130 -99t-76 -160.5l-133 -631h-121z" />
<glyph unicode="i" horiz-adv-x="272" d="M76 0l217 1024h121l-217 -1024h-121zM328 1221q6 27 30 46t52 19q25 0 41 -20q12 -14 11 -31q0 -7 -1 -14q-6 -28 -30 -48t-50 -20q-29 0 -44 20q-11 14 -11 33q0 7 2 15z" />
<glyph unicode="j" horiz-adv-x="391" d="M-47 -479l47 110l4 -1q4 -1 8 -1q24 0 50 8.5t50 32t31 56.5l277 1298h119l-287 -1346q-12 -53 -55.5 -92t-93.5 -56t-97 -17q-32 0 -53 8zM453 1221q6 27 30 46t52 19q26 0 41 -20q12 -14 12 -31q0 -7 -2 -14q-6 -28 -29.5 -48t-50.5 -20q-28 0 -44 20q-11 14 -11 33 q0 7 2 15z" />
<glyph unicode="k" horiz-adv-x="688" d="M90 0l303 1434h119l-176 -834q-3 -6 2 -6q2 2 6 4l393 426h148l-455 -492q61 -136 248 -532h-146l-194 420q-5 12 -15.5 31.5t-11.5 21.5q-4 -2 -4 -4l-98 -469h-119z" />
<glyph unicode="l" horiz-adv-x="290" d="M88 0l303 1432h121l-303 -1432h-121z" />
<glyph unicode="m" horiz-adv-x="1740" d="M88 0l217 1024h121l-25 -117q146 133 326 133q115 0 199.5 -55t120.5 -149q75 94 181.5 149t221.5 55q172 0 272 -120q74 -88 74 -203q0 -41 -10 -86l-133 -631h-119l131 618q7 33 7 63q0 83 -52 149q-72 90 -195 90q-119 0 -227 -83.5t-137 -201.5l-133 -635h-117 l131 625q7 33 7 63q1 82 -51 146q-70 88 -193 88q-129 0 -231.5 -75.5t-131.5 -213.5l-133 -633h-121z" />
<glyph unicode="n" horiz-adv-x="1015" d="M88 0l217 1024l121 -2l-25 -115q146 133 326 133q172 0 272 -119q74 -88 74 -201q0 -41 -10 -85l-133 -635h-119l131 625q7 33 7 63q1 82 -51 146q-70 88 -193 88q-83 0 -157 -31.5t-130 -99t-76 -160.5l-133 -631h-121z" />
<glyph unicode="o" horiz-adv-x="1200" d="M180 514q46 218 233 372t408 154q143 0 249.5 -70.5t151.5 -191.5q27 -73 27 -153q0 -54 -12 -111q-31 -145 -127.5 -267t-232.5 -192.5t-279 -70.5q-145 0 -252.5 70.5t-151.5 192.5q-26 72 -27 152q0 55 13 115zM301 514q-10 -49 -11 -93q0 -112 68 -198 q94 -119 265 -119q169 0 312.5 119t180.5 291q9 45 9 87q0 61 -20 117q-34 94 -115.5 148t-192.5 54q-113 0 -219 -54t-180 -147.5t-97 -204.5z" />
<glyph unicode="p" horiz-adv-x="1208" d="M0 -420l305 1444h121l-41 -186q89 94 207 148t242 54q145 0 252 -70.5t152 -192.5q26 -72 26 -152q0 -55 -13 -115q-46 -218 -233 -372t-408 -154q-124 0 -219 54.5t-143 149.5l-129 -608h-119zM315 510q-9 -44 -9 -86q0 -62 20 -118q35 -94 116.5 -148t192.5 -54 q171 0 315.5 118.5t179.5 287.5q10 47 10 90q0 62 -20 117q-34 94 -116 148.5t-195 54.5q-169 0 -313 -119.5t-181 -290.5z" />
<glyph unicode="q" horiz-adv-x="1179" d="M180 510q31 145 127.5 267t233.5 192.5t282 70.5q124 0 219.5 -54t143.5 -148l41 186h121l-308 -1442h-120l129 606q-89 -95 -206.5 -148.5t-242.5 -53.5q-145 0 -252.5 70t-152.5 190q-27 73 -27 153q0 54 12 111zM301 510q-9 -46 -9 -88q0 -113 68 -200 q94 -118 265 -118q111 0 215.5 54t178.5 147.5t97 204.5q11 49 11 94q0 112 -67 197q-92 119 -261 119q-172 0 -316.5 -119t-181.5 -291z" />
<glyph unicode="r" horiz-adv-x="655" d="M88 0l217 1024q82 -4 119 -4l-23 -113q68 63 147.5 95.5t196.5 35.5q51 0 74 -2q-6 -31 -28 -121q-8 0 -31 1.5t-31 1.5q-147 -3 -253 -77.5t-134 -209.5l-133 -631h-121z" />
<glyph unicode="s" horiz-adv-x="684" d="M102 127l115 61q21 -42 51 -64t84 -22q67 0 123 47t68 109q4 20 4 38q0 47 -27 87q-38 56 -141 123q-36 24 -60 43.5t-44.5 43.5t-28.5 47.5t-11 55.5q-1 7 -1 14q0 25 8 52q23 114 121 196t210 82q69 0 129 -35.5t82 -89.5l-114 -73q-18 26 -28.5 38t-38 26t-62.5 14 q-60 0 -111 -47.5t-65 -112.5q-2 -10 -2 -20q0 -24 12 -46q17 -30 43 -51.5t95 -71.5q14 -10 22 -16q84 -61 117 -131q20 -42 20 -96q0 -34 -8 -72q-26 -119 -123 -195.5t-219 -76.5q-83 0 -145 44t-75 99z" />
<glyph unicode="t" horiz-adv-x="782" d="M229 903l25 113h293l63 301h119l-63 -301h290l-24 -113h-291l-190 -903h-119l190 903h-293z" />
<glyph unicode="u" horiz-adv-x="1009" d="M164 391l135 631h121l-133 -621q-7 -33 -7 -64q0 -83 51 -146q70 -87 193 -87q127 0 231 76.5t132 212.5l135 629h119l-217 -1022h-117l24 119q-69 -63 -155 -99t-176 -36q-171 0 -271 120q-74 89 -74 203q0 40 9 84z" />
<glyph unicode="v" horiz-adv-x="882" d="M254 1024h129l88 -741q8 -59 10 -86q15 26 40.5 74t33.5 63l379 690h129l-574 -1024h-98z" />
<glyph unicode="w" horiz-adv-x="1515" d="M266 1024h129l82 -741q4 -56 8 -82q4 8 17.5 33t21.5 38l406 752h92l90 -823q8 16 24.5 44.5t22.5 39.5l395 739h129l-561 -1024h-102l-94 799l-434 -799h-99z" />
<glyph unicode="x" horiz-adv-x="866" d="M39 0l428 510l-215 514h145q24 -54 68 -164t67 -164l31 -73q4 5 11 13.5t13 15.5t11 12l303 358h141l-432 -512q41 -91 112.5 -263.5t104.5 -246.5h-143q-23 57 -70.5 164.5t-68.5 159.5l-29 73l-12 -12q-46 -56 -324 -385h-141z" />
<glyph unicode="y" horiz-adv-x="894" d="M143 -422q30 54 116 200t128 226l-12 72q-28 179 -72 510.5t-59 437.5h131l102 -766q8 -49 10 -76q6 13 22.5 39t22.5 39l433 766h129l-824 -1448h-127z" />
<glyph unicode="z" horiz-adv-x="849" d="M70 0l16 84q132 146 647 735l82 90h-549l25 115h700l-20 -94l-721 -817h551l-23 -113h-708z" />
<glyph unicode="{" horiz-adv-x="716" d="M229 623l31 145q106 7 167.5 83.5t90.5 217.5l55 260q54 250 187 320q28 15 68.5 22.5t68 8.5t88.5 1l-24 -114q-126 -9 -185.5 -60t-85.5 -176l-53 -248q-32 -150 -80.5 -235t-142.5 -127q-36 -25 -66 -25q29 -3 55 -26q41 -22 63.5 -55t27.5 -80.5t-0.5 -100.5 t-22.5 -127l-51 -246q-10 -46 -11 -81t7 -60t22 -42t37.5 -28t50.5 -16t64 -8l-25 -115q-95 0 -149 10q-65 6 -97 55t-31.5 123t17.5 164l55 261q33 135 2.5 213.5t-133.5 85.5z" />
<glyph unicode="|" horiz-adv-x="282" d="M82 -20l340 1597h113l-340 -1597h-113z" />
<glyph unicode="}" horiz-adv-x="735" d="M39 -289q4 20 10 58t10 57q127 9 187 60t86 175l51 246q17 75 33.5 127t42 100t62 81t85.5 55q33 20 66 26q-31 0 -56 25q-53 29 -74 81.5t-17.5 116t24.5 164.5l53 248q14 54 11 93.5t-13.5 65.5t-36 42t-57 24t-76.5 11l25 114q97 0 151 -10q65 -6 97 -55t31 -123 t-19 -164l-56 -260q-32 -135 -1.5 -214.5t133.5 -86.5l-31 -145q-106 -7 -166.5 -82t-91.5 -217l-56 -261q-54 -249 -184 -319q-29 -16 -68 -23.5t-68 -8.5t-87 -1z" />
<glyph unicode="~" horiz-adv-x="1220" d="M172 451q4 18 26.5 47t59.5 62.5t98 58t129 26.5h27q51 -2 114 -26.5t112.5 -52.5t108 -52.5t101.5 -26.5h8q73 0 143.5 38.5t114.5 101.5l50 -45q-3 -12 -15 -32t-38 -47.5t-60 -51.5t-85.5 -42t-109.5 -20h-16q-52 0 -116 23.5t-115 52t-111 54t-104 28.5h-29 q-45 0 -84 -12.5t-69.5 -36.5t-48.5 -43t-40 -47z" />
<glyph unicode="&#xa1;" horiz-adv-x="294" d="M84 -8l281 1325h124l-280 -1325h-125zM389 1466q6 29 30.5 49.5t53.5 20.5q28 0 44.5 -20.5t10.5 -49.5q-6 -28 -31 -47.5t-53 -19.5q-29 0 -45 19.5t-10 47.5z" />
<glyph unicode="&#xa2;" horiz-adv-x="1112" d="M166 514q41 197 202.5 344.5t362.5 173.5l39 185h121l-39 -181q121 -10 208.5 -73t135.5 -164l-111 -70q-29 79 -97 128t-161 58l-172 -809q102 11 195.5 64.5t153.5 136.5l104 -45q-87 -120 -213 -192.5t-266 -81.5l-35 -166h-121l37 170q-190 26 -288 172.5t-56 349.5z M289 514q-32 -152 37.5 -263.5t208.5 -137.5l170 798q-151 -26 -268 -137t-148 -260z" />
<glyph unicode="&#xa3;" horiz-adv-x="1189" d="M131 0l25 125h49q63 6 121 33t107.5 84t66.5 135q28 132 -88 375h-144l21 100h94q-26 113 -4 225q43 199 209 337t366 138q231 0 346 -182l-116 -74q-35 64 -105 96.5t-149 32.5q-95 0 -185.5 -46t-154 -124t-82.5 -170q-15 -83 -11.5 -141t19.5 -92h451l-21 -100h-403 q110 -241 82 -375q-17 -73 -65.5 -139.5t-113.5 -110.5h295q127 0 219.5 74.5t120.5 199.5q21 0 62 -1t61 -1q-85 -399 -565 -399h-508z" />
<glyph unicode="&#xa4;" horiz-adv-x="1259" d="M127 207q4 5 15 16t16 17l194 159l-16 33q-58 120 -25 262q26 128 140 262l28 31l-129 164q-12 15 -18 33q28 36 69 55q24 -18 27 -22l129 -166l37 22q156 86 285 86q124 0 241 -86l25 -24l223 182l31 -17q15 0 26 -34q-19 -24 -28 -31l-199 -164q79 -135 43 -293 q-32 -158 -168 -291l127 -161q14 -17 19 -33q-24 -31 -68 -57q-8 4 -27 24l-127 164q-64 -52 -152 -81.5t-169 -29.5q-130 0 -246 84l-27 23l-110 -90l-121 -94q-28 14 -45 57zM418 694q-32 -148 51 -254t231 -106q146 0 275.5 106t161.5 254q15 72 -0.5 139.5t-54 116 t-98.5 78t-130 29.5q-147 0 -276 -108t-160 -255z" />
<glyph unicode="&#xa5;" horiz-adv-x="1249" d="M176 578l23 100h458q-5 24 -23 102.5t-26 122.5h-362l22 101h318l-111 532h133l172 -809q12 18 34.5 52.5t33.5 51.5l446 705h138l-340 -532h313l-23 -101h-356l-141 -225h450l-22 -100h-496l-10 -21l-117 -557h-125l117 557l-6 21h-500z" />
<glyph unicode="&#xa6;" horiz-adv-x="282" d="M82 -23l137 648h113l-137 -648h-113zM285 928l137 649h113l-138 -649h-112z" />
<glyph unicode="&#xa7;" horiz-adv-x="1134" d="M45 -319l109 94l28 -31q2 -2 11.5 -13.5t13 -15t14.5 -15t17.5 -16t20 -13.5t24.5 -13.5t28.5 -11t34.5 -9t39.5 -4.5t46.5 -2q71 0 136 17.5t118.5 62t67.5 109.5q5 23 5.5 43t-5.5 38.5t-13 34t-22 31t-28 27.5t-37 26t-41.5 24t-48 24t-51 23t-56.5 24l-70 30 q-267 113 -215 353q19 90 85.5 165t234.5 189q-79 62 -95.5 120t-3.5 126q22 102 95 177t170.5 111.5t205.5 36.5q117 0 228 -38t157 -93l-114 -118l-45 43q-77 70 -226 73q-124 0 -215.5 -52.5t-113.5 -156.5q-10 -46 14 -88t71 -74t108.5 -66.5t126.5 -64t125.5 -68 t106 -78.5t66.5 -95t8 -117q-25 -118 -107.5 -194.5t-260.5 -161.5q69 -59 91.5 -114.5t2.5 -149.5q-29 -133 -155.5 -223.5t-309.5 -90.5q-137 0 -241.5 58t-135.5 127zM300.5 443.5q4.5 -29.5 13 -52t24.5 -43t31 -33.5t32 -24q44 -30 103.5 -57t125.5 -51.5t93 -37.5 q48 18 92 41t88 55t75.5 75t41.5 90q28 142 -119 208q-30 16 -94 48t-139 68.5t-101 49.5l-32 -22q-114 -80 -163 -134q-55 -62 -67 -118q-9 -33 -4.5 -62.5z" />
<glyph unicode="&#xa8;" horiz-adv-x="579" d="M346 1245q4 26 27.5 45t50.5 19q26 0 43 -19.5t12 -44.5q-6 -28 -30 -47.5t-52 -19.5t-42.5 19t-8.5 48zM629 1245q4 26 27.5 45t50.5 19q26 0 42 -19.5t11 -44.5q-6 -28 -29 -47.5t-51 -19.5t-42.5 19t-8.5 48z" />
<glyph unicode="&#xa9;" horiz-adv-x="1628" d="M216 504q-12 110 11 233q32 151 121.5 289t210.5 237.5t270.5 158.5t298.5 59q204 0 354 -100t211.5 -271t18.5 -373q-32 -150 -119 -286.5t-206.5 -236.5t-270 -159t-303.5 -59q-119 0 -224 38t-181 106t-128 161t-64 203zM315 737q-38 -178 17 -328.5t187 -237.5 t312 -87q178 0 349.5 87t293.5 237.5t160 328.5q21 110 10 208t-56.5 180.5t-114 142t-162.5 92.5t-201 33q-180 0 -349 -87.5t-288.5 -238t-157.5 -330.5zM532 735q40 191 207 329t367 138q60 0 111.5 -13.5t83.5 -34t47.5 -34.5t23.5 -24l-59 -66q-43 45 -104 67.5 t-122 22.5q-166 0 -299 -111t-167 -274q-21 -99 12 -187t111 -141t180 -53q63 0 134 22.5t130 65.5l41 -57q-16 -16 -43 -31q-124 -84 -277 -84q-132 0 -228.5 64t-135.5 170.5t-13 230.5z" />
<glyph unicode="&#xaa;" horiz-adv-x="866" d="M311 1133q31 147 157.5 250.5t276.5 103.5q82 0 146 -36.5t98 -100.5l27 127h82l-150 -701l-69 55l16 82q-61 -65 -140 -102t-161 -37q-149 0 -232 105t-51 254zM393 1133q-25 -117 37.5 -197t179.5 -80q114 0 210.5 80t121.5 197q25 114 -37 194t-176 80 q-117 0 -214 -80t-122 -194z" />
<glyph unicode="&#xab;" horiz-adv-x="718" d="M160 555l346 403l69 -57q-239 -280 -296 -346l149 -346l-94 -57zM414 555l344 403l71 -57q-107 -123 -297 -346q58 -140 150 -346l-96 -57q-46 108 -84.5 197.5t-57 132.5t-30.5 73z" />
<glyph unicode="&#xac;" horiz-adv-x="1357" d="M184 692l23 101h1057l-136 -635h-100l113 534h-957z" />
<glyph unicode="&#xad;" horiz-adv-x="806" d="M207 549l22 100h623l-23 -100h-622z" />
<glyph unicode="&#xae;" horiz-adv-x="1669" d="M219 513q-12 113 12 239q32 154 123.5 296t216 244t278 163t306.5 61q210 0 364 -103t217.5 -278.5t20.5 -382.5q-33 -154 -123 -294.5t-213.5 -243t-279 -163.5t-312.5 -61q-122 0 -230 39.5t-185.5 109t-130 165.5t-64.5 209zM308 538.5q10 -100.5 56 -185t115 -145.5 t165 -95.5t206 -34.5q185 0 361.5 90t302.5 245.5t165 338.5q38 184 -21.5 339.5t-197.5 245.5t-323 90q-184 0 -358.5 -90t-298 -245.5t-161.5 -339.5q-21 -113 -11 -213.5zM690 309l191 903h188q122 0 177 -76t30 -194q-15 -77 -60 -139.5t-114 -100.5q-4 -2 -17 -9 t-20 -11l88 -369h-92l-82 342q-6 9 -14 9h-105q-8 0 -8 -9l-74 -346h-88zM870 758q0 -6 11 -6h106q47 0 86.5 22t62.5 54.5t36 61.5t18 52q5 20 5.5 42.5t-5 48.5t-19 46t-40.5 33.5t-66 13.5h-107q-9 0 -12 -12z" />
<glyph unicode="&#xaf;" horiz-adv-x="821" d="M373 1339l20 101h645l-20 -101h-645z" />
<glyph unicode="&#xb0;" horiz-adv-x="802" d="M315 1153q29 137 146.5 233.5t253.5 96.5q137 0 213 -97t47 -233q-29 -137 -146.5 -233.5t-253.5 -96.5q-137 0 -213 97t-47 233zM393 1153q-22 -104 36.5 -178t162.5 -74t192.5 74t110.5 178q23 104 -34.5 177t-162.5 73q-104 0 -193 -73t-112 -177z" />
<glyph unicode="&#xb1;" horiz-adv-x="1073" d="M66 94l22 101h981l-22 -101h-981zM174 606l21 96h440l76 355h96l-76 -355h443l-21 -96h-442l-74 -350h-96l73 350h-440z" />
<glyph unicode="&#xb2;" horiz-adv-x="800" d="M256 614l18 86q36 30 135.5 106.5t194 153t164.5 140.5q42 37 74 82t41 82q19 86 -30.5 147.5t-135.5 61.5q-75 0 -142 -47t-98 -119q-52 18 -67 22q42 94 133 156.5t190 62.5q117 0 183.5 -83.5t41.5 -200.5q-21 -102 -155 -224q-45 -41 -97 -84t-125.5 -101t-99.5 -79 l-57 -45q-36 -28 -49 -41h463l-17 -76h-565z" />
<glyph unicode="&#xb3;" horiz-adv-x="776" d="M281 860l77 8q-8 -80 40.5 -134t131.5 -54q87 0 162 62.5t94 152.5q18 78 -15.5 141t-102.5 78q-4 2 -10 3t-14.5 1.5t-12.5 1.5l12 68q47 15 88 55t53 98q11 55 -15.5 96.5t-82.5 41.5q-96 0 -158 -99l-59 35q32 61 97 99t139 38q79 0 126 -57.5t29 -142.5 q-23 -109 -112 -178l-7 -7l11 -6q72 -36 100.5 -108t9.5 -158q-25 -119 -127.5 -204t-220.5 -85q-109 0 -176 73t-57 181z" />
<glyph unicode="&#xb4;" horiz-adv-x="538" d="M305 1219l438 163l19 -82l-438 -165z" />
<glyph unicode="&#xb6;" horiz-adv-x="1034" d="M279 1094q23 107 74 180.5t129 112.5t165.5 55t202.5 16h418l-404 -1896h-125l377 1773h-182l-377 -1773h-125l252 1181q-218 5 -328 98t-77 253z" />
<glyph unicode="&#xb7;" horiz-adv-x="268" d="M231 778q6 28 30 47t52 19q26 0 42 -20t10 -46q-6 -28 -29 -47.5t-51 -19.5t-44 19.5t-10 47.5z" />
<glyph unicode="&#xb8;" horiz-adv-x="530" d="M-14 -365l57 48l41 -23q36 -18 90 -18q44 0 88.5 28t54.5 74t-11.5 68t-53.5 22h-25l-32 -6q-28 -4 -37 -4q-2 1 -18.5 11t-26.5 15l139 150h74l-103 -104q3 0 23 3t45 3q67 0 101.5 -42t19.5 -114q-20 -92 -100 -142t-165 -50q-52 0 -98.5 25.5t-62.5 55.5z" />
<glyph unicode="&#xb9;" horiz-adv-x="344" d="M338 614l180 850q-7 0 -22 1t-23 1h-100l14 70h223l-196 -922h-76z" />
<glyph unicode="&#xba;" horiz-adv-x="851" d="M311 1128q31 147 156 250t274 103q146 0 228 -103.5t51 -249.5q-32 -149 -157 -252.5t-271 -103.5q-149 0 -231 103.5t-50 252.5zM393 1128q-25 -115 38 -195.5t179 -80.5q114 0 210.5 80.5t121.5 195.5q23 113 -39 193t-176 80q-115 0 -213 -80t-121 -193z" />
<glyph unicode="&#xbb;" horiz-adv-x="739" d="M86 209q196 225 297 346q-84 198 -150 346l97 57l172 -403q-25 -31 -60.5 -72.5t-115 -133.5t-168.5 -197zM340 209l297 346q-66 148 -150 346l95 57l174 -403l-346 -403z" />
<glyph unicode="&#xbc;" horiz-adv-x="1449" d="M317 539l195 915q-14 2 -47 2h-111l17 82h247l-212 -999h-89zM373 20l770 1526q12 -3 39.5 -11t42.5 -11l-772 -1530q-49 15 -80 26zM760 195q6 42 14 77l617 727h71l-151 -716q12 -2 37 -2h79l-18 -86h-80q-25 0 -39 -2l-39 -193h-88l39 193q-10 2 -35 2h-407zM879 285 l2 -4h299q29 0 43 2l114 540q0 2 -2 2q-132 -161 -456 -540z" />
<glyph unicode="&#xbd;" horiz-adv-x="1538" d="M317 539l195 915q-14 2 -47 2h-111l17 82h247l-212 -999h-89zM373 20l770 1526q12 -3 39.5 -11t42.5 -11l-772 -1530q-49 15 -80 26zM854 0l18 96q36 30 122.5 95.5t164.5 126.5t159.5 131t135.5 135.5t64 113.5q20 95 -29 157.5t-143 62.5q-79 0 -147.5 -47.5 t-102.5 -125.5l-80 23q44 101 143 168.5t205 67.5q127 0 197.5 -90t44.5 -216q-9 -45 -40 -94.5t-66 -89.5t-94.5 -92t-100 -84t-110 -84.5t-97.5 -75.5l-60 -47q-26 -18 -51 -43q7 0 28 -1t36 -1h426l-17 -86h-606z" />
<glyph unicode="&#xbe;" horiz-adv-x="1662" d="M221 791l88 8q-8 -88 41 -142.5t139 -54.5q94 0 172.5 64.5t98.5 160.5q21 93 -28.5 167.5t-141.5 74.5q6 27 14 74q129 49 152 164q12 61 -14 101t-87 40q-55 0 -91.5 -24t-69.5 -74l-72 36q38 66 107 108t147 42q84 0 136 -63t32 -154q-22 -115 -127 -199 q85 -39 119 -117.5t12 -175.5q-26 -129 -137 -220t-240 -91q-117 0 -191 79.5t-59 195.5zM600 20l768 1526q12 -3 39.5 -11t42.5 -11l-770 -1530q-49 15 -80 26zM985 195l16 77l615 727h72l-146 -682q-7 -22 -3 -29t34 -7h80l-19 -86h-80h-9h-7.5t-6 -0.5t-5.5 -1l-4 -2 t-4 -4t-2.5 -5.5t-2.5 -7.5t-2 -10.5l-34 -164h-86l34 164q1 8 1.5 13.5t-1 9t-2.5 5.5t-5 2.5t-6 0.5h-8h-9h-410zM1106 285q0 -4 2 -4h297h14.5t11 1.5t8.5 1.5t6 3.5t4 4.5t3 6.5t2.5 7.5t2.5 11t3 13l105 493l-2 2z" />
<glyph unicode="&#xbf;" horiz-adv-x="860" d="M132.5 213.5q-16.5 69.5 2.5 155.5q15 72 54 135.5t89 111.5t107.5 92t114.5 84.5t105.5 81t84 90.5t47.5 105q19 85 -59 176l102 66q56 -28 80.5 -87.5t9.5 -129.5q-16 -76 -55.5 -142.5t-90 -115.5t-108.5 -93.5t-115.5 -86t-106.5 -83.5t-85.5 -94.5t-48.5 -111.5 q-25 -116 35.5 -183t167.5 -67q96 0 176 56t131 138l86 -69q-59 -103 -175 -176.5t-245 -73.5q-77 0 -140.5 26.5t-105 76t-58 119zM719 1477q6 28 29 47.5t51 19.5t43.5 -19.5t9.5 -47.5t-30 -47t-52 -19t-42.5 19t-8.5 47z" />
<glyph unicode="&#xc0;" horiz-adv-x="1236" d="M35 0l860 1536h94l209 -1536h-131l-41 299q-11 67 -12 72q-31 2 -92 2h-453q-63 0 -94 -2q-3 -5 -18 -31t-21 -41l-168 -299h-133zM449 504q15 -6 38 -6h469q24 0 45 6l-6 39q-44 347 -96 725q0 21 -6 39l-2 -2q-70 -127 -422 -762zM758 1710l55 82l369 -164l-56 -84z " />
<glyph unicode="&#xc1;" horiz-adv-x="1236" d="M35 0l860 1536h94l209 -1536h-131l-41 299q-11 67 -12 72q-31 2 -92 2h-453q-63 0 -94 -2q-3 -5 -18 -31t-21 -41l-168 -299h-133zM449 504q15 -6 38 -6h469q24 0 45 6l-6 39q-44 347 -96 725q0 21 -6 39l-2 -2q-70 -127 -422 -762zM741 1628l439 164l18 -82l-438 -166z " />
<glyph unicode="&#xc2;" horiz-adv-x="1236" d="M35 0l860 1536h94l209 -1536h-131l-41 299q-11 67 -12 72q-31 2 -92 2h-453q-63 0 -94 -2q-3 -5 -18 -31t-21 -41l-168 -299h-133zM449 504q15 -6 38 -6h469q24 0 45 6l-6 39q-44 347 -96 725q0 21 -6 39l-2 -2q-70 -127 -422 -762zM737 1565l23 90l225 88l189 -86 l-17 -90q-22 0 -192 84q-205 -86 -228 -86z" />
<glyph unicode="&#xc3;" horiz-adv-x="1236" d="M35 0l860 1536h94l209 -1536h-131l-41 299q-11 67 -12 72q-31 2 -92 2h-453q-63 0 -94 -2q-3 -5 -18 -31t-21 -41l-168 -299h-133zM449 504q15 -6 38 -6h469q24 0 45 6l-6 39q-44 347 -96 725q0 21 -6 39l-2 -2q-70 -127 -422 -762zM635 1702q97 108 209 108 q54 0 147 -34.5t142 -34.5q44 0 81.5 17.5t81.5 53.5l33 -49q-43 -52 -96.5 -82t-104.5 -30q-55 0 -153 36.5t-148 36.5q-64 0 -161 -73z" />
<glyph unicode="&#xc4;" horiz-adv-x="1236" d="M35 0l860 1536h94l209 -1536h-131l-41 299q-11 67 -12 72q-31 2 -92 2h-453q-63 0 -94 -2q-3 -5 -18 -31t-21 -41l-168 -299h-133zM449 504q15 -6 38 -6h469q24 0 45 6l-6 39q-44 347 -96 725q0 21 -6 39l-2 -2q-70 -127 -422 -762zM760 1655q4 26 27.5 44.5t50.5 18.5 q26 0 43 -19t12 -44q-6 -28 -30 -48t-52 -20t-42.5 19.5t-8.5 48.5zM1042 1655q4 26 27.5 44.5t50.5 18.5q26 0 42.5 -19t11.5 -44q-6 -28 -29.5 -48t-50.5 -20q-28 0 -43 19.5t-9 48.5z" />
<glyph unicode="&#xc5;" horiz-adv-x="1236" d="M35 0l860 1536h94l209 -1536h-131l-41 299q-11 67 -12 72q-31 2 -92 2h-453q-63 0 -94 -2q-3 -5 -18 -31t-21 -41l-168 -299h-133zM449 504q15 -6 38 -6h469q24 0 45 6l-6 39q-44 347 -96 725q0 21 -6 39l-2 -2q-70 -127 -422 -762zM874 1636q7 38 38 63t69 25 q37 0 57.5 -25.5t12.5 -62.5q-7 -38 -38 -63t-69 -25t-58 25t-12 63zM911 1636q-12 -51 41 -51q22 0 39 13.5t23 37.5q5 22 -7 37t-34 15q-24 0 -40.5 -14.5t-21.5 -37.5z" />
<glyph unicode="&#xc6;" horiz-adv-x="1546" d="M35 0l964 1536h813l-26 -125h-535q-46 0 -69 -2l-117 -545q20 -4 70 -4h534l-27 -125h-534q-47 0 -70 -2l-14 -63l-117 -545h604l-24 -125h-729l78 373h-361q-45 0 -59 -8.5t-43 -49.5l-205 -315h-133zM483 504q15 -6 39 -6h338l178 837q2 8 4 26.5t2 20.5l-2 -2 l-534 -839z" />
<glyph unicode="&#xc7;" horiz-adv-x="1466" d="M238 766q34 159 127.5 304.5t221 251t286.5 168t319 62.5q91 0 171.5 -18t139 -49t99 -62.5t69.5 -66.5l-100 -101q-149 172 -408 172q-180 0 -351 -88.5t-291.5 -240.5t-158.5 -332q-27 -129 1.5 -250t99 -210t181.5 -143t241 -54q257 0 477 170l57 -101 q-99 -78 -243.5 -136t-317.5 -58q-19 0 -59 4l-88 -92q3 0 22.5 3t44.5 3q67 0 101.5 -42t19.5 -114q-20 -92 -99.5 -142t-164.5 -50q-52 0 -99 25.5t-63 55.5l57 48l41 -23q36 -18 91 -18q44 0 88.5 28t54.5 74t-12 68t-54 22h-24l-33 -6q-28 -4 -37 -4q-2 1 -18.5 11 t-26.5 15l133 144q-178 30 -306 139.5t-179 276t-10 356.5z" />
<glyph unicode="&#xc8;" horiz-adv-x="911" d="M96 0l326 1536h729l-27 -125h-534q-47 0 -70 -2l-117 -545q20 -4 70 -4h535l-27 -125h-535q-36 0 -71 -6l-129 -604h604l-25 -125h-729zM594 1710l55 82l369 -164l-55 -84z" />
<glyph unicode="&#xc9;" horiz-adv-x="911" d="M96 0l326 1536h729l-27 -125h-534q-47 0 -70 -2l-117 -545q20 -4 70 -4h535l-27 -125h-535q-36 0 -71 -6l-129 -604h604l-25 -125h-729zM578 1628l438 164l18 -82l-438 -166z" />
<glyph unicode="&#xca;" horiz-adv-x="911" d="M96 0l326 1536h729l-27 -125h-534q-47 0 -70 -2l-117 -545q20 -4 70 -4h535l-27 -125h-535q-36 0 -71 -6l-129 -604h604l-25 -125h-729zM575 1565l23 90l225 88l189 -86l-17 -90q-22 0 -192 84q-205 -86 -228 -86z" />
<glyph unicode="&#xcb;" horiz-adv-x="911" d="M96 0l326 1536h729l-27 -125h-534q-47 0 -70 -2l-117 -545q20 -4 70 -4h535l-27 -125h-535q-36 0 -71 -6l-129 -604h604l-25 -125h-729zM598 1655q4 26 27.5 44.5t50.5 18.5q26 0 43 -19t12 -44q-6 -28 -30 -48t-52 -20t-42.5 19.5t-8.5 48.5zM881 1655q4 26 27 44.5 t50 18.5q26 0 42.5 -19t11.5 -44q-6 -28 -29.5 -48t-50.5 -20q-28 0 -42.5 19.5t-8.5 48.5z" />
<glyph unicode="&#xcc;" horiz-adv-x="303" d="M92 0l326 1534h125l-326 -1534h-125zM297 1710l55 82l369 -164l-55 -84z" />
<glyph unicode="&#xcd;" horiz-adv-x="303" d="M92 0l326 1534h125l-326 -1534h-125zM281 1628l438 164l18 -82l-438 -166z" />
<glyph unicode="&#xce;" horiz-adv-x="303" d="M92 0l326 1534h125l-326 -1534h-125zM276 1565l23 90l225 88l189 -86l-17 -90q-22 0 -192 84q-205 -86 -228 -86z" />
<glyph unicode="&#xcf;" horiz-adv-x="303" d="M92 0l326 1534h125l-326 -1534h-125zM299 1655q4 26 27.5 44.5t50.5 18.5q26 0 43 -19t12 -44q-6 -28 -30 -48t-52 -20t-42.5 19.5t-8.5 48.5zM582 1655q4 26 27 44.5t50 18.5q26 0 42.5 -19t11.5 -44q-6 -28 -29.5 -48t-50.5 -20q-28 0 -42.5 19.5t-8.5 48.5z" />
<glyph unicode="&#xd0;" horiz-adv-x="1558" d="M203 670l26 123h260l158 743h324q74 0 166 -10q185 -20 318 -125.5t186 -272.5t12 -360q-44 -210 -183.5 -386.5t-337 -279t-407.5 -102.5h-403l141 670h-260zM473 125h277q173 0 339.5 87t284.5 235.5t154 320.5q20 107 10 202.5t-54 176t-110 139.5t-157 92t-195 33 h-203q-48 0 -71 -2q-5 -15 -19 -74l-115 -542h258l-26 -125h-258l-101 -473q-7 -28 -14 -70z" />
<glyph unicode="&#xd1;" horiz-adv-x="1277" d="M92 0l326 1534h141l506 -1235q21 -57 39 -90l282 1327h125l-325 -1536h-144q-77 183 -159 383.5t-188 462t-156 385.5q-24 53 -39 92q-10 -36 -25 -104l-258 -1219h-125zM655 1702q97 108 209 108q54 0 147 -34.5t142 -34.5q76 0 164 71l33 -49q-43 -52 -96.5 -82 t-104.5 -30q-55 0 -153 36.5t-148 36.5q-65 0 -162 -73z" />
<glyph unicode="&#xd2;" horiz-adv-x="1718" d="M223 520q-12 117 13 248q34 160 127 305t220.5 250t286 167t318.5 62q128 0 239.5 -40t191.5 -111t133 -169.5t65 -215.5t-13 -248q-34 -160 -126.5 -305t-219.5 -250t-285.5 -167t-318.5 -62q-128 0 -239.5 40t-192 111t-134 169.5t-65.5 215.5zM350.5 560 q10.5 -98 56 -180.5t113 -142.5t161 -94t200.5 -34q135 0 268.5 52.5t240 141t184 210t105.5 255.5q38 180 -17 331.5t-188 239.5t-313 88q-178 0 -349 -88t-292.5 -240t-159.5 -331q-20 -110 -9.5 -208zM997 1710l56 82l368 -164l-55 -84z" />
<glyph unicode="&#xd3;" horiz-adv-x="1718" d="M223 520q-12 117 13 248q34 160 127 305t220.5 250t286 167t318.5 62q128 0 239.5 -40t191.5 -111t133 -169.5t65 -215.5t-13 -248q-34 -160 -126.5 -305t-219.5 -250t-285.5 -167t-318.5 -62q-128 0 -239.5 40t-192 111t-134 169.5t-65.5 215.5zM350.5 560 q10.5 -98 56 -180.5t113 -142.5t161 -94t200.5 -34q135 0 268.5 52.5t240 141t184 210t105.5 255.5q38 180 -17 331.5t-188 239.5t-313 88q-178 0 -349 -88t-292.5 -240t-159.5 -331q-20 -110 -9.5 -208zM981 1628l438 164l19 -82l-439 -166z" />
<glyph unicode="&#xd4;" horiz-adv-x="1718" d="M223 520q-12 117 13 248q34 160 127 305t220.5 250t286 167t318.5 62q128 0 239.5 -40t191.5 -111t133 -169.5t65 -215.5t-13 -248q-34 -160 -126.5 -305t-219.5 -250t-285.5 -167t-318.5 -62q-128 0 -239.5 40t-192 111t-134 169.5t-65.5 215.5zM350.5 560 q10.5 -98 56 -180.5t113 -142.5t161 -94t200.5 -34q135 0 268.5 52.5t240 141t184 210t105.5 255.5q38 180 -17 331.5t-188 239.5t-313 88q-178 0 -349 -88t-292.5 -240t-159.5 -331q-20 -110 -9.5 -208zM979 1565l22 90l226 88l188 -86l-16 -90q-23 0 -193 84 q-205 -86 -227 -86z" />
<glyph unicode="&#xd5;" horiz-adv-x="1718" d="M223 520q-12 117 13 248q34 160 127 305t220.5 250t286 167t318.5 62q128 0 239.5 -40t191.5 -111t133 -169.5t65 -215.5t-13 -248q-34 -160 -126.5 -305t-219.5 -250t-285.5 -167t-318.5 -62q-128 0 -239.5 40t-192 111t-134 169.5t-65.5 215.5zM350.5 560 q10.5 -98 56 -180.5t113 -142.5t161 -94t200.5 -34q135 0 268.5 52.5t240 141t184 210t105.5 255.5q38 180 -17 331.5t-188 239.5t-313 88q-178 0 -349 -88t-292.5 -240t-159.5 -331q-20 -110 -9.5 -208zM877 1702q97 108 208 108q54 0 147 -34.5t142 -34.5q76 0 164 71 l33 -49q-43 -52 -96.5 -82t-104.5 -30q-55 0 -153 36.5t-148 36.5q-65 0 -162 -73z" />
<glyph unicode="&#xd6;" horiz-adv-x="1718" d="M223 520q-12 117 13 248q34 160 127 305t220.5 250t286 167t318.5 62q128 0 239.5 -40t191.5 -111t133 -169.5t65 -215.5t-13 -248q-34 -160 -126.5 -305t-219.5 -250t-285.5 -167t-318.5 -62q-128 0 -239.5 40t-192 111t-134 169.5t-65.5 215.5zM350.5 560 q10.5 -98 56 -180.5t113 -142.5t161 -94t200.5 -34q135 0 268.5 52.5t240 141t184 210t105.5 255.5q38 180 -17 331.5t-188 239.5t-313 88q-178 0 -349 -88t-292.5 -240t-159.5 -331q-20 -110 -9.5 -208zM1001 1655q4 26 27.5 44.5t50.5 18.5q26 0 43 -19t13 -44 q-6 -28 -30 -48t-52 -20t-43 19.5t-9 48.5zM1284 1655q4 26 27.5 44.5t50.5 18.5q26 0 42 -19t11 -44q-6 -28 -29.5 -48t-50.5 -20q-28 0 -42.5 19.5t-8.5 48.5z" />
<glyph unicode="&#xd7;" horiz-adv-x="1038" d="M170 219l369 303l-236 299l82 68l236 -299l366 303l53 -68l-366 -303l237 -303l-82 -67q-39 51 -118.5 151.5t-118.5 151.5q-184 -153 -369 -303z" />
<glyph unicode="&#xd8;" horiz-adv-x="1703" d="M229 768q34 160 127 305t221 250t286.5 167t318.5 62q82 0 159 -18l50 96h92q-8 -18 -30 -58.5t-32 -62.5q219 -77 325.5 -281.5t51.5 -459.5q-34 -160 -126.5 -305t-219.5 -250t-285.5 -167t-318.5 -62q-80 0 -184 22l-48 -98q-17 0 -49 -1t-47 -1l64 127 q-209 86 -308.5 286t-46.5 449zM354 768q-44 -207 37 -374t252 -240l637 1259q-72 14 -125 14q-178 0 -349 -88t-292.5 -240t-159.5 -331zM725 127q68 -18 149 -18q179 0 350 88.5t291.5 240.5t157.5 330q45 214 -43 384t-270 237q-52 -104 -282.5 -560.5t-352.5 -701.5z " />
<glyph unicode="&#xd9;" horiz-adv-x="1030" d="M172 410l240 1126h125l-238 -1118q-16 -64 -8.5 -120.5t33.5 -99t80.5 -67.5t132.5 -25q127 0 233.5 90t132.5 218l240 1122h125l-240 -1128q-38 -176 -190.5 -300t-327.5 -124q-116 0 -203 56.5t-123.5 154.5t-11.5 215zM653 1710l56 82l368 -164l-55 -84z" />
<glyph unicode="&#xda;" horiz-adv-x="1030" d="M172 410l240 1126h125l-238 -1118q-16 -64 -8.5 -120.5t33.5 -99t80.5 -67.5t132.5 -25q127 0 233.5 90t132.5 218l240 1122h125l-240 -1128q-38 -176 -190.5 -300t-327.5 -124q-116 0 -203 56.5t-123.5 154.5t-11.5 215zM637 1628l438 164l19 -82l-439 -166z" />
<glyph unicode="&#xdb;" horiz-adv-x="1030" d="M172 410l240 1126h125l-238 -1118q-16 -64 -8.5 -120.5t33.5 -99t80.5 -67.5t132.5 -25q127 0 233.5 90t132.5 218l240 1122h125l-240 -1128q-38 -176 -190.5 -300t-327.5 -124q-116 0 -203 56.5t-123.5 154.5t-11.5 215zM635 1565l22 90l226 88l188 -86l-16 -90 q-23 0 -193 84q-205 -86 -227 -86z" />
<glyph unicode="&#xdc;" horiz-adv-x="1030" d="M172 410l240 1126h125l-238 -1118q-16 -64 -8.5 -120.5t33.5 -99t80.5 -67.5t132.5 -25q127 0 233.5 90t132.5 218l240 1122h125l-240 -1128q-38 -176 -190.5 -300t-327.5 -124q-116 0 -203 56.5t-123.5 154.5t-11.5 215zM655 1655q4 26 27.5 44.5t50.5 18.5q26 0 43 -19 t12 -44q-6 -28 -29.5 -48t-51.5 -20t-43 19.5t-9 48.5zM938 1655q4 26 27.5 44.5t50.5 18.5q26 0 42 -19t11 -44q-6 -28 -29.5 -48t-50.5 -20q-28 0 -42.5 19.5t-8.5 48.5z" />
<glyph unicode="&#xdd;" horiz-adv-x="1011" d="M354 1536h135l152 -729l18 -80q17 24 52 80l463 729h135q-104 -164 -312 -489.5t-311 -489.5l-117 -557h-125l117 557zM629 1628l438 164l18 -82l-438 -166z" />
<glyph unicode="&#xde;" horiz-adv-x="882" d="M88 0l326 1536h125l-66 -309h174q120 0 205.5 -58t119.5 -157t9 -219q-39 -183 -188.5 -311t-331.5 -128h-121q-29 0 -53 -6l-74 -348h-125zM315 483q21 -6 56 -6h118q72 0 137.5 30t111 77t76.5 101.5t42 107.5q14 52 4 107t-34.5 100t-77.5 73.5t-125 28.5h-119 q-43 0 -52 -7t-18 -48z" />
<glyph unicode="&#xdf;" horiz-adv-x="1001" d="M88 0l229 1081q43 205 170 330t271 125h20q164 0 241.5 -108.5t39.5 -288.5q-48 -218 -230 -344q107 -49 161 -148.5t28 -220.5q-41 -196 -181 -311t-337 -115h-174l24 123h178q77 0 142 26.5t109.5 71t73 97.5t40.5 110q24 113 -55.5 192.5t-196.5 79.5h-164l29 131h119 q126 16 207.5 103t105.5 199q28 130 -23.5 205t-166.5 75h-9q-98 0 -181.5 -92t-115.5 -242l-229 -1079h-125z" />
<glyph unicode="&#xe0;" horiz-adv-x="1210" d="M180 514q46 218 233 372t408 154q124 0 218.5 -54.5t144.5 -149.5l41 188h121l-218 -1024h-120l39 186q-91 -94 -208 -148t-241 -54q-145 0 -252.5 70.5t-152 192.5t-13.5 267zM301 514q-37 -172 56.5 -291t265.5 -119q169 0 312.5 119t180.5 291q23 111 -11 204.5 t-115.5 147.5t-192.5 54q-113 0 -219 -54t-180 -147.5t-97 -204.5zM657 1300l56 82l368 -163l-55 -84z" />
<glyph unicode="&#xe1;" horiz-adv-x="1210" d="M180 514q46 218 233 372t408 154q124 0 218.5 -54.5t144.5 -149.5l41 188h121l-218 -1024h-120l39 186q-91 -94 -208 -148t-241 -54q-145 0 -252.5 70.5t-152 192.5t-13.5 267zM301 514q-37 -172 56.5 -291t265.5 -119q169 0 312.5 119t180.5 291q23 111 -11 204.5 t-115.5 147.5t-192.5 54q-113 0 -219 -54t-180 -147.5t-97 -204.5zM641 1219l438 163l19 -82l-439 -165z" />
<glyph unicode="&#xe2;" horiz-adv-x="1210" d="M180 514q46 218 233 372t408 154q124 0 218.5 -54.5t144.5 -149.5l41 188h121l-218 -1024h-120l39 186q-91 -94 -208 -148t-241 -54q-145 0 -252.5 70.5t-152 192.5t-13.5 267zM301 514q-37 -172 56.5 -291t265.5 -119q169 0 312.5 119t180.5 291q23 111 -11 204.5 t-115.5 147.5t-192.5 54q-113 0 -219 -54t-180 -147.5t-97 -204.5zM639 1155l23 90l225 88l188 -86l-16 -90q-23 0 -193 84q-205 -86 -227 -86z" />
<glyph unicode="&#xe3;" horiz-adv-x="1210" d="M180 514q46 218 233 372t408 154q124 0 218.5 -54.5t144.5 -149.5l41 188h121l-218 -1024h-120l39 186q-91 -94 -208 -148t-241 -54q-145 0 -252.5 70.5t-152 192.5t-13.5 267zM301 514q-37 -172 56.5 -291t265.5 -119q169 0 312.5 119t180.5 291q23 111 -11 204.5 t-115.5 147.5t-192.5 54q-113 0 -219 -54t-180 -147.5t-97 -204.5zM537 1292q98 109 208 109q54 0 147 -35t142 -35q75 0 164 72l33 -49q-43 -53 -96.5 -83t-104.5 -30q-55 0 -153 37t-148 37q-64 0 -162 -74z" />
<glyph unicode="&#xe4;" horiz-adv-x="1210" d="M180 514q46 218 233 372t408 154q124 0 218.5 -54.5t144.5 -149.5l41 188h121l-218 -1024h-120l39 186q-91 -94 -208 -148t-241 -54q-145 0 -252.5 70.5t-152 192.5t-13.5 267zM301 514q-37 -172 56.5 -291t265.5 -119q169 0 312.5 119t180.5 291q23 111 -11 204.5 t-115.5 147.5t-192.5 54q-113 0 -219 -54t-180 -147.5t-97 -204.5zM662 1245q4 26 27.5 45t49.5 19t43.5 -19.5t12.5 -44.5q-6 -28 -30 -47.5t-52 -19.5t-42.5 19t-8.5 48zM944 1245q4 26 27.5 45t50.5 19q26 0 42 -19.5t11 -44.5q-6 -28 -29 -47.5t-51 -19.5t-42.5 19 t-8.5 48z" />
<glyph unicode="&#xe5;" horiz-adv-x="1210" d="M180 514q46 218 233 372t408 154q124 0 218.5 -54.5t144.5 -149.5l41 188h121l-218 -1024h-120l39 186q-91 -94 -208 -148t-241 -54q-145 0 -252.5 70.5t-152 192.5t-13.5 267zM301 514q-37 -172 56.5 -291t265.5 -119q169 0 312.5 119t180.5 291q23 111 -11 204.5 t-115.5 147.5t-192.5 54q-113 0 -219 -54t-180 -147.5t-97 -204.5zM776 1227q7 38 38 63t69 25q37 0 57 -25.5t12 -62.5q-7 -38 -37.5 -63t-68.5 -25t-58 25t-12 63zM813 1227q-12 -51 41 -51q22 0 38.5 13.5t22.5 37.5q4 22 -7.5 36.5t-33.5 14.5q-24 0 -40 -14t-21 -37z " />
<glyph unicode="&#xe6;" horiz-adv-x="2064" d="M180 514q46 218 233 372t408 154q124 0 218.5 -54.5t144.5 -149.5l41 188h121l-37 -174q90 90 203 140t235 50q84 0 154 -26.5t116.5 -73.5t75.5 -111.5t33 -140.5t-12 -160q-2 -12 -8.5 -35t-8.5 -34h-864q-14 -154 80 -254.5t252 -100.5q197 0 368 119l29 -98 q-195 -141 -422 -141q-126 0 -223 52.5t-150 145.5l-39 -182h-120l39 186q-91 -94 -208 -148t-241 -54q-145 0 -252.5 70.5t-152 192.5t-13.5 267zM301 514q-37 -172 56.5 -291t265.5 -119q169 0 312.5 119t180.5 291q23 111 -11 204.5t-115.5 147.5t-192.5 54 q-113 0 -219 -54t-180 -147.5t-97 -204.5zM1257 567h740q16 92 -10.5 172t-96 130.5t-170.5 50.5q-153 0 -283 -101t-180 -252z" />
<glyph unicode="&#xe7;" horiz-adv-x="1140" d="M180 514q46 218 233 372t408 154q134 0 235 -65t154 -176l-110 -70q-34 89 -114 140t-189 51q-113 0 -219 -54t-180 -147.5t-97 -204.5q-37 -172 56.5 -291t265.5 -119q114 0 220.5 55t174.5 148l102 -45q-90 -125 -224.5 -199.5t-281.5 -78.5l-86 -88q3 0 23 3t45 3 q67 0 101.5 -42t19.5 -114q-20 -92 -99.5 -142t-164.5 -50q-52 0 -99 25.5t-63 55.5l57 48l41 -23q36 -18 90 -18q45 0 89.5 28t54.5 74t-12 68t-54 22h-25l-32 -6q-28 -4 -37 -4q-2 1 -18.5 11t-26.5 15l127 138q-199 19 -304 169.5t-61 356.5z" />
<glyph unicode="&#xe8;" horiz-adv-x="1122" d="M180 514q46 220 226 373t399 153q140 0 234.5 -70t128 -186t3.5 -256q-2 -12 -8 -35t-8 -34h-864q-14 -154 80 -254.5t252 -100.5q197 0 368 119l29 -98q-195 -141 -422 -141q-145 0 -252.5 70.5t-152 192.5t-13.5 267zM315 567h740q16 92 -10.5 172t-96 130.5 t-170.5 50.5q-153 0 -283 -101t-180 -252zM614 1300l56 82l368 -163l-55 -84z" />
<glyph unicode="&#xe9;" horiz-adv-x="1122" d="M180 514q46 220 226 373t399 153q140 0 234.5 -70t128 -186t3.5 -256q-2 -12 -8 -35t-8 -34h-864q-14 -154 80 -254.5t252 -100.5q197 0 368 119l29 -98q-195 -141 -422 -141q-145 0 -252.5 70.5t-152 192.5t-13.5 267zM315 567h740q16 92 -10.5 172t-96 130.5 t-170.5 50.5q-153 0 -283 -101t-180 -252zM598 1219l438 163l19 -82l-439 -165z" />
<glyph unicode="&#xea;" horiz-adv-x="1122" d="M180 514q46 220 226 373t399 153q140 0 234.5 -70t128 -186t3.5 -256q-2 -12 -8 -35t-8 -34h-864q-14 -154 80 -254.5t252 -100.5q197 0 368 119l29 -98q-195 -141 -422 -141q-145 0 -252.5 70.5t-152 192.5t-13.5 267zM315 567h740q16 92 -10.5 172t-96 130.5 t-170.5 50.5q-153 0 -283 -101t-180 -252zM594 1155l22 90l226 88l188 -86l-16 -90q-23 0 -193 84q-205 -86 -227 -86z" />
<glyph unicode="&#xeb;" horiz-adv-x="1122" d="M180 514q46 220 226 373t399 153q140 0 234.5 -70t128 -186t3.5 -256q-2 -12 -8 -35t-8 -34h-864q-14 -154 80 -254.5t252 -100.5q197 0 368 119l29 -98q-195 -141 -422 -141q-145 0 -252.5 70.5t-152 192.5t-13.5 267zM315 567h740q16 92 -10.5 172t-96 130.5 t-170.5 50.5q-153 0 -283 -101t-180 -252zM616 1245q4 26 27.5 45t50.5 19q26 0 43.5 -19.5t12.5 -44.5q-6 -28 -30 -47.5t-52 -19.5t-43 19t-9 48zM899 1245q4 26 27.5 45t50.5 19q26 0 42 -19.5t11 -44.5q-6 -28 -29 -47.5t-51 -19.5t-42.5 19t-8.5 48z" />
<glyph unicode="&#xec;" horiz-adv-x="301" d="M94 0l217 1026h119l-217 -1026h-119zM207 1300l55 82l369 -163l-56 -84z" />
<glyph unicode="&#xed;" horiz-adv-x="301" d="M94 0l217 1026h119l-217 -1026h-119zM190 1219l439 163l18 -82l-438 -165z" />
<glyph unicode="&#xee;" horiz-adv-x="301" d="M94 0l217 1026h119l-217 -1026h-119zM188 1155l23 90l225 88l189 -86l-17 -90q-22 0 -192 84q-205 -86 -228 -86z" />
<glyph unicode="&#xef;" horiz-adv-x="301" d="M94 0l217 1026h119l-217 -1026h-119zM209 1245q4 26 27.5 45t50.5 19q26 0 43 -19.5t12 -44.5q-6 -28 -30 -47.5t-52 -19.5t-42.5 19t-8.5 48zM492 1245q4 26 27.5 45t49.5 19t42.5 -19.5t11.5 -44.5q-6 -28 -29 -47.5t-51 -19.5t-42.5 19t-8.5 48z" />
<glyph unicode="&#xf0;" horiz-adv-x="1173" d="M166 508q33 152 131.5 274t232 187t273.5 65q77 0 149 -30l-106 233q-28 -17 -83 -50t-83 -50l-49 96l170 104l-70 146l123 67l64 -139l167 105l50 -99l-172 -106l206 -453q86 -177 48 -350q-47 -224 -229 -374t-408 -150q-145 0 -250.5 68t-150 188.5t-13.5 267.5z M291 508q-36 -171 55.5 -285t259.5 -114q172 0 310.5 113.5t175.5 285.5q37 170 -53.5 285.5t-262.5 115.5q-166 0 -308 -117t-177 -284z" />
<glyph unicode="&#xf1;" horiz-adv-x="1015" d="M88 0l217 1024l121 -2l-25 -115q146 133 326 133q172 0 272 -119t64 -286l-133 -635h-119l131 625q26 121 -44.5 209t-192.5 88q-83 0 -157 -31.5t-130 -99t-76 -160.5l-133 -631h-121zM438 1292q98 109 209 109q54 0 147 -35t142 -35q75 0 164 72l33 -49 q-43 -53 -96.5 -83t-104.5 -30q-55 0 -153 37t-148 37q-64 0 -162 -74z" />
<glyph unicode="&#xf2;" horiz-adv-x="1200" d="M180 514q46 218 233 372t408 154q143 0 249.5 -70.5t151.5 -191.5t15 -264q-31 -145 -127.5 -267t-232.5 -192.5t-279 -70.5q-145 0 -252.5 70.5t-152 192.5t-13.5 267zM301 514q-37 -172 56.5 -291t265.5 -119q169 0 312.5 119t180.5 291q23 111 -11 204.5t-115.5 147.5 t-192.5 54q-113 0 -219 -54t-180 -147.5t-97 -204.5zM653 1300l56 82l368 -163l-55 -84z" />
<glyph unicode="&#xf3;" horiz-adv-x="1200" d="M180 514q46 218 233 372t408 154q143 0 249.5 -70.5t151.5 -191.5t15 -264q-31 -145 -127.5 -267t-232.5 -192.5t-279 -70.5q-145 0 -252.5 70.5t-152 192.5t-13.5 267zM301 514q-37 -172 56.5 -291t265.5 -119q169 0 312.5 119t180.5 291q23 111 -11 204.5t-115.5 147.5 t-192.5 54q-113 0 -219 -54t-180 -147.5t-97 -204.5zM637 1219l438 163l19 -82l-439 -165z" />
<glyph unicode="&#xf4;" horiz-adv-x="1200" d="M180 514q46 218 233 372t408 154q143 0 249.5 -70.5t151.5 -191.5t15 -264q-31 -145 -127.5 -267t-232.5 -192.5t-279 -70.5q-145 0 -252.5 70.5t-152 192.5t-13.5 267zM301 514q-37 -172 56.5 -291t265.5 -119q169 0 312.5 119t180.5 291q23 111 -11 204.5t-115.5 147.5 t-192.5 54q-113 0 -219 -54t-180 -147.5t-97 -204.5zM635 1155l22 90l226 88l188 -86l-16 -90q-23 0 -193 84q-205 -86 -227 -86z" />
<glyph unicode="&#xf5;" horiz-adv-x="1200" d="M180 514q46 218 233 372t408 154q143 0 249.5 -70.5t151.5 -191.5t15 -264q-31 -145 -127.5 -267t-232.5 -192.5t-279 -70.5q-145 0 -252.5 70.5t-152 192.5t-13.5 267zM301 514q-37 -172 56.5 -291t265.5 -119q169 0 312.5 119t180.5 291q23 111 -11 204.5t-115.5 147.5 t-192.5 54q-113 0 -219 -54t-180 -147.5t-97 -204.5zM530 1292q98 109 209 109q54 0 147 -35t142 -35q75 0 164 72l33 -49q-43 -53 -96.5 -83t-104.5 -30q-55 0 -153 37t-148 37q-64 0 -162 -74z" />
<glyph unicode="&#xf6;" horiz-adv-x="1200" d="M180 514q46 218 233 372t408 154q143 0 249.5 -70.5t151.5 -191.5t15 -264q-31 -145 -127.5 -267t-232.5 -192.5t-279 -70.5q-145 0 -252.5 70.5t-152 192.5t-13.5 267zM301 514q-37 -172 56.5 -291t265.5 -119q169 0 312.5 119t180.5 291q23 111 -11 204.5t-115.5 147.5 t-192.5 54q-113 0 -219 -54t-180 -147.5t-97 -204.5zM655 1245q4 26 27.5 45t50.5 19q26 0 43 -19.5t12 -44.5q-6 -28 -29.5 -47.5t-51.5 -19.5t-43 19t-9 48zM938 1245q4 26 27.5 45t50.5 19q26 0 42 -19.5t11 -44.5q-6 -28 -29 -47.5t-51 -19.5t-42.5 19t-8.5 48z" />
<glyph unicode="&#xf7;" horiz-adv-x="1032" d="M143 475l21 96h942l-21 -96h-942zM502 258q6 26 29.5 43.5t50.5 17.5q25 0 40 -18t9 -43q-4 -26 -28 -45.5t-50 -19.5q-28 0 -42.5 18.5t-8.5 46.5zM618 803q4 26 27.5 43.5t50.5 17.5q25 0 40.5 -18t11.5 -43q-6 -27 -29 -46.5t-49 -19.5q-28 0 -43 19t-9 47z" />
<glyph unicode="&#xf8;" horiz-adv-x="1185" d="M172 514q46 218 233 372t408 154q44 0 92 -10q37 68 49 96h95l-62 -118q141 -56 209 -191t33 -303q-31 -145 -127.5 -267t-232.5 -192.5t-279 -70.5q-46 0 -111 14q-6 -12 -17 -33.5t-20 -39.5t-18 -34q-46 0 -92 3l2 4l63 122q-135 61 -198 194.5t-27 299.5zM295 514 q-27 -126 17.5 -227.5t144.5 -147.5l393 776q-50 5 -62 5q-170 0 -314 -118.5t-179 -287.5zM537 113q41 -9 77 -9q170 0 314.5 119t181.5 291q27 128 -23.5 231t-156.5 148z" />
<glyph unicode="&#xf9;" horiz-adv-x="1009" d="M164 391l135 631h121l-133 -621q-26 -123 44 -210t193 -87q127 0 231 76.5t132 212.5l135 629h119l-217 -1022h-117l24 119q-69 -63 -155 -99t-176 -36q-171 0 -271 119.5t-65 287.5zM559 1300l55 82l369 -163l-55 -84z" />
<glyph unicode="&#xfa;" horiz-adv-x="1009" d="M164 391l135 631h121l-133 -621q-26 -123 44 -210t193 -87q127 0 231 76.5t132 212.5l135 629h119l-217 -1022h-117l24 119q-69 -63 -155 -99t-176 -36q-171 0 -271 119.5t-65 287.5zM543 1219l438 163l18 -82l-438 -165z" />
<glyph unicode="&#xfb;" horiz-adv-x="1009" d="M164 391l135 631h121l-133 -621q-26 -123 44 -210t193 -87q127 0 231 76.5t132 212.5l135 629h119l-217 -1022h-117l24 119q-69 -63 -155 -99t-176 -36q-171 0 -271 119.5t-65 287.5zM539 1155l22 90l225 88l189 -86l-17 -90q-22 0 -192 84q-205 -86 -227 -86z" />
<glyph unicode="&#xfc;" horiz-adv-x="1009" d="M164 391l135 631h121l-133 -621q-26 -123 44 -210t193 -87q127 0 231 76.5t132 212.5l135 629h119l-217 -1022h-117l24 119q-69 -63 -155 -99t-176 -36q-171 0 -271 119.5t-65 287.5zM561 1245q4 26 27.5 45t50.5 19q26 0 43 -19.5t12 -44.5q-6 -28 -30 -47.5t-52 -19.5 t-42.5 19t-8.5 48zM844 1245q4 26 27.5 45t50.5 19q26 0 42 -19.5t11 -44.5q-6 -28 -29 -47.5t-51 -19.5t-42.5 19t-8.5 48z" />
<glyph unicode="&#xfd;" horiz-adv-x="894" d="M143 -422q30 54 116 200t128 226l-12 72q-28 179 -72 510.5t-59 437.5h131l102 -766q8 -49 10 -76q6 13 22.5 39t22.5 39l433 766h129l-824 -1448h-127zM483 1219l439 163l18 -82l-438 -165z" />
<glyph unicode="&#xfe;" horiz-adv-x="1214" d="M0 -412l393 1848h121l-129 -598q89 94 207 148t242 54q145 0 252 -70.5t151.5 -192.5t13.5 -267q-46 -218 -233 -371t-408 -153q-125 0 -219.5 53.5t-142.5 148.5l-127 -600h-121zM315 510q-23 -111 11.5 -204.5t116 -147.5t192.5 -54q171 0 315.5 118.5t179.5 287.5 q24 113 -10 207t-116 148.5t-195 54.5q-169 0 -313 -119.5t-181 -290.5z" />
<glyph unicode="&#xff;" horiz-adv-x="894" d="M143 -422q30 54 116 200t128 226l-12 72q-28 179 -72 510.5t-59 437.5h131l102 -766q8 -49 10 -76q6 13 22.5 39t22.5 39l433 766h129l-824 -1448h-127zM504 1245q4 26 27.5 45t50.5 19q26 0 43 -19.5t12 -44.5q-6 -28 -30 -47.5t-52 -19.5t-42.5 19t-8.5 48zM786 1245 q4 26 27.5 45t50.5 19q26 0 42.5 -19.5t11.5 -44.5q-6 -28 -29 -47.5t-51 -19.5t-43 19t-9 48z" />
<glyph unicode="&#x152;" horiz-adv-x="2328" d="M223 520q-12 117 13 248q34 160 127 305t220.5 250t286 167t318.5 62q204 0 357.5 -97t223.5 -263l74 344h729l-26 -125h-535q-46 0 -69 -2l-117 -545q20 -4 69 -4h535l-27 -125h-534q-38 0 -72 -6l-129 -604h604l-24 -125h-729l71 342q-140 -165 -335.5 -261.5 t-399.5 -96.5q-128 0 -239.5 40t-192 111t-134 169.5t-65.5 215.5zM350.5 560q10.5 -98 56 -180.5t113 -142.5t161 -94t200.5 -34q135 0 268.5 52.5t240 141t184 210t105.5 255.5q38 180 -17 331.5t-188 239.5t-313 88q-178 0 -349 -88t-292.5 -240t-159.5 -331 q-20 -110 -9.5 -208z" />
<glyph unicode="&#x153;" horiz-adv-x="2056" d="M180 514q46 218 233 372t408 154q150 0 258.5 -78t149.5 -206q91 130 228.5 207t289.5 77q84 0 154 -26.5t116.5 -73.5t75.5 -111.5t33 -140.5t-12 -160q-2 -12 -8.5 -35t-8.5 -34h-864q-14 -154 80 -254.5t252 -100.5q197 0 368 119l29 -98q-195 -141 -422 -141 q-154 0 -264.5 78t-149.5 208q-94 -130 -235.5 -208t-292.5 -78q-145 0 -252.5 70.5t-152 192.5t-13.5 267zM301 514q-37 -172 56.5 -291t265.5 -119q169 0 312.5 119t180.5 291q23 111 -11 204.5t-115.5 147.5t-192.5 54q-113 0 -219 -54t-180 -147.5t-97 -204.5zM1257 567 h740q16 92 -10.5 172t-96 130.5t-170.5 50.5q-153 0 -283 -101t-180 -252z" />
<glyph unicode="&#x178;" horiz-adv-x="1011" d="M354 1536h135l152 -729l18 -80q17 24 52 80l463 729h135q-104 -164 -312 -489.5t-311 -489.5l-117 -557h-125l117 557zM647 1655q4 26 27.5 44.5t50.5 18.5q26 0 43 -19t12 -44q-6 -28 -30 -48t-52 -20t-42.5 19.5t-8.5 48.5zM930 1655q4 26 27.5 44.5t50.5 18.5 q26 0 42 -19t11 -44q-6 -28 -29.5 -48t-50.5 -20q-28 0 -42.5 19.5t-8.5 48.5z" />
<glyph unicode="&#x2c6;" horiz-adv-x="581" d="M324 1155l22 90l225 88l189 -86l-17 -90q-22 0 -192 84q-205 -86 -227 -86z" />
<glyph unicode="&#x2dc;" horiz-adv-x="841" d="M352 1292q98 109 209 109q54 0 147 -35t142 -35q75 0 164 72l33 -49q-43 -53 -96.5 -83t-104.5 -30q-55 0 -153 37t-148 37q-64 0 -162 -74z" />
<glyph unicode="&#x2000;" horiz-adv-x="906" />
<glyph unicode="&#x2001;" horiz-adv-x="1812" />
<glyph unicode="&#x2002;" horiz-adv-x="906" />
<glyph unicode="&#x2003;" horiz-adv-x="1812" />
<glyph unicode="&#x2004;" horiz-adv-x="604" />
<glyph unicode="&#x2005;" horiz-adv-x="453" />
<glyph unicode="&#x2006;" horiz-adv-x="302" />
<glyph unicode="&#x2007;" horiz-adv-x="302" />
<glyph unicode="&#x2008;" horiz-adv-x="226" />
<glyph unicode="&#x2009;" horiz-adv-x="362" />
<glyph unicode="&#x200a;" horiz-adv-x="100" />
<glyph unicode="&#x2010;" horiz-adv-x="806" d="M207 549l22 100h623l-23 -100h-622z" />
<glyph unicode="&#x2011;" horiz-adv-x="806" d="M207 549l22 100h623l-23 -100h-622z" />
<glyph unicode="&#x2012;" horiz-adv-x="806" d="M207 549l22 100h623l-23 -100h-622z" />
<glyph unicode="&#x2013;" horiz-adv-x="1167" d="M201 532l20 101h991l-20 -101h-991z" />
<glyph unicode="&#x2014;" horiz-adv-x="1529" d="M201 532l20 101h1352l-21 -101h-1351z" />
<glyph unicode="&#x2018;" horiz-adv-x="239" d="M360 1526l123 12l-73 -397q-12 2 -39 2l-2 160z" />
<glyph unicode="&#x2019;" horiz-adv-x="270" d="M317 1141l95 397l118 -12l-102 -223l-72 -160q-27 0 -39 -2z" />
<glyph unicode="&#x201a;" horiz-adv-x="270" d="M41 -160l94 396l119 -13l-96 -211l-78 -170q-6 -1 -19.5 -1t-19.5 -1z" />
<glyph unicode="&#x201c;" horiz-adv-x="491" d="M389 1526l123 12l-74 -397q-12 2 -39 2l-2 160zM602 1526l123 12l-72 -397q-14 2 -41 2q1 27 0 80t0 80z" />
<glyph unicode="&#x201d;" horiz-adv-x="503" d="M328 1141l94 397l119 -12l-103 -223l-71 -160q-27 0 -39 -2zM541 1141l96 397l119 -12l-105 -223l-69 -160q-27 0 -41 -2z" />
<glyph unicode="&#x201e;" horiz-adv-x="503" d="M51 -160l94 396l119 -13l-96 -211l-78 -170q-6 -1 -19.5 -1t-19.5 -1zM264 -160l96 396l119 -13l-88 -190l-86 -191q-7 -1 -20.5 -1t-20.5 -1z" />
<glyph unicode="&#x2022;" horiz-adv-x="448" d="M201 614q14 62 67.5 107t116.5 45q62 0 97 -45.5t22 -106.5q-13 -64 -66.5 -107.5t-115.5 -43.5q-64 0 -99 43.5t-22 107.5z" />
<glyph unicode="&#x2026;" horiz-adv-x="1173" d="M115 59q4 26 28 45t52 19q25 0 41 -19.5t12 -44.5q-6 -28 -30 -47.5t-50 -19.5q-29 0 -44 19t-9 48zM530 59q4 26 28 45t52 19q26 0 42.5 -19.5t11.5 -44.5q-6 -28 -29 -47.5t-51 -19.5t-44 19t-10 48zM950 59q4 26 27.5 45t50.5 19q26 0 43 -19.5t12 -44.5 q-6 -28 -30 -47.5t-52 -19.5t-42.5 19t-8.5 48z" />
<glyph unicode="&#x202f;" horiz-adv-x="362" />
<glyph unicode="&#x2039;" horiz-adv-x="448" d="M147 555l347 403l69 -57q-190 -223 -297 -346l150 -346l-94 -57z" />
<glyph unicode="&#x203a;" horiz-adv-x="477" d="M96 209q196 225 297 346q-109 255 -149 346l96 57l172 -403q-25 -31 -60.5 -72.5t-115 -133.5t-168.5 -197z" />
<glyph unicode="&#x205f;" horiz-adv-x="453" />
<glyph unicode="&#x20ac;" horiz-adv-x="1175" d="M188 590l21 100h113l30 146h-112l22 100h113l28 141q26 123 113.5 232t212 174t252.5 65q158 0 265 -99t108 -255l-125 -41q-13 61 -31 106t-49 83.5t-80 58.5t-115 20q-146 0 -271 -104.5t-155 -241.5l-28 -139h614l-22 -100h-615l-31 -146h615l-21 -100h-614l-29 -133 q-19 -89 11.5 -169.5t102 -129.5t165.5 -49q124 0 233.5 74.5t153.5 191.5q15 -6 49.5 -21.5t54.5 -23.5q-64 -151 -210.5 -247.5t-307.5 -96.5q-126 0 -222.5 63.5t-139 172.5t-15.5 235l29 133h-113z" />
<glyph unicode="&#x2122;" horiz-adv-x="1298" d="M336 1473l14 63h490l-15 -63h-213q-4 -11 -8 -37l-143 -668h-62l136 635q6 26 10 70h-209zM745 768l164 768h80l107 -655q167 272 387 655h80l-164 -768h-62l140 651q-37 -59 -192 -327.5t-189 -323.5h-47q-33 217 -103 651l-139 -651h-62z" />
<glyph unicode="&#xe000;" horiz-adv-x="1024" d="M0 0v1024h1024v-1024h-1024z" />
<glyph unicode="&#xfb01;" horiz-adv-x="940" d="M205 0l190 903h-157l24 113h158l43 205q21 98 89.5 155.5t158.5 57.5h145l-22 -113h-123q-49 0 -84 -28t-47 -83l-41 -194h282l-24 -113h-283l-190 -903h-119zM750 0l217 1024h120l-217 -1024h-120zM1001 1221q6 27 30 46t52 19q25 0 41.5 -19.5t10.5 -45.5 q-6 -28 -30 -48t-50 -20q-29 0 -44.5 20t-9.5 48z" />
</font>
</defs>
</svg>
