<?xml version="1.0" standalone="no"?>
<!DOCTYPE svg PUBLIC "-//W3C//DTD SVG 1.1//EN" "http://www.w3.org/Graphics/SVG/1.1/DTD/svg11.dtd" >
<svg xmlns="http://www.w3.org/2000/svg">
<metadata></metadata>
<defs>
<font id="nanamiblack_oblique" horiz-adv-x="1228" >
<font-face units-per-em="2048" ascent="1536" descent="-512" />
<missing-glyph horiz-adv-x="593" />
<glyph horiz-adv-x="2048" />
<glyph horiz-adv-x="2048" />
<glyph unicode="&#xd;" horiz-adv-x="2048" />
<glyph unicode=" "  horiz-adv-x="593" />
<glyph unicode="&#x09;" horiz-adv-x="593" />
<glyph unicode="&#xa0;" horiz-adv-x="593" />
<glyph unicode="!" horiz-adv-x="491" d="M111 160q15 69 75.5 118.5t128.5 49.5q69 0 107.5 -49.5t23.5 -118.5q-14 -68 -73.5 -118t-128.5 -50q-67 0 -107 50t-26 118zM168 416l238 1122h333l-237 -1122h-334z" />
<glyph unicode="&#x22;" horiz-adv-x="806" d="M268 877l133 620h291l-133 -620h-291zM616 877l134 620h292l-133 -620h-293z" />
<glyph unicode="#" horiz-adv-x="1296" d="M119 385l55 258h289l51 139h-248l53 258h283l141 394h263l-144 -394h105l139 394h260l-139 -394h248l-54 -258h-284q-10 -31 -26.5 -73.5t-25.5 -65.5h248l-55 -258h-283l-135 -385h-254l129 385h-104l-131 -385h-258l129 385h-252zM723 643h102l54 139h-103z" />
<glyph unicode="$" horiz-adv-x="987" d="M117 322l307 127q6 -34 22 -60q34 -59 103 -59h10q42 0 78 31t47 73q6 42 0 70t-27.5 46.5t-44.5 28t-65 21.5q-157 57 -233 171t-42 278q38 179 142.5 293t265.5 149l39 184h293l-41 -194q75 -31 125.5 -91t60.5 -143l-344 -145l-8 22q-10 37 -72 37q-36 0 -68 -30.5 t-40 -69.5q-6 -26 2.5 -47.5t32 -38.5t40 -26t48.5 -23l22 -13q59 -28 102.5 -55.5t78.5 -60t56 -68.5t31.5 -80.5t8.5 -96.5t-15 -116q-30 -142 -134 -257.5t-239 -166.5l-41 -190h-292l39 178q-267 64 -248 322z" />
<glyph unicode="%" horiz-adv-x="1714" d="M291 1118q32 156 168 267.5t293 111.5q155 0 243 -111t56 -268q-34 -156 -169.5 -267.5t-291.5 -111.5q-157 0 -245 111t-54 268zM426 94l1047 1450l163 -92l-1056 -1466zM555 1118q-11 -47 16 -80.5t76 -33.5q47 0 87.5 33.5t51.5 80.5q9 50 -17 83.5t-73 33.5 q-50 0 -91 -34t-50 -83zM981 379q34 157 169 268t290 111q157 0 246 -111.5t55 -267.5q-34 -157 -169 -268t-292 -111q-156 0 -244.5 111.5t-54.5 267.5zM1245 379q-10 -47 16.5 -81t73.5 -34q49 0 90 33.5t52 81.5q10 49 -16.5 83t-76.5 34q-47 0 -88 -34t-51 -83z" />
<glyph unicode="&#x26;" horiz-adv-x="1411" d="M158 449q26 120 104.5 224.5t196.5 180.5q-49 57 -62.5 125.5t6.5 159.5q21 100 93.5 187t173 137t202.5 50q154 0 240.5 -110t54.5 -264q-43 -193 -233 -316q8 -10 29 -34.5t38 -45.5l183 248l260 -143l-248 -334l244 -281l-232 -229l-217 229q-86 -117 -204 -182 t-250 -65q-197 0 -308.5 135t-70.5 328zM483 457q-14 -63 20 -106.5t97 -43.5q47 0 95 41.5t83 93.5l-57 74q-22 22 -52 59t-44 52q-125 -83 -142 -170zM727 1133q-7 -34 5 -72.5t24 -38.5q10 0 10 2l37 29q38 38 49 75q6 30 -11 48t-44 18q-58 0 -70 -61z" />
<glyph unicode="'" horiz-adv-x="446" d="M264 870l133 627h291l-133 -627h-291z" />
<glyph unicode="(" horiz-adv-x="653" d="M178 358l148 697q69 323 354 516l170 -248q-93 -78 -130 -145t-63 -191l-120 -563q-17 -84 -20.5 -133t12.5 -100t59 -101l-277 -248q-202 190 -133 516z" />
<glyph unicode=")" horiz-adv-x="655" d="M121 90q92 76 128.5 144t61.5 190l121 563q27 114 18 185t-67 151l276 248q203 -193 134 -516l-148 -697q-70 -327 -354 -516z" />
<glyph unicode="*" horiz-adv-x="890" d="M248 950l39 185h180q-3 5 -18 20.5t-39.5 43t-49.5 58.5l164 136q10 -6 99 -127l28 178h197l-37 -174l145 125l105 -135l-152 -125l176 6l-41 -191q-15 0 -85 2t-87 2q0 -7 44 -59.5t55 -60.5l-166 -138q-9 10 -42.5 60t-47.5 67l-37 -174h-193l43 176l-149 -129 l-107 138l156 116h-180z" />
<glyph unicode="+" horiz-adv-x="1071" d="M102 371l64 297h366l76 356h291l-76 -356h369l-64 -293h-368l-76 -365h-291l76 361h-367z" />
<glyph unicode="," horiz-adv-x="417" d="M80 246l297 57l-41 -420l-230 -30z" />
<glyph unicode="-" horiz-adv-x="829" d="M168 436l61 293h678l-61 -293h-678z" />
<glyph unicode="." horiz-adv-x="419" d="M90 137q13 60 66.5 107t119.5 47q58 0 90.5 -47.5t20.5 -106.5q-14 -60 -64 -102.5t-110 -42.5q-68 0 -102.5 42t-20.5 103z" />
<glyph unicode="/" horiz-adv-x="604" d="M6 39l735 1470l172 -57q-209 -424 -737 -1475z" />
<glyph unicode="0" d="M199 504l110 526q29 138 124.5 258t232.5 192t278 72t246.5 -72t149 -192t14.5 -258l-111 -526q-29 -138 -124 -257.5t-231.5 -191t-277.5 -71.5t-246.5 71.5t-149.5 191t-15 257.5zM545 508q-14 -70 27 -123t112 -53q73 0 135 53t76 123l111 518q15 71 -25 124.5 t-113 53.5q-71 0 -134.5 -53.5t-78.5 -124.5z" />
<glyph unicode="1" d="M553 0l256 1206h-227l71 330h572l-326 -1536h-346z" />
<glyph unicode="2" d="M168 0l59 281l645 563q134 115 152 198q9 45 -0.5 83t-46 65t-98.5 27q-65 0 -149 -42t-155 -120l-153 215q240 266 524 266q212 0 328 -136.5t72 -340.5q-22 -104 -96 -204.5t-179 -184.5l-407 -336h538l-69 -334h-965z" />
<glyph unicode="3" d="M205 188l207 254q117 -133 229 -133q90 0 155 55t81 132q16 75 -36 131.5t-157 60.5l-123 2l53 250l56 2q95 3 158 48.5t77 115.5q11 51 -16 87t-78 36t-115.5 -28t-124.5 -75l-84 252q95 75 207 120.5t224 45.5q183 0 269 -108t50 -275q-35 -165 -186 -284 q208 -150 155 -404q-30 -140 -123 -252.5t-221.5 -173.5t-265.5 -61q-135 0 -226 50t-165 152z" />
<glyph unicode="4" d="M156 268l69 326l393 465l404 477h330l-201 -944h135l-67 -322h-136l-57 -270h-348l55 268h-577zM616 596h187l69 326z" />
<glyph unicode="5" d="M201 139l213 273q56 -50 112 -71.5t131 -21.5q82 0 156.5 59t95.5 157q20 89 -21.5 152t-137.5 63q-74 0 -191 -62l-217 121l250 711h754l-70 -328h-502l-55 -166q112 18 162 18q134 0 229.5 -64t134.5 -185.5t6 -278.5q-29 -141 -127 -263.5t-239.5 -195.5t-290.5 -73 q-256 0 -393 155z" />
<glyph unicode="6" d="M182 524q32 158 131 275l637 751l254 -188l-282 -324q124 -25 211.5 -93t125 -178t9.5 -243q-31 -148 -130.5 -272.5t-240 -196t-287.5 -71.5t-256.5 71.5t-156 196t-15.5 272.5zM530 524q-19 -85 24.5 -139.5t129.5 -54.5t151.5 54.5t84.5 139.5q19 86 -24.5 141.5 t-129.5 55.5t-151.5 -55t-84.5 -142z" />
<glyph unicode="7" d="M246 125l674 1071h-500l72 340h901l-54 -246l-800 -1300z" />
<glyph unicode="8" d="M215 506q22 102 89.5 200t150.5 164q-70 113 -43 244q25 118 105.5 219t194.5 160t232 59t206 -59t125.5 -160t12.5 -219q-14 -69 -50.5 -125.5t-96.5 -118.5q55 -67 81.5 -165t4.5 -199q-29 -138 -122.5 -258t-225.5 -192t-269 -72t-238.5 72t-143.5 192t-13 258z M549 498q-15 -72 24 -121t111 -49q69 0 128.5 49t74.5 121q15 69 -23.5 118.5t-107.5 49.5q-72 0 -132 -49.5t-75 -118.5zM750 1122q-9 -41 14.5 -71.5t64.5 -30.5t77.5 30.5t45.5 71.5t-15 71t-65 30t-77 -30t-45 -71z" />
<glyph unicode="9" d="M285 1010q32 149 132 274t240 196.5t287 71.5t256.5 -71.5t155.5 -196.5t14 -274q-32 -158 -131 -275l-653 -770l-256 189l299 342q-190 38 -288 176.5t-56 337.5zM633 1010q-17 -85 25 -140t128 -55t152.5 55t83.5 140q19 86 -23.5 141t-128.5 55t-152 -55t-85 -141z " />
<glyph unicode=":" horiz-adv-x="434" d="M98 137q13 60 67 107t120 47q58 0 90 -47.5t20 -106.5q-14 -60 -64 -102.5t-110 -42.5q-68 0 -102.5 42t-20.5 103zM240 803q14 68 65.5 110.5t120.5 42.5q61 0 92.5 -43t18.5 -110q-12 -60 -63.5 -103t-111.5 -43q-67 0 -100.5 42t-21.5 104z" />
<glyph unicode=";" horiz-adv-x="421" d="M94 246l297 57l-41 -420l-229 -30zM225 807q14 63 65 107t111 44q65 0 99 -43.5t20 -107.5q-12 -61 -64.5 -103t-117.5 -42q-60 0 -92.5 42.5t-20.5 102.5z" />
<glyph unicode="&#x3c;" horiz-adv-x="1241" d="M121 410l45 217l1130 428l41 -215l-848 -326l709 -319l-125 -220z" />
<glyph unicode="=" horiz-adv-x="1105" d="M119 170l63 293h940l-63 -293h-940zM197 539l63 292h940l-63 -292h-940z" />
<glyph unicode="&#x3e;" horiz-adv-x="1241" d="M76 195l844 319l-709 326l131 215l950 -428l-49 -217l-1137 -435z" />
<glyph unicode="?" horiz-adv-x="866" d="M301 1223q15 70 83.5 139t164 112.5t184.5 43.5q181 0 279 -101.5t61 -273.5q-18 -85 -63.5 -152.5t-98.5 -109t-104 -74.5t-89 -66.5t-46 -68.5q-6 -34 8 -119q3 -23 20 -88l-344 -115q-28 37 -42 125t3 174q14 67 57 124t95.5 96.5t104 76t92 80t51.5 92.5q4 21 -3 34 t-15.5 16t-18.5 3q-33 0 -80 -57zM342 160q15 68 75.5 118t127.5 50q71 0 109.5 -49t23.5 -119q-14 -68 -74 -118t-131 -50q-66 0 -105 50.5t-26 117.5z" />
<glyph unicode="@" horiz-adv-x="1712" d="M199 449.5q-20 114.5 10 255.5q48 228 206.5 414.5t380.5 290t459 103.5q107 0 204.5 -25t179 -74.5t136 -123.5t74.5 -172.5t-6 -220.5q-31 -140 -112.5 -261t-206.5 -212q-158 -100 -301 -100q-155 0 -176 92q-108 -92 -246 -92q-145 0 -203 82t-25 233q30 141 112 256 t191.5 178.5t223.5 63.5q132 0 182 -78q3 4 37 51h201l-242 -526q-4 -9 -7.5 -17t-5.5 -13.5t-3 -6.5q-3 -14 4 -20.5t24 -6.5q80 0 166 80q130 108 172 297q37 182 -77.5 294t-350.5 112q-174 0 -339 -79t-284.5 -221t-156.5 -315q-45 -214 92.5 -354.5t386.5 -140.5 q305 0 549 149l68 -133q-332 -223 -650 -223q-125 0 -236.5 29.5t-202 88t-149.5 145t-79 201zM803 639q-28 -137 74 -137q55 0 113 48.5t93 123.5l64 135q13 38 14 47q11 51 -12.5 78t-67.5 27q-87 0 -168.5 -96t-109.5 -226z" />
<glyph unicode="A" horiz-adv-x="1572" d="M41 0l944 1538h254l287 -1538h-373l-61 270h-496l-176 -270h-379zM797 606h231l-53 289z" />
<glyph unicode="B" horiz-adv-x="1112" d="M86 0l326 1536h467q117 0 201 -62q82 -62 114 -160q18 -56 18 -116q0 -46 -10 -94q-26 -129 -123 -252q59 -67 79 -160q10 -45 10 -94q0 -52 -11 -109q-41 -199 -212 -341.5t-372 -147.5h-487zM514 354h123q59 0 107.5 43.5t62.5 104.5q3 17 3 33q0 40 -21 70 q-30 42 -89 42h-122zM645 969h90q47 4 78 33.5t39 68.5q2 12 2 23q0 28 -14 52q-20 32 -68 36h-82z" />
<glyph unicode="C" horiz-adv-x="1368" d="M205 522q-4 39 -4 80q0 81 16 168q34 159 126.5 304t219.5 249.5t285 166.5t317 62q288 0 447 -164l4 -4l-281 -282q-100 93 -243 96q-185 -8 -334 -129.5t-187 -298.5q-8 -41 -8 -80q-1 -69 25 -132q40 -100 127 -159t194 -59q141 0 285 94l162 -280q-14 -12 -38 -28.5 t-74.5 -42.5t-107.5 -47t-139 -36.5t-166 -15.5q-127 0 -238 40.5t-190.5 112t-132.5 170t-65 215.5z" />
<glyph unicode="D" horiz-adv-x="1425" d="M86 0l326 1536h516q125 0 235 -39.5t188 -110t130 -166.5q51 -96 63 -210q4 -37 4 -75q0 -79 -16 -165q-32 -155 -122.5 -297t-215 -246t-280 -165.5t-312.5 -61.5h-516zM514 354h162q181 0 322.5 117t179.5 299q12 56 12 105q0 111 -60 191q-88 116 -268 116h-172z" />
<glyph unicode="E" horiz-adv-x="1044" d="M86 0l326 1536h880l-75 -354h-527l-49 -232h526l-75 -354h-527l-51 -242h526l-73 -354h-881z" />
<glyph unicode="F" horiz-adv-x="991" d="M86 0l326 1536h880l-75 -354h-527l-49 -232h526l-75 -354h-527l-125 -596h-354z" />
<glyph unicode="G" horiz-adv-x="1505" d="M210 518q-4 37 -4 74q0 83 17 172q45 213 184 393.5t338 286.5t412 106q81 0 154.5 -14t121 -32.5t89.5 -44t60.5 -41.5t33.5 -32l4 -4l-277 -280q-104 94 -260 94q-177 0 -324 -126.5t-184 -305.5q-9 -44 -9 -86q0 -63 20 -121q35 -97 120 -157t201 -60q167 0 254 90 l23 100h-322l68 322h684l-66 -309l-53 -250q-54 -61 -121.5 -113.5t-151.5 -98t-186.5 -71.5t-210.5 -26q-125 0 -233.5 40t-187 111t-131 169t-63.5 214z" />
<glyph unicode="H" horiz-adv-x="1300" d="M88 0l326 1536h354l-125 -590h418l125 590h354l-326 -1536h-354l125 592h-418l-125 -592h-354z" />
<glyph unicode="I" horiz-adv-x="520" d="M84 0l326 1536h356l-326 -1536h-356z" />
<glyph unicode="J" horiz-adv-x="929" d="M78 205l350 176q6 -43 59 -43q35 0 64 25.5t35 60.5l237 1112h355l-238 -1112q-38 -183 -192.5 -311.5t-335.5 -128.5q-122 0 -211 59t-123 162z" />
<glyph unicode="K" horiz-adv-x="1216" d="M84 0l326 1536h354l-117 -549l451 549h413l-639 -770l324 -766h-426l-217 545l-115 -545h-354z" />
<glyph unicode="L" horiz-adv-x="942" d="M84 0l326 1536h354l-252 -1182h467l-74 -354h-821z" />
<glyph unicode="M" horiz-adv-x="1720" d="M84 0l326 1536h430l135 -963l551 963h436l-326 -1536h-354l178 846q-228 -413 -286 -516l-185 -330h-272l-92 842l-179 -842h-362z" />
<glyph unicode="N" horiz-adv-x="1400" d="M84 0l326 1536h348l344 -879l186 879h354l-325 -1536h-344l-350 872l-185 -872h-354z" />
<glyph unicode="O" horiz-adv-x="1679" d="M204 558q-2 26 -2 51q0 76 19 157q34 159 126.5 304.5t219.5 251t285 168t317 62.5q106 0 201.5 -28t169.5 -79.5t132 -123.5t88 -159.5t38 -187.5q2 -25 2 -51q0 -76 -18 -157q-45 -213 -188 -394.5t-345.5 -288t-414.5 -106.5q-106 0 -201.5 28.5t-169.5 80t-132 124 t-88.5 160.5t-38.5 188zM575 766q-11 -50 -11 -95q0 -118 72 -209q98 -126 273 -126q117 0 227.5 57.5t188 156.5t102.5 216q10 49 10 95q1 118 -69 210q-96 127 -274 127q-175 0 -328.5 -127.5t-190.5 -304.5z" />
<glyph unicode="P" horiz-adv-x="1052" d="M84 0l326 1536h485q132 0 224.5 -63t127.5 -171q20 -61 20 -130q0 -53 -12 -111q-43 -204 -204 -345t-361 -141h-131l-121 -575h-354zM635 930h131q55 0 90 42.5t45 88.5q1 13 1 27v22q-2 26 -23.5 49t-59.5 23h-131z" />
<glyph unicode="Q" horiz-adv-x="1685" d="M209 522q-4 39 -4 80q0 81 16 168q34 159 126.5 304t219.5 249.5t285 166.5t317 62q127 0 238.5 -40t190.5 -111t132 -169t65 -214q4 -38 4 -78q0 -81 -17 -170q-53 -260 -234 -453l78 -124l-315 -242l-94 121q-183 -88 -381 -88q-127 0 -238.5 40.5t-190.5 112 t-132.5 170t-65.5 215.5zM575 770q-10 -46 -10 -90q0 -66 23 -126q36 -99 122 -156.5t201 -57.5q69 0 113 12l-53 103l303 221l67 -103q65 89 86 197q10 48 10 94q0 63 -20 120q-35 99 -120.5 156.5t-202.5 57.5q-115 0 -225.5 -57.5t-189.5 -156t-104 -214.5z" />
<glyph unicode="R" horiz-adv-x="1196" d="M84 0l326 1536h512q133 0 227.5 -62.5t132.5 -172.5q22 -63 22 -135q0 -53 -12 -109q-61 -288 -317 -424l225 -633h-391l-195 586h-53l-123 -586h-354zM633 924h145q61 0 104.5 37t55.5 96q3 15 3 28q0 35 -20 61q-28 36 -87 36h-146z" />
<glyph unicode="S" horiz-adv-x="1032" d="M139 299l310 127q5 -7 12.5 -22.5t14 -24.5t19 -20t34.5 -16t53 -5q43 0 81.5 31.5t49.5 74.5q4 22 4 40q1 17 -3 31q-6 29 -28 48t-47.5 30.5t-67.5 22.5q-157 56 -235 176q-54 82 -54 187q0 47 11 98q46 214 198.5 342.5t364.5 128.5q78 0 150 -30t125.5 -92.5 t64.5 -145.5l-352 -147q-8 32 -31.5 45.5t-48.5 13.5q-38 0 -71.5 -31.5t-41.5 -70.5q-6 -26 3 -48.5t32.5 -40t41.5 -27.5t48 -24l25 -12q73 -36 122.5 -70.5t87.5 -78t53 -91.5q16 -48 19 -112q0 -9 1 -18q0 -56 -17 -122q-27 -126 -108.5 -232.5t-197.5 -168t-239 -61.5 q-225 0 -325 157q-46 72 -58 158z" />
<glyph unicode="T" horiz-adv-x="1079" d="M291 1182l76 354h1001l-76 -354h-327l-250 -1180h-355l250 1180h-319z" />
<glyph unicode="U" horiz-adv-x="1187" d="M170 444l231 1092h355l-224 -1053q-3 -14 -2 -26q0 -45 35 -77q46 -42 107 -42q62 0 115.5 39.5t70.5 99.5l225 1059h355l-232 -1092q-28 -131 -123.5 -238t-225 -164.5t-261.5 -57.5q-100 0 -187.5 34.5t-147.5 94t-86 146.5q-14 48 -14 100q0 41 9 85z" />
<glyph unicode="V" horiz-adv-x="1404" d="M350 1536h381l105 -899l481 899h387l-868 -1536h-269z" />
<glyph unicode="W" horiz-adv-x="1763" d="M338 1536h367l22 -729l340 729h283l24 -729l340 729h365l-738 -1536h-276l-33 721l-334 -721h-278z" />
<glyph unicode="X" horiz-adv-x="1427" d="M18 0l639 766l-311 770h416l176 -430l356 430h416l-637 -770l320 -766h-424l-174 428l-357 -428h-420z" />
<glyph unicode="Y" horiz-adv-x="1255" d="M346 1536h395l99 -537l327 537h392l-635 -981l-117 -555h-354l116 555z" />
<glyph unicode="Z" horiz-adv-x="1103" d="M63 0l68 322l787 860h-617l76 354h997l-76 -352l-720 -830h552l-73 -354h-994z" />
<glyph unicode="[" horiz-adv-x="690" d="M27 -279l405 1903h537l-66 -305h-194l-275 -1294h195l-64 -304h-538z" />
<glyph unicode="\" horiz-adv-x="600" d="M305 1452l197 57l112 -1470l-198 -62q-9 117 -51.5 673t-59.5 802z" />
<glyph unicode="]" horiz-adv-x="688" d="M27 -279l63 304h195l274 1294h-194l65 305h537l-402 -1903h-538z" />
<glyph unicode="^" horiz-adv-x="1021" d="M213 819l526 690h187l223 -688l-268 -147l-136 432l-327 -434z" />
<glyph unicode="_" horiz-adv-x="1298" d="M-53 -256l45 211h1296l-45 -211h-1296z" />
<glyph unicode="`" horiz-adv-x="610" d="M315 1264l177 274l358 -174l-168 -268z" />
<glyph unicode="a" horiz-adv-x="1193" d="M166 512q22 106 85 204t148.5 169t191.5 113t212 42q134 0 233 -57l11 51h286l-219 -1034h-287l9 39q-113 -55 -256 -55q-141 0 -247 71q-105 71 -151 193q-27 74 -28 154q0 54 12 110zM498 512q-6 -26 -6 -49q0 -53 31 -93q44 -56 126 -57q86 0 153.5 56.5t86.5 142.5 q6 26 6 49q1 53 -31 93q-44 56 -131 57q-82 0 -149 -56.5t-86 -142.5z" />
<glyph unicode="b" horiz-adv-x="1165" d="M82 0l305 1436h334l-94 -435q96 37 207 37q141 0 247 -71t151 -193q27 -73 27 -154q0 -54 -12 -110q-46 -217 -233.5 -371.5t-403.5 -154.5q-128 0 -233 55l-8 -39h-287zM524 510q-5 -24 -5 -46q-1 -56 31 -96q44 -56 130 -55q83 0 150.5 56t84.5 141q6 26 6 49 q0 55 -31 93q-44 56 -126 55q-86 0 -153.5 -55.5t-86.5 -141.5z" />
<glyph unicode="c" horiz-adv-x="1095" d="M166 514q46 218 233 372t408 154q129 0 233 -66t152 -165l-305 -174q-21 23 -34.5 35.5t-44 24.5t-69.5 12q-79 0 -147.5 -56.5t-85.5 -136.5q-5 -23 -5 -44q-1 -54 31 -96q44 -58 123 -57q54 0 101 26.5t100 82.5l258 -150q-97 -133 -238 -212.5t-292 -79.5 q-145 0 -252.5 70.5t-151.5 192.5q-26 72 -27 152q0 55 13 115z" />
<glyph unicode="d" horiz-adv-x="1165" d="M131 510q31 143 128.5 264.5t234 191.5t278.5 70q111 0 189 -37l94 437h334l-306 -1436h-286l8 39q-127 -55 -256 -55q-142 0 -249 70t-153 192q-28 74 -28 154q0 54 12 110zM463 510q-5 -24 -5 -46q0 -56 32 -96q44 -56 128.5 -55.5t151.5 56t84 141.5q6 26 6 50 q0 54 -30 92q-43 56 -128 55.5t-152.5 -56t-86.5 -141.5z" />
<glyph unicode="e" horiz-adv-x="1110" d="M166 516q46 219 228.5 371.5t402.5 152.5q201 0 305 -142q71 -98 72 -235q0 -62 -15 -133l-29 -133h-638q-1 -6 -1 -12q0 -34 44 -73q52 -46 139 -46q74 0 145 15q41 9 144 49l53 -234q-96 -55 -196 -83.5t-236 -28.5q-150 0 -257.5 71t-149.5 193q-24 70 -24 148 q0 58 13 120zM537 627h335q1 8 1 16q1 37 -31 67q-38 38 -115 38q-67 0 -122.5 -40t-67.5 -81z" />
<glyph unicode="f" horiz-adv-x="776" d="M160 0l151 717h-114l65 307h115l16 84q34 156 129 241t240 85h215l-64 -299h-108q-72 0 -86 -66l-8 -45h237l-65 -307h-238l-151 -717h-334z" />
<glyph unicode="g" horiz-adv-x="1187" d="M117 -319l260 231q74 -66 151 -66q70 0 139 48t101 122q-88 -30 -186 -30q-142 0 -248.5 71t-151.5 193q-28 74 -28 154q0 54 12 110q30 143 127 264.5t233.5 191.5t278.5 70q131 0 233 -55l9 39h286l-188 -883q-35 -167 -133 -303.5t-244.5 -217.5t-312.5 -81 q-103 0 -191 37.5t-147 104.5zM498 514q-6 -26 -6 -49q0 -54 30 -93q44 -55 129 -55t152 55.5t86 141.5q6 26 6 49q0 54 -31 93q-44 55 -129 55t-151.5 -55.5t-85.5 -141.5z" />
<glyph unicode="h" horiz-adv-x="1038" d="M82 0l305 1440h334l-88 -418q47 16 127 16q220 0 315 -118q64 -80 64 -206q0 -61 -15 -132l-123 -582h-333l120 578q4 16 4 31q0 33 -20 59q-28 36 -82 36.5t-98.5 -36t-56.5 -90.5l-121 -578h-332z" />
<glyph unicode="i" horiz-adv-x="485" d="M76 0l217 1024h334l-217 -1024h-334zM336 1231q15 68 75.5 118t129.5 50q68 -1 107 -51q28 -36 28 -81q0 -17 -4 -36q-13 -68 -74 -118t-129 -50q-69 -1 -108 49q-29 36 -29 84q0 17 4 35z" />
<glyph unicode="j" horiz-adv-x="610" d="M-29 -461l64 326q8 3 47 6.5t45 5.5q51 17 61 62l232 1085h334l-252 -1182q-18 -85 -60.5 -147t-97.5 -94.5t-108 -47t-105 -14.5h-160zM449 1231q15 68 75 118t129 50q68 0 107 -51q28 -36 28 -81q0 -17 -4 -36q-13 -69 -73.5 -118.5t-128.5 -49.5q-69 0 -108 49 q-29 37 -29 84q0 17 4 35z" />
<glyph unicode="k" horiz-adv-x="978" d="M82 0l303 1434h334l-150 -711l252 301h375l-430 -508q17 -37 105 -252.5t112 -263.5h-377l-127 305l-63 -305h-334z" />
<glyph unicode="l" horiz-adv-x="491" d="M80 0l303 1434h334l-303 -1434h-334z" />
<glyph unicode="m" horiz-adv-x="1669" d="M82 0l217 1022h276l-6 -23q83 41 193 41q180 0 276 -84q134 84 312 84q220 0 315 -118q64 -80 64 -206q0 -61 -15 -132l-123 -584h-334l123 580q3 15 3 29q-1 35 -21 61q-28 36 -82 37q-51 0 -94 -33.5t-58 -83.5l-124 -590h-334l123 580q3 15 3 28q0 36 -21 62 q-29 36 -83 37q-51 0 -93.5 -33.5t-57.5 -83.5l-125 -590h-334z" />
<glyph unicode="n" horiz-adv-x="1077" d="M82 0l217 1022h276l-6 -23q83 41 193 41q220 0 315 -118q64 -80 64 -206q0 -61 -15 -132l-122 -584h-334l123 580q3 15 3 28q0 36 -21 62q-29 36 -83 37q-49 0 -92.5 -33.5t-58.5 -83.5l-125 -590h-334z" />
<glyph unicode="o" horiz-adv-x="1169" d="M166 514q30 143 125.5 264t232 191.5t281.5 70.5q143 0 249.5 -70.5t151.5 -191.5q27 -73 27 -153q0 -54 -12 -111q-31 -145 -127.5 -267t-232.5 -192.5t-279 -70.5q-145 0 -252 70.5t-151 192.5q-26 72 -26 151q0 56 13 116zM502 514q-5 -23 -5 -44q-1 -54 31 -94 q44 -56 125 -57q80 0 148.5 57t85.5 138q5 22 5 42q0 53 -32 94q-44 57 -125 57t-148.5 -56.5t-84.5 -136.5z" />
<glyph unicode="p" horiz-adv-x="1165" d="M-6 -420l305 1444h287l-8 -41q130 55 256 55q106 0 194.5 -41.5t143.5 -112.5t78 -167q12 -47 12 -96q0 -53 -13 -109q-23 -107 -86 -204.5t-149 -168t-192 -112t-212 -41.5q-112 0 -190 37l-94 -443h-332zM526 512q-6 -26 -6 -49q0 -54 30 -93q44 -55 130 -55 q83 0 151 56t87 141q6 25 6 48q0 54 -32 93q-45 56 -128 56q-86 0 -152.5 -55.5t-85.5 -141.5z" />
<glyph unicode="q" horiz-adv-x="1165" d="M158 307q-11 46 -11 95q0 53 13 110q46 217 233.5 371.5t403.5 154.5q125 0 235 -55l8 41h287l-307 -1444h-334l94 443q-96 -37 -207 -37q-106 0 -194.5 41.5t-143 112.5t-77.5 167zM492 512q-6 -26 -6 -49q0 -54 31 -93q44 -55 126 -55q86 0 153.5 55.5t86.5 141.5 q6 26 6 49q0 54 -31 93q-45 55 -131 55q-82 0 -149 -55.5t-86 -141.5z" />
<glyph unicode="r" horiz-adv-x="733" d="M82 0l217 1024h276l-6 -25q83 41 193 41h16q49 0 152 -14l-68 -319h-166q-59 0 -101.5 -33t-53.5 -84l-125 -590h-334z" />
<glyph unicode="s" horiz-adv-x="763" d="M98 266l248 82q22 -74 88 -74q17 0 29 10t14 23q3 13 -2.5 24.5t-17 20.5t-23 15t-26.5 13t-21 11l-8 6q-67 46 -87 66q-77 73 -77 180q0 35 8 74q31 148 136 235.5t253 87.5q114 0 191 -71q70 -64 70 -147q0 -9 -1 -17l-272 -88l-2 5q-2 4 -3.5 6t-4 6.5t-5.5 7.5 t-7.5 6t-9.5 4.5t-11 1.5q-36 0 -45 -37q-4 -19 33 -47t55 -33l6 -4q23 -15 38.5 -25.5t37.5 -29.5t35.5 -37t28 -44t20.5 -54q7 -30 7 -68q0 -35 -9 -74q-29 -132 -139.5 -224.5t-239.5 -92.5q-189 0 -258 141q-29 75 -29 141z" />
<glyph unicode="t" horiz-adv-x="831" d="M176 717l66 307h225l57 274h334l-57 -274h221l-66 -307h-221l-151 -717h-334l151 717h-225z" />
<glyph unicode="u" horiz-adv-x="1075" d="M166 440l125 584h334l-123 -580q-4 -16 -4 -31q0 -33 20 -59q28 -36 82 -37q51 0 97 33.5t55 81.5l127 592h333l-217 -1024h-278l4 23q-79 -39 -191 -39q-220 0 -315 118q-64 80 -64 206q0 61 15 132z" />
<glyph unicode="v" horiz-adv-x="989" d="M223 1024h361l32 -428l222 428h358l-575 -1024h-256z" />
<glyph unicode="w" horiz-adv-x="1447" d="M229 1024h355l8 -459l223 461h252l35 -448l198 446h353l-496 -1024h-280l-58 459l-250 -459h-276z" />
<glyph unicode="x" horiz-adv-x="1073" d="M8 0l434 514l-209 510h396l71 -229l170 229h396l-428 -512l223 -512h-410l-71 229l-164 -229h-408z" />
<glyph unicode="y" horiz-adv-x="1001" d="M66 -389q76 136 147.5 265.5t107 195.5t35.5 67l-123 885h363l31 -428l215 426h358l-788 -1419z" />
<glyph unicode="z" horiz-adv-x="884" d="M76 0l55 262l455 430l-363 2l70 330h739l-51 -242l-416 -450h320l-70 -332h-739z" />
<glyph unicode="{" horiz-adv-x="727" d="M166 551l55 262h92q150 0 197 215l51 240q30 142 67.5 213.5t121.5 117.5q96 48 274 48l-49 -240q-70 -7 -98.5 -42t-47.5 -128l-51 -244q-28 -127 -73.5 -198.5t-137.5 -112.5q74 -41 90 -118t-12 -193l-51 -242q-13 -58 -13.5 -94.5t17.5 -54.5t61 -21l-51 -240 q-172 0 -250 48q-44 32 -59.5 79.5t-11.5 101t24 148.5l54 242q43 204 -107 213h-92z" />
<glyph unicode="|" horiz-adv-x="452" d="M82 0l326 1536h292l-325 -1536h-293z" />
<glyph unicode="}" horiz-adv-x="727" d="M-4 -281l49 240q65 4 92 40.5t47 129.5l52 242q26 127 71 198.5t137 112.5q-74 41 -89.5 118t14.5 193l51 244q21 88 7 126t-79 44l49 240q180 0 258 -48q63 -46 70 -125.5t-25 -205.5l-51 -240q-47 -215 107 -215h92l-55 -262h-93q-153 -9 -196 -213l-53 -242 q-29 -140 -66 -211.5t-121 -117.5q-96 -48 -268 -48z" />
<glyph unicode="~" horiz-adv-x="1198" d="M164 451q23 109 130 193.5t255 84.5q37 0 82 -13.5t66.5 -23t74.5 -35.5l12 -6q96 -51 142 -51t112 59l72 70l141 -145q-23 -109 -130.5 -193t-256.5 -84q-91 0 -235 78q-96 51 -137 51t-107 -53l-63 -64z" />
<glyph unicode="&#xa1;" horiz-adv-x="491" d="M78 -8l237 1122h334l-237 -1122h-334zM369 1370q13 67 73.5 117.5t128.5 50.5q69 0 108.5 -50t25.5 -118q-15 -69 -75.5 -118.5t-129.5 -49.5q-68 0 -107 49.5t-24 118.5z" />
<glyph unicode="&#xa2;" horiz-adv-x="1091" d="M150 514q36 170 165 306.5t299 191.5l39 192h293l-37 -180q92 -24 162.5 -82t104.5 -135l-299 -160l-37 47l-78 -360q46 30 92 82l244 -137q-76 -104 -182.5 -177t-223.5 -102l-37 -164h-293l39 176q-149 55 -219 190.5t-32 311.5zM461 514q-16 -84 16 -139l60 278 q-61 -61 -76 -139z" />
<glyph unicode="&#xa3;" horiz-adv-x="1212" d="M90 0l74 348h207q48 0 63 74q6 23 -13 84t-46 121h-180l63 305h94q0 3 -2 13.5t-2.5 17.5t1 23t5.5 36q29 139 116.5 251.5t213 176t264.5 63.5q224 0 344 -143l-311 -235q-22 30 -104 30q-62 0 -111.5 -38.5t-60.5 -90.5q-9 -46 6 -104h276l-63 -305h-150 q30 -106 14 -191q-13 -62 -26 -86h18q128 0 152 109l2 10h326q-28 -134 -117 -241.5t-217 -167.5t-269 -60h-567z" />
<glyph unicode="&#xa4;" horiz-adv-x="1368" d="M123 244l229 190q-49 110 -22 250q24 110 129 250l-150 194l203 168l154 -192q158 74 276 74q68 0 119 -18t108 -56q40 31 121 98t113 92l133 -166l-231 -190q49 -121 20 -256q-24 -116 -123 -248l150 -190l-205 -168l-146 188q-134 -76 -280 -76q-125 0 -238 76 l-231 -188zM600 684q-19 -93 35 -161t147 -68t174.5 68t100.5 161q20 94 -32 162.5t-144 68.5q-94 0 -177.5 -68.5t-103.5 -162.5z" />
<glyph unicode="&#xa5;" horiz-adv-x="1126" d="M162 336l63 293h262l-16 76h-229l59 286h102l-110 545h381l100 -537l326 537h387l-348 -545h104l-59 -286h-230l-49 -76h260l-63 -293h-291l-70 -336h-354l70 336h-295z" />
<glyph unicode="&#xa6;" horiz-adv-x="448" d="M74 -25l143 676h293l-143 -676h-293zM262 866l144 672h292l-143 -672h-293z" />
<glyph unicode="&#xa7;" horiz-adv-x="1204" d="M39 -45l285 166q24 -47 86 -95.5t141 -48.5q37 0 73 19t42 51q3 16 0 30t-17 27t-25.5 22t-38.5 22t-41.5 19.5t-49.5 20.5q-12 3 -35.5 14t-28.5 13q-35 14 -64 28t-59.5 34t-52 42.5t-41.5 51.5t-27.5 61.5t-10.5 74t9 87.5q23 107 75 183t147 147q-28 46 -35 85.5 t6 108.5q26 122 107.5 213t192.5 136.5t236 45.5q61 0 127 -12t132 -36.5t115 -70t63 -104.5l-336 -194l-15 18q-21 24 -34.5 37.5t-37 25t-50.5 11.5q-42 0 -78 -27t-45 -67q-2 -11 0.5 -21.5t12 -19.5t18.5 -16t28 -16t31 -14.5t37 -15.5q52 -19 133 -55 q28 -13 50.5 -24.5t48 -26.5t45 -29.5t39.5 -33t34 -38t25.5 -43t16.5 -48.5t4.5 -55t-7.5 -63q-23 -109 -89 -191t-171 -155q44 -97 26 -190q-26 -119 -107 -209t-188.5 -134t-224.5 -44h-29q-231 0 -362 151q-60 73 -86 152zM553 627q-7 -33 7 -54.5t46 -40.5l203 -92 q35 20 54 41.5t26 55.5q14 65 -92 106l-174 74q-61 -44 -70 -90z" />
<glyph unicode="&#xa8;" horiz-adv-x="864" d="M354 1333q13 69 72.5 116.5t128.5 47.5t107 -47.5t24 -116.5q-15 -69 -73.5 -117.5t-127.5 -48.5t-107.5 48.5t-23.5 117.5zM743 1333q13 68 73 116t128 48q69 0 107 -47.5t24 -116.5q-15 -69 -73.5 -117.5t-127.5 -48.5q-68 0 -107 48.5t-24 117.5z" />
<glyph unicode="&#xa9;" horiz-adv-x="1564" d="M198.5 492q-11.5 108 10.5 229q42 196 176.5 363.5t322.5 264.5t382 97q120 0 224 -37t177.5 -103t122 -157t58.5 -199t-13 -229q-41 -197 -172 -363.5t-319 -264t-388 -97.5q-117 0 -219.5 37t-176.5 103t-124 157t-61.5 199zM389 721q-31 -148 14.5 -273.5 t155.5 -198.5t260 -73q149 0 292.5 73t245 198.5t132.5 273.5q32 149 -16 275t-160.5 199t-261.5 73q-150 0 -291 -73t-239.5 -199t-131.5 -275zM551 721q35 164 174 278.5t303 114.5q147 0 238 -82l-179 -172q-31 31 -106 31q-69 0 -130.5 -49.5t-74.5 -116.5 q-15 -72 24.5 -122t108.5 -50q66 0 119 31l105 -170q-124 -84 -271 -84q-164 0 -254.5 114t-56.5 277z" />
<glyph unicode="&#xaa;" horiz-adv-x="872" d="M287 1085q32 152 161 258.5t281 106.5q88 0 152 -37l6 27h211l-154 -723l-201 39q-78 -37 -170 -37q-152 0 -235 107t-51 259zM535 1085q-10 -53 16 -86.5t76 -33.5q54 0 94.5 33t50.5 87q11 52 -16 85.5t-80 33.5q-50 0 -90.5 -34t-50.5 -85z" />
<glyph unicode="&#xab;" horiz-adv-x="1060" d="M139 551l375 450l193 -180l-238 -268l127 -272l-285 -170zM610 551l375 450l193 -180l-238 -268l127 -272l-285 -170z" />
<glyph unicode="&#xac;" horiz-adv-x="1165" d="M147 578l64 292h1057l-154 -720h-293l90 428h-764z" />
<glyph unicode="&#xad;" horiz-adv-x="829" d="M168 436l61 293h678l-61 -293h-678z" />
<glyph unicode="&#xae;" horiz-adv-x="1640" d="M200 548.5q-9 97.5 15 201.5q44 205 185 381t338.5 279t402.5 103q210 0 364 -103t217 -278.5t19 -381.5q-32 -154 -122 -295t-213 -244t-278.5 -164t-312.5 -61q-102 0 -195 27.5t-165 77.5t-129 120t-87 155t-39 182.5zM399 750q-33 -158 16 -292t165.5 -211t273.5 -77 t309.5 77t261.5 211t142 292q33 156 -19 289.5t-171.5 210.5t-276.5 77t-306.5 -77t-255.5 -210t-139 -290zM610 301l195 922h291q133 0 191.5 -82t31.5 -209q-22 -104 -83 -176t-146 -97l147 -358h-264l-92 242l-52 -242h-219zM944 842h66q33 0 55.5 26t30.5 64 q8 35 -4 59.5t-45 24.5h-66z" />
<glyph unicode="&#xaf;" horiz-adv-x="823" d="M324 1167l61 293h676l-62 -293h-675z" />
<glyph unicode="&#xb0;" horiz-adv-x="802" d="M291 1106q31 141 153.5 241.5t264.5 100.5t221.5 -100.5t48.5 -241.5q-29 -142 -151 -243t-265 -101q-142 0 -221.5 100.5t-50.5 243.5zM496 1106q-12 -57 20.5 -98t89.5 -41t106.5 41t61.5 98t-19.5 97t-88.5 40t-107.5 -40t-62.5 -97z" />
<glyph unicode="&#xb1;" horiz-adv-x="1183" d="M53 12l62 291h1081l-61 -291h-1082zM162 524l61 293h395l48 215h290l-47 -215h396l-62 -293h-395l-39 -186h-291l39 186h-395z" />
<glyph unicode="&#xb2;" horiz-adv-x="778" d="M229 600l58 260q35 32 136.5 111t184.5 139l78 59q37 27 43 60t-10.5 54.5t-48.5 21.5q-24 0 -47 -15.5t-37 -40.5l-211 78q52 95 147.5 156t198.5 61q130 0 203 -92t45 -223q-28 -127 -152 -230q-80 -65 -219 -161h291l-49 -238h-611z" />
<glyph unicode="&#xb3;" horiz-adv-x="724" d="M233 866l234 31q0 -30 17.5 -48t47.5 -18q32 0 61 26t36 63q19 87 -37 106q-7 10 -64 14q-14 2 -53 2l35 164l33 8q31 10 67 29q23 14 29 41q2 11 -4.5 18t-16.5 7q-4 0 -9 -3t-13.5 -9.5t-11.5 -8.5l-158 131q47 57 111.5 91t130.5 34q104 0 162 -74.5t36 -177.5 q-19 -79 -67 -133q46 -45 65 -110t2 -140q-28 -130 -142 -224.5t-243 -94.5q-78 0 -137.5 36t-87.5 97q-35 76 -23 143z" />
<glyph unicode="&#xb4;" horiz-adv-x="610" d="M336 1364l432 174l61 -274l-440 -168z" />
<glyph unicode="&#xb6;" horiz-adv-x="1222" d="M256 1059q19 89 59 155.5t92.5 108t123.5 67t144.5 35t164.5 9.5h604l-389 -1837h-291l328 1544h-103l-327 -1544h-293l233 1099q-205 7 -293.5 101.5t-52.5 261.5z" />
<glyph unicode="&#xb7;" horiz-adv-x="411" d="M217 752q11 60 64 106.5t120 46.5q58 0 91 -47t22 -106q-14 -60 -65 -103t-111 -43q-68 0 -101.5 42.5t-19.5 103.5z" />
<glyph unicode="&#xb8;" horiz-adv-x="565" d="M2 -307l133 104q16 -7 51 -10q18 0 21 16q2 10 -7 15t-31 8t-32 6l-39 68l90 118h201l-29 -34q63 -13 92.5 -59.5t12.5 -121.5q-15 -69 -67.5 -120.5t-112 -74t-113.5 -22.5q-71 0 -129 54q-30 27 -41 53z" />
<glyph unicode="&#xb9;" horiz-adv-x="485" d="M295 614l147 693h-137l51 229h375l-196 -922h-240z" />
<glyph unicode="&#xba;" horiz-adv-x="845" d="M287 1087q32 151 161.5 257t282.5 106q152 0 235.5 -106t51.5 -257q-32 -154 -161.5 -261t-281.5 -107q-153 0 -236.5 107t-51.5 261zM537 1087q-10 -51 16 -84.5t76 -33.5t90.5 33.5t50.5 84.5q11 48 -16 81.5t-76 33.5t-89.5 -33.5t-51.5 -81.5z" />
<glyph unicode="&#xbb;" horiz-adv-x="1060" d="M82 281q48 57 242 272l-123 268l266 180l186 -450l-360 -440zM553 281q48 57 242 272l-123 268l266 180l186 -450l-360 -440z" />
<glyph unicode="&#xbc;" horiz-adv-x="1746" d="M350 535l166 784h-147l49 215h370l-213 -999h-225zM518 57l737 1471l172 -58q-183 -371 -737 -1474zM1004 174l45 213l254 303q57 66 122 143t101.5 120.5t38.5 45.5h213l-131 -614h88l-43 -209h-88l-37 -176h-226l37 174h-374zM1303 387h120l45 213z" />
<glyph unicode="&#xbd;" horiz-adv-x="1818" d="M350 535l166 784h-147l49 215h370l-213 -999h-225zM518 57l737 1471l172 -58q-183 -371 -737 -1474zM1085 0l52 254q6 4 79.5 67t162.5 136.5t137 109.5l57 41q45 38 51 76q9 41 -13 69.5t-63 28.5q-66 0 -106 -67l-199 71q53 99 150 160.5t202 61.5q135 0 209 -94.5 t45 -229.5q-24 -129 -153 -233q-4 -3 -44.5 -37t-76.5 -63.5t-83.5 -67t-78.5 -60.5h346l-47 -223h-627z" />
<glyph unicode="&#xbe;" horiz-adv-x="1828" d="M203 797l217 26q3 -38 25.5 -61t58.5 -23q41 0 77.5 35.5t47.5 83.5q9 42 -11 79t-55 48q-35 8 -67 12q-10 2 -31 2l35 162l35 15q3 2 65 36q37 21 43 58q5 17 -4.5 30t-26.5 13q-18 0 -53 -31l-147 125q47 58 112 92.5t133 34.5q105 0 163.5 -73.5t35.5 -182.5 q-20 -92 -80 -158q52 -45 73 -119.5t3 -154.5q-28 -135 -145 -233.5t-252 -98.5q-79 0 -137.5 36t-92.5 99q-40 67 -22 148zM610 57l738 1471l172 -58q-131 -265 -738 -1474zM1096 174l45 213l254 303q57 66 122 143t101.5 120.5t38.5 45.5h213l-131 -614h88l-43 -209h-88 l-37 -176h-225l36 174h-374zM1395 387h121l45 213z" />
<glyph unicode="&#xbf;" horiz-adv-x="866" d="M121 367q18 85 63 150.5t97.5 103.5t104 68.5t89.5 61.5t45 66q9 36 -8 139q-5 39 -18 88l344 115q28 -36 41.5 -125t-2.5 -174q-15 -67 -58 -124t-95 -96.5t-104 -76t-92 -80t-51 -92.5q-11 -51 33 -51q11 0 22.5 7t31 23.5t30.5 24.5l297 -108q-15 -70 -83 -139 t-163 -112.5t-184 -43.5q-182 0 -279.5 101t-60.5 274zM516 1350q14 68 74.5 118t130.5 50q66 0 105 -50.5t26 -117.5q-15 -68 -75.5 -118t-127.5 -50q-71 0 -109.5 49t-23.5 119z" />
<glyph unicode="&#xc0;" horiz-adv-x="1572" d="M41 0l944 1538h254l287 -1538h-373l-61 270h-496l-176 -270h-379zM797 606h231l-53 289zM889 1704l176 274l358 -174l-168 -268z" />
<glyph unicode="&#xc1;" horiz-adv-x="1572" d="M41 0l944 1538h254l287 -1538h-373l-61 270h-496l-176 -270h-379zM797 606h231l-53 289zM909 1804l432 174l62 -274l-440 -168z" />
<glyph unicode="&#xc2;" horiz-adv-x="1572" d="M41 0l944 1538h254l287 -1538h-373l-61 270h-496l-176 -270h-379zM797 606h231l-53 289zM846 1817l352 137l297 -135l-174 -271q-168 79 -188 90l-224 -88q-1 0 -3 -1t-3 -1z" />
<glyph unicode="&#xc3;" horiz-adv-x="1572" d="M41 0l944 1538h254l287 -1538h-373l-61 270h-496l-176 -270h-379zM795 1710q21 94 95 149.5t167 55.5q54 0 135 -29q52 -18 68 -18q15 0 31.5 4.5t32.5 13t27 15t24 15t14 9.5l127 -145q-18 -85 -101 -145t-168 -60q-38 0 -117 27q-12 3 -31.5 9.5t-32 9.5t-22.5 3 q-22 0 -42 -11t-35 -25t-17 -15zM797 606h231l-53 289z" />
<glyph unicode="&#xc4;" horiz-adv-x="1572" d="M41 0l944 1538h254l287 -1538h-373l-61 270h-496l-176 -270h-379zM795 1743q13 69 72 116.5t128 47.5t107 -47.5t24 -116.5q-15 -69 -73 -117.5t-127 -48.5t-107.5 48.5t-23.5 117.5zM797 606h231l-53 289zM1184 1743q13 68 72.5 116t127.5 48q69 0 107 -47.5t25 -116.5 q-15 -69 -73.5 -117.5t-127.5 -48.5q-68 0 -107 48.5t-24 117.5z" />
<glyph unicode="&#xc5;" horiz-adv-x="1572" d="M41 0l944 1538h10q-44 30 -62 81.5t-5 113.5q20 94 99 159.5t173 65.5t146 -65.5t32 -159.5q-13 -62 -54 -113.5t-99 -81.5h14l287 -1538h-373l-61 270h-496l-176 -270h-379zM797 606h231l-53 289zM1071 1733q-8 -35 10.5 -58.5t53.5 -23.5q36 0 65.5 23.5t36.5 58.5 q8 35 -11.5 59.5t-54.5 24.5t-63.5 -24.5t-36.5 -59.5z" />
<glyph unicode="&#xc6;" horiz-adv-x="1849" d="M41 0l944 1536h1126l-75 -354h-527l-49 -232h527l-76 -354h-527l-51 -242h527l-74 -354h-881l58 270h-367l-176 -270h-379zM797 606h231l123 576z" />
<glyph unicode="&#xc7;" horiz-adv-x="1368" d="M217 770q34 159 126.5 304t219.5 249.5t285 166.5t317 62q288 0 447 -164l4 -4l-281 -282q-100 93 -243 96q-185 -8 -334 -129.5t-187 -298.5q-23 -112 17.5 -212t127 -159t193.5 -59q141 0 285 94l162 -280q-14 -12 -38 -28.5t-74.5 -42.5t-107.5 -47t-139 -36.5 t-166 -15.5q-23 0 -73 4l-2 -4q63 -13 92 -59.5t12 -121.5q-15 -69 -67.5 -120.5t-112 -74t-113.5 -22.5q-71 0 -129 54q-30 27 -41 53l133 104q16 -7 52 -10q17 0 20 16q2 10 -7 15t-31 8t-32 6l-38 68l90 118h24q-226 74 -336 282t-55 470z" />
<glyph unicode="&#xc8;" horiz-adv-x="1044" d="M86 0l326 1536h880l-75 -354h-527l-49 -232h526l-75 -354h-527l-51 -242h526l-73 -354h-881zM627 1710l176 275l358 -175l-168 -268z" />
<glyph unicode="&#xc9;" horiz-adv-x="1044" d="M86 0l326 1536h880l-75 -354h-527l-49 -232h526l-75 -354h-527l-51 -242h526l-73 -354h-881zM645 1806l432 174l62 -274l-441 -168z" />
<glyph unicode="&#xca;" horiz-adv-x="1044" d="M86 0l326 1536h880l-75 -354h-527l-49 -232h526l-75 -354h-527l-51 -242h526l-73 -354h-881zM582 1817l352 137l297 -135l-174 -271q-174 82 -189 90l-223 -88q-1 0 -3 -1t-3 -1z" />
<glyph unicode="&#xcb;" horiz-adv-x="1044" d="M86 0l326 1536h880l-75 -354h-527l-49 -232h526l-75 -354h-527l-51 -242h526l-73 -354h-881zM530 1743q13 69 72.5 116.5t128.5 47.5t107 -47.5t24 -116.5q-15 -69 -73 -117.5t-127 -48.5t-108 48.5t-24 117.5zM920 1743q13 68 72.5 116t127.5 48q69 0 107 -47.5 t24 -116.5q-15 -69 -73 -117.5t-127 -48.5q-68 0 -107 48.5t-24 117.5z" />
<glyph unicode="&#xcc;" horiz-adv-x="520" d="M84 0l326 1536h356l-326 -1536h-356zM367 1706l176 274l358 -174l-168 -268z" />
<glyph unicode="&#xcd;" horiz-adv-x="520" d="M84 0l326 1536h356l-326 -1536h-356zM389 1808l432 174l62 -274l-441 -168z" />
<glyph unicode="&#xce;" horiz-adv-x="520" d="M84 0l326 1536h356l-326 -1536h-356zM326 1817l352 137l297 -135l-174 -271q-174 82 -189 90l-223 -88q-1 0 -3 -1t-3 -1z" />
<glyph unicode="&#xcf;" horiz-adv-x="520" d="M84 0l326 1536h356l-326 -1536h-356zM272 1743q13 69 72.5 116.5t128.5 47.5t107 -47.5t24 -116.5q-15 -69 -73.5 -117.5t-127.5 -48.5t-107.5 48.5t-23.5 117.5zM662 1743q13 68 72.5 116t127.5 48q69 0 107 -47.5t24 -116.5q-15 -69 -73 -117.5t-127 -48.5 q-68 0 -107 48.5t-24 117.5z" />
<glyph unicode="&#xd0;" horiz-adv-x="1591" d="M174 584l64 299h200l140 653h514q125 0 235 -39.5t188 -110t130 -167t63.5 -210t-12.5 -239.5q-32 -155 -122.5 -297t-215 -246t-280 -165.5t-312.5 -61.5h-516l123 584h-199zM678 354h162q181 0 322 117t179 299q39 181 -48 296.5t-267 115.5h-172l-63 -299h194 l-63 -299h-195z" />
<glyph unicode="&#xd1;" horiz-adv-x="1400" d="M84 0l326 1536h348l344 -879l186 879h354l-325 -1536h-344l-350 872l-185 -872h-354zM709 1710q21 94 95 149.5t167 55.5q54 0 135 -29q52 -18 68 -18q15 0 31.5 4.5t32.5 13t27 15t24 15t14 9.5l127 -145q-18 -85 -101 -145t-168 -60q-38 0 -117 27q-12 3 -31.5 9.5 t-32 9.5t-22.5 3q-22 0 -42 -11t-35 -25t-17 -15z" />
<glyph unicode="&#xd2;" horiz-adv-x="1679" d="M204.5 557.5q-8.5 100.5 16.5 208.5q34 159 126.5 304.5t219.5 251t285 168t317 62.5q59 0 127 -10l-354 162l176 274l359 -174l-166 -266q172 -34 294 -143.5t169.5 -275t7.5 -353.5q-45 -213 -188 -394.5t-345.5 -288t-414.5 -106.5q-106 0 -201.5 28.5t-169.5 80 t-132 124t-88 160t-38.5 188zM575 766q-38 -178 60.5 -304t273.5 -126q117 0 227.5 57.5t188 156.5t102.5 216q37 178 -59.5 305t-273.5 127q-175 0 -328.5 -127.5t-190.5 -304.5z" />
<glyph unicode="&#xd3;" horiz-adv-x="1679" d="M204.5 557.5q-8.5 100.5 16.5 208.5q34 159 126.5 304.5t219.5 251t285 168t317 62.5q106 0 201.5 -28t169.5 -79.5t132 -123.5t88 -159.5t38.5 -187.5t-16.5 -208q-45 -213 -188 -394.5t-345.5 -288t-414.5 -106.5q-106 0 -201.5 28.5t-169.5 80t-132 124t-88 160 t-38.5 188zM575 766q-38 -178 60.5 -304t273.5 -126q117 0 227.5 57.5t188 156.5t102.5 216q37 178 -59.5 305t-273.5 127q-175 0 -328.5 -127.5t-190.5 -304.5zM965 1810l432 175l61 -275l-440 -168z" />
<glyph unicode="&#xd4;" horiz-adv-x="1679" d="M204.5 557.5q-8.5 100.5 16.5 208.5q34 159 126.5 304.5t219.5 251t285 168t317 62.5q106 0 201.5 -28t169.5 -79.5t132 -123.5t88 -159.5t38.5 -187.5t-16.5 -208q-45 -213 -188 -394.5t-345.5 -288t-414.5 -106.5q-106 0 -201.5 28.5t-169.5 80t-132 124t-88 160 t-38.5 188zM575 766q-38 -178 60.5 -304t273.5 -126q117 0 227.5 57.5t188 156.5t102.5 216q37 178 -59.5 305t-273.5 127q-175 0 -328.5 -127.5t-190.5 -304.5zM899 1817l352 137l297 -135l-174 -271q-168 79 -188 90l-223 -88q-1 0 -3.5 -1t-3.5 -1z" />
<glyph unicode="&#xd5;" horiz-adv-x="1679" d="M204.5 557.5q-8.5 100.5 16.5 208.5q34 159 126.5 304.5t219.5 251t285 168t317 62.5q106 0 201.5 -28t169.5 -79.5t132 -123.5t88 -159.5t38.5 -187.5t-16.5 -208q-45 -213 -188 -394.5t-345.5 -288t-414.5 -106.5q-106 0 -201.5 28.5t-169.5 80t-132 124t-88 160 t-38.5 188zM575 766q-38 -178 60.5 -304t273.5 -126q117 0 227.5 57.5t188 156.5t102.5 216q37 178 -59.5 305t-273.5 127q-175 0 -328.5 -127.5t-190.5 -304.5zM848 1710q21 94 95 149.5t167 55.5q54 0 135 -29q52 -18 68 -18q15 0 31.5 4.5t32.5 13t27 15t24 15t14 9.5 l127 -145q-18 -85 -101 -145t-168 -60q-37 0 -116 27q-12 3 -31.5 9.5t-32 9.5t-22.5 3q-22 0 -42 -11t-35 -25t-17 -15z" />
<glyph unicode="&#xd6;" horiz-adv-x="1679" d="M204.5 557.5q-8.5 100.5 16.5 208.5q34 159 126.5 304.5t219.5 251t285 168t317 62.5q106 0 201.5 -28t169.5 -79.5t132 -123.5t88 -159.5t38.5 -187.5t-16.5 -208q-45 -213 -188 -394.5t-345.5 -288t-414.5 -106.5q-106 0 -201.5 28.5t-169.5 80t-132 124t-88 160 t-38.5 188zM575 766q-38 -178 60.5 -304t273.5 -126q117 0 227.5 57.5t188 156.5t102.5 216q37 178 -59.5 305t-273.5 127q-175 0 -328.5 -127.5t-190.5 -304.5zM848 1743q13 69 72.5 116.5t128.5 47.5t107 -47.5t24 -116.5q-15 -69 -73.5 -117.5t-127.5 -48.5t-107.5 48.5 t-23.5 117.5zM1237 1743q13 68 73 116t128 48q69 0 107 -47.5t24 -116.5q-15 -69 -73.5 -117.5t-127.5 -48.5q-68 0 -107 48.5t-24 117.5z" />
<glyph unicode="&#xd7;" horiz-adv-x="1079" d="M121 260l315 260l-196 252l247 205l199 -252l318 262l161 -209l-317 -260l203 -258l-248 -205l-201 254l-313 -258z" />
<glyph unicode="&#xd8;" horiz-adv-x="1662" d="M213 766q34 159 126.5 303.5t219 249t284 166t316.5 61.5q57 0 101 -6l47 86h211q-1 -5 -30.5 -65t-31.5 -68l-2 -8q191 -91 280.5 -286t39.5 -433q-34 -159 -126.5 -304t-219 -249.5t-284.5 -166.5t-317 -62q-65 0 -114 8h-8l-54 -101l-215 3l80 159q-185 95 -269 287 t-34 426zM567 766q-24 -116 9 -209t116 -151q60 123 189.5 380t201.5 406q-175 0 -327 -125t-189 -301zM879 340h24q178 0 328.5 124.5t187.5 301.5q24 116 -15.5 216t-127.5 157z" />
<glyph unicode="&#xd9;" horiz-adv-x="1187" d="M170 444l231 1092h355l-224 -1053q-13 -62 33 -103.5t107 -41.5q62 0 115.5 39.5t70.5 99.5l225 1059h355l-232 -1092q-28 -131 -123.5 -238t-225 -164.5t-261.5 -57.5q-100 0 -187.5 34.5t-147.5 94t-86 146.5t-5 185zM696 1706l176 274l359 -174l-168 -268z" />
<glyph unicode="&#xda;" horiz-adv-x="1187" d="M170 444l231 1092h355l-224 -1053q-13 -62 33 -103.5t107 -41.5q62 0 115.5 39.5t70.5 99.5l225 1059h355l-232 -1092q-28 -131 -123.5 -238t-225 -164.5t-261.5 -57.5q-100 0 -187.5 34.5t-147.5 94t-86 146.5t-5 185zM717 1806l432 174l61 -274l-440 -168z" />
<glyph unicode="&#xdb;" horiz-adv-x="1187" d="M170 444l231 1092h355l-224 -1053q-13 -62 33 -103.5t107 -41.5q62 0 115.5 39.5t70.5 99.5l225 1059h355l-232 -1092q-28 -131 -123.5 -238t-225 -164.5t-261.5 -57.5q-100 0 -187.5 34.5t-147.5 94t-86 146.5t-5 185zM653 1817l353 137l297 -135l-175 -271 q-168 79 -188 90l-223 -88q-1 0 -3 -1t-3 -1z" />
<glyph unicode="&#xdc;" horiz-adv-x="1187" d="M170 444l231 1092h355l-224 -1053q-13 -62 33 -103.5t107 -41.5q62 0 115.5 39.5t70.5 99.5l225 1059h355l-232 -1092q-28 -131 -123.5 -238t-225 -164.5t-261.5 -57.5q-100 0 -187.5 34.5t-147.5 94t-86 146.5t-5 185zM602 1743q13 69 72.5 116.5t128.5 47.5t107 -47.5 t24 -116.5q-15 -69 -73.5 -117.5t-127.5 -48.5t-107.5 48.5t-23.5 117.5zM991 1743q13 68 73 116t128 48q69 0 107 -47.5t24 -116.5q-15 -69 -73.5 -117.5t-127.5 -48.5q-68 0 -107 48.5t-24 117.5z" />
<glyph unicode="&#xdd;" horiz-adv-x="1255" d="M346 1536h395l99 -537l327 537h392l-635 -981l-117 -555h-354l116 555zM752 1804l432 174l61 -274l-440 -168z" />
<glyph unicode="&#xde;" horiz-adv-x="1044" d="M82 0l326 1536h354l-60 -274q119 0 127 2q206 0 307 -136t58 -340t-203 -343.5t-360 -139.5h-131l-64 -305h-354zM575 659h132q55 0 89 41.5t44 87.5q3 24 2 51t-22.5 48.5t-59.5 21.5h-131z" />
<glyph unicode="&#xdf;" horiz-adv-x="1107" d="M82 0l326 1536h466q117 0 200.5 -62t115.5 -160.5t8 -209.5q-26 -129 -123 -252q59 -67 79.5 -160t-1.5 -203q-42 -200 -181.5 -344.5t-297.5 -144.5h-187l72 344h113q46 17 82 59.5t47 90.5q9 43 -5 83t-46 60q-5 4 -14 6t-28.5 5t-27.5 5l-53 4l57 277q54 0 103 41 t61 96q9 45 -11 76t-69 35h-80l-250 -1182h-356z" />
<glyph unicode="&#xe0;" horiz-adv-x="1193" d="M166 512q22 106 85 204t148.5 169t191.5 113t212 42q134 0 233 -57l11 51h286l-219 -1034h-287l9 39q-113 -55 -256 -55q-141 0 -247 71t-151.5 193t-15.5 264zM498 512q-19 -86 25 -142.5t126 -56.5q86 0 153.5 56.5t86.5 142.5t-25.5 142.5t-130.5 56.5 q-82 0 -149 -56.5t-86 -142.5zM608 1264l176 274l359 -174l-168 -268z" />
<glyph unicode="&#xe1;" horiz-adv-x="1193" d="M166 512q22 106 85 204t148.5 169t191.5 113t212 42q134 0 233 -57l11 51h286l-219 -1034h-287l9 39q-113 -55 -256 -55q-141 0 -247 71t-151.5 193t-15.5 264zM498 512q-19 -86 25 -142.5t126 -56.5q86 0 153.5 56.5t86.5 142.5t-25.5 142.5t-130.5 56.5 q-82 0 -149 -56.5t-86 -142.5zM629 1364l432 174l61 -274l-440 -168z" />
<glyph unicode="&#xe2;" horiz-adv-x="1193" d="M166 512q22 106 85 204t148.5 169t191.5 113t212 42q134 0 233 -57l11 51h286l-219 -1034h-287l9 39q-113 -55 -256 -55q-141 0 -247 71t-151.5 193t-15.5 264zM498 512q-19 -86 25 -142.5t126 -56.5q86 0 153.5 56.5t86.5 142.5t-25.5 142.5t-130.5 56.5 q-82 0 -149 -56.5t-86 -142.5zM571 1407l353 137l297 -135l-174 -270q-174 82 -189 90l-223 -88q-1 0 -3 -1t-3 -1z" />
<glyph unicode="&#xe3;" horiz-adv-x="1193" d="M166 512q22 106 85 204t148.5 169t191.5 113t212 42q134 0 233 -57l11 51h286l-219 -1034h-287l9 39q-113 -55 -256 -55q-141 0 -247 71t-151.5 193t-15.5 264zM498 512q-19 -86 25 -142.5t126 -56.5q86 0 153.5 56.5t86.5 142.5t-25.5 142.5t-130.5 56.5 q-82 0 -149 -56.5t-86 -142.5zM518 1300q21 94 95 149.5t167 55.5q57 0 135 -28q55 -19 68 -19q15 0 31.5 5t32.5 13t27.5 15t23.5 15.5t14 9.5l127 -146q-18 -85 -100.5 -145t-167.5 -60q-38 0 -117 27q-12 3 -31.5 9.5t-32 9.5t-22.5 3q-22 0 -42 -11t-35 -25t-17 -15z " />
<glyph unicode="&#xe4;" horiz-adv-x="1193" d="M166 512q22 106 85 204t148.5 169t191.5 113t212 42q134 0 233 -57l11 51h286l-219 -1034h-287l9 39q-113 -55 -256 -55q-141 0 -247 71t-151.5 193t-15.5 264zM498 512q-19 -86 25 -142.5t126 -56.5q86 0 153.5 56.5t86.5 142.5t-25.5 142.5t-130.5 56.5 q-82 0 -149 -56.5t-86 -142.5zM518 1333q13 69 72.5 116.5t128.5 47.5t107 -47.5t24 -116.5q-15 -69 -73.5 -117.5t-127.5 -48.5t-107.5 48.5t-23.5 117.5zM907 1333q13 68 73 116t128 48q69 0 107 -47.5t24 -116.5q-15 -69 -73.5 -117.5t-127.5 -48.5q-68 0 -107 48.5 t-24 117.5z" />
<glyph unicode="&#xe5;" horiz-adv-x="1193" d="M166 512q22 106 85 204t148.5 169t191.5 113t212 42q134 0 233 -57l11 51h286l-219 -1034h-287l9 39q-113 -55 -256 -55q-141 0 -247 71t-151.5 193t-15.5 264zM498 512q-19 -86 25 -142.5t126 -56.5q86 0 153.5 56.5t86.5 142.5t-25.5 142.5t-130.5 56.5 q-82 0 -149 -56.5t-86 -142.5zM651 1323q20 94 99.5 159.5t173.5 65.5t146 -65.5t32 -159.5t-100.5 -159.5t-174.5 -65.5t-145 65.5t-31 159.5zM795 1323q-8 -35 10 -58.5t53 -23.5q36 0 66 23.5t37 58.5q8 35 -11.5 59.5t-54.5 24.5t-63.5 -24.5t-36.5 -59.5z" />
<glyph unicode="&#xe6;" horiz-adv-x="1820" d="M166 512q22 106 85 204t148.5 169t191.5 113t212 42q134 0 233 -57l11 51h286l-6 -30q99 36 199 36q202 0 305.5 -142t56.5 -368l-28 -133h-639q-9 -39 43 -85t139 -46q74 0 145 15q41 9 144 49l53 -234q-96 -55 -196 -83.5t-236 -28.5q-109 0 -195 36l-4 -20h-287l9 39 q-113 -55 -256 -55q-141 0 -247 71t-151.5 193t-15.5 264zM498 512q-19 -86 25 -142.5t126 -56.5q86 0 153.5 56.5t86.5 142.5t-25.5 142.5t-130.5 56.5q-82 0 -149 -56.5t-86 -142.5zM1266 627h336q8 46 -31 83.5t-115 37.5q-67 0 -122.5 -40t-67.5 -81z" />
<glyph unicode="&#xe7;" horiz-adv-x="1095" d="M166 514q46 218 233 372t408 154q129 0 233 -66t152 -165l-305 -174q-21 23 -34.5 35.5t-44 24.5t-69.5 12q-79 0 -147.5 -56.5t-85.5 -136.5q-17 -82 26.5 -139.5t122.5 -57.5q54 0 101 26.5t100 82.5l258 -150q-91 -125 -221 -203t-272 -87v-2q63 -13 92 -59.5 t12 -121.5q-15 -69 -67.5 -120.5t-112 -74t-113.5 -22.5q-71 0 -129 54q-30 27 -41 53l133 104q16 -7 51 -10q18 0 21 16q2 10 -7 15t-31 8t-32 6l-39 68l80 104q-158 48 -234.5 188.5t-37.5 321.5z" />
<glyph unicode="&#xe8;" horiz-adv-x="1110" d="M166 516q46 219 228.5 371.5t402.5 152.5q202 0 305.5 -142t56.5 -368l-29 -133h-638q-9 -39 43 -85t139 -46q74 0 145 15q41 9 144 49l53 -234q-96 -55 -196 -83.5t-236 -28.5q-150 0 -257.5 71t-149.5 193t-11 268zM537 627h335q8 46 -30.5 83.5t-114.5 37.5 q-67 0 -122.5 -40t-67.5 -81zM565 1264l176 274l359 -174l-168 -268z" />
<glyph unicode="&#xe9;" horiz-adv-x="1110" d="M166 516q46 219 228.5 371.5t402.5 152.5q202 0 305.5 -142t56.5 -368l-29 -133h-638q-9 -39 43 -85t139 -46q74 0 145 15q41 9 144 49l53 -234q-96 -55 -196 -83.5t-236 -28.5q-150 0 -257.5 71t-149.5 193t-11 268zM537 627h335q8 46 -30.5 83.5t-114.5 37.5 q-67 0 -122.5 -40t-67.5 -81zM586 1364l432 174l61 -274l-440 -168z" />
<glyph unicode="&#xea;" horiz-adv-x="1110" d="M166 516q46 219 228.5 371.5t402.5 152.5q202 0 305.5 -142t56.5 -368l-29 -133h-638q-9 -39 43 -85t139 -46q74 0 145 15q41 9 144 49l53 -234q-96 -55 -196 -83.5t-236 -28.5q-150 0 -257.5 71t-149.5 193t-11 268zM528 1407l353 137l297 -135l-174 -270 q-174 82 -189 90l-223 -88q-1 0 -3 -1t-3 -1zM537 627h335q8 46 -30.5 83.5t-114.5 37.5q-67 0 -122.5 -40t-67.5 -81z" />
<glyph unicode="&#xeb;" horiz-adv-x="1110" d="M166 516q46 219 228.5 371.5t402.5 152.5q202 0 305.5 -142t56.5 -368l-29 -133h-638q-9 -39 43 -85t139 -46q74 0 145 15q41 9 144 49l53 -234q-96 -55 -196 -83.5t-236 -28.5q-150 0 -257.5 71t-149.5 193t-11 268zM477 1333q13 69 72.5 116.5t128.5 47.5t107 -47.5 t24 -116.5q-15 -69 -73.5 -117.5t-127.5 -48.5t-107.5 48.5t-23.5 117.5zM537 627h335q8 46 -30.5 83.5t-114.5 37.5q-67 0 -122.5 -40t-67.5 -81zM866 1333q13 68 73 116t128 48q69 0 107 -47.5t24 -116.5q-15 -69 -73.5 -117.5t-127.5 -48.5q-68 0 -107 48.5t-24 117.5z " />
<glyph unicode="&#xec;" horiz-adv-x="468" d="M84 0l217 1024h305l-217 -1024h-305zM248 1264l176 274l358 -174l-168 -268z" />
<glyph unicode="&#xed;" horiz-adv-x="468" d="M84 0l217 1024h305l-217 -1024h-305zM268 1364l432 174l62 -274l-440 -168z" />
<glyph unicode="&#xee;" horiz-adv-x="468" d="M84 0l217 1024h305l-217 -1024h-305zM211 1407l352 137l297 -135l-174 -270q-168 79 -188 90l-224 -88q-1 0 -3 -1t-3 -1z" />
<glyph unicode="&#xef;" horiz-adv-x="468" d="M84 0l217 1024h305l-217 -1024h-305zM160 1333q13 69 72 116.5t128 47.5t107 -47.5t25 -116.5q-15 -69 -73.5 -117.5t-127.5 -48.5t-107.5 48.5t-23.5 117.5zM549 1333q13 68 73 116t128 48q69 0 107 -47.5t24 -116.5q-15 -69 -73.5 -117.5t-127.5 -48.5q-68 0 -107 48.5 t-24 117.5z" />
<glyph unicode="&#xf0;" horiz-adv-x="1177" d="M158 524q41 199 198.5 337.5t364.5 176.5l-21 52l-79 -48l-115 209l100 72q2 9 -16.5 43t-16.5 43l297 184l31 -73l98 59l134 -227l-107 -80l201 -473q49 -111 16 -275q-31 -148 -130 -272.5t-239.5 -196t-287.5 -71.5t-256.5 71.5t-156 196t-15.5 272.5zM506 524 q-19 -85 24 -139.5t129 -54.5t151.5 54.5t84.5 139.5q19 86 -24.5 141.5t-129.5 55.5t-151 -55t-84 -142z" />
<glyph unicode="&#xf1;" horiz-adv-x="1077" d="M82 0l217 1022h276l-6 -23q83 41 193 41q220 0 315 -118.5t49 -337.5l-122 -584h-334l123 580q11 54 -18 90.5t-83 36.5q-49 0 -92.5 -33.5t-58.5 -83.5l-125 -590h-334zM461 1300q21 94 95 149.5t167 55.5q57 0 135 -28q55 -19 68 -19q15 0 31.5 5t32.5 13t27.5 15 t23.5 15.5t14 9.5l127 -146q-18 -85 -101 -145t-168 -60q-37 0 -116 27q-12 3 -31.5 9.5t-32 9.5t-22.5 3q-22 0 -42 -11t-35.5 -25t-17.5 -15z" />
<glyph unicode="&#xf2;" horiz-adv-x="1169" d="M166 514q30 143 125.5 264t232 191.5t281.5 70.5q143 0 249.5 -70.5t151.5 -191.5t15 -264q-31 -145 -127.5 -267t-232.5 -192.5t-279 -70.5q-145 0 -252 70.5t-151 192.5t-13 267zM502 514q-17 -82 26.5 -138.5t124.5 -56.5q80 0 148.5 57t85.5 138q17 79 -27.5 136 t-124.5 57q-81 0 -148.5 -56.5t-84.5 -136.5zM596 1264l176 274l358 -174l-167 -268z" />
<glyph unicode="&#xf3;" horiz-adv-x="1169" d="M166 514q30 143 125.5 264t232 191.5t281.5 70.5q143 0 249.5 -70.5t151.5 -191.5t15 -264q-31 -145 -127.5 -267t-232.5 -192.5t-279 -70.5q-145 0 -252 70.5t-151 192.5t-13 267zM502 514q-17 -82 26.5 -138.5t124.5 -56.5q80 0 148.5 57t85.5 138q17 79 -27.5 136 t-124.5 57q-81 0 -148.5 -56.5t-84.5 -136.5zM616 1364l433 174l61 -274l-440 -168z" />
<glyph unicode="&#xf4;" horiz-adv-x="1169" d="M166 514q30 143 125.5 264t232 191.5t281.5 70.5q143 0 249.5 -70.5t151.5 -191.5t15 -264q-31 -145 -127.5 -267t-232.5 -192.5t-279 -70.5q-145 0 -252 70.5t-151 192.5t-13 267zM502 514q-17 -82 26.5 -138.5t124.5 -56.5q80 0 148.5 57t85.5 138q17 79 -27.5 136 t-124.5 57q-81 0 -148.5 -56.5t-84.5 -136.5zM559 1407l352 137l297 -135l-174 -270q-168 79 -188 90l-223 -88q-1 0 -3.5 -1t-3.5 -1z" />
<glyph unicode="&#xf5;" horiz-adv-x="1169" d="M166 514q30 143 125.5 264t232 191.5t281.5 70.5q143 0 249.5 -70.5t151.5 -191.5t15 -264q-31 -145 -127.5 -267t-232.5 -192.5t-279 -70.5q-145 0 -252 70.5t-151 192.5t-13 267zM502 514q-17 -82 26.5 -138.5t124.5 -56.5q80 0 148.5 57t85.5 138q17 79 -27.5 136 t-124.5 57q-81 0 -148.5 -56.5t-84.5 -136.5zM506 1300q21 94 95 149.5t167 55.5q57 0 135 -28q55 -19 68 -19q15 0 31.5 5t32.5 13t27.5 15t23.5 15.5t14 9.5l127 -146q-18 -85 -101 -145t-168 -60q-37 0 -116 27q-12 3 -31.5 9.5t-32 9.5t-22.5 3q-22 0 -42 -11t-35 -25 t-17 -15z" />
<glyph unicode="&#xf6;" horiz-adv-x="1169" d="M166 514q30 143 125.5 264t232 191.5t281.5 70.5q143 0 249.5 -70.5t151.5 -191.5t15 -264q-31 -145 -127.5 -267t-232.5 -192.5t-279 -70.5q-145 0 -252 70.5t-151 192.5t-13 267zM502 514q-17 -82 26.5 -138.5t124.5 -56.5q80 0 148.5 57t85.5 138q17 79 -27.5 136 t-124.5 57q-81 0 -148.5 -56.5t-84.5 -136.5zM506 1333q13 69 72.5 116.5t128.5 47.5t107 -47.5t24 -116.5q-15 -69 -73.5 -117.5t-127.5 -48.5t-107.5 48.5t-23.5 117.5zM895 1333q13 68 73 116t128 48q69 0 107 -47.5t24 -116.5q-15 -69 -73.5 -117.5t-127.5 -48.5 q-68 0 -107 48.5t-24 117.5z" />
<glyph unicode="&#xf7;" horiz-adv-x="1073" d="M102 377l62 293h1026l-62 -293h-1026zM383 166q17 78 82 132t143 54t121.5 -54t26.5 -132t-83.5 -132t-144.5 -54t-120 54t-25 132zM535 881q17 78 82 132t143 54t121 -54t26 -132t-82 -131.5t-143 -53.5t-121 53.5t-26 131.5z" />
<glyph unicode="&#xf8;" horiz-adv-x="1146" d="M156 514q46 218 232 371t407 153q35 0 49 -2l55 105h193q-1 -4 -15.5 -33.5t-32.5 -67t-26 -55.5q118 -67 171 -193.5t21 -277.5q-31 -145 -127.5 -266.5t-232.5 -191.5t-279 -70q-39 0 -57 2l-49 -105h-199l76 158q-114 66 -166 193.5t-20 279.5zM467 510 q-18 -86 31 -156l190 375q-81 -18 -142 -80t-79 -139zM668 297q84 12 150.5 72t84.5 145q21 99 -41 164z" />
<glyph unicode="&#xf9;" horiz-adv-x="1075" d="M166 440l125 584h334l-123 -580q-12 -54 16 -90.5t82 -36.5q51 0 97 33.5t55 81.5l127 592h333l-217 -1024h-278l4 23q-79 -39 -191 -39q-220 0 -315 118.5t-49 337.5zM549 1264l176 274l358 -174l-168 -268z" />
<glyph unicode="&#xfa;" horiz-adv-x="1075" d="M166 440l125 584h334l-123 -580q-12 -54 16 -90.5t82 -36.5q51 0 97 33.5t55 81.5l127 592h333l-217 -1024h-278l4 23q-79 -39 -191 -39q-220 0 -315 118.5t-49 337.5zM569 1364l432 174l62 -274l-440 -168z" />
<glyph unicode="&#xfb;" horiz-adv-x="1075" d="M166 440l125 584h334l-123 -580q-12 -54 16 -90.5t82 -36.5q51 0 97 33.5t55 81.5l127 592h333l-217 -1024h-278l4 23q-79 -39 -191 -39q-220 0 -315 118.5t-49 337.5zM512 1407l352 137l297 -135l-174 -270q-168 79 -188 90l-224 -88q-1 0 -3 -1t-3 -1z" />
<glyph unicode="&#xfc;" horiz-adv-x="1075" d="M166 440l125 584h334l-123 -580q-12 -54 16 -90.5t82 -36.5q51 0 97 33.5t55 81.5l127 592h333l-217 -1024h-278l4 23q-79 -39 -191 -39q-220 0 -315 118.5t-49 337.5zM459 1333q13 69 72 116.5t128 47.5t107 -47.5t25 -116.5q-15 -69 -73.5 -117.5t-127.5 -48.5 t-107.5 48.5t-23.5 117.5zM848 1333q13 68 73 116t128 48q69 0 107 -47.5t24 -116.5q-15 -69 -73.5 -117.5t-127.5 -48.5q-68 0 -107 48.5t-24 117.5z" />
<glyph unicode="&#xfd;" horiz-adv-x="1001" d="M66 -389q76 136 147.5 265.5t107 195.5t35.5 67l-123 885h363l31 -428l215 426h358l-788 -1419zM532 1364l433 174l61 -274l-440 -168z" />
<glyph unicode="&#xfe;" horiz-adv-x="1153" d="M-4 -420l391 1852h334l-92 -431q98 37 207 37q106 0 194.5 -41.5t143.5 -112.5t78.5 -167t-1.5 -205q-23 -107 -86 -204.5t-149 -168t-192 -112t-212 -41.5q-112 0 -190 37l-94 -443h-332zM528 512q-19 -86 24.5 -141.5t129.5 -55.5q83 0 151 56t87 141t-26 141t-128 56 q-86 0 -152.5 -55.5t-85.5 -141.5z" />
<glyph unicode="&#xff;" horiz-adv-x="1001" d="M66 -389q76 136 147.5 265.5t107 195.5t35.5 67l-123 885h363l31 -428l215 426h358l-788 -1419zM422 1333q13 69 72.5 116.5t128.5 47.5t107 -47.5t24 -116.5q-15 -69 -73.5 -117.5t-127.5 -48.5t-107.5 48.5t-23.5 117.5zM811 1333q13 68 73 116t128 48q69 0 107 -47.5 t24 -116.5q-15 -69 -73.5 -117.5t-127.5 -48.5q-68 0 -107 48.5t-24 117.5z" />
<glyph unicode="&#x152;" horiz-adv-x="2220" d="M204.5 557.5q-8.5 100.5 16.5 208.5q34 159 126.5 304.5t219.5 251t285 168t317 62.5q236 0 400 -129l24 113h881l-76 -354h-526l-49 -232h526l-76 -354h-526l-51 -242h526l-74 -354h-880l22 106q-222 -129 -456 -129q-106 0 -201.5 28.5t-169.5 80t-132 124t-88 160 t-38.5 188zM575 766q-38 -178 60.5 -304t273.5 -126q117 0 227.5 57.5t188 156.5t102.5 216q37 178 -59.5 305t-273.5 127q-175 0 -328.5 -127.5t-190.5 -304.5z" />
<glyph unicode="&#x153;" horiz-adv-x="1824" d="M166 514q30 143 125.5 264t232 191.5t281.5 70.5q103 0 188.5 -38t143.5 -107q182 145 393 145q202 0 305.5 -142t56.5 -368l-28 -133h-639q-9 -39 43 -85t139 -46q74 0 145 15q41 9 144 49l53 -234q-96 -55 -196 -83.5t-236 -28.5q-220 0 -342 145q-182 -145 -393 -145 q-145 0 -252 70.5t-151 192.5t-13 267zM502 514q-17 -82 26.5 -138.5t124.5 -56.5q80 0 148.5 57t85.5 138q17 79 -27.5 136t-124.5 57q-81 0 -148.5 -56.5t-84.5 -136.5zM1270 627h336q8 46 -31 83.5t-115 37.5q-67 0 -122.5 -40t-67.5 -81z" />
<glyph unicode="&#x178;" horiz-adv-x="1255" d="M346 1536h395l99 -537l327 537h392l-635 -981l-117 -555h-354l116 555zM635 1743q13 69 72.5 116.5t128.5 47.5t107 -47.5t24 -116.5q-15 -69 -73.5 -117.5t-127.5 -48.5t-107.5 48.5t-23.5 117.5zM1024 1743q13 68 73 116t128 48q69 0 107 -47.5t24 -116.5 q-15 -69 -73.5 -117.5t-127.5 -48.5q-68 0 -107 48.5t-24 117.5z" />
<glyph unicode="&#x2c6;" horiz-adv-x="737" d="M342 1407l352 137l297 -135l-174 -270q-168 79 -188 90l-223 -88q-1 0 -3.5 -1t-3.5 -1z" />
<glyph unicode="&#x2dc;" horiz-adv-x="841" d="M342 1300q21 94 95 149.5t167 55.5q57 0 135 -28q55 -19 68 -19q15 0 31.5 5t32.5 13t27.5 15t23.5 15.5t14 9.5l127 -146q-18 -85 -100.5 -145t-167.5 -60q-38 0 -117 27q-12 3 -31.5 9.5t-32 9.5t-22.5 3q-22 0 -42 -11t-35 -25t-17 -15z" />
<glyph unicode="&#x2000;" horiz-adv-x="992" />
<glyph unicode="&#x2001;" horiz-adv-x="1985" />
<glyph unicode="&#x2002;" horiz-adv-x="992" />
<glyph unicode="&#x2003;" horiz-adv-x="1985" />
<glyph unicode="&#x2004;" horiz-adv-x="661" />
<glyph unicode="&#x2005;" horiz-adv-x="496" />
<glyph unicode="&#x2006;" horiz-adv-x="330" />
<glyph unicode="&#x2007;" horiz-adv-x="330" />
<glyph unicode="&#x2008;" horiz-adv-x="248" />
<glyph unicode="&#x2009;" horiz-adv-x="397" />
<glyph unicode="&#x200a;" horiz-adv-x="110" />
<glyph unicode="&#x2010;" horiz-adv-x="829" d="M168 436l61 293h678l-61 -293h-678z" />
<glyph unicode="&#x2011;" horiz-adv-x="829" d="M168 436l61 293h678l-61 -293h-678z" />
<glyph unicode="&#x2012;" horiz-adv-x="829" d="M168 436l61 293h678l-61 -293h-678z" />
<glyph unicode="&#x2013;" horiz-adv-x="1177" d="M170 436l61 293h1024l-61 -293h-1024z" />
<glyph unicode="&#x2014;" horiz-adv-x="1513" d="M170 436l61 293h1358l-61 -293h-1358z" />
<glyph unicode="&#x2018;" horiz-adv-x="411" d="M352 1452l295 59l-49 -421l-231 -31z" />
<glyph unicode="&#x2019;" horiz-adv-x="413" d="M295 1090l127 421l270 -59l-182 -393z" />
<glyph unicode="&#x201a;" horiz-adv-x="411" d="M39 -111l129 422l270 -59l-182 -393z" />
<glyph unicode="&#x201c;" horiz-adv-x="776" d="M371 1452l295 59l-50 -421l-231 -31zM715 1452l295 59l-49 -421l-232 -31z" />
<glyph unicode="&#x201d;" horiz-adv-x="778" d="M295 1090l127 421l270 -59l-182 -393zM639 1090l127 421l270 -59l-182 -393z" />
<glyph unicode="&#x201e;" horiz-adv-x="759" d="M39 -111l129 422l270 -59l-182 -393zM362 -111l130 422l270 -59l-182 -393z" />
<glyph unicode="&#x2022;" horiz-adv-x="645" d="M184 606q25 110 119.5 188t204.5 78t171 -78t36 -188q-23 -110 -116.5 -187t-203.5 -77q-111 0 -172.5 77t-38.5 187z" />
<glyph unicode="&#x2026;" horiz-adv-x="1404" d="M106 137q13 60 67 107t120 47q58 0 90 -47.5t20 -106.5q-14 -60 -64 -102.5t-110 -42.5q-68 0 -102.5 42t-20.5 103zM582 137q13 60 67 107t119 47q59 0 92 -47.5t21 -106.5q-14 -60 -65 -102.5t-111 -42.5q-67 0 -102 42t-21 103zM1059 137q13 60 66.5 107t119.5 47 q58 0 90.5 -47.5t20.5 -106.5q-14 -60 -64 -102.5t-110 -42.5q-68 0 -102.5 42t-20.5 103z" />
<glyph unicode="&#x202f;" horiz-adv-x="397" />
<glyph unicode="&#x2039;" horiz-adv-x="579" d="M139 551l375 450l193 -180l-238 -268l127 -272l-285 -170z" />
<glyph unicode="&#x203a;" horiz-adv-x="583" d="M82 281q48 57 242 272l-123 268l266 180l186 -450l-360 -440z" />
<glyph unicode="&#x205f;" horiz-adv-x="496" />
<glyph unicode="&#x20ac;" horiz-adv-x="1181" d="M145 455l56 262h106l15 65h-107l55 265h109q28 87 83 168.5t132.5 149t182.5 108t220 40.5q210 0 308 -113.5t63 -295.5h-291q-10 7 -24 20.5t-24 20.5t-37.5 13.5t-69.5 6.5q-64 0 -122.5 -35.5t-68.5 -82.5h330l-57 -267h-334l-13 -61h334l-57 -266h-330 q-9 -47 34.5 -83t106.5 -36q39 0 65.5 4.5t36.5 9t28.5 17t29.5 18.5l15 2h315q-21 -87 -63 -157t-109 -125.5t-166.5 -86t-224.5 -30.5q-131 0 -233 63t-151.5 172t-33.5 238z" />
<glyph unicode="&#x2122;" horiz-adv-x="1411" d="M305 1360l37 176h502l-37 -176h-164l-127 -590h-178l127 590h-160zM739 768l164 768h215l68 -481l276 481h217l-163 -768h-177l91 424l-146 -258l-92 -166h-135l-45 422l-90 -422h-183z" />
<glyph unicode="&#xe000;" horiz-adv-x="1024" d="M0 0v1024h1024v-1024h-1024z" />
<glyph unicode="&#xfb01;" horiz-adv-x="1347" d="M238 0l151 717h-115l66 307h115l16 84q34 156 129 241t240 85h215l-64 -299h-108q-72 0 -86 -66l-9 -45h238l-65 -307h-238l-152 -717h-333zM940 0l217 1024h334l-217 -1024h-334zM1200 1231q15 68 75.5 118t129.5 50q68 0 107 -50.5t24 -117.5q-13 -68 -74 -118 t-129 -50q-69 0 -108 49.5t-25 118.5z" />
<glyph unicode="&#xfb02;" horiz-adv-x="1406" d="M238 0l151 717h-115l66 307h115l16 84q34 156 129 241t240 85h215l-64 -299h-108q-72 0 -86 -66l-9 -45h238l-65 -307h-238l-152 -717h-333zM995 0l303 1434h334l-303 -1434h-334z" />
</font>
</defs>
</svg>
