<?xml version="1.0" standalone="no"?>
<!DOCTYPE svg PUBLIC "-//W3C//DTD SVG 1.1//EN" "http://www.w3.org/Graphics/SVG/1.1/DTD/svg11.dtd" >
<svg xmlns="http://www.w3.org/2000/svg">
<metadata></metadata>
<defs>
<font id="nanamiheavy_oblique" horiz-adv-x="1228" >
<font-face units-per-em="2048" ascent="1536" descent="-512" />
<missing-glyph horiz-adv-x="593" />
<glyph horiz-adv-x="2048" />
<glyph horiz-adv-x="2048" />
<glyph unicode="&#xd;" horiz-adv-x="2048" />
<glyph unicode=" "  horiz-adv-x="593" />
<glyph unicode="&#x09;" horiz-adv-x="593" />
<glyph unicode="&#xa0;" horiz-adv-x="593" />
<glyph unicode="!" horiz-adv-x="491" d="M94 170q15 73 81.5 126.5t139.5 53.5q75 0 117 -53t27 -127q-15 -71 -80 -124.5t-139 -53.5q-72 0 -116.5 54t-29.5 124zM145 403l238 1119h362l-237 -1119h-363z" />
<glyph unicode="&#x22;" horiz-adv-x="806" d="M244 850l133 633h315l-133 -633h-315zM596 850l133 633h318l-134 -633h-317z" />
<glyph unicode="#" horiz-adv-x="1296" d="M106 373l62 282h281l36 103h-237l59 282h275l139 381h293l-140 -381h62l135 381h291l-135 -381h239l-59 -282h-279q-9 -33 -20 -56q-5 -10 -16 -47h237l-61 -282h-275l-131 -373h-287l123 373h-59l-127 -373h-289l123 373h-240zM741 655h60l37 103h-60z" />
<glyph unicode="$" horiz-adv-x="987" d="M104 336l336 137q0 -45 21 -70q34 -51 84 -51h10q33 0 61 24.5t37 59.5q5 36 -0.5 61t-24.5 41t-39.5 24.5t-58.5 19.5q-157 57 -233 171t-41 279q37 177 138 291t259 150l39 182h322l-41 -197q157 -67 180 -241l-367 -154l-16 41q-2 20 -53 20q-26 0 -51 -24.5 t-31 -55.5q-4 -22 4 -40t28 -32.5t36 -23.5t42 -20l25 -13q169 -86 233 -193t27 -284q-30 -142 -130 -255t-234 -165l-39 -190h-322l37 176q-128 35 -196 119.5t-42 212.5z" />
<glyph unicode="%" horiz-adv-x="1714" d="M279 1100q34 158 171.5 270.5t297.5 112.5q104 0 182.5 -51.5t112.5 -139.5t12 -192q-34 -158 -172 -270.5t-297 -112.5q-160 0 -250.5 112.5t-56.5 270.5zM406 100l1032 1436l190 -106l-1046 -1455zM573 1100q-9 -39 13 -67.5t61 -28.5q37 0 69.5 28t41.5 68 q7 41 -13 68.5t-57 27.5q-39 0 -73.5 -28t-41.5 -68zM946 383q34 158 172 270.5t297 112.5q160 0 250.5 -112.5t56.5 -270.5t-171.5 -270.5t-297.5 -112.5q-104 0 -182.5 51.5t-112.5 139.5t-12 192zM1243 383q-7 -40 13 -67t57 -27q39 0 73 27.5t41 66.5q9 41 -12.5 68.5 t-60.5 27.5q-37 0 -69.5 -27.5t-41.5 -68.5z" />
<glyph unicode="&#x26;" horiz-adv-x="1411" d="M147 451q49 231 287 393q-86 112 -49 276q32 153 175 266t302 113q156 0 245.5 -112.5t57.5 -266.5q-40 -185 -217 -307l37 -45l172 229l285 -153l-244 -326l238 -274l-254 -250l-207 221q-86 -109 -200 -169t-245 -60q-130 0 -228 62t-140 169t-15 234zM502 459 q-12 -55 16.5 -92t81.5 -37q63 0 145 110l-49 64l-4 4q-35 35 -47 53l-33 41q-96 -72 -110 -143zM729 1114q-8 -35 6 -63q1 -6 13 -29l12 8l18 17q13 10 26.5 29.5t16.5 33.5q4 22 -7 34.5t-30 12.5q-45 0 -55 -43z" />
<glyph unicode="'" horiz-adv-x="446" d="M240 844l135 639h321l-135 -639h-321z" />
<glyph unicode="(" horiz-adv-x="653" d="M160 362l143 676q69 320 371 525l182 -267q-94 -79 -129.5 -142.5t-62.5 -180.5l-115 -547q-27 -100 -18 -174.5t71 -147.5l-295 -264q-214 198 -147 522z" />
<glyph unicode=")" horiz-adv-x="655" d="M100 104q94 77 130 142t61 180l115 547q27 107 18 175t-70 150l297 265q215 -208 146 -525l-144 -676q-33 -160 -128 -292.5t-240 -229.5z" />
<glyph unicode="*" horiz-adv-x="890" d="M227 922l45 208h152q-49 49 -90 105l184 151q11 -6 24 -20.5t31.5 -39t26.5 -34.5v2l2 -2l23 140h231l-29 -138l115 99l123 -156l-125 -104l143 4l-45 -215q-5 0 -44 1t-58 1q-35 2 -45 2q16 -23 46.5 -57.5t41.5 -43.5l-193 -157q-35 35 -57 71q-5 8 -6.5 12.5t-1.5 5.5 t-1.5 3t-6.5 8l-29 -139h-227l32 137l-116 -100l-125 157l131 99h-152z" />
<glyph unicode="+" horiz-adv-x="1071" d="M88 358l68 320h354l74 346h321l-74 -346h359l-68 -316h-358l-74 -352h-321l73 348h-354z" />
<glyph unicode="," horiz-adv-x="417" d="M61 266l332 64l-41 -441l-262 -34z" />
<glyph unicode="-" horiz-adv-x="829" d="M147 422l68 315h696l-67 -315h-697z" />
<glyph unicode="." horiz-adv-x="419" d="M74 150q13 63 71.5 113t130.5 50q65 0 101 -50.5t24 -112.5q-14 -65 -69.5 -111.5t-122.5 -46.5q-74 0 -111.5 46t-23.5 112z" />
<glyph unicode="/" horiz-adv-x="604" d="M-10 43l727 1458l203 -67l-517 -1035l-215 -428z" />
<glyph unicode="0" d="M186 504l109 510q29 138 124 258t232 192t279 72q143 0 249.5 -72t151 -192t15.5 -258l-109 -510q-29 -138 -124.5 -257.5t-232.5 -191t-280 -71.5q-142 0 -248.5 71.5t-150.5 191t-15 257.5zM561 508q-12 -62 22 -109t95 -47q62 0 116 47t66 109l107 502 q14 64 -19.5 110.5t-95.5 46.5q-61 0 -115.5 -47t-68.5 -110z" />
<glyph unicode="1" d="M526 0l248 1169h-221l76 351h594l-322 -1520h-375z" />
<glyph unicode="2" d="M141 0l60 285l669 573q97 84 115 170q12 56 -24 102t-97 46q-139 0 -278 -154l-170 248q240 266 524 266q211 0 328 -141t73 -346q-45 -213 -251 -379l-369 -303h483l-78 -367h-985z" />
<glyph unicode="3" d="M205 215l225 279q54 -79 116.5 -118.5t119.5 -39.5q78 0 135.5 45t72.5 115q14 65 -34 114.5t-142 53.5l-120 6l59 278l57 6q94 7 150.5 48.5t68.5 103.5q10 45 -15 74.5t-71 29.5q-95 0 -231 -110l-88 278q95 75 206.5 120.5t223.5 45.5q183 0 272.5 -108t53.5 -275 q-35 -165 -191 -291q200 -146 146 -405q-30 -140 -121.5 -250.5t-218 -169.5t-263.5 -59q-138 0 -245 62t-166 167z" />
<glyph unicode="4" d="M141 260l72 334l387 457l395 469h351l-195 -914h131l-72 -344h-131l-55 -262h-377l53 260h-559zM645 608h131l47 226q-19 -25 -81 -102t-97 -124z" />
<glyph unicode="5" d="M186 152l232 292q60 -53 116.5 -79.5t127.5 -26.5q77 0 146 51.5t87 136.5q14 70 -30 126.5t-130 56.5q-89 0 -178 -47l-233 124l256 734h766l-76 -363h-492l-43 -121q69 11 146 11q93 0 172.5 -40.5t131 -111.5t72 -168t-5.5 -211q-29 -141 -127 -263.5t-239.5 -195.5 t-290.5 -73q-139 0 -246.5 48.5t-161.5 119.5z" />
<glyph unicode="6" d="M170 524q33 153 133 275l631 743l270 -203l-266 -305q181 -43 273 -179t51 -331q-31 -148 -130.5 -272.5t-241 -196t-290.5 -71.5q-148 0 -258 71.5t-156.5 196t-15.5 272.5zM547 524q-17 -75 20 -123.5t111 -48.5q75 0 132.5 48.5t74.5 123.5q15 76 -22 125t-111 49 q-73 0 -131.5 -49.5t-73.5 -124.5z" />
<glyph unicode="7" d="M227 129l650 1030h-482l76 361h934l-51 -240l-811 -1296z" />
<glyph unicode="8" d="M201 506q21 100 83 194t144 160q-65 105 -37 236q25 118 107 219.5t197.5 161t234.5 59.5q120 0 209.5 -59.5t127.5 -161t13 -219.5q-24 -118 -137 -234q51 -68 75 -163t3 -193q-29 -138 -122.5 -258t-227 -192t-271.5 -72t-240.5 72t-145 192t-13.5 258zM565 498 q-12 -62 20.5 -105t92.5 -43t111 43.5t63 104.5q13 61 -20 104t-93 43t-110 -42.5t-64 -104.5zM760 1104q-7 -35 10 -59.5t49 -24.5t60.5 24.5t35.5 59.5q7 34 -11 57t-50 23t-59 -23t-35 -57z" />
<glyph unicode="9" d="M270 993q31 149 130.5 274t240.5 197t289 72q149 0 259.5 -72t157 -197t15.5 -274q-31 -146 -135 -272l-645 -762l-275 201l285 323q-182 44 -273 181t-49 329zM647 993q-17 -74 20.5 -123t110.5 -49q74 0 132 49t75 123q15 77 -22 126.5t-111 49.5t-132 -50t-73 -126z " />
<glyph unicode=":" horiz-adv-x="434" d="M82 150q13 63 72 113t131 50q65 0 101 -50.5t24 -112.5q-14 -65 -70 -111.5t-123 -46.5q-74 0 -111.5 46t-23.5 112zM219 795q15 72 71.5 117.5t131.5 45.5q68 0 104 -46t21 -117q-14 -65 -70 -111.5t-123 -46.5q-74 0 -111.5 46t-23.5 112z" />
<glyph unicode=";" horiz-adv-x="421" d="M76 266l332 64l-41 -441l-263 -34zM205 799q15 67 71 114.5t123 47.5q71 0 108.5 -47.5t22.5 -114.5q-14 -66 -70.5 -112t-127.5 -46q-67 0 -104 46.5t-23 111.5z" />
<glyph unicode="&#x3c;" horiz-adv-x="1241" d="M106 403l48 230l1130 426l47 -238l-805 -307l672 -301l-139 -244z" />
<glyph unicode="=" horiz-adv-x="1105" d="M102 160l68 315h950l-67 -315h-951zM180 524l68 316h950l-68 -316h-950z" />
<glyph unicode="&#x3e;" horiz-adv-x="1241" d="M66 213l798 301l-674 307l146 238l950 -426l-51 -230l-1137 -434z" />
<glyph unicode="?" horiz-adv-x="866" d="M274 1188q19 77 93 150.5t173.5 119t190.5 45.5q183 0 279 -102.5t59 -278.5q-14 -65 -42.5 -118t-72 -93.5t-74 -62.5t-81.5 -53q-55 -34 -83.5 -58.5t-33.5 -50.5q-20 -90 20 -221l-352 -121q-28 59 -42 147t-1 154q14 62 47 115.5t70 88.5t92 75t80.5 59.5t58.5 54.5 t39 62q7 41 -28 41q-33 0 -78 -64zM322 170q15 73 81.5 126.5t137.5 53.5q77 0 118.5 -53t26.5 -127q-15 -72 -79.5 -125t-141.5 -53q-71 0 -114.5 54t-28.5 124z" />
<glyph unicode="@" horiz-adv-x="1712" d="M190 444.5q-20 113.5 9 253.5q29 136 100 260.5t172 222t223.5 169.5t261.5 110.5t279 38.5q107 0 204.5 -25t178.5 -74.5t135 -123t74 -171.5t-6 -220q-58 -280 -305 -463q-54 -34 -86 -49l79 -156q-342 -231 -657 -231q-124 0 -234.5 29t-200.5 87t-148.5 143.5 t-78.5 199zM442 682q-27 -131 23 -237t162 -166t264 -60q287 0 539 154q-123 -60 -232 -60q-138 0 -180 76q-100 -76 -230 -76q-149 0 -209.5 84t-27.5 238q31 142 114 257t194 178t226 63q117 0 177 -60l8 14q6 18 6 21h240l-242 -530q-14 -28 -14 -33q0 -8 12 -8 q64 0 143 71q123 103 158 277q36 170 -71 273.5t-328 103.5q-163 0 -318 -74.5t-267 -208.5t-147 -297zM813 635q-22 -117 55 -117q44 0 95.5 44.5t85.5 109.5l61 131q0 4 4 8l8 35q9 42 -8.5 63t-52.5 21q-75 0 -148.5 -87.5t-99.5 -207.5z" />
<glyph unicode="A" horiz-adv-x="1572" d="M23 0l942 1536h276l285 -1536h-404l-61 264h-457q-10 -15 -75 -114t-95 -150h-411zM821 625h174q-5 28 -13 68t-14.5 75t-11.5 72z" />
<glyph unicode="B" horiz-adv-x="1112" d="M70 0l325 1534h477q73 0 134.5 -24t103 -66t69.5 -98q29 -54 33 -118q1 -17 1 -35q0 -47 -9 -97q-28 -139 -114 -244q84 -102 84 -242q0 -55 -13 -116q-28 -132 -117 -244.5t-215.5 -179.5t-261.5 -70h-497zM537 379h100q49 0 89.5 37t51.5 90q3 16 3 31q0 33 -17 59 q-25 36 -74 37h-100zM664 979h65q38 4 63 28.5t31 55.5q2 10 2 18q0 23 -12 43q-16 26 -55 31h-58z" />
<glyph unicode="C" horiz-adv-x="1368" d="M191 522q-4 39 -4 79q0 81 16 167q34 159 126.5 304t219.5 249.5t285.5 166.5t318.5 62q80 0 153 -15t120.5 -35t90.5 -47.5t61 -43.5t34 -33l4 -4l-301 -303q-47 47 -111 75q-62 28 -125 27h-4q-167 -3 -308.5 -121.5t-176.5 -281.5q-9 -42 -9 -83q1 -57 19 -111 q30 -90 105.5 -147t179.5 -62h17q153 0 286 100l174 -301q-22 -18 -60 -41.5t-108 -58t-169.5 -57.5t-203.5 -23q-128 0 -239.5 40.5t-191.5 112t-133.5 170.5t-65.5 215z" />
<glyph unicode="D" horiz-adv-x="1425" d="M72 0l325 1534h525q106 0 200.5 -28t167.5 -78.5t130 -120.5t87 -155q31 -86 39 -183q2 -25 2 -51q0 -73 -18 -150q-32 -154 -123 -296t-215.5 -245.5t-281 -165t-314.5 -61.5h-524zM539 379h137q168 0 300 109.5t167 279.5q12 53 12 101q0 103 -56 177q-81 108 -249 109 h-148z" />
<glyph unicode="E" horiz-adv-x="1044" d="M70 0l325 1534h901l-82 -379h-514l-41 -194h515l-80 -379h-514l-43 -203h514l-80 -379h-901z" />
<glyph unicode="F" horiz-adv-x="991" d="M70 0l325 1534h901l-82 -379h-514l-41 -194h515l-80 -379h-514l-123 -582h-387z" />
<glyph unicode="G" horiz-adv-x="1505" d="M196 518q-4 38 -4 77q0 81 17 169q34 159 126.5 304.5t219 251t284.5 168t318 62.5q100 0 188 -21t146.5 -53.5t89.5 -55.5t51 -44l4 -4l-301 -303q-48 44 -120 73t-138 29q-164 0 -306 -120t-177 -287q-11 -50 -11 -95q0 -108 61 -189q86 -115 261 -115q70 0 134 17.5 t94 47.5l16 80h-322l76 352h723l-72 -340l-49 -229q-116 -130 -294 -219.5t-386 -89.5q-128 0 -239.5 40t-191.5 111t-133 169t-65 214z" />
<glyph unicode="H" horiz-adv-x="1300" d="M74 0l325 1534h387l-122 -578h366l123 578h387l-326 -1534h-387l123 580h-366l-123 -580h-387z" />
<glyph unicode="I" horiz-adv-x="520" d="M66 0l325 1534h387l-325 -1534h-387z" />
<glyph unicode="J" horiz-adv-x="929" d="M59 223l373 191q13 -52 55 -52q25 0 46.5 20t27.5 48l236 1104h387l-236 -1104q-25 -121 -106 -223.5t-196.5 -162.5t-237.5 -60q-126 0 -220 63.5t-129 175.5z" />
<glyph unicode="K" horiz-adv-x="1216" d="M70 0l325 1534h387l-102 -483l393 483h451l-637 -772l321 -762h-463l-188 479l-100 -479h-387z" />
<glyph unicode="L" horiz-adv-x="942" d="M68 0l325 1534h387l-245 -1155h456l-80 -379h-843z" />
<glyph unicode="M" horiz-adv-x="1720" d="M72 0l325 1534h455l125 -899l518 899h461l-326 -1534h-387l154 727q-188 -339 -221 -395l-185 -332h-297l-78 711l-149 -711h-395z" />
<glyph unicode="N" horiz-adv-x="1400" d="M70 0l325 1534h375l313 -803l172 803h385l-325 -1534h-371l-317 801l-170 -801h-387z" />
<glyph unicode="O" horiz-adv-x="1679" d="M209 764q34 159 126.5 304.5t219 251t284.5 168t318 62.5q129 0 241 -40.5t192 -112t133.5 -170t65.5 -215.5q4 -38 4 -77q0 -82 -17 -171q-34 -159 -127 -304t-220 -251t-286.5 -169t-319.5 -63q-213 0 -371 107q-156 106 -222 287q-39 107 -39 225q0 82 18 168z M596 764q-10 -47 -9 -89q1 -111 65 -197q90 -118 253 -118q166 0 307.5 118.5t176.5 285.5q10 47 10 90q0 112 -66 198q-91 120 -256 119q-163 0 -304.5 -120t-176.5 -287z" />
<glyph unicode="P" horiz-adv-x="1052" d="M68 0l325 1534h496q135 0 229.5 -64t130.5 -174q20 -62 20 -131q0 -54 -12 -112q-43 -205 -207 -347.5t-368 -142.5h-109l-118 -563h-387zM653 940h109q42 0 71 37.5t37 75.5q2 11 2 21q0 24 -10 48q-14 34 -55 33h-109z" />
<glyph unicode="Q" horiz-adv-x="1685" d="M197 522q-4 38 -4 79q0 80 16 167q34 159 126.5 304t219 249.5t284.5 166.5t318 62q129 0 241 -40t192 -111t133.5 -169t65.5 -214q4 -38 4 -78q0 -81 -17 -170q-53 -248 -224 -440l78 -125l-340 -260l-96 120q-170 -79 -369 -79q-128 0 -239.5 40.5t-191 112t-132.5 170 t-65 215.5zM596 768q-10 -47 -10 -89q0 -111 66 -196q90 -118 253 -118q43 0 80 6l-49 92l328 239l61 -90q46 72 64 156q10 47 10 89q0 111 -65 196q-91 118 -257 118q-163 0 -304.5 -118t-176.5 -285z" />
<glyph unicode="R" horiz-adv-x="1142" d="M70 0l325 1534h527q135 0 228 -67q94 -67 128 -179q19 -62 19 -130q0 -56 -13 -116q-28 -127 -102.5 -232.5t-184.5 -168.5l213 -641h-424l-176 543h-41l-114 -543h-385zM649 920h133q43 0 73.5 38t41.5 84q3 14 3 27q0 26 -12 50q-18 36 -61 36h-129z" />
<glyph unicode="S" horiz-adv-x="1032" d="M121 315l338 138q21 -49 44.5 -71t69.5 -22q45 0 75.5 23.5t39.5 67.5q4 17 4 32q0 35 -20 57q-28 32 -113 64q-161 60 -240 180q-55 84 -55 189q0 46 10 96q46 217 202.5 347t373.5 130q79 0 153 -31.5t129 -98.5t66 -156l-379 -158q-8 33 -28 48t-39 15 q-27 0 -53.5 -26.5t-32.5 -57.5q-5 -22 3 -41t30.5 -35.5t36 -24.5t42.5 -22l25 -12q179 -88 243 -198q40 -68 41 -165q0 -60 -16 -130q-40 -194 -202 -331.5t-353 -137.5q-232 0 -330 159q-48 81 -65 172z" />
<glyph unicode="T" horiz-adv-x="1079" d="M270 1155l82 379h1018l-82 -379h-319l-244 -1153h-387l244 1153h-312z" />
<glyph unicode="U" horiz-adv-x="1187" d="M156 451l231 1083h385l-223 -1045q-2 -12 -2 -23q0 -40 30 -68q39 -36 93 -36q51 0 96.5 34.5t62.5 88.5l224 1049h387l-232 -1083q-28 -133 -125 -241.5t-228 -167t-265 -58.5q-101 0 -190 35t-150.5 95.5t-87.5 148.5q-15 49 -15 102q0 42 9 86z" />
<glyph unicode="V" horiz-adv-x="1404" d="M332 1534h411l95 -834l448 834h420l-866 -1534h-291z" />
<glyph unicode="W" horiz-adv-x="1763" d="M322 1534h401l20 -647l301 647h310l22 -645l301 645h398l-738 -1534h-303l-26 637l-297 -637h-308z" />
<glyph unicode="X" horiz-adv-x="1427" d="M-4 0l637 762l-311 772h452l162 -399l330 399h452l-635 -772l318 -762h-457l-164 401l-331 -401h-453z" />
<glyph unicode="Y" horiz-adv-x="1255" d="M326 1534h428l90 -490l297 490h426l-635 -977l-117 -557h-385l117 557z" />
<glyph unicode="Z" horiz-adv-x="1103" d="M49 0l70 334l749 821h-587l81 379h1014l-78 -363l-688 -792h529l-80 -379h-1010z" />
<glyph unicode="[" horiz-adv-x="690" d="M10 -270l402 1876h559l-70 -328h-188l-260 -1223h188l-70 -325h-561z" />
<glyph unicode="\" horiz-adv-x="600" d="M283 1434l229 67l113 -1458l-232 -72l-35 428z" />
<glyph unicode="]" horiz-adv-x="688" d="M10 -270l70 325h188l260 1223h-188l70 328h559l-398 -1876h-561z" />
<glyph unicode="^" horiz-adv-x="1021" d="M193 805l526 690h207l221 -688l-295 -164l-127 406l-305 -408z" />
<glyph unicode="_" horiz-adv-x="1298" d="M-61 -248l49 236h1296l-49 -236h-1296z" />
<glyph unicode="`" horiz-adv-x="610" d="M301 1294l191 295l378 -182l-180 -289z" />
<glyph unicode="a" horiz-adv-x="1193" d="M152 308q-11 47 -11 96q0 52 13 108q30 142 127.5 264t234.5 193t279 71q121 0 206 -43l9 37h317l-221 -1038h-291l8 41q-112 -53 -252 -53q-106 0 -195.5 42t-144.5 114t-79 168zM514 512q-5 -23 -5 -43q1 -46 27 -82q38 -51 109 -51q73 0 132.5 50.5t76.5 125.5 q4 21 4 41q0 49 -26 85q-38 50 -111 50q-71 0 -131.5 -51t-75.5 -125z" />
<glyph unicode="b" horiz-adv-x="1165" d="M68 -2l303 1425h362l-86 -411q79 26 176 26q142 0 249 -71t153 -193q28 -74 28 -155q0 -53 -12 -109q-46 -216 -235 -371t-406 -155q-125 0 -231 53l-9 -39h-292zM541 510q-4 -21 -4 -41q1 -47 27 -83q38 -50 110 -50q71 0 131.5 50t75.5 124q5 22 5 42q0 47 -28 82 q-40 50 -110 50q-73 0 -131.5 -49.5t-75.5 -124.5z" />
<glyph unicode="c" horiz-adv-x="1095" d="M154 514q30 142 126 263t233.5 192t283.5 71q131 0 238 -70t157 -173l-326 -189q-19 20 -28 28.5t-28 22.5t-40 19.5t-47 5.5q-68 0 -127 -50t-74 -120q-4 -21 -5 -40q0 -48 28 -84q38 -50 106 -50q90 0 189 111l278 -162q-102 -139 -246.5 -222t-298.5 -83 q-146 0 -253.5 71t-151.5 193q-26 72 -27 151q0 56 13 115z" />
<glyph unicode="d" horiz-adv-x="1165" d="M119 510q31 143 129 264.5t235.5 191.5t280.5 70q106 0 164 -26l88 413h362l-303 -1427h-293l9 41q-119 -53 -250 -53q-143 0 -251 70t-154 192q-28 74 -29 156q0 52 12 108zM479 510q-4 -21 -4 -40q-1 -48 27 -84q38 -50 112 -50q72 0 131 49.5t74 124.5q5 23 5 44 q0 46 -26 80q-38 50 -110 50q-73 0 -132.5 -49.5t-76.5 -124.5z" />
<glyph unicode="e" horiz-adv-x="1110" d="M154 516q30 142 125.5 262.5t232.5 191t283 70.5q134 0 227.5 -69t128.5 -179q20 -62 20 -129q0 -52 -12 -106l-33 -156h-628q-2 -37 44 -76.5t134 -39.5q72 0 135 16q64 18 133 53l88 -227q-128 -76 -228.5 -109.5t-232.5 -33.5q-146 0 -252.5 71.5t-150.5 193.5 q-26 73 -26 153q0 55 12 114zM561 631h277q1 6 1 13q0 27 -24 54q-30 33 -90 33q-58 0 -101 -30t-63 -70z" />
<glyph unicode="f" horiz-adv-x="776" d="M139 0l148 694h-117l70 330h116l15 66q33 157 128.5 244t243.5 87h248l-67 -321h-144q-46 0 -55 -49l-6 -27h239l-69 -330h-240l-147 -694h-363z" />
<glyph unicode="g" horiz-adv-x="1187" d="M102 -295l277 242q67 -64 147 -64q64 0 116 33t83 86q-56 -16 -152 -16q-86 0 -161.5 27t-129.5 75.5t-90.5 115t-45.5 144.5q-2 28 -2 56q0 53 10 110q30 142 127.5 263.5t235 192t280.5 70.5q131 0 229 -53l8 39h293l-186 -872q-35 -166 -133 -302t-245 -217t-314 -81 q-105 0 -195 39.5t-152 111.5zM514 514q-5 -23 -5 -43q0 -47 27 -81q39 -50 113 -50q72 0 130 49.5t75 124.5q4 22 4 41q0 48 -26 83q-37 50 -109 50q-74 0 -134 -49.5t-75 -124.5z" />
<glyph unicode="h" horiz-adv-x="1038" d="M68 0l303 1427h362l-86 -397q44 8 105 8q222 0 319 -120q66 -81 66 -207q0 -60 -15 -131l-123 -580h-364l121 575q3 12 3 24q0 29 -17 51q-23 32 -66 32t-79.5 -31.5t-45.5 -75.5l-121 -575h-362z" />
<glyph unicode="i" horiz-adv-x="485" d="M57 0l217 1024h363l-217 -1024h-363zM317 1229q15 72 81.5 125t140.5 53q73 0 115 -53q31 -39 32 -89q0 -17 -4 -36q-15 -72 -80 -125t-139 -53q-73 0 -117 53q-32 39 -33 89q0 18 4 36z" />
<glyph unicode="j" horiz-adv-x="610" d="M-43 -446l70 342q30 7 100 16q37 5 45 45l227 1067h363l-248 -1161q-18 -86 -62 -149.5t-100.5 -96.5t-111.5 -48t-109 -15h-174zM428 1229q15 72 80.5 125t140.5 53q72 0 115 -53q33 -39 33 -89q0 -18 -4 -36q-15 -72 -81.5 -125t-138.5 -53q-75 0 -117 53 q-32 39 -32 89q0 17 4 36z" />
<glyph unicode="k" horiz-adv-x="978" d="M68 0l301 1421h362l-135 -633l201 236h409l-430 -508q11 -24 78 -192q110 -267 139 -324h-407l-105 248l-51 -248h-362z" />
<glyph unicode="l" horiz-adv-x="491" d="M61 0l301 1421h363l-301 -1421h-363z" />
<glyph unicode="m" horiz-adv-x="1669" d="M72 0l217 1024h282l-6 -25q82 41 193 41q173 0 268 -77q130 77 301 77q223 0 320 -119q66 -81 66 -208q0 -60 -15 -131l-123 -582h-363l121 578q3 13 3 24q0 29 -18 51q-24 31 -67 31q-39 0 -74 -28t-49 -70l-122 -586h-365l121 578q3 13 3 25q-1 28 -17 50 q-24 31 -66 31q-39 0 -74 -28t-49 -70l-123 -586h-364z" />
<glyph unicode="n" horiz-adv-x="1077" d="M68 0l217 1024h282l-6 -25q82 41 193 41q222 0 319 -120q66 -81 66 -207q0 -60 -15 -131l-123 -582h-364l121 578q3 13 3 25q-1 28 -17 50q-24 31 -66 31q-39 0 -75 -28.5t-48 -69.5l-123 -586h-364z" />
<glyph unicode="o" horiz-adv-x="1169" d="M154 514q30 143 125.5 263.5t233 191.5t284.5 71q108 0 197.5 -41.5t144 -113t77.5 -167.5q11 -46 11 -95q0 -53 -13 -109q-31 -144 -127.5 -266t-233 -193t-280.5 -71q-147 0 -254.5 71t-151.5 193q-26 72 -26 151q0 55 13 115zM518 514q-4 -21 -4 -40q0 -46 26 -82 q38 -50 109 -50q68 0 128 49.5t75 122.5q4 19 4 37q0 47 -28 83q-39 50 -107 50q-70 0 -129 -49.5t-74 -120.5z" />
<glyph unicode="p" horiz-adv-x="1165" d="M-16 -408l303 1434h293l-9 -41q125 53 252 53q142 0 249.5 -70.5t153.5 -191.5q29 -74 29 -156q0 -52 -12 -108q-46 -216 -236 -371t-407 -155q-108 0 -166 26l-90 -420h-360zM543 512q-5 -23 -5 -44q0 -46 26 -80q38 -50 112 -50q71 0 130.5 49.5t76.5 124.5q4 21 4 40 q0 49 -27 84q-39 50 -110 50q-74 0 -133 -49.5t-74 -124.5z" />
<glyph unicode="q" horiz-adv-x="1165" d="M147 512q46 216 235 371t406 155q126 0 232 -53l8 41h293l-305 -1434h-363l90 420q-82 -26 -178 -26q-142 0 -249 70.5t-153 191.5q-28 74 -28 155q0 53 12 109zM508 512q-5 -22 -5 -42q0 -47 27 -82q40 -50 111 -50q73 0 131.5 49.5t75.5 124.5q4 21 4 41q0 48 -26 83 q-38 50 -111 50q-71 0 -131.5 -50t-75.5 -124z" />
<glyph unicode="r" horiz-adv-x="733" d="M66 0l217 1026h282l-6 -27q93 37 219 37h13q65 0 143 -12l-74 -340h-170q-50 0 -90.5 -33t-52.5 -88l-119 -563h-362z" />
<glyph unicode="s" horiz-adv-x="763" d="M76 270l280 88q22 -61 66 -61q20 0 27 22q2 9 -10 20t-40 26q-16 8 -82 51q-71 53 -103 121q-19 40 -19 92q0 38 10 82q32 151 140.5 240t260.5 89q126 0 199 -74.5t76 -181.5l-295 -90q-3 15 -11.5 26t-17.5 11q-25 0 -31 -24q-3 -12 11.5 -23t58.5 -35q38 -22 47 -28 q86 -61 118 -135q19 -43 19 -97q0 -38 -10 -82q-28 -133 -145.5 -228t-251.5 -95q-100 0 -161 36.5t-89 88.5q-20 30 -33.5 78t-13.5 83z" />
<glyph unicode="t" horiz-adv-x="831" d="M158 694l69 330h219l56 266h362l-55 -266h215l-70 -330h-215l-147 -694h-363l148 694h-219z" />
<glyph unicode="u" horiz-adv-x="1075" d="M152 442l124 582h365l-123 -578q-3 -12 -3 -24q0 -29 17 -51q23 -31 66 -31q39 0 74.5 27.5t48.5 68.5l125 588h364l-219 -1026h-284l6 25q-88 -39 -191 -39q-222 0 -319 120q-66 81 -66 207q0 61 15 131z" />
<glyph unicode="v" horiz-adv-x="989" d="M205 1024h391l27 -360l188 360h387l-575 -1024h-277z" />
<glyph unicode="w" horiz-adv-x="1447" d="M215 1024h387l6 -375q70 141 185 377h274l33 -367l160 365h385l-496 -1024h-303l-47 406q-62 -109 -221 -406h-299z" />
<glyph unicode="x" horiz-adv-x="1073" d="M-16 0l434 512l-209 512h430l61 -195l144 195h428l-426 -512l221 -512h-442l-60 195l-139 -195h-442z" />
<glyph unicode="y" horiz-adv-x="1001" d="M45 -377q291 519 291 529l-121 872h393l27 -358l180 356h387l-780 -1407z" />
<glyph unicode="z" horiz-adv-x="884" d="M61 0l58 276l418 396h-334l76 352h755l-55 -254l-383 -418h295l-74 -352h-756z" />
<glyph unicode="{" horiz-adv-x="727" d="M145 535l62 284h110q125 0 168 193l50 233q31 144 68 214.5t124 119.5q95 49 297 49l-55 -262q-66 -7 -92.5 -39t-42.5 -113l-52 -235q-18 -84 -37 -135t-56 -95t-95 -73q57 -45 70.5 -120t-11.5 -181l-49 -234q-19 -78 -6 -112.5t72 -38.5l-56 -262q-195 0 -270 49 q-67 48 -75 128t24 204l49 235q40 182 -88 191h-109z" />
<glyph unicode="|" horiz-adv-x="452" d="M63 0l322 1520h324l-322 -1520h-324z" />
<glyph unicode="}" horiz-adv-x="727" d="M-18 -272l53 262q63 4 89 36t44 115l49 234q27 126 66 193t125 108q-59 44 -73 120.5t11 182.5l51 235q18 76 3 111t-78 41l55 262q205 0 278 -49q67 -50 76.5 -129t-22.5 -205l-50 -233q-43 -193 86 -193h109l-61 -284h-107q-130 -9 -170 -191l-49 -235 q-30 -140 -69 -212t-126 -120q-93 -49 -290 -49z" />
<glyph unicode="~" horiz-adv-x="1198" d="M152 444q25 116 134.5 204.5t262.5 88.5q13 0 26 -1t27 -4t25 -5.5t26 -8t23.5 -8.5t25.5 -10.5t23 -10t24.5 -11t22.5 -10.5l12 -6q5 -2 16 -8t16 -8.5l15 -7.5t15.5 -7.5t14 -6t14 -5t12.5 -3.5t13 -3t11 -1q39 0 97 54h-2l84 79l157 -157q-25 -114 -136.5 -202.5 t-264.5 -88.5q-80 0 -236 78q-84 47 -127 47q-27 0 -86 -47l-73 -76z" />
<glyph unicode="&#xa1;" horiz-adv-x="491" d="M59 -8l238 1120h362l-237 -1120h-363zM344 1343q15 72 81 125.5t138 53.5q75 0 118 -53.5t28 -125.5t-81 -125t-141 -53q-72 0 -115 53t-28 125z" />
<glyph unicode="&#xa2;" horiz-adv-x="1091" d="M137 514q35 168 159 302t292 190l41 192h323l-39 -178q89 -28 158 -88t105 -139l-320 -172l-29 41l-65 -308q42 33 82 84l260 -147q-79 -105 -186 -180.5t-220 -106.5l-34 -164h-324l37 178q-144 57 -211 189.5t-29 306.5zM469 514q-15 -70 6 -108l45 217 q-38 -38 -51 -109z" />
<glyph unicode="&#xa3;" horiz-adv-x="1212" d="M78 0l78 369h219q14 0 25 16t14 39q11 42 -54 184h-182l68 326h84q-4 31 6 72q44 212 215 352.5t383 140.5q229 0 356 -156l-332 -253q-31 38 -98 38q-52 0 -94 -32t-51 -76q-6 -38 2 -86h274l-67 -326h-136q25 -90 9 -170q-7 -30 -19 -67q96 3 117 90l6 24h356 q-29 -138 -119.5 -249.5t-219.5 -173.5t-271 -62h-569z" />
<glyph unicode="&#xa4;" horiz-adv-x="1368" d="M106 252l228 186q-46 109 -19 240q24 120 121 242l-147 190l227 188l152 -190q146 66 262 66q121 0 219 -66q42 30 119 96q56 49 110 92l150 -186l-228 -186q45 -118 19 -248q-26 -119 -117 -238l148 -186l-230 -189l-145 187q-122 -68 -266 -68q-115 0 -230 68 q-35 -28 -112 -93.5t-113 -93.5zM616 678q-19 -83 29 -144t131 -61q82 0 153.5 60t90.5 145q19 86 -27.5 147.5t-128.5 61.5q-83 0 -156 -61.5t-92 -147.5z" />
<glyph unicode="&#xa5;" horiz-adv-x="1126" d="M145 326l68 315h246l-8 41h-230l66 309h92l-109 529h412l92 -484l293 484h416l-336 -529h92l-65 -309h-228l-26 -41h243l-67 -315h-281l-67 -326h-383l67 326h-287z" />
<glyph unicode="&#xa6;" horiz-adv-x="448" d="M55 -25l146 689h323l-145 -689h-324zM240 840l143 682h324l-144 -682h-323z" />
<glyph unicode="&#xa7;" horiz-adv-x="1204" d="M25 -23l311 183q23 -48 84 -99t131 -51q30 0 56 13.5t32 37.5q5 25 -19 48.5t-52.5 37t-86.5 37.5v-2l-37 17l-28 12q-35 14 -63.5 28t-59 34t-51.5 42t-41 51t-27.5 62t-10.5 75t9 89q23 106 71 179.5t138 141.5q-24 41 -30 81.5t7 105.5q26 123 108.5 215t195 138 t239.5 46q61 0 127 -13t133 -39t117 -75t65 -112l-356 -203l-22 26q-52 68 -107 68q-33 0 -61 -21.5t-35 -54.5q-5 -24 22 -41t90 -43q59 -19 132 -55q28 -13 50.5 -24.5t48 -26.5t45.5 -29.5t40 -33.5t34 -38t25.5 -43t17 -49.5t5 -55.5t-7.5 -63q-23 -105 -85.5 -184 t-162.5 -153q36 -107 20 -183q-26 -120 -108 -211t-191 -135.5t-227 -44.5h-29q-232 0 -364 152q-53 67 -92 163zM567 623q-10 -48 45 -78h-2l189 -84q44 26 55 76q6 27 -16.5 49.5t-63.5 36.5l-160 67q-40 -31 -47 -67z" />
<glyph unicode="&#xa8;" horiz-adv-x="864" d="M332 1350q15 72 79 123t140 51q75 0 116.5 -51t26.5 -123q-17 -74 -81 -126.5t-138 -52.5q-76 0 -118 52.5t-25 126.5zM733 1350q15 72 79 123t138 51q75 0 117 -51t27 -123q-17 -74 -81 -126.5t-139 -52.5q-74 0 -116 53t-25 126z" />
<glyph unicode="&#xa9;" horiz-adv-x="1564" d="M188.5 488.5q-11.5 106.5 10.5 226.5q31 145 117 278.5t203.5 229.5t263 153.5t290.5 57.5q200 0 346.5 -97t206.5 -262t19 -360t-171.5 -360t-318 -262t-387.5 -97q-116 0 -218 37t-176 102.5t-124 156t-61.5 197zM414 715q-30 -140 12.5 -258t145 -186t241.5 -68 q214 0 397.5 149.5t229.5 362.5q29 140 -15.5 258.5t-149.5 187t-245 68.5q-139 0 -270.5 -68.5t-224 -187t-121.5 -258.5zM530 715q34 165 176 281t310 116q151 0 252 -94l-201 -195q-36 41 -104 41q-60 0 -112.5 -42.5t-64.5 -102.5q-13 -64 20 -108t93 -44q62 0 121 39 l121 -190q-141 -97 -293 -97q-168 0 -260.5 115.5t-57.5 280.5z" />
<glyph unicode="&#xaa;" horiz-adv-x="872" d="M268 1067q32 154 164.5 262.5t288.5 108.5q84 0 129 -25l4 14h244l-158 -737l-209 43q-78 -37 -168 -37q-156 0 -241.5 109t-53.5 262zM547 1067q-9 -43 13 -71.5t61 -28.5q43 0 75 28t41 72q9 42 -11 71t-62 29q-38 0 -73 -29.5t-44 -70.5z" />
<glyph unicode="&#xab;" horiz-adv-x="1060" d="M123 547l387 465l209 -197l-232 -264q22 -40 29 -57l94 -211l-309 -187zM580 547l387 465l209 -197l-232 -264q22 -39 27 -57l96 -211l-311 -187z" />
<glyph unicode="&#xac;" horiz-adv-x="1165" d="M133 559l66 315h1063l-154 -729h-322l88 414h-741z" />
<glyph unicode="&#xad;" horiz-adv-x="829" d="M147 422l68 315h696l-67 -315h-697z" />
<glyph unicode="&#xae;" horiz-adv-x="1640" d="M205 741q43 203 182.5 378t336.5 277.5t400 102.5q105 0 198.5 -27.5t165.5 -77t128 -119t85 -154t37 -181t-16 -199.5q-32 -152 -120.5 -291.5t-211 -241t-276.5 -162t-311 -60.5q-203 0 -356 102t-218.5 276t-23.5 377zM422 741q-31 -149 15 -274t155 -197.5t256 -72.5 q169 0 328 94h-234l-70 180l-36 -180h-252l194 913q-133 -72 -228.5 -194.5t-127.5 -268.5zM799 1217h284q137 0 198 -83.5t34 -213.5q-22 -102 -79 -174.5t-140 -100.5q30 -70 131 -321q108 75 184 184t102 233q32 148 -16 274t-159 198.5t-259 72.5q-139 0 -280 -69z M952 848h45q22 0 39 20.5t23 51.5q5 28 -2 46.5t-29 18.5h-45z" />
<glyph unicode="&#xaf;" horiz-adv-x="823" d="M299 1130l68 316h694l-68 -316h-694z" />
<glyph unicode="&#xb0;" horiz-adv-x="802" d="M270 1087q31 143 157 246t273 103t227.5 -103t49.5 -246q-31 -145 -155 -247.5t-271 -102.5q-148 0 -230 102.5t-51 247.5zM510 1087q-9 -50 17 -84t73 -34q48 0 89 34.5t50 83.5q10 49 -16 83t-74 34q-47 0 -88 -34t-51 -83z" />
<glyph unicode="&#xb1;" horiz-adv-x="1183" d="M41 12l65 314h1088l-66 -314h-1087zM145 508l68 315h383l45 209h322l-45 -209h382l-67 -315h-383l-37 -180h-321l36 180h-383z" />
<glyph unicode="&#xb2;" horiz-adv-x="778" d="M209 582l59 272q84 74 320 250l76 57q26 20 32 45q5 25 -6.5 41.5t-34.5 16.5q-18 0 -37 -16.5t-32 -43.5l-238 88q55 103 155.5 169.5t207.5 66.5q135 0 210.5 -95t47.5 -227q-28 -129 -156 -233q-66 -53 -174 -129h256l-55 -262h-631z" />
<glyph unicode="&#xb3;" horiz-adv-x="724" d="M219 868l252 35q0 -30 14.5 -47.5t40.5 -17.5q24 0 44.5 19.5t27.5 49.5q9 28 3.5 54t-34.5 34q-15 10 -51 13q-16 2 -72 2l39 182l45 8q73 17 80 51q1 6 -3.5 11.5t-10.5 5.5q-17 0 -43 -23l-158 144q53 64 124.5 101.5t141.5 37.5q108 0 169 -77t38 -183 q-14 -69 -59 -127q90 -97 61 -244q-29 -132 -146.5 -229t-250.5 -97q-82 0 -142.5 36.5t-90.5 99.5q-31 66 -19 161z" />
<glyph unicode="&#xb4;" horiz-adv-x="610" d="M326 1407l452 182l68 -295l-463 -176z" />
<glyph unicode="&#xb6;" horiz-adv-x="1222" d="M242 1042q18 89 58 156t92.5 109t124.5 68t146.5 36t165.5 10h607l-385 -1812h-322l318 1497h-60l-317 -1497h-324l225 1065q-201 9 -283 103.5t-46 264.5z" />
<glyph unicode="&#xb7;" horiz-adv-x="411" d="M197 743q13 64 71.5 115t130.5 51q65 0 101 -51t24 -115q-14 -64 -69.5 -109.5t-122.5 -45.5q-73 0 -111 45.5t-24 109.5z" />
<glyph unicode="&#xb8;" horiz-adv-x="565" d="M-12 -281l141 115q29 -22 55 -22q8 0 13.5 4.5t5.5 9.5q0 3 -60 12l-20 2l-41 78l100 131h238l-31 -39q121 -41 88 -184q-15 -72 -70.5 -126t-117.5 -77.5t-119 -23.5q-74 0 -133 55l-2 -2q-30 26 -47 67z" />
<glyph unicode="&#xb9;" horiz-adv-x="485" d="M268 596l144 670h-131l53 254h403l-196 -924h-273z" />
<glyph unicode="&#xba;" horiz-adv-x="845" d="M268 1069q32 153 164.5 261t290.5 108q156 0 240.5 -108t52.5 -261q-32 -154 -163.5 -263.5t-287.5 -109.5q-157 0 -243 109t-54 264zM549 1069q-7 -41 14.5 -69.5t59.5 -28.5q39 0 72 28.5t40 69.5q9 40 -12 68t-59 28t-72 -28t-43 -68z" />
<glyph unicode="&#xbb;" horiz-adv-x="1060" d="M66 283l186 211l51 57q-22 45 -63 136.5t-58 127.5l295 197l187 -463l-369 -453zM522 283l187 211l51 57q-22 45 -63 136.5t-58 127.5l295 197l186 -463l-368 -453z" />
<glyph unicode="&#xbc;" horiz-adv-x="1746" d="M332 518l162 760h-142l54 240h397l-213 -1000h-258zM494 61l731 1457l200 -68l-514 -1034l-217 -426zM965 168l47 225l252 299l186 219h-2l74 88h241l-125 -593h84l-51 -236h-84l-35 -170h-258l35 168h-364zM1313 408h67l25 116q-44 -53 -92 -116z" />
<glyph unicode="&#xbd;" horiz-adv-x="1818" d="M334 518l162 760h-144l54 240h399l-213 -1000h-258zM496 61l729 1457l202 -68l-516 -1034l-217 -426zM1047 0l53 268l39 31q228 198 336 279l53 38q38 34 45 62q7 33 -11 56.5t-49 23.5q-53 0 -92 -72l-225 82q57 108 159 174t212 66q140 0 216.5 -96t47.5 -234 q-27 -130 -160 -238l-20 -18q-141 -117 -219 -174h313l-51 -248h-647z" />
<glyph unicode="&#xbe;" horiz-adv-x="1828" d="M199 801l245 30q3 -38 20 -60.5t44 -22.5q32 0 60 30t36 70q9 36 -6.5 66.5t-44.5 39.5h2q-30 9 -66 13q-10 2 -45 2l39 182q36 13 45 18q3 3 39 23l23 12q25 16 31 43q2 9 -3 17t-12 8q-3 0 -9 -4.5t-18.5 -14t-21.5 -16.5l-168 137q127 144 268 144q109 0 172 -76 t39 -189q-21 -86 -75 -149q46 -49 66 -121.5t3 -146.5q-19 -90 -80 -167.5t-148.5 -124t-178.5 -46.5q-82 0 -143 37t-95 100q-40 68 -18 166zM584 61l729 1457l203 -68l-515 -1034l-217 -426zM1055 168l47 225l252 299l186 219h-2l74 88h239l-125 -593h86l-51 -236h-86 l-35 -170h-258l35 168h-362zM1401 408h67l25 116z" />
<glyph unicode="&#xbf;" horiz-adv-x="866" d="M106 371q14 65 43 118.5t72 94t75.5 63.5t82.5 53q106 65 115 107q7 27 -7 129q-2 11 -22 102l366 121q31 -39 47.5 -134.5t0.5 -174.5q-10 -47 -32.5 -87.5t-59.5 -77t-64 -58t-74 -56.5h2q-49 -36 -74 -56t-50.5 -53t-32.5 -67q-8 -35 14 -35q2 0 37 27l41 31l309 -113 q-16 -74 -86 -147.5t-167.5 -119.5t-188.5 -46q-185 0 -284.5 102.5t-62.5 276.5zM489 1323q15 72 81.5 126t142.5 54q72 0 114 -54t27 -126t-81 -125t-138 -53q-77 0 -119 52.5t-27 125.5z" />
<glyph unicode="&#xc0;" horiz-adv-x="1572" d="M23 0l942 1536h276l285 -1536h-404l-61 264h-457q-10 -15 -75 -114t-95 -150h-411zM821 625h174q-5 28 -13 68t-14.5 75t-11.5 72zM874 1735l191 295l379 -183l-180 -288z" />
<glyph unicode="&#xc1;" horiz-adv-x="1572" d="M23 0l942 1536h276l285 -1536h-404l-61 264h-457q-10 -15 -75 -114t-95 -150h-411zM821 625h174q-5 28 -13 68t-14.5 75t-11.5 72zM899 1847l453 183l67 -295l-463 -176z" />
<glyph unicode="&#xc2;" horiz-adv-x="1572" d="M23 0l942 1536h276l285 -1536h-404l-61 264h-457q-10 -15 -75 -114t-95 -150h-411zM821 625h174q-5 28 -13 68t-14.5 75t-11.5 72zM834 1858l368 143l309 -141l-188 -291l-193 90q-142 -55 -218 -85q-8 -3 -10 -4l-3 -1z" />
<glyph unicode="&#xc3;" horiz-adv-x="1572" d="M23 0l942 1536h276l285 -1536h-404l-61 264h-457q-10 -15 -75 -114t-95 -150h-411zM780 1737q31 101 108.5 161t174.5 60q43 0 111 -23.5t86 -23.5q55 0 126 65l144 -159q-34 -92 -117.5 -157t-169.5 -65q-40 0 -103 25t-96 25q-39 0 -90 -58zM821 625h174q-5 28 -13 68 t-14.5 75t-11.5 72z" />
<glyph unicode="&#xc4;" horiz-adv-x="1572" d="M23 0l942 1536h276l285 -1536h-404l-61 264h-457q-10 -15 -75 -114t-95 -150h-411zM772 1759q15 72 79 123t140 51q75 0 117 -51t27 -123q-17 -74 -81 -126t-139 -52q-76 0 -118 52t-25 126zM821 625h174q-5 28 -13 68t-14.5 75t-11.5 72zM1174 1759q15 72 79 123t138 51 q75 0 116.5 -51t26.5 -123q-17 -74 -80.5 -126t-138.5 -52q-74 0 -116 52.5t-25 125.5z" />
<glyph unicode="&#xc5;" horiz-adv-x="1572" d="M23 0l942 1536h276l285 -1536h-404l-61 264h-457q-10 -15 -75 -114t-95 -150h-411zM821 625h174q-5 28 -13 68t-14.5 75t-11.5 72zM930 1790q20 97 103.5 165t183.5 68q99 0 153.5 -68t34.5 -165q-22 -97 -106 -166.5t-183 -69.5t-153.5 69.5t-32.5 166.5zM1108 1790 q-6 -28 6.5 -46t38.5 -18q25 0 47.5 18.5t28.5 45.5q4 28 -10 46.5t-39 18.5q-26 0 -46.5 -18.5t-25.5 -46.5z" />
<glyph unicode="&#xc6;" horiz-adv-x="1849" d="M25 0l942 1534h1134l-82 -379h-514l-41 -194h514l-80 -379h-514l-43 -203h514l-79 -379h-902l56 264h-324q-133 -200 -172 -264h-409zM821 625h180l95 442z" />
<glyph unicode="&#xc7;" horiz-adv-x="1368" d="M203 768q34 159 126.5 304t219.5 249.5t285.5 166.5t318.5 62q80 0 153 -15t120.5 -35t90.5 -47.5t61 -43.5t34 -33l4 -4l-301 -303q-46 46 -110.5 74.5t-129.5 27.5q-167 -3 -308.5 -121.5t-176.5 -281.5q-21 -104 9.5 -194.5t106 -147t179.5 -61.5q163 -6 303 100 l174 -301q-22 -18 -58.5 -41t-105 -57t-165.5 -57.5t-199 -24.5q62 -49 38 -158q-15 -72 -70.5 -126t-117.5 -77.5t-119 -23.5q-74 0 -133 55l-2 -2q-30 26 -47 67l141 115q29 -22 56 -22q18 0 18 14q0 4 -59 12l-21 2l-41 78l86 113q-212 84 -312.5 285.5t-47.5 451.5z" />
<glyph unicode="&#xc8;" horiz-adv-x="1044" d="M70 0l325 1534h901l-82 -379h-514l-41 -194h515l-80 -379h-514l-43 -203h514l-80 -379h-901zM612 1741l191 295l379 -183l-181 -288z" />
<glyph unicode="&#xc9;" horiz-adv-x="1044" d="M70 0l325 1534h901l-82 -379h-514l-41 -194h515l-80 -379h-514l-43 -203h514l-80 -379h-901zM635 1849l452 183l68 -295l-463 -176z" />
<glyph unicode="&#xca;" horiz-adv-x="1044" d="M70 0l325 1534h901l-82 -379h-514l-41 -194h515l-80 -379h-514l-43 -203h514l-80 -379h-901zM569 1858l369 143l309 -141l-188 -291l-193 90q-142 -55 -218 -85q-8 -3 -10 -4l-3 -1z" />
<glyph unicode="&#xcb;" horiz-adv-x="1044" d="M70 0l325 1534h901l-82 -379h-514l-41 -194h515l-80 -379h-514l-43 -203h514l-80 -379h-901zM508 1759q15 72 79 123t140 51q75 0 116.5 -51t26.5 -123q-17 -74 -80.5 -126t-138.5 -52q-76 0 -118 52t-25 126zM909 1759q15 72 79 123t138 51q75 0 117 -51t27 -123 q-17 -74 -80.5 -126t-138.5 -52q-74 0 -116.5 52.5t-25.5 125.5z" />
<glyph unicode="&#xcc;" horiz-adv-x="520" d="M66 0l325 1534h387l-325 -1534h-387zM352 1737l191 295l379 -183l-181 -288z" />
<glyph unicode="&#xcd;" horiz-adv-x="520" d="M66 0l325 1534h387l-325 -1534h-387zM379 1851l452 183l68 -295l-463 -176z" />
<glyph unicode="&#xce;" horiz-adv-x="520" d="M66 0l325 1534h387l-325 -1534h-387zM313 1858l369 143l309 -141l-188 -291l-193 90q-142 -55 -218 -85q-12 -5 -13 -5z" />
<glyph unicode="&#xcf;" horiz-adv-x="520" d="M66 0l325 1534h387l-325 -1534h-387zM250 1759q15 72 79 123t140 51q75 0 116.5 -51t26.5 -123q-17 -74 -80.5 -126t-138.5 -52q-76 0 -118 52t-25 126zM651 1759q15 72 79 123t138 51q75 0 117 -51t27 -123q-17 -74 -80.5 -126t-138.5 -52q-74 0 -116.5 52.5 t-25.5 125.5z" />
<glyph unicode="&#xd0;" horiz-adv-x="1591" d="M160 571l67 324h197l137 639h522q105 0 199.5 -28t167.5 -78.5t130 -120.5t87 -155.5t38.5 -182.5t-15.5 -201q-32 -154 -123 -296t-215.5 -245.5t-280.5 -165t-313 -61.5h-525l121 571h-194zM700 379h138q167 0 299.5 110t167.5 279q37 169 -44.5 278t-248.5 109h-148 l-55 -260h188l-67 -324h-189z" />
<glyph unicode="&#xd1;" horiz-adv-x="1400" d="M70 0l325 1534h375l313 -803l172 803h385l-325 -1534h-371l-317 801l-170 -801h-387zM694 1737q31 101 108.5 161t174.5 60q43 0 111 -23.5t86 -23.5q55 0 126 65l144 -159q-34 -92 -117.5 -157t-169.5 -65q-40 0 -103 25t-96 25q-39 0 -90 -58z" />
<glyph unicode="&#xd2;" horiz-adv-x="1679" d="M209 764q34 159 126.5 304.5t219 251t284.5 168t318 62.5q129 0 241 -40.5t192 -112t133.5 -170t65.5 -215.5t-13 -248q-34 -159 -127 -304t-220 -251t-286.5 -169t-319.5 -63q-213 0 -370.5 106.5t-223 287.5t-20.5 393zM596 764q-35 -167 55.5 -285.5t253.5 -118.5 q166 0 307.5 118.5t176.5 285.5q35 168 -56 287.5t-256 119.5q-163 0 -304.5 -120t-176.5 -287zM928 1735l190 295l379 -183l-180 -288z" />
<glyph unicode="&#xd3;" horiz-adv-x="1679" d="M209 764q34 159 126.5 304.5t219 251t284.5 168t318 62.5q129 0 241 -40.5t192 -112t133.5 -170t65.5 -215.5t-13 -248q-34 -159 -127 -304t-220 -251t-286.5 -169t-319.5 -63q-213 0 -370.5 106.5t-223 287.5t-20.5 393zM596 764q-35 -167 55.5 -285.5t253.5 -118.5 q166 0 307.5 118.5t176.5 285.5q35 168 -56 287.5t-256 119.5q-163 0 -304.5 -120t-176.5 -287zM954 1853l453 183l68 -295l-463 -176z" />
<glyph unicode="&#xd4;" horiz-adv-x="1679" d="M209 764q34 159 126.5 304.5t219 251t284.5 168t318 62.5q129 0 241 -40.5t192 -112t133.5 -170t65.5 -215.5t-13 -248q-34 -159 -127 -304t-220 -251t-286.5 -169t-319.5 -63q-213 0 -370.5 106.5t-223 287.5t-20.5 393zM596 764q-35 -167 55.5 -285.5t253.5 -118.5 q166 0 307.5 118.5t176.5 285.5q35 168 -56 287.5t-256 119.5q-163 0 -304.5 -120t-176.5 -287zM887 1858l368 143l310 -141l-189 -291l-192 90q-132 -51 -213 -83q-18 -7 -19 -7z" />
<glyph unicode="&#xd5;" horiz-adv-x="1679" d="M209 764q34 159 126.5 304.5t219 251t284.5 168t318 62.5q129 0 241 -40.5t192 -112t133.5 -170t65.5 -215.5t-13 -248q-34 -159 -127 -304t-220 -251t-286.5 -169t-319.5 -63q-213 0 -370.5 106.5t-223 287.5t-20.5 393zM596 764q-35 -167 55.5 -285.5t253.5 -118.5 q166 0 307.5 118.5t176.5 285.5q35 168 -56 287.5t-256 119.5q-163 0 -304.5 -120t-176.5 -287zM834 1737q31 101 108 161t174 60q43 0 111 -23.5t86 -23.5q56 0 127 65l143 -159q-34 -92 -117.5 -157t-169.5 -65q-40 0 -102.5 25t-95.5 25q-39 0 -90 -58z" />
<glyph unicode="&#xd6;" horiz-adv-x="1679" d="M209 764q34 159 126.5 304.5t219 251t284.5 168t318 62.5q129 0 241 -40.5t192 -112t133.5 -170t65.5 -215.5t-13 -248q-34 -159 -127 -304t-220 -251t-286.5 -169t-319.5 -63q-213 0 -370.5 106.5t-223 287.5t-20.5 393zM596 764q-35 -167 55.5 -285.5t253.5 -118.5 q166 0 307.5 118.5t176.5 285.5q35 168 -56 287.5t-256 119.5q-163 0 -304.5 -120t-176.5 -287zM825 1759q15 72 79 123t140 51q75 0 117 -51t27 -123q-17 -74 -80.5 -126t-138.5 -52q-77 0 -119 52.5t-25 125.5zM1227 1759q15 72 79 123t138 51q75 0 116.5 -51t26.5 -123 q-17 -74 -80.5 -126t-138.5 -52q-74 0 -116 52.5t-25 125.5z" />
<glyph unicode="&#xd7;" horiz-adv-x="1079" d="M102 268l306 252l-191 244l272 225l193 -246l307 254l176 -227l-307 -252l199 -250l-273 -225l-196 246l-301 -250z" />
<glyph unicode="&#xd8;" horiz-adv-x="1662" d="M201 764q34 159 126.5 303.5t219 249t284.5 166t318 61.5q55 0 84 -4l45 82h244q-8 -24 -31 -72q-6 -14 -14.5 -32.5t-13.5 -29t-5 -11.5q187 -94 273 -287t36 -426q-34 -159 -126.5 -303t-219 -248.5t-285 -166.5t-319.5 -62q-57 0 -104 6l-51 -96l-250 2l82 165 q-183 98 -263 285t-30 418zM588 764q-21 -98 4 -182.5t88 -139.5l164 320q31 60 63.5 125t72 146.5t64.5 131.5q-159 -8 -290.5 -123.5t-165.5 -277.5zM899 365q164 0 305 116.5t176 282.5q21 102 -11 192t-103 146z" />
<glyph unicode="&#xd9;" horiz-adv-x="1187" d="M156 451l231 1083h385l-223 -1045q-11 -55 28 -91t93 -36q51 0 96.5 34.5t62.5 88.5l224 1049h387l-232 -1083q-28 -133 -125 -241.5t-228 -167t-265 -58.5q-101 0 -190 35t-150.5 95.5t-88 148.5t-5.5 188zM682 1737l190 295l379 -183l-180 -288z" />
<glyph unicode="&#xda;" horiz-adv-x="1187" d="M156 451l231 1083h385l-223 -1045q-11 -55 28 -91t93 -36q51 0 96.5 34.5t62.5 88.5l224 1049h387l-232 -1083q-28 -133 -125 -241.5t-228 -167t-265 -58.5q-101 0 -190 35t-150.5 95.5t-88 148.5t-5.5 188zM707 1849l452 183l68 -295l-463 -176z" />
<glyph unicode="&#xdb;" horiz-adv-x="1187" d="M156 451l231 1083h385l-223 -1045q-11 -55 28 -91t93 -36q51 0 96.5 34.5t62.5 88.5l224 1049h387l-232 -1083q-28 -133 -125 -241.5t-228 -167t-265 -58.5q-101 0 -190 35t-150.5 95.5t-88 148.5t-5.5 188zM641 1858l369 143l309 -141l-189 -291l-192 90 q-142 -55 -218 -85q-8 -3 -10 -4l-3 -1z" />
<glyph unicode="&#xdc;" horiz-adv-x="1187" d="M156 451l231 1083h385l-223 -1045q-11 -55 28 -91t93 -36q51 0 96.5 34.5t62.5 88.5l224 1049h387l-232 -1083q-28 -133 -125 -241.5t-228 -167t-265 -58.5q-101 0 -190 35t-150.5 95.5t-88 148.5t-5.5 188zM580 1759q15 72 79 123t140 51q75 0 116.5 -51t26.5 -123 q-17 -74 -80.5 -126t-138.5 -52q-76 0 -118 52t-25 126zM981 1759q15 72 79 123t138 51q75 0 116.5 -51t26.5 -123q-17 -74 -80.5 -126t-138.5 -52q-74 0 -116 52.5t-25 125.5z" />
<glyph unicode="&#xdd;" horiz-adv-x="1255" d="M326 1534h428l90 -490l297 490h426l-635 -977l-117 -557h-385l117 557zM741 1847l453 183l68 -295l-463 -176z" />
<glyph unicode="&#xde;" horiz-adv-x="1044" d="M66 0l325 1534h387l-57 -268q90 0 96 2q142 0 239 -63.5t133.5 -173.5t8.5 -245q-43 -205 -206 -346t-367 -141h-109l-63 -299h-387zM596 676h109q42 0 70 36t36 74q8 37 -5.5 70t-55.5 33h-109z" />
<glyph unicode="&#xdf;" horiz-adv-x="1107" d="M68 0l321 1520h473q119 0 204 -62.5t117.5 -161.5t8.5 -211q-27 -133 -115 -241q118 -141 72 -355q-42 -200 -183.5 -344.5t-303.5 -144.5h-179l76 365h103q39 15 68 51t38 78q8 39 -4.5 74.5t-42.5 52.5q-19 4 -31 8q-2 0 -11 2t-11 2l-50 4l64 299q50 0 85 34.5 t46 84.5q8 37 -7.5 61.5t-55.5 28.5h-56l-241 -1145h-385z" />
<glyph unicode="&#xe0;" horiz-adv-x="1193" d="M152.5 308q-23.5 96 1.5 204q30 142 127.5 264t234.5 193t279 71q121 0 206 -43l9 37h317l-221 -1038h-291l8 41q-112 -53 -252 -53q-106 0 -195.5 42t-144.5 114t-78.5 168zM514 512q-17 -74 21.5 -125t109.5 -51q73 0 132.5 50.5t76.5 125.5q15 75 -22.5 125.5 t-110.5 50.5q-71 0 -131.5 -51t-75.5 -125zM594 1294l190 295l379 -182l-180 -289z" />
<glyph unicode="&#xe1;" horiz-adv-x="1193" d="M152.5 308q-23.5 96 1.5 204q30 142 127.5 264t234.5 193t279 71q121 0 206 -43l9 37h317l-221 -1038h-291l8 41q-112 -53 -252 -53q-106 0 -195.5 42t-144.5 114t-78.5 168zM514 512q-17 -74 21.5 -125t109.5 -51q73 0 132.5 50.5t76.5 125.5q15 75 -22.5 125.5 t-110.5 50.5q-71 0 -131.5 -51t-75.5 -125zM618 1407l453 182l68 -295l-463 -176z" />
<glyph unicode="&#xe2;" horiz-adv-x="1193" d="M152.5 308q-23.5 96 1.5 204q30 142 127.5 264t234.5 193t279 71q121 0 206 -43l9 37h317l-221 -1038h-291l8 41q-112 -53 -252 -53q-106 0 -195.5 42t-144.5 114t-78.5 168zM514 512q-17 -74 21.5 -125t109.5 -51q73 0 132.5 50.5t76.5 125.5q15 75 -22.5 125.5 t-110.5 50.5q-71 0 -131.5 -51t-75.5 -125zM559 1448l369 143l309 -141l-188 -291l-193 90q-142 -55 -218 -85q-8 -3 -10 -4l-3 -1z" />
<glyph unicode="&#xe3;" horiz-adv-x="1193" d="M152.5 308q-23.5 96 1.5 204q30 142 127.5 264t234.5 193t279 71q121 0 206 -43l9 37h317l-221 -1038h-291l8 41q-112 -53 -252 -53q-106 0 -195.5 42t-144.5 114t-78.5 168zM504 1327q31 101 108 161t174 60q43 0 111 -23.5t86 -23.5q55 0 127 66l143 -160 q-34 -92 -117 -156.5t-169 -64.5q-40 0 -103 24.5t-96 24.5q-18 0 -43.5 -16.5t-46.5 -40.5zM514 512q-17 -74 21.5 -125t109.5 -51q73 0 132.5 50.5t76.5 125.5q15 75 -22.5 125.5t-110.5 50.5q-71 0 -131.5 -51t-75.5 -125z" />
<glyph unicode="&#xe4;" horiz-adv-x="1193" d="M152.5 308q-23.5 96 1.5 204q30 142 127.5 264t234.5 193t279 71q121 0 206 -43l9 37h317l-221 -1038h-291l8 41q-112 -53 -252 -53q-106 0 -195.5 42t-144.5 114t-78.5 168zM496 1350q15 72 79 123t140 51q75 0 116.5 -51t26.5 -123q-17 -74 -81 -126.5t-138 -52.5 q-76 0 -118 52.5t-25 126.5zM514 512q-17 -74 21.5 -125t109.5 -51q73 0 132.5 50.5t76.5 125.5q15 75 -22.5 125.5t-110.5 50.5q-71 0 -131.5 -51t-75.5 -125zM897 1350q15 72 79 123t138 51q75 0 116.5 -51t26.5 -123q-17 -74 -81 -126.5t-138 -52.5t-116 53t-25 126z" />
<glyph unicode="&#xe5;" horiz-adv-x="1193" d="M152.5 308q-23.5 96 1.5 204q30 142 127.5 264t234.5 193t279 71q121 0 206 -43l9 37h317l-221 -1038h-291l8 41q-112 -53 -252 -53q-106 0 -195.5 42t-144.5 114t-78.5 168zM514 512q-17 -74 21.5 -125t109.5 -51q73 0 132.5 50.5t76.5 125.5q15 75 -22.5 125.5 t-110.5 50.5q-71 0 -131.5 -51t-75.5 -125zM643 1360q20 97 103.5 165t183.5 68q99 0 153.5 -68t34.5 -165q-22 -97 -106 -166.5t-183 -69.5t-153.5 69.5t-32.5 166.5zM821 1360q-6 -28 6.5 -46t38.5 -18q25 0 47.5 18.5t28.5 45.5q4 28 -10 46.5t-39 18.5 q-26 0 -46.5 -18.5t-25.5 -46.5z" />
<glyph unicode="&#xe6;" horiz-adv-x="1820" d="M152.5 308q-23.5 96 1.5 204q30 142 127.5 264t234.5 193t279 71q121 0 206 -43l9 37h317l-6 -22q92 28 182 28q81 0 149 -26t114 -72t76 -107t35 -131.5t-9 -146.5l-33 -156h-629q-2 -37 44 -76.5t134 -39.5q73 0 136 16q64 18 133 53l88 -227q-128 -76 -228.5 -109.5 t-232.5 -33.5q-91 0 -170 28l-4 -16h-291l8 41q-112 -53 -252 -53q-106 0 -195.5 42t-144.5 114t-78.5 168zM514 512q-17 -74 21.5 -125t109.5 -51q73 0 132.5 50.5t76.5 125.5q15 75 -22.5 125.5t-110.5 50.5q-71 0 -131.5 -51t-75.5 -125zM1270 631h276q7 34 -22.5 67 t-89.5 33q-58 0 -101 -30t-63 -70z" />
<glyph unicode="&#xe7;" horiz-adv-x="1095" d="M154 514q30 142 126 263t233.5 192t283.5 71q131 0 238 -70t157 -173l-326 -189q-19 20 -28 28.5t-28 22.5t-40 19.5t-47 5.5q-68 0 -127 -50t-74 -120q-15 -73 23 -123.5t106 -50.5q90 0 189 111l278 -162q-84 -115 -197 -192t-239 -101q81 -49 55 -170 q-15 -72 -70.5 -126t-117.5 -77.5t-119 -23.5q-74 0 -133 55l-2 -2q-30 26 -47 67l141 115q29 -22 55 -22q8 0 13.5 4.5t5.5 9.5q0 3 -60 12l-20 2l-41 78l70 90q-151 53 -223.5 192t-34.5 314z" />
<glyph unicode="&#xe8;" horiz-adv-x="1110" d="M154 516q30 142 125.5 262.5t232.5 191t283 70.5q134 0 227.5 -69t128.5 -179t8 -235l-33 -156h-628q-2 -37 44 -76.5t134 -39.5q72 0 135 16q64 18 133 53l88 -227q-128 -76 -228.5 -109.5t-232.5 -33.5q-146 0 -252.5 71.5t-150.5 193.5t-14 267zM551 1294l190 295 l379 -182l-180 -289zM561 631h277q7 34 -23 67t-90 33q-58 0 -101 -30t-63 -70z" />
<glyph unicode="&#xe9;" horiz-adv-x="1110" d="M154 516q30 142 125.5 262.5t232.5 191t283 70.5q134 0 227.5 -69t128.5 -179t8 -235l-33 -156h-628q-2 -37 44 -76.5t134 -39.5q72 0 135 16q64 18 133 53l88 -227q-128 -76 -228.5 -109.5t-232.5 -33.5q-146 0 -252.5 71.5t-150.5 193.5t-14 267zM561 631h277 q7 34 -23 67t-90 33q-58 0 -101 -30t-63 -70zM575 1407l453 182l68 -295l-463 -176z" />
<glyph unicode="&#xea;" horiz-adv-x="1110" d="M154 516q30 142 125.5 262.5t232.5 191t283 70.5q134 0 227.5 -69t128.5 -179t8 -235l-33 -156h-628q-2 -37 44 -76.5t134 -39.5q72 0 135 16q64 18 133 53l88 -227q-128 -76 -228.5 -109.5t-232.5 -33.5q-146 0 -252.5 71.5t-150.5 193.5t-14 267zM516 1448l369 143 l309 -141l-188 -291l-193 90q-142 -55 -218 -85q-8 -3 -11 -4l-2 -1zM561 631h277q7 34 -23 67t-90 33q-58 0 -101 -30t-63 -70z" />
<glyph unicode="&#xeb;" horiz-adv-x="1110" d="M154 516q30 142 125.5 262.5t232.5 191t283 70.5q134 0 227.5 -69t128.5 -179t8 -235l-33 -156h-628q-2 -37 44 -76.5t134 -39.5q72 0 135 16q64 18 133 53l88 -227q-128 -76 -228.5 -109.5t-232.5 -33.5q-146 0 -252.5 71.5t-150.5 193.5t-14 267zM455 1350 q15 72 79 123t140 51q75 0 116.5 -51t26.5 -123q-17 -74 -81 -126.5t-138 -52.5q-76 0 -118 52.5t-25 126.5zM561 631h277q7 34 -23 67t-90 33q-58 0 -101 -30t-63 -70zM856 1350q15 72 79 123t138 51q75 0 117 -51t27 -123q-17 -74 -81 -126.5t-139 -52.5q-74 0 -116 53 t-25 126z" />
<glyph unicode="&#xec;" horiz-adv-x="468" d="M66 0l217 1024h335l-217 -1024h-335zM233 1294l191 295l379 -182l-180 -289z" />
<glyph unicode="&#xed;" horiz-adv-x="468" d="M66 0l217 1024h335l-217 -1024h-335zM258 1407l453 182l67 -295l-463 -176z" />
<glyph unicode="&#xee;" horiz-adv-x="468" d="M66 0l217 1024h335l-217 -1024h-335zM199 1448l368 143l310 -141l-189 -291l-192 90q-132 -51 -213 -83q-18 -7 -19 -7z" />
<glyph unicode="&#xef;" horiz-adv-x="468" d="M66 0l217 1024h335l-217 -1024h-335zM137 1350q15 72 79 123t140 51q75 0 117 -51t27 -123q-17 -74 -81 -126.5t-138 -52.5q-76 0 -118.5 52.5t-25.5 126.5zM539 1350q15 72 79 123t138 51q75 0 116.5 -51t26.5 -123q-17 -74 -81 -126.5t-138 -52.5t-116 53t-25 126z" />
<glyph unicode="&#xf0;" horiz-adv-x="1177" d="M145 524q37 175 175 308.5t327 177.5l43 10l-22 49l-80 -35l-115 209l115 70l-37 76l315 196l35 -72l103 50l135 -228l-113 -63l193 -473q50 -117 18 -275q-31 -148 -130.5 -272.5t-240 -196t-288.5 -71.5q-149 0 -259.5 71.5t-157.5 196t-16 272.5zM522 524 q-17 -75 20.5 -123.5t112.5 -48.5q73 0 130.5 48.5t74.5 123.5q15 76 -21.5 125t-109.5 49q-75 0 -133.5 -49.5t-73.5 -124.5z" />
<glyph unicode="&#xf1;" horiz-adv-x="1077" d="M68 0l217 1024h282l-6 -25q82 41 193 41q222 0 319 -119.5t51 -338.5l-123 -582h-364l121 578q10 44 -13.5 75t-66.5 31q-39 0 -75 -28.5t-48 -69.5l-123 -586h-364zM446 1327q31 101 108.5 161t174.5 60q43 0 111 -23.5t86 -23.5q55 0 127 66l143 -160 q-34 -92 -117.5 -156.5t-169.5 -64.5q-40 0 -102.5 24.5t-95.5 24.5q-18 0 -43.5 -16.5t-46.5 -40.5z" />
<glyph unicode="&#xf2;" horiz-adv-x="1169" d="M154 514q30 143 125.5 263.5t233 191.5t284.5 71q108 0 197.5 -41.5t144 -113t77.5 -167.5t-2 -204q-31 -144 -127.5 -266t-233 -193t-280.5 -71q-147 0 -254.5 71t-151.5 193t-13 266zM518 514q-15 -73 22.5 -122.5t108.5 -49.5q68 0 128 49.5t75 122.5q15 70 -24 120 t-107 50q-70 0 -129 -49.5t-74 -120.5zM582 1294l190 295l379 -182l-180 -289z" />
<glyph unicode="&#xf3;" horiz-adv-x="1169" d="M154 514q30 143 125.5 263.5t233 191.5t284.5 71q108 0 197.5 -41.5t144 -113t77.5 -167.5t-2 -204q-31 -144 -127.5 -266t-233 -193t-280.5 -71q-147 0 -254.5 71t-151.5 193t-13 266zM518 514q-15 -73 22.5 -122.5t108.5 -49.5q68 0 128 49.5t75 122.5q15 70 -24 120 t-107 50q-70 0 -129 -49.5t-74 -120.5zM606 1407l453 182l67 -295l-462 -176z" />
<glyph unicode="&#xf4;" horiz-adv-x="1169" d="M154 514q30 143 125.5 263.5t233 191.5t284.5 71q108 0 197.5 -41.5t144 -113t77.5 -167.5t-2 -204q-31 -144 -127.5 -266t-233 -193t-280.5 -71q-147 0 -254.5 71t-151.5 193t-13 266zM518 514q-15 -73 22.5 -122.5t108.5 -49.5q68 0 128 49.5t75 122.5q15 70 -24 120 t-107 50q-70 0 -129 -49.5t-74 -120.5zM547 1448l368 143l310 -141l-189 -291l-192 90q-132 -51 -213 -83q-18 -7 -19 -7z" />
<glyph unicode="&#xf5;" horiz-adv-x="1169" d="M154 514q30 143 125.5 263.5t233 191.5t284.5 71q108 0 197.5 -41.5t144 -113t77.5 -167.5t-2 -204q-31 -144 -127.5 -266t-233 -193t-280.5 -71q-147 0 -254.5 71t-151.5 193t-13 266zM492 1327q31 101 108 161t174 60q43 0 111 -23.5t86 -23.5q55 0 127 66l143 -160 q-34 -92 -117.5 -156.5t-169.5 -64.5q-40 0 -102.5 24.5t-95.5 24.5q-18 0 -43.5 -16.5t-46.5 -40.5zM518 514q-15 -73 22.5 -122.5t108.5 -49.5q68 0 128 49.5t75 122.5q15 70 -24 120t-107 50q-70 0 -129 -49.5t-74 -120.5z" />
<glyph unicode="&#xf6;" horiz-adv-x="1169" d="M154 514q30 143 125.5 263.5t233 191.5t284.5 71q108 0 197.5 -41.5t144 -113t77.5 -167.5t-2 -204q-31 -144 -127.5 -266t-233 -193t-280.5 -71q-147 0 -254.5 71t-151.5 193t-13 266zM483 1350q15 72 79 123t140 51q75 0 117 -51t27 -123q-17 -74 -81 -126.5 t-138 -52.5q-76 0 -118.5 52.5t-25.5 126.5zM518 514q-15 -73 22.5 -122.5t108.5 -49.5q68 0 128 49.5t75 122.5q15 70 -24 120t-107 50q-70 0 -129 -49.5t-74 -120.5zM885 1350q15 72 79 123t138 51q75 0 116.5 -51t26.5 -123q-17 -74 -81 -126.5t-138 -52.5t-116 53 t-25 126z" />
<glyph unicode="&#xf7;" horiz-adv-x="1073" d="M86 365l68 315h462q-62 15 -91.5 67t-14.5 121q17 83 87 140t155 57t130.5 -57t28.5 -140q-15 -69 -68 -121t-122 -67h467l-68 -315h-458q59 -19 87 -70.5t15 -118.5q-17 -82 -88 -139t-156 -57q-84 0 -129.5 57t-28.5 139q13 67 63.5 118.5t117.5 70.5h-457z" />
<glyph unicode="&#xf8;" horiz-adv-x="1146" d="M143 514q30 143 125.5 263t233 190.5t284.5 70.5q1 0 14.5 1t16.5 -1q6 12 25.5 47.5t27.5 51.5h222q-3 -16 -8 -30t-16 -35.5t-15 -29.5l-31 -63q110 -71 161 -196t21 -269q-31 -144 -127.5 -265.5t-233 -192t-280.5 -70.5h-39q-13 -26 -45 -99h-237l77 160 q-105 70 -155.5 197.5t-20.5 269.5zM485 510q-13 -65 9 -111l153 297q-61 -23 -104.5 -73.5t-57.5 -112.5zM690 326q65 21 114 71t64 117q14 64 -20 121q-26 -54 -78 -153t-80 -156z" />
<glyph unicode="&#xf9;" horiz-adv-x="1075" d="M152 442l124 582h365l-123 -578q-9 -44 14 -75t66 -31q39 0 74.5 27.5t48.5 68.5l125 588h364l-219 -1026h-284l6 25q-88 -39 -191 -39q-222 0 -319 119.5t-51 338.5zM535 1294l190 295l379 -182l-180 -289z" />
<glyph unicode="&#xfa;" horiz-adv-x="1075" d="M152 442l124 582h365l-123 -578q-9 -44 14 -75t66 -31q39 0 74.5 27.5t48.5 68.5l125 588h364l-219 -1026h-284l6 25q-88 -39 -191 -39q-222 0 -319 119.5t-51 338.5zM559 1407l453 182l67 -295l-463 -176z" />
<glyph unicode="&#xfb;" horiz-adv-x="1075" d="M152 442l124 582h365l-123 -578q-9 -44 14 -75t66 -31q39 0 74.5 27.5t48.5 68.5l125 588h364l-219 -1026h-284l6 25q-88 -39 -191 -39q-222 0 -319 119.5t-51 338.5zM500 1448l368 143l310 -141l-189 -291l-192 90q-132 -51 -213 -83q-18 -7 -19 -7z" />
<glyph unicode="&#xfc;" horiz-adv-x="1075" d="M152 442l124 582h365l-123 -578q-9 -44 14 -75t66 -31q39 0 74.5 27.5t48.5 68.5l125 588h364l-219 -1026h-284l6 25q-88 -39 -191 -39q-222 0 -319 119.5t-51 338.5zM436 1350q15 72 79 123t140 51q75 0 117 -51t27 -123q-17 -74 -81 -126.5t-138 -52.5 q-76 0 -118.5 52.5t-25.5 126.5zM838 1350q15 72 79 123t138 51q75 0 116.5 -51t26.5 -123q-17 -74 -81 -126.5t-138 -52.5t-116 53t-25 126z" />
<glyph unicode="&#xfd;" horiz-adv-x="1001" d="M45 -377q291 519 291 529l-121 872h393l27 -358l180 356h387l-780 -1407zM522 1407l453 182l67 -295l-462 -176z" />
<glyph unicode="&#xfe;" horiz-adv-x="1153" d="M-14 -408l387 1827h362l-88 -409q80 28 178 28q142 0 249.5 -70.5t154 -192t16.5 -263.5q-46 -216 -236 -371t-407 -155q-108 0 -166 26l-90 -420h-360zM545 512q-17 -75 21 -124.5t112 -49.5q71 0 130.5 49.5t76.5 124.5q15 75 -23.5 124.5t-109.5 49.5 q-74 0 -133 -49.5t-74 -124.5z" />
<glyph unicode="&#xff;" horiz-adv-x="1001" d="M45 -377q291 519 291 529l-121 872h393l27 -358l180 356h387l-780 -1407zM399 1350q15 72 79 123t140 51q75 0 117 -51t27 -123q-17 -74 -81 -126.5t-138 -52.5q-76 0 -118.5 52.5t-25.5 126.5zM801 1350q15 72 79 123t138 51q75 0 116.5 -51t26.5 -123 q-17 -74 -81 -126.5t-138 -52.5t-116 53t-25 126z" />
<glyph unicode="&#x152;" horiz-adv-x="2220" d="M213 764q34 159 126.5 304.5t219 251t284.5 168t318 62.5q215 0 375 -110l20 94h902l-82 -379h-514l-41 -194h514l-80 -379h-514l-43 -203h514l-80 -379h-901l18 88q-208 -111 -422 -111q-213 0 -370.5 106.5t-223 287.5t-20.5 393zM598 764q-35 -167 56 -285.5 t255 -118.5t305.5 118.5t176.5 285.5q23 110 -10 203.5t-112.5 148.5t-187.5 55q-164 0 -306 -120t-177 -287z" />
<glyph unicode="&#x153;" horiz-adv-x="1824" d="M154 514q30 143 125.5 263.5t233 191.5t284.5 71q204 0 325 -137q181 137 385 137q81 0 149 -26t114 -72t76 -107t35 -131.5t-9 -146.5l-33 -156h-629q-2 -36 44.5 -76t134.5 -40q72 0 135 16q64 18 133 53l88 -227q-128 -76 -228.5 -109.5t-232.5 -33.5q-207 0 -328 137 q-177 -137 -383 -137q-147 0 -254.5 71t-151.5 193t-13 266zM518 514q-15 -73 22.5 -122.5t108.5 -49.5q68 0 128 49.5t75 122.5q15 70 -24 120t-107 50q-70 0 -129 -49.5t-74 -120.5zM1274 631h276q7 34 -22.5 67t-89.5 33q-58 0 -101 -30t-63 -70z" />
<glyph unicode="&#x178;" horiz-adv-x="1255" d="M326 1534h428l90 -490l297 490h426l-635 -977l-117 -557h-385l117 557zM612 1759q15 72 79 123t140 51q75 0 117 -51t27 -123q-17 -74 -80.5 -126t-138.5 -52q-77 0 -119 52.5t-25 125.5zM1014 1759q15 72 79 123t138 51q75 0 116.5 -51t26.5 -123q-17 -74 -80.5 -126 t-138.5 -52q-74 0 -116 52.5t-25 125.5z" />
<glyph unicode="&#x2c6;" horiz-adv-x="737" d="M330 1448l368 143l310 -141l-189 -291l-192 90q-132 -51 -213 -83q-18 -7 -19 -7z" />
<glyph unicode="&#x2dc;" horiz-adv-x="841" d="M328 1327q31 101 108 161t174 60q43 0 111 -23.5t86 -23.5q55 0 127 66l143 -160q-34 -92 -117 -156.5t-169 -64.5q-40 0 -103 24.5t-96 24.5q-18 0 -43.5 -16.5t-46.5 -40.5z" />
<glyph unicode="&#x2000;" horiz-adv-x="1018" />
<glyph unicode="&#x2001;" horiz-adv-x="2036" />
<glyph unicode="&#x2002;" horiz-adv-x="1018" />
<glyph unicode="&#x2003;" horiz-adv-x="2036" />
<glyph unicode="&#x2004;" horiz-adv-x="678" />
<glyph unicode="&#x2005;" horiz-adv-x="509" />
<glyph unicode="&#x2006;" horiz-adv-x="339" />
<glyph unicode="&#x2007;" horiz-adv-x="339" />
<glyph unicode="&#x2008;" horiz-adv-x="254" />
<glyph unicode="&#x2009;" horiz-adv-x="407" />
<glyph unicode="&#x200a;" horiz-adv-x="113" />
<glyph unicode="&#x2010;" horiz-adv-x="829" d="M147 422l68 315h696l-67 -315h-697z" />
<glyph unicode="&#x2011;" horiz-adv-x="829" d="M147 422l68 315h696l-67 -315h-697z" />
<glyph unicode="&#x2012;" horiz-adv-x="829" d="M147 422l68 315h696l-67 -315h-697z" />
<glyph unicode="&#x2013;" horiz-adv-x="1177" d="M154 422l67 315h1030l-67 -315h-1030z" />
<glyph unicode="&#x2014;" horiz-adv-x="1513" d="M156 422l67 315h1356l-68 -315h-1355z" />
<glyph unicode="&#x2018;" horiz-adv-x="411" d="M328 1436l327 65l-51 -444l-260 -33z" />
<glyph unicode="&#x2019;" horiz-adv-x="413" d="M266 1057l135 444l306 -65l-193 -412z" />
<glyph unicode="&#x201a;" horiz-adv-x="411" d="M20 -104l136 442l303 -66l-193 -411z" />
<glyph unicode="&#x201c;" horiz-adv-x="776" d="M348 1436l328 65l-51 -444l-260 -33zM682 1436l328 65l-52 -444l-260 -33z" />
<glyph unicode="&#x201d;" horiz-adv-x="778" d="M268 1057l138 444l303 -65l-193 -412zM602 1057l137 444l303 -65l-192 -412z" />
<glyph unicode="&#x201e;" horiz-adv-x="759" d="M23 -104l137 442l293 -64l20 64l301 -66l-192 -411l-246 35l100 325l-168 -360z" />
<glyph unicode="&#x2022;" horiz-adv-x="645" d="M168 604q25 113 122.5 193t213.5 80q115 0 178.5 -80t38.5 -193q-25 -114 -121 -193t-211 -79q-117 0 -181.5 79t-39.5 193z" />
<glyph unicode="&#x2026;" horiz-adv-x="1404" d="M96 150q13 63 72 113t133 50q64 0 99.5 -50.5t23.5 -112.5q-14 -65 -69.5 -111.5t-121.5 -46.5q-75 0 -113 46t-24 112zM557 150q13 63 73 113t132 50q63 0 100 -50.5t25 -112.5q-13 -64 -70.5 -111t-122.5 -47q-74 0 -112.5 46t-24.5 112zM1020 150q13 63 72 113t131 50 q65 0 101 -50.5t24 -112.5q-14 -65 -70 -111.5t-123 -46.5q-74 0 -111.5 46t-23.5 112z" />
<glyph unicode="&#x202f;" horiz-adv-x="407" />
<glyph unicode="&#x2039;" horiz-adv-x="579" d="M119 547l389 465l209 -197l-234 -264q22 -40 29 -57l96 -211l-311 -187z" />
<glyph unicode="&#x203a;" horiz-adv-x="583" d="M61 283l187 211l51 57q-22 45 -63 136.5t-58 127.5l295 197l189 -463l-371 -453z" />
<glyph unicode="&#x205f;" horiz-adv-x="509" />
<glyph unicode="&#x20ac;" horiz-adv-x="1181" d="M129 440l59 281h105l10 43h-104l59 283h107q29 85 84.5 164t132.5 144.5t181 104.5t218 39q213 0 311 -120t62 -310h-305q2 30 -31 52t-98 22q-62 0 -110.5 -29t-64.5 -67h320l-59 -285h-324l-8 -39h323l-61 -285h-320q12 -94 138 -94q66 0 106 19.5t49 42.5h326 q-22 -92 -66 -166t-113 -132t-170 -90t-227 -32q-199 0 -320 132.5t-101 325.5q-16 0 -54 -2t-55 -2z" />
<glyph unicode="&#x2122;" horiz-adv-x="1411" d="M285 1317l43 203h516l-43 -203h-148l-121 -572h-213l121 572h-155zM715 743l164 777h241l62 -422q42 74 124 215.5t119 206.5h244l-164 -777h-209l66 314l-80 -142l-96 -172h-160l-33 299l-63 -299h-215z" />
<glyph unicode="&#xe000;" horiz-adv-x="1024" d="M0 0v1024h1024v-1024h-1024z" />
<glyph unicode="&#xfb01;" horiz-adv-x="1339" d="M217 0l148 694h-117l69 330h117l15 66q33 157 128.5 244t243.5 87h248l-68 -321h-143q-46 0 -55 -49l-6 -27h239l-69 -330h-240l-147 -694h-363zM913 0l217 1024h363l-217 -1024h-363zM1174 1229q15 72 81 125t140 53q73 0 115.5 -53t27.5 -125t-80 -125t-139 -53 t-117 53t-28 125z" />
<glyph unicode="&#xfb02;" horiz-adv-x="1406" d="M217 0l148 694h-117l69 330h117l15 66q33 157 128.5 244t243.5 87h248l-68 -321h-143q-46 0 -55 -49l-6 -27h239l-69 -330h-240l-147 -694h-363zM977 0l301 1421h362l-301 -1421h-362z" />
</font>
</defs>
</svg>
