<?xml version="1.0" standalone="no"?>
<!DOCTYPE svg PUBLIC "-//W3C//DTD SVG 1.1//EN" "http://www.w3.org/Graphics/SVG/1.1/DTD/svg11.dtd" >
<svg xmlns="http://www.w3.org/2000/svg">
<metadata></metadata>
<defs>
<font id="nanami_outlineregular" horiz-adv-x="1228" >
<font-face units-per-em="2048" ascent="1536" descent="-512" />
<missing-glyph horiz-adv-x="593" />
<glyph horiz-adv-x="2048" />
<glyph horiz-adv-x="2048" />
<glyph unicode="&#xd;" horiz-adv-x="2048" />
<glyph unicode=" "  horiz-adv-x="593" />
<glyph unicode="&#x09;" horiz-adv-x="593" />
<glyph unicode="&#xa0;" horiz-adv-x="593" />
<glyph unicode="!" horiz-adv-x="462" d="M55 160q0 56 32 98.5t83 60.5h-113v1178h334v-1178h-115q52 -18 83.5 -60.5t31.5 -98.5q0 -68 -49 -118t-119 -50q-67 0 -117.5 50t-50.5 118zM94 160q0 -52 38 -90.5t91 -38.5q55 0 93 38t38 91q0 56 -38 93.5t-93 37.5q-53 0 -91 -38t-38 -93zM96 358h258v1102h-258 v-1102z" />
<glyph unicode="&#x22;" horiz-adv-x="843" d="M86 874v623h291v-623h-291zM123 911h217v549h-217v-549zM434 874v623h293v-623h-293zM473 911h215v549h-215v-549z" />
<glyph unicode="#" horiz-adv-x="1441" d="M88 385v258h285l20 139h-250v258h285q46 319 55 396h260l-55 -396h105q7 55 27 193.5t28 202.5h260l-55 -396h250v-258h-287q-3 -28 -10 -69.5t-11 -69.5h250v-258h-284q-51 -341 -56 -385h-254q0 49 0.5 71.5t1.5 23.5t3 4.5t3 15.5q32 202 41 270h-104 q-46 -307 -55 -385h-254q0 50 1 72t2 23t3 4.5t4 15.5q3 22 15 100.5t24 169.5h-248zM125 422h254q-17 -127 -31 -220.5t-19 -123t-5 -39.5h182l55 383h182q-17 -127 -31 -220.5t-19 -123t-5 -39.5h182l56 383h282v182h-256l31 217h283v183h-256l55 393h-182l-56 -393h-182 l55 393h-182l-55 -393h-281v-183h254l-30 -217h-281v-182zM590 604l31 217h180l-31 -217h-180zM633 643h102q3 21 11 63t12 76h-103z" />
<glyph unicode="$" horiz-adv-x="1095" d="M76 354l313 52q7 -22 19 -37t23 -22.5t27 -11.5t25 -4.5t23 -0.5q55 0 87 31t32 75q0 66 -43 101t-127 65q-169 58 -270 173t-101 274q0 180 79.5 293.5t233.5 148.5v186h293v-196q186 -71 246 -264l-307 -148q-36 92 -109 92q-36 0 -62 -30.5t-26 -69.5q0 -14 4.5 -27 t10.5 -22.5t19 -20t21 -16.5t26 -15t25.5 -12.5t28 -12.5t25.5 -11q73 -32 125 -60q136 -73 196 -171t60 -257q0 -141 -80 -257t-203 -167v-186h-293v172q-282 36 -321 356zM121 322q17 -130 100.5 -205.5t214.5 -83.5v-170h215v176q124 39 203.5 148.5t79.5 248.5 q0 147 -55.5 237.5t-182.5 157.5q-39 24 -102 50q-95 37 -130 61q-70 50 -71 119q0 56 34 96.5t93 40.5q87 0 125 -80l246 119q-26 81 -90.5 136t-149.5 81v184h-215v-178q-149 -29 -231 -137t-82 -274q0 -148 93.5 -253t248.5 -157q102 -33 150.5 -76t48.5 -127 q0 -59 -43.5 -101t-114.5 -42q-92 0 -135 72z" />
<glyph unicode="%" horiz-adv-x="1873" d="M98 1118q0 158 111.5 268.5t269.5 110.5q157 0 268 -110.5t111 -268.5q0 -157 -111 -268t-268 -111q-158 0 -269.5 111t-111.5 268zM137 1118q0 -141 100 -240.5t242 -99.5q141 0 240.5 99.5t99.5 240.5q0 142 -99.5 242t-240.5 100q-143 0 -242.5 -100t-99.5 -242z M326 1118q0 65 44.5 109.5t108.5 44.5q63 0 108.5 -45t45.5 -109q0 -63 -45.5 -108t-108.5 -45q-64 0 -108.5 45t-44.5 108zM362 1118q0 -47 34 -80.5t83 -33.5q47 0 81 33.5t34 80.5q0 49 -33.5 83t-81.5 34q-49 0 -83 -33.5t-34 -83.5zM440 72l738 1448l184 -93 q-155 -306 -684 -1341q-16 -32 -32 -61.5t-30 -59.5zM489 86l111 -72q0 2 52 104q249 486 659 1293l-115 57zM946 379q0 158 111 268.5t268 110.5q158 0 269.5 -110.5t111.5 -268.5t-111.5 -268.5t-269.5 -110.5q-157 0 -268 110.5t-111 268.5zM985 379q0 -141 99.5 -240.5 t240.5 -99.5q142 0 242 99.5t100 240.5q0 143 -99.5 242.5t-242.5 99.5q-141 0 -240.5 -100t-99.5 -242zM1171 379q0 64 45.5 108.5t108.5 44.5q65 0 109.5 -44.5t44.5 -108.5q0 -63 -45 -108.5t-109 -45.5q-63 0 -108.5 45.5t-45.5 108.5zM1210 379q0 -47 34 -81t81 -34 q49 0 83 33.5t34 81.5q0 49 -34 83t-83 34q-48 0 -81.5 -34t-33.5 -83z" />
<glyph unicode="&#x26;" horiz-adv-x="1480" d="M55 449q0 243 217 405q-116 113 -116 285q0 153 115.5 263.5t271.5 110.5q154 0 264.5 -110t110.5 -264q0 -190 -166 -316q14 -13 38.5 -35.5t43.5 -42.5l151 291l291 -143l-197 -379l312 -287l-215 -241q-211 188 -250 227q-63 -105 -169 -166t-225 -61 q-198 0 -337.5 135.5t-139.5 327.5zM94 449q0 -177 127.5 -301.5t310.5 -124.5q112 0 210.5 58.5t154.5 158.5q9 22 16 34q13 -12 110 -100t151 -135l163 184l-293 273q-6 6 -6 14q0 10 6 16l181 351l-221 108l-158 -305l-152 149q185 122 185 310q0 137 -99 236.5 t-237 99.5q-140 0 -245 -100t-105 -236q0 -182 143 -289q-242 -151 -242 -401zM340 457q0 67 43 123.5t104 91.5l236 -223l-4 -11q-13 -34 -35 -69t-65 -68t-91 -33q-79 0 -133.5 54.5t-54.5 134.5zM379 457q0 -65 42.5 -107.5t106.5 -42.5q79 0 148 135q-163 151 -195 183 q-102 -71 -102 -168zM440 1128q0 40 29 68.5t70 28.5q40 0 68 -28.5t28 -68.5q0 -36 -32 -82.5t-68 -58.5q0 -3 -24 18t-48 56t-23 67zM477 1126q0 -24 15 -48t30 -36l15 -12q23 9 41 40t18 58q0 25 -17 42.5t-40 17.5q-26 0 -44 -18t-18 -44z" />
<glyph unicode="'" horiz-adv-x="462" d="M78 874v623h291v-623h-291zM115 911h217v549h-217v-549z" />
<glyph unicode="(" horiz-adv-x="702" d="M80 358v697q0 322 270 536l221 -243q-92 -92 -118.5 -164.5t-26.5 -196.5v-563q0 -124 26.5 -196.5t118.5 -164.5l-221 -241q-270 214 -270 536zM117 358q0 -301 229 -485l174 190q-84 84 -108.5 157t-24.5 204v563q0 133 24.5 206t108.5 157l-174 190 q-229 -184 -229 -485v-697z" />
<glyph unicode=")" horiz-adv-x="702" d="M104 63q92 92 119 164.5t27 196.5v563q0 124 -27 196.5t-119 164.5l222 243q272 -213 272 -536v-697q0 -323 -272 -536zM156 63l174 -190q229 182 229 485v697q0 303 -229 485l-174 -190q84 -84 108.5 -157t24.5 -206v-563q0 -131 -24.5 -204t-108.5 -157z" />
<glyph unicode="*" horiz-adv-x="903" d="M55 895v301l35 -8l-31 20l213 213l19 -32l-6 36h301l-11 -36l21 32l213 -213l-33 -20l39 8v-301l-39 8l33 -20l-213 -211l-21 30l11 -36h-301l6 36l-19 -30l-213 211l31 20zM92 942l209 47l-180 -112l143 -146l115 180l-47 -206h207l-47 204l112 -178l146 146l-181 112 l207 -47v207l-207 -47l181 115l-146 143l-112 -180l47 209h-207l47 -209l-115 180l-143 -143l178 -115l-207 47v-207z" />
<glyph unicode="+" d="M80 375v293h366v358h291v-358h365v-293h-365v-361h-291v361h-366zM117 414h366v-361h217v361h363v215h-363v358h-217v-358h-366v-215z" />
<glyph unicode="," horiz-adv-x="460" d="M47 252l293 59l39 -434l-217 -27zM96 221l92 -330l150 19l-33 356z" />
<glyph unicode="-" horiz-adv-x="878" d="M84 436v293h678v-293h-678zM123 473h600v217h-600v-217z" />
<glyph unicode="." horiz-adv-x="464" d="M76 137q0 61 43 107.5t110 46.5q58 0 101 -47.5t43 -106.5q0 -60 -42.5 -102.5t-101.5 -42.5q-68 0 -110.5 42t-42.5 103zM113 137q0 -45 32 -75.5t84 -30.5q43 0 74 31t31 75t-31.5 79.5t-73.5 35.5q-50 0 -83 -35t-33 -80z" />
<glyph unicode="/" horiz-adv-x="735" d="M43 6l432 1514l187 -43l-429 -1493zM92 39l115 -14l407 1421l-112 27z" />
<glyph unicode="0" d="M70 506v485q0 138 69.5 258t190.5 192t262 72t262 -72t190.5 -192t69.5 -258v-485q0 -138 -69.5 -257.5t-190.5 -191t-262 -71.5t-262 71.5t-190.5 191t-69.5 257.5zM109 506q0 -127 64 -238.5t176 -178t243 -66.5q130 0 242 66.5t176.5 178t64.5 238.5v485 q0 127 -64.5 238.5t-176.5 178.5t-242 67q-131 0 -243 -67t-176 -178.5t-64 -238.5v-485zM377 510v477q0 85 64 150t151 65q86 0 149.5 -65t63.5 -150v-477q0 -85 -63.5 -150t-149.5 -65q-87 0 -151 65t-64 150zM416 510q0 -69 53 -122.5t123 -53.5t122 53t52 123v477 q0 71 -52 124.5t-122 53.5t-123 -53.5t-53 -124.5v-477z" />
<glyph unicode="1" d="M270 1167v332h572v-1499h-346v1167h-226zM307 1206h215q10 0 10 -12v-1155h273v1423h-498v-256z" />
<glyph unicode="2" d="M61 238l519 499q100 90 141 160.5t41 138.5q0 56 -40 100t-106 44q-64 0 -129 -65t-108 -157l-248 224q193 331 492 331q150 0 262 -65.5t168.5 -174t56.5 -243.5q0 -132 -73.5 -256t-235.5 -276l-174 -158h483v-340h-948zM104 227l82 -188h885v262h-526q-6 0 -6 4 q0 2 4 6l233 213q156 145 226.5 263.5t70.5 242.5q0 192 -121 318.5t-329 126.5q-281 0 -445 -285l189 -170q38 81 106 139t143 58q84 0 134.5 -56t50.5 -125q0 -75 -44.5 -152t-150.5 -173z" />
<glyph unicode="3" d="M180 178l166 303q151 -151 254 -151q64 0 109 39.5t45 103.5q0 72 -58.5 117.5t-142.5 58.5q-15 0 -65.5 2t-67.5 2v308l102 4q63 5 107.5 42.5t44.5 90.5q0 32 -26.5 57t-69.5 25q-96 0 -236 -140l-141 291q185 182 395 182q190 0 305 -112.5t115 -278.5q0 -80 -34 -152 t-91 -126q99 -58 152 -156.5t53 -218.5q0 -133 -61 -242.5t-174 -174t-255 -64.5q-229 0 -426 190zM227 186q166 -159 379 -159q198 0 325.5 127.5t127.5 314.5q0 119 -57 213.5t-162 146.5q-11 4 -11 7t7 10q64 50 103.5 122.5t39.5 153.5q0 151 -104.5 252t-278.5 101 q-195 0 -350 -152l106 -217q114 111 226 111q61 0 97 -37t36 -82q0 -68 -55.5 -116.5t-133.5 -53.5l-63 -4v-234l98 -4q100 -11 167 -66.5t67 -146.5q0 -81 -56 -130.5t-135 -49.5q-124 0 -244 127z" />
<glyph unicode="4" d="M72 229v318q214 346 290 465l213 336v-2l93 151h336v-926h133v-352h-133v-219h-347v229h-585zM111 268h573q10 0 10 -12v-217h273v219h131v274h-131v926h-279q-2 -4 -43 -69.5t-115.5 -184t-134.5 -215.5q-116 -180 -284 -454v-267zM408 526q0 4 2 6l276 478q2 2 6 2 q2 0 2 -482q0 -10 -10 -10h-270q-6 0 -6 6zM467 557h188q0 267 4 324z" />
<glyph unicode="5" d="M133 782q0 44 2 52l125 663h741v-342h-483l-29 -145q62 12 127 12q150 0 264.5 -68t173 -182t58.5 -254q0 -144 -69 -266t-191.5 -194t-269.5 -72q-130 0 -227 40t-210 132l123 340q184 -166 307 -166q88 0 141.5 53t53.5 127q0 71 -53.5 125.5t-130.5 54.5 q-91 0 -166 -43q-48 -27 -94 -63zM172 799l158 -164q29 23 71 45q84 49 185 49q94 0 157.5 -65t63.5 -152q0 -90 -63.5 -153.5t-168.5 -63.5q-67 0 -143 35t-147 98l-95 -258q99 -79 185 -113t207 -34q138 0 251.5 67t177.5 180.5t64 247.5q0 199 -125.5 333t-333.5 134 q-83 0 -165 -24h-9q-2 2 -2 6l45 215q3 10 13 10h465v268h-672l-115 -626q-4 -24 -4 -35z" />
<glyph unicode="6" d="M49 526q0 159 74 277l463 735l295 -188l-203 -310q199 -35 328 -174.5t129 -339.5q0 -147 -73 -271.5t-198 -196.5t-272 -72t-272 72t-198 196.5t-73 271.5zM88 526q0 -209 147.5 -356t356.5 -147t356.5 147t147.5 356q0 199 -135 332t-338 154q-5 0 -5 2q0 3 3 6 l206 319l-229 146l-442 -705q-68 -107 -68 -254zM358 526q0 99 66 166.5t168 67.5q98 0 165.5 -68t67.5 -166q0 -100 -67 -165.5t-166 -65.5q-103 0 -168.5 65t-65.5 166zM397 526q0 -85 54.5 -139.5t140.5 -54.5q84 0 139 55t55 139t-55.5 140.5t-138.5 56.5 q-85 0 -140 -56.5t-55 -140.5z" />
<glyph unicode="7" d="M143 1157v340h869l69 -219l-577 -1313l-318 139l252 574l211 479h-506zM180 1194h516q9 0 9 -6q-70 -157 -215.5 -489.5t-253.5 -575.5l247 -109l559 1266l-57 180h-805v-266z" />
<glyph unicode="8" d="M86 489q0 101 45 190.5t117 154.5q-94 117 -94 239q0 181 128 309.5t310 128.5q180 0 309 -128.5t129 -309.5q0 -69 -24.5 -124t-71.5 -115q73 -67 118.5 -155.5t45.5 -189.5q0 -137 -68 -253.5t-184.5 -184t-253.5 -67.5t-253.5 67.5t-184.5 184t-68 253.5zM123 489 q0 -127 63 -235t171 -171t235 -63t235 63t171 171t63 235q0 99 -51 187.5t-129 154.5q52 60 81 117t29 125q0 164 -117.5 282t-281.5 118q-165 0 -282 -117.5t-117 -282.5q0 -118 108 -242q-77 -63 -127.5 -152.5t-50.5 -189.5zM393 489q0 85 57 141t142 56t140.5 -56 t55.5 -141t-55.5 -141.5t-140.5 -56.5t-142 56.5t-57 141.5zM430 489q0 -69 46.5 -115t115.5 -46q68 0 114 46t46 115q0 67 -46 113.5t-114 46.5q-69 0 -115.5 -46t-46.5 -114zM459 1073q0 55 38.5 93t94.5 38t93.5 -38t37.5 -93q0 -56 -38 -94.5t-93 -38.5q-56 0 -94.5 39 t-38.5 94zM498 1073q0 -40 27 -67t67 -27t66 27t26 67t-26 66t-66 26t-67 -26t-27 -66z" />
<glyph unicode="9" d="M49 965q0 148 73 273t198 197t272 72t272 -72t198 -197t73 -273q0 -157 -74 -275q-39 -61 -211 -331t-252 -398l-295 189l199 301q-199 36 -326 175.5t-127 338.5zM88 965q0 -132 63 -239t170 -169.5t240 -75.5q4 0 4 -4t-2 -4l-207 -311l230 -148l442 697q68 107 68 254 q0 209 -147.5 357t-356.5 148t-356.5 -148t-147.5 -357zM358 965q0 102 67.5 167.5t166.5 65.5q103 0 168 -65t65 -168q0 -99 -65.5 -166.5t-167.5 -67.5q-98 0 -166 68t-68 166zM397 965q0 -82 56 -138.5t139 -56.5q84 0 139 56t55 139q0 86 -54.5 141t-139.5 55 q-84 0 -139.5 -55t-55.5 -141z" />
<glyph unicode=":" horiz-adv-x="468" d="M78 137q0 61 43 107.5t110 46.5q58 0 101 -47.5t43 -106.5q0 -60 -42.5 -102.5t-101.5 -42.5q-68 0 -110.5 42t-42.5 103zM78 803q0 68 42 110.5t111 42.5q60 0 102 -43.5t42 -109.5q0 -60 -42.5 -103t-101.5 -43q-68 0 -110.5 42.5t-42.5 103.5zM115 137q0 -45 32 -75.5 t84 -30.5q43 0 74 31t31 75t-31.5 79.5t-73.5 35.5q-50 0 -83 -35t-33 -80zM115 803q0 -45 32.5 -76t83.5 -31q43 0 74 31.5t31 75.5q0 50 -30.5 82.5t-74.5 32.5q-52 0 -84 -32t-32 -83z" />
<glyph unicode=";" horiz-adv-x="462" d="M47 252l293 59l39 -434l-217 -27zM72 807q0 65 42 108t103 43q66 0 109 -42.5t43 -108.5q0 -61 -43.5 -103t-108.5 -42q-60 0 -102.5 42.5t-42.5 102.5zM96 221l92 -330l150 19l-33 356zM111 807q0 -44 31 -75.5t75 -31.5q49 0 81 31t32 76q0 49 -32 81t-81 32 q-45 0 -75.5 -32t-30.5 -81z" />
<glyph unicode="&#x3c;" horiz-adv-x="1372" d="M94 412l2 211l1078 446v-250l-734 -313q107 -37 731 -291v-252zM133 436l1002 -416v170q-777 318 -777 322l777 332v168l-1000 -414z" />
<glyph unicode="=" horiz-adv-x="1169" d="M92 219v293h942v-293h-942zM92 539v292h942v-292h-942zM129 258h866v215h-866v-215zM129 575h866v218h-866v-218z" />
<glyph unicode="&#x3e;" horiz-adv-x="1370" d="M94 819v250l1077 -446l3 -211l-1078 -449v252q443 181 729 291zM133 844l776 -332q0 -4 -774 -322v-170l1000 416v162l-1002 414v-168z" />
<glyph unicode="?" horiz-adv-x="921" d="M18 1241q67 89 138 148q160 124 295 124q183 0 285 -96t102 -287q0 -63 -12.5 -116t-28 -88t-46 -71.5t-50 -54.5t-56.5 -48q-29 -25 -45 -40.5t-36.5 -41.5t-30 -54.5t-9.5 -62.5q0 -67 45 -225l-153 -2q65 -8 107 -55t42 -111q0 -68 -49.5 -118t-120.5 -50 q-66 0 -116 50.5t-50 117.5q0 64 42.5 111t103.5 55h-150q-41 181 -41 276q0 63 16.5 117.5t49 100.5t59.5 75t70 68q35 33 53.5 53.5t35.5 49t17 52.5q0 51 -45 51q-30 0 -71.5 -28t-68 -54.5t-64.5 -68.5zM68 1243l168 -170q29 31 43 45.5t44.5 40t59 37.5t57.5 12 q82 0 82 -90q0 -43 -31 -86t-75 -84t-87.5 -87.5t-74.5 -113.5t-31 -145q0 -93 33 -237l264 2q-33 112 -33 186q0 51 17 92t44.5 69.5t61 55.5t67 58.5t61 69.5t44.5 97.5t17 134.5q0 171 -91.5 258t-256.5 87q-135 0 -271 -115q-65 -53 -112 -117zM266 160q0 -52 39 -90.5 t90 -38.5q55 0 93 38t38 91q0 56 -38 93.5t-93 37.5q-52 0 -90.5 -38t-38.5 -93z" />
<glyph unicode="@" horiz-adv-x="1863" d="M100 705q0 171 70 322.5t188.5 257.5t279 167t337.5 61q107 0 210 -24.5t195 -75.5t162 -122.5t111 -173t41 -220.5q0 -278 -217 -473q-140 -100 -281 -100q-147 0 -195 96q-90 -96 -227 -96q-144 0 -219.5 82t-75.5 233q0 214 123 356t299 142q131 0 199 -78q7 11 24 51 h201l-129 -526q-8 -31 -8 -37q0 -27 35 -27q81 0 147 80q109 109 109 297q0 183 -138.5 294.5t-375.5 111.5q-129 0 -248 -47t-207.5 -128t-141.5 -196t-53 -244q0 -141 77.5 -254.5t211.5 -177t297 -63.5q302 0 514 151l98 -135q-288 -223 -602 -223q-125 0 -243 29 t-221.5 89t-180.5 144t-121.5 202t-44.5 255zM139 705q0 -130 42.5 -241.5t115.5 -191.5t171.5 -137t210.5 -84.5t232 -27.5q304 0 551 194l-55 74q-188 -135 -506 -135q-173 0 -316 68t-226 190t-83 274q0 137 56 259.5t150 208t220 135.5t263 50q255 0 404 -121.5 t149 -322.5q0 -203 -119 -322q-76 -94 -176 -94q-33 0 -53.5 19t-20.5 47q0 11 10 47l119 477h-129l-45 -92q-28 63 -76.5 91t-126.5 28q-160 0 -272.5 -131t-112.5 -328q0 -132 66.5 -204.5t191.5 -72.5q82 0 140.5 34t105.5 104q4 -73 53 -105.5t123 -32.5q131 0 256 93 q205 180 205 442q0 111 -39 206.5t-105 163t-153.5 115t-185 70.5t-199.5 23q-227 0 -418 -99t-304.5 -276.5t-113.5 -394.5zM672 639q0 146 73 252t175 106q60 0 100.5 -36.5t40.5 -104.5q0 -28 -6 -55l-35 -135q-21 -89 -80.5 -145t-128.5 -56q-139 0 -139 174zM709 639 q0 -137 102 -137q56 0 105 48.5t69 125.5l33 133q4 36 4 47q0 50 -29.5 77.5t-72.5 27.5q-87 0 -149 -96t-62 -226z" />
<glyph unicode="A" horiz-adv-x="1536" d="M4 0l610 1530h265l614 -1530h-379l-121 270h-495l-111 -270h-383zM61 39h299l109 262q4 8 14 8h527q10 0 14 -8l115 -262h297l-584 1452h-211zM578 573q0 1 1 4.5t1 4.5l161 407q4 8 7 8t6 -8l159 -407q2 -4 2 -9q0 -6 -8 -6h-323q-6 0 -6 6zM635 606h225l-115 291z" />
<glyph unicode="B" horiz-adv-x="1169" d="M88 0v1530h455q116 0 215 -59.5t156 -159t57 -213.5q0 -136 -70 -250q73 -68 114.5 -160.5t41.5 -198.5q0 -201 -140.5 -342.5t-341.5 -146.5h-487zM127 39h448q185 5 314 135t129 315q0 106 -45 198t-123 155q82 116 82 256q0 107 -55 198.5t-144.5 143t-189.5 51.5 h-416v-1452zM403 328v346q0 12 13 12h149q74 0 125 -54t51 -130q0 -75 -51 -131t-125 -56h-149q-13 0 -13 13zM403 936v266q0 12 13 12h108q61 0 102.5 -41.5t41.5 -99.5t-37.5 -101.5t-95.5 -47.5h-119q-13 0 -13 12zM442 354h123q58 0 97.5 44t39.5 104t-39.5 102.5 t-97.5 42.5h-123v-293zM442 963h93q40 3 67 35.5t27 74.5t-30.5 72.5t-74.5 30.5h-82v-213z" />
<glyph unicode="C" horiz-adv-x="1460" d="M86 766q0 159 62 303.5t166.5 249t249.5 166t304 61.5q282 0 469 -155q10 -6 21 -15t17 -14.5t7 -5.5l-217 -285q-143 118 -297 121q-182 -8 -305 -129t-123 -297q0 -112 62.5 -209t160 -153t205.5 -64q74 2 153 33t144 86l215 -281q-14 -14 -37 -32.5t-72.5 -48.5 t-104.5 -54t-135 -41.5t-163 -17.5q-159 0 -304 62t-249.5 166.5t-166.5 249.5t-62 304zM125 766q0 -152 58.5 -289.5t158 -237t237 -158t289.5 -58.5q97 0 184 20t145.5 51.5t86.5 51t47 36.5l-172 221q-126 -102 -291 -102q-121 7 -227.5 68t-173 166.5t-66.5 230.5 q0 191 134 324t333 141q163 0 291 -103l172 220q-2 1 -5 4q-21 17 -38 29.5t-63 38.5t-92 43t-117.5 30.5t-147.5 13.5q-152 0 -289.5 -58.5t-237 -157.5t-158 -236.5t-58.5 -288.5z" />
<glyph unicode="D" horiz-adv-x="1503" d="M92 0v1530h516q157 0 299.5 -61.5t245 -164.5t163 -244t60.5 -294q0 -154 -60.5 -295.5t-163 -244.5t-245 -164.5t-299.5 -61.5h-516zM131 39h477q148 0 283.5 58.5t233 156.5t155 232t57.5 280t-57.5 279.5t-155 231.5t-233 156t-283.5 58h-477v-1452zM408 328v874 q0 12 12 12h198q197 0 320 -124.5t123 -323.5t-128 -325t-325 -126h-188q-12 0 -12 13zM446 354h162q181 0 297.5 115t116.5 297t-111.5 296t-292.5 114h-172v-822z" />
<glyph unicode="E" horiz-adv-x="1079" d="M86 0v1530h877v-354h-523v-230h523v-354h-523v-238h523v-354h-877zM125 39h799v276h-510q-13 0 -13 13v290q0 11 13 11h510v278h-510q-13 0 -13 11v284q0 12 13 12h510v277h-799v-1452z" />
<glyph unicode="F" horiz-adv-x="1064" d="M86 0v1530h879v-354h-525v-230h525v-354h-525v-592h-354zM125 39h276v579q0 11 13 11h512v278h-512q-13 0 -13 11v284q0 12 13 12h512v277h-801v-1452z" />
<glyph unicode="G" horiz-adv-x="1677" d="M90 766q0 159 61.5 303.5t166 249t249 166t303.5 61.5q102 0 204.5 -27.5t177 -68t117 -69t65.5 -48.5l-215 -282q-72 58 -172 99.5t-177 41.5q-175 0 -300.5 -125.5t-125.5 -300.5q0 -178 129 -303t320 -125q170 0 260 70v114h-352v346h710v-600 q-102 -127 -262.5 -205.5t-378.5 -78.5q-159 0 -303.5 62t-249 166.5t-166 249.5t-61.5 304zM129 766q0 -152 58.5 -289.5t157.5 -237t236.5 -158t288.5 -58.5q207 0 357.5 71.5t245.5 186.5v548h-633v-268h344q8 0 8 -6v-166q-104 -90 -299 -90q-207 0 -347 136.5 t-140 330.5q0 192 136 328.5t328 136.5q84 0 181 -37.5t161 -87.5l170 221q-20 17 -56 40.5t-103 58.5t-161 58t-192 23q-151 0 -288.5 -58.5t-236.5 -157.5t-157.5 -236.5t-58.5 -288.5z" />
<glyph unicode="H" horiz-adv-x="1343" d="M90 0v1530h354v-584h418v584h355v-1530h-355v592h-418v-592h-354zM129 39h277v579q0 11 12 11h473q10 0 10 -11v-579h277v1452h-277v-573q0 -11 -10 -11h-473q-12 0 -12 11v573h-277v-1452z" />
<glyph unicode="I" horiz-adv-x="526" d="M78 0v1530h356v-1530h-356zM117 39h278v1452h-278v-1452z" />
<glyph unicode="J" horiz-adv-x="964" d="M31 236l317 188q12 -40 33.5 -63t44.5 -23q35 0 59.5 25.5t24.5 60.5v1106h354v-1106q0 -185 -127 -312.5t-311 -127.5q-120 0 -226 67.5t-169 184.5zM82 223q51 -93 143 -146.5t201 -53.5q167 0 283 116t116 285v1067h-276v-1067q0 -53 -35.5 -89t-87.5 -36 q-35 0 -63.5 17.5t-38.5 50.5z" />
<glyph unicode="K" horiz-adv-x="1193" d="M90 0v1530h354v-549l336 549h406l-469 -764l479 -766h-418q-64 103 -123.5 199t-80 128.5t-46 74t-40.5 67.5t-44 76v-545h-354zM129 39h277v631l27 -40q31 -48 205 -328q99 -160 163 -263h325l-446 715q-4 4 -4 12q0 2 4 10l438 715h-315l-389 -625q-4 -4 -6 -4t-2 629 h-277v-1452z" />
<glyph unicode="L" horiz-adv-x="1024" d="M86 0v1532h354v-1178h486v-354h-840zM125 39h762v276h-463q-23 0 -23 25v1153h-276v-1454z" />
<glyph unicode="M" horiz-adv-x="1789" d="M96 0v1530h430l342 -938l344 938h437v-1530h-353v791q-7 -18 -21 -55.5t-36.5 -97.5t-85.5 -228.5t-152 -409.5h-266l-276 776v-776h-363zM135 39h285v962l342 -962h211q353 955 362 954v-954h275v1452h-371l-371 -1014l-368 1014h-365v-1452z" />
<glyph unicode="N" horiz-adv-x="1456" d="M92 0v1528l320 2l559 -832v830h354v-1528h-317l-562 834v-834h-354zM131 39h277v919l620 -919h258v1450h-276v-918l-621 920l-258 -2v-1450z" />
<glyph unicode="O" horiz-adv-x="1794" d="M92 766q0 159 61.5 303.5t166 249t249 166t303.5 61.5t303.5 -61.5t249 -166t166.5 -249t62 -303.5t-62 -304t-166.5 -249.5t-249 -166.5t-303.5 -62t-303.5 62t-249 166.5t-166 249.5t-61.5 304zM131 766q0 -152 58.5 -289.5t157.5 -237t236.5 -158t288.5 -58.5 q152 0 289.5 58.5t236.5 158t157.5 237t58.5 289.5q0 151 -58.5 288.5t-157.5 236.5t-236.5 157.5t-289.5 58.5q-151 0 -288.5 -58.5t-236.5 -157.5t-157.5 -236.5t-58.5 -288.5zM408 766q0 192 136 328.5t328 136.5t328.5 -136.5t136.5 -328.5t-136.5 -328.5t-328.5 -136.5 t-328 136.5t-136 328.5zM446 766q0 -176 125.5 -301t300.5 -125q177 0 301.5 124.5t124.5 301.5q0 175 -125 300.5t-301 125.5q-175 0 -300.5 -125.5t-125.5 -300.5z" />
<glyph unicode="P" horiz-adv-x="1138" d="M88 0l2 1530h483q201 0 331 -136t130 -337q0 -133 -58.5 -244t-164.5 -176.5t-238 -65.5h-131v-571h-354zM127 39h276v559q0 12 11 12h159q121 0 218.5 60t150.5 162t53 225q0 186 -119 310t-303 124h-446v-1452zM403 899v303q0 12 11 12h159q41 0 71 -16t45.5 -41 t22.5 -50t7 -50q0 -26 -7 -53.5t-22.5 -55t-45.5 -44.5t-71 -17h-159q-11 0 -11 12zM442 926h131q56 0 81.5 41.5t25.5 89.5q0 43 -25.5 81t-81.5 38h-131v-250z" />
<glyph unicode="Q" horiz-adv-x="1794" d="M92 766q0 159 61.5 303.5t166 249t249 166t303.5 61.5t303.5 -61.5t249 -166t166.5 -249t62 -303.5q0 -254 -144 -453q13 -12 57.5 -52t61.5 -58l-266 -236l-115 111q-180 -94 -375 -94q-159 0 -303.5 62t-249 166.5t-166 249.5t-61.5 304zM131 766q0 -152 58.5 -289.5 t157.5 -237t236.5 -158t288.5 -58.5q208 0 381 102l111 -107l207 185l-113 106q156 202 156 457q0 151 -58.5 288.5t-157.5 236.5t-236.5 157.5t-289.5 58.5q-151 0 -288.5 -58.5t-236.5 -157.5t-157.5 -236.5t-58.5 -288.5zM408 766q0 192 136 328.5t328 136.5 t328.5 -136.5t136.5 -328.5q0 -143 -80 -258l-135 141l-192 -184l123 -127q-81 -37 -181 -37q-192 0 -328 136.5t-136 328.5zM446 766q0 -176 125.5 -301t300.5 -125q66 0 113 12q-86 86 -113 115l250 235l131 -133q45 83 45 197q0 175 -125 300.5t-301 125.5 q-175 0 -300.5 -125.5t-125.5 -300.5z" />
<glyph unicode="R" horiz-adv-x="1218" d="M90 0v1530h494q143 0 253.5 -68t167 -179.5t56.5 -246.5q0 -107 -34 -187t-107 -153q-35 -35 -78 -61l350 -635h-408l-307 569h-33v-569h-354zM129 39h277v557q0 12 12 12h71q13 0 19 -12l301 -557h317l-333 604q-7 10 0 10q64 36 98 70q68 67 99.5 140.5t31.5 172.5 q0 124 -52.5 227t-153.5 165.5t-232 62.5h-455v-1452zM406 868v334q0 12 12 12h166q74 0 117.5 -52t43.5 -126q0 -75 -43.5 -127.5t-117.5 -52.5h-166q-12 0 -12 12zM444 895h140q56 0 89.5 41t33.5 100q0 58 -33.5 99t-89.5 41h-140v-281z" />
<glyph unicode="S" horiz-adv-x="1103" d="M76 350l282 123q37 -64 77 -99.5t97 -35.5q44 0 74.5 32.5t30.5 75.5q0 36 -13 63.5t-39.5 46.5t-51.5 31t-63 27q-2 1 -3.5 1.5t-3.5 1t-4 1.5q-82 32 -145.5 71t-117.5 93t-83 127.5t-29 161.5q0 214 126 342.5t337 128.5q61 0 123 -18t120 -53t102 -94.5t62 -133.5 l-315 -149q-23 51 -53 71.5t-56 20.5q-37 0 -64.5 -32t-27.5 -71q0 -72 129 -129v2q136 -53 199 -94h-2q120 -71 173.5 -168.5t53.5 -247.5q0 -192 -130.5 -327t-317.5 -135h-17q-164 0 -279.5 96t-170.5 270zM121 330q43 -135 151.5 -221t253.5 -86h17q170 0 289.5 123 t119.5 300q0 137 -49 227t-158 156q-77 47 -194 91q-66 29 -109 71.5t-43 91.5q0 55 39 98.5t92 43.5q78 0 127 -82l250 121q-35 112 -140 175.5t-220 63.5q-192 0 -308 -118t-116 -314q0 -83 25.5 -150t75.5 -116t109 -84t138 -66q99 -38 130 -60q74 -52 75 -149 q0 -59 -41.5 -103t-102.5 -44q-69 0 -111.5 33t-78.5 92z" />
<glyph unicode="T" horiz-adv-x="1193" d="M80 1176v354h1001v-354h-325v-1176h-355v1176h-321zM119 1214h311q2 0 8 -6q2 -2 2 -4v-1165h277v1165l12 10h313v277h-923v-277z" />
<glyph unicode="U" horiz-adv-x="1243" d="M86 451v1077h354v-1039q0 -63 54 -104t116 -41q63 0 110.5 40.5t47.5 98.5v1045h354v-1077q0 -131 -73 -238t-190 -165t-249 -58q-134 0 -254 58t-195 165t-75 238zM125 451q0 -120 69.5 -218t180.5 -151t235 -53q123 0 231 53t175 151t67 218v1038h-276v-1006 q0 -74 -59.5 -126t-137.5 -52q-77 0 -143 52t-66 132v1000h-276v-1038z" />
<glyph unicode="V" horiz-adv-x="1413" d="M16 1530h379l293 -891l295 891h383l-547 -1530h-266zM72 1491l510 -1452h211l516 1452h-299l-316 -956l-6 -15q-6 6 -6 15l-313 956h-297z" />
<glyph unicode="W" horiz-adv-x="1912" d="M57 1530h367l182 -721l191 721h274l182 -719l185 719h368l-413 -1530h-281q-159 616 -184 723l-183 -719l-276 -4zM106 1491l392 -1452h217l211 821q0 19 215 -821h221l393 1452h-289l-209 -819q-4 -4 -6 -4q-1 0 -21 81q-77 307 -188 742h-217l-215 -819q-4 -4 -6 -4 q-23 97 -209 823h-289z" />
<glyph unicode="X" horiz-adv-x="1347" d="M-29 0l475 766l-473 766h418l264 -432l267 430h419l-477 -764l477 -766h-419l-267 432l-268 -432h-416zM41 39h324l280 450q3 7 10 7t11 -7l276 -450h330l-447 715q-4 4 -4 12q0 2 4 10l447 715h-330l-278 -453q-3 -6 -9 -6q-5 0 -8 6l-278 455h-326l442 -717 q1 -3 2.5 -5.5t1.5 -4.5l-4 -12z" />
<glyph unicode="Y" horiz-adv-x="1216" d="M-10 1530h391l211 -529l213 527h387l-422 -973v-555h-354v555q-243 554 -426 975zM47 1491l408 -930v-522h276v522l404 928h-304l-233 -578q-3 -6 -6 -6t-6 6l-232 580h-307z" />
<glyph unicode="Z" horiz-adv-x="1200" d="M86 0v264q191 302 295 471l268 441h-563v354h991l-4 -262q-51 -96 -123 -211q-409 -657 -436 -703h563v-354h-991zM125 39h913v276h-542q-35 0 -35 17q1 14 145.5 249.5t288.5 464.5t143 230v215h-913v-277h547q33 0 33 -14q0 -4 -7 -18q-139 -232 -284 -465 q-169 -276 -289 -465v-213z" />
<glyph unicode="[" horiz-adv-x="727" d="M84 1624h539v-305h-193v-1294h193v-304h-535zM121 1585l4 -1827h459v230h-183q-8 0 -8 10v1348q0 12 8 12h183v227h-463z" />
<glyph unicode="\" horiz-adv-x="737" d="M43 1473l186 55l435 -1501l-187 -52zM92 1446l412 -1426l112 33l-413 1428z" />
<glyph unicode="]" horiz-adv-x="727" d="M84 25h190v1294h-190v305h539l-5 -1903h-534v304zM121 -12v-230h459l4 1827h-463v-227h182q10 0 10 -12v-1348q0 -10 -10 -10h-182z" />
<glyph unicode="^" horiz-adv-x="1146" d="M-2 670l455 827h200l453 -827h-315l-238 434l-238 -434h-317zM63 707h230l260 481l262 -481h227l-413 753h-152z" />
<glyph unicode="_" horiz-adv-x="1372" d="M-12 -45h1345v-211h-1345v211zM25 -84v-133h1271v133h-1271z" />
<glyph unicode="`" horiz-adv-x="694" d="M61 1268l125 272l426 -182l-157 -248zM113 1290l327 -133l117 184l-352 150z" />
<glyph unicode="a" horiz-adv-x="1202" d="M33 512q0 106 42 203.5t113 168t168 112.5t203 42q122 0 219 -47v33h312v-1024h-312v31q-99 -45 -219 -45q-106 0 -203 42t-168 112.5t-113 168t-42 203.5zM72 512q0 -132 66 -244.5t178 -178.5t243 -66q144 0 256 69v-53h236v946h-236v-55q-117 71 -256 71 q-131 0 -243 -66t-178 -178.5t-66 -244.5zM328 512q0 100 67 168t164 68q98 0 166 -68t68 -168t-68 -168t-166 -68q-97 0 -164 68t-67 168zM365 512q0 -84 56 -140.5t138 -56.5q84 0 140.5 56.5t56.5 140.5t-56.5 140.5t-140.5 56.5q-82 0 -138 -56.5t-56 -140.5z" />
<glyph unicode="b" horiz-adv-x="1232" d="M70 0v1405h333v-404q105 37 199 37q106 0 203 -42t168 -112.5t113 -168t42 -203.5t-42 -203.5t-113 -168t-168 -112.5t-203 -42q-116 0 -211 39v-25h-321zM109 39h243v47q120 -63 250 -63q131 0 244 66t179.5 178.5t66.5 244.5t-66.5 244.5t-179.5 178.5t-244 66 q-129 0 -235 -61v428h-258v-1329zM369 512q0 100 67.5 168t165.5 68t166 -68t68 -168t-68 -168t-166 -68t-165.5 68t-67.5 168zM406 512q0 -84 56 -140.5t140 -56.5q82 0 138.5 56.5t56.5 140.5t-56.5 140.5t-138.5 56.5q-84 0 -140 -56.5t-56 -140.5z" />
<glyph unicode="c" horiz-adv-x="1126" d="M49 514q0 143 70.5 263.5t193 190.5t267.5 70q130 0 255.5 -74.5t196.5 -185.5l-241 -180l-37 29q-29 26 -46 39t-51 26t-73 13q-82 0 -138.5 -55.5t-56.5 -135.5q0 -82 56.5 -138.5t138.5 -56.5q53 0 96 32.5t96 103.5l289 -146q-76 -147 -205.5 -235t-279.5 -88 q-145 0 -267.5 70t-193 191.5t-70.5 266.5zM88 514q0 -204 143.5 -347.5t348.5 -143.5q138 0 254 73.5t180 196.5l-226 113q-46 -64 -93 -93.5t-111 -29.5q-97 0 -164.5 67t-67.5 164q0 95 67.5 162t164.5 67q27 0 51 -5t40 -10.5t35.5 -18.5t27.5 -19.5t27 -23.5t23 -21 l193 141q-59 92 -170 153.5t-231 61.5q-135 0 -248 -65.5t-178.5 -177.5t-65.5 -244z" />
<glyph unicode="d" horiz-adv-x="1241" d="M70 512q0 106 42 203.5t113 168t169 112.5t204 42q113 0 197 -37v402h333v-1403h-319v31q-102 -45 -211 -45q-106 0 -204 42t-169 112.5t-113 168t-42 203.5zM109 512q0 -132 66 -244.5t178.5 -178.5t244.5 -66q125 0 248 67v-51h246v1327h-258v-426q-109 61 -236 61 q-132 0 -244.5 -66t-178.5 -178.5t-66 -244.5zM365 512q0 100 67.5 168t165.5 68t165.5 -68t67.5 -168t-67.5 -168t-165.5 -68t-165.5 68t-67.5 168zM401 512q0 -84 56.5 -140.5t140.5 -56.5q83 0 139 56t56 141t-56 141t-139 56q-84 0 -140.5 -56.5t-56.5 -140.5z" />
<glyph unicode="e" horiz-adv-x="1091" d="M35 514q0 143 68 263t187 189.5t261 69.5q225 0 349 -138t124 -366q0 -43 -10 -145h-606q25 -43 73 -67.5t109 -24.5q59 0 120.5 22t149.5 68l139 -246q-116 -84 -214 -118.5t-220 -34.5q-230 0 -380 149t-150 379zM74 514q0 -214 138.5 -352.5t352.5 -138.5 q115 0 201.5 29t183.5 98l-104 184q-75 -39 -133 -57.5t-123 -18.5q-87 0 -150.5 43.5t-85.5 114.5q0 8 6 8h619q6 58 6 108q0 211 -113.5 339t-320.5 128q-200 0 -338.5 -141.5t-138.5 -343.5zM350 621q0 12 15 40.5t41 53.5q59 59 137 59q88 0 139 -51q41 -41 41 -105 q0 -4 -6 -4h-359q-8 0 -8 7zM401 653h279q-6 21 -25 43q-39 39 -112 39q-64 0 -111 -47q-10 -8 -31 -35z" />
<glyph unicode="f" horiz-adv-x="870" d="M35 717v307h153v53q0 150 88 240t244 90h207v-299h-139q-66 0 -66 -72v-12h275v-307h-275v-717h-334v717h-153zM74 756h153v-717h258v717h275v229h-275v51q0 109 103 109h102v225h-170q-137 0 -215 -80t-78 -213v-92h-153v-229z" />
<glyph unicode="g" horiz-adv-x="1245" d="M70 512q0 106 42 203.5t113 168t169 112.5t204 42q115 0 211 -41v27h319v-885q0 -152 -74.5 -282t-204 -206.5t-284.5 -76.5q-102 0 -205 45t-190 123l213 225q111 -86 190 -86q67 0 122.5 37t82.5 98q-82 -30 -180 -30q-106 0 -204 42t-169 112.5t-113 168t-42 203.5z M109 512q0 -132 66 -244.5t178.5 -178.5t244.5 -66q127 0 236 61v-2l2 -4q-12 -99 -87.5 -167.5t-175.5 -68.5q-91 0 -186 74l-162 -172q69 -62 157.5 -97.5t182.5 -35.5q145 0 266.5 71.5t191 192.5t69.5 264v846h-246v-49q-113 65 -248 65q-132 0 -244.5 -66 t-178.5 -178.5t-66 -244.5zM365 512q0 100 67.5 168t165.5 68t165.5 -68t67.5 -168t-67.5 -168t-165.5 -68t-165.5 68t-67.5 168zM401 512q0 -84 56.5 -140.5t140.5 -56.5q83 0 139 56t56 141t-56 141t-139 56q-84 0 -140.5 -56.5t-56.5 -140.5z" />
<glyph unicode="h" horiz-adv-x="1095" d="M68 0v1405h333v-383q52 16 125 16q220 0 340.5 -118.5t120.5 -337.5v-582h-334v578q0 54 -37 90.5t-90 36.5t-90 -36.5t-37 -90.5v-578h-331zM106 39h256v539q0 69 48 117t116 48q69 0 117.5 -48t48.5 -117v-539h258v543q0 200 -111 309.5t-313 109.5q-77 0 -164 -34v401 h-256v-1329z" />
<glyph unicode="i" horiz-adv-x="462" d="M55 0v1026h162q-69 1 -115.5 50t-46.5 118q0 68 49.5 118t120.5 50q66 0 116 -50.5t50 -117.5q0 -68 -48 -117t-112 -51h158v-1026h-334zM94 39h258v948h-258v-948zM94 1194q0 -56 38 -93.5t93 -37.5q52 0 90.5 38t38.5 93q0 52 -39 90.5t-90 38.5q-55 0 -93 -38t-38 -91 z" />
<glyph unicode="j" horiz-adv-x="462" d="M-31 -94h86v1122h140q-61 9 -100.5 55.5t-39.5 110.5q0 68 49 118t119 50q66 0 116 -50.5t50 -117.5q0 -63 -40.5 -110t-100.5 -56h139v-1186q0 -71 -22.5 -124.5t-60.5 -84t-81.5 -45t-91.5 -14.5h-162v332zM6 -133v-256h125q40 0 77.5 13t70 39t52 72.5t19.5 106.5 v1147h-258v-1071q0 -42 -22 -51h-64zM92 1194q0 -56 38 -93.5t93 -37.5q52 0 90.5 38t38.5 93q0 52 -39 90.5t-90 38.5q-55 0 -93 -38t-38 -91z" />
<glyph unicode="k" horiz-adv-x="958" d="M68 0v1499h333v-776l189 301h373l-320 -510l326 -514h-381l-137 219q-7 12 -18 29.5t-19 30t-13 22.5v-301h-333zM104 39h258v381q0 8 5 8q1 -1 15 -24.5t28 -43.5q12 -20 76 -123t124 -198h289l-293 465l-4 12l4 8l289 461h-283l-241 -383q-1 0 -3 -1t-3 -1q-3 0 -3 4 v858h-258v-1423z" />
<glyph unicode="l" horiz-adv-x="462" d="M55 0v1403h334v-1403h-334zM94 39h258v1327h-258v-1327z" />
<glyph unicode="m" horiz-adv-x="1728" d="M78 0v1024h313v-10q58 24 148 24q167 0 292 -84q115 84 295 84q219 0 340 -118.5t121 -337.5v-582h-334v578q0 54 -37 90.5t-90 36.5q-52 0 -89.5 -33t-37.5 -82v-590h-333v578q0 54 -37 90.5t-90 36.5q-51 0 -87.5 -33t-39.5 -84v-588h-334zM115 39h258v551 q5 66 52 109.5t114 43.5q68 0 115.5 -48t47.5 -117v-539h259v551q0 65 48.5 109t116.5 44t116 -48t48 -117v-539h258v543q0 200 -111 309.5t-311 109.5q-181 0 -295 -94q-118 94 -292 94q-114 0 -187 -49v33h-237v-946z" />
<glyph unicode="n" horiz-adv-x="1091" d="M66 0v1024h311v-12q65 26 149 26q220 0 340.5 -118.5t120.5 -337.5v-582h-334v578q0 54 -37 90.5t-90 36.5q-51 0 -87.5 -33t-39.5 -84v-588h-333zM104 39h258v551q3 66 50.5 109.5t113.5 43.5q69 0 117.5 -48t48.5 -117v-539h258v543q0 200 -111 309.5t-313 109.5 q-108 0 -188 -51v35h-234v-946z" />
<glyph unicode="o" horiz-adv-x="1191" d="M51 514q0 143 70.5 263.5t192.5 190.5t266 70q143 0 264 -70t191.5 -190.5t70.5 -263.5q0 -145 -70.5 -266.5t-191.5 -191.5t-264 -70q-144 0 -266 70t-192.5 191.5t-70.5 266.5zM88 514q0 -134 66 -247t179 -178.5t247 -65.5q202 0 344.5 143.5t142.5 347.5 q0 201 -142.5 344t-344.5 143q-134 0 -247 -65.5t-179 -177.5t-66 -244zM348 514q0 95 67.5 162t164.5 67q95 0 162 -67t67 -162q0 -97 -67 -164t-162 -67q-97 0 -164.5 67t-67.5 164zM387 514q0 -82 55.5 -138.5t137.5 -56.5q80 0 136 56.5t56 138.5q0 79 -56 135t-136 56 q-81 0 -137 -55.5t-56 -135.5z" />
<glyph unicode="p" horiz-adv-x="1230" d="M70 -389v1413h321v-29q97 43 211 43q106 0 203 -42t168 -112.5t113 -168t42 -203.5t-42 -203.5t-113 -168t-168 -112.5t-203 -42q-115 0 -199 37v-412h-333zM109 -350h258v434q106 -61 235 -61q131 0 244 66t179.5 178.5t66.5 244.5t-66.5 244.5t-179.5 178.5t-244 66 q-130 0 -250 -67v51h-243v-1335zM369 512q0 100 67.5 168t165.5 68t166 -68t68 -168t-68 -168t-166 -68t-165.5 68t-67.5 168zM406 512q0 -84 56 -140.5t140 -56.5q82 0 138.5 56.5t56.5 140.5t-56.5 140.5t-138.5 56.5q-84 0 -140 -56.5t-56 -140.5z" />
<glyph unicode="q" horiz-adv-x="1241" d="M70 512q0 106 42 203.5t113 168t169 112.5t204 42q115 0 211 -41v27h319v-1413h-333v412q-105 -37 -197 -37q-106 0 -204 42t-169 112.5t-113 168t-42 203.5zM109 512q0 -132 66 -244.5t178.5 -178.5t244.5 -66q127 0 236 61v-434h258v1335h-246v-49q-113 65 -248 65 q-132 0 -244.5 -66t-178.5 -178.5t-66 -244.5zM365 512q0 100 67.5 168t165.5 68t165.5 -68t67.5 -168t-67.5 -168t-165.5 -68t-165.5 68t-67.5 168zM401 512q0 -84 56.5 -140.5t140.5 -56.5q83 0 139 56t56 141t-56 141t-139 56q-84 0 -140.5 -56.5t-56.5 -140.5z" />
<glyph unicode="r" horiz-adv-x="757" d="M59 0v1024h318v-14q70 28 145 28h172v-333h-174q-51 0 -87.5 -33t-39.5 -82v-590h-334zM98 39h258v551q4 66 51 108.5t113 42.5h135v260h-133q-115 0 -184 -57v41h-240v-946z" />
<glyph unicode="s" horiz-adv-x="735" d="M18 242l238 143q2 -3 9.5 -12.5t10.5 -13.5t10 -12.5t11 -13t10.5 -10.5t11.5 -9t11 -5t12 -2q3 0 8.5 5.5t5.5 11.5q0 27 -73 65l-39 19.5t-42.5 25t-47.5 34t-41.5 42.5t-38.5 55.5t-23 66.5t-10 83q0 148 86.5 235.5t234.5 87.5q107 0 185.5 -74.5t124.5 -189.5 l-248 -129l16 -8l68 -39q74 -48 118 -117.5t44 -177.5q0 -133 -92 -225t-220 -92q-114 0 -199.5 71.5t-140.5 184.5zM68 227q42 -90 115.5 -147t174.5 -57q113 0 193 81t80 199q0 96 -39 157t-105 105q-19 13 -48 29t-47 26.5t-36.5 24t-27.5 28.5t-9 32q0 22 16 36.5 t36 14.5q30 0 46.5 -14.5t28.5 -43.5l177 93q-38 93 -103 151.5t-158 58.5q-130 0 -206 -77.5t-76 -208.5q0 -39 9 -74t20 -59.5t33.5 -48.5t36.5 -37t42 -30.5t37.5 -22t34.5 -17.5q23 -11 33 -16.5t30.5 -19.5t29.5 -30.5t9 -35.5q0 -21 -17.5 -38.5t-35.5 -17.5 q-9 0 -17 2t-14 4t-14 8t-11.5 8.5t-11.5 11.5t-9.5 11t-10 12t-8.5 11zM356 705q0 -25 68 -60q-13 38 -25 56t-28 18q-5 0 -10 -4t-5 -10z" />
<glyph unicode="t" horiz-adv-x="884" d="M41 717v307h223v272h334v-272h219v-307h-219v-717h-334v717h-223zM80 756h223v-717h258v717h217v229h-217v275h-258v-275h-223v-229z" />
<glyph unicode="u" horiz-adv-x="1095" d="M66 442v582h333v-578q0 -54 37 -90.5t90 -36.5q52 0 89.5 33t37.5 82v590h334v-1024h-317v12q-59 -26 -144 -26q-219 0 -339.5 118.5t-120.5 337.5zM104 442q0 -200 111 -309.5t311 -109.5q119 0 183 51v-35h241v946h-258v-551q0 -65 -49 -109t-117 -44t-116 48t-48 117 v539h-258v-543z" />
<glyph unicode="v" horiz-adv-x="978" d="M-10 1024h356l125 -428l125 428h358l-356 -1024h-252zM43 985l330 -946h198l330 946h-276l-148 -508l-4 -14q-1 1 -3 7t-3 7l-150 508h-274z" />
<glyph unicode="w" horiz-adv-x="1476" d="M0 1024h348q78 -313 109 -453l125 451h258q75 -259 125 -438q14 62 49.5 213t52.5 227h348l-276 -1024h-273l-159 449l-154 -449h-274zM49 985l256 -946h221q3 4 15 41t36 107.5t41 121.5l87 256l188 -526h217l256 946h-268l-125 -539l-4 -4q-2 0 -5.5 11t-14.5 50 t-25.5 92t-45 159.5t-67.5 230.5h-201l-151 -549l-4 -4q-3 0 -25 95q-51 218 -111 458h-270z" />
<glyph unicode="x" horiz-adv-x="1054" d="M-16 0l325 512l-319 512h399l117 -225l119 225h397l-317 -512l327 -512h-405l-121 229l-117 -229h-405zM53 39h314l133 256q0 4 6 4t10 -4l133 -256h314l-297 463q-4 4 -4 10q0 8 4 12l288 461h-307l-133 -256q-4 -4 -8 -4q-2 0 -6 4l-133 256h-308l291 -461q2 -6 2 -12 q0 -4 -2 -10z" />
<glyph unicode="y" horiz-adv-x="976" d="M-10 1024h358l123 -426l125 426h354l-483 -1417h-354l184 526v6zM43 985l291 -833q4 -12 4 -15q0 -10 -4 -18l-168 -473h274l457 1339h-272l-148 -508l-6 -14l-4 14l-148 508h-276z" />
<glyph unicode="z" horiz-adv-x="874" d="M51 0v250l172 242l144 202h-316v330h740v-231q-52 -81 -160 -232t-158 -229h318v-332h-740zM90 39h662v256h-303q-29 0 -29 12q0 9 84 130.5t166.5 238.5t81.5 117v192h-662v-254h295q31 0 31 -12q0 -8 -6 -17q1 0 -10 -16.5t-39 -58t-46.5 -68t-60.5 -88.5l-164 -229 v-203z" />
<glyph unicode="{" horiz-adv-x="792" d="M84 557v254q97 8 140.5 59t43.5 158v240q0 139 23 211.5t96 119.5q84 48 297 48l2 -238q-87 -7 -114 -44t-27 -128v-244q0 -127 -30 -198t-114 -113q84 -41 114 -113t30 -198v-242q0 -93 27 -129.5t114 -42.5l-2 -238q-211 0 -295 48q-76 46 -98.5 117.5t-22.5 211.5v242 q0 106 -43.5 158t-140.5 61zM121 592q98 -11 142 -70.5t44 -183.5v-242q0 -131 18.5 -195t82.5 -102q72 -43 239 -43v164q-87 7 -114 52t-27 157v242q0 140 -40 207.5t-159 99.5q-8 0 -8 4t8 4q119 32 159 100.5t40 206.5v244q0 112 27 157t114 52v162q-171 0 -239 -41 q-63 -38 -82 -104.5t-19 -194.5v-240q0 -126 -44 -186t-142 -66v-184z" />
<glyph unicode="|" horiz-adv-x="466" d="M78 0v1497h293v-1497h-293zM117 39h217v1421h-217v-1421z" />
<glyph unicode="}" horiz-adv-x="802" d="M84 -43q87 6 114 42.5t27 129.5v242q0 127 29.5 198.5t112.5 112.5q-84 42 -113 112.5t-29 198.5v244q0 91 -27 128t-114 44v238q211 0 297 -48q74 -46 96.5 -118.5t22.5 -212.5v-240q0 -107 44 -158t142 -59v-254q-98 -9 -142 -61t-44 -158v-242q0 -142 -21.5 -212.5 t-97.5 -116.5q-86 -48 -297 -48v238zM121 -80l2 -164q167 0 239 43q63 39 82 103.5t19 193.5v242q0 124 43.5 183.5t140.5 70.5v184q-97 6 -140.5 66t-43.5 186v240q0 127 -19.5 193.5t-81.5 105.5q-68 41 -239 41l-2 -162q87 -7 115 -52.5t28 -156.5v-244q0 -139 39.5 -207 t159.5 -100q6 0 6 -4t-6 -4q-120 -32 -159.5 -99.5t-39.5 -207.5v-242q0 -111 -28 -156.5t-115 -52.5z" />
<glyph unicode="~" horiz-adv-x="1290" d="M88 309l2 312l25 9q25 10 43.5 16.5t53 17t64 17.5t66.5 12t70 5h6q33 -1 74 -8t110 -22.5t82 -18.5q94 -22 117 -22h8q51 1 117 17.5t104.5 30.5t122.5 46v-279q-29 -29 -131 -66.5t-207 -41.5h-20q-67 0 -158 33l-35 10t-41.5 11.5t-38.5 8.5t-47 7.5t-45 3.5h-14 q-52 0 -123.5 -21.5t-204.5 -77.5zM127 367q110 45 172 62t117 17h14q86 -2 203 -38.5t162 -36.5h20q97 4 187 34t112 52v207q-174 -72 -303 -76h-10q-20 0 -167 34.5t-216 36.5h-6q-24 0 -49 -2.5t-46.5 -6t-45 -9t-40 -10t-36 -11t-29 -10t-23 -9t-14.5 -5.5z" />
<glyph unicode="&#xa1;" horiz-adv-x="462" d="M55 1368q0 68 50.5 118t117.5 50q70 0 119 -50t49 -118q0 -57 -32 -101t-83 -59h115v-1177h-334v1177h113q-50 15 -82.5 59.5t-32.5 100.5zM94 1368q0 -55 38 -93t91 -38q55 0 93 37.5t38 93.5q0 53 -38 91t-93 38q-53 0 -91 -38.5t-38 -90.5zM96 68h258v1101h-258v-1101 z" />
<glyph unicode="&#xa2;" horiz-adv-x="1153" d="M49 514q0 171 100 307t259 191v190h292v-178q98 -25 184.5 -91t147.5 -155l-244 -176l-45 51q-11 16 -43 43v-362q25 18 64 63q22 43 24 49l279 -139q-67 -122 -161 -202t-206 -107v-160h-292v174q-159 53 -259 190t-100 312zM88 514q0 -169 100 -300.5t258 -174.5v-162 h216v154q114 22 205 90t147 172l-207 102q-6 -12 -14 -20q-54 -75 -131 -105v486q24 -7 46 -21t31 -22t31.5 -33t24.5 -27l186 133q-52 75 -136 131t-183 74v174h-216v-182q-158 -43 -258 -173t-100 -296zM324 514q0 68 33 126.5t89 92.5v-438q-56 33 -89 90.5t-33 128.5z M360 514q0 -80 48 -141v280q-48 -65 -48 -139z" />
<glyph unicode="&#xa3;" horiz-adv-x="1327" d="M92 627v305h80q-6 25 -6 90q0 211 139 351t350 140q229 0 406 -174l-260 -231q-60 57 -142 57q-62 0 -103.5 -38.5t-41.5 -90.5q0 -40 27 -104h401v-305h-272q55 -96 55 -191q0 -53 -10 -86h20q66 0 96 37t35 119h324q0 -218 -144 -362t-360 -144h-512v348h152 q22 0 35.5 19t13.5 55q0 28 -32 91.5t-73 113.5h-178zM131 666h158q46 -55 85.5 -132.5t39.5 -111.5q0 -55 -25.5 -83t-62.5 -28h-113v-272h473q200 0 332.5 121.5t132.5 308.5h-248q-5 -82 -43.5 -119t-124.5 -37h-80q19 34 25 55.5t6 67.5q0 59 -20.5 111.5t-61.5 118.5 h301v227h-387q-43 89 -43 143q0 67 53 116.5t131 49.5q98 0 144 -43l203 182q-137 134 -351 134q-194 0 -323 -129t-129 -324q0 -19 2.5 -38.5t9.5 -51.5t8 -39h-92v-227z" />
<glyph unicode="&#xa4;" horiz-adv-x="1443" d="M80 1128l168 168l194 -192q135 74 260 74q116 0 244 -74q23 22 92 91t101 99l168 -166l-191 -190q76 -128 76 -256q0 -120 -72 -248l191 -190l-168 -168l-187 188q-119 -76 -264 -76q-125 0 -254 76l-190 -188l-166 168l188 190q-73 120 -73 250q0 117 75 250zM133 1128 l189 -186q-86 -144 -86 -258q0 -138 81 -256l-182 -184l113 -115l184 182q149 -86 260 -86q147 0 269 88l182 -184l114 115l-184 184q82 143 82 254q0 130 -86 262l184 184l-114 113l-189 -184q-142 82 -248 82q-73 0 -132 -20t-134 -62l-188 186zM428 684q0 109 79.5 189.5 t188.5 80.5q108 0 187.5 -80.5t79.5 -189.5t-79 -187.5t-188 -78.5t-188.5 79.5t-79.5 186.5zM467 684q0 -93 68 -161t161 -68q94 0 161 67.5t67 161.5q0 93 -67.5 162t-160.5 69t-161 -69t-68 -162z" />
<glyph unicode="&#xa5;" horiz-adv-x="1359" d="M68 1497h381l206 -516l207 516h379l-176 -407h158v-230h-256q-7 -16 -20.5 -45t-24.5 -57h301v-230h-394v-528h-348v528h-395v230h301l-45 102h-256v230h156q-22 50 -84 196.5t-90 210.5zM123 567h387l10 -20v-508h271v508l8 20h385v154h-320l78 178h242v154h-174 l174 405h-295l-230 -567q0 -6 -4 -6q-3 0 -6 6l-227 569h-299l178 -407h-178v-154h244l79 -178h-323v-154z" />
<glyph unicode="&#xa6;" horiz-adv-x="464" d="M78 -18v667h293v-667h-293zM78 862v674h293v-674h-293zM117 18h217v592h-217v-592zM117 901h217v596h-217v-596z" />
<glyph unicode="&#xa7;" horiz-adv-x="1316" d="M84 76h377q17 -31 43 -62q37 -37 84 -37q36 0 68 19.5t32 50.5q0 27 -26.5 51t-53 36.5t-87.5 37.5q-19 8 -29 12q-28 9 -78 33v-2q-56 22 -97 42t-86.5 53t-74 70.5t-47.5 92.5t-19 121q0 104 37 181t115 149q-37 45 -54.5 89t-17.5 105q0 122 63 213.5t164.5 136.5 t225.5 45q98 0 196.5 -36t181.5 -111v-403q-92 99 -151 149q-103 76 -195 76q-41 0 -71.5 -27t-30.5 -67q0 -17 9.5 -30.5t33 -26.5t43 -21t59.5 -23q105 -37 150 -61h-2q60 -26 100.5 -46t88.5 -53t77 -67.5t48.5 -83.5t19.5 -107q0 -119 -45.5 -195t-141.5 -151 q66 -95 66 -190q0 -118 -62.5 -208t-160.5 -134.5t-213 -44.5q-276 0 -437 186q-63 82 -102 238zM129 594q0 -73 24 -129.5t71 -97t92.5 -65.5t111.5 -52q24 -10 72 -28t72 -27.5t58.5 -27t51.5 -33t30 -38.5t13 -49q0 -49 -43.5 -78.5t-93.5 -29.5q-62 0 -111 49 q-28 32 -37 51h-309q23 -98 86 -176q149 -174 406 -174q104 0 194 40.5t147.5 122t57.5 187.5q0 56 -19.5 98.5t-62.5 100.5q70 50 110 91t65.5 103t25.5 143q0 51 -18 95t-45 75t-71.5 61t-83.5 49t-94 42q-46 24 -112.5 49.5t-104.5 39.5t-67 42t-29 66q0 57 41 94t98 37 q107 0 217 -84q57 -46 91 -80v287q-132 127 -340 127q-175 0 -294.5 -96.5t-119.5 -260.5q0 -63 20 -105t68 -93q-88 -70 -128 -145t-40 -181zM414 627q0 69 82 133l209 -82q141 -50 141 -141q0 -47 -25 -79t-71 -61l-240 103q-96 42 -96 127zM451 627q0 -61 73 -95l224 -92 q59 40 59 97q0 63 -115 106l-190 74q-51 -47 -51 -90z" />
<glyph unicode="&#xa8;" horiz-adv-x="927" d="M86 1333q0 71 47.5 117.5t118.5 46.5q70 0 118 -46.5t48 -117.5q0 -69 -48.5 -117.5t-117.5 -48.5q-70 0 -118 48.5t-48 117.5zM123 1333q0 -53 37 -90t92 -37q52 0 89.5 37t37.5 90q0 55 -37 91t-90 36q-56 0 -92.5 -36t-36.5 -91zM475 1333q0 71 48.5 117.5t117.5 46.5 q71 0 118.5 -46.5t47.5 -117.5q0 -69 -48 -117.5t-118 -48.5q-68 0 -117 48.5t-49 117.5zM514 1333q0 -53 37 -90t90 -37q55 0 92 37t37 90q0 55 -36.5 91t-92.5 36q-53 0 -90 -36t-37 -91z" />
<glyph unicode="&#xa9;" horiz-adv-x="1710" d="M98 721q0 147 58.5 281.5t156.5 231.5t231.5 154.5t278.5 57.5q200 0 367 -97.5t262.5 -264t95.5 -363.5q0 -196 -95.5 -362.5t-262.5 -264.5t-367 -98q-145 0 -279 58t-231.5 155t-156 231.5t-58.5 280.5zM135 721q0 -138 55.5 -265t148 -219t220 -147t264.5 -55 q189 0 347.5 93t249.5 250.5t91 342.5q0 187 -91 345t-249.5 250.5t-347.5 92.5q-137 0 -264 -54.5t-220 -146.5t-148.5 -220t-55.5 -267zM240 721q0 159 77.5 293.5t212 212.5t293.5 78q160 0 296 -78t216 -212.5t80 -293.5t-80 -293t-216 -211.5t-296 -77.5 q-159 0 -293.5 77.5t-212 211.5t-77.5 293zM279 721q0 -149 72.5 -274.5t197.5 -198t274 -72.5t277 72.5t203 198t75 274.5t-75 275t-203 199t-277 73q-112 0 -212.5 -43t-173.5 -116.5t-115.5 -174.5t-42.5 -213zM440 721q0 164 115 278.5t279 114.5q162 0 282 -104 l-139 -174q-65 55 -143 55q-70 0 -120 -49t-50 -117q0 -72 49.5 -122t120.5 -50q75 0 143 55l139 -172q-123 -106 -282 -106q-164 0 -279 114t-115 277zM477 721q0 -148 104 -250t253 -102q145 0 229 73l-92 113q-47 -39 -137 -39q-87 0 -148 61t-61 148q0 84 61.5 144.5 t147.5 60.5q88 0 137 -41l92 115q-84 73 -229 73q-149 0 -253 -103.5t-104 -252.5z" />
<glyph unicode="&#xaa;" horiz-adv-x="860" d="M43 1085q0 152 106.5 258.5t258.5 106.5q74 0 135 -27v27h235v-731l-192 45q-77 -45 -178 -45q-152 0 -258.5 107t-106.5 259zM80 1085q0 -137 96 -233t232 -96q96 0 172 49l159 -39v647h-157l-2 -49q-81 49 -172 49q-136 0 -232 -95.5t-96 -232.5zM252 1085q0 66 45 111 t111 45q67 0 112 -45t45 -111q0 -67 -44.5 -112t-112.5 -45q-66 0 -111 45t-45 112zM291 1085q0 -52 33 -86t84 -34q52 0 86 33.5t34 86.5q0 51 -34 85t-86 34q-51 0 -84 -34t-33 -85z" />
<glyph unicode="&#xab;" horiz-adv-x="1067" d="M63 557l285 455l244 -176l-184 -279l180 -272l-230 -189zM109 557l260 -403l168 139l-177 264l181 270l-183 131zM438 557l285 455l246 -176l-187 -279l181 -272l-228 -189zM485 557l258 -403l168 139l-174 264l181 270l-183 131z" />
<glyph unicode="&#xac;" horiz-adv-x="1290" d="M78 578v292h1071v-723h-293v431h-778zM117 616h778v-430h215v645h-993v-215z" />
<glyph unicode="&#xad;" horiz-adv-x="878" d="M84 436v293h678v-293h-678zM123 473h600v217h-600v-217z" />
<glyph unicode="&#xae;" horiz-adv-x="1792" d="M100 750q0 153 61 294t163.5 244t243.5 164t294 61q210 0 386 -103.5t277 -279t101 -380.5q0 -154 -59.5 -295t-161.5 -244t-244 -164t-299 -61q-153 0 -294 61t-243.5 163.5t-163.5 244t-61 295.5zM137 750q0 -117 37 -227.5t104.5 -200t157 -157.5t200 -105t226.5 -37 q150 0 285 58t231 156t152.5 232t56.5 281q0 146 -56.5 279.5t-152.5 231.5t-231 156t-285 58q-116 0 -226.5 -37t-200 -104.5t-157 -157t-104.5 -200t-37 -226.5zM248 750q0 167 82 309t223.5 224.5t308.5 82.5q168 0 312 -82.5t229.5 -224.5t85.5 -309 q0 -168 -85.5 -310.5t-229.5 -224.5t-312 -82q-167 0 -308.5 82.5t-223.5 224.5t-82 310zM285 750q0 -119 45.5 -226.5t123 -185t184 -123t224.5 -45.5q197 0 352 117h-245l-148 243v-243h-221v921h293q133 0 209 -81t76 -209q0 -106 -45.5 -177t-124.5 -96l213 -354 q107 81 169 201.5t62 257.5q0 156 -80.5 289.5t-216.5 210.5t-293 77q-118 0 -224.5 -45.5t-184 -123t-123 -184t-45.5 -224.5zM639 324h145v327q0 2 7 2q30 -45 198 -329h168l-207 344q0 6 2 6q87 9 138 74t51 170q0 111 -66.5 181t-181.5 70h-254v-845zM784 797v237 q0 4 9 4h94q50 0 78 -35t28 -85q0 -53 -28 -91.5t-78 -38.5h-94q-9 0 -9 9zM821 827h66q32 0 49.5 26.5t17.5 64.5q0 35 -17.5 59t-49.5 24h-66v-174z" />
<glyph unicode="&#xaf;" horiz-adv-x="876" d="M84 1167v293h674v-293h-674zM123 1206h596v215h-596v-215z" />
<glyph unicode="&#xb0;" horiz-adv-x="884" d="M82 1106q0 141 101 241.5t243 100.5t243 -100.5t101 -241.5q0 -142 -101 -243t-243 -101t-243 101t-101 243zM121 1106q0 -127 89.5 -216t215.5 -89t215.5 89t89.5 216q0 126 -89.5 215.5t-215.5 89.5t-215.5 -89.5t-89.5 -215.5zM250 1106q0 72 52 124t124 52t124 -52 t52 -124t-52 -124t-124 -52t-124 52t-52 124zM287 1106q0 -57 41 -98t98 -41t98 41t41 98t-41 97t-98 40t-98 -40t-41 -97z" />
<glyph unicode="&#xb1;" horiz-adv-x="1306" d="M88 12v291h395v221h-395v293h395v234h291v-234h395v-293h-395v-221h395v-291h-1081zM127 49h1006v217h-1006v-217zM127 563h393v-233h217v233h396v217h-396v232h-217v-232h-393v-217z" />
<glyph unicode="&#xb2;" horiz-adv-x="735" d="M70 1262q35 112 120.5 181.5t188.5 69.5q131 0 224 -92.5t93 -222.5q0 -124 -102 -229q-97 -85 -148 -127l-36 -35h288v-238h-614l-2 246q9 17 165 161t181 163h-4q31 28 31 59q0 32 -22 54t-54 22q-25 0 -47.5 -24t-36.5 -64zM117 1286l153 -53q12 35 42 57.5t67 22.5 q49 0 82 -33.5t33 -81.5t-43 -88q-32 -28 -177.5 -160t-154.5 -145l2 -199h538v164h-348q-4 0 -4 4l115 96q32 27 145 125q90 93 90 203q0 115 -81 196t-197 81q-90 0 -162 -52.5t-100 -136.5z" />
<glyph unicode="&#xb3;" horiz-adv-x="733" d="M43 870l221 29q9 -45 32.5 -72.5t53.5 -27.5q34 0 56 26t22 64q0 33 -22.5 61t-55.5 37l-104 29v178l100 27q14 3 14 32q0 11 -7 19t-17 8q-25 0 -62 -29v2q-2 -2 -9.5 -9t-14 -13t-19 -20.5t-28.5 -32.5l-97 192q39 68 99 107t131 39q103 0 177.5 -75t74.5 -179 q0 -79 -41 -134q121 -103 121 -251q0 -131 -92.5 -225.5t-225.5 -94.5q-77 0 -144 36t-112 99q-51 70 -51 178zM82 836q0 -66 41 -121q85 -119 227 -119q117 0 199 82.5t82 198.5q0 150 -131 239q-4 0 -4 4q0 2 4 6q51 60 51 136q0 89 -63.5 152t-151.5 63q-125 0 -186 -107 l63 -125q4 6 10.5 12.5t14.5 13.5t12 11q2 1 10.5 6.5t12 8t11 7t12.5 6.5t12.5 4.5t14 3.5t13.5 1q27 0 45 -19t18 -47q0 -58 -45 -67l-71 -21v-121l77 -20q46 -11 76.5 -48t30.5 -87q0 -53 -33.5 -91t-83.5 -38q-43 0 -74.5 27t-42.5 71z" />
<glyph unicode="&#xb4;" horiz-adv-x="694" d="M57 1358l428 182l123 -272l-393 -158zM113 1341l118 -184l326 133l-90 201z" />
<glyph unicode="&#xb6;" horiz-adv-x="1339" d="M86 1051q0 110 37.5 185.5t109 115.5t157 56.5t200.5 16.5h604v-1826h-291v1534h-102v-1534h-293v1089q-205 7 -313.5 102t-108.5 261zM123 1051q0 -155 109 -239.5t315 -84.5v-1092h215v1534h178v-1534h217v1754h-567q-84 0 -150.5 -9t-127.5 -32t-101.5 -60.5t-64 -97 t-23.5 -139.5z" />
<glyph unicode="&#xb7;" horiz-adv-x="464" d="M76 752q0 61 43 107t110 46q58 0 101 -47t43 -106q0 -60 -42.5 -103t-101.5 -43q-68 0 -110.5 42.5t-42.5 103.5zM113 752q0 -45 32.5 -76t83.5 -31q43 0 74 31.5t31 75.5t-31.5 79t-73.5 35q-51 0 -83.5 -34.5t-32.5 -79.5z" />
<glyph unicode="&#xb8;" horiz-adv-x="630" d="M82 -160l168 236h209l-72 -92q65 -12 104 -59.5t39 -121.5q0 -71 -39.5 -122t-94 -73t-113.5 -22q-35 0 -99.5 13.5t-101.5 35.5v205zM117 -182l49 -17h2q44 -14 72 -14h16q16 0 16 16q0 15 -26 15h-129zM119 -223v-121q25 -13 79 -22t85 -9q79 0 145 46.5t66 131.5 q0 66 -40.5 105t-103.5 39q-6 0 -20.5 -3t-20.5 -3l74 98h-113l-131 -182h107q21 0 32.5 -2.5t22 -15t10.5 -36.5q0 -31 -14 -42t-41 -11h-16q-28 0 -78 12q-24 7 -43 15z" />
<glyph unicode="&#xb9;" horiz-adv-x="493" d="M-78 1268v229h377v-928h-240v699h-137zM-39 1307h129q6 0 6 -7v-694h164v854h-299v-153z" />
<glyph unicode="&#xba;" horiz-adv-x="847" d="M45 1083q0 151 107 257t260 106q151 0 257.5 -106t106.5 -257q0 -153 -106.5 -260.5t-257.5 -107.5q-154 0 -260.5 107t-106.5 261zM82 1083q0 -138 96 -233.5t234 -95.5q135 0 230 95.5t95 233.5q0 135 -95 230.5t-230 95.5q-138 0 -234 -95.5t-96 -230.5zM256 1083 q0 63 45 108.5t111 45.5q64 0 108.5 -45.5t44.5 -108.5q0 -67 -44 -111t-109 -44q-66 0 -111 44t-45 111zM295 1083q0 -52 33 -85t84 -33q50 0 83 33t33 85q0 48 -33.5 81.5t-82.5 33.5q-50 0 -83.5 -33.5t-33.5 -81.5z" />
<glyph unicode="&#xbb;" horiz-adv-x="1067" d="M57 274l187 279l-181 274l228 187l295 -461l-283 -455zM109 285l182 -131l250 399l-260 405l-166 -139l174 -266zM432 274l186 279l-180 274l228 187l297 -461l-285 -455zM483 285l183 -131l252 399l-261 405l-168 -139l175 -266z" />
<glyph unicode="&#xbc;" horiz-adv-x="1683" d="M74 1255v242h399v-1001h-252v759h-147zM113 1292h139q6 0 6 -6v-754h176v928h-321v-168zM442 6l430 1514l189 -43l-428 -1493zM489 39l117 -14l408 1421l-115 27zM821 150v221l400 628h233v-602h86v-256h-86v-141h-254v150h-379zM860 188h371q8 0 8 -8v-141h176v141h88 v180h-88v601h-180q-2 -1 -29.5 -44.5t-72.5 -116.5t-86 -143l-187 -297v-172zM1053 356l182 314q0 -67 2 -168.5t2 -143.5q0 -8 -8 -8h-174q-4 0 -4 6zM1114 389h86v143z" />
<glyph unicode="&#xbd;" horiz-adv-x="1712" d="M76 1255v242h397v-1001h-252v759h-145zM113 1292h139q8 0 8 -6v-754h176v928h-323v-168zM442 6l432 1514l187 -43l-428 -1493zM492 39l114 -14l408 1421l-113 27zM913 735q37 115 127.5 189.5t198.5 74.5q137 0 235.5 -97t98.5 -234q0 -73 -26.5 -130.5t-82.5 -113.5 q-53 -53 -155 -135l-45 -39h311v-250h-647l-2 264q39 39 166 156q188 171 196 180q35 27 35 68q0 34 -24.5 59t-59.5 25q-26 0 -52 -29t-40 -70zM961 760l163 -55q12 36 44 59.5t71 23.5q52 0 87.5 -35t35.5 -85q0 -54 -47 -95q-16 -16 -179.5 -166t-172.5 -159l2 -209h573 v174h-373q-4 0 -4 4l125 102q29 23 60.5 49.5t61.5 53.5t32 29q96 99 96 217q0 122 -87.5 207.5t-209.5 85.5q-96 0 -172 -56t-106 -145z" />
<glyph unicode="&#xbe;" horiz-adv-x="1884" d="M63 809l232 33q13 -49 38 -80t58 -31q35 0 59.5 30t24.5 70q0 39 -24 69.5t-60 39.5l-110 31v186l106 29q16 8 16 37q0 12 -8 21t-20 9q-34 0 -68 -30l-78 -70l-96 195q40 70 103.5 110.5t136.5 40.5q113 0 190.5 -77.5t77.5 -190.5q0 -82 -43 -144q129 -109 129 -268 q0 -140 -99.5 -240t-238.5 -100q-160 0 -274 144q-52 70 -52 186zM102 776q0 -68 45 -131q99 -127 242 -127q125 0 213 88t88 213q0 80 -38 147t-103 109q-2 0 -2 2v2q0 2 2 8q53 56 53 144q0 97 -67 164t-162 67q-63 0 -115.5 -30.5t-81.5 -83.5l66 -134l41 37q51 41 92 41 q28 0 47.5 -20.5t19.5 -48.5q0 -36 -12 -51.5t-37 -22.5l-76 -21v-129l82 -22q49 -12 82 -52.5t33 -93.5q0 -57 -36 -97t-87 -40q-47 0 -81.5 29.5t-43.5 75.5zM602 6l432 1514l187 -43l-428 -1493zM649 39l117 -14l408 1421l-115 27zM983 150v221l399 628h234v-602h86v-256 h-86v-141h-254v150h-379zM1022 188h371q8 0 8 -8v-141h176v141h88v180h-88v601h-180q-2 -1 -30 -44.5t-73 -117t-86 -142.5l-186 -297v-172zM1214 356l183 314q0 -67 2 -168.5t2 -143.5q0 -8 -8 -8h-174q-5 0 -5 6zM1276 389h86v143z" />
<glyph unicode="&#xbf;" horiz-adv-x="921" d="M63 414q0 77 15.5 137.5t48.5 107t58 71.5t71 63q40 35 60 55t40.5 59.5t20.5 83.5q0 68 -45 226h153q-65 8 -107 54.5t-42 112.5q0 68 49.5 118t120.5 50q66 0 116 -50.5t50 -117.5q0 -65 -43 -112t-103 -55l150 2q41 -181 41 -277q0 -63 -16 -117t-49 -100t-60 -75 t-70 -68q-34 -33 -53.5 -54t-36 -49.5t-16.5 -52.5q0 -51 45 -51q23 0 50.5 14t57.5 40t50 46.5t47 50.5l217 -223q-65 -87 -138 -147q-161 -125 -294 -125q-183 0 -285.5 96.5t-102.5 286.5zM102 414q0 -171 92 -257.5t257 -86.5q135 0 270 114q67 55 113 117l-168 170 q-28 -30 -43 -45t-45 -40.5t-59 -37.5t-58 -12q-82 0 -82 90q0 43 31 86t74.5 84t87.5 87.5t75 113.5t31 145q0 94 -33 238l-264 -2q33 -112 33 -187q0 -51 -17 -92t-44.5 -69.5t-61 -55.5t-67 -58.5t-61 -69.5t-44.5 -97.5t-17 -134.5zM375 1384q0 -56 37.5 -93.5 t93.5 -37.5q52 0 90.5 38t38.5 93q0 52 -39 90.5t-90 38.5q-55 0 -93 -38t-38 -91z" />
<glyph unicode="&#xc0;" horiz-adv-x="1536" d="M4 0l610 1530h234l-367 147l125 273l426 -183l-153 -239l614 -1528h-379l-121 270h-495l-111 -270h-383zM61 39h299l109 262q4 8 14 8h527q10 0 14 -8l115 -262h297l-584 1452h-211zM532 1700l328 -133l117 184l-352 150zM578 573q0 1 1 4.5t1 4.5l161 407q4 8 7 8t6 -8 l159 -407q2 -4 2 -9q0 -6 -8 -6h-323q-6 0 -6 6zM635 606h225l-115 291z" />
<glyph unicode="&#xc1;" horiz-adv-x="1536" d="M4 0l610 1530h15l-152 237l428 183l123 -273l-369 -147h220l614 -1530h-379l-121 270h-495l-111 -270h-383zM61 39h299l109 262q4 8 14 8h527q10 0 14 -8l115 -262h297l-584 1452h-211zM532 1751l119 -184l326 133l-90 201zM578 573q0 1 1 4.5t1 4.5l161 407q4 8 7 8 t6 -8l159 -407q2 -4 2 -9q0 -6 -8 -6h-323q-6 0 -6 6zM635 606h225l-115 291z" />
<glyph unicode="&#xc2;" horiz-adv-x="1536" d="M4 0l610 1530h265l614 -1530h-379l-121 270h-495l-111 -270h-383zM61 39h299l109 262q4 8 14 8h527q10 0 14 -8l115 -262h297l-584 1452h-211zM406 1804l344 131l346 -143l-162 -248l-186 80l-179 -70zM465 1786l119 -184l166 63l168 -74l120 185l-288 120zM578 573 q0 1 1 4.5t1 4.5l161 407q4 8 7 8t6 -8l159 -407q2 -4 2 -9q0 -6 -8 -6h-323q-6 0 -6 6zM635 606h225l-115 291z" />
<glyph unicode="&#xc3;" horiz-adv-x="1536" d="M4 0l610 1530h265l614 -1530h-379l-121 270h-495l-111 -270h-383zM61 39h299l109 262q4 8 14 8h527q10 0 14 -8l115 -262h297l-584 1452h-211zM399 1513v336l45 19l-6 -2q95 49 178 49q57 0 154 -29q74 -18 82 -18q85 0 252 106v-295l-37 -26l2 2q-23 -18 -34 -26 t-38 -24t-55.5 -23t-60.5 -7t-142 27h2q-82 24 -118 24q-54 0 -119.5 -28t-104.5 -85zM434 1593q54 70 189 70q38 0 129 -24.5t129 -24.5q27 0 52 7t46.5 19t35.5 22t30 23.5t20 16.5v205q-119 -76 -213 -76q-25 0 -106.5 23.5t-129.5 23.5q-39 0 -75.5 -10.5t-70 -27 t-34.5 -17.5zM578 573q0 1 1 4.5t1 4.5l161 407q4 8 7 8t6 -8l159 -407q2 -4 2 -9q0 -6 -8 -6h-323q-6 0 -6 6zM635 606h225l-115 291z" />
<glyph unicode="&#xc4;" horiz-adv-x="1536" d="M4 0l610 1530h265l614 -1530h-379l-121 270h-495l-111 -270h-383zM61 39h299l109 262q4 8 14 8h527q10 0 14 -8l115 -262h297l-584 1452h-211zM389 1743q0 71 47.5 117.5t118.5 46.5q70 0 118 -46.5t48 -117.5q0 -69 -48.5 -117.5t-117.5 -48.5q-70 0 -118 48.5 t-48 117.5zM426 1743q0 -53 37 -90t92 -37q53 0 90 37t37 90q0 55 -37 91t-90 36q-56 0 -92.5 -36t-36.5 -91zM578 573q0 1 1 4.5t1 4.5l161 407q4 8 7 8t6 -8l159 -407q2 -4 2 -9q0 -6 -8 -6h-323q-6 0 -6 6zM635 606h225l-115 291zM778 1743q0 71 48.5 117.5t117.5 46.5 q71 0 118.5 -46.5t47.5 -117.5q0 -69 -48 -117.5t-118 -48.5q-68 0 -117 48.5t-49 117.5zM817 1743q0 -53 37.5 -90t89.5 -37q55 0 92 37t37 90q0 55 -36.5 91t-92.5 36q-53 0 -90 -36t-37 -91z" />
<glyph unicode="&#xc5;" horiz-adv-x="1536" d="M4 0l610 1530h39q-56 26 -89.5 81t-33.5 122q0 95 65.5 160t160.5 65t160 -65t65 -160q0 -67 -34 -122t-91 -81h23l614 -1530h-379l-121 270h-495l-111 -270h-383zM61 39h299l109 262q4 8 14 8h527q10 0 14 -8l115 -262h297l-584 1452h-211zM569 1733q0 -79 53.5 -133 t133.5 -54t134 54t54 133t-54 133.5t-134 54.5q-79 0 -133 -54t-54 -134zM578 573q0 1 1 4.5t1 4.5l161 407q4 8 7 8t6 -8l159 -407q2 -4 2 -9q0 -6 -8 -6h-323q-6 0 -6 6zM635 606h225l-115 291zM635 1733q0 51 35.5 86.5t85.5 35.5q51 0 87 -35.5t36 -86.5 q0 -50 -36 -85.5t-87 -35.5q-50 0 -85.5 36t-35.5 85zM674 1733q0 -34 24 -58t58 -24q35 0 59.5 24t24.5 58q0 35 -24.5 59.5t-59.5 24.5q-34 0 -58 -24.5t-24 -59.5z" />
<glyph unicode="&#xc6;" horiz-adv-x="1908" d="M4 0l748 1530h1022v-354h-521v-230h521v-354h-521v-238h521v-354h-875v270h-369l-143 -270h-383zM66 39h299l137 262q4 8 14 8h422v-270h797v276h-508q-13 0 -13 13v290q0 11 13 11h508v278h-508q-13 0 -13 11v284q0 12 13 12h508v277h-959zM621 573q0 7 2 9 q310 630 315 630v-645h-309q-8 0 -8 6zM680 606h219v445z" />
<glyph unicode="&#xc7;" horiz-adv-x="1460" d="M86 766q0 159 62 303.5t166.5 249t249.5 166t304 61.5q282 0 469 -155q10 -6 21 -15t17 -14.5t7 -5.5l-217 -285q-143 118 -297 121q-182 -8 -305 -129t-123 -297q0 -112 62.5 -209t160 -153t205.5 -64q74 2 153 33t144 86l215 -281q-14 -14 -37 -32.5t-72.5 -48.5 t-104.5 -54t-135 -41.5t-163 -17.5q-21 0 -67 4l-2 -4q65 -12 104 -59.5t39 -121.5q0 -71 -40 -122t-94.5 -73t-113.5 -22q-35 0 -99 13.5t-101 35.5v205l129 183q-237 78 -387 281.5t-150 461.5zM125 766q0 -259 157 -459t402 -262l-133 -188h106q21 0 33 -2.5t22.5 -15 t10.5 -36.5q0 -31 -14 -42t-41 -11h-17q-28 0 -78 12q-24 7 -43 15v-121q25 -13 79 -22t85 -9q79 0 145 46.5t66 131.5q0 66 -40 105t-103 39q-6 0 -20.5 -3t-20.5 -3l63 86q29 -4 84 -4q97 0 184 20t145.5 51.5t86.5 51t47 36.5l-172 221q-126 -102 -291 -102 q-121 7 -227.5 68t-173 166.5t-66.5 230.5q0 191 134 324t333 141q163 0 291 -103l172 220q-2 1 -5 4q-21 17 -38 29.5t-63 38.5t-92 43t-117.5 30.5t-147.5 13.5q-152 0 -289.5 -58.5t-237 -157.5t-158 -236.5t-58.5 -288.5zM528 -182l50 -17h2q44 -14 71 -14h17 q16 0 16 16q0 15 -27 15h-129z" />
<glyph unicode="&#xc8;" horiz-adv-x="1079" d="M86 0v1530h532l-366 147l125 273l426 -183l-152 -237h312v-354h-523v-230h523v-354h-523v-238h523v-354h-877zM125 39h799v276h-510q-13 0 -13 13v290q0 11 13 11h510v278h-510q-13 0 -13 11v284q0 12 13 12h510v277h-799v-1452zM303 1700l328 -133l117 184l-353 150z " />
<glyph unicode="&#xc9;" horiz-adv-x="1079" d="M86 0v1530h313l-151 237l428 183l123 -273l-369 -147h533v-354h-523v-230h523v-354h-523v-238h523v-354h-877zM125 39h799v276h-510q-13 0 -13 13v290q0 11 13 11h510v278h-510q-13 0 -13 11v284q0 12 13 12h510v277h-799v-1452zM303 1751l119 -184l326 133l-91 201z" />
<glyph unicode="&#xca;" horiz-adv-x="1079" d="M86 0v1530h877v-354h-523v-230h523v-354h-523v-238h523v-354h-877zM125 39h799v276h-510q-13 0 -13 13v290q0 11 13 11h510v278h-510q-13 0 -13 11v284q0 12 13 12h510v277h-799v-1452zM178 1804l344 131l346 -143l-161 -248l-187 80l-178 -70zM238 1786l118 -184l166 63 l168 -74l121 185l-289 120z" />
<glyph unicode="&#xcb;" horiz-adv-x="1079" d="M86 0v1530h877v-354h-523v-230h523v-354h-523v-238h523v-354h-877zM125 39h799v276h-510q-13 0 -13 13v290q0 11 13 11h510v278h-510q-13 0 -13 11v284q0 12 13 12h510v277h-799v-1452zM162 1743q0 71 47.5 117.5t118.5 46.5q70 0 118 -46.5t48 -117.5 q0 -69 -48.5 -117.5t-117.5 -48.5q-70 0 -118 48.5t-48 117.5zM199 1743q0 -53 37 -90t92 -37q52 0 89.5 37t37.5 90q0 55 -37 91t-90 36q-56 0 -92.5 -36t-36.5 -91zM551 1743q0 71 48.5 117.5t117.5 46.5q71 0 118.5 -46.5t47.5 -117.5q0 -69 -48 -117.5t-118 -48.5 q-68 0 -117 48.5t-49 117.5zM590 1743q0 -53 37 -90t90 -37q55 0 92 37t37 90q0 55 -36.5 91t-92.5 36q-53 0 -90 -36t-37 -91z" />
<glyph unicode="&#xcc;" horiz-adv-x="526" d="M-20 1677l124 273l426 -183l-151 -237h55v-1530h-356v1530h268zM31 1700l327 -133l117 184l-352 150zM117 39h278v1452h-278v-1452z" />
<glyph unicode="&#xcd;" horiz-adv-x="526" d="M-25 1767l428 183l123 -273l-368 -147h276v-1530h-356v1530h49zM31 1751l119 -184l325 133l-90 201zM117 39h278v1452h-278v-1452z" />
<glyph unicode="&#xce;" horiz-adv-x="526" d="M-96 1804l344 131l346 -143l-162 -248l-186 80l-178 -70zM-37 1786l119 -184l166 63l168 -74l121 185l-289 120zM78 0v1530h356v-1530h-356zM117 39h278v1452h-278v-1452z" />
<glyph unicode="&#xcf;" horiz-adv-x="526" d="M-113 1743q0 71 47.5 117.5t118.5 46.5q70 0 118 -46.5t48 -117.5q0 -69 -48.5 -117.5t-117.5 -48.5q-70 0 -118 48.5t-48 117.5zM-76 1743q0 -53 37 -90t92 -37q53 0 90 37t37 90q0 55 -37 91t-90 36q-56 0 -92.5 -36t-36.5 -91zM78 0v1530h356v-1530h-356zM117 39h278 v1452h-278v-1452zM276 1743q0 71 48.5 117.5t117.5 46.5q71 0 118.5 -46.5t47.5 -117.5q0 -69 -48 -117.5t-118 -48.5q-68 0 -117 48.5t-49 117.5zM315 1743q0 -53 37.5 -90t89.5 -37q55 0 92 37t37 90q0 55 -36.5 91t-92.5 36q-53 0 -90 -36t-37 -91z" />
<glyph unicode="&#xd0;" horiz-adv-x="1708" d="M88 580v299h199v651h516q157 0 299.5 -61.5t245 -164.5t163 -244t60.5 -294q0 -154 -60.5 -295.5t-163 -244.5t-245 -164.5t-299.5 -61.5h-518l2 580h-199zM127 618h199l-2 -579h479q148 0 283.5 58.5t233 156.5t155 232t57.5 280t-57.5 279.5t-155 231.5t-233 156 t-283.5 58h-477v-651h-199v-222zM602 328v290h201v222h-201v362q0 12 12 12h199q197 0 319.5 -124.5t122.5 -323.5t-127.5 -325t-324.5 -126h-189q-12 0 -12 13zM641 354h162q181 0 297.5 115t116.5 297t-112 296t-292 114h-172v-297h199v-299h-199v-226z" />
<glyph unicode="&#xd1;" horiz-adv-x="1456" d="M92 0v1528l268 2v319l46 19l-7 -2q95 49 179 49q56 0 153 -29q74 -18 82 -18q85 0 252 106v-295l-37 -26l2 2q-23 -18 -34 -26t-38 -24t-55.5 -23t-60.5 -7t-142 27h2q-82 24 -118 24q-50 0 -110.5 -23.5t-100.5 -72.5h39l559 -832v830h354v-1528h-317l-562 834v-834 h-354zM131 39h277v919l620 -919h258v1450h-276v-918l-621 920l-258 -2v-1450zM395 1593q54 70 189 70q38 0 129 -24.5t129 -24.5q27 0 52 7t46.5 19t35.5 22t30 23.5t20 16.5v205q-119 -76 -213 -76q-25 0 -106 23.5t-129 23.5q-39 0 -75.5 -10.5t-70.5 -27.5t-35 -17z" />
<glyph unicode="&#xd2;" horiz-adv-x="1794" d="M92 766q0 159 61.5 303.5t166 249t249 166t303.5 61.5q24 0 74 -4l-336 135l125 273l426 -183l-149 -233q181 -33 327 -141.5t230 -273.5t84 -353q0 -159 -62 -304t-166.5 -249.5t-249 -166.5t-303.5 -62t-303.5 62t-249 166.5t-166 249.5t-61.5 304zM131 766 q0 -152 58.5 -289.5t157.5 -237t236.5 -158t288.5 -58.5q152 0 289.5 58.5t236.5 158t157.5 237t58.5 289.5q0 151 -58.5 288.5t-157.5 236.5t-236.5 157.5t-289.5 58.5q-151 0 -288.5 -58.5t-236.5 -157.5t-157.5 -236.5t-58.5 -288.5zM408 766q0 192 136 328.5t328 136.5 t328.5 -136.5t136.5 -328.5t-136.5 -328.5t-328.5 -136.5t-328 136.5t-136 328.5zM446 766q0 -176 125.5 -301t300.5 -125q177 0 301.5 124.5t124.5 301.5q0 175 -125 300.5t-301 125.5q-175 0 -300.5 -125.5t-125.5 -300.5zM662 1700l327 -133l117 184l-352 150z" />
<glyph unicode="&#xd3;" horiz-adv-x="1794" d="M92 766q0 144 50.5 277t138.5 234t210 169.5t261 89.5l-146 231l428 183l123 -273l-332 -133q7 0 23 1t24 1q159 0 303.5 -61.5t249 -166t166.5 -249t62 -303.5t-62 -304t-166.5 -249.5t-249 -166.5t-303.5 -62t-303.5 62t-249 166.5t-166 249.5t-61.5 304zM131 766 q0 -152 58.5 -289.5t157.5 -237t236.5 -158t288.5 -58.5q152 0 289.5 58.5t236.5 158t157.5 237t58.5 289.5q0 151 -58.5 288.5t-157.5 236.5t-236.5 157.5t-289.5 58.5q-151 0 -288.5 -58.5t-236.5 -157.5t-157.5 -236.5t-58.5 -288.5zM408 766q0 192 136 328.5t328 136.5 t328.5 -136.5t136.5 -328.5t-136.5 -328.5t-328.5 -136.5t-328 136.5t-136 328.5zM446 766q0 -176 125.5 -301t300.5 -125q177 0 301.5 124.5t124.5 301.5q0 175 -125 300.5t-301 125.5q-175 0 -300.5 -125.5t-125.5 -300.5zM662 1751l118 -184l326 133l-90 201z" />
<glyph unicode="&#xd4;" horiz-adv-x="1794" d="M92 766q0 159 61.5 303.5t166 249t249 166t303.5 61.5t303.5 -61.5t249 -166t166.5 -249t62 -303.5t-62 -304t-166.5 -249.5t-249 -166.5t-303.5 -62t-303.5 62t-249 166.5t-166 249.5t-61.5 304zM131 766q0 -152 58.5 -289.5t157.5 -237t236.5 -158t288.5 -58.5 q152 0 289.5 58.5t236.5 158t157.5 237t58.5 289.5q0 151 -58.5 288.5t-157.5 236.5t-236.5 157.5t-289.5 58.5q-151 0 -288.5 -58.5t-236.5 -157.5t-157.5 -236.5t-58.5 -288.5zM408 766q0 192 136 328.5t328 136.5t328.5 -136.5t136.5 -328.5t-136.5 -328.5t-328.5 -136.5 t-328 136.5t-136 328.5zM446 766q0 -176 125.5 -301t300.5 -125q177 0 301.5 124.5t124.5 301.5q0 175 -125 300.5t-301 125.5q-175 0 -300.5 -125.5t-125.5 -300.5zM535 1804l344 131l346 -143l-162 -248l-186 80l-179 -70zM594 1786l119 -184l166 63l168 -74l120 185 l-288 120z" />
<glyph unicode="&#xd5;" horiz-adv-x="1794" d="M92 766q0 159 61.5 303.5t166 249t249 166t303.5 61.5t303.5 -61.5t249 -166t166.5 -249t62 -303.5t-62 -304t-166.5 -249.5t-249 -166.5t-303.5 -62t-303.5 62t-249 166.5t-166 249.5t-61.5 304zM131 766q0 -152 58.5 -289.5t157.5 -237t236.5 -158t288.5 -58.5 q152 0 289.5 58.5t236.5 158t157.5 237t58.5 289.5q0 151 -58.5 288.5t-157.5 236.5t-236.5 157.5t-289.5 58.5q-151 0 -288.5 -58.5t-236.5 -157.5t-157.5 -236.5t-58.5 -288.5zM408 766q0 192 136 328.5t328 136.5t328.5 -136.5t136.5 -328.5t-136.5 -328.5t-328.5 -136.5 t-328 136.5t-136 328.5zM446 766q0 -176 125.5 -301t300.5 -125q177 0 301.5 124.5t124.5 301.5q0 175 -125 300.5t-301 125.5q-175 0 -300.5 -125.5t-125.5 -300.5zM528 1513v336l45 19l-6 -2q95 49 178 49q57 0 154 -29q74 -18 82 -18q85 0 252 106v-295l-37 -26l2 2 q-23 -18 -34 -26t-38 -24t-55.5 -23t-60.5 -7t-142 27h2q-82 24 -118 24q-54 0 -119.5 -28t-104.5 -85zM563 1593q54 70 189 70q38 0 129 -24.5t129 -24.5q27 0 52 7t46.5 19t35.5 22t30 23.5t20 16.5v205q-119 -76 -213 -76q-25 0 -106.5 23.5t-129.5 23.5 q-39 0 -75.5 -10.5t-70 -27t-34.5 -17.5z" />
<glyph unicode="&#xd6;" horiz-adv-x="1794" d="M92 766q0 159 61.5 303.5t166 249t249 166t303.5 61.5t303.5 -61.5t249 -166t166.5 -249t62 -303.5t-62 -304t-166.5 -249.5t-249 -166.5t-303.5 -62t-303.5 62t-249 166.5t-166 249.5t-61.5 304zM131 766q0 -152 58.5 -289.5t157.5 -237t236.5 -158t288.5 -58.5 q152 0 289.5 58.5t236.5 158t157.5 237t58.5 289.5q0 151 -58.5 288.5t-157.5 236.5t-236.5 157.5t-289.5 58.5q-151 0 -288.5 -58.5t-236.5 -157.5t-157.5 -236.5t-58.5 -288.5zM408 766q0 192 136 328.5t328 136.5t328.5 -136.5t136.5 -328.5t-136.5 -328.5t-328.5 -136.5 t-328 136.5t-136 328.5zM446 766q0 -176 125.5 -301t300.5 -125q177 0 301.5 124.5t124.5 301.5q0 175 -125 300.5t-301 125.5q-175 0 -300.5 -125.5t-125.5 -300.5zM518 1743q0 71 47.5 117.5t118.5 46.5q70 0 118 -46.5t48 -117.5q0 -69 -48.5 -117.5t-117.5 -48.5 q-70 0 -118 48.5t-48 117.5zM555 1743q0 -53 37 -90t92 -37q52 0 89.5 37t37.5 90q0 55 -37 91t-90 36q-56 0 -92.5 -36t-36.5 -91zM907 1743q0 71 48.5 117.5t117.5 46.5q71 0 118.5 -46.5t47.5 -117.5q0 -69 -48 -117.5t-118 -48.5q-68 0 -117 48.5t-49 117.5zM946 1743 q0 -53 37 -90t90 -37q55 0 92 37t37 90q0 55 -36.5 91t-92.5 36q-53 0 -90 -36t-37 -91z" />
<glyph unicode="&#xd7;" horiz-adv-x="1175" d="M125 264l260 258l-254 254l207 205l252 -252l258 256l207 -205l-258 -258l254 -254l-205 -207l-256 256l-258 -260zM178 264l154 -153l258 260l256 -256l151 153l-254 254l258 258l-153 154l-258 -258l-252 252l-154 -152l254 -254z" />
<glyph unicode="&#xd8;" horiz-adv-x="1794" d="M92 766q0 159 61.5 303.5t166 249t249 166t303.5 61.5q58 0 105 -6l27 88h213l-39 -141q215 -88 345 -283t130 -438q0 -159 -62 -304t-166.5 -249.5t-249 -166.5t-303.5 -62q-59 0 -127 10l-28 -84h-215l43 143q-204 95 -328.5 287t-124.5 426zM131 766 q0 -232 128 -418.5t335 -269.5l-41 -131h137l29 92q85 -16 153 -16q152 0 289.5 58.5t236.5 158t157.5 237t58.5 289.5q0 236 -134.5 426.5t-349.5 267.5l35 129h-133l-28 -94q-64 12 -132 12q-151 0 -288.5 -58.5t-236.5 -157.5t-157.5 -236.5t-58.5 -288.5zM408 766 q0 192 136 328.5t328 136.5q18 0 54 -4l-254 -881q-120 60 -192 171.5t-72 248.5zM446 766q0 -115 53.5 -208.5t147.5 -151.5q39 135 114.5 390.5t115.5 395.5h-5q-175 0 -300.5 -125.5t-125.5 -300.5zM797 305l256 889q128 -55 206 -170t78 -258q0 -192 -136.5 -328.5 t-328.5 -136.5q-25 0 -75 4zM848 340h24q177 0 301.5 124.5t124.5 301.5q0 122 -59.5 221.5t-163.5 153.5q-207 -733 -227 -801z" />
<glyph unicode="&#xd9;" horiz-adv-x="1243" d="M86 451v1077h354v-1039q0 -63 54 -104t116 -41q63 0 110.5 40.5t47.5 98.5v1045h354v-1077q0 -131 -73 -238t-190 -165t-249 -58q-134 0 -254 58t-195 165t-75 238zM125 451q0 -120 69.5 -218t180.5 -151t235 -53q123 0 231 53t175 151t67 218v1038h-276v-1006 q0 -74 -59.5 -126t-137.5 -52q-77 0 -143 52t-66 132v1000h-276v-1038zM334 1677l125 273l426 -183l-158 -247zM385 1700l328 -133l116 184l-352 150z" />
<glyph unicode="&#xda;" horiz-adv-x="1243" d="M86 451v1077h354v-1039q0 -63 54 -104t116 -41q63 0 110.5 40.5t47.5 98.5v1045h354v-1077q0 -131 -73 -238t-190 -165t-249 -58q-134 0 -254 58t-195 165t-75 238zM125 451q0 -120 69.5 -218t180.5 -151t235 -53q123 0 231 53t175 151t67 218v1038h-276v-1006 q0 -74 -59.5 -126t-137.5 -52q-77 0 -143 52t-66 132v1000h-276v-1038zM330 1767l428 183l123 -273l-394 -157zM385 1751l119 -184l325 133l-90 201z" />
<glyph unicode="&#xdb;" horiz-adv-x="1243" d="M86 451v1077h354v-1039q0 -63 54 -104t116 -41q63 0 110.5 40.5t47.5 98.5v1045h354v-1077q0 -131 -73 -238t-190 -165t-249 -58q-134 0 -254 58t-195 165t-75 238zM125 451q0 -120 69.5 -218t180.5 -151t235 -53q123 0 231 53t175 151t67 218v1038h-276v-1006 q0 -74 -59.5 -126t-137.5 -52q-77 0 -143 52t-66 132v1000h-276v-1038zM260 1804l344 131l346 -143l-162 -248l-186 80l-178 -70zM319 1786l119 -184l166 63l168 -74l121 185l-289 120z" />
<glyph unicode="&#xdc;" horiz-adv-x="1243" d="M86 451v1077h354v-1039q0 -63 54 -104t116 -41q63 0 110.5 40.5t47.5 98.5v1045h354v-1077q0 -131 -73 -238t-190 -165t-249 -58q-134 0 -254 58t-195 165t-75 238zM125 451q0 -120 69.5 -218t180.5 -151t235 -53q123 0 231 53t175 151t67 218v1038h-276v-1006 q0 -74 -59.5 -126t-137.5 -52q-77 0 -143 52t-66 132v1000h-276v-1038zM244 1743q0 71 47.5 117.5t118.5 46.5q70 0 117.5 -46.5t47.5 -117.5q0 -69 -48 -117.5t-117 -48.5q-70 0 -118 48.5t-48 117.5zM281 1743q0 -53 37 -90t92 -37q52 0 89.5 37t37.5 90q0 55 -37 91 t-90 36q-56 0 -92.5 -36t-36.5 -91zM633 1743q0 71 48.5 117.5t117.5 46.5q71 0 118.5 -46.5t47.5 -117.5q0 -69 -48 -117.5t-118 -48.5q-68 0 -117 48.5t-49 117.5zM672 1743q0 -53 37 -90t90 -37q55 0 92 37t37 90q0 55 -36.5 91t-92.5 36q-53 0 -90 -36t-37 -91z" />
<glyph unicode="&#xdd;" horiz-adv-x="1216" d="M-10 1530h391l211 -529l213 527h387l-422 -973v-555h-354v555q-243 554 -426 975zM47 1491l408 -930v-522h276v522l404 928h-304l-233 -578q-3 -6 -6 -6t-6 6l-232 580h-307zM317 1767l428 183l123 -273l-393 -157zM373 1751l119 -184l325 133l-90 201z" />
<glyph unicode="&#xde;" horiz-adv-x="1787" d="M88 0v1530h354v-268q27 0 65.5 1t49.5 1h16q201 0 331 -136.5t130 -339.5q0 -133 -58.5 -243.5t-164.5 -175t-238 -64.5h-131v-305h-354zM127 39h276v295q0 8 11 8h159q183 0 302.5 129.5t119.5 316.5q0 186 -119 311.5t-303 125.5q-1 0 -29 -0.5t-69 -1t-72 -0.5v268 h-276v-1452zM403 631v305q0 12 11 12h159q41 0 71 -16.5t45.5 -42t22.5 -51t7 -50.5q0 -26 -7 -52.5t-22.5 -53.5t-45.5 -44t-71 -17h-159q-11 0 -11 10zM442 659h131q56 0 81.5 40.5t25.5 88.5q0 44 -25.5 82.5t-81.5 38.5h-131v-250z" />
<glyph unicode="&#xdf;" horiz-adv-x="1146" d="M92 0v1085q0 113 60.5 209t157 149.5t202.5 53.5h25q113 0 210.5 -60t153 -157t55.5 -205q0 -133 -67 -244q151 -144 151 -352q0 -130 -57.5 -239.5t-162 -174.5t-232.5 -65h-496zM129 39h272v1046q0 6 1 14t7.5 25.5t17.5 31t35 24t56 10.5q60 0 100.5 -41t40.5 -98 q0 -58 -28.5 -100.5t-77.5 -45.5v-235q63 0 120.5 -53.5t57.5 -124.5q0 -75 -42.5 -129t-113.5 -54h-133v-270h146q177 0 295 128.5t118 311.5q0 105 -43 194t-120 152q82 109 82 250q0 152 -113 268.5t-270 116.5h-25q-97 0 -185 -49t-143 -136.5t-55 -189.5v-1046z M438 346h137q53 0 85 43t32 103q0 59 -51.5 100t-126.5 41v307q54 4 80.5 35t26.5 76q0 41 -29.5 70.5t-73.5 29.5q-22 0 -38 -6.5t-24 -15t-12.5 -19.5t-5 -16.5t-0.5 -8.5v-739z" />
<glyph unicode="&#xe0;" horiz-adv-x="1202" d="M33 512q0 106 42 203.5t113 168t168 112.5t203 42q122 0 219 -47v33h312v-1024h-312v31q-99 -45 -219 -45q-106 0 -203 42t-168 112.5t-113 168t-42 203.5zM72 512q0 -132 66 -244.5t178 -178.5t243 -66q144 0 256 69v-53h236v946h-236v-55q-117 71 -256 71 q-131 0 -243 -66t-178 -178.5t-66 -244.5zM313 1268l125 272l426 -182l-157 -248zM328 512q0 100 67 168t164 68q98 0 166 -68t68 -168t-68 -168t-166 -68q-97 0 -164 68t-67 168zM365 512q0 -84 56 -140.5t138 -56.5q84 0 140.5 56.5t56.5 140.5t-56.5 140.5t-140.5 56.5 q-82 0 -138 -56.5t-56 -140.5zM365 1290l327 -133l117 184l-352 150z" />
<glyph unicode="&#xe1;" horiz-adv-x="1202" d="M33 512q0 106 42 203.5t113 168t168 112.5t203 42q122 0 219 -47v33h312v-1024h-312v31q-99 -45 -219 -45q-106 0 -203 42t-168 112.5t-113 168t-42 203.5zM72 512q0 -132 66 -244.5t178 -178.5t243 -66q144 0 256 69v-53h236v946h-236v-55q-117 71 -256 71 q-131 0 -243 -66t-178 -178.5t-66 -244.5zM309 1358l428 182l123 -272l-393 -158zM328 512q0 100 67 168t164 68q98 0 166 -68t68 -168t-68 -168t-166 -68q-97 0 -164 68t-67 168zM365 512q0 -84 56 -140.5t138 -56.5q84 0 140.5 56.5t56.5 140.5t-56.5 140.5t-140.5 56.5 q-82 0 -138 -56.5t-56 -140.5zM365 1341l118 -184l326 133l-90 201z" />
<glyph unicode="&#xe2;" horiz-adv-x="1202" d="M33 512q0 106 42 203.5t113 168t168 112.5t203 42q122 0 219 -47v33h312v-1024h-312v31q-99 -45 -219 -45q-106 0 -203 42t-168 112.5t-113 168t-42 203.5zM72 512q0 -132 66 -244.5t178 -178.5t243 -66q144 0 256 69v-53h236v946h-236v-55q-117 71 -256 71 q-131 0 -243 -66t-178 -178.5t-66 -244.5zM240 1395l344 131l346 -144l-162 -247l-186 79l-179 -69zM299 1376l119 -184l166 63l168 -73l120 184l-288 121zM328 512q0 100 67 168t164 68q98 0 166 -68t68 -168t-68 -168t-166 -68q-97 0 -164 68t-67 168zM365 512 q0 -84 56 -140.5t138 -56.5q84 0 140.5 56.5t56.5 140.5t-56.5 140.5t-140.5 56.5q-82 0 -138 -56.5t-56 -140.5z" />
<glyph unicode="&#xe3;" horiz-adv-x="1202" d="M33 512q0 106 42 203.5t113 168t168 112.5t203 42q122 0 219 -47v33h312v-1024h-312v31q-99 -45 -219 -45q-106 0 -203 42t-168 112.5t-113 168t-42 203.5zM72 512q0 -132 66 -244.5t178 -178.5t243 -66q144 0 256 69v-53h236v946h-236v-55q-117 71 -256 71 q-131 0 -243 -66t-178 -178.5t-66 -244.5zM233 1104v336l46 18l-7 -2q95 49 179 49q59 0 153 -28q78 -19 82 -19q83 0 252 107v-295l-37 -27l2 2q-23 -18 -34 -26t-38 -24t-55.5 -23t-60.5 -7t-142 27h2q-85 25 -118 25q-54 0 -119.5 -28t-104.5 -85zM268 1184q53 69 189 69 q38 0 129 -24.5t129 -24.5q27 0 52 7t46.5 19t35.5 22t30 23.5t20 16.5v205q-119 -76 -213 -76q-25 0 -106 23.5t-129 23.5q-39 0 -75.5 -10.5t-70.5 -27.5t-35 -17zM328 512q0 100 67 168t164 68q98 0 166 -68t68 -168t-68 -168t-166 -68q-97 0 -164 68t-67 168zM365 512 q0 -84 56 -140.5t138 -56.5q84 0 140.5 56.5t56.5 140.5t-56.5 140.5t-140.5 56.5q-82 0 -138 -56.5t-56 -140.5z" />
<glyph unicode="&#xe4;" horiz-adv-x="1202" d="M33 512q0 106 42 203.5t113 168t168 112.5t203 42q122 0 219 -47v33h312v-1024h-312v31q-99 -45 -219 -45q-106 0 -203 42t-168 112.5t-113 168t-42 203.5zM72 512q0 -132 66 -244.5t178 -178.5t243 -66q144 0 256 69v-53h236v946h-236v-55q-117 71 -256 71 q-131 0 -243 -66t-178 -178.5t-66 -244.5zM223 1333q0 71 47.5 117.5t118.5 46.5q70 0 118 -46.5t48 -117.5q0 -69 -48.5 -117.5t-117.5 -48.5q-70 0 -118 48.5t-48 117.5zM260 1333q0 -53 37 -90t92 -37q53 0 90 37t37 90q0 55 -37 91t-90 36q-56 0 -92.5 -36t-36.5 -91z M328 512q0 100 67 168t164 68q98 0 166 -68t68 -168t-68 -168t-166 -68q-97 0 -164 68t-67 168zM365 512q0 -84 56 -140.5t138 -56.5q84 0 140.5 56.5t56.5 140.5t-56.5 140.5t-140.5 56.5q-82 0 -138 -56.5t-56 -140.5zM612 1333q0 71 48.5 117.5t117.5 46.5 q71 0 118.5 -46.5t47.5 -117.5q0 -69 -48 -117.5t-118 -48.5q-68 0 -117 48.5t-49 117.5zM651 1333q0 -53 37.5 -90t89.5 -37q55 0 92 37t37 90q0 55 -36.5 91t-92.5 36q-53 0 -90 -36t-37 -91z" />
<glyph unicode="&#xe5;" horiz-adv-x="1202" d="M33 512q0 106 42 203.5t113 168t168 112.5t203 42q122 0 219 -47v33h312v-1024h-312v31q-99 -45 -219 -45q-106 0 -203 42t-168 112.5t-113 168t-42 203.5zM72 512q0 -132 66 -244.5t178 -178.5t243 -66q144 0 256 69v-53h236v946h-236v-55q-117 71 -256 71 q-131 0 -243 -66t-178 -178.5t-66 -244.5zM328 512q0 100 67 168t164 68q98 0 166 -68t68 -168t-68 -168t-166 -68q-97 0 -164 68t-67 168zM362 1323q0 95 65.5 160t160.5 65t160 -65t65 -160t-65 -160t-160 -65t-160.5 65t-65.5 160zM365 512q0 -84 56 -140.5t138 -56.5 q84 0 140.5 56.5t56.5 140.5t-56.5 140.5t-140.5 56.5q-82 0 -138 -56.5t-56 -140.5zM401 1323q0 -79 53.5 -132.5t133.5 -53.5t134 53.5t54 132.5t-54 133.5t-134 54.5q-79 0 -133 -54t-54 -134zM467 1323q0 51 35.5 87t85.5 36q51 0 87 -36t36 -87q0 -50 -36 -85.5 t-87 -35.5q-50 0 -85.5 36t-35.5 85zM506 1323q0 -34 24 -58t58 -24q35 0 59.5 24t24.5 58q0 35 -24.5 59.5t-59.5 24.5q-34 0 -58 -24.5t-24 -59.5z" />
<glyph unicode="&#xe6;" horiz-adv-x="1896" d="M45 512q0 106 42 203.5t113 168t168 112.5t203 42q123 0 220 -47v33h311v-29q97 43 205 43q225 0 349 -137.5t124 -365.5q0 -34 -11 -146h-606q25 -43 73.5 -67.5t109.5 -24.5q59 0 120.5 22t149.5 68l139 -246q-116 -84 -214 -118.5t-220 -34.5q-119 0 -219 41v-29h-314 v31q-96 -45 -217 -45q-106 0 -203 42t-168 112.5t-113 168t-42 203.5zM82 512q0 -132 66.5 -244.5t179 -178.5t243.5 -66q142 0 254 69v-53h238v51q112 -65 258 -65q115 0 201.5 29t183.5 98l-104 184q-75 -39 -133 -57.5t-123 -18.5q-87 0 -150.5 43.5t-85.5 114.5q0 8 6 8 h619q6 58 6 109q0 211 -113.5 338.5t-320.5 127.5q-135 0 -244 -67v51h-236l-2 -55q-117 71 -254 71q-131 0 -243.5 -66t-179 -178.5t-66.5 -244.5zM338 512q0 100 67.5 168t165.5 68t166 -68t68 -168t-68 -168t-166 -68t-165.5 68t-67.5 168zM377 512q0 -84 56 -140.5 t138 -56.5q84 0 140.5 56.5t56.5 140.5t-56.5 140.5t-140.5 56.5q-82 0 -138 -56.5t-56 -140.5zM1106 623q0 12 14.5 40.5t40.5 53.5q59 59 137 59q89 0 140 -51q41 -41 41 -104q0 -5 -6 -5h-359q-8 0 -8 7zM1157 655h279q-6 21 -25 43q-39 39 -113 39q-63 0 -110 -47 q-10 -8 -31 -35z" />
<glyph unicode="&#xe7;" horiz-adv-x="1126" d="M49 514q0 143 70.5 263.5t193 190.5t267.5 70q130 0 255.5 -74.5t196.5 -185.5l-241 -180l-37 29q-29 26 -46 39t-51 26t-73 13q-82 0 -138.5 -55.5t-56.5 -135.5q0 -82 56.5 -138.5t138.5 -56.5q53 0 96 32.5t96 103.5l289 -146q-70 -134 -183.5 -219t-246.5 -100l-4 -6 q65 -12 104 -59.5t39 -121.5q0 -71 -40 -122t-94.5 -73t-113.5 -22q-35 0 -99 13.5t-101 35.5v205l116 162q-172 45 -282.5 186.5t-110.5 325.5zM88 514q0 -185 118.5 -323t299.5 -164l-123 -170h106q21 0 33 -2.5t22.5 -15t10.5 -36.5q0 -31 -14 -42t-41 -11h-17 q-27 0 -77 12q-27 8 -44 15v-121q25 -13 79 -22t85 -9q79 0 145 46.5t66 131.5q0 66 -40 105t-103 39q-6 0 -20.5 -3t-20.5 -3l61 84q128 9 233.5 81t166.5 187l-226 113q-46 -64 -93 -93.5t-111 -29.5q-97 0 -164.5 67t-67.5 164q0 95 67.5 162t164.5 67q27 0 51 -5 t40 -10.5t35.5 -18.5t27.5 -19.5t27 -23.5t23 -21l193 141q-59 92 -170 153.5t-231 61.5q-135 0 -248 -65.5t-178.5 -177.5t-65.5 -244zM360 -182l50 -17h2q44 -14 71 -14h17q16 0 16 16q0 15 -27 15h-129z" />
<glyph unicode="&#xe8;" horiz-adv-x="1091" d="M35 514q0 143 68 263t187 189.5t261 69.5q225 0 349 -138t124 -366q0 -43 -10 -145h-606q25 -43 73 -67.5t109 -24.5q59 0 120.5 22t149.5 68l139 -246q-116 -84 -214 -118.5t-220 -34.5q-230 0 -380 149t-150 379zM74 514q0 -214 138.5 -352.5t352.5 -138.5 q115 0 201.5 29t183.5 98l-104 184q-75 -39 -133 -57.5t-123 -18.5q-87 0 -150.5 43.5t-85.5 114.5q0 8 6 8h619q6 58 6 108q0 211 -113.5 339t-320.5 128q-200 0 -338.5 -141.5t-138.5 -343.5zM258 1268l125 272l426 -182l-158 -248zM309 1290l328 -133l117 184l-353 150z M350 621q0 12 15 40.5t41 53.5q59 59 137 59q88 0 139 -51q41 -41 41 -105q0 -4 -6 -4h-359q-8 0 -8 7zM401 653h279q-6 21 -25 43q-39 39 -112 39q-64 0 -111 -47q-10 -8 -31 -35z" />
<glyph unicode="&#xe9;" horiz-adv-x="1091" d="M35 514q0 143 68 263t187 189.5t261 69.5q225 0 349 -138t124 -366q0 -43 -10 -145h-606q25 -43 73 -67.5t109 -24.5q59 0 120.5 22t149.5 68l139 -246q-116 -84 -214 -118.5t-220 -34.5q-230 0 -380 149t-150 379zM74 514q0 -214 138.5 -352.5t352.5 -138.5 q115 0 201.5 29t183.5 98l-104 184q-75 -39 -133 -57.5t-123 -18.5q-87 0 -150.5 43.5t-85.5 114.5q0 8 6 8h619q6 58 6 108q0 211 -113.5 339t-320.5 128q-200 0 -338.5 -141.5t-138.5 -343.5zM254 1358l428 182l123 -272l-393 -158zM309 1341l119 -184l326 133l-90 201z M350 621q0 12 15 40.5t41 53.5q59 59 137 59q88 0 139 -51q41 -41 41 -105q0 -4 -6 -4h-359q-8 0 -8 7zM401 653h279q-6 21 -25 43q-39 39 -112 39q-64 0 -111 -47q-10 -8 -31 -35z" />
<glyph unicode="&#xea;" horiz-adv-x="1091" d="M35 514q0 143 68 263t187 189.5t261 69.5q225 0 349 -138t124 -366q0 -43 -10 -145h-606q25 -43 73 -67.5t109 -24.5q59 0 120.5 22t149.5 68l139 -246q-116 -84 -214 -118.5t-220 -34.5q-230 0 -380 149t-150 379zM74 514q0 -214 138.5 -352.5t352.5 -138.5 q115 0 201.5 29t183.5 98l-104 184q-75 -39 -133 -57.5t-123 -18.5q-87 0 -150.5 43.5t-85.5 114.5q0 8 6 8h619q6 58 6 108q0 211 -113.5 339t-320.5 128q-200 0 -338.5 -141.5t-138.5 -343.5zM184 1395l344 131l346 -144l-161 -247l-187 79l-178 -69zM244 1376l118 -184 l166 63l168 -73l121 184l-289 121zM350 621q0 12 15 40.5t41 53.5q59 59 137 59q88 0 139 -51q41 -41 41 -105q0 -4 -6 -4h-359q-8 0 -8 7zM401 653h279q-6 21 -25 43q-39 39 -112 39q-64 0 -111 -47q-10 -8 -31 -35z" />
<glyph unicode="&#xeb;" horiz-adv-x="1091" d="M35 514q0 143 68 263t187 189.5t261 69.5q225 0 349 -138t124 -366q0 -43 -10 -145h-606q25 -43 73 -67.5t109 -24.5q59 0 120.5 22t149.5 68l139 -246q-116 -84 -214 -118.5t-220 -34.5q-230 0 -380 149t-150 379zM74 514q0 -214 138.5 -352.5t352.5 -138.5 q115 0 201.5 29t183.5 98l-104 184q-75 -39 -133 -57.5t-123 -18.5q-87 0 -150.5 43.5t-85.5 114.5q0 8 6 8h619q6 58 6 108q0 211 -113.5 339t-320.5 128q-200 0 -338.5 -141.5t-138.5 -343.5zM168 1333q0 71 47.5 117.5t118.5 46.5q70 0 118 -46.5t48 -117.5 q0 -69 -48.5 -117.5t-117.5 -48.5q-70 0 -118 48.5t-48 117.5zM205 1333q0 -53 37 -90t92 -37q52 0 89.5 37t37.5 90q0 55 -37 91t-90 36q-56 0 -92.5 -36t-36.5 -91zM350 621q0 12 15 40.5t41 53.5q59 59 137 59q88 0 139 -51q41 -41 41 -105q0 -4 -6 -4h-359q-8 0 -8 7z M401 653h279q-6 21 -25 43q-39 39 -112 39q-64 0 -111 -47q-10 -8 -31 -35zM557 1333q0 71 48.5 117.5t117.5 46.5q71 0 118.5 -46.5t47.5 -117.5q0 -69 -48 -117.5t-118 -48.5q-68 0 -117 48.5t-49 117.5zM596 1333q0 -53 37 -90t90 -37q55 0 92 37t37 90q0 55 -36.5 91 t-92.5 36q-53 0 -90 -36t-37 -91z" />
<glyph unicode="&#xec;" horiz-adv-x="430" d="M-70 1268l125 272l426 -182l-157 -248zM-18 1290l327 -133l117 184l-352 150zM55 0v1024h305v-1024h-305zM94 39h230v946h-230v-946z" />
<glyph unicode="&#xed;" horiz-adv-x="430" d="M-74 1358l428 182l123 -272l-393 -158zM-18 1341l118 -184l326 133l-90 201zM55 0v1024h305v-1024h-305zM94 39h230v946h-230v-946z" />
<glyph unicode="&#xee;" horiz-adv-x="430" d="M-143 1395l344 131l346 -144l-162 -247l-186 79l-179 -69zM-84 1376l119 -184l166 63l168 -73l120 184l-288 121zM55 0v1024h305v-1024h-305zM94 39h230v946h-230v-946z" />
<glyph unicode="&#xef;" horiz-adv-x="430" d="M-160 1333q0 71 47.5 117.5t118.5 46.5q70 0 118 -46.5t48 -117.5q0 -69 -48.5 -117.5t-117.5 -48.5q-70 0 -118 48.5t-48 117.5zM-123 1333q0 -53 37 -90t92 -37q52 0 89.5 37t37.5 90q0 55 -37 91t-90 36q-56 0 -92.5 -36t-36.5 -91zM55 0v1024h305v-1024h-305zM94 39 h230v946h-230v-946zM229 1333q0 71 48.5 117.5t117.5 46.5q71 0 118.5 -46.5t47.5 -117.5q0 -69 -48 -117.5t-118 -48.5q-68 0 -117 48.5t-49 117.5zM268 1333q0 -53 37 -90t90 -37q55 0 92 37t37 90q0 55 -36.5 91t-92.5 36q-53 0 -90 -36t-37 -91z" />
<glyph unicode="&#xf0;" horiz-adv-x="1310" d="M88 526q0 168 91 295t243 189l-133 188l98 70l-49 75l270 201l62 -76l100 70l166 -242l-105 -73l269 -420q74 -118 74 -277q0 -147 -73 -271.5t-198 -196.5t-272 -72t-272 72t-198 196.5t-73 271.5zM127 526q0 -209 147.5 -356t356.5 -147t356.5 147t147.5 356 q0 147 -68 254l-289 455l105 72l-123 178l-98 -68l-62 74l-211 -158l51 -73l-98 -70l127 -178l94 67l39 -59q2 -2 2 -6q0 -2 -4 -2q-203 -21 -338 -154t-135 -332zM397 526q0 98 68 166t166 68q102 0 167.5 -67.5t65.5 -166.5q0 -101 -65 -166t-168 -65q-99 0 -166.5 65.5 t-67.5 165.5zM436 526q0 -84 55.5 -139t139.5 -55q86 0 141 54.5t55 139.5q0 84 -55.5 140.5t-140.5 56.5q-83 0 -139 -57t-56 -140z" />
<glyph unicode="&#xf1;" horiz-adv-x="1091" d="M66 0v1024h311v-12q65 26 149 26q220 0 340.5 -118.5t120.5 -337.5v-582h-334v578q0 54 -37 90.5t-90 36.5q-51 0 -87.5 -33t-39.5 -84v-588h-333zM104 39h258v551q3 66 50.5 109.5t113.5 43.5q69 0 117.5 -48t48.5 -117v-539h258v543q0 200 -111 309.5t-313 109.5 q-108 0 -188 -51v35h-234v-946zM178 1104v336l45 18l-6 -2q95 49 178 49q60 0 154 -28q78 -19 82 -19q83 0 252 107v-295l-37 -27l2 2q-30 -23 -47.5 -35.5t-59 -28.5t-82.5 -16q-16 0 -36 3t-31.5 5.5t-39 9.5t-34.5 9h2q-85 25 -119 25q-54 0 -119 -28t-104 -85zM213 1184 q53 69 188 69q38 0 129 -24.5t129 -24.5q27 0 52 6.5t46.5 19t36 22.5t31 24t19.5 16v205q-119 -76 -213 -76q-25 0 -106.5 23.5t-129.5 23.5q-39 0 -75.5 -10.5t-70 -27t-34.5 -17.5z" />
<glyph unicode="&#xf2;" horiz-adv-x="1191" d="M51 514q0 143 70.5 263.5t192.5 190.5t266 70q143 0 264 -70t191.5 -190.5t70.5 -263.5q0 -145 -70.5 -266.5t-191.5 -191.5t-264 -70q-144 0 -266 70t-192.5 191.5t-70.5 266.5zM88 514q0 -134 66 -247t179 -178.5t247 -65.5q202 0 344.5 143.5t142.5 347.5 q0 201 -142.5 344t-344.5 143q-134 0 -247 -65.5t-179 -177.5t-66 -244zM309 1268l125 272l426 -182l-158 -248zM348 514q0 95 67.5 162t164.5 67q95 0 162 -67t67 -162q0 -97 -67 -164t-162 -67q-97 0 -164.5 67t-67.5 164zM360 1290l328 -133l117 184l-352 150zM387 514 q0 -82 55.5 -138.5t137.5 -56.5q80 0 136 56.5t56 138.5q0 79 -56 135t-136 56q-81 0 -137 -55.5t-56 -135.5z" />
<glyph unicode="&#xf3;" horiz-adv-x="1191" d="M51 514q0 143 70.5 263.5t192.5 190.5t266 70q143 0 264 -70t191.5 -190.5t70.5 -263.5q0 -145 -70.5 -266.5t-191.5 -191.5t-264 -70q-144 0 -266 70t-192.5 191.5t-70.5 266.5zM88 514q0 -134 66 -247t179 -178.5t247 -65.5q202 0 344.5 143.5t142.5 347.5 q0 201 -142.5 344t-344.5 143q-134 0 -247 -65.5t-179 -177.5t-66 -244zM305 1358l428 182l123 -272l-393 -158zM348 514q0 95 67.5 162t164.5 67q95 0 162 -67t67 -162q0 -97 -67 -164t-162 -67q-97 0 -164.5 67t-67.5 164zM360 1341l119 -184l326 133l-90 201zM387 514 q0 -82 55.5 -138.5t137.5 -56.5q80 0 136 56.5t56 138.5q0 79 -56 135t-136 56q-81 0 -137 -55.5t-56 -135.5z" />
<glyph unicode="&#xf4;" horiz-adv-x="1191" d="M51 514q0 143 70.5 263.5t192.5 190.5t266 70q143 0 264 -70t191.5 -190.5t70.5 -263.5q0 -145 -70.5 -266.5t-191.5 -191.5t-264 -70q-144 0 -266 70t-192.5 191.5t-70.5 266.5zM88 514q0 -134 66 -247t179 -178.5t247 -65.5q202 0 344.5 143.5t142.5 347.5 q0 201 -142.5 344t-344.5 143q-134 0 -247 -65.5t-179 -177.5t-66 -244zM233 1395l345 131l346 -144l-162 -247l-187 79l-178 -69zM293 1376l119 -184l166 63l167 -73l121 184l-288 121zM348 514q0 95 67.5 162t164.5 67q95 0 162 -67t67 -162q0 -97 -67 -164t-162 -67 q-97 0 -164.5 67t-67.5 164zM387 514q0 -82 55.5 -138.5t137.5 -56.5q80 0 136 56.5t56 138.5q0 79 -56 135t-136 56q-81 0 -137 -55.5t-56 -135.5z" />
<glyph unicode="&#xf5;" horiz-adv-x="1191" d="M51 514q0 143 70.5 263.5t192.5 190.5t266 70q143 0 264 -70t191.5 -190.5t70.5 -263.5q0 -145 -70.5 -266.5t-191.5 -191.5t-264 -70q-144 0 -266 70t-192.5 191.5t-70.5 266.5zM88 514q0 -134 66 -247t179 -178.5t247 -65.5q202 0 344.5 143.5t142.5 347.5 q0 201 -142.5 344t-344.5 143q-134 0 -247 -65.5t-179 -177.5t-66 -244zM227 1104v336l45 18l-6 -2q95 49 178 49q60 0 154 -28q78 -19 82 -19q83 0 252 107v-295l-37 -27l2 2q-23 -18 -34 -26t-38 -24t-55.5 -23t-60.5 -7t-142 27h2q-85 25 -118 25q-54 0 -119.5 -28 t-104.5 -85zM262 1184q53 69 189 69q38 0 129 -24.5t129 -24.5q27 0 52 7t46.5 19t35.5 22t30 23.5t20 16.5v205q-119 -76 -213 -76q-25 0 -106.5 23.5t-129.5 23.5q-39 0 -75.5 -10.5t-70 -27t-34.5 -17.5zM348 514q0 95 67.5 162t164.5 67q95 0 162 -67t67 -162 q0 -97 -67 -164t-162 -67q-97 0 -164.5 67t-67.5 164zM387 514q0 -82 55.5 -138.5t137.5 -56.5q80 0 136 56.5t56 138.5q0 79 -56 135t-136 56q-81 0 -137 -55.5t-56 -135.5z" />
<glyph unicode="&#xf6;" horiz-adv-x="1191" d="M51 514q0 143 70.5 263.5t192.5 190.5t266 70q143 0 264 -70t191.5 -190.5t70.5 -263.5q0 -145 -70.5 -266.5t-191.5 -191.5t-264 -70q-144 0 -266 70t-192.5 191.5t-70.5 266.5zM88 514q0 -134 66 -247t179 -178.5t247 -65.5q202 0 344.5 143.5t142.5 347.5 q0 201 -142.5 344t-344.5 143q-134 0 -247 -65.5t-179 -177.5t-66 -244zM217 1333q0 71 47.5 117.5t118.5 46.5q70 0 118 -46.5t48 -117.5q0 -69 -48.5 -117.5t-117.5 -48.5q-70 0 -118 48.5t-48 117.5zM254 1333q0 -53 37 -90t92 -37q53 0 90 37t37 90q0 55 -37 91t-90 36 q-56 0 -92.5 -36t-36.5 -91zM348 514q0 95 67.5 162t164.5 67q95 0 162 -67t67 -162q0 -97 -67 -164t-162 -67q-97 0 -164.5 67t-67.5 164zM387 514q0 -82 55.5 -138.5t137.5 -56.5q80 0 136 56.5t56 138.5q0 79 -56 135t-136 56q-81 0 -137 -55.5t-56 -135.5zM606 1333 q0 71 48.5 117.5t117.5 46.5q71 0 118.5 -46.5t47.5 -117.5q0 -69 -48 -117.5t-118 -48.5q-68 0 -117 48.5t-49 117.5zM645 1333q0 -53 37.5 -90t89.5 -37q55 0 92 37t37 90q0 55 -36.5 91t-92.5 36q-53 0 -90 -36t-37 -91z" />
<glyph unicode="&#xf7;" d="M80 377v293h432q-49 22 -79 67t-30 101q0 76 55 131t132 55q76 0 131 -55t55 -131q0 -56 -30 -101t-80 -67h438v-293h-434q48 -24 77 -68.5t29 -99.5q0 -77 -55 -131.5t-131 -54.5q-77 0 -132 55t-55 131q0 54 29 99t76 69h-428zM117 416h948v215h-948v-215zM442 209 q0 -61 43 -104.5t105 -43.5q61 0 104 43t43 105q0 61 -42.5 104t-104.5 43t-105 -43t-43 -104zM442 838q0 -62 43 -105t105 -43q61 0 104 43t43 105t-42.5 104.5t-104.5 42.5t-105 -43t-43 -104z" />
<glyph unicode="&#xf8;" horiz-adv-x="1191" d="M51 514q0 143 70.5 263.5t192.5 190.5t266 70q33 0 47 -2l30 103h201l-45 -156q132 -68 212.5 -193t80.5 -276q0 -145 -70.5 -266.5t-191.5 -191.5t-264 -70q-44 0 -60 2q-15 -46 -28 -105h-195l41 158q-132 67 -209.5 192.5t-77.5 280.5zM88 514q0 -152 80.5 -272.5 t214.5 -178.5l-37 -143h117l31 111q39 -8 86 -8q202 0 344.5 143.5t142.5 347.5q0 150 -82 270.5t-217 178.5l39 139h-121l-33 -107q-37 6 -73 6q-134 0 -247 -65.5t-179 -177.5t-66 -244zM324 514q0 106 75 181t181 75h10l-139 -477q-59 33 -93 91.5t-34 129.5zM362 514 q0 -100 66 -160l111 375q-77 -15 -127 -75.5t-50 -139.5zM561 258l139 481q62 -33 99 -93.5t37 -131.5q0 -107 -74.5 -181.5t-181.5 -74.5h-19zM612 297q81 12 134 72.5t53 144.5q0 104 -76 164z" />
<glyph unicode="&#xf9;" horiz-adv-x="1095" d="M66 442v582h333v-578q0 -54 37 -90.5t90 -36.5q52 0 89.5 33t37.5 82v590h334v-1024h-317v12q-59 -26 -144 -26q-219 0 -339.5 118.5t-120.5 337.5zM104 442q0 -200 111 -309.5t311 -109.5q119 0 183 51v-35h241v946h-258v-551q0 -65 -49 -109t-117 -44t-116 48t-48 117 v539h-258v-543zM260 1268l125 272l426 -182l-158 -248zM311 1290l328 -133l117 184l-353 150z" />
<glyph unicode="&#xfa;" horiz-adv-x="1095" d="M66 442v582h333v-578q0 -54 37 -90.5t90 -36.5q52 0 89.5 33t37.5 82v590h334v-1024h-317v12q-59 -26 -144 -26q-219 0 -339.5 118.5t-120.5 337.5zM104 442q0 -200 111 -309.5t311 -109.5q119 0 183 51v-35h241v946h-258v-551q0 -65 -49 -109t-117 -44t-116 48t-48 117 v539h-258v-543zM256 1358l428 182l123 -272l-393 -158zM311 1341l119 -184l326 133l-90 201z" />
<glyph unicode="&#xfb;" horiz-adv-x="1095" d="M66 442v582h333v-578q0 -54 37 -90.5t90 -36.5q52 0 89.5 33t37.5 82v590h334v-1024h-317v12q-59 -26 -144 -26q-219 0 -339.5 118.5t-120.5 337.5zM104 442q0 -200 111 -309.5t311 -109.5q119 0 183 51v-35h241v946h-258v-551q0 -65 -49 -109t-117 -44t-116 48t-48 117 v539h-258v-543zM186 1395l344 131l347 -144l-162 -247l-187 79l-178 -69zM246 1376l119 -184l165 63l168 -73l121 184l-289 121z" />
<glyph unicode="&#xfc;" horiz-adv-x="1095" d="M66 442v582h333v-578q0 -54 37 -90.5t90 -36.5q52 0 89.5 33t37.5 82v590h334v-1024h-317v12q-59 -26 -144 -26q-219 0 -339.5 118.5t-120.5 337.5zM104 442q0 -200 111 -309.5t311 -109.5q119 0 183 51v-35h241v946h-258v-551q0 -65 -49 -109t-117 -44t-116 48t-48 117 v539h-258v-543zM170 1333q0 71 47.5 117.5t118.5 46.5q70 0 118 -46.5t48 -117.5q0 -69 -48.5 -117.5t-117.5 -48.5q-70 0 -118 48.5t-48 117.5zM207 1333q0 -53 37 -90t92 -37q52 0 89.5 37t37.5 90q0 55 -37 91t-90 36q-56 0 -92.5 -36t-36.5 -91zM559 1333 q0 71 48.5 117.5t117.5 46.5q71 0 118.5 -46.5t47.5 -117.5q0 -69 -48 -117.5t-118 -48.5q-68 0 -117 48.5t-49 117.5zM598 1333q0 -53 37 -90t90 -37q55 0 92 37t37 90q0 55 -36.5 91t-92.5 36q-53 0 -90 -36t-37 -91z" />
<glyph unicode="&#xfd;" horiz-adv-x="976" d="M-10 1024h358l123 -426l125 426h354l-483 -1417h-354l184 526v6zM43 985l291 -833q4 -12 4 -15q0 -10 -4 -18l-168 -473h274l457 1339h-272l-148 -508l-6 -14l-4 14l-148 508h-276zM197 1358l428 182l123 -272l-394 -158zM252 1341l119 -184l325 133l-90 201z" />
<glyph unicode="&#xfe;" horiz-adv-x="1230" d="M70 -393v1796h333v-399q97 34 199 34q106 0 203 -42t168 -112.5t113 -168t42 -203.5t-42 -203.5t-113 -168t-168 -112.5t-203 -42q-115 0 -199 37v-416h-333zM109 -354h258v438q106 -61 235 -61q131 0 244 66t179.5 178.5t66.5 244.5t-66.5 244.5t-179.5 178.5t-244 66 q-130 0 -235 -59v424h-258v-1720zM369 512q0 100 67.5 168t165.5 68t166 -68t68 -168t-68 -168t-166 -68t-165.5 68t-67.5 168zM406 512q0 -84 56 -140.5t140 -56.5q82 0 138.5 56.5t56.5 140.5t-56.5 140.5t-138.5 56.5q-84 0 -140 -56.5t-56 -140.5z" />
<glyph unicode="&#xff;" horiz-adv-x="976" d="M-10 1024h358l123 -426l125 426h354l-483 -1417h-354l184 526v6zM43 985l291 -833q4 -12 4 -15q0 -10 -4 -18l-168 -473h274l457 1339h-272l-148 -508l-6 -14l-4 14l-148 508h-276zM111 1333q0 72 47 118t118 46q70 0 118 -46.5t48 -117.5q0 -69 -48.5 -117.5 t-117.5 -48.5q-70 0 -117.5 48.5t-47.5 117.5zM147 1333q0 -53 37 -90t92 -37q52 0 89.5 37t37.5 90q0 55 -37 91t-90 36q-56 0 -92.5 -36t-36.5 -91zM500 1333q0 71 48.5 117.5t117.5 46.5q71 0 118 -46t47 -118q0 -69 -47.5 -117.5t-117.5 -48.5q-68 0 -117 48.5 t-49 117.5zM539 1333q0 -53 37.5 -90t89.5 -37q55 0 92 37t37 90q0 55 -36.5 91t-92.5 36q-53 0 -90 -36t-37 -91z" />
<glyph unicode="&#x152;" horiz-adv-x="2314" d="M92 766q0 159 61.5 303.5t166 249t249 166t303.5 61.5q275 0 488 -170v154h876v-354h-522v-230h522v-354h-522v-238h522v-354h-876v154q-213 -170 -488 -170q-159 0 -303.5 62t-249 166.5t-166 249.5t-61.5 304zM131 766q0 -152 58.5 -289.5t157.5 -237t236.5 -158 t288.5 -58.5q153 0 288.5 57t238.5 160v-201h799v276h-510q-13 0 -13 13v290q0 11 13 11h510v278h-510q-13 0 -13 11v284q0 12 13 12h510v277h-799v-203q-104 104 -239.5 161.5t-287.5 57.5q-151 0 -288.5 -58.5t-236.5 -157.5t-157.5 -236.5t-58.5 -288.5zM408 766 q0 192 136 328.5t328 136.5t328.5 -136.5t136.5 -328.5t-136.5 -328.5t-328.5 -136.5t-328 136.5t-136 328.5zM446 766q0 -176 125.5 -301t300.5 -125q177 0 301.5 124.5t124.5 301.5q0 175 -125 300.5t-301 125.5q-175 0 -300.5 -125.5t-125.5 -300.5z" />
<glyph unicode="&#x153;" horiz-adv-x="1892" d="M51 514q0 143 70.5 263.5t192.5 190.5t266 70q111 0 211 -45t174 -123q72 78 170.5 122t210.5 44q225 0 349 -138t124 -366q0 -33 -11 -145h-606q25 -43 73 -67.5t109 -24.5q59 0 121 22t150 68l139 -246q-116 -84 -214 -118.5t-220 -34.5q-244 0 -397 166 q-74 -78 -172.5 -122t-210.5 -44q-144 0 -266 70t-192.5 191.5t-70.5 266.5zM88 514q0 -134 66 -247t179 -178.5t247 -65.5q116 0 216 50t169 138q65 -89 167.5 -138.5t227.5 -49.5q115 0 201.5 29t183.5 98l-105 184q-75 -39 -133 -57.5t-123 -18.5q-87 0 -150 43.5 t-85 114.5q0 8 6 8h619q6 58 6 108q0 211 -113.5 339t-320.5 128q-117 0 -216 -50t-165 -138q-67 88 -168 139t-217 51q-134 0 -247 -65.5t-179 -177.5t-66 -244zM348 514q0 95 67.5 162t164.5 67q95 0 162 -67t67 -162q0 -97 -67 -164t-162 -67q-97 0 -164.5 67t-67.5 164z M387 514q0 -82 55.5 -138.5t137.5 -56.5q80 0 136 56.5t56 138.5q0 79 -56 135t-136 56q-81 0 -137 -55.5t-56 -135.5zM1145 621q0 12 14.5 40.5t40.5 53.5q59 59 137 59q89 0 140 -51q41 -41 41 -105q0 -4 -7 -4h-358q-8 0 -8 7zM1196 653h279q-6 21 -25 43q-39 39 -113 39 q-63 0 -110 -47q-10 -8 -31 -35z" />
<glyph unicode="&#x178;" horiz-adv-x="1216" d="M-10 1530h391l211 -529l213 527h387l-422 -973v-555h-354v555q-243 554 -426 975zM47 1491l408 -930v-522h276v522l404 928h-304l-233 -578q-3 -6 -6 -6t-6 6l-232 580h-307zM229 1743q0 71 47.5 117.5t118.5 46.5q70 0 118 -46.5t48 -117.5q0 -69 -48.5 -117.5 t-117.5 -48.5q-70 0 -118 48.5t-48 117.5zM266 1743q0 -53 37 -90t92 -37q53 0 90 37t37 90q0 55 -37 91t-90 36q-56 0 -92.5 -36t-36.5 -91zM618 1743q0 71 48.5 117.5t117.5 46.5q71 0 118.5 -46.5t47.5 -117.5q0 -69 -48 -117.5t-118 -48.5q-68 0 -117 48.5t-49 117.5z M657 1743q0 -53 37.5 -90t89.5 -37q55 0 92 37t37 90q0 55 -36.5 91t-92.5 36q-53 0 -90 -36t-37 -91z" />
<glyph unicode="&#x2c6;" horiz-adv-x="815" d="M47 1395l344 131l346 -144l-162 -247l-186 79l-178 -69zM106 1376l119 -184l166 63l168 -73l121 184l-289 121z" />
<glyph unicode="&#x2dc;" horiz-adv-x="909" d="M86 1104v336l45 18l-6 -2q95 49 178 49q60 0 154 -28q78 -19 82 -19q83 0 252 107v-295l-37 -27l2 2q-30 -23 -47.5 -35.5t-59 -28.5t-82.5 -16q-16 0 -36 3t-31.5 5.5t-39 9.5t-34.5 9h2q-85 25 -119 25q-54 0 -119 -28t-104 -85zM121 1184q53 69 188 69q38 0 129 -24.5 t129 -24.5q27 0 52 6.5t46.5 19t36 22.5t31 24t19.5 16v205q-119 -76 -213 -76q-25 0 -106.5 23.5t-129.5 23.5q-39 0 -75.5 -10.5t-70 -27t-34.5 -17.5z" />
<glyph unicode="&#x2000;" horiz-adv-x="987" />
<glyph unicode="&#x2001;" horiz-adv-x="1974" />
<glyph unicode="&#x2002;" horiz-adv-x="987" />
<glyph unicode="&#x2003;" horiz-adv-x="1974" />
<glyph unicode="&#x2004;" horiz-adv-x="658" />
<glyph unicode="&#x2005;" horiz-adv-x="493" />
<glyph unicode="&#x2006;" horiz-adv-x="329" />
<glyph unicode="&#x2007;" horiz-adv-x="329" />
<glyph unicode="&#x2008;" horiz-adv-x="246" />
<glyph unicode="&#x2009;" horiz-adv-x="394" />
<glyph unicode="&#x200a;" horiz-adv-x="109" />
<glyph unicode="&#x2010;" horiz-adv-x="878" d="M84 436v293h678v-293h-678zM123 473h600v217h-600v-217z" />
<glyph unicode="&#x2011;" horiz-adv-x="878" d="M84 436v293h678v-293h-678zM123 473h600v217h-600v-217z" />
<glyph unicode="&#x2012;" horiz-adv-x="878" d="M84 436v293h678v-293h-678zM123 473h600v217h-600v-217z" />
<glyph unicode="&#x2013;" horiz-adv-x="1257" d="M92 436v293h1026v-293h-1026zM129 473h950v217h-950v-217z" />
<glyph unicode="&#x2014;" horiz-adv-x="1617" d="M100 436v293h1358v-293h-1358zM137 473h1282v217h-1282v-217z" />
<glyph unicode="&#x2018;" horiz-adv-x="460" d="M35 1497h303l41 -418l-217 -26zM84 1460l104 -366l150 20l-35 346h-219z" />
<glyph unicode="&#x2019;" horiz-adv-x="460" d="M43 1079l41 418h303l-127 -444zM84 1114l149 -20l105 366h-219z" />
<glyph unicode="&#x201a;" horiz-adv-x="460" d="M43 -121l41 418h303l-127 -444zM84 -88l149 -18l105 366h-219z" />
<glyph unicode="&#x201c;" horiz-adv-x="790" d="M41 1497h600l43 -418l-219 -26l-119 411l39 -385l-217 -26zM90 1460l105 -366l149 20l-35 346h-219zM387 1460l105 -366l149 20l-33 346h-221z" />
<glyph unicode="&#x201d;" horiz-adv-x="790" d="M49 1079l41 418h600l-127 -444l-217 26l37 385l-117 -411zM90 1114l150 -20l104 366h-219zM387 1114l150 -20l104 366h-219z" />
<glyph unicode="&#x201e;" horiz-adv-x="790" d="M49 -121l41 418h600l-127 -444l-217 26l37 385l-117 -411zM90 -88l150 -18l104 366h-219zM387 -88l150 -18l104 366h-219z" />
<glyph unicode="&#x2022;" horiz-adv-x="716" d="M80 606q0 110 78 188t188 78q109 0 186.5 -78t77.5 -188q0 -109 -77.5 -186.5t-186.5 -77.5q-110 0 -188 77.5t-78 186.5zM117 606q0 -94 67 -160.5t162 -66.5q94 0 160.5 66.5t66.5 160.5t-66.5 161t-160.5 67q-95 0 -162 -67t-67 -161z" />
<glyph unicode="&#x2026;" horiz-adv-x="1501" d="M98 137q0 61 43.5 107.5t110.5 46.5q59 0 101 -47t42 -107t-41.5 -102.5t-101.5 -42.5q-68 0 -111 42t-43 103zM135 137q0 -45 32.5 -75.5t84.5 -30.5q44 0 75 31t31 75t-31.5 79.5t-74.5 35.5q-51 0 -84 -35t-33 -80zM573 137q0 61 44.5 107.5t109.5 46.5q59 0 102 -47 t43 -107t-42.5 -102.5t-102.5 -42.5q-67 0 -110.5 42t-43.5 103zM612 137q0 -45 32.5 -75.5t82.5 -30.5q44 0 75.5 31t31.5 75t-32 79.5t-75 35.5q-49 0 -82 -35t-33 -80zM1051 137q0 61 43 107.5t110 46.5q59 0 101.5 -47t42.5 -107t-42 -102.5t-102 -42.5q-68 0 -110.5 42 t-42.5 103zM1087 137q0 -45 32.5 -75.5t84.5 -30.5q43 0 74 31t31 75t-31.5 79.5t-73.5 35.5q-51 0 -84 -35t-33 -80z" />
<glyph unicode="&#x202f;" horiz-adv-x="394" />
<glyph unicode="&#x2039;" horiz-adv-x="655" d="M55 553l297 461l228 -187l-181 -274q184 -274 187 -279l-246 -176zM102 553l250 -399l183 131l-181 268l174 266l-168 139z" />
<glyph unicode="&#x203a;" horiz-adv-x="655" d="M49 274l187 279l-181 274l228 187l297 -461l-285 -455zM100 285l183 -131l252 399l-261 405l-168 -139l175 -266z" />
<glyph unicode="&#x205f;" horiz-adv-x="493" />
<glyph unicode="&#x20ac;" horiz-adv-x="1232" d="M63 434v297h103v25h-103v284h107q13 66 40 129t72.5 122t102.5 103t135 70.5t166 26.5q108 0 235.5 -63.5t192.5 -159.5l-256 -211q-104 108 -174 108q-112 0 -162 -121h359v-288h-373v-27h375v-301h-15l244 -229q-81 -94 -201.5 -153.5t-224.5 -59.5q-194 0 -334.5 127 t-179.5 321h-109zM102 473h103q0 -12 4 -24q28 -190 158 -308t319 -118q96 0 202 48t173 124l-199 186q-32 -35 -80 -60.5t-96 -25.5q-70 0 -131.5 46.5t-75.5 107.5q-2 4 -2 18h367v223h-373v103h371v215h-371l2 6q0 6 6 24q60 164 205 164q86 0 176 -94l203 166 q-52 78 -164 128t-213 50q-102 0 -189 -37t-144.5 -99t-94 -135t-49.5 -151q-4 -20 -4 -26h-103v-211h101v-99h-101v-221zM524 428q19 -41 64.5 -68.5t97.5 -27.5q38 0 83 27.5t85 68.5h-330z" />
<glyph unicode="&#x2122;" horiz-adv-x="1773" d="M96 1264v237h623v-2h246l188 -528l188 528h287v-930h-237v420l-43 -119l-107 -301h-176l-102 303l-35 101v-402h-246v693h-154v-697h-239v697h-193zM135 1300h187q4 0 4 -4v-692h163v690l7 6h186v164h-547v-164zM721 608h168v561h2q1 0 2 1t2 1t3 -1t3 -1q0 -3 13.5 -43 t39 -113.5t43.5 -129.5l95 -277h122l97 277q22 60 46.5 130.5t38.5 111.5t15 44q3 9 10 9q6 0 6 -9v-563h162v856h-221l-209 -590q0 -6 -6 -6q-3 0 -6 6l-209 590h-217v-854z" />
<glyph unicode="&#xe000;" horiz-adv-x="1024" d="M0 0v1024h1024v-1024h-1024z" />
<glyph unicode="&#xfb01;" horiz-adv-x="1406" d="M96 717v307h154v53q0 150 88 240t244 90h206v-299h-139q-65 0 -65 -72v-12h274v-307h-274v-717h-334v717h-154zM135 756h154v-717h258v717h274v229h-274v51q0 109 102 109h103v225h-170q-137 0 -215 -80t-78 -213v-92h-154v-229zM1001 0v1026h162q-69 1 -115.5 50 t-46.5 118q0 68 49.5 118t120.5 50q66 0 116 -50.5t50 -117.5q0 -68 -47.5 -117t-111.5 -51h157v-1026h-334zM1040 39h258v948h-258v-948zM1040 1194q0 -56 38 -93.5t93 -37.5q52 0 90.5 38t38.5 93q0 52 -39 90.5t-90 38.5q-55 0 -93 -38t-38 -91z" />
<glyph unicode="&#xfb02;" horiz-adv-x="1435" d="M96 717v307h154v53q0 150 88 240t244 90h206v-299h-139q-65 0 -65 -72v-12h274v-307h-274v-717h-334v717h-154zM135 756h154v-717h258v717h274v229h-274v51q0 109 102 109h103v225h-170q-137 0 -215 -80t-78 -213v-92h-154v-229zM1028 0v1403h334v-1403h-334zM1067 39 h258v1327h-258v-1327z" />
</font>
</defs>
</svg>
