<?xml version="1.0" standalone="no"?>
<!DOCTYPE svg PUBLIC "-//W3C//DTD SVG 1.1//EN" "http://www.w3.org/Graphics/SVG/1.1/DTD/svg11.dtd" >
<svg xmlns="http://www.w3.org/2000/svg">
<metadata></metadata>
<defs>
<font id="nanamithin_oblique" horiz-adv-x="1228" >
<font-face units-per-em="2048" ascent="1536" descent="-512" />
<missing-glyph horiz-adv-x="593" />
<glyph horiz-adv-x="2048" />
<glyph horiz-adv-x="2048" />
<glyph unicode="&#xd;" horiz-adv-x="2048" />
<glyph unicode=" "  horiz-adv-x="593" />
<glyph unicode="&#x09;" horiz-adv-x="593" />
<glyph unicode="&#xa0;" horiz-adv-x="593" />
<glyph unicode="!" horiz-adv-x="251" d="M88 39q3 19 19 32t36 13q19 0 29.5 -13t7.5 -32q-4 -20 -20 -33.5t-35 -13.5q-20 0 -30.5 13.5t-6.5 33.5zM125 152l295 1386h65l-295 -1386h-65z" />
<glyph unicode="&#x22;" horiz-adv-x="485" d="M307 942l127 596h66l-127 -596h-66zM514 942l127 596h66l-127 -596h-66z" />
<glyph unicode="#" horiz-adv-x="1312" d="M158 471l14 66h322l139 405h-309l14 66h324l161 473h64q-10 -51 -160 -473h367l161 473l62 2l-23 -74q-7 -18 -48.5 -146t-86.5 -255h309l-14 -66h-321l-142 -405h309l-14 -66h-321l-162 -471h-64v8l160 463h-371l-161 -471l-62 -2l160 473h-307zM559 537h367l141 405 h-369z" />
<glyph unicode="$" horiz-adv-x="888" d="M113 221l65 8q13 -81 86.5 -130.5t177.5 -49.5q135 0 256 101.5t150 236.5q28 134 -37 218t-231 153q-35 15 -63 29t-58 32t-53 37.5t-44.5 43.5t-34.5 52t-21.5 60t-8 71t9.5 82q31 142 152 252.5t268 130.5l35 166h65l-32 -162q97 -5 172.5 -56t105.5 -136l-65 -27 q-23 69 -88.5 111.5t-151.5 42.5q-127 0 -247 -94.5t-146 -216.5q-43 -182 104 -287q41 -30 153 -80.5t150 -73.5q181 -118 129 -350q-32 -155 -163 -271t-287 -128l-37 -176h-66l37 176q-76 4 -134 28.5t-88.5 61t-45 73.5t-14.5 72z" />
<glyph unicode="%" horiz-adv-x="1804" d="M324 1167q32 154 162 261.5t284 107.5t238.5 -107.5t52.5 -261.5q-34 -154 -164.5 -261t-284.5 -107t-238 107t-50 261zM387 1167q-28 -127 42 -216t198 -89q127 0 233.5 88.5t134.5 216.5q26 128 -43 215.5t-196 87.5q-128 0 -235.5 -88t-133.5 -215zM451 20l1157 1526 l53 -33l-1159 -1525zM1069 367q32 154 162.5 261t284.5 107t238 -107t52 -261q-34 -154 -164 -261.5t-284 -107.5t-238.5 107.5t-50.5 261.5zM1133 367q-28 -128 42 -217t197 -89t234 89t135 217q26 128 -43.5 215.5t-196.5 87.5q-128 0 -235 -88t-133 -215z" />
<glyph unicode="&#x26;" horiz-adv-x="1411" d="M174 424q57 266 416 446q-23 22 -32 31t-31 34.5t-32 42t-24 45.5t-18.5 55t-5 61.5t7.5 72.5q31 140 149.5 239t257.5 99q138 0 209.5 -87.5t44.5 -213.5q-18 -83 -56 -147.5t-95.5 -110t-117.5 -76.5t-142 -61l348 -420l360 477l51 -32l-360 -471l-14 -21l14 -18 l264 -332l-49 -43q-6 0 -24 20.5t-76 94.5t-170 221l-78 -101q-101 -134 -205.5 -190.5t-241.5 -56.5q-120 0 -209.5 59t-127.5 161t-13 222zM240 424q-32 -155 55 -266t242 -111q216 0 370 199l103 131q-239 303 -377 448q-73 -34 -130 -69.5t-113.5 -84t-95 -111 t-54.5 -136.5zM515 1163.5q0 -24.5 2.5 -44t11 -41t15 -36.5t20.5 -35t22 -30t25 -28t23 -24t23 -22q181 57 273 135.5t121 210.5q22 101 -34 168.5t-167 67.5q-110 0 -207.5 -80.5t-122.5 -192.5q-5 -24 -5 -48.5z" />
<glyph unicode="'" horiz-adv-x="266" d="M307 942l127 596h66l-127 -596h-66z" />
<glyph unicode="(" horiz-adv-x="444" d="M147 317l172 809q71 321 347 508l45 -39q-141 -106 -215.5 -206.5t-104.5 -235.5l-182 -862q-30 -135 2 -235.5t129 -207.5l-61 -38q-200 187 -132 507z" />
<glyph unicode=")" horiz-adv-x="442" d="M49 -152q140 108 215 208.5t105 234.5l182 862q29 134 -3 234t-128 208l61 39q199 -190 129 -508l-172 -809q-67 -319 -344 -507z" />
<glyph unicode="*" horiz-adv-x="880" d="M276 1059l15 63l336 -12l-195 225l57 45l173 -239l59 338h65l-84 -340l277 241l33 -45l-287 -225l340 12l-14 -63l-336 10l194 -223l-55 -45l-174 239l-59 -338h-66l84 338l-274 -239l-35 45l286 223z" />
<glyph unicode="+" horiz-adv-x="950" d="M139 494l15 65h407l86 408h66l-86 -408h407l-14 -65h-408l-88 -408h-65l88 408h-408z" />
<glyph unicode="," horiz-adv-x="212" d="M68 -156l4 62l6 133l8 192l78 13l-78 -398z" />
<glyph unicode="-" horiz-adv-x="806" d="M229 580l13 65h596l-13 -65h-596z" />
<glyph unicode="." horiz-adv-x="237" d="M86 33q3 17 17.5 29t31.5 12t26.5 -12t6.5 -29t-17.5 -29t-31.5 -12t-26.5 12t-6.5 29z" />
<glyph unicode="/" horiz-adv-x="571" d="M33 10l776 1532l59 -14l-774 -1536z" />
<glyph unicode="0" d="M254 432l143 672q37 176 198.5 310t348.5 134q118 0 208.5 -60.5t129.5 -163t14 -220.5l-143 -672q-25 -118 -108 -220.5t-199 -163t-234 -60.5q-124 0 -215.5 62.5t-129 164.5t-13.5 217zM322 428q-31 -149 59.5 -264t245.5 -115q154 0 289 111.5t169 267.5l144 676 q22 101 -11 189t-110 139t-178 51q-106 0 -206.5 -53.5t-169.5 -140.5t-89 -185z" />
<glyph unicode="1" d="M711 0l311 1470h-264l14 66h330l-326 -1536h-65z" />
<glyph unicode="2" d="M193 0l2 57l815 666q104 86 179.5 183.5t94.5 189.5q35 167 -54 276t-257 109q-155 0 -285 -97t-192 -247l-50 32q61 159 213.5 268t327.5 109q196 0 300 -128t63 -322q-44 -206 -314 -428l-737 -602h829l-12 -66h-923z" />
<glyph unicode="3" d="M227 160l45 57q59 -77 152.5 -122.5t193.5 -45.5q105 0 195.5 35t152.5 94t102.5 131t57.5 152q13 63 -1 125.5t-53.5 116t-115.5 88t-176 38.5h-159l12 58h155q149 0 264 87.5t140 209.5q8 47 6 91.5t-24 84t-56 69t-90.5 47t-128.5 17.5q-78 0 -173.5 -43.5 t-172.5 -114.5l-18 56q87 72 189 116.5t198 44.5q187 0 277 -107t58 -259q-21 -95 -92 -176.5t-151 -118.5q-16 -7 -31.5 -13t-22.5 -8.5t-8 -3.5q0 -1 13.5 -6t35.5 -15t37 -20q98 -66 137.5 -161t16.5 -209q-42 -199 -203 -333t-377 -134q-123 0 -222 48t-163 124z" />
<glyph unicode="4" d="M199 350l8 51l960 1135h50l-238 -1120h219l-14 -66h-219l-74 -350h-66l74 350h-700zM299 416h614l207 977z" />
<glyph unicode="5" d="M211 211l51 61q44 -103 134.5 -163t215.5 -60q190 0 348.5 131t198.5 320q41 190 -55 311t-287 121q-100 0 -200.5 -36t-174.5 -101l-49 24l275 717h649l-14 -66h-566q-17 0 -24.5 -6.5t-14.5 -21.5l-206 -541q149 96 339 96q142 0 242.5 -64t141 -178t10.5 -255 q-45 -217 -222 -366.5t-399 -149.5q-135 0 -237.5 62.5t-155.5 164.5z" />
<glyph unicode="6" d="M195 508q44 194 184 334l637 706l47 -37l-479 -530q128 53 250 53q143 0 248.5 -69.5t149.5 -190.5t13 -266q-31 -147 -125 -267.5t-228.5 -188.5t-281.5 -68q-148 0 -254 68t-149 188t-12 268zM260 508q-41 -196 64 -327.5t301 -131.5q193 0 353.5 132t201.5 327 q27 126 -12 232t-131.5 167.5t-217.5 61.5q-195 0 -356.5 -133t-202.5 -328z" />
<glyph unicode="7" d="M281 12l966 1458h-731l14 66h811l2 -35l-1007 -1515z" />
<glyph unicode="8" d="M262 426q29 138 130.5 251t236.5 163q-85 45 -122 135.5t-13 206.5q21 99 88 184t162.5 135.5t195.5 50.5q153 0 236 -109t51 -261q-24 -116 -100 -205.5t-181 -134.5q117 -50 172.5 -163.5t26.5 -252.5q-40 -184 -197 -313t-342 -129q-121 0 -209.5 59t-124.5 161 t-10 222zM328 426q-34 -155 52 -266t241 -111q157 0 290.5 110.5t167.5 266.5q32 156 -55 267.5t-244 111.5q-102 0 -198.5 -51t-164.5 -138.5t-89 -189.5zM559 1182q-28 -131 40.5 -220.5t195.5 -89.5q126 0 232 89t134 221q26 124 -42 214.5t-193 90.5t-233 -90.5 t-134 -214.5z" />
<glyph unicode="9" d="M305 1024q31 147 125 267.5t228.5 188.5t281.5 68q148 0 254.5 -68t149.5 -188.5t12 -267.5q-43 -192 -185 -334l-632 -708l-50 36l478 533q-128 -53 -250 -53q-143 0 -249 69.5t-150 190.5t-13 266zM371 1024q-27 -126 11.5 -232t131 -167.5t217.5 -61.5 q195 0 356.5 133t202.5 328q41 196 -64 327.5t-300 131.5q-193 0 -353.5 -132t-201.5 -327z" />
<glyph unicode=":" horiz-adv-x="141" d="M35 33q3 17 17.5 29t31.5 12t26.5 -12t6.5 -29t-17.5 -29t-31.5 -12t-26.5 12t-6.5 29zM205 834q3 17 17.5 28.5t31.5 11.5t26.5 -11.5t6.5 -28.5t-17.5 -29t-31.5 -12t-26.5 12t-6.5 29z" />
<glyph unicode=";" horiz-adv-x="161" d="M68 -156l4 62l6 133l8 192l78 13l-78 -398zM211 834q3 17 17.5 28.5t31.5 11.5t26.5 -11.5t6.5 -28.5t-17.5 -29t-31.5 -12t-26.5 12t-6.5 29z" />
<glyph unicode="&#x3c;" horiz-adv-x="1263" d="M147 483l13 66l1173 446l15 -59l-1090 -420l911 -418l-39 -59z" />
<glyph unicode="=" horiz-adv-x="1095" d="M182 371l15 65h888l-14 -65h-889zM227 582l15 65h888l-14 -65h-889z" />
<glyph unicode="&#x3e;" horiz-adv-x="1263" d="M66 98l1087 418l-909 420l39 59l981 -446l-13 -66l-1171 -444z" />
<glyph unicode="?" horiz-adv-x="864" d="M309 391q15 69 57 131.5t99 111t123 95l132 93t122.5 95t98.5 109.5t56 129q29 133 -45.5 228.5t-208.5 95.5q-117 0 -219.5 -73t-150.5 -185l-60 14q58 133 181.5 221t263.5 88q161 0 250.5 -114t54.5 -275q-16 -76 -59 -143t-100 -118.5t-123.5 -99t-132 -92 t-121.5 -90t-97.5 -102.5t-54.5 -119q-13 -66 17.5 -111t92.5 -53l-30 -65q-83 12 -124 76.5t-22 152.5zM340 33q3 17 17.5 29t31.5 12t26.5 -12t6.5 -29t-17.5 -29t-31.5 -12t-26.5 12t-6.5 29z" />
<glyph unicode="@" horiz-adv-x="1746" d="M229.5 420.5q-32.5 135.5 3.5 298.5q20 95 71.5 195t125 192t170 174t201.5 142.5t225 96t236 35.5q132 0 260 -41q130 -43 209 -116q195 -177 133 -463q-59 -283 -318 -475q-148 -99 -284 -99q-86 0 -125 49t-21 128q-43 -44 -78 -73.5t-53 -40.5t-45 -26 q-73 -37 -145 -37q-42 0 -79 18.5t-64 55t-36 90t5 123.5q45 213 194 350q147 138 275 138q84 0 128 -30t66 -114l92 127l37 -12l-233 -504q-10 -19 -17 -49q-12 -57 17.5 -92t99.5 -35q91 0 181 49t157.5 125.5t115.5 165t66 170.5q33 154 -27.5 280.5t-199.5 199.5 t-328 73q-149 0 -307 -67t-287 -175t-225 -250.5t-129 -287.5l-2 -11q-19 -104 -9 -199.5t57.5 -177.5t118 -142.5t172.5 -95t220 -34.5q287 0 602 182l25 -49q-301 -198 -623 -198h-8q-161 0 -292.5 53.5t-213.5 150.5t-114.5 232.5zM690 662q-24 -111 11 -176.5t137 -65.5 q72 0 174 80q83 63 133 172l72 149q12 28 22 66q12 68 -16 114q-18 33 -51 54.5t-72 21.5q-125 0 -249.5 -123t-160.5 -292z" />
<glyph unicode="A" horiz-adv-x="1210" d="M49 0l854 1536h53l203 -1536h-67l-56 403h-694l-221 -403h-72zM379 469h649l-125 944z" />
<glyph unicode="B" horiz-adv-x="958" d="M109 0l325 1536h256q111 0 193 -54.5t117 -148.5q21 -57 21 -120q0 -41 -9 -85q-24 -111 -98 -203t-179 -147q129 -28 197 -136q47 -75 46 -165q0 -40 -9 -84q-34 -164 -172.5 -278.5t-302.5 -114.5h-385zM186 66h320q136 0 252 95t145 232q8 38 8 74q1 89 -53 159 q-74 96 -211 97h-319zM340 788h190q142 0 263.5 99.5t152.5 240.5q8 39 8 74q0 96 -58 168q-78 100 -220 100h-191z" />
<glyph unicode="C" horiz-adv-x="1509" d="M229 520q-4 38 -4 77q0 82 17 171q34 160 127 305t220.5 250t286 167t318.5 62q161 0 291 -59.5t215 -167.5l-58 -47q-78 100 -196.5 154.5t-265.5 54.5q-195 0 -380.5 -96t-318 -261.5t-174.5 -361.5q-15 -80 -15 -154q0 -36 4 -72q11 -106 60.5 -197t123 -156.5 t176 -102.5t218.5 -37q145 0 286.5 55t262.5 154l37 -47q-130 -108 -284.5 -167.5t-315.5 -59.5q-128 0 -239.5 40t-192 111t-134 169.5t-65.5 215.5z" />
<glyph unicode="D" horiz-adv-x="1286" d="M109 0l325 1536h334q126 0 235 -39t187.5 -108.5t130.5 -166.5q51 -96 63 -210q4 -37 4 -76q0 -81 -16 -168q-44 -210 -184 -386.5t-338 -279t-408 -102.5h-333zM186 66h269q190 0 372 94.5t311 256.5t169 351q17 75 17 146q0 65 -14 127q-30 128 -103 223t-191.5 150.5 t-261.5 55.5h-269z" />
<glyph unicode="E" horiz-adv-x="901" d="M109 0l325 1536h707l-15 -66h-641l-131 -614h641l-12 -65h-641l-156 -725h641l-12 -66h-706z" />
<glyph unicode="F" horiz-adv-x="905" d="M109 0l325 1536h711l-15 -66h-645l-131 -614h645l-12 -65h-645l-168 -791h-65z" />
<glyph unicode="G" horiz-adv-x="1671" d="M231 520q-4 38 -4 77q0 82 17 171q34 160 127 305t220.5 250t286 167t318.5 62q164 0 294.5 -61t213.5 -172l-57 -49q-79 103 -197 160t-268 57q-195 0 -380.5 -96t-318 -261.5t-174.5 -361.5q-15 -80 -15 -154q0 -37 4 -72q11 -107 61 -197.5t123.5 -156t175.5 -102.5 t219 -37q195 0 362 84.5t268 208.5l72 340h-602l14 66h670l-8 -41l-82 -383q-127 -150 -306.5 -245t-402.5 -95q-128 0 -239.5 40t-192 111t-134 169.5t-65.5 215.5z" />
<glyph unicode="H" horiz-adv-x="1105" d="M106 0l326 1536h66l-156 -735h764l156 735h65l-326 -1536h-65l156 735h-764l-156 -735h-66z" />
<glyph unicode="I" horiz-adv-x="262" d="M106 0l326 1536h66l-326 -1536h-66z" />
<glyph unicode="J" horiz-adv-x="811" d="M92 285h66q-1 -12 -1 -24q0 -83 56 -143q64 -69 166 -69q111 0 210 80t124 190l258 1217h65l-258 -1212q-29 -140 -151 -240t-262 -100q-131 0 -209 87q-66 73 -66 174q0 20 2 40z" />
<glyph unicode="K" horiz-adv-x="774" d="M106 0l326 1536h66l-152 -709l617 711l81 -2l-679 -776l340 -760h-80l-308 692l-145 -692h-66z" />
<glyph unicode="L" horiz-adv-x="843" d="M106 0l326 1536h66l-314 -1470h641l-12 -66h-707z" />
<glyph unicode="M" horiz-adv-x="1468" d="M104 0l326 1536h57l269 -1421l876 1421h58l-326 -1536h-66l287 1358l-827 -1358h-47l-254 1358l-287 -1358h-66z" />
<glyph unicode="N" horiz-adv-x="1230" d="M104 0l326 1536h57l605 -1401l297 1401h65l-326 -1536h-57l-604 1401l-297 -1401h-66z" />
<glyph unicode="O" horiz-adv-x="1732" d="M231 520q-4 38 -4 77q0 82 17 171q34 160 127 305t220.5 250t286 167t318.5 62q128 0 239.5 -40t191.5 -111t133 -169.5t65 -215.5q4 -38 4 -77q0 -82 -17 -171q-34 -160 -126.5 -305t-219.5 -250t-285.5 -167t-318.5 -62q-128 0 -239.5 40t-192 111t-134 169.5 t-65.5 215.5zM298 542q11 -106 61 -197t123.5 -156.5t175.5 -102.5t219 -37q147 0 292 57t261.5 154t201 229.5t115.5 278.5q16 83 16 160q1 35 -3 68q-10 107 -59.5 197.5t-122.5 155.5t-175.5 101.5t-220.5 36.5q-195 0 -380.5 -96t-318 -261.5t-174.5 -361.5 q-15 -80 -15 -154q0 -36 4 -72z" />
<glyph unicode="P" horiz-adv-x="802" d="M104 0l326 1536h256q111 0 193 -54.5t117 -148.5q21 -57 21 -120q0 -41 -9 -85q-37 -168 -181.5 -286.5t-312.5 -118.5h-190l-154 -723h-66zM336 788h190q142 0 263.5 99.5t152.5 240.5q8 39 8 74q0 96 -58 168q-78 100 -220 100h-191z" />
<glyph unicode="Q" horiz-adv-x="1734" d="M231 520q-4 38 -4 77q0 82 17 171q34 160 127 305t220.5 250t286 167t318.5 62q128 0 239.5 -40t191.5 -111t133 -169.5t65 -215.5q4 -38 4 -77q0 -82 -17 -171q-39 -185 -151.5 -344t-276.5 -270l84 -117l-57 -45l-88 123q-220 -131 -461 -131q-128 0 -239.5 40 t-192 111t-134 169.5t-65.5 215.5zM298 542q11 -107 61 -197.5t123.5 -156t175.5 -102.5t219 -37q210 0 409 113l-207 278l60 45l211 -284q152 101 256.5 248.5t140.5 318.5q16 83 16 160q0 34 -3 68q-11 107 -60 197.5t-122 155.5t-175.5 101.5t-220.5 36.5 q-195 0 -380.5 -96t-318 -261.5t-174.5 -361.5q-15 -80 -15 -154q0 -37 4 -72z" />
<glyph unicode="R" horiz-adv-x="946" d="M104 0l326 1536h297q119 0 201 -56q83 -54 113 -148q17 -52 17 -110q0 -46 -11 -96q-31 -147 -134.5 -256.5t-250.5 -152.5l264 -717h-78l-258 702h-273l-147 -702h-66zM332 768h227q148 0 269 101.5t153 256.5q10 44 10 84q1 92 -51 161q-74 99 -227 99h-232z" />
<glyph unicode="S" horiz-adv-x="927" d="M133 221l66 8q13 -81 86.5 -130.5t177.5 -49.5q134 0 255 101t150 237q8 40 8 76q0 83 -45 142q-65 84 -231 153q-35 15 -63 29t-58 32t-53 37.5t-44 43.5t-34.5 52t-21.5 60q-8 30 -8 66q0 41 10 87q34 157 174 272t299 115q100 0 180.5 -52.5t112.5 -139.5l-66 -27 q-23 69 -88.5 111.5t-151.5 42.5q-127 0 -247 -94.5t-146 -216.5q-10 -41 -10 -78q0 -127 115 -209q41 -30 153 -80.5t150 -73.5q141 -92 140 -252q0 -46 -11 -98q-34 -164 -178 -282.5t-308 -118.5q-84 0 -148 24t-98.5 61.5t-51 76t-15.5 75.5z" />
<glyph unicode="T" horiz-adv-x="1052" d="M348 1470l14 66h979l-14 -66h-459l-311 -1470h-65l311 1470h-455z" />
<glyph unicode="U" horiz-adv-x="993" d="M178 381l246 1155h65l-245 -1155q-8 -38 -8 -73q0 -92 56 -163q76 -98 214 -98q137 0 256.5 98t148.5 236l246 1155h66l-246 -1153q-23 -109 -95.5 -200.5t-175.5 -145t-212 -53.5q-166 0 -258 116q-67 84 -68 194q0 42 10 87z" />
<glyph unicode="V" horiz-adv-x="1181" d="M369 1536h73l174 -1419l777 1417l71 2l-846 -1536h-51z" />
<glyph unicode="W" horiz-adv-x="1783" d="M391 1536h70l67 -1395l666 1395h49l70 -1395l659 1393l68 -2l-727 -1532h-58l-69 1389l-656 -1389h-57z" />
<glyph unicode="X" horiz-adv-x="1167" d="M70 0l637 768l-308 770h68l293 -709l596 707h69l-643 -768l316 -768h-76l-289 707l-588 -707h-75z" />
<glyph unicode="Y" horiz-adv-x="954" d="M367 1536h67l178 -897l557 897h72l-612 -975l-119 -561h-66l119 561z" />
<glyph unicode="Z" horiz-adv-x="1089" d="M55 0l8 57l1201 1413h-912l15 66h993l-10 -59l-1209 -1411h916l-13 -66h-989z" />
<glyph unicode="[" horiz-adv-x="415" d="M35 -301l418 1960h254l-15 -66h-188l-389 -1829h188l-14 -65h-254z" />
<glyph unicode="\" horiz-adv-x="569" d="M354 1528l68 14l125 -1532l-70 -18z" />
<glyph unicode="]" horiz-adv-x="411" d="M35 -301l14 65h189l389 1829h-189l15 66h254l-418 -1960h-254z" />
<glyph unicode="^" horiz-adv-x="966" d="M221 768l551 760h66l231 -754l-68 -26l-217 679l-503 -679z" />
<glyph unicode="_" horiz-adv-x="1339" d="M-41 -201l12 66h1338l-13 -66h-1337z" />
<glyph unicode="`" horiz-adv-x="524" d="M317 1305l39 59l379 -168l-41 -59z" />
<glyph unicode="a" horiz-adv-x="1232" d="M186 514q46 218 233 372t408 154q147 0 254.5 -73.5t149.5 -198.5l55 256h66l-217 -1024h-66l53 256q-95 -125 -233 -198.5t-285 -73.5q-145 0 -252.5 70.5t-151.5 192.5q-26 72 -27 152q0 55 13 115zM254 514q-11 -54 -12 -104q0 -128 77 -224q106 -134 299 -135 q192 0 355.5 135t204.5 328q10 51 10 98q0 70 -22 134q-38 106 -131.5 167.5t-219.5 61.5q-194 0 -357.5 -134.5t-203.5 -326.5z" />
<glyph unicode="b" horiz-adv-x="1202" d="M100 0l303 1434h66l-141 -666q95 125 233 198.5t285 73.5q145 0 252.5 -70.5t152.5 -191.5q27 -73 27 -153q0 -54 -12 -111q-31 -145 -127.5 -267t-233.5 -192.5t-282 -70.5q-147 0 -254.5 73.5t-149.5 198.5l-53 -256h-66zM274 514q-11 -54 -11 -103q0 -128 76 -225 q106 -135 298 -135q127 0 246.5 61.5t203.5 168t111 233.5q11 53 11 101q-1 127 -77 225q-106 134 -298 135q-192 0 -356 -134.5t-204 -326.5z" />
<glyph unicode="c" horiz-adv-x="1144" d="M186 514q46 218 233 372t408 154q146 0 253 -71.5t149 -194.5l-64 -35q-38 108 -130 172t-220 64q-194 0 -357.5 -134.5t-203.5 -326.5q-11 -54 -12 -104q0 -128 77 -224q106 -134 299 -135q127 0 247.5 64t203.5 170l51 -33q-95 -123 -232.5 -195.5t-283.5 -72.5 q-145 0 -252.5 70.5t-151.5 192.5q-26 72 -27 152q0 55 13 115z" />
<glyph unicode="d" horiz-adv-x="1202" d="M154 514q46 218 233 372t408 154q147 0 254 -73.5t149 -198.5l141 666h66l-303 -1434h-66l54 256q-95 -125 -233.5 -198.5t-285.5 -73.5q-145 0 -252 70.5t-151 192.5q-26 72 -27 152q0 55 13 115zM221 514q-11 -52 -11 -100q0 -70 23 -134q39 -106 132.5 -167.5 t220.5 -61.5q192 0 355 135t204 328q10 51 10 98q-1 70 -23 134q-38 106 -131 167.5t-219 61.5q-194 0 -357.5 -134.5t-203.5 -326.5z" />
<glyph unicode="e" horiz-adv-x="1134" d="M186 514q46 219 229.5 372.5t403.5 153.5q141 0 237 -71q94 -71 128 -191q18 -63 19 -133q0 -63 -15 -131l-10 -37h-932q-5 -35 -5 -68q1 -136 87 -235q108 -123 290 -123q107 0 212 38.5t190 111.5l22 -58q-202 -159 -438 -159q-145 0 -252.5 70.5t-151.5 192.5 q-26 72 -27 152q0 55 13 115zM260 543h868q7 45 7 87q0 130 -64 222q-84 122 -264 123q-186 0 -340.5 -124.5t-206.5 -307.5z" />
<glyph unicode="f" horiz-adv-x="585" d="M203 0l203 958h-156l14 66h156l49 236q18 82 73 128t128 46h112l-14 -66h-113q-46 0 -78 -28.5t-42 -79.5l-50 -236h271l-15 -66h-270l-203 -958h-65z" />
<glyph unicode="g" horiz-adv-x="1222" d="M129 -270l61 41q40 -93 128 -146t204 -53q185 0 346 131.5t201 316.5l49 236q-95 -125 -233 -198.5t-285 -73.5q-145 0 -252.5 70.5t-152.5 191.5q-27 73 -27 153q0 54 12 111q31 145 127.5 267t233.5 192.5t282 70.5q147 0 254.5 -73.5t149.5 -198.5l55 256h66 q-220 -1034 -224 -1034q-56 -203 -234.5 -344.5t-381.5 -141.5q-131 0 -231 61t-148 165zM248 510q-11 -52 -11 -101q0 -128 77 -225q107 -135 300 -135q192 0 354.5 134.5t202.5 326.5q11 54 11 103q0 128 -76 225q-105 135 -297 135q-127 0 -246.5 -61.5t-203.5 -168 t-111 -233.5z" />
<glyph unicode="h" horiz-adv-x="942" d="M100 0l303 1434h66l-121 -572q73 82 169 130t198 48q163 0 255 -114q67 -84 67 -193q0 -40 -9 -84l-137 -649h-66l138 653q8 37 8 70q0 89 -56 158q-77 94 -213 94t-252.5 -92.5t-144.5 -225.5l-139 -657h-66z" />
<glyph unicode="i" horiz-adv-x="225" d="M80 0l217 1026h65l-217 -1026h-65zM317 1194q5 19 21.5 32t36.5 13q19 0 29 -13q7 -9 7 -22q0 -5 -1 -10q-3 -20 -19 -33.5t-35 -13.5q-20 -1 -31 13q-9 11 -9 26q0 4 1 8z" />
<glyph unicode="j" horiz-adv-x="380" d="M-59 -463l57 47q13 -16 45 -16q35 0 67.5 26.5t39.5 61.5l290 1370h66l-293 -1374q-12 -59 -69 -104.5t-115 -45.5q-53 0 -88 35zM461 1194q5 19 21 32t36 13q19 0 29 -13q7 -9 7 -22q0 -5 -1 -10q-3 -20 -18.5 -33.5t-34.5 -13.5q-20 0 -31 13q-9 11 -9 26q0 4 1 8z" />
<glyph unicode="k" horiz-adv-x="593" d="M100 0l303 1434h66l-176 -836v-6l401 432h76l-448 -489l262 -535h-82l-236 477l-100 -477h-66z" />
<glyph unicode="l" horiz-adv-x="251" d="M100 0l303 1434h66l-303 -1434h-66z" />
<glyph unicode="m" horiz-adv-x="1714" d="M100 0l217 1024h66l-35 -162q73 82 169 130t198 48q121 0 203.5 -64t109.5 -171q70 106 180.5 170.5t231.5 64.5q164 0 256 -116q67 -84 67 -194q0 -42 -10 -87l-135 -643h-66l136 643q8 37 8 71q0 91 -57 162q-78 97 -214 97q-133 0 -248 -93t-147 -225l-139 -655h-66 l138 653q8 37 8 70q0 89 -56 158q-77 94 -213 94t-252.5 -92.5t-144.5 -225.5l-139 -657h-66z" />
<glyph unicode="n" horiz-adv-x="983" d="M100 0l217 1024l66 -2l-35 -160q73 82 169 130t198 48q163 0 255 -114q67 -84 67 -193q0 -40 -9 -84l-137 -649h-66l138 653q8 37 8 70q0 89 -56 158q-77 94 -213 94t-252.5 -92.5t-144.5 -225.5l-139 -657h-66z" />
<glyph unicode="o" horiz-adv-x="1212" d="M186 514q46 218 233 372t408 154q143 0 249.5 -70.5t151.5 -191.5q27 -73 27 -153q0 -54 -12 -111q-31 -145 -127.5 -267t-232.5 -192.5t-279 -70.5q-145 0 -252.5 70.5t-151.5 192.5q-26 72 -27 152q0 55 13 115zM254 514q-11 -54 -12 -104q0 -128 77 -224 q106 -134 299 -135q192 0 355.5 135t204.5 328q10 51 10 98q0 70 -22 134q-38 106 -131.5 167.5t-219.5 61.5q-194 0 -357.5 -134.5t-203.5 -326.5z" />
<glyph unicode="p" horiz-adv-x="1202" d="M10 -418l307 1442h66l-55 -256q95 125 233 198.5t285 73.5q145 0 252.5 -70.5t151.5 -192.5q27 -72 27 -152q0 -55 -13 -115q-46 -218 -233 -372t-408 -154q-147 0 -254.5 73.5t-149.5 198.5l-143 -674h-66zM272 510q-10 -50 -10 -97q0 -71 24 -135q39 -106 132 -167.5 t219 -61.5q193 0 356 134.5t203 326.5q11 52 11 100q0 71 -23 134q-39 106 -132.5 167.5t-220.5 61.5q-192 0 -355 -135t-204 -328z" />
<glyph unicode="q" horiz-adv-x="1202" d="M207 510q31 145 127.5 267t233.5 192.5t282 70.5q147 0 254 -73.5t149 -198.5l56 256h65l-307 -1442h-66l144 674q-95 -125 -233 -198.5t-285 -73.5q-145 0 -252.5 70.5t-152.5 191.5q-27 73 -27 153q0 54 12 111zM274 510q-11 -52 -11 -100q0 -129 78 -226 q107 -135 300 -135q192 0 354.5 134.5t202.5 326.5q11 54 11 103q0 128 -75 225q-106 135 -298 135q-194 0 -357.5 -135t-204.5 -328z" />
<glyph unicode="r" horiz-adv-x="618" d="M100 0l217 1024l64 -8l-33 -154q72 81 168 127.5t199 46.5q73 0 88 -4l-23 -65q-36 4 -80 4q-137 0 -252.5 -90.5t-142.5 -223.5l-139 -657h-66z" />
<glyph unicode="s" horiz-adv-x="667" d="M104 117l70 26q25 -49 63 -71.5t97 -22.5q86 0 153.5 58t85.5 137q7 31 7 58q0 48 -22 80q-34 51 -148 128q-112 66 -144 125q-21 37 -21 87q0 29 7 62q23 104 117.5 180t197.5 76q67 0 123.5 -33t79.5 -87l-72 -31q-48 86 -151 86q-69 0 -141.5 -57t-92.5 -148 q-3 -17 -3 -32q0 -42 24 -73q34 -42 168 -135q96 -65 126 -131q18 -40 19 -90q0 -32 -8 -67q-25 -113 -116.5 -185.5t-209.5 -72.5q-81 0 -134 43t-75 90z" />
<glyph unicode="t" horiz-adv-x="710" d="M238 958l14 66h289l61 287h66l-62 -287h287l-14 -66h-287l-203 -958h-65l202 958h-288z" />
<glyph unicode="u" horiz-adv-x="980" d="M170 375l139 649h66l-139 -653q-8 -36 -8 -70q0 -90 56 -158q78 -94 214 -94t252 92.5t145 225.5l139 657h66l-217 -1024h-66l33 162q-73 -82 -169 -130t-198 -48q-163 0 -255 114q-67 83 -67 192q0 41 9 85z" />
<glyph unicode="v" horiz-adv-x="837" d="M262 1024h72l110 -907l496 909l70 -2l-564 -1024h-53z" />
<glyph unicode="w" horiz-adv-x="1517" d="M285 1024h69l107 -897l491 897h49l111 -897l490 897h69l-557 -1024h-53l-111 899l-493 -899h-49z" />
<glyph unicode="x" horiz-adv-x="858" d="M68 0l430 512l-213 512h77l187 -449l379 447h73l-423 -510l213 -512h-78l-191 449l-377 -449h-77z" />
<glyph unicode="y" horiz-adv-x="892" d="M174 -422l244 424l-152 1022h78l131 -920l524 920h78l-827 -1446h-76z" />
<glyph unicode="z" horiz-adv-x="829" d="M59 0l11 53l811 905h-613l15 66h704l-12 -53l-811 -905h614l-12 -66h-707z" />
<glyph unicode="{" horiz-adv-x="614" d="M193 647l20 98q55 2 97.5 27t72 70.5t49.5 100t35 126.5l55 260q20 90 53 163t87.5 124t119.5 51h142l-15 -65h-137q-45 0 -83.5 -40t-60 -89t-34.5 -105l-80 -385q-30 -135 -96 -209.5t-150 -77.5q82 -5 117.5 -79.5t7.5 -206.5l-82 -385q-8 -52 -10.5 -104t19.5 -91 t67 -39h137l-14 -65h-141q-49 0 -80.5 28.5t-42.5 77t-8.5 106.5t16.5 125l55 261q18 92 19.5 162.5t-32 114t-103.5 46.5z" />
<glyph unicode="|" horiz-adv-x="251" d="M94 -25l340 1602h66l-340 -1602h-66z" />
<glyph unicode="}" horiz-adv-x="614" d="M-2 -274l12 65h137q65 0 111 72.5t64 161.5l81 385q28 133 95 207t153 79q-84 3 -118.5 77.5t-4.5 209.5l80 385q10 52 12 104t-20.5 91t-67.5 39h-137l15 65h141q49 0 80.5 -28.5t41.5 -78t8 -107.5t-17 -124l-56 -260q-17 -92 -18 -163t33 -114.5t104 -46.5l-20 -98 q-105 -4 -164 -88.5t-92 -234.5l-56 -261q-31 -143 -97 -240t-161 -97h-139z" />
<glyph unicode="~" horiz-adv-x="1191" d="M180 444q4 18 24 46t54 59.5t91 53.5t122 22h27q51 -2 114 -26.5t112.5 -52.5t108 -52.5t101.5 -26.5h8q71 2 136.5 37t101.5 96l47 -20q-2 -10 -11.5 -27.5t-32 -44t-52 -48.5t-78 -39.5t-105.5 -19.5h-16q-52 0 -116 23.5t-115 52t-111 54t-103 28.5h-28q-32 0 -60 -5 t-50 -15t-38 -19.5t-31 -25t-22.5 -24t-19 -24t-13.5 -18.5z" />
<glyph unicode="&#xa1;" horiz-adv-x="251" d="M92 -8l295 1386h66l-295 -1386h-66zM395 1491q4 20 21 33.5t37 13.5q19 0 28.5 -13.5t5.5 -33.5q-3 -19 -18.5 -32t-34.5 -13q-20 0 -31 13t-8 32z" />
<glyph unicode="&#xa2;" horiz-adv-x="1103" d="M168 514q29 136 118 252t216 188.5t266 83.5l39 181h65l-38 -181q138 -6 236 -76.5t140 -187.5l-63 -35q-34 104 -120 166t-208 68l-194 -922q122 6 234 69t192 165l51 -33q-94 -119 -222.5 -189.5t-269.5 -76.5l-35 -164h-65l35 164q-206 17 -314 166t-63 362zM236 514 q-26 -121 7 -223t116 -165.5t200 -74.5l195 922q-183 -17 -331.5 -148t-186.5 -311z" />
<glyph unicode="&#xa3;" horiz-adv-x="1185" d="M100 0l13 66h32q129 5 238 96.5t137 218.5q5 37 6 67.5t-8.5 68.5t-18.5 66.5t-23.5 61.5t-24.5 53.5t-22 42.5t-15 29h-154l14 66h113q-19 59 -21.5 108t11.5 123q43 201 215 343t373 142q124 0 217 -61t139 -162l-64 -31q-42 88 -121.5 138.5t-185.5 50.5 q-172 0 -321.5 -124t-186.5 -296q-13 -76 -7.5 -123t30.5 -108h518l-14 -66h-480l9 -12q123 -216 88 -377q-21 -98 -84 -180.5t-154 -134.5h385q134 0 250 95t145 228h66q-34 -160 -171.5 -274.5t-299.5 -114.5h-623z" />
<glyph unicode="&#xa4;" horiz-adv-x="1245" d="M135 197q3 9 15 24l202 166q-88 131 -49 307q33 167 178 305l-133 170q-8 13 -6 25q3 14 16 23q8 8 25 8q15 0 23 -8l133 -170q158 116 329 116q177 0 285 -121l203 168q12 9 26 9q15 0 21 -9q6 -10 4 -22q-3 -17 -14 -25l-205 -170q82 -126 47 -299q-40 -175 -180 -305 l131 -168q7 -7 4 -24q-3 -14 -12 -23q-13 -10 -25 -10q-16 0 -23 10l-133 168q-153 -115 -327 -115q-177 0 -281 113l-201 -166q-20 -10 -26 -10q-14 0 -21 10q-9 9 -6 23zM369 694q-35 -164 58 -282.5t257 -118.5t307 118.5t178 282.5q23 108 -12.5 201.5t-116.5 148 t-186 54.5q-164 0 -307.5 -120.5t-177.5 -283.5z" />
<glyph unicode="&#xa5;" horiz-adv-x="1247" d="M176 569l12 66h508l-45 227h-413l14 66h385l-121 608h68l178 -897l557 897h72l-383 -608h381l-15 -66h-407l-144 -227h502l-12 -66h-531l-4 -8l-119 -561h-65l119 561l-2 8h-535z" />
<glyph unicode="&#xa6;" horiz-adv-x="251" d="M94 -25l137 650h66l-137 -650h-66zM297 928l137 649h66l-138 -649h-65z" />
<glyph unicode="&#xa7;" horiz-adv-x="1101" d="M37 -322l61 43q0 -3 2 -7t2 -5q30 -53 55 -76q77 -71 246 -71q62 0 120.5 12t114 38t95.5 73t53 110q14 66 -17 128.5t-93 105.5q-40 26 -106 55t-123 50.5t-116.5 55.5t-98.5 72t-56.5 99.5t-1.5 138.5q8 36 22.5 66t50 73t102.5 98.5t169 126.5q-47 36 -75 72.5 t-36 70.5t-7.5 58.5t6.5 54.5q21 98 92 168.5t162.5 102.5t191.5 32q121 0 235.5 -44t151.5 -97l-63 -53q-5 7 -37 39q-101 90 -273 90q-72 0 -136 -14t-118 -42.5t-92 -76.5t-51 -111q-10 -47 20 -104t76 -92q38 -30 105 -66t131 -65t131.5 -69t115.5 -79.5t73 -94 t12 -114.5q-11 -53 -36.5 -97.5t-57.5 -78t-83 -66.5t-100 -58t-123 -58q25 -21 40.5 -35t34 -35t27.5 -41t16.5 -46t7 -57.5t-8.5 -68.5q-27 -125 -146 -209t-317 -84q-79 0 -145.5 19t-107.5 48t-65.5 58.5t-31.5 56.5zM242 502q-13 -62 7 -115t58 -88t95.5 -66.5 t106.5 -49t104.5 -37t76.5 -29.5q338 127 373 289q28 129 -76 194q-24 16 -109 60.5t-189 97.5t-122 63q-2 0 -32.5 -19.5t-75.5 -53.5t-91 -73.5t-82 -86.5t-44 -86z" />
<glyph unicode="&#xa8;" horiz-adv-x="514" d="M348 1206q3 19 17.5 32t33.5 13q20 0 31 -13t8 -32q-5 -20 -21 -33.5t-36 -13.5q-19 0 -28.5 13.5t-4.5 33.5zM590 1206q3 19 18.5 32t34.5 13t29.5 -13t7.5 -32q-4 -20 -20 -33.5t-35 -13.5t-29 13.5t-6 33.5z" />
<glyph unicode="&#xa9;" horiz-adv-x="1640" d="M222 504q-12 110 11 233q43 201 181 373t330.5 271.5t390.5 99.5q102 0 193.5 -26.5t162 -75t125 -116.5t83 -151t36 -178t-16.5 -197q-32 -150 -119 -286.5t-206.5 -236.5t-270 -159t-303.5 -59q-119 0 -224 38t-181 106t-128 161t-64 203zM298 526q10 -99 56 -182.5 t114 -144t163.5 -94t204.5 -33.5q137 0 273 52.5t245.5 141t189.5 212t109 259.5q38 182 -20.5 336t-195 243t-319.5 89q-137 0 -272 -52.5t-243 -142t-186.5 -213t-107.5 -260.5q-21 -112 -11 -211zM537 735q40 191 206.5 329t366.5 138q48 0 88 -8t73.5 -26t44.5 -25 t38 -27q15 -10 30 -29l-41 -36q-50 47 -116 71.5t-131 24.5q-176 0 -316.5 -119t-177.5 -293q-23 -106 12 -200.5t117.5 -151.5t190.5 -57q67 0 143 23.5t139 68.5l8 6l35 -25q-6 -6 -19 -15.5t-14 -10.5q-15 -12 -35.5 -24.5t-60.5 -33t-94 -33t-111 -12.5q-132 0 -228 64 t-135 170.5t-13 230.5z" />
<glyph unicode="&#xaa;" horiz-adv-x="888" d="M317 1135q32 148 159 251t276 103q99 0 171.5 -49.5t98.5 -134.5l39 182h45l-152 -709l-34 49l28 134q-64 -85 -156.5 -135t-191.5 -50q-149 0 -231.5 105t-51.5 254zM362 1135q-28 -130 44.5 -222t203.5 -92q129 0 238 91.5t137 222.5q28 129 -43.5 219t-200.5 90 q-130 0 -240.5 -90t-138.5 -219z" />
<glyph unicode="&#xab;" horiz-adv-x="669" d="M164 559l348 408l45 -39l-315 -369l157 -369l-61 -38zM375 559l348 408l45 -39l-315 -369l157 -369l-61 -38z" />
<glyph unicode="&#xac;" horiz-adv-x="1558" d="M184 713l15 65h1042l-131 -620h-63l116 555h-979z" />
<glyph unicode="&#xad;" horiz-adv-x="806" d="M229 580l13 65h596l-13 -65h-596z" />
<glyph unicode="&#xae;" horiz-adv-x="1640" d="M222 504q-12 110 11 233q43 201 181 373t330.5 271.5t390.5 99.5q102 0 193.5 -26.5t162 -75t125 -116.5t83 -151t36 -178t-16.5 -197q-32 -150 -119 -286.5t-206.5 -236.5t-270 -159t-303.5 -59q-119 0 -224 38t-181 106t-128 161t-64 203zM298 526q10 -99 56 -182.5 t114 -144t163.5 -94t204.5 -33.5q137 0 273 52.5t245.5 141t189.5 212t109 259.5q38 182 -20.5 336t-195 243t-319.5 89q-137 0 -272 -52.5t-243 -142t-186.5 -213t-107.5 -260.5q-21 -112 -11 -211zM684 307l190 891h179q126 0 179.5 -75t27.5 -195q-19 -88 -77 -158 t-147 -104l84 -355h-69l-80 330q-3 8 -13 8h-122q-8 0 -11 -8l-71 -334h-70zM840 723q-1 -3 1 -4.5t7 -1.5h127q51 0 93 25t67 62.5t39 68t20 55.5q8 28 5.5 63.5t-11.5 67t-41.5 53t-83.5 21.5h-127q-9 0 -12 -13z" />
<glyph unicode="&#xaf;" horiz-adv-x="843" d="M387 1368l14 66h648l-15 -66h-647z" />
<glyph unicode="&#xb0;" horiz-adv-x="815" d="M322 1153q29 137 146 233.5t253 96.5q137 0 213 -97t47 -233q-29 -137 -146 -233.5t-253 -96.5q-137 0 -213 97t-47 233zM387 1153q-23 -110 38 -187t171 -77t203 77t116 187t-36.5 187t-169.5 77t-204.5 -77t-117.5 -187z" />
<glyph unicode="&#xb1;" horiz-adv-x="956" d="M66 129l14 66h881l-15 -66h-880zM168 625l14 65h408l78 367h65l-78 -367h408l-14 -65h-408l-78 -367h-65l77 367h-407z" />
<glyph unicode="&#xb2;" horiz-adv-x="831" d="M291 614v35l493 402q144 120 166 225q22 101 -32 167t-156 66q-93 0 -172 -59t-117 -150l-29 21q36 96 128.5 161.5t197.5 65.5q119 0 181.5 -77t37.5 -195q-25 -121 -188 -258l-447 -365h502l-8 -39h-557z" />
<glyph unicode="&#xb3;" horiz-adv-x="806" d="M299 713l27 35q36 -46 93 -74.5t116 -28.5q124 0 205 73.5t102 176.5q10 51 -7 100t-69.5 84.5t-132.5 38.5h-96l8 35h94q89 0 159 53t85 125q15 76 -29 131.5t-149 55.5q-47 0 -105 -26t-104 -69l-11 33q118 98 234 98q113 0 168 -64.5t35 -156.5q-13 -58 -56.5 -107 t-91.5 -71q-9 -4 -19 -8t-14 -5.5t-4 -2.5q31 -11 51 -25q123 -81 95 -223q-27 -120 -124 -201.5t-227 -81.5q-143 0 -233 105z" />
<glyph unicode="&#xb4;" horiz-adv-x="526" d="M295 1196l448 168l15 -59l-451 -168z" />
<glyph unicode="&#xb6;" horiz-adv-x="894" d="M274 1094q19 87 55.5 151t85.5 104.5t116.5 65t139.5 34t163 9.5h272l-404 -1896h-65l389 1831h-143l-389 -1833h-66l252 1183q-218 5 -328.5 98.5t-77.5 252.5z" />
<glyph unicode="&#xb7;" horiz-adv-x="229" d="M233 780q5 19 21.5 32t36.5 13q19 0 29 -13t6 -32q-3 -20 -19 -33.5t-35 -13.5q-20 0 -31 13.5t-8 33.5z" />
<glyph unicode="&#xb8;" horiz-adv-x="534" d="M-14 -385l51 49q1 0 27 -16t49.5 -22.5t56.5 -6.5q52 0 107 34t67 91q11 53 -13 75.5t-59 22.5q-58 0 -82 -8q-6 -1 -14.5 -4t-11.5 -4l-37 24l139 150h58l-103 -104q3 0 23 3t45 3q67 0 101.5 -42t19.5 -114q-14 -63 -57.5 -108t-95.5 -64.5t-105 -19.5q-51 0 -101 17.5 t-65 43.5z" />
<glyph unicode="&#xb9;" horiz-adv-x="374" d="M379 614l186 881h-157l8 41h198l-196 -922h-39z" />
<glyph unicode="&#xba;" horiz-adv-x="864" d="M317 1128q31 147 156.5 250t274.5 103q146 0 227.5 -103.5t50.5 -249.5q-32 -149 -157 -252.5t-271 -103.5q-149 0 -231 103.5t-50 252.5zM362 1128q-28 -131 45 -223t203 -92q129 0 240 92.5t139 222.5q26 128 -45.5 219t-200.5 91q-130 0 -242.5 -91t-138.5 -219z" />
<glyph unicode="&#xbb;" horiz-adv-x="671" d="M84 190l317 369l-159 369l61 39l176 -408l-350 -407zM295 190l317 369l-159 369l61 39l176 -408l-350 -407z" />
<glyph unicode="&#xbc;" horiz-adv-x="1388" d="M338 537l201 944h-172l12 55h227l-213 -999h-55zM350 10l776 1532l60 -14l-774 -1536zM729 215l8 47l623 737h45l-154 -729h131l-12 -55h-131l-45 -215h-55l45 215h-455zM811 270h385l131 623z" />
<glyph unicode="&#xbd;" horiz-adv-x="1505" d="M338 537l201 944h-172l12 55h227l-213 -999h-55zM350 10l776 1532l60 -14l-774 -1536zM829 0l11 53l538 434q51 42 95 100.5t55 110.5q23 110 -33 181t-166 71q-100 0 -180.5 -58.5t-114.5 -156.5l-53 8q40 111 143 187t217 76q128 0 199 -90.5t43 -217.5 q-13 -64 -63 -132.5t-111 -114.5l-489 -396h526l-10 -55h-607z" />
<glyph unicode="&#xbe;" horiz-adv-x="1611" d="M219 813h55q-19 -109 37.5 -176.5t165.5 -67.5t195.5 71t111.5 183q22 103 -33 179.5t-155 84.5l10 43q64 17 112.5 66t61.5 111q17 78 -20 125t-115 47q-66 0 -116 -33.5t-76 -95.5l-50 14q34 74 104.5 122t149.5 48q93 0 146 -66t33 -161q-12 -59 -51.5 -109.5 t-96.5 -81.5q87 -30 130 -111t22 -182q-28 -128 -138 -218.5t-237 -90.5q-124 0 -196.5 87t-49.5 212zM584 10l776 1532l59 -14l-774 -1536zM963 215l8 47l622 737h45l-153 -729h131l-12 -55h-131l-46 -215h-55l45 215h-454zM1044 270h386l131 623z" />
<glyph unicode="&#xbf;" horiz-adv-x="864" d="M131 381q16 76 59.5 144t100.5 119t123 98.5t131.5 92t121.5 90t97.5 102t54.5 118.5q13 66 -17.5 111t-92.5 53l30 65q83 -12 124 -76.5t22 -152.5q-15 -69 -57 -131.5t-98.5 -111t-122.5 -95l-132 -93t-122.5 -95t-98.5 -109.5t-57 -129q-28 -134 46.5 -229t207.5 -95 q117 0 219.5 73t150.5 185l62 -14q-60 -135 -182.5 -222t-262.5 -87q-161 0 -251 114t-56 275zM774 1503q3 17 17.5 29t31.5 12t26.5 -12t6.5 -29q-5 -17 -19.5 -29t-31.5 -12t-26 12t-5 29z" />
<glyph unicode="&#xc0;" horiz-adv-x="1210" d="M49 0l854 1536h53l203 -1536h-67l-56 403h-694l-221 -403h-72zM379 469h649l-125 944zM748 1714l38 60l379 -168l-41 -60z" />
<glyph unicode="&#xc1;" horiz-adv-x="1210" d="M49 0l854 1536h53l203 -1536h-67l-56 403h-694l-221 -403h-72zM379 469h649l-125 944zM725 1606l449 168l14 -60l-451 -168z" />
<glyph unicode="&#xc2;" horiz-adv-x="1210" d="M49 0l854 1536h53l203 -1536h-67l-56 403h-694l-221 -403h-72zM379 469h649l-125 944zM754 1561l20 65l189 74l159 -74l-8 -65q-20 0 -125 53q-8 4 -12.5 6.5t-12 6.5t-14.5 7q-17 -7 -47 -19q-129 -53 -149 -54z" />
<glyph unicode="&#xc3;" horiz-adv-x="1210" d="M49 0l854 1536h53l203 -1536h-67l-56 403h-694l-221 -403h-72zM379 469h649l-125 944zM606 1610q78 90 182 90q61 0 161 -35t157 -35q84 0 168 64l20 -25q-94 -90 -192 -90q-58 0 -163.5 35t-160.5 35q-75 0 -149 -64z" />
<glyph unicode="&#xc4;" horiz-adv-x="1210" d="M49 0l854 1536h53l203 -1536h-67l-56 403h-694l-221 -403h-72zM379 469h649l-125 944zM780 1616q3 19 17.5 32t33.5 13q20 0 31 -13t8 -32q-5 -20 -21 -33.5t-36 -13.5q-19 0 -28.5 13.5t-4.5 33.5zM1022 1616q3 19 18.5 32t34.5 13t29.5 -13t7.5 -32q-4 -20 -20 -33.5 t-35 -13.5t-29 13.5t-6 33.5z" />
<glyph unicode="&#xc5;" horiz-adv-x="1210" d="M49 0l854 1536h53l203 -1536h-67l-56 403h-694l-221 -403h-72zM379 469h649l-125 944zM874 1673q9 39 40.5 64.5t72.5 25.5q38 0 58.5 -26t11.5 -64q-7 -41 -38.5 -66.5t-70.5 -25.5q-41 0 -61.5 25.5t-12.5 66.5zM909 1673q-12 -57 45 -57q24 0 44 16t24 41 q5 23 -7.5 39.5t-35.5 16.5q-26 0 -45.5 -16t-24.5 -40z" />
<glyph unicode="&#xc6;" horiz-adv-x="1521" d="M49 0l1008 1536h737l-14 -66h-641l-131 -614h641l-13 -65h-641l-155 -725h641l-13 -66h-706l84 403h-455l-270 -403h-72zM428 469h428l201 944z" />
<glyph unicode="&#xc7;" horiz-adv-x="1509" d="M242 768q34 160 127 305t220.5 250t286 167t318.5 62q161 0 291 -59.5t215 -167.5l-58 -47q-78 100 -196.5 154.5t-265.5 54.5q-195 0 -380.5 -96t-318 -261.5t-174.5 -361.5q-22 -120 -11 -226.5t60.5 -197t123 -156t176 -102.5t218.5 -37q145 0 286.5 55t262.5 154 l37 -47q-130 -108 -284.5 -167.5t-315.5 -59.5q-21 0 -61 4l-88 -92q3 0 22.5 3t44.5 3q67 0 101.5 -42t19.5 -114q-14 -63 -57.5 -108t-95.5 -64.5t-105 -19.5q-51 0 -101 17.5t-67 43.5l53 49q1 0 27 -16t49.5 -22.5t56.5 -6.5q52 0 107.5 34t67.5 91q11 53 -13 75.5 t-59 22.5q-58 0 -82 -8q-6 -1 -15 -4l-12 -4l-37 24l132 142q-182 26 -312.5 135t-182.5 278t-11 363z" />
<glyph unicode="&#xc8;" horiz-adv-x="901" d="M109 0l325 1536h707l-15 -66h-641l-131 -614h641l-12 -65h-641l-156 -725h641l-12 -66h-706zM606 1759l39 60l379 -168l-41 -60z" />
<glyph unicode="&#xc9;" horiz-adv-x="901" d="M109 0l325 1536h707l-15 -66h-641l-131 -614h641l-12 -65h-641l-156 -725h641l-12 -66h-706zM590 1645l448 167l15 -59l-451 -168z" />
<glyph unicode="&#xca;" horiz-adv-x="901" d="M109 0l325 1536h707l-15 -66h-641l-131 -614h641l-12 -65h-641l-156 -725h641l-12 -66h-706zM625 1608l20 65l189 74l159 -74l-8 -65q-20 0 -125 53q-8 4 -12.5 6.5t-12 6.5t-14.5 7q-17 -7 -47 -19q-129 -53 -149 -54z" />
<glyph unicode="&#xcb;" horiz-adv-x="901" d="M109 0l325 1536h707l-15 -66h-641l-131 -614h641l-12 -65h-641l-156 -725h641l-12 -66h-706zM635 1655q3 19 17.5 32t33.5 13q20 0 31 -13t8 -32q-5 -20 -21 -33.5t-36 -13.5q-19 0 -28.5 13.5t-4.5 33.5zM877 1655q3 19 18.5 32t34.5 13t29.5 -13t7.5 -32 q-4 -20 -20.5 -33.5t-35.5 -13.5t-28.5 13.5t-5.5 33.5z" />
<glyph unicode="&#xcc;" horiz-adv-x="262" d="M106 0l326 1536h66l-326 -1536h-66zM279 1714l38 60l379 -168l-41 -60z" />
<glyph unicode="&#xcd;" horiz-adv-x="262" d="M106 0l326 1536h66l-326 -1536h-66zM256 1606l449 168l14 -60l-451 -168z" />
<glyph unicode="&#xce;" horiz-adv-x="262" d="M106 0l326 1536h66l-326 -1536h-66zM285 1561l20 65l189 74l159 -74l-8 -65q-20 0 -125 53q-8 4 -12.5 6.5t-12 6.5t-14.5 7q-17 -7 -47 -19q-129 -53 -149 -54z" />
<glyph unicode="&#xcf;" horiz-adv-x="262" d="M106 0l326 1536h66l-326 -1536h-66zM311 1616q3 19 17.5 32t33.5 13q20 0 31 -13t8 -32q-5 -20 -21 -33.5t-36 -13.5q-19 0 -28.5 13.5t-4.5 33.5zM553 1616q3 19 18.5 32t34.5 13t29.5 -13t7.5 -32q-4 -20 -20 -33.5t-35 -13.5t-29 13.5t-6 33.5z" />
<glyph unicode="&#xd0;" horiz-adv-x="1497" d="M209 702l14 64h258l164 770h334q126 0 235 -39t187.5 -108.5t130.5 -166t63.5 -211t-12.5 -243.5q-44 -210 -184 -386.5t-338 -279t-408 -102.5h-334l148 702h-258zM397 66h269q190 0 372 94.5t311 256.5t169 351q33 145 2.5 273t-103 223t-191 150.5t-261.5 55.5h-269 l-149 -704h254l-15 -66h-254z" />
<glyph unicode="&#xd1;" horiz-adv-x="1230" d="M104 0l326 1536h57l605 -1401l297 1401h65l-326 -1536h-57l-604 1401l-297 -1401h-66zM616 1610q78 90 183 90q61 0 160.5 -35t156.5 -35q84 0 168 64l21 -25q-94 -90 -193 -90q-58 0 -163.5 35t-160.5 35q-75 0 -149 -64z" />
<glyph unicode="&#xd2;" horiz-adv-x="1732" d="M231 520q-12 117 13 248q34 160 127 305t220.5 250t286 167t318.5 62q128 0 239.5 -40t191.5 -111t133 -169.5t65 -215.5t-13 -248q-34 -160 -126.5 -305t-219.5 -250t-285.5 -167t-318.5 -62q-128 0 -239.5 40t-192 111t-134 169.5t-65.5 215.5zM298 541.5 q11 -106.5 61 -197t123.5 -156t175.5 -102.5t219 -37q147 0 292 57t261.5 154t201 229.5t115.5 278.5q23 121 12.5 228t-59.5 197.5t-122 155.5t-175.5 101.5t-220.5 36.5q-195 0 -380.5 -96t-318 -261.5t-174.5 -361.5q-22 -120 -11 -226.5zM1014 1741l39 59l379 -168 l-41 -59z" />
<glyph unicode="&#xd3;" horiz-adv-x="1732" d="M231 520q-12 117 13 248q34 160 127 305t220.5 250t286 167t318.5 62q128 0 239.5 -40t191.5 -111t133 -169.5t65 -215.5t-13 -248q-34 -160 -126.5 -305t-219.5 -250t-285.5 -167t-318.5 -62q-128 0 -239.5 40t-192 111t-134 169.5t-65.5 215.5zM298 541.5 q11 -106.5 61 -197t123.5 -156t175.5 -102.5t219 -37q147 0 292 57t261.5 154t201 229.5t115.5 278.5q23 121 12.5 228t-59.5 197.5t-122 155.5t-175.5 101.5t-220.5 36.5q-195 0 -380.5 -96t-318 -261.5t-174.5 -361.5q-22 -120 -11 -226.5zM952 1640l449 168l14 -59 l-450 -168z" />
<glyph unicode="&#xd4;" horiz-adv-x="1732" d="M231 520q-12 117 13 248q34 160 127 305t220.5 250t286 167t318.5 62q128 0 239.5 -40t191.5 -111t133 -169.5t65 -215.5t-13 -248q-34 -160 -126.5 -305t-219.5 -250t-285.5 -167t-318.5 -62q-128 0 -239.5 40t-192 111t-134 169.5t-65.5 215.5zM298 541.5 q11 -106.5 61 -197t123.5 -156t175.5 -102.5t219 -37q147 0 292 57t261.5 154t201 229.5t115.5 278.5q23 121 12.5 228t-59.5 197.5t-122 155.5t-175.5 101.5t-220.5 36.5q-195 0 -380.5 -96t-318 -261.5t-174.5 -361.5q-22 -120 -11 -226.5zM1036 1589l21 66l188 74 l160 -74l-8 -66q-5 0 -10 1t-13.5 4t-16 6.5t-22 10.5t-26 13t-35 18t-41.5 21q-18 -8 -40.5 -17t-35.5 -14.5t-29 -12t-24.5 -10t-19.5 -7.5l-16.5 -6t-12 -4t-11 -2.5t-8.5 -0.5z" />
<glyph unicode="&#xd5;" horiz-adv-x="1732" d="M231 520q-12 117 13 248q34 160 127 305t220.5 250t286 167t318.5 62q128 0 239.5 -40t191.5 -111t133 -169.5t65 -215.5t-13 -248q-34 -160 -126.5 -305t-219.5 -250t-285.5 -167t-318.5 -62q-128 0 -239.5 40t-192 111t-134 169.5t-65.5 215.5zM298 541.5 q11 -106.5 61 -197t123.5 -156t175.5 -102.5t219 -37q147 0 292 57t261.5 154t201 229.5t115.5 278.5q23 121 12.5 228t-59.5 197.5t-122 155.5t-175.5 101.5t-220.5 36.5q-195 0 -380.5 -96t-318 -261.5t-174.5 -361.5q-22 -120 -11 -226.5zM895 1632q78 90 182 90 q61 0 161 -34.5t157 -34.5q86 0 168 63l20 -24q-94 -90 -192 -90q-58 0 -163.5 34.5t-160.5 34.5q-76 0 -149 -63z" />
<glyph unicode="&#xd6;" horiz-adv-x="1732" d="M231 520q-12 117 13 248q34 160 127 305t220.5 250t286 167t318.5 62q128 0 239.5 -40t191.5 -111t133 -169.5t65 -215.5t-13 -248q-34 -160 -126.5 -305t-219.5 -250t-285.5 -167t-318.5 -62q-128 0 -239.5 40t-192 111t-134 169.5t-65.5 215.5zM298 541.5 q11 -106.5 61 -197t123.5 -156t175.5 -102.5t219 -37q147 0 292 57t261.5 154t201 229.5t115.5 278.5q23 121 12.5 228t-59.5 197.5t-122 155.5t-175.5 101.5t-220.5 36.5q-195 0 -380.5 -96t-318 -261.5t-174.5 -361.5q-22 -120 -11 -226.5zM1057 1636q3 19 17.5 32 t33.5 13q20 0 31 -13t8 -32q-5 -20 -21 -33.5t-36 -13.5q-19 0 -28.5 13.5t-4.5 33.5zM1298 1636q3 19 19 32t35 13t29.5 -13t7.5 -32q-4 -20 -20.5 -33.5t-35.5 -13.5t-29 13.5t-6 33.5z" />
<glyph unicode="&#xd7;" horiz-adv-x="1044" d="M190 238l349 288l-226 289l56 45l227 -287l350 287l35 -45l-348 -289l225 -288l-55 -45l-228 286l-350 -286z" />
<glyph unicode="&#xd8;" horiz-adv-x="1712" d="M233 768q34 160 127 305t221 250t286.5 167t318.5 62q93 0 166 -20l43 84h63l-47 -100q226 -75 336.5 -281t54.5 -467q-34 -160 -126.5 -305t-219.5 -250t-285.5 -167t-318.5 -62q-100 0 -199 26l-49 -98h-74l64 119q-213 84 -313.5 284.5t-47.5 452.5zM299 768 q-49 -227 43 -411t283 -263l696 1376q-83 17 -150 17q-194 0 -380 -96t-318 -261.5t-174 -361.5zM684 74q86 -25 182 -25q147 0 292.5 57t261.5 154t201 229.5t116 278.5q52 240 -49 427t-310 257z" />
<glyph unicode="&#xd9;" horiz-adv-x="993" d="M178 381l246 1155h65l-245 -1155q-29 -138 47.5 -236t214.5 -98q137 0 256.5 98t148.5 236l246 1155h66l-246 -1153q-23 -109 -95.5 -200.5t-175.5 -145t-212 -53.5q-166 0 -258.5 116t-57.5 281zM639 1714l39 60l379 -168l-41 -60z" />
<glyph unicode="&#xda;" horiz-adv-x="993" d="M178 381l246 1155h65l-245 -1155q-29 -138 47.5 -236t214.5 -98q137 0 256.5 98t148.5 236l246 1155h66l-246 -1153q-23 -109 -95.5 -200.5t-175.5 -145t-212 -53.5q-166 0 -258.5 116t-57.5 281zM616 1606l449 168l14 -60l-450 -168z" />
<glyph unicode="&#xdb;" horiz-adv-x="993" d="M178 381l246 1155h65l-245 -1155q-29 -138 47.5 -236t214.5 -98q137 0 256.5 98t148.5 236l246 1155h66l-246 -1153q-23 -109 -95.5 -200.5t-175.5 -145t-212 -53.5q-166 0 -258.5 116t-57.5 281zM645 1561l21 65l188 74l160 -74l-8 -65q-20 0 -125 53q-8 4 -12.5 6.5 t-12 6.5t-14.5 7q-165 -68 -187 -72q-5 -1 -10 -1z" />
<glyph unicode="&#xdc;" horiz-adv-x="993" d="M178 381l246 1155h65l-245 -1155q-29 -138 47.5 -236t214.5 -98q137 0 256.5 98t148.5 236l246 1155h66l-246 -1153q-23 -109 -95.5 -200.5t-175.5 -145t-212 -53.5q-166 0 -258.5 116t-57.5 281zM672 1616q3 19 17.5 32t33.5 13q20 0 31 -13t8 -32q-5 -20 -21 -33.5 t-36 -13.5q-19 0 -28.5 13.5t-4.5 33.5zM913 1616q3 19 19 32t35 13t29.5 -13t7.5 -32q-4 -20 -20.5 -33.5t-35.5 -13.5t-29 13.5t-6 33.5z" />
<glyph unicode="&#xdd;" horiz-adv-x="954" d="M367 1536h67l178 -897l557 897h72l-612 -975l-119 -561h-66l119 561zM596 1606l448 168l15 -60l-451 -168z" />
<glyph unicode="&#xde;" horiz-adv-x="821" d="M98 -2l328 1538h66l-72 -336h190q111 0 193 -54.5t117 -148t12 -204.5q-35 -167 -180 -286.5t-314 -119.5h-190l-84 -389h-66zM260 453h191q142 0 263 99.5t152 240.5q31 142 -48 242t-222 100h-190z" />
<glyph unicode="&#xdf;" horiz-adv-x="946" d="M100 0l250 1182q35 165 150 259.5t243 94.5h13q154 -9 219 -122.5t29 -285.5q-24 -111 -98 -203t-179 -147q129 -28 196.5 -136t37.5 -249q-34 -164 -173 -278.5t-303 -114.5h-196l12 66h197q136 0 252 95t145 232t-45.5 233.5t-210.5 96.5h-197l13 65h65q143 0 265 99.5 t153 240.5q31 150 -22.5 241.5t-172.5 100.5h-14q-101 0 -193 -79.5t-120 -208.5l-250 -1182h-66z" />
<glyph unicode="&#xe0;" horiz-adv-x="1232" d="M186 514q46 218 233 372t408 154q147 0 254.5 -73.5t149.5 -198.5l55 256h66l-217 -1024h-66l53 256q-95 -125 -233 -198.5t-285 -73.5q-145 0 -252.5 70.5t-152 192.5t-13.5 267zM254 514q-41 -194 65 -328.5t299 -134.5q192 0 355.5 135t204.5 328q26 126 -12.5 232 t-131.5 167.5t-219 61.5q-194 0 -357.5 -134.5t-203.5 -326.5zM672 1305l39 59l379 -168l-41 -59z" />
<glyph unicode="&#xe1;" horiz-adv-x="1232" d="M186 514q46 218 233 372t408 154q147 0 254.5 -73.5t149.5 -198.5l55 256h66l-217 -1024h-66l53 256q-95 -125 -233 -198.5t-285 -73.5q-145 0 -252.5 70.5t-152 192.5t-13.5 267zM254 514q-41 -194 65 -328.5t299 -134.5q192 0 355.5 135t204.5 328q26 126 -12.5 232 t-131.5 167.5t-219 61.5q-194 0 -357.5 -134.5t-203.5 -326.5zM649 1196l449 168l14 -59l-450 -168z" />
<glyph unicode="&#xe2;" horiz-adv-x="1232" d="M186 514q46 218 233 372t408 154q147 0 254.5 -73.5t149.5 -198.5l55 256h66l-217 -1024h-66l53 256q-95 -125 -233 -198.5t-285 -73.5q-145 0 -252.5 70.5t-152 192.5t-13.5 267zM254 514q-41 -194 65 -328.5t299 -134.5q192 0 355.5 135t204.5 328q26 126 -12.5 232 t-131.5 167.5t-219 61.5q-194 0 -357.5 -134.5t-203.5 -326.5zM680 1151l20 66l189 73l160 -73l-9 -66q-5 0 -10 1t-13.5 4t-16 6.5t-21.5 10.5l-26 13t-34.5 17.5t-41.5 21.5q-18 -8 -40.5 -17t-35.5 -14.5t-29 -12t-24.5 -10t-19.5 -7.5l-16.5 -6t-12 -4t-11 -2.5 t-8.5 -0.5z" />
<glyph unicode="&#xe3;" horiz-adv-x="1232" d="M186 514q46 218 233 372t408 154q147 0 254.5 -73.5t149.5 -198.5l55 256h66l-217 -1024h-66l53 256q-95 -125 -233 -198.5t-285 -73.5q-145 0 -252.5 70.5t-152 192.5t-13.5 267zM254 514q-41 -194 65 -328.5t299 -134.5q192 0 355.5 135t204.5 328q26 126 -12.5 232 t-131.5 167.5t-219 61.5q-194 0 -357.5 -134.5t-203.5 -326.5zM532 1200q78 90 183 90q61 0 160.5 -34.5t156.5 -34.5q86 0 168 63l21 -24q-95 -91 -193 -91q-58 0 -163 35t-160 35q-77 0 -150 -63z" />
<glyph unicode="&#xe4;" horiz-adv-x="1232" d="M186 514q46 218 233 372t408 154q147 0 254.5 -73.5t149.5 -198.5l55 256h66l-217 -1024h-66l53 256q-95 -125 -233 -198.5t-285 -73.5q-145 0 -252.5 70.5t-152 192.5t-13.5 267zM254 514q-41 -194 65 -328.5t299 -134.5q192 0 355.5 135t204.5 328q26 126 -12.5 232 t-131.5 167.5t-219 61.5q-194 0 -357.5 -134.5t-203.5 -326.5zM707 1206q3 19 17.5 32t33.5 13q20 0 31 -13t8 -32q-4 -20 -21 -33.5t-37 -13.5q-19 0 -28 13.5t-4 33.5zM948 1206q3 19 18.5 32t34.5 13t29.5 -13t7.5 -32q-4 -20 -20 -33.5t-35 -13.5t-29 13.5t-6 33.5z" />
<glyph unicode="&#xe5;" horiz-adv-x="1232" d="M186 514q46 218 233 372t408 154q147 0 254.5 -73.5t149.5 -198.5l55 256h66l-217 -1024h-66l53 256q-95 -125 -233 -198.5t-285 -73.5q-145 0 -252.5 70.5t-152 192.5t-13.5 267zM254 514q-41 -194 65 -328.5t299 -134.5q192 0 355.5 135t204.5 328q26 126 -12.5 232 t-131.5 167.5t-219 61.5q-194 0 -357.5 -134.5t-203.5 -326.5zM784 1231q9 39 40.5 64.5t72.5 25.5q38 0 58.5 -26t11.5 -64q-7 -41 -38.5 -66.5t-70.5 -25.5q-41 0 -61.5 25.5t-12.5 66.5zM819 1231q-12 -57 45 -57q24 0 44 16t24 41q5 23 -7.5 39t-35.5 16 q-26 0 -45.5 -15.5t-24.5 -39.5z" />
<glyph unicode="&#xe6;" horiz-adv-x="2138" d="M186 514q46 218 233 372t408 154q147 0 254.5 -73.5t149.5 -198.5l55 256h66l-58 -270q92 130 233 208t294 78q141 0 236.5 -71t128.5 -190.5t3 -264.5l-10 -37h-932q-26 -180 82 -303t291 -123q107 0 211.5 38.5t189.5 111.5l23 -58q-202 -159 -438 -159q-155 0 -265 79 t-149 211l-57 -274h-66l53 256q-95 -125 -233 -198.5t-285 -73.5q-145 0 -252.5 70.5t-152 192.5t-13.5 267zM254 514q-41 -194 65 -328.5t299 -134.5q192 0 355.5 135t204.5 328q26 126 -12.5 232t-131.5 167.5t-219 61.5q-194 0 -357.5 -134.5t-203.5 -326.5zM1262 543 h868q27 187 -57.5 309.5t-264.5 122.5q-186 0 -340 -124.5t-206 -307.5z" />
<glyph unicode="&#xe7;" horiz-adv-x="1144" d="M186 514q46 218 233 372t408 154q146 0 253 -71.5t149 -194.5l-64 -35q-38 108 -130 172t-220 64q-194 0 -357.5 -134.5t-203.5 -326.5q-41 -194 65 -328.5t299 -134.5q127 0 247.5 64t203.5 170l51 -33q-93 -121 -227.5 -193t-278.5 -75l-86 -88q3 0 23 3t45 3 q67 0 101.5 -42t19.5 -114q-14 -63 -57.5 -108t-95.5 -64.5t-105 -19.5q-51 0 -101 17.5t-67 43.5l53 49q1 0 27 -16t49.5 -22.5t56.5 -6.5q52 0 107 34t67 91q11 53 -13 75.5t-58 22.5q-58 0 -82 -8q-6 -1 -15 -4l-12 -4l-37 24l125 136q-202 17 -310 168t-63 360z" />
<glyph unicode="&#xe8;" horiz-adv-x="1134" d="M186 514q46 219 229.5 372.5t403.5 153.5q141 0 236.5 -71t129 -190.5t3.5 -264.5l-10 -37h-932q-26 -180 81.5 -303t290.5 -123q107 0 212 38.5t190 111.5l22 -58q-202 -159 -438 -159q-145 0 -252.5 70.5t-152 192.5t-13.5 267zM260 543h868q27 187 -57 309.5 t-264 122.5q-186 0 -340.5 -124.5t-206.5 -307.5zM623 1305l39 59l378 -168l-41 -59z" />
<glyph unicode="&#xe9;" horiz-adv-x="1134" d="M186 514q46 219 229.5 372.5t403.5 153.5q141 0 236.5 -71t129 -190.5t3.5 -264.5l-10 -37h-932q-26 -180 81.5 -303t290.5 -123q107 0 212 38.5t190 111.5l22 -58q-202 -159 -438 -159q-145 0 -252.5 70.5t-152 192.5t-13.5 267zM260 543h868q27 187 -57 309.5 t-264 122.5q-186 0 -340.5 -124.5t-206.5 -307.5zM600 1196l449 168l14 -59l-451 -168z" />
<glyph unicode="&#xea;" horiz-adv-x="1134" d="M186 514q46 219 229.5 372.5t403.5 153.5q141 0 236.5 -71t129 -190.5t3.5 -264.5l-10 -37h-932q-26 -180 81.5 -303t290.5 -123q107 0 212 38.5t190 111.5l22 -58q-202 -159 -438 -159q-145 0 -252.5 70.5t-152 192.5t-13.5 267zM260 543h868q27 187 -57 309.5 t-264 122.5q-186 0 -340.5 -124.5t-206.5 -307.5zM631 1151l20 66l189 73l159 -73l-8 -66q-5 0 -10 1t-13.5 4t-16 6.5t-22 10.5t-26 13t-35 18t-41.5 21q-23 -9 -51 -21t-42.5 -18t-32 -13t-26 -10.5t-18.5 -6.5t-15.5 -4t-10.5 -1z" />
<glyph unicode="&#xeb;" horiz-adv-x="1134" d="M186 514q46 219 229.5 372.5t403.5 153.5q141 0 236.5 -71t129 -190.5t3.5 -264.5l-10 -37h-932q-26 -180 81.5 -303t290.5 -123q107 0 212 38.5t190 111.5l22 -58q-202 -159 -438 -159q-145 0 -252.5 70.5t-152 192.5t-13.5 267zM260 543h868q27 187 -57 309.5 t-264 122.5q-186 0 -340.5 -124.5t-206.5 -307.5zM657 1206q3 19 18 32t34 13q20 0 31 -13t8 -32q-4 -20 -21 -33.5t-37 -13.5q-19 0 -28.5 13.5t-4.5 33.5zM899 1206q3 19 18.5 32t34.5 13t29.5 -13t7.5 -32q-4 -20 -20 -33.5t-35 -13.5t-29 13.5t-6 33.5z" />
<glyph unicode="&#xec;" horiz-adv-x="266" d="M109 0l217 1026h65l-217 -1026h-65zM193 1305l38 59l379 -168l-41 -59z" />
<glyph unicode="&#xed;" horiz-adv-x="266" d="M109 0l217 1026h65l-217 -1026h-65zM170 1196l448 168l15 -59l-451 -168z" />
<glyph unicode="&#xee;" horiz-adv-x="266" d="M109 0l217 1026h65l-217 -1026h-65zM199 1151l20 66l189 73l159 -73l-8 -66q-5 0 -10 1t-13.5 4t-16 6.5t-22 10.5t-26 13t-35 18t-41.5 21q-23 -9 -51 -21t-42.5 -18t-32 -13t-26 -10.5t-18.5 -6.5t-15.5 -4t-10.5 -1z" />
<glyph unicode="&#xef;" horiz-adv-x="266" d="M109 0l217 1026h65l-217 -1026h-65zM225 1206q3 19 17.5 32t33.5 13q20 0 31 -13t8 -32q-5 -20 -21 -33.5t-36 -13.5q-19 0 -28.5 13.5t-4.5 33.5zM467 1206q3 19 18.5 32t34.5 13t29.5 -13t7.5 -32q-4 -20 -20 -33.5t-35 -13.5t-29 13.5t-6 33.5z" />
<glyph unicode="&#xf0;" horiz-adv-x="1177" d="M168 508q31 145 127 266t231.5 190.5t278.5 69.5q124 0 225 -53l-147 313l-162 -100l-25 53l160 101l-74 159l64 37l72 -158l167 107l29 -55l-170 -107l234 -489q84 -143 41 -334q-47 -224 -229 -374t-408 -150q-147 0 -252.5 68t-149 188.5t-12.5 267.5zM233 508 q-41 -195 64.5 -327t298.5 -132q196 0 356 131.5t201 327.5q41 195 -63 328t-299 133q-125 0 -244 -61.5t-203 -167.5t-111 -232z" />
<glyph unicode="&#xf1;" horiz-adv-x="983" d="M100 0l217 1024l66 -2l-35 -160q73 82 169 130t198 48q163 0 255 -114.5t58 -276.5l-137 -649h-66l138 653q29 134 -48 228t-213 94t-252.5 -92.5t-144.5 -225.5l-139 -657h-66zM408 1200q78 90 182 90q61 0 160.5 -34.5t156.5 -34.5q86 0 168 63l21 -24 q-95 -91 -193 -91q-58 0 -163 35t-160 35q-77 0 -150 -63z" />
<glyph unicode="&#xf2;" horiz-adv-x="1212" d="M186 514q46 218 233 372t408 154q143 0 249.5 -70.5t151.5 -191.5t15 -264q-31 -145 -127.5 -267t-232.5 -192.5t-279 -70.5q-145 0 -252.5 70.5t-152 192.5t-13.5 267zM254 514q-41 -194 65 -328.5t299 -134.5q192 0 355.5 135t204.5 328q26 126 -12.5 232t-131.5 167.5 t-219 61.5q-194 0 -357.5 -134.5t-203.5 -326.5zM662 1305l38 59l379 -168l-41 -59z" />
<glyph unicode="&#xf3;" horiz-adv-x="1212" d="M186 514q46 218 233 372t408 154q143 0 249.5 -70.5t151.5 -191.5t15 -264q-31 -145 -127.5 -267t-232.5 -192.5t-279 -70.5q-145 0 -252.5 70.5t-152 192.5t-13.5 267zM254 514q-41 -194 65 -328.5t299 -134.5q192 0 355.5 135t204.5 328q26 126 -12.5 232t-131.5 167.5 t-219 61.5q-194 0 -357.5 -134.5t-203.5 -326.5zM639 1196l448 168l15 -59l-451 -168z" />
<glyph unicode="&#xf4;" horiz-adv-x="1212" d="M186 514q46 218 233 372t408 154q143 0 249.5 -70.5t151.5 -191.5t15 -264q-31 -145 -127.5 -267t-232.5 -192.5t-279 -70.5q-145 0 -252.5 70.5t-152 192.5t-13.5 267zM254 514q-41 -194 65 -328.5t299 -134.5q192 0 355.5 135t204.5 328q26 126 -12.5 232t-131.5 167.5 t-219 61.5q-194 0 -357.5 -134.5t-203.5 -326.5zM670 1151l20 66l189 73l159 -73l-8 -66q-5 0 -10 1t-13.5 4t-16 6.5t-22 10.5t-26 13t-35 18t-41.5 21q-23 -9 -51 -21t-42.5 -18t-32 -13t-26 -10.5t-18.5 -6.5t-15.5 -4t-10.5 -1z" />
<glyph unicode="&#xf5;" horiz-adv-x="1212" d="M186 514q46 218 233 372t408 154q143 0 249.5 -70.5t151.5 -191.5t15 -264q-31 -145 -127.5 -267t-232.5 -192.5t-279 -70.5q-145 0 -252.5 70.5t-152 192.5t-13.5 267zM254 514q-41 -194 65 -328.5t299 -134.5q192 0 355.5 135t204.5 328q26 126 -12.5 232t-131.5 167.5 t-219 61.5q-194 0 -357.5 -134.5t-203.5 -326.5zM522 1200q78 90 183 90q61 0 160.5 -34.5t156.5 -34.5q86 0 168 63l20 -24q-95 -91 -192 -91q-58 0 -163.5 35t-160.5 35q-76 0 -149 -63z" />
<glyph unicode="&#xf6;" horiz-adv-x="1212" d="M186 514q46 218 233 372t408 154q143 0 249.5 -70.5t151.5 -191.5t15 -264q-31 -145 -127.5 -267t-232.5 -192.5t-279 -70.5q-145 0 -252.5 70.5t-152 192.5t-13.5 267zM254 514q-41 -194 65 -328.5t299 -134.5q192 0 355.5 135t204.5 328q26 126 -12.5 232t-131.5 167.5 t-219 61.5q-194 0 -357.5 -134.5t-203.5 -326.5zM696 1206q3 19 18 32t34 13q20 0 30.5 -13t7.5 -32q-5 -20 -21 -33.5t-36 -13.5q-19 0 -28.5 13.5t-4.5 33.5zM938 1206q3 19 18.5 32t34.5 13t29.5 -13t7.5 -32q-4 -20 -20 -33.5t-35 -13.5t-29 13.5t-6 33.5z" />
<glyph unicode="&#xf7;" horiz-adv-x="950" d="M139 494l15 65h882l-14 -65h-883zM500 322q3 17 17.5 28.5t31.5 11.5t26.5 -11.5t6.5 -28.5t-18 -29t-32 -12t-26 12t-6 29zM586 725q3 17 17.5 29t31.5 12t26.5 -12t6.5 -29q-4 -17 -19.5 -29t-32.5 -12t-26 12t-4 29z" />
<glyph unicode="&#xf8;" horiz-adv-x="1191" d="M176 514q46 218 233 372t408 154q49 0 101 -10l47 90h67l-53 -106q148 -55 219 -190.5t35 -309.5q-31 -145 -127.5 -267t-232.5 -192.5t-279 -70.5q-63 0 -125 16l-51 -100h-72l60 118q-137 58 -201.5 193t-28.5 303zM244 514q-31 -145 23.5 -262.5t172.5 -167.5l447 883 q-36 8 -82 8q-194 0 -357.5 -134.5t-203.5 -326.5zM500 63q50 -12 108 -12q192 0 355 135t204 328q32 152 -30 271t-191 165z" />
<glyph unicode="&#xf9;" horiz-adv-x="980" d="M170 375l139 649h66l-139 -653q-29 -134 48.5 -228t213.5 -94t252 92.5t145 225.5l139 657h66l-217 -1024h-66l33 162q-73 -82 -169 -130t-198 -48q-164 0 -255.5 114t-57.5 277zM547 1305l39 59l379 -168l-41 -59z" />
<glyph unicode="&#xfa;" horiz-adv-x="980" d="M170 375l139 649h66l-139 -653q-29 -134 48.5 -228t213.5 -94t252 92.5t145 225.5l139 657h66l-217 -1024h-66l33 162q-73 -82 -169 -130t-198 -48q-164 0 -255.5 114t-57.5 277zM524 1196l449 168l14 -59l-450 -168z" />
<glyph unicode="&#xfb;" horiz-adv-x="980" d="M170 375l139 649h66l-139 -653q-29 -134 48.5 -228t213.5 -94t252 92.5t145 225.5l139 657h66l-217 -1024h-66l33 162q-73 -82 -169 -130t-198 -48q-164 0 -255.5 114t-57.5 277zM553 1151l20 66l189 73l160 -73l-9 -66q-5 0 -10 1t-13.5 4t-16 6.5t-21.5 10.5l-26 13 t-34.5 17.5t-41.5 21.5q-18 -8 -40.5 -17t-35.5 -14.5t-29 -12t-24.5 -10t-19.5 -7.5l-16.5 -6t-12 -4t-11 -2.5t-8.5 -0.5z" />
<glyph unicode="&#xfc;" horiz-adv-x="980" d="M170 375l139 649h66l-139 -653q-29 -134 48.5 -228t213.5 -94t252 92.5t145 225.5l139 657h66l-217 -1024h-66l33 162q-73 -82 -169 -130t-198 -48q-164 0 -255.5 114t-57.5 277zM580 1206q3 19 17.5 32t33.5 13q20 0 31 -13t8 -32q-4 -20 -21 -33.5t-37 -13.5 q-19 0 -28 13.5t-4 33.5zM821 1206q3 19 18.5 32t34.5 13t29.5 -13t7.5 -32q-4 -20 -20 -33.5t-35 -13.5t-29 13.5t-6 33.5z" />
<glyph unicode="&#xfd;" horiz-adv-x="892" d="M174 -422l244 424l-152 1022h78l131 -920l524 920h78l-827 -1446h-76zM479 1196l449 168l14 -59l-450 -168z" />
<glyph unicode="&#xfe;" horiz-adv-x="1214" d="M12 -410l394 1846h65l-143 -668q95 125 233 198.5t285 73.5q145 0 252.5 -70.5t152 -192.5t13.5 -267q-46 -218 -233 -372t-408 -154q-147 0 -254.5 73.5t-149.5 198.5l-141 -666h-66zM272 510q-26 -126 13.5 -232t132.5 -167.5t219 -61.5q193 0 356 134.5t203 326.5 q27 127 -12 233.5t-132.5 168t-220.5 61.5q-192 0 -355 -135t-204 -328z" />
<glyph unicode="&#xff;" horiz-adv-x="892" d="M174 -422l244 424l-152 1022h78l131 -920l524 920h78l-827 -1446h-76zM537 1206q3 19 17.5 32t33.5 13q20 0 31 -13t8 -32q-4 -20 -21 -33.5t-37 -13.5q-19 0 -28 13.5t-4 33.5zM778 1206q3 19 18.5 32t34.5 13t29.5 -13t7.5 -32q-4 -20 -20 -33.5t-35 -13.5t-29 13.5 t-6 33.5z" />
<glyph unicode="&#x152;" horiz-adv-x="2359" d="M231 520q-12 117 13 248q34 160 127 305t220.5 250t286 167t318.5 62q239 0 406.5 -129.5t212.5 -339.5l96 453h706l-14 -66h-641l-131 -614h641l-12 -65h-641l-156 -725h641l-12 -66h-707l94 453q-134 -210 -356.5 -339.5t-460.5 -129.5q-128 0 -239.5 40t-192 111 t-134 169.5t-65.5 215.5zM298 541.5q11 -106.5 61 -197t123.5 -156t175.5 -102.5t219 -37q147 0 292 57t261.5 154t201 229.5t115.5 278.5q23 121 12.5 228t-59.5 197.5t-122 155.5t-175.5 101.5t-220.5 36.5q-195 0 -380.5 -96t-318 -261.5t-174.5 -361.5 q-22 -120 -11 -226.5z" />
<glyph unicode="&#x153;" horiz-adv-x="2127" d="M186 514q46 218 233 372t408 154q170 0 286 -98.5t136 -255.5q86 157 241.5 255.5t328.5 98.5q141 0 236.5 -71t128.5 -190.5t3 -264.5l-10 -37h-932q-26 -180 82 -303t291 -123q107 0 211.5 38.5t189.5 111.5l23 -58q-202 -159 -438 -159q-173 0 -289.5 99t-136.5 257 q-89 -158 -246.5 -257t-327.5 -99q-145 0 -252.5 70.5t-152 192.5t-13.5 267zM254 514q-41 -194 65 -328.5t299 -134.5q192 0 355.5 135t204.5 328q26 126 -12.5 232t-131.5 167.5t-219 61.5q-194 0 -357.5 -134.5t-203.5 -326.5zM1260 543h868q27 187 -57.5 309.5 t-264.5 122.5q-186 0 -340 -124.5t-206 -307.5z" />
<glyph unicode="&#x178;" horiz-adv-x="954" d="M367 1536h67l178 -897l557 897h72l-612 -975l-119 -561h-66l119 561zM653 1616q3 19 18 32t34 13q20 0 30.5 -13t7.5 -32q-5 -20 -21 -33.5t-36 -13.5q-19 0 -28.5 13.5t-4.5 33.5zM895 1616q3 19 18.5 32t34.5 13t29.5 -13t7.5 -32q-4 -20 -20 -33.5t-35 -13.5t-29 13.5 t-6 33.5z" />
<glyph unicode="&#x2c6;" horiz-adv-x="565" d="M342 1151l20 66l189 73l160 -73l-9 -66q-5 0 -10 1t-13.5 4t-16 6.5t-21.5 10.5l-26 13t-34.5 17.5t-41.5 21.5q-18 -8 -40.5 -17t-35.5 -14.5t-29 -12t-24.5 -10t-19.5 -7.5l-16.5 -6t-12 -4t-11 -2.5t-8.5 -0.5z" />
<glyph unicode="&#x2dc;" horiz-adv-x="851" d="M342 1200q78 90 182 90q61 0 161 -34.5t157 -34.5q86 0 168 63l20 -24q-95 -91 -192 -91q-58 0 -163.5 35t-160.5 35q-76 0 -149 -63z" />
<glyph unicode="&#x2000;" horiz-adv-x="909" />
<glyph unicode="&#x2001;" horiz-adv-x="1819" />
<glyph unicode="&#x2002;" horiz-adv-x="909" />
<glyph unicode="&#x2003;" horiz-adv-x="1819" />
<glyph unicode="&#x2004;" horiz-adv-x="606" />
<glyph unicode="&#x2005;" horiz-adv-x="454" />
<glyph unicode="&#x2006;" horiz-adv-x="303" />
<glyph unicode="&#x2007;" horiz-adv-x="303" />
<glyph unicode="&#x2008;" horiz-adv-x="227" />
<glyph unicode="&#x2009;" horiz-adv-x="363" />
<glyph unicode="&#x200a;" horiz-adv-x="101" />
<glyph unicode="&#x2010;" horiz-adv-x="806" d="M229 580l13 65h596l-13 -65h-596z" />
<glyph unicode="&#x2011;" horiz-adv-x="806" d="M229 580l13 65h596l-13 -65h-596z" />
<glyph unicode="&#x2012;" horiz-adv-x="806" d="M229 580l13 65h596l-13 -65h-596z" />
<glyph unicode="&#x2013;" horiz-adv-x="1155" d="M213 547l14 65h959l-15 -65h-958z" />
<glyph unicode="&#x2014;" horiz-adv-x="1517" d="M213 547l14 65h1321l-14 -65h-1321z" />
<glyph unicode="&#x2018;" horiz-adv-x="206" d="M346 1153l8 188l6 189l80 12l-78 -393z" />
<glyph unicode="&#x2019;" horiz-adv-x="215" d="M322 1149l90 393l71 -12l-71 -189l-74 -188z" />
<glyph unicode="&#x201a;" horiz-adv-x="215" d="M43 -162l90 393l72 -12l-72 -188l-74 -189z" />
<glyph unicode="&#x201c;" horiz-adv-x="440" d="M383 1153l8 188l6 189l80 12l-78 -393zM573 1153l9 188l6 189l80 12l-78 -393z" />
<glyph unicode="&#x201d;" horiz-adv-x="444" d="M342 1149l90 393l72 -12l-72 -189l-74 -188zM532 1149l91 393l71 -12l-71 -189l-74 -188z" />
<glyph unicode="&#x201e;" horiz-adv-x="444" d="M63 -162l91 393l71 -12l-71 -188l-74 -189zM256 -162l90 393l72 -12l-72 -188l-74 -189z" />
<glyph unicode="&#x2022;" horiz-adv-x="393" d="M207 614q11 48 53.5 83.5t91.5 35.5q47 0 75 -36t17 -83q-10 -49 -52.5 -83.5t-90.5 -34.5q-50 0 -77 34.5t-17 83.5z" />
<glyph unicode="&#x2026;" horiz-adv-x="1124" d="M137 39q3 19 19.5 32t36.5 13q19 0 29 -13t7 -32q-4 -20 -20 -33.5t-35 -13.5q-20 0 -30.5 13.5t-6.5 33.5zM522 39q3 19 19.5 32t36.5 13q19 0 29 -13t7 -32q-4 -20 -20 -33.5t-35 -13.5q-20 0 -30.5 13.5t-6.5 33.5zM911 39q3 19 19 32t35 13q20 0 31 -13t8 -32 q-4 -20 -21 -33.5t-37 -13.5q-19 0 -29 13.5t-6 33.5z" />
<glyph unicode="&#x202f;" horiz-adv-x="363" />
<glyph unicode="&#x2039;" horiz-adv-x="438" d="M147 559l349 408l45 -39l-316 -369l158 -369l-61 -38z" />
<glyph unicode="&#x203a;" horiz-adv-x="438" d="M68 190l317 369l-160 369l62 39l176 -408l-350 -407z" />
<glyph unicode="&#x205f;" horiz-adv-x="454" />
<glyph unicode="&#x20ac;" horiz-adv-x="1155" d="M199 625l14 65h111l30 146h-110l14 65h111l43 203q37 176 198 310t348 134q183 0 287.5 -118t71.5 -297l-66 -5v9q29 149 -62 247.5t-245 98.5q-106 0 -206.5 -53.5t-169.5 -140.5t-89 -185l-43 -203h670l-14 -65h-670l-31 -146h670l-14 -65h-670l-41 -197 q-31 -149 59.5 -264t245.5 -115q157 0 289.5 99t165.5 251h65q-38 -177 -194 -294t-340 -117q-74 0 -139.5 24t-111 66t-76.5 98t-38 121t6 135l41 193h-110z" />
<glyph unicode="&#x2122;" horiz-adv-x="1288" d="M350 1501l8 33h490l-8 -33h-230l-155 -735h-33l156 735h-228zM756 766l164 768h28l133 -711l439 711h28l-164 -768h-32l145 680l-416 -680h-22l-125 680l-146 -680h-32z" />
<glyph unicode="&#xe000;" horiz-adv-x="1024" d="M0 0v1024h1024v-1024h-1024z" />
<glyph unicode="&#xfb01;" horiz-adv-x="868" d="M281 0l202 958h-155l14 66h156l49 236q18 82 73 128t128 46h112l-14 -66h-113q-46 0 -78.5 -28.5t-42.5 -79.5l-49 -236h271l-15 -66h-270l-203 -958h-65zM735 0l217 1026h66l-217 -1026h-66zM973 1194q5 19 21 32t36 13q19 0 29 -13t6 -32q-3 -20 -18.5 -33.5 t-34.5 -13.5q-20 0 -31 13.5t-8 33.5z" />
<glyph unicode="&#xfb02;" horiz-adv-x="978" d="M281 0l202 958h-155l14 66h156l49 236q18 82 73 128t128 46h112l-14 -66h-113q-46 0 -78.5 -28.5t-42.5 -79.5l-49 -236h271l-15 -66h-270l-203 -958h-65zM827 0l303 1434h66l-303 -1434h-66z" />
</font>
</defs>
</svg>
