<?xml version="1.0" standalone="no"?>
<!DOCTYPE svg PUBLIC "-//W3C//DTD SVG 1.1//EN" "http://www.w3.org/Graphics/SVG/1.1/DTD/svg11.dtd" >
<svg xmlns="http://www.w3.org/2000/svg">
<metadata></metadata>
<defs>
<font id="nanamibold_oblique" horiz-adv-x="1228" >
<font-face units-per-em="2048" ascent="1536" descent="-512" />
<missing-glyph horiz-adv-x="593" />
<glyph horiz-adv-x="2048" />
<glyph horiz-adv-x="2048" />
<glyph unicode="&#xd;" horiz-adv-x="2048" />
<glyph unicode=" "  horiz-adv-x="593" />
<glyph unicode="&#x09;" horiz-adv-x="593" />
<glyph unicode="&#xa0;" horiz-adv-x="593" />
<glyph unicode="!" horiz-adv-x="462" d="M100 150q13 65 69.5 111t119.5 46q67 0 104 -45.5t23 -111.5q-12 -62 -69 -110t-124 -48q-62 0 -98.5 48t-24.5 110zM141 330l252 1183h314l-252 -1183h-314z" />
<glyph unicode="&#x22;" horiz-adv-x="843" d="M289 901l131 612h268l-131 -612h-268zM647 901l131 612h271l-131 -612h-271z" />
<glyph unicode="#" horiz-adv-x="1441" d="M178 397l49 234h291l64 176h-258l51 235h291l143 406h235l-143 -406h139l144 406h235l-141 -406h260l-51 -235h-295l-62 -176h261l-50 -234h-292l-142 -397h-231l135 397h-137l-142 -397h-233l137 397h-258zM758 631h137l61 176h-137z" />
<glyph unicode="$" horiz-adv-x="1095" d="M162 336l305 49l10 -29q18 -47 119 -47q53 0 94.5 36.5t52.5 88.5q5 22 6 41t-3.5 34.5t-9.5 27t-17.5 22t-22 17.5t-28 15.5t-30.5 13.5t-34 13q-2 1 -3 1t-2.5 1t-2.5 1q-152 52 -231.5 169t-45.5 275q37 174 147 290.5t271 151.5l39 189h268l-40 -195 q177 -66 196 -256l-321 -139l-11 47q-6 21 -31.5 32t-54.5 11q-43 0 -83.5 -37t-49.5 -82q-6 -30 3.5 -54.5t33.5 -43.5t44 -30t52 -25l25 -11q70 -35 118.5 -68.5t85.5 -76t52.5 -90t19.5 -109.5t-14 -135q-32 -145 -139.5 -263t-243.5 -163l-39 -188h-268l37 178 q-134 27 -208.5 113t-45.5 225z" />
<glyph unicode="%" horiz-adv-x="1873" d="M344 1137q34 155 168 265.5t289 110.5t241 -110.5t52 -265.5q-32 -155 -165 -265t-288 -110t-242 110t-55 265zM471 63l1061 1465l143 -80q-483 -667 -893 -1235q-173 -240 -178 -244zM584 1137q-11 -56 20 -94.5t88 -38.5q56 0 104 39t58 94q12 57 -19 96t-87 39 q-57 0 -104.5 -39t-59.5 -96zM1055 375q34 155 166.5 265t287.5 110t242 -110t53 -265q-32 -155 -164.5 -265t-287.5 -110t-242 110t-55 265zM1294 375q-11 -56 20.5 -95.5t86.5 -39.5q57 0 105 39.5t59 95.5q12 56 -19 95.5t-88 39.5q-55 0 -103.5 -39.5t-60.5 -95.5z" />
<glyph unicode="&#x26;" horiz-adv-x="1480" d="M156 449q55 252 321 413q-108 116 -67 295q32 151 169.5 261t292.5 110q153 0 238 -109t53 -262q-42 -188 -250 -323q16 -20 46.5 -54.5t46.5 -54.5l225 307l244 -135q-163 -217 -250 -338l-37 -49l258 -293l-250 -227l-170 192l-41 47q-85 -115 -205 -180t-248 -65 q-198 0 -307.5 135t-68.5 330zM459 455q-15 -70 23.5 -120t109.5 -50q32 0 63.5 16t62 47.5t44 48t37.5 47.5l-68 84l-108 121q-60 -33 -105.5 -83t-58.5 -111zM709 1147q-6 -27 5.5 -57.5t25 -47t16.5 -16.5q4 3 25 19.5t34 27.5t27.5 32t19.5 42q6 31 -12 53.5t-49 22.5 q-32 0 -59 -22.5t-33 -53.5z" />
<glyph unicode="'" horiz-adv-x="462" d="M283 901l131 612h268l-131 -612h-268z" />
<glyph unicode="(" horiz-adv-x="702" d="M166 354l153 717q70 329 377 531l158 -226q-113 -93 -154 -166t-69 -206l-125 -582q-30 -119 -18.5 -199.5t85.5 -173.5l-256 -227q-221 205 -151 532z" />
<glyph unicode=")" horiz-adv-x="702" d="M133 49q112 93 153.5 166t69.5 207l125 582q30 120 18.5 199.5t-85.5 172.5l258 226q218 -208 149 -531l-153 -717q-69 -327 -375 -532z" />
<glyph unicode="*" horiz-adv-x="903" d="M262 926l57 274l242 -92l-221 123l231 190l72 -247l-33 264h275l-148 -262l174 247l150 -192l-277 -123l287 90l-59 -274l-244 92l221 -123l-227 -188l-76 247l37 -266h-274l147 264l-176 -248l-150 189l275 127z" />
<glyph unicode="+" d="M170 387l57 270h377l78 369h270l-78 -369h375l-57 -270h-375l-80 -371h-270l80 371h-377z" />
<glyph unicode="," horiz-adv-x="460" d="M115 231l278 54l-51 -414l-201 -23z" />
<glyph unicode="-" horiz-adv-x="878" d="M190 449l58 270h665l-57 -270h-666z" />
<glyph unicode="." horiz-adv-x="464" d="M115 125q13 56 62 99.5t110 43.5q56 0 85 -43.5t17 -99.5q-11 -56 -57 -94.5t-103 -38.5q-62 0 -93.5 38t-20.5 95z" />
<glyph unicode="/" horiz-adv-x="735" d="M57 4l760 1526l156 -37l-752 -1509z" />
<glyph unicode="0" d="M184 506l107 500q29 138 124 258t231.5 192t277.5 72t246.5 -72t149.5 -192t15 -258l-106 -500q-29 -136 -124 -256.5t-231.5 -193t-277.5 -72.5t-247 72.5t-150 193t-15 256.5zM510 510q-15 -79 31 -138t125 -59q81 0 151.5 59t85.5 138l107 494q15 78 -30.5 137 t-125.5 59q-79 0 -151 -59.5t-87 -136.5z" />
<glyph unicode="1" d="M518 0l254 1204h-233l67 312h559l-321 -1516h-326z" />
<glyph unicode="2" d="M139 0l60 270l581 508q121 101 168.5 159t59.5 118q15 71 -18.5 109t-104.5 38q-72 0 -143 -39t-126 -94l-163 223q243 236 522 236q194 0 300.5 -133.5t65.5 -329.5q-49 -232 -335 -463l-340 -283h520l-68 -319h-979z" />
<glyph unicode="3" d="M186 205l222 274q114 -162 229 -162q92 0 157 50t83 129q14 65 -45 125.5t-152 64.5l-123 6l53 252l58 6q97 10 161 53.5t76 104.5q12 51 -15.5 83t-82.5 32q-87 0 -223 -107l-88 262q208 164 417 164q120 0 201.5 -55t111 -142.5t7.5 -189.5q-35 -165 -182 -281 q199 -145 143 -409q-30 -140 -121.5 -250.5t-217.5 -169.5t-263 -59q-133 0 -236 58t-170 161z" />
<glyph unicode="4" d="M129 236l66 305l399 477q395 477 414 493h321l-203 -954h136l-70 -330h-135l-47 -227h-328l49 236h-602zM559 543h238q69 331 90 415z" />
<glyph unicode="5" d="M156 303l321 135q17 -60 63 -94.5t109 -34.5q91 0 163.5 60.5t92.5 152.5q19 91 -28 151t-138 60q-88 0 -192 -49q-36 -17 -86 -47l-154 188l285 688h735l-70 -323h-514l-59 -143q58 12 123 12q146 0 254.5 -72t154.5 -195.5t15 -269.5t-129 -270t-237 -196t-285 -72 q-158 0 -272 86t-152 233z" />
<glyph unicode="6" d="M168 528q32 154 133 273l625 745l239 -174l-280 -328q201 -25 306.5 -167.5t61.5 -348.5q-23 -111 -87 -211.5t-151.5 -173.5t-197 -116t-221.5 -43q-149 0 -258.5 72.5t-155 198t-14.5 273.5zM494 528q-20 -94 29 -155.5t143 -61.5q92 0 167 61.5t95 155.5 q20 92 -29 154.5t-141 62.5q-93 0 -168.5 -62t-95.5 -155z" />
<glyph unicode="7" d="M221 100q147 224 267.5 412.5t192 303t120 194t76 125t34.5 57.5h-505l69 321h901l-47 -221l-837 -1323z" />
<glyph unicode="8" d="M195 291.5q-22 92.5 2 197.5q22 95 92 189t157 166q-75 131 -51 246q25 119 105.5 219.5t193.5 158.5t230 58q179 0 280.5 -127.5t63.5 -308.5q-14 -66 -54.5 -124.5t-105.5 -121.5q62 -67 92 -160t8 -195q-29 -138 -121 -255t-223 -184.5t-268 -67.5q-103 0 -188.5 39.5 t-138 108.5t-74.5 161.5zM520 489q-15 -75 27 -128.5t117 -53.5t139.5 53.5t79.5 128.5q17 73 -25 126t-117 53t-139.5 -52.5t-81.5 -126.5zM719 1090q-10 -44 17 -78.5t71 -34.5q46 0 86 34t51 79q9 47 -17 79.5t-73 32.5q-45 0 -85.5 -33t-49.5 -79z" />
<glyph unicode="9" d="M264 979q33 149 131 274t238 197t289 72t259 -72t155.5 -197t13.5 -274q-32 -154 -131 -274l-625 -736l-238 176l277 314q-202 30 -307 170.5t-62 349.5zM590 979q-20 -92 29.5 -154.5t142.5 -62.5t167.5 62t94.5 155q20 94 -28 155.5t-142 61.5q-93 0 -168.5 -62 t-95.5 -155z" />
<glyph unicode=":" horiz-adv-x="468" d="M117 125q13 56 62 99.5t110 43.5q56 0 85 -43.5t17 -99.5q-11 -56 -57 -94.5t-103 -38.5q-62 0 -93.5 38t-20.5 95zM264 811q12 63 60.5 103t111.5 40q57 0 86 -40t17 -103q-12 -56 -58.5 -94.5t-103.5 -38.5q-62 0 -93.5 38.5t-19.5 94.5z" />
<glyph unicode=";" horiz-adv-x="462" d="M115 231l278 54l-51 -414l-201 -23zM260 815q12 59 59.5 100t102.5 41q61 0 91.5 -40t18.5 -101q-11 -55 -60 -94t-110 -39q-54 0 -83.5 39t-18.5 94z" />
<glyph unicode="&#x3c;" horiz-adv-x="1372" d="M193 418l40 198l1176 447l-49 -225l-844 -330q52 -18 707 -313l-47 -224z" />
<glyph unicode="=" horiz-adv-x="1169" d="M147 227l58 269h940l-58 -269h-940zM217 555l57 270h940l-57 -270h-940z" />
<glyph unicode="&#x3e;" horiz-adv-x="1370" d="M98 -29l47 224q725 277 838 311l-704 332l49 225l985 -447l-41 -198z" />
<glyph unicode="?" horiz-adv-x="921" d="M274 150q13 65 70.5 111t120.5 46q66 0 102 -45.5t23 -111.5q-15 -65 -70 -111.5t-121 -46.5q-61 0 -99 48t-26 110zM299 1264q67 67 154 131q189 133 329 133q178 0 260 -96t43 -283q-17 -79 -48 -142t-68.5 -104t-79 -75t-82 -62.5t-75 -57t-61 -67.5t-36.5 -86 q-17 -83 -8 -145q0 -41 8 -72l-324 -2q-2 25 -2 80q0 88 19 188q17 82 64.5 154t103 121.5t109.5 92.5t94.5 85t48.5 80q15 69 -43 69q-55 0 -154 -76q-26 -19 -90 -75z" />
<glyph unicode="@" horiz-adv-x="1863" d="M244.5 452q-20.5 115 9.5 257q49 231 210 420t386 294t465 105q108 0 206 -25t180.5 -75t137.5 -124t75.5 -173t-5.5 -222q-22 -105 -80.5 -207.5t-140 -184.5t-187 -132.5t-213.5 -50.5q-159 0 -170 110q-122 -110 -264 -110q-140 0 -198 80.5t-27 228.5 q45 212 198.5 354t327.5 142q80 0 123.5 -21t64.5 -74l48 68h180l-242 -522q-14 -20 -20 -43q-3 -18 8.5 -30.5t36.5 -12.5q71 0 148 58.5t136 152.5t80 194q42 196 -80 315t-372 119q-183 0 -358 -84t-301.5 -234t-164.5 -331q-24 -112 3 -210.5t95 -167.5t174 -108.5 t234 -39.5q321 0 559 149l60 -114q-331 -219 -647 -219q-126 0 -239 30t-204.5 89t-151.5 146.5t-80.5 202.5zM836 643q-15 -75 7 -115.5t81 -40.5q62 0 127 52t106 137l64 139q8 17 16 51q13 60 -15 91.5t-79 31.5q-96 0 -186 -102t-121 -244z" />
<glyph unicode="A" horiz-adv-x="1536" d="M20 0l934 1532h248l289 -1532h-352l-64 276h-528l-172 -276h-355zM735 588h285l-64 360z" />
<glyph unicode="B" horiz-adv-x="1169" d="M98 0l324 1532h459q8 0 10 -2q169 -17 259 -137q64 -86 64 -195q0 -44 -10 -92q-32 -145 -131 -256q61 -70 85 -164q12 -48 12 -99q0 -49 -11 -102q-28 -130 -114.5 -240.5t-209 -176t-253.5 -68.5h-484zM500 330h141q65 0 120.5 50t69.5 118q4 19 4 37q-1 45 -25 79 q-34 48 -99 48h-142zM631 952h108q52 4 91.5 41.5t50.5 87.5q3 14 3 27q0 32 -20 58q-28 36 -82 36h-98z" />
<glyph unicode="C" horiz-adv-x="1460" d="M245 518q-4 38 -4 77q0 82 17 171q34 160 126.5 305t219 249.5t284.5 166t318 61.5q103 0 192.5 -23.5t145.5 -59t84 -59t43 -42.5l-256 -260q-115 112 -276 115q-128 -5 -244.5 -65t-198.5 -162t-108 -226q-10 -48 -11 -93q0 -68 24 -131q39 -104 128.5 -165t206.5 -62 q173 0 336 115l145 -262q-22 -18 -60.5 -41.5t-110 -59.5t-171 -59.5t-201.5 -23.5q-128 0 -239.5 39.5t-191.5 110.5t-133 169t-65 215z" />
<glyph unicode="D" horiz-adv-x="1503" d="M102 0l324 1532h510q126 0 235.5 -39.5t188.5 -109.5t131.5 -166t64.5 -210q4 -38 4 -77q0 -79 -16 -164q-33 -155 -124 -296.5t-215.5 -244.5t-280 -164t-312.5 -61h-510zM502 330h180q193 0 342 121.5t190 314.5q13 60 13 113q0 119 -64 202q-92 121 -284 121h-193z " />
<glyph unicode="E" horiz-adv-x="1079" d="M98 0l324 1532h862l-70 -330h-532l-57 -268h532l-70 -330h-532l-57 -274h532l-69 -330h-863z" />
<glyph unicode="F" horiz-adv-x="1064" d="M98 0l324 1532h864l-69 -330h-535l-57 -268h534l-69 -330h-535l-127 -604h-330z" />
<glyph unicode="G" horiz-adv-x="1638" d="M247 518q-4 38 -4 77q0 82 17 171q34 160 126.5 305t219 249.5t284.5 166t318 61.5q84 0 161 -17.5t124.5 -38t92 -52t59 -45.5t30.5 -31l-258 -260q-115 115 -278 115q-185 0 -346 -133t-201 -320q-10 -49 -10 -95q0 -68 22 -130q39 -104 130 -165t212 -61q102 0 187 31 t131 80l20 100h-338l66 312h678l-109 -521q-39 -48 -84 -91.5t-111.5 -89t-139.5 -78t-169 -53.5t-200 -21q-128 0 -239.5 39.5t-191.5 110.5t-133.5 169t-65.5 215z" />
<glyph unicode="H" horiz-adv-x="1343" d="M100 0l324 1532h330l-127 -598h460l127 598h330l-323 -1532h-330l127 604h-461l-127 -604h-330z" />
<glyph unicode="I" horiz-adv-x="526" d="M94 0l324 1532h330l-324 -1532h-330z" />
<glyph unicode="J" horiz-adv-x="964" d="M92 219l322 174q3 -39 27.5 -59.5t56.5 -20.5q41 0 77.5 31t45.5 74l235 1114h330l-236 -1114q-38 -181 -190.5 -307.5t-331.5 -126.5q-121 0 -210 63t-126 172z" />
<glyph unicode="K" horiz-adv-x="1193" d="M100 0l324 1532h330q-110 -520 -136 -606l506 606h377l-631 -768l316 -764h-387l-230 657l-139 -657h-330z" />
<glyph unicode="L" horiz-adv-x="1024" d="M98 0l326 1534h330l-256 -1204h497l-69 -330h-828z" />
<glyph unicode="M" horiz-adv-x="1789" d="M104 0l324 1532h412l153 -991l572 991h417l-323 -1532h-328l209 983q-54 -154 -539 -983h-247l-127 874l-185 -874h-338z" />
<glyph unicode="N" horiz-adv-x="1456" d="M100 0l324 1532h303l428 -885l186 883h314l-324 -1530h-301l-428 887l-188 -887h-314z" />
<glyph unicode="O" horiz-adv-x="1794" d="M249 518q-4 38 -4 77q0 82 17 171q34 160 126.5 305t219 249.5t284.5 166t318 61.5q106 0 202 -28t170.5 -78.5t132.5 -121.5t89 -158q32 -87 40 -187q2 -25 1 -51q0 -76 -18 -158q-34 -160 -126.5 -305t-219.5 -249.5t-285 -166t-317 -61.5q-128 0 -239.5 39.5 t-191.5 110.5t-133.5 169t-65.5 215zM592 766q-10 -49 -11 -95q-1 -68 23 -130q38 -104 130 -165t214 -61q124 0 240.5 61t198.5 165t108 225q11 53 11 101q0 123 -74 219q-103 132 -291 133q-186 0 -347.5 -133t-201.5 -320z" />
<glyph unicode="P" horiz-adv-x="1138" d="M100 0l324 1532h479q199 0 299 -134q70 -94 71 -222q0 -54 -13 -113q-43 -201 -201.5 -340t-356.5 -139h-149l-123 -584h-330zM625 915h149q64 0 104 47.5t52 100.5q2 17 2 35q0 12 -1 24q-2 31 -27.5 55.5t-69.5 24.5h-150z" />
<glyph unicode="Q" horiz-adv-x="1794" d="M249 518q-4 38 -4 77q0 82 17 171q34 160 126.5 305t219 249.5t284.5 166t318 61.5q106 0 202 -28t170.5 -78.5t132.5 -121.5t89 -158t40 -187q2 -25 2 -51q0 -77 -19 -158q-55 -257 -252 -463l94 -110l-280 -213q-23 0 -107 106q-199 -102 -403 -102q-128 0 -239.5 39.5 t-191.5 110.5t-133.5 169t-65.5 215zM592 766q-10 -49 -10 -95q0 -68 22 -130q39 -104 130.5 -165t213.5 -61q71 0 148 23l-62 76l-33 45l279 223l106 -139q81 97 109 223q11 53 11 101q0 124 -74 219q-103 133 -291 133q-186 0 -347.5 -133t-201.5 -320z" />
<glyph unicode="R" horiz-adv-x="1208" d="M98 0l324 1532h502q134 0 229.5 -64t132.5 -174q21 -63 22 -134q0 -52 -12 -107q-63 -291 -335 -418l231 -635h-377l-217 598h-41l-127 -598h-332zM621 901h170q69 0 115 45t59 107q4 18 4 35q1 38 -19 69q-28 45 -96 45h-170z" />
<glyph unicode="S" horiz-adv-x="1103" d="M158 334l291 115q22 -64 57 -100t98 -36q53 0 96 37.5t54 89.5q9 36 4.5 62.5t-14.5 44.5t-30.5 31.5t-43 24t-52.5 21.5q-9 3 -14 5q-154 53 -234 171q-55 82 -55 185q0 45 11 94q44 211 195 338t360 127q124 0 223 -75t113 -207l-324 -142q-31 92 -100 92 q-44 0 -85.5 -36.5t-50.5 -83.5q-2 -10 -3 -20q0 -79 141 -136l24 -10q70 -34 119.5 -68.5t86.5 -77t53 -91.5t20 -112q1 -10 0 -21q0 -54 -15 -116q-40 -191 -196 -323.5t-342 -132.5h-17q-222 0 -317 174q-44 77 -53 176z" />
<glyph unicode="T" horiz-adv-x="1193" d="M344 1202l70 330h993l-70 -328h-333l-254 -1204h-330l254 1202h-330z" />
<glyph unicode="U" horiz-adv-x="1243" d="M193 446l229 1084h330l-222 -1045q-4 -17 -3 -33q0 -49 37 -84q50 -46 120 -46q73 0 135.5 45t75.5 110l223 1053h330l-229 -1084q-28 -130 -124 -236t-224.5 -163t-258.5 -57q-99 0 -185 34t-145 93q-58 59 -84 145q-14 47 -14 98q0 42 9 86z" />
<glyph unicode="V" horiz-adv-x="1413" d="M354 1532h355l108 -944l514 944h357l-871 -1532h-248z" />
<glyph unicode="W" horiz-adv-x="1912" d="M391 1532h346q8 -187 15.5 -369t11 -275t6.5 -136l367 780h262q28 -567 31 -748l2 -30l360 778h348l-737 -1532h-266q-13 270 -13 470q0 15 -1 31q0 175 6 247q6 78 14 110l-402 -858h-262z" />
<glyph unicode="X" horiz-adv-x="1347" d="M-6 0l635 764q-2 0 -2 2v4l-305 764h385l184 -457l377 455h389l-639 -768l315 -764h-389l-184 455l-383 -455h-383z" />
<glyph unicode="Y" horiz-adv-x="1216" d="M330 1532h364l107 -569l350 567h360l-630 -977l-117 -553h-330l117 553z" />
<glyph unicode="Z" horiz-adv-x="1200" d="M96 0l51 248l793 954h-590l70 330h983l-51 -244l-791 -960q2 2 8 2h580l-70 -330h-983z" />
<glyph unicode="[" horiz-adv-x="727" d="M35 -287l409 1929h525l-60 -282h-198l-291 -1366h198l-59 -281h-524z" />
<glyph unicode="\" horiz-adv-x="737" d="M375 1491l172 49l117 -1517l-172 -46z" />
<glyph unicode="]" horiz-adv-x="727" d="M35 -287l59 281h197l291 1366h-197l59 282h521l-410 -1929h-520z" />
<glyph unicode="^" horiz-adv-x="1146" d="M160 690l628 823h187l276 -823h-288l-158 465l-352 -465h-293z" />
<glyph unicode="_" horiz-adv-x="1372" d="M-63 -264l38 186h1354l-39 -186h-1353z" />
<glyph unicode="`" horiz-adv-x="694" d="M354 1300l170 252l371 -174l-195 -231z" />
<glyph unicode="a" horiz-adv-x="1202" d="M150 512q30 142 125.5 263.5t231.5 193t279 71.5q135 0 230 -59l10 43h289l-221 -1034h-267l15 65q-136 -71 -279 -71t-249 72q-106 70 -150 192q-26 72 -26 152q0 54 12 112zM461 512q-6 -27 -6 -51q1 -59 35 -105q48 -64 139 -63q93 0 168.5 63t95.5 156q5 26 5 50 q0 61 -35 106q-49 63 -142 63q-91 0 -166 -63.5t-94 -155.5z" />
<glyph unicode="b" horiz-adv-x="1232" d="M76 -6l303 1423h313l-92 -426q117 49 229 49q142 0 249 -71t153 -193q28 -74 28 -155q0 -53 -12 -109q-30 -142 -127.5 -264t-234.5 -193t-279 -71q-135 0 -252 69l-12 -59h-266zM502 512q-6 -27 -6 -51q0 -59 35 -105q49 -64 141 -63q91 0 167.5 63.5t96.5 155.5 q5 25 5 49q0 61 -36 107q-50 64 -141 63q-92 0 -167.5 -63.5t-94.5 -155.5z" />
<glyph unicode="c" horiz-adv-x="1126" d="M166 514q46 218 233 372t408 154q131 0 238 -72t155 -180l-264 -170l-35 37q-65 72 -156 72q-90 0 -165.5 -62.5t-94.5 -150.5q-6 -26 -6 -50q-1 -58 35 -102q50 -62 141 -63q58 0 112 32.5t118 100.5l245 -137q-105 -141 -250.5 -226t-295.5 -85q-145 0 -252.5 70.5 t-151.5 192.5q-26 72 -27 152q0 55 13 115z" />
<glyph unicode="d" horiz-adv-x="1241" d="M186 512q30 142 127 264t233.5 193t278.5 71q119 0 209 -49l90 424h314l-301 -1421h-269l13 59q-142 -69 -279 -69q-142 0 -248 71t-152 193q-27 74 -28 154q0 54 12 110zM498 512q-6 -26 -6 -51q0 -61 36 -105q50 -64 140 -63q92 0 168 63t96 156q5 26 5 49 q1 61 -35 107q-50 64 -142 63q-91 0 -167 -63.5t-95 -155.5z" />
<glyph unicode="e" horiz-adv-x="1091" d="M152 514q46 218 232 371t404 153q77 0 139.5 -21t104 -58.5t69.5 -86.5q27 -48 39 -106q11 -53 11 -108v-10q-1 -60 -14 -120q-7 -39 -35 -122h-627q5 -59 51 -93t129 -34q130 0 283 67l51 -246q-117 -68 -214.5 -92t-205.5 -24q-145 0 -252 70.5t-151 192.5 q-26 72 -27 152q0 55 13 115zM526 641h320v6q0 35 -32 63q-35 30 -103 29q-59 0 -109 -29.5t-76 -68.5z" />
<glyph unicode="f" horiz-adv-x="833" d="M178 0l156 739h-133l61 285h133l19 90q31 144 122.5 224.5t231.5 80.5h217l-59 -278h-109q-44 0 -66.5 -14.5t-31.5 -53.5l-10 -49h262l-62 -285h-262l-155 -739h-314z" />
<glyph unicode="g" horiz-adv-x="1245" d="M129 -281l240 211q88 -84 180 -84q84 0 159.5 51.5t114.5 131.5q-113 -45 -221 -45q-142 0 -248.5 71t-151.5 193q-28 74 -28 154q0 54 12 110q30 142 127 264t233.5 193t278.5 71q139 0 250 -69l12 59h269l-191 -903q-33 -152 -135.5 -282.5t-249.5 -207.5t-301 -77 q-102 0 -194 42.5t-156 116.5zM498 512q-6 -26 -6 -51q0 -59 36 -105q49 -63 140 -63q92 0 168 63t96 156q5 26 5 49q0 61 -35 107q-50 63 -142 63q-91 0 -167 -63.5t-95 -155.5z" />
<glyph unicode="h" horiz-adv-x="1095" d="M78 0l301 1417h311l-86 -401q76 24 150 24q218 0 313 -118q64 -80 64 -206q0 -61 -15 -132l-123 -584h-313l123 580q3 16 3 31q0 41 -24 73q-34 43 -94 43q-61 0 -113.5 -43t-64.5 -104l-123 -580h-309z" />
<glyph unicode="i" horiz-adv-x="462" d="M70 0l217 1024h313l-217 -1024h-313zM328 1217q12 62 68.5 108.5t121.5 46.5q61 0 99 -48q29 -36 29 -79q0 -14 -3 -28q-15 -66 -72 -113t-120 -47q-65 0 -101 47q-25 34 -26 77q0 17 4 36z" />
<glyph unicode="j" horiz-adv-x="462" d="M-111 -381l66 311h98l234 1094h313l-246 -1155q-14 -65 -45.5 -115t-72.5 -78.5t-84 -42.5t-86 -14h-177zM328 1217q12 62 68.5 108.5t121.5 46.5q60 0 98 -48q28 -35 28 -79q0 -13 -3 -28q-15 -66 -72 -113t-118 -47q-66 0 -101 47q-26 34 -26 77q0 17 4 36z" />
<glyph unicode="k" horiz-adv-x="958" d="M76 0l321 1516h314l-181 -844l297 352h344l-428 -510l218 -514h-353q-142 342 -145 350l-74 -350h-313z" />
<glyph unicode="l" horiz-adv-x="462" d="M70 0l299 1415h313l-299 -1415h-313z" />
<glyph unicode="m" horiz-adv-x="1728" d="M82 0l217 1028h254l-8 -39q89 51 215 51q181 0 284 -90q151 90 322 90q218 0 314 -118q64 -80 64 -206q0 -61 -15 -132l-123 -584h-312l123 580q3 16 3 30q0 42 -26 74q-34 43 -94 43q-57 0 -107 -38.5t-67 -98.5l-125 -590h-313l123 580q3 16 3 31q0 41 -25 73 q-34 42 -95 43q-57 0 -107 -38.5t-67 -98.5l-125 -590h-313z" />
<glyph unicode="n" horiz-adv-x="1091" d="M76 0l217 1028h254l-8 -39q86 51 215 51q218 0 313 -118q64 -80 64 -206q0 -61 -15 -132l-123 -584h-313l123 580q3 16 3 31q0 41 -24 73q-34 43 -94 43q-58 0 -108.5 -39t-67.5 -98l-125 -590h-311z" />
<glyph unicode="o" horiz-adv-x="1191" d="M168 514q30 143 125.5 264t232 191.5t281.5 70.5q143 0 249.5 -70.5t151.5 -191.5q27 -73 27 -153q0 -54 -12 -111q-31 -145 -127.5 -267t-232.5 -192.5t-279 -70.5q-145 0 -252 70.5t-151 192.5q-26 72 -26 151q0 56 13 116zM481 514q-6 -26 -6 -50q-1 -58 35 -102 q50 -62 141 -63q88 0 163 62t95 153q5 24 5 47q0 57 -36 103q-50 62 -137 63q-90 0 -165.5 -62.5t-94.5 -150.5z" />
<glyph unicode="p" horiz-adv-x="1230" d="M-6 -401l301 1431h266l-12 -59q145 69 280 69q142 0 249 -71t153 -193q28 -74 28 -155q0 -53 -12 -109q-30 -142 -127.5 -264t-234.5 -193t-279 -71q-116 0 -209 49l-92 -434h-311zM502 512q-6 -27 -6 -51q0 -59 35 -105q49 -63 141 -63q91 0 167.5 63.5t96.5 155.5 q5 25 5 49q0 60 -36 107q-50 63 -141 63q-92 0 -167.5 -63.5t-94.5 -155.5z" />
<glyph unicode="q" horiz-adv-x="1241" d="M186 512q30 142 127 264t233.5 193t278.5 71q139 0 250 -69l12 59h269l-303 -1431h-314l92 434q-114 -49 -229 -49q-142 0 -248.5 71t-151.5 193q-28 74 -28 154q0 54 12 110zM498 512q-6 -26 -6 -51q0 -59 36 -105q49 -63 140 -63q92 0 168 63t96 156q5 26 5 49 q0 61 -35 107q-50 63 -142 63q-91 0 -167 -63.5t-95 -155.5z" />
<glyph unicode="r" horiz-adv-x="757" d="M72 0l217 1028h254l-8 -39q89 51 215 51h161l-65 -315h-162q-61 0 -111.5 -38.5t-62.5 -94.5l-125 -592h-313z" />
<glyph unicode="s" horiz-adv-x="735" d="M84 229l242 129q5 -17 20 -36q29 -37 60 -37q11 0 23 10.5t15 23.5q6 29 -13 53t-51 40.5t-69 41.5t-66 56.5t-42 84.5q-6 25 -6 54q0 33 8 72q32 147 134.5 233t248.5 86q103 0 163.5 -73t77.5 -181l-247 -118q-6 73 -52 73q-11 0 -21 -8.5t-13 -21.5q-4 -20 16 -40.5 t52 -39t67.5 -47t63.5 -65t40 -92.5q5 -24 5 -51q0 -36 -9 -79q-28 -131 -136 -222t-235 -91q-155 0 -227 122q-37 52 -49 123z" />
<glyph unicode="t" horiz-adv-x="884" d="M207 739l61 285h232l59 281h311l-59 -281h225l-61 -285h-225l-156 -739h-311l155 739h-231z" />
<glyph unicode="u" horiz-adv-x="1095" d="M168 440l125 584h311l-123 -580q-4 -17 -4 -32q0 -41 25 -72q34 -43 94 -43q57 0 107 38.5t69 98.5l125 590h313l-219 -1030h-254l8 41q-89 -51 -215 -51q-218 0 -313 118q-64 80 -64 206q0 61 15 132z" />
<glyph unicode="v" horiz-adv-x="978" d="M221 1024h334l39 -479l242 479h335l-573 -1024h-238z" />
<glyph unicode="w" horiz-adv-x="1476" d="M225 1024h330q2 -102 5.5 -221.5t5 -184.5t1.5 -102l248 506h244l39 -494q110 245 219 496h328l-492 -1024h-260l-72 496q-33 -56 -99 -176.5t-118.5 -216.5t-56.5 -103h-262z" />
<glyph unicode="x" horiz-adv-x="1054" d="M6 0l434 512l-211 512h371l78 -252l184 252h371l-426 -512l219 -512h-379l-80 254l-184 -254h-377z" />
<glyph unicode="y" horiz-adv-x="976" d="M43 -406l293 521l4 18l-119 891h336l37 -479l242 479h329l-790 -1430h-332z" />
<glyph unicode="z" horiz-adv-x="874" d="M63 0l50 240l436 475h-334l66 309h729l-47 -223l-445 -490h340l-65 -311h-730z" />
<glyph unicode="{" horiz-adv-x="792" d="M215 573l49 232q104 7 161.5 64t82.5 175l53 248q15 73 30 121.5t39.5 94t57 72.5t81 47.5t114 29t153.5 8.5l-43 -213q-91 -7 -128 -48t-60 -144l-53 -252q-30 -136 -80 -210t-152 -110q87 -39 106.5 -117t-10.5 -204l-53 -250q-25 -98 -3.5 -142t110.5 -51l-47 -213 q-174 0 -252 37t-88.5 120t20.5 216l53 248q25 118 -7.5 174.5t-133.5 66.5z" />
<glyph unicode="|" horiz-adv-x="466" d="M94 0l322 1513h268l-322 -1513h-268z" />
<glyph unicode="}" horiz-adv-x="802" d="M35 -289l43 213q92 7 128.5 48t59.5 145l53 250q28 135 77 208.5t153 112.5q-88 36 -107 115t13 205l53 252q25 96 4.5 140.5t-109.5 51.5l46 213q174 0 251.5 -37t87.5 -120t-20 -216l-53 -248q-25 -118 8 -175t133 -64l-49 -232q-104 -11 -161.5 -67.5t-82.5 -173.5 l-53 -248q-16 -73 -31 -121.5t-39.5 -94t-56.5 -72t-81 -47.5t-114 -29.5t-153 -8.5z" />
<glyph unicode="~" horiz-adv-x="1290" d="M164 319l63 295l31 11q31 11 59.5 19.5t70 19.5t86.5 17.5t85 6.5q77 0 224.5 -37t160.5 -37q87 0 236 45q59 19 131 46l-56 -261q-43 -30 -152 -65t-222 -35q-58 0 -174 38t-199 38q-86 0 -225 -51q-41 -14 -119 -50z" />
<glyph unicode="&#xa1;" horiz-adv-x="462" d="M80 14l252 1184h313l-252 -1184h-313zM371 1378q12 63 69 110.5t123 47.5q62 0 98.5 -48t24.5 -110q-13 -65 -69.5 -111t-118.5 -46q-67 0 -104 45.5t-23 111.5z" />
<glyph unicode="&#xa2;" horiz-adv-x="1153" d="M166 514q37 176 170 317t307 185l41 192h268l-39 -182q99 -23 174 -86.5t113 -151.5l-258 -159l-24 30q-42 54 -68 70l-90 -430q85 40 141 123l229 -127q-86 -117 -199.5 -195t-236.5 -104l-35 -162h-268l37 172q-145 53 -221.5 197t-40.5 311zM457 514q-24 -114 41 -182 l77 364q-95 -71 -118 -182z" />
<glyph unicode="&#xa3;" horiz-adv-x="1327" d="M184 0l70 328h141q28 0 51.5 21.5t32.5 60.5l2 8q6 31 -15.5 101.5t-53.5 127.5h-174l59 281h88q0 63 10 110q29 139 116.5 251t213 175.5t264.5 63.5q230 0 359 -164l-287 -217q-42 53 -137 53q-71 0 -128 -43t-69 -104q-11 -55 6 -125h410l-60 -281h-292 q41 -118 22 -213q-9 -44 -15.5 -62.5t-21.5 -41.5h41q149 0 176 125l8 37h304q-46 -213 -219 -352.5t-390 -139.5h-512z" />
<glyph unicode="&#xa4;" horiz-adv-x="1443" d="M145 236l232 192q-53 120 -23 262q24 115 138 260l-158 195l186 153l156 -198q86 41 151 61.5t136 20.5q118 0 237 -80l236 194l120 -149l-233 -191q51 -136 25 -268q-24 -117 -134 -260l152 -192l-182 -150l-150 190q-150 -83 -293 -83q-123 0 -247 83l-232 -190z M600 690q-22 -103 37 -177.5t162 -74.5q104 0 192.5 74.5t110.5 177.5t-35.5 178.5t-161.5 75.5q-102 0 -192.5 -75.5t-112.5 -178.5z" />
<glyph unicode="&#xa5;" horiz-adv-x="1359" d="M209 545l43 205h317l-28 137h-258l43 205h168l-91 421h359l102 -563l344 561h357l-269 -419h168l-43 -205h-256q-18 -29 -46.5 -69.5t-45.5 -67.5h318l-43 -205h-404l-115 -545h-327l114 545h-407z" />
<glyph unicode="&#xa6;" horiz-adv-x="464" d="M88 -20l141 657h269l-142 -657h-268zM283 889l141 663h268l-141 -663h-268z" />
<glyph unicode="&#xa7;" horiz-adv-x="1316" d="M102 47h365q8 -25 27 -51q34 -51 90 -51q45 0 86.5 24.5t50.5 63.5q6 29 -6 51t-40 39t-58.5 30t-74 32t-73.5 36q-35 14 -63.5 28t-59 34t-51.5 41.5t-41 50.5t-28 61.5t-11.5 73t8.5 86.5q24 112 80 189t158 149q-33 51 -42.5 91.5t1.5 111.5q27 122 109 212.5 t192.5 134.5t232.5 44q217 0 344 -144l-77 -372q-37 53 -91 104q-103 107 -206 107q-49 0 -91.5 -31.5t-52.5 -79.5q-6 -27 16.5 -52t64 -44.5t94.5 -43.5t108.5 -47t106 -57.5t87.5 -73.5t52.5 -96t1.5 -123q-25 -114 -93.5 -196.5t-179.5 -155.5q13 -29 20 -47t13.5 -44 t6 -52.5t-6.5 -56.5q-25 -118 -105.5 -206.5t-188 -132.5t-224.5 -44q-81 0 -148 16.5t-114 46.5t-79 64t-54 75q-46 83 -56 205zM571 629q-16 -66 62 -109l217 -100q43 25 67.5 51.5t32.5 65.5q8 40 -19.5 68.5t-82.5 56.5l-184 81q-80 -53 -93 -114z" />
<glyph unicode="&#xa8;" horiz-adv-x="927" d="M383 1358q15 66 69.5 110.5t120.5 44.5t101 -44.5t20 -110.5q-13 -66 -67.5 -110t-120.5 -44t-101 44t-22 110zM786 1358q15 66 69 110.5t120 44.5t101 -44.5t20 -110.5q-13 -66 -68 -110t-121 -44t-100.5 44t-20.5 110z" />
<glyph unicode="&#xa9;" horiz-adv-x="1710" d="M258 727q42 198 177 367t324.5 267.5t385.5 98.5q121 0 226 -37.5t179 -104.5t123.5 -159t59.5 -201t-13 -231q-32 -148 -117.5 -283t-203 -233.5t-266 -156.5t-299.5 -58q-196 0 -344 98.5t-211 267t-21 365.5zM402.5 544.5q8.5 -86.5 48 -158.5t98.5 -124.5t141 -82 t176 -29.5q157 0 309 77t260.5 210.5t141.5 289.5t-18.5 289.5t-170.5 211t-276 77.5t-306.5 -77.5t-255 -210.5t-138.5 -290q-18 -96 -9.5 -182.5zM608 727q35 164 173 277.5t302 113.5q152 0 248 -96l-157 -154q-45 50 -134 50q-77 0 -145.5 -56t-85.5 -131 q-15 -79 28.5 -135.5t120.5 -56.5q89 0 156 51l92 -154q-131 -96 -288 -96q-164 0 -254 113.5t-56 273.5z" />
<glyph unicode="&#xaa;" horiz-adv-x="860" d="M287 1102q31 149 159.5 255.5t276.5 106.5q82 0 149 -34l7 34h211l-152 -719l-178 43q-92 -47 -191 -47q-148 0 -231 106.5t-51 254.5zM510 1102q-12 -60 18.5 -99.5t87.5 -39.5q60 0 109 39.5t61 99.5t-19 99.5t-91 39.5q-58 0 -106 -40t-60 -99z" />
<glyph unicode="&#xab;" horiz-adv-x="1067" d="M195 559l374 445l193 -162l-252 -283l125 -278l-244 -175zM582 559l374 445l193 -162l-252 -283l125 -278l-244 -175z" />
<glyph unicode="&#xac;" horiz-adv-x="1290" d="M211 596l57 270h1071l-151 -714h-268l94 444h-803z" />
<glyph unicode="&#xad;" horiz-adv-x="878" d="M190 449l58 270h665l-57 -270h-666z" />
<glyph unicode="&#xae;" horiz-adv-x="1792" d="M248.5 553q-8.5 98 15.5 203q33 155 125 297.5t217.5 246.5t281 166t310.5 62q128 0 238.5 -40t189 -111t130.5 -168t63 -211.5t-13 -241.5q-33 -155 -123.5 -297.5t-215 -246.5t-281.5 -166t-316 -62q-103 0 -197 28t-167 79t-130.5 121.5t-88 156.5t-39 184zM424 756 q-35 -165 17 -306t175.5 -223t288.5 -82t326 82t276 223t150 306q29 127 0.5 238.5t-94.5 194.5t-171 131t-229 48q-165 0 -323 -82t-269.5 -223t-146.5 -307zM682 295l197 919h284q131 0 188 -80.5t31 -203.5q-23 -109 -88 -180.5t-155 -90.5l143 -364h-227 q-30 76 -54.5 141t-39 106t-19.5 54l-63 -301h-197zM991 821h82q40 0 69.5 32t39.5 77q10 44 -6.5 73t-57.5 29h-82z" />
<glyph unicode="&#xaf;" horiz-adv-x="876" d="M350 1204l58 269h661l-57 -269h-662z" />
<glyph unicode="&#xb0;" horiz-adv-x="884" d="M332 1124q31 140 150 239t259 99q141 0 219.5 -99t47.5 -239q-29 -141 -149 -239.5t-261 -98.5t-218 98.5t-48 239.5zM512 1124q-14 -66 22.5 -112.5t102.5 -46.5t121 46.5t69 112.5t-21 112t-101 46t-123 -46t-70 -112z" />
<glyph unicode="&#xb1;" horiz-adv-x="1306" d="M98 12l58 269h1083l-57 -269h-1084zM211 541l57 270h408l51 240h270l-51 -240h406l-58 -270h-405l-51 -240h-271l51 240h-407z" />
<glyph unicode="&#xb2;" horiz-adv-x="735" d="M217 586l49 237l418 322q19 13 33.5 34.5t17.5 39.5q8 39 -12.5 66.5t-58.5 27.5q-30 0 -62.5 -24.5t-54.5 -63.5l-187 71q58 102 153.5 167t195.5 65q129 0 200 -90t43 -219q-25 -124 -147 -224q-29 -23 -132 -92.5t-155 -101.5h348l-47 -215h-602z" />
<glyph unicode="&#xb3;" horiz-adv-x="733" d="M240 868l202 25q2 -47 23.5 -74.5t58.5 -27.5q41 0 75.5 32.5t43.5 77.5q9 39 -12.5 71.5t-55.5 43.5l-92 26l35 164l96 23q30 10 37 47q3 19 -6.5 31t-26.5 12q-29 0 -96 -47l-55 -47l-51 172q51 62 116 97.5t132 35.5q102 0 159 -72t35 -174q-19 -80 -80 -141 q52 -44 73.5 -111t4.5 -145q-28 -129 -139.5 -220.5t-241.5 -91.5q-119 0 -191 81.5t-44 211.5z" />
<glyph unicode="&#xb4;" horiz-adv-x="694" d="M371 1378l446 174l57 -252l-407 -153z" />
<glyph unicode="&#xb6;" horiz-adv-x="1339" d="M319 1067q23 109 76 184t133 115t169.5 56t205.5 16h608l-393 -1852h-270l336 1581h-137l-336 -1581h-271l238 1123q-202 11 -297.5 105t-61.5 253z" />
<glyph unicode="&#xb7;" horiz-adv-x="464" d="M250 758q13 56 62 99.5t110 43.5q56 0 85 -43.5t17 -99.5t-58.5 -94.5t-103.5 -38.5q-62 0 -93 38.5t-19 94.5z" />
<glyph unicode="&#xb8;" horiz-adv-x="630" d="M12 -383l35 170l53 -18q55 -19 88 -19h19q32 0 39 31q3 15 -2.5 22t-12.5 8t-22 1h-158l219 235h176l-90 -94q69 -5 104.5 -50t18.5 -122q-22 -98 -108 -152.5t-176 -54.5q-33 0 -93.5 12.5t-89.5 30.5z" />
<glyph unicode="&#xb9;" horiz-adv-x="493" d="M199 586l153 721h-141l45 206h356l-198 -927h-215z" />
<glyph unicode="&#xba;" horiz-adv-x="847" d="M289 1100q32 152 158 256t280 104q152 0 234.5 -104t50.5 -256q-34 -154 -160.5 -258.5t-278.5 -104.5q-154 0 -236 104.5t-48 258.5zM514 1100q-12 -57 19 -97t88 -40q56 0 104.5 40t60.5 97q11 56 -20 95.5t-86 39.5q-57 0 -106.5 -40t-59.5 -95z" />
<glyph unicode="&#xbb;" horiz-adv-x="1067" d="M129 272l250 283l-125 276l244 175l196 -451l-375 -446zM514 272l252 283l-125 276l244 175l196 -451l-374 -446z" />
<glyph unicode="&#xbc;" horiz-adv-x="1683" d="M336 510l168 784h-150l47 219h379l-215 -1003h-229zM461 4l760 1526l155 -37l-751 -1509zM881 154l45 208l264 316q58 71 124.5 150t104.5 123.5t41 47.5h219l-131 -620h90l-49 -232h-90l-31 -147h-227l31 154h-391zM1186 369h133q17 94 45 223z" />
<glyph unicode="&#xbd;" horiz-adv-x="1712" d="M338 510l168 784h-152l47 219h379l-215 -1003h-227zM461 0l760 1530l161 -17l-757 -1529zM956 0l52 250l444 342q49 42 55 80q9 42 -14.5 72t-65.5 30q-35 0 -68.5 -26t-55.5 -68l-195 74q60 108 160.5 176.5t206.5 68.5q137 0 213 -95.5t47 -231.5q-15 -70 -53 -126 t-105 -112q-36 -29 -153.5 -108.5t-155.5 -98.5h374l-47 -227h-639z" />
<glyph unicode="&#xbe;" horiz-adv-x="1884" d="M238 805l217 29q0 -48 24 -79.5t64 -31.5q41 0 78.5 35.5t48.5 83.5q9 46 -11.5 79.5t-60.5 45.5l-96 30l37 170l100 25q33 11 43 53q3 19 -7.5 33t-27.5 14q-31 0 -106 -51q-41 -32 -60 -49l-49 182q53 65 121.5 103.5t138.5 38.5q108 0 167.5 -77.5t37.5 -185.5 q-16 -73 -84 -151q117 -106 84 -273q-31 -138 -149 -236.5t-256 -98.5q-128 0 -206 87.5t-48 223.5zM625 4l759 1526l156 -37l-752 -1509zM1044 154l46 208l264 316q58 71 124.5 150t104.5 123.5t41 47.5h219l-131 -620h90l-49 -232h-90l-31 -147h-227l31 154h-392z M1350 369h133q17 94 45 223z" />
<glyph unicode="&#xbf;" horiz-adv-x="921" d="M143 395q17 79 48 142t68.5 104t79 75t82.5 62.5t75.5 57t61 67.5t36.5 86q17 84 8 146q0 40 -8 71l324 2q2 -25 2 -80q0 -88 -19 -188q-17 -82 -64.5 -154t-103 -121.5t-109.5 -92t-94.5 -84.5t-48.5 -80q-15 -70 43 -70q55 0 154 76q26 19 90 75l162 -208 q-67 -67 -154 -131q-191 -134 -330 -134q-178 0 -260 96t-43 283zM639 1395q15 65 69.5 111t120.5 46q61 0 99 -47.5t26 -109.5q-13 -65 -70 -111.5t-120 -46.5q-66 0 -102.5 46t-22.5 112z" />
<glyph unicode="&#xc0;" horiz-adv-x="1536" d="M20 0l934 1532h248l289 -1532h-352l-64 276h-528l-172 -276h-355zM735 588h285l-64 360zM860 1710l170 252l371 -174l-195 -232z" />
<glyph unicode="&#xc1;" horiz-adv-x="1536" d="M20 0l934 1532h248l289 -1532h-352l-64 276h-528l-172 -276h-355zM735 588h285l-64 360zM877 1788l446 174l57 -252l-407 -154z" />
<glyph unicode="&#xc2;" horiz-adv-x="1536" d="M20 0l934 1532h248l289 -1532h-352l-64 276h-528l-172 -276h-355zM735 588h285l-64 360zM811 1825l358 127l304 -140l-203 -229l-164 80q-25 -9 -94 -32t-99 -36z" />
<glyph unicode="&#xc3;" horiz-adv-x="1536" d="M20 0l934 1532h248l289 -1532h-352l-64 276h-528l-172 -276h-355zM731 1528l72 336l20 12l8 4q1 1 13 4l14 6q105 39 168 39q45 0 125 -23.5t106 -23.5q58 0 166 49q35 14 103 49l-58 -268l-51 -31q-100 -69 -186 -69q-48 0 -135.5 25.5t-118.5 25.5q-81 0 -174 -68 q-41 -28 -72 -67zM735 588h285l-64 360z" />
<glyph unicode="&#xc4;" horiz-adv-x="1536" d="M20 0l934 1532h248l289 -1532h-352l-64 276h-528l-172 -276h-355zM735 588h285l-64 360zM772 1767q15 66 70 111t121 45t100.5 -45t19.5 -111q-13 -66 -67.5 -109.5t-120.5 -43.5t-101 43.5t-22 109.5zM1176 1767q15 66 68.5 111t119.5 45t101 -45t20 -111 q-13 -66 -68 -109.5t-121 -43.5t-100 43.5t-20 109.5z" />
<glyph unicode="&#xc5;" horiz-adv-x="1536" d="M20 0l934 1532h248l289 -1532h-352l-64 276h-528l-172 -276h-355zM735 588h285l-64 360zM915 1757q20 92 96 154.5t167 62.5q92 0 141 -62.5t29 -154.5q-19 -91 -95 -154t-168 -63t-140.5 62t-29.5 155zM1030 1757q-8 -41 15.5 -70.5t64.5 -29.5q42 0 79 29.5t44 70.5 q9 41 -15 72t-65 31t-77.5 -31t-45.5 -72z" />
<glyph unicode="&#xc6;" horiz-adv-x="1908" d="M18 0l1074 1532h1019l-69 -330h-533l-57 -268h533l-70 -330h-533l-57 -274h533l-70 -330h-864l57 276h-401l-205 -276h-357zM784 588h265l112 536z" />
<glyph unicode="&#xc7;" horiz-adv-x="1460" d="M258 766q34 160 126.5 305t219 249.5t284.5 166t318 61.5q103 0 192.5 -23.5t145.5 -59t84 -59t43 -42.5l-256 -260q-115 112 -276 115q-128 -5 -244.5 -65t-198.5 -162t-108 -226q-26 -120 13 -224t128.5 -165t206.5 -62q173 0 336 115l145 -262q-22 -18 -60.5 -41.5 t-110 -59.5t-171 -59.5t-201.5 -23.5q-23 0 -73 4l-33 -35q69 -5 104.5 -50t18.5 -122q-22 -98 -108.5 -152.5t-176.5 -54.5q-33 0 -93 12.5t-89 30.5l35 170l53 -18q55 -19 88 -19h18q32 0 39 31q3 15 -2.5 22t-12 8t-21.5 1h-158l190 204q-229 73 -340 279.5t-55 470.5z " />
<glyph unicode="&#xc8;" horiz-adv-x="1079" d="M98 0l324 1532h862l-70 -330h-532l-57 -268h532l-70 -330h-532l-57 -274h532l-69 -330h-863zM631 1710l170 252l370 -174l-194 -232z" />
<glyph unicode="&#xc9;" horiz-adv-x="1079" d="M98 0l324 1532h862l-70 -330h-532l-57 -268h532l-70 -330h-532l-57 -274h532l-69 -330h-863zM647 1788l447 174l57 -252l-408 -154z" />
<glyph unicode="&#xca;" horiz-adv-x="1079" d="M98 0l324 1532h862l-70 -330h-532l-57 -268h532l-70 -330h-532l-57 -274h532l-69 -330h-863zM584 1825l358 127l303 -140l-203 -229l-163 80q-25 -9 -94 -32t-99 -36z" />
<glyph unicode="&#xcb;" horiz-adv-x="1079" d="M98 0l324 1532h862l-70 -330h-532l-57 -268h532l-70 -330h-532l-57 -274h532l-69 -330h-863zM545 1767q15 66 69.5 111t120.5 45t101 -45t20 -111q-13 -66 -67.5 -109.5t-120.5 -43.5t-101 43.5t-22 109.5zM948 1767q15 66 69 111t120 45t100.5 -45t19.5 -111 q-13 -66 -67.5 -109.5t-120.5 -43.5t-100.5 43.5t-20.5 109.5z" />
<glyph unicode="&#xcc;" horiz-adv-x="526" d="M94 0l324 1532h330l-324 -1532h-330zM358 1710l170 252l371 -174l-194 -232z" />
<glyph unicode="&#xcd;" horiz-adv-x="526" d="M94 0l324 1532h330l-324 -1532h-330zM375 1788l446 174l58 -252l-408 -154z" />
<glyph unicode="&#xce;" horiz-adv-x="526" d="M94 0l324 1532h330l-324 -1532h-330zM311 1825l359 127l303 -140l-203 -229l-164 80q-24 -9 -92.5 -32t-99.5 -36z" />
<glyph unicode="&#xcf;" horiz-adv-x="526" d="M94 0l324 1532h330l-324 -1532h-330zM272 1767q15 66 70 111t121 45t101 -45t20 -111q-13 -66 -68 -109.5t-121 -43.5t-101 43.5t-22 109.5zM676 1767q15 66 68.5 111t119.5 45t101 -45t20 -111q-13 -66 -67.5 -109.5t-120.5 -43.5t-100.5 43.5t-20.5 109.5z" />
<glyph unicode="&#xd0;" horiz-adv-x="1708" d="M223 592l58 274h200l142 666h512q126 0 235.5 -39.5t188.5 -109.5t131.5 -166t64.5 -210t-12 -241q-33 -155 -124 -296.5t-215.5 -244.5t-280 -164t-312.5 -61h-514l127 592h-201zM700 330h181q191 0 340 121.5t190 314.5q41 194 -51.5 315t-284.5 121h-190l-72 -336h203 l-58 -274h-202z" />
<glyph unicode="&#xd1;" horiz-adv-x="1456" d="M100 0l324 1532h303l428 -885l186 883h314l-324 -1530h-301l-428 887l-188 -887h-314zM707 1550l71 336q4 3 20 12l9 5q1 1 12 4q14 6 15 6q105 39 167 39q45 0 125.5 -23.5t106.5 -23.5q58 0 166 49q30 12 102 49l-57 -268l-51 -31q-102 -70 -187 -70q-48 0 -135.5 26 t-118.5 26q-81 0 -174 -68q-37 -26 -71 -68z" />
<glyph unicode="&#xd2;" horiz-adv-x="1794" d="M249 518q-12 117 13 248q34 160 126.5 305t219 249.5t284.5 166t318 61.5q106 0 202 -28t170.5 -78.5t132.5 -121.5t89 -158t39.5 -187t-16.5 -209q-34 -160 -126.5 -305t-219.5 -249.5t-285 -166t-317 -61.5q-128 0 -239.5 39.5t-191.5 110.5t-133.5 169t-65.5 215z M592 766q-26 -121 12.5 -225t130 -165t213.5 -61q124 0 240.5 61t198.5 165t108 225q40 188 -63 320.5t-291 132.5q-186 0 -347.5 -133t-201.5 -320zM989 1710l170 252l371 -174l-195 -232z" />
<glyph unicode="&#xd3;" horiz-adv-x="1794" d="M249 518q-12 117 13 248q34 160 126.5 305t219 249.5t284.5 166t318 61.5q106 0 202 -28t170.5 -78.5t132.5 -121.5t89 -158t39.5 -187t-16.5 -209q-34 -160 -126.5 -305t-219.5 -249.5t-285 -166t-317 -61.5q-128 0 -239.5 39.5t-191.5 110.5t-133.5 169t-65.5 215z M592 766q-26 -121 12.5 -225t130 -165t213.5 -61q124 0 240.5 61t198.5 165t108 225q40 188 -63 320.5t-291 132.5q-186 0 -347.5 -133t-201.5 -320zM1006 1788l446 174l57 -252l-407 -154z" />
<glyph unicode="&#xd4;" horiz-adv-x="1794" d="M249 518q-12 117 13 248q34 160 126.5 305t219 249.5t284.5 166t318 61.5q106 0 202 -28t170.5 -78.5t132.5 -121.5t89 -158t39.5 -187t-16.5 -209q-34 -160 -126.5 -305t-219.5 -249.5t-285 -166t-317 -61.5q-128 0 -239.5 39.5t-191.5 110.5t-133.5 169t-65.5 215z M592 766q-26 -121 12.5 -225t130 -165t213.5 -61q124 0 240.5 61t198.5 165t108 225q40 188 -63 320.5t-291 132.5q-186 0 -347.5 -133t-201.5 -320zM940 1825l358 127l304 -140l-203 -229l-164 80q-25 -9 -94 -32t-99 -36z" />
<glyph unicode="&#xd5;" horiz-adv-x="1794" d="M249 518q-12 117 13 248q34 160 126.5 305t219 249.5t284.5 166t318 61.5q106 0 202 -28t170.5 -78.5t132.5 -121.5t89 -158t39.5 -187t-16.5 -209q-34 -160 -126.5 -305t-219.5 -249.5t-285 -166t-317 -61.5q-128 0 -239.5 39.5t-191.5 110.5t-133.5 169t-65.5 215z M592 766q-26 -121 12.5 -225t130 -165t213.5 -61q124 0 240.5 61t198.5 165t108 225q40 188 -63 320.5t-291 132.5q-186 0 -347.5 -133t-201.5 -320zM860 1528l72 336q5 4 22 12l7 4q1 1 12 4l14 6q105 39 168 39q45 0 125 -23.5t106 -23.5q58 0 166 49q35 14 103 49 l-58 -268l-51 -31q-100 -69 -186 -69q-48 0 -135.5 25.5t-118.5 25.5q-81 0 -174 -68q-41 -28 -72 -67z" />
<glyph unicode="&#xd6;" horiz-adv-x="1794" d="M249 518q-12 117 13 248q34 160 126.5 305t219 249.5t284.5 166t318 61.5q106 0 202 -28t170.5 -78.5t132.5 -121.5t89 -158t39.5 -187t-16.5 -209q-34 -160 -126.5 -305t-219.5 -249.5t-285 -166t-317 -61.5q-128 0 -239.5 39.5t-191.5 110.5t-133.5 169t-65.5 215z M592 766q-26 -121 12.5 -225t130 -165t213.5 -61q124 0 240.5 61t198.5 165t108 225q40 188 -63 320.5t-291 132.5q-186 0 -347.5 -133t-201.5 -320zM901 1767q15 66 70 111t121 45t100.5 -45t19.5 -111q-13 -66 -67.5 -109.5t-120.5 -43.5t-101 43.5t-22 109.5zM1305 1767 q15 66 68.5 111t119.5 45t101 -45t20 -111q-13 -66 -68 -109.5t-121 -43.5t-100 43.5t-20 109.5z" />
<glyph unicode="&#xd7;" horiz-adv-x="1175" d="M197 256l325 266l-209 264l230 185l205 -260l323 266l148 -189l-320 -266l205 -262l-225 -192l-211 266l-324 -268z" />
<glyph unicode="&#xd8;" horiz-adv-x="1794" d="M262 766q34 160 126.5 305t219 249.5t284.5 166t318 61.5q63 0 115 -8l47 92h187l-68 -141q205 -87 297 -281.5t39 -443.5q-34 -160 -126.5 -305t-219.5 -249.5t-285 -166t-317 -61.5q-81 0 -142 12q-24 -43 -41 -82q-4 -4 -4 -6h-190l76 141q-195 86 -281 282t-35 435z M592 766q-27 -125 13 -229t132 -162q64 129 206.5 408t219.5 436h-22q-186 0 -347.5 -133t-201.5 -320zM903 317q14 -2 45 -2q124 0 240.5 61t198.5 165t108 225q27 128 -19.5 237t-146.5 166z" />
<glyph unicode="&#xd9;" horiz-adv-x="1243" d="M193 446l229 1084h330l-222 -1045q-16 -71 34 -117t120 -46q73 0 135.5 45t75.5 110l223 1053h330l-229 -1084q-28 -130 -124 -236t-224.5 -163t-258.5 -57q-99 0 -185 34t-145 93t-84.5 145t-4.5 184zM713 1710l170 252l370 -174l-194 -232z" />
<glyph unicode="&#xda;" horiz-adv-x="1243" d="M193 446l229 1084h330l-222 -1045q-16 -71 34 -117t120 -46q73 0 135.5 45t75.5 110l223 1053h330l-229 -1084q-28 -130 -124 -236t-224.5 -163t-258.5 -57q-99 0 -185 34t-145 93t-84.5 145t-4.5 184zM729 1788l447 174l57 -252l-408 -154z" />
<glyph unicode="&#xdb;" horiz-adv-x="1243" d="M193 446l229 1084h330l-222 -1045q-16 -71 34 -117t120 -46q73 0 135.5 45t75.5 110l223 1053h330l-229 -1084q-28 -130 -124 -236t-224.5 -163t-258.5 -57q-99 0 -185 34t-145 93t-84.5 145t-4.5 184zM666 1825l358 127l303 -140l-203 -229l-163 80q-25 -9 -94 -32 t-99 -36z" />
<glyph unicode="&#xdc;" horiz-adv-x="1243" d="M193 446l229 1084h330l-222 -1045q-16 -71 34 -117t120 -46q73 0 135.5 45t75.5 110l223 1053h330l-229 -1084q-28 -130 -124 -236t-224.5 -163t-258.5 -57q-99 0 -185 34t-145 93t-84.5 145t-4.5 184zM627 1767q15 66 69.5 111t120.5 45t101 -45t20 -111 q-13 -66 -67.5 -109.5t-120.5 -43.5t-101 43.5t-22 109.5zM1030 1767q15 66 69 111t120 45t100.5 -45t19.5 -111q-13 -66 -67.5 -109.5t-120.5 -43.5t-100.5 43.5t-20.5 109.5z" />
<glyph unicode="&#xdd;" horiz-adv-x="1216" d="M330 1532h364l107 -569l350 567h360l-630 -977l-117 -553h-330l117 553zM717 1788l446 174l58 -252l-408 -154z" />
<glyph unicode="&#xde;" horiz-adv-x="1787" d="M98 0l324 1532h332l-58 -275q29 0 64.5 0.5t59 1.5t24.5 1q200 0 300 -134.5t58 -334.5q-43 -203 -201 -341.5t-356 -138.5h-149l-66 -311h-332zM565 641h150q64 0 104.5 48t52.5 102q3 28 1 58.5t-27.5 54.5t-69.5 24h-149z" />
<glyph unicode="&#xdf;" horiz-adv-x="1146" d="M102 0l234 1102q22 104 96.5 198.5t184 153.5t223.5 59h34q9 0 11 -2q164 -17 253 -136t54 -283q-31 -148 -131 -254q62 -68 85.5 -160.5t0.5 -198.5q-42 -199 -199.5 -339t-351.5 -140h-104l67 326h92q63 0 110.5 48t63.5 118q12 64 -35 112.5t-116 48.5l61 285 q57 4 92 41t45 88q11 49 -15 84t-79 35q-26 0 -48 -8t-34 -19.5t-20 -24.5t-11 -21t-3 -11l-234 -1102h-326z" />
<glyph unicode="&#xe0;" horiz-adv-x="1202" d="M150 512q30 142 125.5 263.5t231.5 193t279 71.5q135 0 230 -59l10 43h289l-221 -1034h-267l15 65q-136 -71 -279 -71t-249 71.5t-150 193t-14 263.5zM461 512q-20 -92 28.5 -155.5t139.5 -63.5q93 0 168.5 63t95.5 156q19 93 -30 156t-142 63q-91 0 -166 -63.5 t-94 -155.5zM606 1300l170 252l371 -174l-195 -231z" />
<glyph unicode="&#xe1;" horiz-adv-x="1202" d="M150 512q30 142 125.5 263.5t231.5 193t279 71.5q135 0 230 -59l10 43h289l-221 -1034h-267l15 65q-136 -71 -279 -71t-249 71.5t-150 193t-14 263.5zM461 512q-20 -92 28.5 -155.5t139.5 -63.5q93 0 168.5 63t95.5 156q19 93 -30 156t-142 63q-91 0 -166 -63.5 t-94 -155.5zM623 1378l446 174l57 -252l-407 -153z" />
<glyph unicode="&#xe2;" horiz-adv-x="1202" d="M150 512q30 142 125.5 263.5t231.5 193t279 71.5q135 0 230 -59l10 43h289l-221 -1034h-267l15 65q-136 -71 -279 -71t-249 71.5t-150 193t-14 263.5zM461 512q-20 -92 28.5 -155.5t139.5 -63.5q93 0 168.5 63t95.5 156q19 93 -30 156t-142 63q-91 0 -166 -63.5 t-94 -155.5zM559 1415l359 127l303 -139l-203 -229l-164 79q-25 -10 -93.5 -32t-98.5 -35z" />
<glyph unicode="&#xe3;" horiz-adv-x="1202" d="M150 512q30 142 125.5 263.5t231.5 193t279 71.5q135 0 230 -59l10 43h289l-221 -1034h-267l15 65q-136 -71 -279 -71t-249 71.5t-150 193t-14 263.5zM461 512q-20 -92 28.5 -155.5t139.5 -63.5q93 0 168.5 63t95.5 156q19 93 -30 156t-142 63q-91 0 -166 -63.5 t-94 -155.5zM479 1118l72 336q5 4 22 12l7 4q3 3 12 5l14 6q105 39 168 39q45 0 125.5 -23.5t106.5 -23.5q57 0 165 49q35 14 103 49l-57 -268l-52 -31q-102 -70 -186 -70q-48 0 -135.5 25.5t-118.5 25.5q-83 0 -174 -67q-39 -27 -72 -68z" />
<glyph unicode="&#xe4;" horiz-adv-x="1202" d="M150 512q30 142 125.5 263.5t231.5 193t279 71.5q135 0 230 -59l10 43h289l-221 -1034h-267l15 65q-136 -71 -279 -71t-249 71.5t-150 193t-14 263.5zM461 512q-20 -92 28.5 -155.5t139.5 -63.5q93 0 168.5 63t95.5 156q19 93 -30 156t-142 63q-91 0 -166 -63.5 t-94 -155.5zM520 1358q15 66 70 110.5t121 44.5t100.5 -44.5t19.5 -110.5q-13 -66 -67.5 -110t-120.5 -44t-101 44t-22 110zM924 1358q15 66 68.5 110.5t119.5 44.5t101 -44.5t20 -110.5q-13 -66 -68 -110t-121 -44t-100 44t-20 110z" />
<glyph unicode="&#xe5;" horiz-adv-x="1202" d="M150 512q30 142 125.5 263.5t231.5 193t279 71.5q135 0 230 -59l10 43h289l-221 -1034h-267l15 65q-136 -71 -279 -71t-249 71.5t-150 193t-14 263.5zM461 512q-20 -92 28.5 -155.5t139.5 -63.5q93 0 168.5 63t95.5 156q19 93 -30 156t-142 63q-91 0 -166 -63.5 t-94 -155.5zM662 1348q20 92 95.5 154.5t166.5 62.5q92 0 141 -62.5t29 -154.5q-19 -91 -95 -154.5t-168 -63.5t-140 62.5t-29 155.5zM776 1348q-8 -42 15.5 -71.5t64.5 -29.5q42 0 79 30t44 71q9 41 -15 71.5t-65 30.5t-77.5 -30.5t-45.5 -71.5z" />
<glyph unicode="&#xe6;" horiz-adv-x="1896" d="M150 512q30 142 125.5 263.5t231.5 193t279 71.5q135 0 230 -59l10 43h289l-8 -37q117 51 239 51q77 0 139.5 -21t104 -58.5t69 -86.5t39 -106.5t10.5 -117t-14 -120.5q-8 -45 -34 -122h-627q5 -59 51 -93t129 -34q130 0 283 67l51 -246q-117 -68 -214.5 -92t-205.5 -24 q-128 0 -223 53l-10 -47h-267l15 65q-136 -71 -279 -71t-249 71.5t-150 193t-14 263.5zM461 512q-20 -92 28.5 -155.5t139.5 -63.5q93 0 168.5 63t95.5 156q19 93 -30 156t-142 63q-91 0 -166 -63.5t-94 -155.5zM1284 641h320q3 39 -32.5 68.5t-103.5 29.5 q-59 0 -108.5 -29.5t-75.5 -68.5z" />
<glyph unicode="&#xe7;" horiz-adv-x="1126" d="M166 514q46 218 233 372t408 154q131 0 238 -72t155 -180l-264 -170l-35 37q-65 72 -156 72q-90 0 -165.5 -62.5t-94.5 -150.5q-20 -90 29.5 -152.5t140.5 -62.5q58 0 112 32.5t118 100.5l245 -137q-97 -130 -228.5 -213t-270.5 -96l-31 -33q69 -5 104.5 -50t18.5 -122 q-22 -98 -108.5 -152.5t-176.5 -54.5q-33 0 -93 12.5t-89 30.5l35 170l53 -18q55 -19 88 -19h19q31 0 38 31q3 15 -2.5 22t-12 8t-21.5 1h-158l172 186q-170 39 -256 183t-45 333z" />
<glyph unicode="&#xe8;" horiz-adv-x="1091" d="M152 514q46 218 232 371t404 153q77 0 139.5 -21t104 -58.5t69.5 -86.5t39.5 -106.5t10.5 -117t-14 -120.5q-7 -39 -35 -122h-627q5 -59 51 -93t129 -34q130 0 283 67l51 -246q-117 -68 -214.5 -92t-205.5 -24q-145 0 -252 70.5t-151.5 192.5t-13.5 267zM526 641h320 q3 39 -32 68.5t-103 29.5q-59 0 -109 -29.5t-76 -68.5zM551 1300l170 252l371 -174l-195 -231z" />
<glyph unicode="&#xe9;" horiz-adv-x="1091" d="M152 514q46 218 232 371t404 153q77 0 139.5 -21t104 -58.5t69.5 -86.5t39.5 -106.5t10.5 -117t-14 -120.5q-7 -39 -35 -122h-627q5 -59 51 -93t129 -34q130 0 283 67l51 -246q-117 -68 -214.5 -92t-205.5 -24q-145 0 -252 70.5t-151.5 192.5t-13.5 267zM526 641h320 q3 39 -32 68.5t-103 29.5q-59 0 -109 -29.5t-76 -68.5zM567 1378l447 174l57 -252l-407 -153z" />
<glyph unicode="&#xea;" horiz-adv-x="1091" d="M152 514q46 218 232 371t404 153q77 0 139.5 -21t104 -58.5t69.5 -86.5t39.5 -106.5t10.5 -117t-14 -120.5q-7 -39 -35 -122h-627q5 -59 51 -93t129 -34q130 0 283 67l51 -246q-117 -68 -214.5 -92t-205.5 -24q-145 0 -252 70.5t-151.5 192.5t-13.5 267zM504 1415 l358 127l303 -139l-202 -229l-164 79q-26 -10 -94.5 -32t-98.5 -35zM526 641h320q3 39 -32 68.5t-103 29.5q-59 0 -109 -29.5t-76 -68.5z" />
<glyph unicode="&#xeb;" horiz-adv-x="1091" d="M152 514q46 218 232 371t404 153q77 0 139.5 -21t104 -58.5t69.5 -86.5t39.5 -106.5t10.5 -117t-14 -120.5q-7 -39 -35 -122h-627q5 -59 51 -93t129 -34q130 0 283 67l51 -246q-117 -68 -214.5 -92t-205.5 -24q-145 0 -252 70.5t-151.5 192.5t-13.5 267zM465 1358 q15 66 69.5 110.5t120.5 44.5t101 -44.5t20 -110.5q-13 -66 -67.5 -110t-120.5 -44t-101 44t-22 110zM526 641h320q3 39 -32 68.5t-103 29.5q-59 0 -109 -29.5t-76 -68.5zM868 1358q15 66 69 110.5t120 44.5t101 -44.5t20 -110.5q-13 -66 -68 -110t-121 -44t-100.5 44 t-20.5 110z" />
<glyph unicode="&#xec;" horiz-adv-x="430" d="M55 0l217 1024h314l-217 -1024h-314zM231 1300l170 252l371 -174l-194 -231z" />
<glyph unicode="&#xed;" horiz-adv-x="430" d="M55 0l217 1024h314l-217 -1024h-314zM250 1378l446 174l58 -252l-408 -153z" />
<glyph unicode="&#xee;" horiz-adv-x="430" d="M55 0l217 1024h314l-217 -1024h-314zM184 1415l359 127l303 -139l-203 -229l-164 79q-25 -10 -93.5 -32t-98.5 -35z" />
<glyph unicode="&#xef;" horiz-adv-x="430" d="M55 0l217 1024h314l-217 -1024h-314zM147 1358q15 66 70 110.5t121 44.5t101 -44.5t20 -110.5q-13 -66 -68 -110t-121 -44t-101 44t-22 110zM551 1358q15 66 68.5 110.5t119.5 44.5t101 -44.5t20 -110.5q-13 -66 -67.5 -110t-120.5 -44t-100.5 44t-20.5 110z" />
<glyph unicode="&#xf0;" horiz-adv-x="1310" d="M221 528q31 143 124 258.5t223.5 183t277.5 81.5q4 0 4 4v6l-31 63l-117 -73l-94 192l119 76l-37 80l264 170l50 -80l122 74l93 -193l-129 -78l206 -489q51 -117 15 -275q-31 -148 -130.5 -273.5t-240.5 -198t-289 -72.5t-258 72.5t-156.5 198t-15.5 273.5zM532 528 q-22 -102 31 -167.5t154 -65.5q103 0 181.5 65t100.5 168q22 101 -29 167.5t-153 66.5q-100 0 -181.5 -67t-103.5 -167z" />
<glyph unicode="&#xf1;" horiz-adv-x="1091" d="M76 0l217 1028h254l-8 -39q86 51 215 51q218 0 313 -118.5t49 -337.5l-123 -584h-313l123 580q12 61 -21.5 104t-93.5 43q-58 0 -108.5 -39t-67.5 -98l-125 -590h-311zM424 1118l72 336l20 12l8 4q2 2 13 5l14 6q105 39 168 39q45 0 125 -23.5t106 -23.5q58 0 166 49 q35 14 103 49l-58 -268l-51 -31q-102 -70 -186 -70q-48 0 -135.5 25.5t-118.5 25.5q-83 0 -174 -67q-39 -27 -72 -68z" />
<glyph unicode="&#xf2;" horiz-adv-x="1191" d="M168 514q30 143 125.5 264t232 191.5t281.5 70.5q143 0 249.5 -70.5t151.5 -191.5t15 -264q-31 -145 -127.5 -267t-232.5 -192.5t-279 -70.5q-145 0 -252 70.5t-151 192.5t-13 267zM481 514q-20 -90 29.5 -152.5t140.5 -62.5q88 0 163 62t95 153q19 88 -30.5 150.5 t-137.5 62.5q-90 0 -165.5 -62.5t-94.5 -150.5zM602 1300l170 252l371 -174l-195 -231z" />
<glyph unicode="&#xf3;" horiz-adv-x="1191" d="M168 514q30 143 125.5 264t232 191.5t281.5 70.5q143 0 249.5 -70.5t151.5 -191.5t15 -264q-31 -145 -127.5 -267t-232.5 -192.5t-279 -70.5q-145 0 -252 70.5t-151 192.5t-13 267zM481 514q-20 -90 29.5 -152.5t140.5 -62.5q88 0 163 62t95 153q19 88 -30.5 150.5 t-137.5 62.5q-90 0 -165.5 -62.5t-94.5 -150.5zM618 1378l447 174l57 -252l-407 -153z" />
<glyph unicode="&#xf4;" horiz-adv-x="1191" d="M168 514q30 143 125.5 264t232 191.5t281.5 70.5q143 0 249.5 -70.5t151.5 -191.5t15 -264q-31 -145 -127.5 -267t-232.5 -192.5t-279 -70.5q-145 0 -252 70.5t-151 192.5t-13 267zM481 514q-20 -90 29.5 -152.5t140.5 -62.5q88 0 163 62t95 153q19 88 -30.5 150.5 t-137.5 62.5q-90 0 -165.5 -62.5t-94.5 -150.5zM553 1415l358 127l303 -139l-202 -229l-164 79q-26 -10 -94.5 -32t-98.5 -35z" />
<glyph unicode="&#xf5;" horiz-adv-x="1191" d="M168 514q30 143 125.5 264t232 191.5t281.5 70.5q143 0 249.5 -70.5t151.5 -191.5t15 -264q-31 -145 -127.5 -267t-232.5 -192.5t-279 -70.5q-145 0 -252 70.5t-151 192.5t-13 267zM473 1118l72 336l20 12l8 4q2 2 13 5l14 6q105 39 168 39q45 0 125 -23.5t106 -23.5 q58 0 166 49q35 14 103 49l-58 -268l-51 -31q-102 -70 -186 -70q-48 0 -135.5 25.5t-118.5 25.5q-83 0 -174 -67q-39 -27 -72 -68zM481 514q-20 -90 29.5 -152.5t140.5 -62.5q88 0 163 62t95 153q19 88 -30.5 150.5t-137.5 62.5q-90 0 -165.5 -62.5t-94.5 -150.5z" />
<glyph unicode="&#xf6;" horiz-adv-x="1191" d="M168 514q30 143 125.5 264t232 191.5t281.5 70.5q143 0 249.5 -70.5t151.5 -191.5t15 -264q-31 -145 -127.5 -267t-232.5 -192.5t-279 -70.5q-145 0 -252 70.5t-151 192.5t-13 267zM481 514q-20 -90 29.5 -152.5t140.5 -62.5q88 0 163 62t95 153q19 88 -30.5 150.5 t-137.5 62.5q-90 0 -165.5 -62.5t-94.5 -150.5zM514 1358q15 66 70 110.5t121 44.5t100.5 -44.5t19.5 -110.5q-13 -66 -67.5 -110t-120.5 -44t-101 44t-22 110zM918 1358q15 66 68.5 110.5t119.5 44.5t101 -44.5t20 -110.5q-13 -66 -68 -110t-121 -44t-100 44t-20 110z" />
<glyph unicode="&#xf7;" d="M170 389l57 270h1024l-57 -270h-1024zM463 199q15 73 77 124.5t136 51.5q73 0 113.5 -51t25.5 -125q-15 -72 -77.5 -124t-135.5 -52t-113.5 52t-25.5 124zM600 848q17 74 79.5 125t135.5 51q74 0 114 -51.5t23 -124.5q-15 -73 -77 -124.5t-136 -51.5q-73 0 -113.5 51 t-25.5 125z" />
<glyph unicode="&#xf8;" horiz-adv-x="1191" d="M168 514q30 143 125.5 264t232 191.5t281.5 70.5q41 0 59 -2l54 105h176l-76 -154q123 -62 179.5 -191t23.5 -284q-31 -145 -127.5 -267t-232.5 -192.5t-279 -70.5q-55 0 -70 4q-6 -13 -26 -52.5t-27 -56.5h-170l74 156q-123 64 -176.5 192.5t-20.5 286.5zM457 514 q-25 -125 51 -192l217 430q-94 -8 -171 -76t-97 -162zM657 274q96 5 177.5 74t103.5 166q24 125 -59 193q-33 -63 -222 -433z" />
<glyph unicode="&#xf9;" horiz-adv-x="1095" d="M168 440l125 584h311l-123 -580q-13 -61 21 -104t94 -43q57 0 107 38.5t69 98.5l125 590h313l-219 -1030h-254l8 41q-89 -51 -215 -51q-218 0 -313 118.5t-49 337.5zM553 1300l170 252l371 -174l-195 -231z" />
<glyph unicode="&#xfa;" horiz-adv-x="1095" d="M168 440l125 584h311l-123 -580q-13 -61 21 -104t94 -43q57 0 107 38.5t69 98.5l125 590h313l-219 -1030h-254l8 41q-89 -51 -215 -51q-218 0 -313 118.5t-49 337.5zM569 1378l447 174l57 -252l-407 -153z" />
<glyph unicode="&#xfb;" horiz-adv-x="1095" d="M168 440l125 584h311l-123 -580q-13 -61 21 -104t94 -43q57 0 107 38.5t69 98.5l125 590h313l-219 -1030h-254l8 41q-89 -51 -215 -51q-218 0 -313 118.5t-49 337.5zM506 1415l358 127l303 -139l-202 -229l-164 79q-26 -10 -94.5 -32t-98.5 -35z" />
<glyph unicode="&#xfc;" horiz-adv-x="1095" d="M168 440l125 584h311l-123 -580q-13 -61 21 -104t94 -43q57 0 107 38.5t69 98.5l125 590h313l-219 -1030h-254l8 41q-89 -51 -215 -51q-218 0 -313 118.5t-49 337.5zM467 1358q15 66 69.5 110.5t120.5 44.5t101 -44.5t20 -110.5q-13 -66 -67.5 -110t-120.5 -44t-101 44 t-22 110zM870 1358q15 66 69 110.5t120 44.5t101 -44.5t20 -110.5q-13 -66 -68 -110t-121 -44t-100.5 44t-20.5 110z" />
<glyph unicode="&#xfd;" horiz-adv-x="976" d="M43 -406l293 521l4 18l-119 891h336l37 -479l242 479h329l-790 -1430h-332zM510 1378l446 174l58 -252l-408 -153z" />
<glyph unicode="&#xfe;" horiz-adv-x="1230" d="M-8 -406l385 1821h313l-88 -420q117 45 227 45q142 0 249 -71t153 -193t16 -264t-127.5 -264t-234.5 -193t-279 -71q-116 0 -209 49l-94 -439h-311zM502 512q-20 -92 29 -155.5t141 -63.5q91 0 167.5 63.5t96.5 155.5q19 92 -31 155.5t-141 63.5q-92 0 -167.5 -63.5 t-94.5 -155.5z" />
<glyph unicode="&#xff;" horiz-adv-x="976" d="M43 -406l293 521l4 18l-119 891h336l37 -479l242 479h329l-790 -1430h-332zM408 1358q15 66 69.5 110.5t120.5 44.5t101 -44.5t20 -110.5q-13 -66 -68 -110t-121 -44t-101 44t-21 110zM811 1358q15 66 68.5 110.5t119.5 44.5t101 -44.5t20 -110.5q-13 -66 -67.5 -110 t-120.5 -44t-100.5 44t-20.5 110z" />
<glyph unicode="&#x152;" horiz-adv-x="2314" d="M249 518q-12 117 13 248q34 160 126.5 305t219 249.5t284.5 166t318 61.5q250 0 424 -147l29 131h862l-69 -330h-533l-57 -268h532l-69 -330h-533l-57 -274h532l-69 -330h-863l27 131q-230 -147 -487 -147q-128 0 -239.5 39.5t-191.5 110.5t-133.5 169t-65.5 215z M592 766q-26 -121 12.5 -225t130 -165t213.5 -61q124 0 240.5 61t198.5 165t108 225q40 188 -63 320.5t-291 132.5q-186 0 -347.5 -133t-201.5 -320z" />
<glyph unicode="&#x153;" horiz-adv-x="1849" d="M168 514q30 143 125.5 264t232 191.5t281.5 70.5q107 0 195.5 -41t146.5 -114q88 72 193 112.5t212 40.5q77 0 139.5 -21t104 -58.5t69.5 -86.5t39.5 -106.5t10.5 -117t-14 -120.5q-7 -39 -35 -122h-627q5 -59 51 -93t129 -34q130 0 283 67l51 -246q-117 -68 -214.5 -92 t-205.5 -24q-110 0 -199 40.5t-147 114.5q-88 -73 -193 -114t-212 -41q-145 0 -252 70.5t-151 192.5t-13 267zM481 514q-20 -90 29.5 -152.5t140.5 -62.5q88 0 163 62t95 153q19 88 -30.5 150.5t-137.5 62.5q-90 0 -165.5 -62.5t-94.5 -150.5zM1292 641h320q3 39 -32 68.5 t-103 29.5q-59 0 -109 -29.5t-76 -68.5z" />
<glyph unicode="&#x178;" horiz-adv-x="1216" d="M330 1532h364l107 -569l350 567h360l-630 -977l-117 -553h-330l117 553zM612 1767q15 66 70 111t121 45t101 -45t20 -111q-13 -66 -68 -109.5t-121 -43.5t-101 43.5t-22 109.5zM1016 1767q15 66 68.5 111t119.5 45t101 -45t20 -111q-13 -66 -67.5 -109.5t-120.5 -43.5 t-100.5 43.5t-20.5 109.5z" />
<glyph unicode="&#x2c6;" horiz-adv-x="815" d="M367 1415l358 127l303 -139l-203 -229l-163 79q-26 -10 -94.5 -32t-98.5 -35z" />
<glyph unicode="&#x2dc;" horiz-adv-x="909" d="M332 1118l71 336q5 4 22 12l7 4q3 3 12 5q14 6 15 6q105 39 168 39q45 0 125 -23.5t106 -23.5q58 0 166 49q30 12 102 49l-57 -268l-51 -31q-102 -70 -187 -70q-48 0 -135 25.5t-118 25.5q-84 0 -175 -67q-37 -26 -71 -68z" />
<glyph unicode="&#x2000;" horiz-adv-x="1001" />
<glyph unicode="&#x2001;" horiz-adv-x="2003" />
<glyph unicode="&#x2002;" horiz-adv-x="1001" />
<glyph unicode="&#x2003;" horiz-adv-x="2003" />
<glyph unicode="&#x2004;" horiz-adv-x="667" />
<glyph unicode="&#x2005;" horiz-adv-x="500" />
<glyph unicode="&#x2006;" horiz-adv-x="333" />
<glyph unicode="&#x2007;" horiz-adv-x="333" />
<glyph unicode="&#x2008;" horiz-adv-x="250" />
<glyph unicode="&#x2009;" horiz-adv-x="400" />
<glyph unicode="&#x200a;" horiz-adv-x="111" />
<glyph unicode="&#x2010;" horiz-adv-x="878" d="M190 449l58 270h665l-57 -270h-666z" />
<glyph unicode="&#x2011;" horiz-adv-x="878" d="M190 449l58 270h665l-57 -270h-666z" />
<glyph unicode="&#x2012;" horiz-adv-x="878" d="M190 449l58 270h665l-57 -270h-666z" />
<glyph unicode="&#x2013;" horiz-adv-x="1257" d="M195 449l57 270h1026l-57 -270h-1026z" />
<glyph unicode="&#x2014;" horiz-adv-x="1617" d="M201 449l57 270h1368l-57 -270h-1368z" />
<glyph unicode="&#x2018;" horiz-adv-x="460" d="M373 1513h280l-47 -403l-205 -23z" />
<glyph unicode="&#x2019;" horiz-adv-x="460" d="M293 1110l125 403h280l-213 -426z" />
<glyph unicode="&#x201a;" horiz-adv-x="460" d="M29 -127l125 403h280l-211 -426z" />
<glyph unicode="&#x201c;" horiz-adv-x="790" d="M377 1513h280l-47 -403l-204 -23zM684 1513h279l-48 -403l-202 -23z" />
<glyph unicode="&#x201d;" horiz-adv-x="790" d="M297 1110l125 403h280l-215 -426zM604 1110l125 403h279l-213 -426z" />
<glyph unicode="&#x201e;" horiz-adv-x="790" d="M33 -127l125 403h280l-213 -426zM340 -127l125 403h278l-211 -426z" />
<glyph unicode="&#x2022;" horiz-adv-x="716" d="M221 610q23 106 115.5 182t198.5 76t165.5 -76t36.5 -182t-115 -182t-198 -76t-166 76t-37 182z" />
<glyph unicode="&#x2026;" horiz-adv-x="1501" d="M129 125q12 56 62.5 99.5t111.5 43.5q54 0 84.5 -44t18.5 -99q-10 -55 -57 -94t-103 -39q-62 0 -95 38.5t-22 94.5zM621 125q13 56 62 99.5t110 43.5q56 0 85 -43.5t17 -99.5q-11 -56 -57 -94.5t-103 -38.5q-62 0 -93.5 38t-20.5 95zM1110 125q12 56 62.5 99.5 t111.5 43.5q54 0 84 -44t18 -99q-10 -55 -56.5 -94t-102.5 -39q-62 0 -95 38.5t-22 94.5z" />
<glyph unicode="&#x202f;" horiz-adv-x="400" />
<glyph unicode="&#x2039;" horiz-adv-x="655" d="M188 555l385 451l175 -175l-244 -276q21 -48 67 -145.5t64 -137.5l-260 -163z" />
<glyph unicode="&#x203a;" horiz-adv-x="655" d="M123 272l252 283l-125 276l244 175l194 -451l-373 -446z" />
<glyph unicode="&#x205f;" horiz-adv-x="500" />
<glyph unicode="&#x20ac;" horiz-adv-x="1232" d="M160 451l55 262l111 4l12 61h-109l58 264l110 5q27 87 82.5 170.5t133.5 154t184.5 113.5t222.5 43q108 0 218 -54.5t148 -138.5l-292 -223q-6 6 -22 23.5t-25 25t-25 19t-33.5 16t-38.5 4.5q-70 0 -129 -37.5t-92 -107.5l-4 -8h360l-57 -269h-364l-13 -59h367l-57 -275 h-357q1 -43 32 -78.5t71 -46.5q21 -6 55 -6q21 0 40 4t41 16t31.5 18t36 25.5t31.5 22.5l193 -229q-75 -82 -205 -134t-238 -52q-65 0 -121 16q-143 37 -227 154l-10 16q-40 67 -55 131.5t-9 149.5h-110z" />
<glyph unicode="&#x2122;" horiz-adv-x="1773" d="M377 1300l47 216h610l-47 -216h-199l-151 -716h-215l151 716h-196zM877 588l196 928h264l80 -582l332 582h266l-198 -930h-213l110 522l-176 -317q-12 -22 -35.5 -62.5t-43 -75.5t-36.5 -67l-151 8q-13 100 -27 182q-11 59 -26 176t-17 129l-104 -493h-221z" />
<glyph unicode="&#xe000;" horiz-adv-x="1024" d="M0 0v1024h1024v-1024h-1024z" />
<glyph unicode="&#xfb01;" horiz-adv-x="1382" d="M262 0l156 739h-133l61 285h133l19 90q31 144 122.5 224.5t231.5 80.5h217l-59 -278h-109q-44 0 -66.5 -14.5t-31.5 -53.5l-10 -49h262l-62 -285h-262l-156 -739h-313zM991 0l217 1024h314l-217 -1024h-314zM1249 1217q12 62 69 108.5t122 46.5q61 0 99 -47.5t26 -107.5 q-15 -66 -72.5 -113t-120.5 -47q-66 0 -101.5 47t-21.5 113z" />
<glyph unicode="&#xfb02;" horiz-adv-x="1435" d="M262 0l156 739h-133l61 285h133l19 90q31 144 122.5 224.5t231.5 80.5h217l-59 -278h-109q-44 0 -66.5 -14.5t-31.5 -53.5l-10 -49h262l-62 -285h-262l-156 -739h-313zM1042 0l299 1415h314l-299 -1415h-314z" />
</font>
</defs>
</svg>
