<?xml version="1.0" standalone="no"?>
<!DOCTYPE svg PUBLIC "-//W3C//DTD SVG 1.1//EN" "http://www.w3.org/Graphics/SVG/1.1/DTD/svg11.dtd" >
<svg xmlns="http://www.w3.org/2000/svg">
<metadata></metadata>
<defs>
<font id="nanamilight_oblique" horiz-adv-x="1189" >
<font-face units-per-em="2048" ascent="1536" descent="-512" />
<missing-glyph horiz-adv-x="593" />
<glyph horiz-adv-x="2048" />
<glyph horiz-adv-x="2048" />
<glyph unicode="&#xd;" horiz-adv-x="2048" />
<glyph unicode=" "  horiz-adv-x="593" />
<glyph unicode="&#x09;" horiz-adv-x="593" />
<glyph unicode="&#xa0;" horiz-adv-x="593" />
<glyph unicode="!" horiz-adv-x="339" d="M94 84q8 37 41.5 64.5t71.5 27.5q37 0 58.5 -27.5t13.5 -64.5q-7 -38 -40.5 -65t-70.5 -27q-38 0 -59.5 27t-14.5 65zM135 270l268 1266h185l-269 -1266h-184z" />
<glyph unicode="&#x22;" horiz-adv-x="593" d="M281 938l127 598h143l-127 -598h-143zM567 938l127 598h144l-127 -598h-144z" />
<glyph unicode="#" horiz-adv-x="1316" d="M164 461l18 80h307l136 391h-295l18 80h309l146 420h78l-142 -420h348l146 420h74l-17 -52q-30 -85 -123 -368h295l-18 -80h-307l-138 -391h295l-18 -80h-307l-156 -461h-84l160 461h-352l-156 -461h-80l156 461h-293zM571 541h349l137 391h-350z" />
<glyph unicode="$" horiz-adv-x="966" d="M127 258l184 31q35 -123 195 -123q96 0 188 74t115 176q5 23 5.5 44t-4.5 40t-11 35.5t-19 32.5t-23 28t-28 25.5t-29.5 22t-32.5 21t-31.5 18.5t-31.5 17q-47 24 -72 37t-64.5 35.5t-59.5 40.5t-46.5 44t-37.5 53t-21 61.5t-8 75t12 88.5q30 139 140 250.5t249 150.5 l39 180h185l-37 -170q88 -15 152.5 -68.5t94.5 -131.5l-182 -84q-15 49 -62 78.5t-108 29.5q-92 0 -178.5 -68.5t-105.5 -156.5q-16 -79 2.5 -123.5t64.5 -73.5q27 -17 135.5 -73.5t149.5 -83.5q190 -129 137 -377q-32 -153 -155.5 -271.5t-274.5 -148.5l-39 -182h-184 l39 182q-115 24 -181 99t-61 165z" />
<glyph unicode="%" horiz-adv-x="1781" d="M311 1167q32 154 162.5 261.5t284.5 107.5t238.5 -107.5t52.5 -261.5q-34 -154 -164.5 -261t-284.5 -107t-238.5 107t-50.5 261zM426 39l1145 1513l80 -61l-1141 -1505zM457 1167q-20 -94 30 -158.5t144 -64.5t173 64.5t99 158.5t-31 159t-145 65t-172 -65t-98 -159z M1057 369q32 154 162 261t284 107t238.5 -107t52.5 -261t-162 -261.5t-284 -107.5t-238.5 107.5t-52.5 261.5zM1202 369q-20 -94 31 -159t145 -65t172.5 65t98.5 159t-31 158.5t-145 64.5t-172.5 -64.5t-98.5 -158.5z" />
<glyph unicode="&#x26;" horiz-adv-x="1449" d="M154 416q27 125 127 237.5t292 227.5q-77 93 -100 132q-57 100 -33 212q30 140 145.5 233.5t268.5 93.5q130 0 207 -97t49 -230q-25 -112 -83.5 -200.5t-174.5 -170.5l180 -233l221 297l144 -87l-242 -325l-16 -23l12 -16l258 -336l-158 -129l-237 311q-3 -6 -11 -15 t-10 -11q-67 -92 -132 -154t-126 -93.5t-114.5 -43.5t-114.5 -12q-182 0 -286.5 125t-65.5 307zM338 424q-22 -106 37 -182t168 -76q172 0 317 211q12 17 23 35.5t16.5 29t5.5 11.5l-227 292q-62 -33 -111 -63.5t-100 -71.5t-84.5 -88.5t-44.5 -97.5zM616.5 1199 q-0.5 -14 4 -38t17.5 -47t41 -56t69 -69q4 0 19 8t38 27t46 44.5t44 66t31 86.5q13 61 -22 105t-95 44q-68 0 -121.5 -37.5t-66.5 -101.5q-4 -18 -4.5 -32z" />
<glyph unicode="'" horiz-adv-x="305" d="M279 942l127 594h143l-127 -594h-143z" />
<glyph unicode="(" horiz-adv-x="514" d="M145 317l172 803q67 318 345 506l92 -119q-130 -104 -183 -201.5t-88 -263.5l-139 -649q-17 -82 -22.5 -137t0 -112.5t29 -108.5t67.5 -105l-142 -120q-199 187 -131 507z" />
<glyph unicode=")" horiz-adv-x="505" d="M59 -70q130 104 184 202.5t87 260.5l139 649q18 84 24 139t1 113t-29.5 108.5t-69.5 104.5l142 119q198 -184 131 -506l-172 -803q-67 -319 -344 -507z" />
<glyph unicode="*" horiz-adv-x="890" d="M274 1008l35 161l273 -36l-193 170l146 118l118 -227l21 279h164l-99 -279l217 227l95 -123l-263 -165l287 36l-35 -161l-270 39l193 -168l-148 -119l-119 227l-20 -278h-164l98 276l-217 -227l-94 121l262 168z" />
<glyph unicode="+" horiz-adv-x="1114" d="M139 457l27 127h450l95 440h127l-95 -440h451l-27 -127h-450l-96 -449h-127l96 449h-451z" />
<glyph unicode="," horiz-adv-x="276" d="M94 229l170 13l-69 -402h-64z" />
<glyph unicode="-" horiz-adv-x="808" d="M186 520l31 135h651l-30 -135h-652z" />
<glyph unicode="." horiz-adv-x="313" d="M86 80q7 35 39 59.5t68 24.5q32 0 52.5 -26t14.5 -58q-8 -36 -38.5 -62t-65.5 -26q-37 0 -57.5 25.5t-12.5 62.5z" />
<glyph unicode="/" horiz-adv-x="630" d="M47 31l764 1521l100 -32l-766 -1524z" />
<glyph unicode="0" horiz-adv-x="1228" d="M216.5 284q-23.5 91 0.5 199l121 568q27 132 119 246.5t222 182.5t263 68q88 0 168.5 -35.5t139 -98t83.5 -158t2 -205.5l-121 -568q-43 -202 -223 -350.5t-381 -148.5q-95 0 -178 37.5t-137.5 104.5t-78 158zM397 487q-27 -124 48 -220.5t204 -96.5t241 94t140 223 l119 560q28 128 -44.5 221.5t-201.5 93.5q-132 0 -246 -96t-141 -219z" />
<glyph unicode="1" horiz-adv-x="1228" d="M635 0l285 1346q5 12 2 19t-19 7h-207l35 164h416l-326 -1536h-186z" />
<glyph unicode="2" horiz-adv-x="1228" d="M158 0l20 158l604 501q170 136 249 241.5t102 213.5q21 100 -34.5 174t-168.5 74q-182 0 -350 -182l-64 141q90 100 206.5 161.5t246.5 61.5q190 0 287 -121t59 -303q-21 -100 -68.5 -185.5t-166.5 -210t-324 -290.5l-267 -217q-32 -27 -32 -29q0 -4 41 -4h622l-39 -184 h-923z" />
<glyph unicode="3" horiz-adv-x="1228" d="M252 160l123 159q113 -147 280 -147q141 0 246.5 92t130.5 209q26 127 -49.5 211t-224.5 90l-125 4l33 154l112 4q97 8 166.5 46t102.5 87.5t47 110.5q17 81 -31.5 138.5t-165.5 57.5q-70 0 -158.5 -41.5t-160.5 -107.5l-43 162q198 163 411 163q188 0 277.5 -109.5 t54.5 -271.5q-19 -92 -87 -174.5t-140 -117.5q-9 -4 -9 -11q-2 -3 9 -10q222 -138 168 -391q-42 -202 -209.5 -340.5t-384.5 -138.5q-231 0 -373 172z" />
<glyph unicode="4" horiz-adv-x="1228" d="M162 266l37 172l938 1098h151l-227 -1073q-3 -12 8 -12h145l-38 -185h-148q-9 0 -12 -12l-53 -254h-185l53 254q3 12 -10 12h-659zM408 457q-3 -6 6 -6h444q16 0 19 16l147 694q3 8 -2 8q-2 0 -8 -6l-602 -700q-4 -2 -4 -6z" />
<glyph unicode="5" horiz-adv-x="1228" d="M203 180l139 148q36 -80 108 -121t171 -41q140 0 257 98t148 238q29 137 -48 225t-220 88h-8q-103 0 -181 -29q-33 -10 -60.5 -22.5t-35.5 -15.5l-80 104l240 684h698l-39 -180h-516q-29 0 -33 -17q-25 -68 -73 -202t-52 -146l-10 -28l62 18q87 12 127 12 q106 0 193.5 -36.5t142.5 -102t77.5 -155.5t-0.5 -197q-46 -215 -229.5 -366.5t-398.5 -151.5q-126 0 -224.5 53t-154.5 143z" />
<glyph unicode="6" horiz-adv-x="1228" d="M195 508q31 142 127 264l659 778l139 -96l-362 -426q37 6 76 6q102 0 188.5 -35.5t145.5 -103t81 -165.5t-4 -222q-47 -221 -230.5 -372.5t-400.5 -151.5q-150 0 -257 68.5t-150 188.5t-12 267zM379 508q-31 -146 45.5 -243t224.5 -97q145 0 263 97t149 243 q31 142 -47 242t-219 100q-148 0 -266 -97t-150 -245z" />
<glyph unicode="7" horiz-adv-x="1228" d="M281 66l835 1277q4 4 4 9q0 6 -10 6h-635l39 178h852l14 -100l-944 -1444z" />
<glyph unicode="8" horiz-adv-x="1228" d="M229 282q-21 87 2 183q48 221 322 395q-129 131 -96 291q35 167 179.5 284t307.5 117q100 0 182 -50.5t121.5 -137t18.5 -184.5q-19 -87 -70 -159t-158 -161q88 -67 134 -169t20 -226q-28 -131 -118 -242.5t-213.5 -175t-250.5 -63.5q-99 0 -181 39t-130.5 105.5 t-69.5 153.5zM412 465q-26 -125 43.5 -213t193.5 -88t230 91t131 210q27 128 -41.5 213.5t-192.5 85.5q-125 0 -231.5 -88t-132.5 -211zM637 1151q-20 -92 32.5 -157.5t141.5 -65.5q91 0 170 67t98 156q19 91 -32 155t-142 64t-170 -65t-98 -154z" />
<glyph unicode="9" horiz-adv-x="1228" d="M300 798q-23 98 3 222q31 144 126.5 264.5t230.5 190t276 69.5q150 0 257 -69.5t149.5 -189.5t11.5 -265q-27 -140 -125 -264l-656 -774l-139 96l357 422q-34 -6 -74 -6q-102 0 -188.5 35.5t-146 103t-82.5 165.5zM487 1020q-29 -142 49.5 -242t219.5 -100q148 0 265 97 t148 245q32 146 -44 243t-224 97q-145 0 -263.5 -97t-150.5 -243z" />
<glyph unicode=":" horiz-adv-x="319" d="M88 80q7 35 39 59.5t68 24.5q32 0 52.5 -26t14.5 -58q-8 -36 -38.5 -62t-65.5 -26q-37 0 -57.5 25.5t-12.5 62.5zM248 836q7 35 38.5 59.5t67.5 24.5q33 0 54 -26t14 -58q-8 -35 -39 -61.5t-66 -26.5q-37 0 -57 25.5t-12 62.5z" />
<glyph unicode=";" horiz-adv-x="294" d="M96 229l170 13l-69 -402h-64zM248 836q7 35 38.5 59.5t67.5 24.5q33 0 54 -26t14 -58q-8 -35 -39 -61.5t-66 -26.5q-37 0 -57 25.5t-12 62.5z" />
<glyph unicode="&#x3c;" horiz-adv-x="1222" d="M145 453l31 135l1170 426l16 -101q-1 0 -71 -28t-198.5 -78.5t-240.5 -93.5l-506 -201l848 -389l-59 -100z" />
<glyph unicode="=" horiz-adv-x="1095" d="M143 303l29 135h934l-29 -135h-934zM203 582l28 135h934l-28 -135h-934z" />
<glyph unicode="&#x3e;" horiz-adv-x="1290" d="M111 123l1015 389l-424 201l-423 200l61 101l989 -426l-31 -135l-1169 -430z" />
<glyph unicode="?" horiz-adv-x="856" d="M324 492q17 83 53 153.5t80.5 119.5t94.5 92t98.5 79t90 71.5t72 80t41.5 94.5q38 178 -149 178q-33 0 -63.5 -8t-58 -25.5t-44.5 -30.5t-44 -37.5t-36 -31.5l-109 127q60 72 168 131t225 59q157 0 245 -95.5t52 -268.5q-15 -68 -49 -128t-77.5 -104.5t-93 -85t-98 -77 t-90 -72.5t-72 -79.5t-40.5 -90.5q-18 -89 12 -191l-176 -65q-57 91 -32 205zM330 84q9 38 41.5 65t70.5 27t59.5 -27t12.5 -65q-7 -38 -40 -65t-71 -27t-59.5 27t-13.5 65z" />
<glyph unicode="@" horiz-adv-x="1777" d="M219 719q37 173 138 327t255 271q156 116 326 174q186 63 365 63q132 0 260 -41q130 -43 209 -116q195 -177 133 -463q-59 -283 -318 -475q-148 -99 -291 -99q-46 0 -69.5 6.5t-44.5 24.5q-45 45 -25 146q-43 -44 -78 -73.5t-53 -40.5t-45 -26q-73 -37 -154 -37 q-129 0 -182 74t-22 213q45 213 194 350q71 66 152.5 102t160.5 36q84 0 128.5 -30t66.5 -114l92 127l101 -12l-234 -504q-12 -25 -20 -59q-21 -92 79 -92q118 0 234 110q167 139 217 373q51 233 -92 372.5t-432 139.5q-157 0 -312 -55q-161 -61 -280 -156 q-280 -212 -350 -526q-24 -122 -4 -226q21 -104 84 -184q77 -100 206 -154q131 -55 295 -55q345 0 588 141l25 -49q-145 -95 -299 -145q-161 -53 -324 -53q-160 0 -303 47q-143 52 -238 141q-211 199 -139 547zM754 647q-21 -104 10 -155q28 -60 117 -60q86 0 172 68 q83 63 133 172l71 149q14 33 23 66q12 68 -16 114q-37 64 -125 64q-123 0 -235.5 -122.5t-149.5 -295.5z" />
<glyph unicode="A" horiz-adv-x="1263" d="M23 0l864 1536h135l217 -1536h-197l-45 330q0 14 -16 14h-557q-17 0 -23 -14l-186 -330h-192zM516 539q0 -11 8 -11h432q17 0 17 11v6l-84 651q0 6 -4 6q-1 0 -4 -6l-361 -651z" />
<glyph unicode="B" horiz-adv-x="1062" d="M82 0l326 1536h348q198 0 298 -114q71 -82 71 -203q0 -47 -11 -101q-11 -51 -29 -94.5t-31 -68.5t-42 -58.5t-38 -42t-44 -41.5q96 -56 132 -158q21 -58 21 -125q0 -50 -12 -104q-41 -194 -189 -310t-347 -116h-453zM307 201v-5q0 -14 15 -14h253q75 0 135 25.5t95 66 t54.5 79t27.5 75.5q3 28 6 60q1 6 1 13q0 26 -10 53q-12 34 -32.5 62t-64.5 46t-105 18h-260q-14 -4 -14 -12zM453 879q-1 -3 -1 -6q0 -9 9 -9h155q75 0 135 25.5t95 66.5t54.5 79.5t27.5 76.5q6 24 6 48v6q0 22 -4 48q-4 28 -19 52t-37.5 44.5t-62 32t-90.5 11.5h-150 q-19 0 -22 -19z" />
<glyph unicode="C" horiz-adv-x="1423" d="M224 521q-4 40 -4 81q0 79 16 164q34 158 127.5 303.5t221.5 251t287 168.5t318 63q286 0 452 -166l-141 -151q-133 133 -356 133q-124 0 -245.5 -48t-218 -129.5t-166 -192.5t-95.5 -232q-11 -52 -11 -104q1 -59 15 -118q28 -110 92.5 -192t164.5 -133t214 -51 q219 0 408 133l75 -154q-235 -163 -522 -163q-127 0 -238.5 40.5t-191.5 112t-135 170t-67 214.5z" />
<glyph unicode="D" horiz-adv-x="1398" d="M82 0l326 1536h471q209 0 363 -103t218 -279q38 -104 37 -220q0 -80 -18 -166q-44 -210 -183 -386.5t-336.5 -279t-406.5 -102.5h-471zM307 197q-1 -2 -1 -4q0 -9 11 -9h275q155 0 305.5 80t256.5 214.5t140 289.5q13 63 13 122q1 90 -29 170q-50 134 -167.5 213 t-274.5 79h-271q-11 0 -14 -9z" />
<glyph unicode="E" horiz-adv-x="921" d="M84 0l326 1536h753l-39 -184h-557q-11 0 -14 -9l-100 -471q-3 -8 10 -8h557l-39 -184h-557q-11 0 -14 -10l-101 -473q-3 -13 10 -13h558l-39 -184h-754z" />
<glyph unicode="F" horiz-adv-x="921" d="M82 0l326 1536h757l-39 -184h-561q-14 0 -14 -13l-100 -462q0 -13 10 -13h561l-39 -184h-561q-11 0 -14 -12l-142 -668h-184z" />
<glyph unicode="G" horiz-adv-x="1605" d="M235 520q-4 38 -4 77q0 82 17 171q34 160 127 305t220.5 250t286 167t318.5 62q290 0 471 -190l-158 -131q-60 66 -152 101.5t-202 35.5q-162 0 -317 -80t-265 -218.5t-145 -301.5q-15 -64 -15 -125q0 -56 13 -108q26 -109 88.5 -190.5t163.5 -129t223 -47.5 q152 0 286 59.5t206 149.5l47 225h-543l39 184h733l-24 -118l-74 -342q-107 -145 -296 -243.5t-413 -98.5q-128 0 -239.5 40t-192 111t-134 169.5t-65.5 215.5z" />
<glyph unicode="H" horiz-adv-x="1171" d="M80 0l326 1536h184l-141 -664q-3 -12 10 -12h616q12 0 15 12l141 664h184l-325 -1536h-185l139 664q3 12 -8 12h-616q-6 0 -9.5 -2.5t-5.5 -5.5l-2 -4l-139 -664h-184z" />
<glyph unicode="I" horiz-adv-x="346" d="M80 0l326 1534h184l-326 -1534h-184z" />
<glyph unicode="J" horiz-adv-x="827" d="M94 223l185 72q13 -56 53.5 -91.5t101.5 -35.5q80 0 149.5 56.5t86.5 137.5l250 1178h184l-250 -1178q-34 -157 -168 -267.5t-291 -110.5q-119 0 -199 66t-102 173z" />
<glyph unicode="K" horiz-adv-x="966" d="M61 0l326 1536h184l-143 -676q0 -4 2 -4q40 40 584 680h211q-356 -420 -595 -692q-45 -52 -54.5 -63.5t-10.5 -16.5l338 -764h-221l-287 670q-4 4 -6 4l-143 -674h-185z" />
<glyph unicode="L" horiz-adv-x="919" d="M80 0l326 1536h184l-285 -1339q-3 -13 10 -13h562l-39 -184h-758z" />
<glyph unicode="M" horiz-adv-x="1519" d="M80 0l326 1534h266l153 -1200q3 -6 4 -6q5 0 5 6l663 1200h266l-325 -1532h-185l265 1241q0 2 -171 -307t-342.5 -620t-173.5 -316h-141l-162 1249l-264 -1249h-184z" />
<glyph unicode="N" horiz-adv-x="1327" d="M80 0l326 1534h227l479 -1245q3 -6 6 -6q2 0 2 6l266 1247h185l-326 -1536h-229l-479 1239q0 6 -5 6q-3 0 -6 -8l-262 -1237h-184z" />
<glyph unicode="O" horiz-adv-x="1705" d="M216 520q-4 38 -4 77q0 82 17 171q34 160 127 305t221 250t286.5 167t318.5 62q128 0 239.5 -40t191.5 -111t133 -169.5t65 -215.5q4 -38 4 -77q0 -82 -17 -171q-34 -160 -126.5 -305t-219.5 -250t-285.5 -167t-318.5 -62q-128 0 -240 40t-192 111t-134 169.5t-66 215.5z M412 535q26 -109 88.5 -190.5t163.5 -129t223 -47.5q163 0 318.5 80.5t265 219t143.5 300.5q14 66 14 129q0 91 -30 173q-51 138 -172.5 218t-284.5 80q-162 0 -317 -80t-265 -218.5t-145 -301.5q-15 -64 -15 -125q0 -56 13 -108z" />
<glyph unicode="P" horiz-adv-x="948" d="M80 0l326 1536h342q129 0 218 -61t123 -166q19 -59 19 -125q0 -52 -12 -109q-42 -198 -197.5 -334.5t-349.5 -136.5h-143q-12 0 -15 -12l-125 -592h-186zM436 801q-3 -15 15 -15h141q75 0 136 32.5t97.5 82t57 93.5t28.5 83q5 25 6 51v14q0 22 -2 46q-3 32 -16.5 60.5 t-35.5 53t-60.5 38.5t-89.5 14h-142q-19 0 -22 -19z" />
<glyph unicode="Q" horiz-adv-x="1705" d="M216 520q-4 38 -4 77q0 82 17 171q34 160 127 305t221 250t286.5 167t318.5 62q128 0 239.5 -40t191.5 -111t133 -169.5t65 -215.5q4 -38 4 -77q0 -82 -17 -171q-32 -152 -116 -290.5t-207 -246.5l92 -118l-162 -136l-98 136q-222 -129 -459 -129q-128 0 -240 40 t-192 111t-134 169.5t-66 215.5zM412 535q26 -109 88.5 -190.5t163.5 -129t223 -47.5q163 0 317 80l-160 219l158 129l170 -231q193 172 242 403q14 66 14 129q0 90 -30 173q-51 138 -172.5 218t-284.5 80q-162 0 -317 -80t-265 -218.5t-145 -301.5q-15 -64 -15 -125 q0 -56 13 -108z" />
<glyph unicode="R" horiz-adv-x="1056" d="M57 0l326 1536h395q214 0 320 -134q74 -94 75 -225q0 -56 -14 -118q-30 -139 -120.5 -249t-233.5 -175q-4 -2 -8 -14l237 -621h-219l-229 578q-3 12 -19 12h-186q-13 0 -16 -12l-121 -578h-187zM410 786q-1 -7 3 -10.5t13 -3.5h188q79 0 144 25.5t108.5 68.5t71 92.5 t39.5 104.5q5 37 7 77v6q0 36 -15 72q-16 38 -42 68.5t-75.5 49t-114.5 18.5h-188q-20 0 -23 -19z" />
<glyph unicode="S" horiz-adv-x="966" d="M127 258l184 31q35 -123 195 -123q96 0 188 74t115 176q5 23 5.5 44t-4.5 40t-11 35.5t-19 32.5t-23 28t-28 25.5t-29.5 22t-32.5 21t-31.5 18.5t-31.5 17q-47 24 -72 37t-64.5 35.5t-59.5 40.5t-46.5 44t-37.5 53q-11 28 -21 62q-8 29 -8 61v13q2 40 12 89 q24 112 102.5 208.5t187 152.5t218.5 56q114 0 197.5 -56t117.5 -150l-182 -84q-15 49 -62 78.5t-108 29.5q-92 0 -178.5 -68.5t-105.5 -156.5q-7 -37 -7 -66q-1 -33 9 -57q18 -44 65 -74q27 -17 135.5 -73.5t149.5 -83.5q149 -101 148 -274q0 -48 -11 -103 q-24 -116 -104 -215.5t-191 -157t-225 -57.5q-153 0 -247 82q-89 78 -89 181v11z" />
<glyph unicode="T" horiz-adv-x="1083" d="M340 1352l39 184h977l-39 -184h-383q-18 0 -21 -17l-282 -1335h-185l283 1335q3 17 -10 17h-379z" />
<glyph unicode="U" horiz-adv-x="1067" d="M168 438l233 1098h185l-230 -1079q-7 -36 -7 -68q-1 -77 41 -137q60 -84 177 -84t212 80.5t120 197.5l231 1090h185l-236 -1104q-25 -121 -109.5 -225t-202.5 -163.5t-239 -59.5q-124 0 -216 60q-92 62 -131 166q-23 63 -23 132q0 46 10 96z" />
<glyph unicode="V" horiz-adv-x="1259" d="M344 1536h197l153 -1202q3 -6 4 -6q4 0 4 6l670 1202h195l-871 -1536h-135z" />
<glyph unicode="W" horiz-adv-x="1787" d="M362 1536h195l39 -1182q0 -6 4 -6q2 2 4 6q-3 1 253 569t280 613h153v-6q0 -17 2 -80q4 -82 10.5 -236t10.5 -276l18 -584q0 -6 4 -6q2 2 4 6l541 1182h195l-740 -1536h-149l-56 1124l-4 4q-4 0 -528 -1128h-143z" />
<glyph unicode="X" horiz-adv-x="1230" d="M25 0l630 754q1 1 2 4.5t2 5.5q0 12 -2 14l-307 758h223l236 -575q3 -7 10 -7q5 0 8 7l480 575h223l-633 -758q-1 -3 -2.5 -5.5t-2.5 -4t-1 -2.5q0 -6 2 -12l309 -754h-221l-238 573q-3 7 -6 7q-7 0 -10 -7l-479 -573h-223z" />
<glyph unicode="Y" horiz-adv-x="1071" d="M342 1536h203l157 -711q3 -8 7 -8q7 0 10 8l459 711h200l-633 -981l-116 -555h-185l117 555z" />
<glyph unicode="Z" horiz-adv-x="1107" d="M68 0l30 145l971 1194q2 2 2 7q3 6 -6 6h-711l39 184h971l-29 -131l-981 -1208q-4 -4 -4 -7q0 -6 8 -6h721l-39 -184h-972z" />
<glyph unicode="[" horiz-adv-x="557" d="M10 -301l418 1960h403l-28 -131h-228l-360 -1698h227l-28 -131h-404z" />
<glyph unicode="\" horiz-adv-x="630" d="M362 1520l117 32l117 -1521l-115 -35z" />
<glyph unicode="]" horiz-adv-x="499" d="M-16 -301l26 131h228l360 1698h-227l28 131h404l-418 -1960h-401z" />
<glyph unicode="^" horiz-adv-x="1032" d="M242 831l534 705h131l236 -707l-178 -57l-170 543l-400 -541z" />
<glyph unicode="_" horiz-adv-x="1296" d="M-51 -246l24 115h1295l-25 -115h-1294z" />
<glyph unicode="`" horiz-adv-x="548" d="M330 1298l67 105l359 -162l-68 -106z" />
<glyph unicode="a" d="M174 514q46 218 233 372t408 154q199 0 324 -135l26 121h174l-217 -1026h-174l25 119q-185 -135 -381 -135q-145 0 -252.5 70.5t-151.5 192.5q-26 72 -27 152q0 55 13 115zM350 514q-9 -42 -9 -81q0 -97 58 -171q81 -102 230 -102q148 0 272 102.5t156 251.5q9 41 9 78 q0 98 -59 172q-81 102 -229 102q-149 0 -273 -102t-155 -250z" />
<glyph unicode="b" horiz-adv-x="1214" d="M78 0l305 1436h174l-115 -531q178 135 381 135q145 0 252.5 -70.5t152.5 -191.5q27 -73 27 -153q0 -54 -12 -111q-31 -145 -127.5 -267t-233.5 -192.5t-282 -70.5q-205 0 -324 135l-24 -119h-174zM360 514q-9 -42 -9 -81q-1 -97 57 -171q80 -102 229 -102t273.5 102.5 t156.5 251.5q9 41 9 78q0 98 -60 172q-82 102 -230 102t-271.5 -102t-154.5 -250z" />
<glyph unicode="c" horiz-adv-x="1138" d="M174 514q46 218 233 372t408 154q123 0 220 -58.5t159 -156.5l-160 -104q-29 68 -97 106.5t-159 38.5q-149 0 -273 -102t-155 -250q-9 -42 -9 -81q0 -97 58 -171q81 -102 230 -102q99 0 193 46.5t147 125.5l153 -58q-90 -134 -232 -212t-298 -78q-145 0 -252.5 70.5 t-151.5 192.5q-26 72 -27 152q0 55 13 115z" />
<glyph unicode="d" horiz-adv-x="1157" d="M158 514q46 218 233 372t408 154q204 0 323 -135l115 531h174l-305 -1436h-174l24 119q-178 -135 -381 -135q-145 0 -252 70.5t-151 192.5q-26 72 -27 152q0 55 13 115zM334 514q-9 -42 -9 -81q-1 -97 57 -171q80 -102 230 -102q148 0 272 102.5t156 251.5q9 41 9 79 q-1 98 -59 171q-80 102 -228 102q-149 0 -273 -102t-155 -250z" />
<glyph unicode="e" horiz-adv-x="1110" d="M174 514q30 144 120.5 264.5t222.5 191t276 70.5q138 0 232 -68q93 -69 127 -182q18 -61 18 -127q0 -58 -13 -120l-22 -101h-797v-6q0 -124 78 -199q80 -77 213 -77q180 0 332 88l40 -142q-95 -59 -204 -90.5t-205 -31.5q-145 0 -252.5 70.5t-151.5 192.5q-26 72 -27 152 q0 55 13 115zM375 592h610q5 24 5 47q0 40 -15 80q-24 63 -84 105t-141 42q-121 0 -219 -72t-152 -190q0 -2 -2 -6t-2 -6z" />
<glyph unicode="f" horiz-adv-x="731" d="M207 0l180 850h-158l33 158h158l37 176q24 114 106.5 182t188.5 68h180l-33 -158h-135q-112 0 -137 -115l-33 -153h295l-33 -158h-295l-180 -850h-174z" />
<glyph unicode="g" horiz-adv-x="1187" d="M111 -315l157 102q72 -117 246 -117q151 0 279.5 106t160.5 257l19 88q-178 -135 -381 -135q-145 0 -252.5 70.5t-151.5 191.5q-27 71 -27 150q0 55 13 114q30 145 126.5 267t234 192.5t282.5 70.5q202 0 324 -135l24 119h174l-211 -991q-31 -146 -128.5 -269 t-236 -194.5t-284.5 -71.5q-122 0 -216.5 48.5t-151.5 136.5zM369 512q-9 -42 -9 -80q0 -97 58 -170q80 -102 229 -102q148 0 272 102t156 250q9 41 9 79q0 98 -58 173q-81 102 -229 102q-149 0 -273 -102.5t-155 -251.5z" />
<glyph unicode="h" horiz-adv-x="1050" d="M78 0l303 1434h174l-100 -480q133 86 286 86q118 0 209.5 -55.5t133.5 -152.5q27 -62 27 -130q0 -39 -9 -81l-131 -621h-174l125 596q6 29 6 56q0 74 -46 134q-64 82 -173 82q-272 0 -330 -262l-127 -606h-174z" />
<glyph unicode="i" horiz-adv-x="321" d="M74 0l217 1024h174l-217 -1024h-174zM338 1249q7 35 38.5 59.5t67.5 24.5q33 0 54 -26q16 -20 16 -42q0 -8 -2 -16q-8 -36 -38.5 -62t-65.5 -26q-38 -1 -58 25q-15 18 -14 43q0 10 2 20z" />
<glyph unicode="j" horiz-adv-x="401" d="M-35 -498l35 176q2 1 18.5 6t26.5 8.5t27 13t28 20t22 28.5t15 39l262 1231h174l-282 -1319q-14 -62 -70.5 -110t-124.5 -70.5t-131 -22.5zM446 1249q7 35 39 59.5t68 24.5q33 0 54 -26q16 -19 16 -42q0 -8 -2 -16q-8 -35 -39 -61.5t-66 -26.5q-37 0 -58 25 q-14 19 -14 43q0 10 2 20z" />
<glyph unicode="k" horiz-adv-x="782" d="M80 0l305 1436h174l-178 -834q0 -6 2 -6q3 0 10 10l389 418h217l-460 -492l233 -532h-209l-201 461q0 8 -6 8q-4 0 -4 -6l-98 -463h-174z" />
<glyph unicode="l" horiz-adv-x="331" d="M78 0l303 1432h174l-303 -1432h-174z" />
<glyph unicode="m" horiz-adv-x="1769" d="M78 0l217 1024h174l-16 -72q134 88 288 88q108 0 194 -46t132 -126q79 80 182 126t211 46q118 0 209.5 -55.5t133.5 -152.5q27 -62 27 -130q0 -39 -9 -81l-131 -621h-174l124 596q6 29 6 56q0 74 -46 134q-64 82 -173 82q-106 0 -207 -75t-124 -177l-129 -616h-170 l125 596q6 29 6 56q0 74 -46 134q-64 82 -173 82q-274 0 -328 -258l-129 -610h-174z" />
<glyph unicode="n" horiz-adv-x="1050" d="M78 0l217 1024h174l-16 -72q134 88 288 88q118 0 209.5 -55.5t133.5 -152.5q27 -62 27 -130q0 -39 -9 -81l-131 -621h-174l125 596q6 29 6 56q0 74 -46 134q-64 82 -173 82q-272 0 -330 -262l-127 -606h-174z" />
<glyph unicode="o" d="M174 514q46 218 233 372t408 154q143 0 249.5 -70.5t151.5 -191.5q27 -73 27 -153q0 -54 -12 -111q-31 -145 -127.5 -267t-232.5 -192.5t-279 -70.5q-145 0 -252.5 70.5t-151.5 192.5q-26 72 -27 152q0 55 13 115zM350 514q-9 -42 -9 -81q0 -97 58 -171q81 -102 230 -102 q148 0 272 102.5t156 251.5q9 41 9 78q0 98 -59 172q-81 102 -229 102q-149 0 -273 -102t-155 -250z" />
<glyph unicode="p" horiz-adv-x="1214" d="M-10 -420l305 1446h174l-25 -119q175 135 381 135q145 0 252 -70.5t151 -192.5q27 -73 27 -154q0 -55 -12 -113q-31 -143 -127.5 -264t-233.5 -191.5t-282 -70.5q-205 0 -324 135l-114 -541h-172zM360 512q-9 -42 -9 -80q0 -97 57 -170q81 -102 229 -102q149 0 273.5 102 t156.5 250q9 41 9 79q0 98 -60 173q-81 102 -230 102q-148 0 -271.5 -102.5t-154.5 -251.5z" />
<glyph unicode="q" horiz-adv-x="1157" d="M156 512q30 145 126.5 267t234 192.5t282.5 70.5q201 0 323 -135l25 119h174l-307 -1446h-174l114 541q-178 -135 -381 -135q-145 0 -252 70.5t-151 191.5q-27 71 -27 150q0 55 13 114zM332 512q-9 -42 -9 -80q0 -97 57 -170q81 -102 230 -102q148 0 272 102t156 250 q9 41 9 79q0 98 -59 173q-80 102 -228 102q-149 0 -273 -102.5t-155 -251.5z" />
<glyph unicode="r" horiz-adv-x="692" d="M78 0l217 1024h174l-16 -72q67 43 131.5 63.5t191.5 24.5h62l-37 -176h-43q-156 -5 -253 -64t-126 -194l-127 -606h-174z" />
<glyph unicode="s" horiz-adv-x="700" d="M100 139l160 97q1 -2 8 -14.5t10 -16t10.5 -13.5t14.5 -14l17.5 -10t23.5 -8t29 -2q48 0 90.5 33.5t52.5 80.5q2 11 2 22q0 98 -168 210q-49 32 -77 62q-29 28 -43 76q-8 25 -7 54q0 26 6 54q25 117 130.5 203.5t222.5 86.5q71 0 134 -37.5t83 -91.5l-158 -116 q-4 5 -14 19t-16 20t-17 15t-25 13t-32 4q-50 0 -85 -28.5t-44 -75.5q-6 -25 8.5 -50.5t32.5 -40.5t59.5 -45.5t60.5 -45.5q27 -22 46.5 -42.5t40 -50t28.5 -59.5q10 -30 14 -72q1 -11 1 -22q0 -31 -9 -64q-28 -125 -130.5 -205.5t-229.5 -80.5q-85 0 -153 44t-77 111z" />
<glyph unicode="t" horiz-adv-x="856" d="M223 850l33 158h297l68 315h174l-68 -315h295l-33 -158h-295l-180 -850h-174l180 850h-297z" />
<glyph unicode="u" horiz-adv-x="1040" d="M160 408l131 614h174l-127 -590q-6 -29 -6 -55q0 -75 48 -135q64 -82 173 -82q57 0 105.5 12.5t94.5 41t79 81.5t49 127l129 600h174l-217 -1022h-168l14 76q-139 -92 -295 -92q-117 0 -208.5 57t-132.5 155q-26 62 -26 130q0 40 9 82z" />
<glyph unicode="v" horiz-adv-x="927" d="M246 1024h188l84 -727l2 -21l8 15l400 731l188 2l-581 -1024h-146z" />
<glyph unicode="w" horiz-adv-x="1515" d="M250 1024h186l76 -733v-15l8 15l387 733h137l72 -731v-17l10 19l383 729h187l-566 -1024h-149l-78 700l-235 -438l-140 -262h-147z" />
<glyph unicode="x" horiz-adv-x="874" d="M10 0l418 496l12 14l-4 12l-215 504h211l137 -336l9 -18l16 18l283 334h206l-421 -498l-15 -16l8 -16l209 -494h-207l-141 330l-8 16l-19 -22l-272 -324h-207z" />
<glyph unicode="y" horiz-adv-x="897" d="M113 -422l233 406l12 24l-2 17l-135 999h187l94 -743l2 -19l12 25l414 741h182l-819 -1450h-180z" />
<glyph unicode="z" horiz-adv-x="870" d="M82 0l22 115l230 266l399 463l17 18h-486l35 162h696l-28 -133l-629 -729h487l-32 -162h-711z" />
<glyph unicode="{" horiz-adv-x="821" d="M270 598l41 195q108 11 169 76t89 200l56 260q29 134 70 206.5t120 115.5q50 26 98 35.5t134 9.5l-35 -164q-99 -10 -151 -65t-77 -173l-55 -262q-16 -75 -35.5 -125t-52 -92.5t-80.5 -69.5t-119 -45q-8 0 -8 -4t6 -4q84 -24 122.5 -66t41 -107t-17.5 -159l-56 -262 q-25 -118 3.5 -172.5t123.5 -64.5l-36 -164q-84 0 -127 9.5t-84 35.5q-61 43 -72.5 119t18.5 202l56 261q29 134 -5 198.5t-137 75.5z" />
<glyph unicode="|" horiz-adv-x="315" d="M74 -16l338 1593h157l-338 -1593h-157z" />
<glyph unicode="}" horiz-adv-x="856" d="M80 -303l33 164q100 10 152 64.5t77 172.5l55 262q16 75 34.5 125t51 92.5t80.5 69.5t119 45q10 0 10 4t-8 4q-84 24 -122 66t-40 107t19 159l55 262q25 118 -4 173t-125 65l35 164q86 0 130.5 -9.5t84.5 -35.5q61 -43 71 -119.5t-20 -202.5l-55 -260 q-28 -135 5.5 -200.5t137.5 -75.5l-41 -195q-109 -11 -170 -75t-90 -199l-55 -261q-29 -134 -69.5 -206t-119.5 -115q-55 -26 -101.5 -35.5t-129.5 -9.5z" />
<glyph unicode="~" horiz-adv-x="1249" d="M168 457q3 18 27.5 49.5t65 67t106 62.5t137.5 30h26q50 -2 113 -26.5t112.5 -52.5t108 -52.5t101.5 -26.5h8q76 0 149.5 40t124.5 105l53 -67q-4 -18 -27.5 -49.5t-63.5 -67t-105 -62.5t-137 -30h-17q-52 0 -116 23.5t-115 52t-111 54t-104 28.5h-29q-69 0 -136.5 -41.5 t-117.5 -104.5z" />
<glyph unicode="&#xa1;" horiz-adv-x="339" d="M76 -8l268 1265h184l-268 -1265h-184zM383 1444q9 38 42 65t71 27q37 0 58.5 -27t12.5 -65q-8 -37 -40.5 -64.5t-69.5 -27.5q-38 0 -60 27.5t-14 64.5z" />
<glyph unicode="&#xa2;" horiz-adv-x="1122" d="M166 514q39 188 189 332.5t339 181.5l41 186h174l-39 -178q195 -31 316 -211l-160 -104q-51 113 -192 139l-148 -696q83 14 157.5 58.5t117.5 109.5l153 -58q-79 -121 -203.5 -196.5t-263.5 -89.5l-35 -166h-174l37 174q-173 37 -261.5 182.5t-47.5 335.5zM342 514 q-26 -120 21.5 -211t150.5 -127l143 674q-118 -35 -204 -126.5t-111 -209.5z" />
<glyph unicode="&#xa3;" horiz-adv-x="1196" d="M162 0l39 186h67q66 0 127.5 46t81.5 141q11 52 -6 142.5t-38 155t-25 64.5h-132l29 133h74q-19 114 2 219q42 196 203.5 330.5t361.5 134.5q215 0 332 -139l-168 -119q-45 72 -199 72q-116 0 -215.5 -77t-122.5 -183q-11 -52 -13 -110.5t1.5 -92t7.5 -33.5h381l-28 -135 h-326q52 -135 67 -215.5t1 -144.5q-18 -86 -119 -187h205q121 0 190.5 56t95.5 172l181 -6q-21 -98 -61.5 -171.5t-92 -118.5t-120 -72.5t-137.5 -37.5t-153 -10h-491z" />
<glyph unicode="&#xa4;" horiz-adv-x="1275" d="M121 219l233 195l-8 22q-55 125 -27 258q13 70 50 131.5t94 130.5l16 21l-157 197l100 81l153 -198l23 12q91 45 156 65.5t135 20.5q61 0 115 -21.5t118 -64.5l19 -12l241 196l64 -79l-236 -195l9 -21q59 -126 30 -266q-23 -118 -137 -258l-18 -20l153 -195l-96 -82 l-154 197l-26 -17q-137 -88 -289 -88q-115 0 -246 88l-16 13l-23 -17l-213 -176zM467 694q-29 -130 45 -224.5t205 -94.5q129 0 243.5 94.5t143.5 224.5q28 130 -47 226t-203 96q-129 0 -245 -96.5t-142 -225.5z" />
<glyph unicode="&#xa5;" horiz-adv-x="1251" d="M178 586l29 135h409l-49 225h-311l29 135h252l-103 455h199l162 -711q3 -8 6 -8q7 0 10 8l459 711h203l-295 -455h243l-28 -135h-303l-146 -225h399l-28 -135h-459l-18 -31l-117 -555h-184l116 555l-8 31h-467z" />
<glyph unicode="&#xa6;" horiz-adv-x="313" d="M72 -23l139 650h158l-140 -650h-157zM274 930l138 649h157l-137 -649h-158z" />
<glyph unicode="&#xa7;" horiz-adv-x="1167" d="M53 -319l158 147q3 -3 22.5 -23.5t29 -29.5t33 -26t44.5 -25.5t54 -15.5t69 -7q58 0 110.5 14t94.5 47.5t51 79.5q11 39 0.5 71t-29 55.5t-55 46t-77 42t-93.5 42.5q-22 9 -33 14l-37 16q-120 47 -186.5 139.5t-38.5 227.5q21 96 70.5 157.5t162.5 143.5l64 45 q-46 38 -68 78.5t-21.5 77.5t7.5 79q22 103 94.5 182.5t176.5 121.5t223 42q113 0 220.5 -32.5t162.5 -87.5l-166 -183q-6 5 -38.5 31.5t-50.5 37.5t-57 23.5t-84 12.5q-98 0 -172.5 -44.5t-93.5 -131.5q-6 -29 2.5 -54t24.5 -43.5t52.5 -41t68.5 -38.5t91 -46t103 -54 q144 -66 208 -148.5t40 -191.5q-12 -58 -31.5 -100.5t-57 -86t-97.5 -84t-150 -85.5q61 -53 76.5 -107.5t-4.5 -138.5q-30 -145 -165 -240.5t-302 -95.5q-125 0 -244.5 56t-161.5 131zM369 428q9 -38 31 -63t40 -39.5t35 -22.5l281 -129l30 16q45 24 78 47.5t66.5 68.5 t46.5 100q29 144 -158 225l-250 108l-32 -22q-1 -1 -19 -14t-24 -18t-23.5 -19.5t-26 -24t-23 -26t-23 -31.5t-16.5 -34.5t-13 -39.5q-9 -44 0 -82z" />
<glyph unicode="&#xa8;" horiz-adv-x="645" d="M346 1284q7 35 38 59.5t67 24.5q32 0 53.5 -26t15.5 -58q-8 -36 -38.5 -62t-65.5 -26q-37 0 -57.5 25.5t-12.5 62.5zM668 1284q7 35 38 59.5t66 24.5q32 0 54 -26t16 -58q-8 -35 -39 -61.5t-66 -26.5q-37 0 -57 25.5t-12 62.5z" />
<glyph unicode="&#xa9;" horiz-adv-x="1617" d="M210 504q-12 110 11 233q32 151 121.5 289t210.5 237.5t270.5 158.5t298.5 59q204 0 354 -100t211.5 -271t18.5 -373q-32 -150 -119 -286.5t-206.5 -236.5t-270 -159t-303.5 -59q-119 0 -224 38t-181 106t-128 161t-64 203zM322 737q-37 -174 16.5 -321.5t183 -233.5 t305.5 -86q175 0 343.5 85.5t288.5 233.5t157 322q20 108 9.5 204t-55.5 177t-111.5 139t-159 90.5t-197.5 32.5q-176 0 -342.5 -85.5t-283.5 -233.5t-154 -324zM530 737q40 191 207 329t367 138q71 0 131 -21.5t84.5 -40t40.5 -36.5l-76 -96q-71 84 -203 84 q-156 0 -283 -103t-159 -254q-31 -142 55 -248t234 -106q126 0 237 80l47 -90q-24 -28 -111 -64.5t-194 -36.5q-132 0 -228.5 64t-135.5 170.5t-13 230.5z" />
<glyph unicode="&#xaa;" horiz-adv-x="845" d="M305 1133q31 147 157.5 250.5t276.5 103.5q135 0 217 -92l17 71h117l-148 -692l-104 62l6 30q-123 -92 -256 -92q-149 0 -232 105t-51 254zM424 1133q-22 -103 31.5 -171.5t156.5 -68.5q99 0 183 69t106 171q22 98 -33 167.5t-153 69.5q-102 0 -185.5 -69t-105.5 -168z " />
<glyph unicode="&#xab;" horiz-adv-x="770" d="M160 553l340 397l96 -73l-277 -326l140 -324l-129 -73q-87 207 -152 352q-19 43 -18 47zM455 553l340 397l96 -73l-277 -326l140 -324l-129 -73q-87 207 -152 352q-19 43 -18 47z" />
<glyph unicode="&#xac;" horiz-adv-x="1157" d="M184 674l29 135h1071l-137 -649h-135l108 514h-936z" />
<glyph unicode="&#xad;" horiz-adv-x="808" d="M186 520l31 135h651l-30 -135h-652z" />
<glyph unicode="&#xae;" horiz-adv-x="1699" d="M215.5 522q-12.5 116 11.5 246q45 210 190 391t348.5 287t412.5 106q108 0 204.5 -28.5t171 -80t132 -123t87.5 -159t38 -187t-17 -206.5q-33 -158 -125 -302.5t-218.5 -250.5t-285.5 -168.5t-321 -62.5q-126 0 -236.5 40.5t-190.5 112.5t-134.5 170.5t-67 214.5z M330 768q-39 -187 18 -343.5t194 -247.5t322 -91q140 0 279.5 53.5t252.5 144.5t196 218t112 266q22 115 11 216.5t-59.5 187t-120 147.5t-170 96.5t-210.5 34.5q-185 0 -361 -91t-300 -247.5t-164 -343.5zM694 313l195 914h201q116 0 173.5 -77t32.5 -194 q-19 -84 -69.5 -149t-124.5 -100q-3 0 -6 -9l90 -383h-115l-86 355q-3 8 -12 8h-84q-7 0 -10 -8l-76 -357h-109zM905 793q-1 -3 1 -5t7 -2h84q44 0 80.5 19t58 48t34.5 54.5t18 48.5q3 17 3.5 36.5t-5.5 43t-18 41.5t-37.5 30.5t-61.5 12.5h-84q-11 0 -14 -12z" />
<glyph unicode="&#xaf;" horiz-adv-x="800" d="M356 1311l29 135h643l-29 -135h-643z" />
<glyph unicode="&#xb0;" horiz-adv-x="792" d="M309 1153q29 137 146.5 233.5t253.5 96.5q137 0 213 -97t47 -233q-29 -137 -146.5 -233.5t-253.5 -96.5q-137 0 -213 97t-47 233zM401 1153q-20 -98 35.5 -168t153.5 -70t182.5 70t104.5 168q22 98 -33.5 168t-153.5 70t-182.5 -70t-106.5 -168z" />
<glyph unicode="&#xb1;" horiz-adv-x="1191" d="M70 61l28 136h1080l-29 -136h-1079zM182 588l27 127h473l72 344h127l-72 -344h479l-26 -127h-480l-71 -334h-127l71 334h-473z" />
<glyph unicode="&#xb2;" horiz-adv-x="770" d="M231 614l29 134q6 6 159 121.5t269.5 224t130.5 172.5q15 70 -25.5 121t-109.5 51q-56 0 -108.5 -33t-83.5 -86l-97 35q46 85 133 139.5t179 54.5q117 0 182.5 -83t40.5 -199q-12 -55 -59 -120t-127 -136.5t-140.5 -120.5t-152.5 -117l-35 -27q-21 -14 -21 -16 q0 -4 25 -4h401l-24 -111h-566z" />
<glyph unicode="&#xb3;" horiz-adv-x="745" d="M260 838l115 18q3 -62 43 -101.5t104 -39.5q71 0 136.5 53t82.5 129q16 76 -20 138.5t-107 66.5q-12 0 -14 2l14 94l9 6q54 33 75 57q27 33 37 80q9 41 -6 72t-57 31q-38 0 -63 -14.5t-60 -49.5l-80 56q16 27 43 47q44 37 86 54t102 17q71 0 118.5 -54.5t29.5 -137.5 q-11 -50 -31 -92.5t-65 -91.5q-2 -2 -4 -3.5t-3 -2.5t-2 -1l15 -10q130 -86 92 -264q-26 -120 -129 -205.5t-223 -85.5q-102 0 -170.5 66.5t-67.5 165.5z" />
<glyph unicode="&#xb4;" horiz-adv-x="552" d="M317 1241l428 162l23 -105l-428 -163z" />
<glyph unicode="&#xb6;" horiz-adv-x="1175" d="M285 1094q23 107 76 180.5t133 112.5t168.5 55t203.5 16h564l-404 -1894h-184l364 1716h-219l-364 -1716h-185l252 1179q-218 5 -328 98t-77 253z" />
<glyph unicode="&#xb7;" horiz-adv-x="309" d="M231 778q7 35 39 59.5t68 24.5q33 0 54 -26t14 -58q-8 -35 -39 -61.5t-66 -26.5q-37 0 -57.5 25.5t-12.5 62.5z" />
<glyph unicode="&#xb8;" horiz-adv-x="528" d="M-14 -344l63 45l35 -18q38 -19 98 -19q35 0 69.5 22.5t41.5 57.5q8 38 -11.5 60t-48.5 22q-6 0 -34 -3t-45 -3l-54 30l140 150h88l-103 -104q3 0 23 3t45 3q67 0 101.5 -42t19.5 -114q-14 -63 -60.5 -108t-100.5 -64.5t-108 -19.5q-63 0 -118 51q-6 6 -41 51z" />
<glyph unicode="&#xb9;" horiz-adv-x="313" d="M299 614l172 807q3 7 1 12t-11 5h-123l20 98h250l-196 -922h-113z" />
<glyph unicode="&#xba;" horiz-adv-x="841" d="M305 1128q31 147 156 250t274 103q146 0 228 -103.5t51 -249.5q-32 -149 -157 -252.5t-271 -103.5q-149 0 -231 103.5t-50 252.5zM424 1128q-22 -100 32 -168.5t154 -68.5q98 0 181.5 68.5t105.5 168.5q20 98 -34 167t-152 69q-100 0 -183.5 -69t-103.5 -167z" />
<glyph unicode="&#xbb;" horiz-adv-x="806" d="M90 227l279 324l-142 326l129 73l172 -397q-1 -4 -43 -52q-128 -147 -299 -347zM385 227l279 324l-142 326l129 73l172 -397q-1 -4 -43 -52q-128 -147 -299 -347z" />
<glyph unicode="&#xbc;" horiz-adv-x="1513" d="M301 541l184 874q4 19 -10 19h-133l23 106h268l-211 -999h-121zM397 31l764 1521l101 -32l-766 -1524zM791 174l22 111l608 714h99l-148 -698q-3 -8 6 -8h95l-25 -119h-94q-11 0 -11 -8l-34 -166h-119l35 166q0 8 -6 8h-428zM950 301q-3 -8 2 -8h289q9 0 12 10l97 453 q0 4 -4 4q-6 -1 -396 -459z" />
<glyph unicode="&#xbd;" horiz-adv-x="1572" d="M301 541l184 874q4 19 -10 19h-133l23 106h268l-211 -999h-121zM397 31l764 1521l101 -32l-766 -1524zM879 0l28 141q19 17 122 95.5t198 154t182 165.5t98 144q17 77 -26 131t-119 54q-61 0 -117 -35t-88 -92l-104 37q51 92 144.5 150.5t191.5 58.5q125 0 195 -90 t44 -214q-6 -31 -22 -64t-46.5 -70.5t-55.5 -66.5t-73.5 -72t-74.5 -66t-85 -69t-79 -61t-80 -61l-37 -29q-22 -16 -22 -18q0 -4 26 -4h432l-24 -119h-608z" />
<glyph unicode="&#xbe;" horiz-adv-x="1716" d="M223 768l123 18q3 -67 45 -109t113 -42q79 0 148.5 57.5t86.5 138.5q18 84 -20.5 149.5t-114.5 72.5h-16l14 102q2 1 20 12t23 14.5t20.5 15t22 20.5t17 23t16.5 31.5t10 37.5q10 43 -4.5 76.5t-58.5 33.5t-68.5 -14.5t-64.5 -54.5l-91 61q17 21 50 51q50 40 93.5 58 t108.5 18q75 0 127 -59t33 -148q-9 -39 -17.5 -64.5t-33 -65t-62.5 -77.5q159 -89 115 -293q-28 -129 -139 -221t-240 -92q-109 0 -185.5 72.5t-70.5 177.5zM616 31l764 1521l101 -32l-766 -1524zM1010 174l22 111l608 714h99l-148 -698q-3 -8 6 -8h95l-25 -119h-94 q-10 0 -10 -8l-35 -166h-119l35 166q0 8 -6 8h-428zM1169 301q-3 -8 2 -8h289q10 0 13 10l96 453q0 4 -4 4q-6 -1 -396 -459z" />
<glyph unicode="&#xbf;" horiz-adv-x="856" d="M137 356q15 68 49 128t77.5 104.5t93 85t98.5 77t90.5 72.5t72.5 79.5t41 90.5q11 59 -14 191l176 65q57 -91 35 -205q-18 -83 -54 -153.5t-80.5 -119.5t-95 -92t-99 -79t-90 -71.5t-72 -80t-41.5 -94.5q-38 -178 151 -178q41 0 81.5 16t60.5 30t58.5 47.5t45.5 39.5 l106 -127q-58 -72 -166 -131t-225 -59q-158 0 -246.5 95.5t-52.5 268.5zM664 1452q9 38 41.5 65t70.5 27t59.5 -27t12.5 -65q-7 -38 -40 -65t-71 -27t-59.5 27t-13.5 65z" />
<glyph unicode="&#xc0;" horiz-adv-x="1263" d="M23 0l864 1536h135l217 -1536h-197l-45 330q0 14 -16 14h-557q-17 0 -23 -14l-186 -330h-192zM516 539q0 -11 8 -11h432q17 0 17 11v6l-84 651q0 6 -4 6q-1 0 -4 -6l-361 -651zM772 1708l68 104l358 -161l-68 -107z" />
<glyph unicode="&#xc1;" horiz-adv-x="1263" d="M23 0l864 1536h135l217 -1536h-197l-45 330q0 14 -16 14h-557q-17 0 -23 -14l-186 -330h-192zM516 539q0 -11 8 -11h432q17 0 17 11v6l-84 651q0 6 -4 6q-1 0 -4 -6l-361 -651zM760 1651l428 161l22 -104l-428 -164z" />
<glyph unicode="&#xc2;" horiz-adv-x="1263" d="M23 0l864 1536h135l217 -1536h-197l-45 330q0 14 -16 14h-557q-17 0 -23 -14l-186 -330h-192zM516 539q0 -11 8 -11h432q17 0 17 11v6l-84 651q0 6 -4 6q-1 0 -4 -6l-361 -651zM727 1571l21 115l260 100l221 -96l-29 -115q-31 0 -217 94q-237 -98 -256 -98z" />
<glyph unicode="&#xc3;" horiz-adv-x="1263" d="M23 0l864 1536h135l217 -1536h-197l-45 330q0 14 -16 14h-557q-17 0 -23 -14l-186 -330h-192zM516 539q0 -11 8 -11h432q17 0 17 11v6l-84 651q0 6 -4 6q-1 0 -4 -6l-361 -651zM664 1794q47 53 109 91t128 38q47 0 131.5 -36t126.5 -36q33 0 62.5 12t46.5 24.5t53 43.5 l45 -73q-39 -57 -97.5 -95.5t-109.5 -38.5q-52 0 -143 38t-137 38q-15 0 -31.5 -4.5t-27.5 -8.5t-31 -16t-26 -16t-30 -21t-26 -18z" />
<glyph unicode="&#xc4;" horiz-adv-x="1263" d="M23 0l864 1536h135l217 -1536h-197l-45 330q0 14 -16 14h-557q-17 0 -23 -14l-186 -330h-192zM516 539q0 -11 8 -11h432q17 0 17 11v6l-84 651q0 6 -4 6q-1 0 -4 -6l-361 -651zM741 1694q7 35 38 59.5t67 24.5q32 0 53.5 -26t15.5 -58q-8 -36 -38.5 -62t-65.5 -26 q-37 0 -57.5 25.5t-12.5 62.5zM1063 1694q7 35 38 59.5t66 24.5q32 0 54 -26t16 -58q-8 -36 -38.5 -62t-65.5 -26q-37 0 -57.5 25.5t-12.5 62.5z" />
<glyph unicode="&#xc5;" horiz-adv-x="1263" d="M23 0l864 1536h135l217 -1536h-197l-45 330q0 14 -16 14h-557q-17 0 -23 -14l-186 -330h-192zM516 539q0 -11 8 -11h432q17 0 17 11v6l-84 651q0 6 -4 6q-1 0 -4 -6l-361 -651zM893 1634q7 37 37 61.5t65 24.5t54.5 -25t13.5 -61q-8 -35 -38 -59.5t-67 -24.5 q-36 0 -54.5 24t-10.5 60zM930 1634q-12 -47 37 -47q45 0 57 47q3 20 -8 33.5t-31 13.5q-23 0 -37.5 -13t-17.5 -34z" />
<glyph unicode="&#xc6;" horiz-adv-x="1572" d="M23 0l919 1536h891l-39 -184h-557q-11 0 -14 -9l-101 -471q-1 -4 2 -6t9 -2h557l-39 -184h-557q-12 0 -15 -10l-100 -473q-3 -13 10 -13h557l-39 -184h-753l71 344h-379q-16 0 -22 -14l-209 -330h-192zM539 539q0 -11 8 -11h317l172 803v17q3 6 -2 6l-6 -6l-485 -803z " />
<glyph unicode="&#xc7;" horiz-adv-x="1423" d="M236 766q34 158 127.5 303.5t221.5 251t287 168.5t318 63q286 0 452 -166l-141 -151q-133 133 -356 133q-124 0 -245.5 -48t-218 -129.5t-166 -192.5t-95.5 -232q-24 -112 3.5 -222t92.5 -192t165 -133t214 -51q219 0 408 133l75 -154q-235 -163 -522 -163q-3 0 -90 6 l-92 -94q3 0 22.5 3t44.5 3q67 0 101.5 -42t19.5 -114q-14 -63 -60.5 -108t-100 -64.5t-107.5 -19.5q-64 0 -119 51q-6 6 -41 51l64 45l34 -18q38 -19 99 -19q35 0 69 22.5t41 57.5q8 38 -11 60t-48 22q-6 0 -34.5 -3t-45.5 -3l-53 30l139 150h14q-170 37 -290 147 t-167.5 273t-8.5 346z" />
<glyph unicode="&#xc8;" horiz-adv-x="921" d="M84 0l326 1536h753l-39 -184h-557q-11 0 -14 -9l-100 -471q-3 -8 10 -8h557l-39 -184h-557q-11 0 -14 -10l-101 -473q-3 -13 10 -13h558l-39 -184h-754zM602 1708l68 104l358 -161l-67 -107z" />
<glyph unicode="&#xc9;" horiz-adv-x="921" d="M84 0l326 1536h753l-39 -184h-557q-11 0 -14 -9l-100 -471q-3 -8 10 -8h557l-39 -184h-557q-11 0 -14 -10l-101 -473q-3 -13 10 -13h558l-39 -184h-754zM590 1651l428 161l22 -104l-428 -164z" />
<glyph unicode="&#xca;" horiz-adv-x="921" d="M84 0l326 1536h753l-39 -184h-557q-11 0 -14 -9l-100 -471q-3 -8 10 -8h557l-39 -184h-557q-11 0 -14 -10l-101 -473q-3 -13 10 -13h558l-39 -184h-754zM555 1571l20 115l261 100l221 -96l-29 -115q-31 0 -217 94q-237 -98 -256 -98z" />
<glyph unicode="&#xcb;" horiz-adv-x="921" d="M84 0l326 1536h753l-39 -184h-557q-11 0 -14 -9l-100 -471q-3 -8 10 -8h557l-39 -184h-557q-11 0 -14 -10l-101 -473q-3 -13 10 -13h558l-39 -184h-754zM571 1694q7 35 38 59.5t67 24.5q32 0 53.5 -26t15.5 -58q-8 -36 -38.5 -62t-65.5 -26q-37 0 -57.5 25.5t-12.5 62.5z M893 1694q7 35 38 59.5t66 24.5q32 0 54 -26t16 -58q-8 -36 -38.5 -62t-65.5 -26q-37 0 -57.5 25.5t-12.5 62.5z" />
<glyph unicode="&#xcc;" horiz-adv-x="346" d="M80 0l326 1534h184l-326 -1534h-184zM319 1708l68 104l358 -161l-67 -107z" />
<glyph unicode="&#xcd;" horiz-adv-x="346" d="M80 0l326 1534h184l-326 -1534h-184zM307 1651l428 161l23 -104l-428 -164z" />
<glyph unicode="&#xce;" horiz-adv-x="346" d="M80 0l326 1534h184l-326 -1534h-184zM272 1571l21 115l260 100l221 -96l-29 -115q-31 0 -217 94q-237 -98 -256 -98z" />
<glyph unicode="&#xcf;" horiz-adv-x="346" d="M80 0l326 1534h184l-326 -1534h-184zM289 1694q7 35 38 59.5t66 24.5q32 0 54 -26t16 -58q-8 -35 -39 -61.5t-66 -26.5q-37 0 -57 25.5t-12 62.5zM610 1694q7 35 38 59.5t67 24.5q32 0 53.5 -26t15.5 -58q-8 -36 -38.5 -62t-65.5 -26q-37 0 -57.5 25.5t-12.5 62.5z" />
<glyph unicode="&#xd0;" horiz-adv-x="1622" d="M197 637l39 184h264l151 715h471q209 0 363 -103t217.5 -279.5t19.5 -385.5q-44 -210 -182.5 -386.5t-336 -279t-406.5 -102.5h-471l135 637h-264zM551 197q-3 -13 10 -13h275q155 0 305.5 80t256.5 214.5t140 289.5q33 157 -17 291.5t-167.5 213.5t-274.5 79h-270 q-11 0 -14 -9l-111 -522h262l-39 -184h-262z" />
<glyph unicode="&#xd1;" horiz-adv-x="1327" d="M80 0l326 1534h227l479 -1245q3 -6 6 -6q2 0 2 6l266 1247h185l-326 -1536h-229l-479 1239q0 6 -5 6q-3 0 -6 -8l-262 -1237h-184zM696 1794q47 52 109.5 90.5t128.5 38.5q47 0 131.5 -36t126.5 -36q33 0 62.5 12t46.5 24.5t53 43.5l45 -73q-39 -57 -97.5 -95.5 t-109.5 -38.5q-52 0 -143.5 38t-137.5 38q-15 0 -31.5 -4.5t-27.5 -8.5t-31 -16t-26 -16t-30 -21t-26 -18z" />
<glyph unicode="&#xd2;" horiz-adv-x="1705" d="M216 520q-12 117 13 248q34 160 127 305t221 250t286.5 167t318.5 62q128 0 239.5 -40t191.5 -111t133 -169.5t65 -215.5t-13 -248q-34 -160 -126.5 -305t-219.5 -250t-285.5 -167t-318.5 -62q-128 0 -240 40t-192 111t-134 169.5t-66 215.5zM412 535 q26 -109 88.5 -190.5t163.5 -129t223 -47.5q163 0 318.5 80.5t265 219t143.5 300.5q35 163 -16 301.5t-172.5 218.5t-284.5 80q-162 0 -317 -80t-265 -218.5t-145 -301.5q-28 -124 -2 -233zM993 1708l68 104l358 -161l-67 -107z" />
<glyph unicode="&#xd3;" horiz-adv-x="1705" d="M216 520q-12 117 13 248q34 160 127 305t221 250t286.5 167t318.5 62q128 0 239.5 -40t191.5 -111t133 -169.5t65 -215.5t-13 -248q-34 -160 -126.5 -305t-219.5 -250t-285.5 -167t-318.5 -62q-128 0 -240 40t-192 111t-134 169.5t-66 215.5zM412 535 q26 -109 88.5 -190.5t163.5 -129t223 -47.5q163 0 318.5 80.5t265 219t143.5 300.5q35 163 -16 301.5t-172.5 218.5t-284.5 80q-162 0 -317 -80t-265 -218.5t-145 -301.5q-28 -124 -2 -233zM981 1651l428 161l23 -104l-428 -164z" />
<glyph unicode="&#xd4;" horiz-adv-x="1705" d="M216 520q-12 117 13 248q34 160 127 305t221 250t286.5 167t318.5 62q128 0 239.5 -40t191.5 -111t133 -169.5t65 -215.5t-13 -248q-34 -160 -126.5 -305t-219.5 -250t-285.5 -167t-318.5 -62q-128 0 -240 40t-192 111t-134 169.5t-66 215.5zM412 535 q26 -109 88.5 -190.5t163.5 -129t223 -47.5q163 0 318.5 80.5t265 219t143.5 300.5q35 163 -16 301.5t-172.5 218.5t-284.5 80q-162 0 -317 -80t-265 -218.5t-145 -301.5q-28 -124 -2 -233zM948 1571l21 115l260 100l221 -96l-29 -115q-31 0 -217 94q-237 -98 -256 -98z" />
<glyph unicode="&#xd5;" horiz-adv-x="1705" d="M216 520q-12 117 13 248q34 160 127 305t221 250t286.5 167t318.5 62q128 0 239.5 -40t191.5 -111t133 -169.5t65 -215.5t-13 -248q-34 -160 -126.5 -305t-219.5 -250t-285.5 -167t-318.5 -62q-128 0 -240 40t-192 111t-134 169.5t-66 215.5zM412 535 q26 -109 88.5 -190.5t163.5 -129t223 -47.5q163 0 318.5 80.5t265 219t143.5 300.5q35 163 -16 301.5t-172.5 218.5t-284.5 80q-162 0 -317 -80t-265 -218.5t-145 -301.5q-28 -124 -2 -233zM885 1794q47 53 109 91t128 38q47 0 131.5 -36t126.5 -36q33 0 62.5 12t46.5 24.5 t53 43.5l45 -73q-39 -57 -97.5 -95.5t-109.5 -38.5q-52 0 -143 38t-137 38q-15 0 -31.5 -4.5t-27.5 -8.5t-31 -16t-26 -16t-30 -21t-26 -18z" />
<glyph unicode="&#xd6;" horiz-adv-x="1705" d="M216 520q-12 117 13 248q34 160 127 305t221 250t286.5 167t318.5 62q128 0 239.5 -40t191.5 -111t133 -169.5t65 -215.5t-13 -248q-34 -160 -126.5 -305t-219.5 -250t-285.5 -167t-318.5 -62q-128 0 -240 40t-192 111t-134 169.5t-66 215.5zM412 535 q26 -109 88.5 -190.5t163.5 -129t223 -47.5q163 0 318.5 80.5t265 219t143.5 300.5q35 163 -16 301.5t-172.5 218.5t-284.5 80q-162 0 -317 -80t-265 -218.5t-145 -301.5q-28 -124 -2 -233zM963 1694q7 35 38 59.5t66 24.5q32 0 54 -26t16 -58q-8 -35 -39 -61.5t-66 -26.5 q-37 0 -57 25.5t-12 62.5zM1284 1694q7 35 38 59.5t67 24.5q32 0 53.5 -26t15.5 -58q-8 -36 -38.5 -62t-65.5 -26q-37 0 -57.5 25.5t-12.5 62.5z" />
<glyph unicode="&#xd7;" horiz-adv-x="1034" d="M150 201l387 317l-244 311l108 91l246 -312l385 320l70 -90l-387 -320l252 -315l-111 -90l-248 317l-387 -319z" />
<glyph unicode="&#xd8;" horiz-adv-x="1695" d="M225 768q34 160 127 305t221 250t286.5 167t318.5 62q73 0 151 -16l57 111h121l-73 -142q210 -83 311.5 -285t48.5 -452q-34 -160 -126.5 -305t-219.5 -250t-285.5 -167t-318.5 -62q-73 0 -168 18l-49 -100l-119 -2l65 135q-206 88 -303.5 286.5t-44.5 446.5zM410 768 q-39 -185 32 -336.5t224 -218.5l573 1145q-52 10 -102 10q-162 0 -317 -80t-265 -218.5t-145 -301.5zM764 180q55 -12 119 -12q163 0 318.5 80.5t265 219t143.5 300.5q41 189 -34.5 341.5t-234.5 217.5z" />
<glyph unicode="&#xd9;" horiz-adv-x="1067" d="M168 438l233 1098h185l-230 -1079q-25 -120 34.5 -204.5t176.5 -84.5t212 80.5t120 197.5l231 1090h185l-236 -1104q-25 -121 -109.5 -225t-202.5 -163.5t-239 -59.5q-124 0 -216 60.5t-131 165t-13 228.5zM674 1708l67 104l359 -161l-68 -107z" />
<glyph unicode="&#xda;" horiz-adv-x="1067" d="M168 438l233 1098h185l-230 -1079q-25 -120 34.5 -204.5t176.5 -84.5t212 80.5t120 197.5l231 1090h185l-236 -1104q-25 -121 -109.5 -225t-202.5 -163.5t-239 -59.5q-124 0 -216 60.5t-131 165t-13 228.5zM662 1651l428 161l22 -104l-428 -164z" />
<glyph unicode="&#xdb;" horiz-adv-x="1067" d="M168 438l233 1098h185l-230 -1079q-25 -120 34.5 -204.5t176.5 -84.5t212 80.5t120 197.5l231 1090h185l-236 -1104q-25 -121 -109.5 -225t-202.5 -163.5t-239 -59.5q-124 0 -216 60.5t-131 165t-13 228.5zM629 1571l20 115l260 100l221 -96l-28 -115q-31 0 -217 94 q-237 -98 -256 -98z" />
<glyph unicode="&#xdc;" horiz-adv-x="1067" d="M168 438l233 1098h185l-230 -1079q-25 -120 34.5 -204.5t176.5 -84.5t212 80.5t120 197.5l231 1090h185l-236 -1104q-25 -121 -109.5 -225t-202.5 -163.5t-239 -59.5q-124 0 -216 60.5t-131 165t-13 228.5zM643 1694q7 35 38 59.5t67 24.5q32 0 53.5 -26t15.5 -58 q-8 -36 -38.5 -62t-65.5 -26q-37 0 -57.5 25.5t-12.5 62.5zM965 1694q7 35 38 59.5t66 24.5q32 0 54 -26t16 -58q-8 -35 -39 -61.5t-66 -26.5q-37 0 -57 25.5t-12 62.5z" />
<glyph unicode="&#xdd;" horiz-adv-x="1071" d="M342 1536h203l157 -711q3 -8 7 -8q7 0 10 8l459 711h200l-633 -981l-116 -555h-185l117 555zM664 1651l428 161l22 -104l-428 -164z" />
<glyph unicode="&#xde;" horiz-adv-x="944" d="M78 0l325 1536h185l-60 -283h156q129 0 218 -60.5t123 -165.5t7 -234q-42 -198 -197.5 -334.5t-349.5 -136.5h-143q-14 0 -14 -13l-66 -309h-184zM371 514q0 -10 16 -10h141q61 0 113.5 22.5t86.5 55t60.5 74t40 75.5t19.5 64t7 62.5t-8.5 72t-30 70t-63.5 51t-104 20.5 h-141q-20 0 -23 -14z" />
<glyph unicode="&#xdf;" horiz-adv-x="1056" d="M78 0l229 1081q42 201 167.5 328t293.5 127h20q126 0 208.5 -57t110 -151t3.5 -210q-11 -51 -29 -94.5t-31 -68.5t-42 -58.5t-38 -42t-44 -41.5q96 -56 132 -158t9 -229q-41 -194 -189.5 -310t-347.5 -116h-163l36 182h168q75 0 135 25.5t95 66t54.5 79t27.5 75.5 q16 75 -17 134t-96 88.5t-139 29.5h-125l39 184q2 0 58.5 1t58.5 1q62 8 112 36t79.5 66.5t46.5 74t24 69.5q24 109 -24 175.5t-155 66.5h-8q-86 0 -153 -76.5t-92 -198.5l-230 -1079h-184z" />
<glyph unicode="&#xe0;" d="M174 514q46 218 233 372t408 154q199 0 324 -135l26 121h174l-217 -1026h-174l25 119q-185 -135 -381 -135q-145 0 -252.5 70.5t-152 192.5t-13.5 267zM350 514q-32 -149 49 -251.5t230 -102.5q148 0 272 102.5t156 251.5q31 148 -50 250t-229 102q-149 0 -273 -102 t-155 -250zM649 1298l68 105l358 -162l-67 -106z" />
<glyph unicode="&#xe1;" d="M174 514q46 218 233 372t408 154q199 0 324 -135l26 121h174l-217 -1026h-174l25 119q-185 -135 -381 -135q-145 0 -252.5 70.5t-152 192.5t-13.5 267zM350 514q-32 -149 49 -251.5t230 -102.5q148 0 272 102.5t156 251.5q31 148 -50 250t-229 102q-149 0 -273 -102 t-155 -250zM637 1241l428 162l22 -105l-428 -163z" />
<glyph unicode="&#xe2;" d="M174 514q46 218 233 372t408 154q199 0 324 -135l26 121h174l-217 -1026h-174l25 119q-185 -135 -381 -135q-145 0 -252.5 70.5t-152 192.5t-13.5 267zM350 514q-32 -149 49 -251.5t230 -102.5q148 0 272 102.5t156 251.5q31 148 -50 250t-229 102q-149 0 -273 -102 t-155 -250zM604 1161l21 115l260 100l221 -96l-29 -115q-29 0 -217 95q-25 -10 -73.5 -30.5t-69.5 -29t-49.5 -20t-42.5 -15.5t-21 -4z" />
<glyph unicode="&#xe3;" d="M174 514q46 218 233 372t408 154q199 0 324 -135l26 121h174l-217 -1026h-174l25 119q-185 -135 -381 -135q-145 0 -252.5 70.5t-152 192.5t-13.5 267zM350 514q-32 -149 49 -251.5t230 -102.5q148 0 272 102.5t156 251.5q31 148 -50 250t-229 102q-149 0 -273 -102 t-155 -250zM541 1384q47 53 109 91t128 38q47 0 131.5 -35.5t126.5 -35.5q33 0 62.5 12t46.5 24.5t53 43.5l45 -74q-39 -57 -97.5 -95t-109.5 -38q-52 0 -143 38t-137 38q-15 0 -31.5 -4.5t-27.5 -8.5t-31 -16t-26 -16t-30 -21t-26 -18z" />
<glyph unicode="&#xe4;" d="M174 514q46 218 233 372t408 154q199 0 324 -135l26 121h174l-217 -1026h-174l25 119q-185 -135 -381 -135q-145 0 -252.5 70.5t-152 192.5t-13.5 267zM350 514q-32 -149 49 -251.5t230 -102.5q148 0 272 102.5t156 251.5q31 148 -50 250t-229 102q-149 0 -273 -102 t-155 -250zM618 1284q7 35 38 59.5t67 24.5q32 0 54 -26t16 -58q-8 -35 -39 -61.5t-66 -26.5q-37 0 -57.5 25.5t-12.5 62.5zM940 1284q7 35 38 59.5t66 24.5q32 0 54 -26t16 -58q-8 -36 -38.5 -62t-65.5 -26q-37 0 -57.5 25.5t-12.5 62.5z" />
<glyph unicode="&#xe5;" d="M174 514q46 218 233 372t408 154q199 0 324 -135l26 121h174l-217 -1026h-174l25 119q-185 -135 -381 -135q-145 0 -252.5 70.5t-152 192.5t-13.5 267zM350 514q-32 -149 49 -251.5t230 -102.5q148 0 272 102.5t156 251.5q31 148 -50 250t-229 102q-149 0 -273 -102 t-155 -250zM770 1225q7 37 37 61.5t65 24.5t54.5 -25t13.5 -61q-8 -35 -37.5 -59.5t-66.5 -24.5q-36 0 -55 24t-11 60zM807 1225q-12 -47 37 -47q45 0 57 47q3 20 -8 33.5t-31 13.5q-23 0 -37.5 -13t-17.5 -34z" />
<glyph unicode="&#xe6;" horiz-adv-x="1990" d="M174 514q46 218 233 372t408 154q199 0 324 -135l26 121h174l-24 -119q169 133 368 133q139 0 233 -68.5t127.5 -181.5t4.5 -247l-23 -101h-796q-2 -128 78 -205t213 -77q179 0 331 88l41 -142q-95 -59 -204 -90.5t-205 -31.5q-212 0 -334 141l-27 -125h-174l25 119 q-185 -135 -381 -135q-145 0 -252.5 70.5t-152 192.5t-13.5 267zM350 514q-32 -149 49 -251.5t230 -102.5q148 0 272 102.5t156 251.5q31 148 -50 250t-229 102q-149 0 -273 -102t-155 -250zM1266 592h610q21 101 -46.5 187.5t-189.5 86.5q-121 0 -218.5 -72t-151.5 -190 q0 -2 -2 -6t-2 -6z" />
<glyph unicode="&#xe7;" horiz-adv-x="1138" d="M174 514q46 218 233 372t408 154q123 0 220 -58.5t159 -156.5l-160 -104q-29 68 -97 106.5t-159 38.5q-149 0 -273 -102t-155 -250q-32 -149 49 -251.5t230 -102.5q99 0 193 46.5t147 125.5l153 -58q-86 -129 -220.5 -205.5t-285.5 -82.5l-86 -90q3 0 23 3t45 3 q67 0 101.5 -42t19.5 -114q-14 -63 -60.5 -108t-100 -64.5t-107.5 -19.5q-64 0 -119 51q-6 6 -41 51l63 45l35 -18q38 -19 98 -19q35 0 69.5 22.5t41.5 57.5q8 38 -11 60t-48 22q-6 0 -34.5 -3t-45.5 -3l-53 30l126 138q-196 22 -299 172t-59 354z" />
<glyph unicode="&#xe8;" horiz-adv-x="1110" d="M174 514q30 144 120.5 264.5t222.5 191t276 70.5q138 0 232 -68.5t127.5 -181.5t4.5 -247l-22 -101h-797q-2 -128 78 -205t213 -77q180 0 332 88l40 -142q-95 -59 -204 -90.5t-205 -31.5q-145 0 -252.5 70.5t-152 192.5t-13.5 267zM375 592h610q14 64 -10 127t-84 105 t-141 42q-121 0 -219 -72t-152 -190q0 -2 -2 -6t-2 -6zM610 1298l68 105l358 -162l-67 -106z" />
<glyph unicode="&#xe9;" horiz-adv-x="1110" d="M174 514q30 144 120.5 264.5t222.5 191t276 70.5q138 0 232 -68.5t127.5 -181.5t4.5 -247l-22 -101h-797q-2 -128 78 -205t213 -77q180 0 332 88l40 -142q-95 -59 -204 -90.5t-205 -31.5q-145 0 -252.5 70.5t-152 192.5t-13.5 267zM375 592h610q14 64 -10 127t-84 105 t-141 42q-121 0 -219 -72t-152 -190q0 -2 -2 -6t-2 -6zM598 1241l428 162l23 -105l-428 -163z" />
<glyph unicode="&#xea;" horiz-adv-x="1110" d="M174 514q30 144 120.5 264.5t222.5 191t276 70.5q138 0 232 -68.5t127.5 -181.5t4.5 -247l-22 -101h-797q-2 -128 78 -205t213 -77q180 0 332 88l40 -142q-95 -59 -204 -90.5t-205 -31.5q-145 0 -252.5 70.5t-152 192.5t-13.5 267zM375 592h610q14 64 -10 127t-84 105 t-141 42q-121 0 -219 -72t-152 -190q0 -2 -2 -6t-2 -6zM563 1161l21 115l260 100l221 -96l-29 -115q-29 0 -217 95q-25 -10 -73.5 -30.5t-69.5 -29t-49.5 -20t-42.5 -15.5t-21 -4z" />
<glyph unicode="&#xeb;" horiz-adv-x="1110" d="M174 514q30 144 120.5 264.5t222.5 191t276 70.5q138 0 232 -68.5t127.5 -181.5t4.5 -247l-22 -101h-797q-2 -128 78 -205t213 -77q180 0 332 88l40 -142q-95 -59 -204 -90.5t-205 -31.5q-145 0 -252.5 70.5t-152 192.5t-13.5 267zM375 592h610q14 64 -10 127t-84 105 t-141 42q-121 0 -219 -72t-152 -190q0 -2 -2 -6t-2 -6zM580 1284q7 35 38 59.5t66 24.5q32 0 54 -26t16 -58q-8 -35 -39 -61.5t-66 -26.5q-37 0 -57 25.5t-12 62.5zM901 1284q7 35 38 59.5t67 24.5q32 0 53.5 -26t15.5 -58q-8 -36 -38.5 -62t-65.5 -26q-37 0 -57.5 25.5 t-12.5 62.5z" />
<glyph unicode="&#xec;" horiz-adv-x="335" d="M80 0l217 1026h174l-217 -1026h-174zM225 1298l68 105l358 -162l-67 -106z" />
<glyph unicode="&#xed;" horiz-adv-x="335" d="M80 0l217 1026h174l-217 -1026h-174zM213 1241l428 162l23 -105l-428 -163z" />
<glyph unicode="&#xee;" horiz-adv-x="335" d="M80 0l217 1026h174l-217 -1026h-174zM180 1161l21 115l260 100l221 -96l-29 -115q-29 0 -217 95q-25 -10 -73.5 -30.5t-69.5 -29t-49.5 -20t-42.5 -15.5t-21 -4z" />
<glyph unicode="&#xef;" horiz-adv-x="335" d="M80 0l217 1026h174l-217 -1026h-174zM195 1284q7 35 38 59.5t66 24.5q32 0 54 -26t16 -58q-8 -35 -39 -61.5t-66 -26.5q-37 0 -57 25.5t-12 62.5zM516 1284q7 35 38 59.5t67 24.5q32 0 53.5 -26t15.5 -58q-8 -36 -38.5 -62t-65.5 -26q-37 0 -57.5 25.5t-12.5 62.5z" />
<glyph unicode="&#xf0;" horiz-adv-x="1169" d="M166 508q35 160 136.5 282t232.5 183t268 61q41 0 71 -6l-65 152l-166 -101l-74 142l176 106l-61 133l180 96l56 -118l163 102l74 -141l-176 -109l223 -518q43 -125 13 -264q-31 -147 -125 -267t-229.5 -188.5t-284.5 -68.5q-143 0 -248.5 68.5t-150 189t-13.5 266.5z M350 508q-31 -146 46 -243t222 -97q148 0 265.5 97t148.5 243q32 148 -44 245t-224 97q-141 0 -262 -100t-152 -242z" />
<glyph unicode="&#xf1;" horiz-adv-x="1050" d="M78 0l217 1024h174l-16 -72q134 88 288 88q118 0 209.5 -55.5t133.5 -152.5t18 -211l-131 -621h-174l125 596q23 109 -40.5 190.5t-172.5 81.5q-272 0 -330 -262l-127 -606h-174zM471 1384q47 52 109.5 90.5t128.5 38.5q47 0 131.5 -35.5t126.5 -35.5q33 0 62.5 12 t45.5 24.5t53 43.5l46 -74q-39 -57 -97.5 -95t-109.5 -38q-52 0 -143.5 38t-137.5 38q-15 0 -31.5 -4.5t-27.5 -8.5t-31 -16t-26 -16t-30 -21t-26 -18z" />
<glyph unicode="&#xf2;" d="M174 514q46 218 233 372t408 154q143 0 249.5 -70.5t151.5 -191.5t15 -264q-31 -145 -127.5 -267t-232.5 -192.5t-279 -70.5q-145 0 -252.5 70.5t-152 192.5t-13.5 267zM350 514q-32 -149 49 -251.5t230 -102.5q148 0 272 102.5t156 251.5q31 148 -50 250t-229 102 q-149 0 -273 -102t-155 -250zM649 1298l68 105l358 -162l-67 -106z" />
<glyph unicode="&#xf3;" d="M174 514q46 218 233 372t408 154q143 0 249.5 -70.5t151.5 -191.5t15 -264q-31 -145 -127.5 -267t-232.5 -192.5t-279 -70.5q-145 0 -252.5 70.5t-152 192.5t-13.5 267zM350 514q-32 -149 49 -251.5t230 -102.5q148 0 272 102.5t156 251.5q31 148 -50 250t-229 102 q-149 0 -273 -102t-155 -250zM637 1241l428 162l22 -105l-428 -163z" />
<glyph unicode="&#xf4;" d="M174 514q46 218 233 372t408 154q143 0 249.5 -70.5t151.5 -191.5t15 -264q-31 -145 -127.5 -267t-232.5 -192.5t-279 -70.5q-145 0 -252.5 70.5t-152 192.5t-13.5 267zM350 514q-32 -149 49 -251.5t230 -102.5q148 0 272 102.5t156 251.5q31 148 -50 250t-229 102 q-149 0 -273 -102t-155 -250zM604 1161l21 115l260 100l221 -96l-29 -115q-29 0 -217 95q-25 -10 -73.5 -30.5t-69.5 -29t-49.5 -20t-42.5 -15.5t-21 -4z" />
<glyph unicode="&#xf5;" d="M174 514q46 218 233 372t408 154q143 0 249.5 -70.5t151.5 -191.5t15 -264q-31 -145 -127.5 -267t-232.5 -192.5t-279 -70.5q-145 0 -252.5 70.5t-152 192.5t-13.5 267zM350 514q-32 -149 49 -251.5t230 -102.5q148 0 272 102.5t156 251.5q31 148 -50 250t-229 102 q-149 0 -273 -102t-155 -250zM541 1384q47 53 109 91t128 38q47 0 131.5 -35.5t126.5 -35.5q33 0 62.5 12t46.5 24.5t53 43.5l45 -74q-39 -57 -97.5 -95t-109.5 -38q-52 0 -143 38t-137 38q-15 0 -31.5 -4.5t-27.5 -8.5t-31 -16t-26 -16t-30 -21t-26 -18z" />
<glyph unicode="&#xf6;" d="M174 514q46 218 233 372t408 154q143 0 249.5 -70.5t151.5 -191.5t15 -264q-31 -145 -127.5 -267t-232.5 -192.5t-279 -70.5q-145 0 -252.5 70.5t-152 192.5t-13.5 267zM350 514q-32 -149 49 -251.5t230 -102.5q148 0 272 102.5t156 251.5q31 148 -50 250t-229 102 q-149 0 -273 -102t-155 -250zM618 1284q7 35 38 59.5t67 24.5q32 0 54 -26t16 -58q-8 -35 -39 -61.5t-66 -26.5q-37 0 -57.5 25.5t-12.5 62.5zM940 1284q7 35 38 59.5t66 24.5q32 0 54 -26t16 -58q-8 -36 -38.5 -62t-65.5 -26q-37 0 -57.5 25.5t-12.5 62.5z" />
<glyph unicode="&#xf7;" horiz-adv-x="1114" d="M143 457l29 135h1018l-29 -135h-1018zM510 209q7 35 38.5 59.5t67.5 24.5q33 0 54 -26t14 -58q-8 -36 -38.5 -62t-65.5 -26q-37 0 -57.5 25.5t-12.5 62.5zM645 842q7 35 39 59.5t68 24.5q32 0 52.5 -26t14.5 -58q-8 -36 -38.5 -62t-65.5 -26q-37 0 -57.5 25.5t-12.5 62.5 z" />
<glyph unicode="&#xf8;" horiz-adv-x="1179" d="M170 514q46 218 233 372t408 154q45 0 86 -8l51 103h119l-68 -131q135 -58 199 -192.5t29 -297.5q-31 -145 -127.5 -267t-232.5 -192.5t-279 -70.5q-41 0 -96 10l-60 -113l-113 4q0 3 2 6t3 5l65 129q-131 63 -192.5 194.5t-26.5 294.5zM346 514q-23 -106 13 -190.5 t116 -128.5l336 669q-7 0 -18.5 1t-18.5 1q-149 0 -273 -102t-155 -250zM575 162q16 -2 50 -2q148 0 272 102.5t156 251.5q23 107 -16 193.5t-124 128.5z" />
<glyph unicode="&#xf9;" horiz-adv-x="1040" d="M160 408l131 614h174l-127 -590q-23 -109 41.5 -190.5t173.5 -81.5q57 0 105.5 12.5t94.5 41t79 81.5t49 127l129 600h174l-217 -1022h-168l14 76q-139 -92 -295 -92q-117 0 -208.5 57t-132.5 155t-17 212zM575 1298l68 105l358 -162l-67 -106z" />
<glyph unicode="&#xfa;" horiz-adv-x="1040" d="M160 408l131 614h174l-127 -590q-23 -109 41.5 -190.5t173.5 -81.5q57 0 105.5 12.5t94.5 41t79 81.5t49 127l129 600h174l-217 -1022h-168l14 76q-139 -92 -295 -92q-117 0 -208.5 57t-132.5 155t-17 212zM563 1241l428 162l23 -105l-428 -163z" />
<glyph unicode="&#xfb;" horiz-adv-x="1040" d="M160 408l131 614h174l-127 -590q-23 -109 41.5 -190.5t173.5 -81.5q57 0 105.5 12.5t94.5 41t79 81.5t49 127l129 600h174l-217 -1022h-168l14 76q-139 -92 -295 -92q-117 0 -208.5 57t-132.5 155t-17 212zM528 1161l21 115l260 100l221 -96l-29 -115q-29 0 -217 95 q-25 -10 -73.5 -30.5t-69.5 -29t-49.5 -20t-42.5 -15.5t-21 -4z" />
<glyph unicode="&#xfc;" horiz-adv-x="1040" d="M160 408l131 614h174l-127 -590q-23 -109 41.5 -190.5t173.5 -81.5q57 0 105.5 12.5t94.5 41t79 81.5t49 127l129 600h174l-217 -1022h-168l14 76q-139 -92 -295 -92q-117 0 -208.5 57t-132.5 155t-17 212zM545 1284q7 35 38 59.5t66 24.5q32 0 54 -26t16 -58 q-8 -35 -39 -61.5t-66 -26.5q-37 0 -57 25.5t-12 62.5zM866 1284q7 35 38 59.5t67 24.5q32 0 53.5 -26t15.5 -58q-8 -36 -38.5 -62t-65.5 -26q-37 0 -57.5 25.5t-12.5 62.5z" />
<glyph unicode="&#xfd;" horiz-adv-x="897" d="M113 -422l233 406l12 24l-2 17l-135 999h187l94 -743l2 -19l12 25l414 741h182l-819 -1450h-180zM492 1241l428 162l22 -105l-428 -163z" />
<glyph unicode="&#xfe;" horiz-adv-x="1214" d="M-10 -416l393 1852h174l-113 -529q175 135 381 135q145 0 252 -70.5t151.5 -192.5t14.5 -267q-31 -143 -127.5 -264t-233.5 -191.5t-282 -70.5q-205 0 -324 135l-114 -537h-172zM360 512q-32 -148 48.5 -250t228.5 -102q149 0 273.5 102t156.5 250q31 149 -50.5 251.5 t-230.5 102.5q-148 0 -271.5 -102.5t-154.5 -251.5z" />
<glyph unicode="&#xff;" horiz-adv-x="897" d="M113 -422l233 406l12 24l-2 17l-135 999h187l94 -743l2 -19l12 25l414 741h182l-819 -1450h-180zM473 1284q7 35 38 59.5t67 24.5q32 0 53.5 -26t15.5 -58q-8 -36 -38.5 -62t-65.5 -26q-37 0 -57.5 25.5t-12.5 62.5zM795 1284q7 35 38 59.5t66 24.5q32 0 54 -26t16 -58 q-8 -35 -39 -61.5t-66 -26.5q-37 0 -57 25.5t-12 62.5z" />
<glyph unicode="&#x152;" horiz-adv-x="2273" d="M216 520q-12 117 13 248q34 160 127 305t221 250t286.5 167t318.5 62q180 0 320.5 -75.5t221.5 -208.5l58 268h753l-38 -184h-558q-11 0 -14 -9l-100 -471q-3 -8 10 -8h557l-39 -184h-557q-11 0 -14 -10l-101 -473q-3 -13 11 -13h557l-39 -184h-754l57 268 q-137 -133 -311 -208.5t-354 -75.5q-128 0 -240 40t-192 111t-134 169.5t-66 215.5zM412 535q26 -109 88.5 -190.5t163.5 -129t223 -47.5q163 0 318.5 80.5t265 219t143.5 300.5q35 163 -16 301.5t-172.5 218.5t-284.5 80q-162 0 -317 -80t-265 -218.5t-145 -301.5 q-28 -124 -2 -233z" />
<glyph unicode="&#x153;" horiz-adv-x="1984" d="M174 514q46 218 233 372t408 154q136 0 238.5 -64t150.5 -173q91 110 216.5 173.5t262.5 63.5q139 0 233 -68.5t127.5 -181.5t4.5 -247l-23 -101h-796q-2 -128 78 -205t213 -77q179 0 331 88l41 -142q-95 -59 -204 -90.5t-205 -31.5q-139 0 -244.5 65.5t-151.5 177.5 q-95 -112 -226.5 -177.5t-268.5 -65.5q-145 0 -252.5 70.5t-152 192.5t-13.5 267zM350 514q-32 -149 49 -251.5t230 -102.5q148 0 272 102.5t156 251.5q31 148 -50 250t-229 102q-149 0 -273 -102t-155 -250zM1266 592h610q21 101 -46.5 187.5t-189.5 86.5 q-121 0 -218.5 -72t-151.5 -190q0 -2 -2 -6t-2 -6z" />
<glyph unicode="&#x178;" horiz-adv-x="1071" d="M342 1536h203l157 -711q3 -8 7 -8q7 0 10 8l459 711h200l-633 -981l-116 -555h-185l117 555zM645 1694q7 35 38 59.5t67 24.5q32 0 53.5 -26t15.5 -58q-8 -36 -38.5 -62t-65.5 -26q-37 0 -57.5 25.5t-12.5 62.5zM967 1694q7 35 38 59.5t66 24.5q32 0 54 -26t16 -58 q-8 -35 -39 -61.5t-66 -26.5q-37 0 -57 25.5t-12 62.5z" />
<glyph unicode="&#x2c6;" horiz-adv-x="600" d="M309 1161l21 115l260 100l221 -96l-29 -115q-29 0 -217 95q-25 -10 -73.5 -30.5t-69.5 -29t-49.5 -20t-42.5 -15.5t-21 -4z" />
<glyph unicode="&#x2dc;" horiz-adv-x="833" d="M362 1384q47 52 109.5 90.5t128.5 38.5q47 0 131.5 -35.5t126.5 -35.5q33 0 62.5 12t46.5 24.5t53 43.5l45 -74q-39 -57 -97.5 -95t-109.5 -38q-52 0 -143 38t-137 38q-15 0 -31.5 -4.5t-27.5 -8.5t-31 -16t-26 -16t-30 -21t-26 -18z" />
<glyph unicode="&#x2000;" horiz-adv-x="965" />
<glyph unicode="&#x2001;" horiz-adv-x="1931" />
<glyph unicode="&#x2002;" horiz-adv-x="965" />
<glyph unicode="&#x2003;" horiz-adv-x="1931" />
<glyph unicode="&#x2004;" horiz-adv-x="643" />
<glyph unicode="&#x2005;" horiz-adv-x="482" />
<glyph unicode="&#x2006;" horiz-adv-x="321" />
<glyph unicode="&#x2007;" horiz-adv-x="321" />
<glyph unicode="&#x2008;" horiz-adv-x="241" />
<glyph unicode="&#x2009;" horiz-adv-x="386" />
<glyph unicode="&#x200a;" horiz-adv-x="107" />
<glyph unicode="&#x2010;" horiz-adv-x="808" d="M186 520l31 135h651l-30 -135h-652z" />
<glyph unicode="&#x2011;" horiz-adv-x="808" d="M186 520l31 135h651l-30 -135h-652z" />
<glyph unicode="&#x2012;" horiz-adv-x="808" d="M186 520l31 135h651l-30 -135h-652z" />
<glyph unicode="&#x2013;" horiz-adv-x="1179" d="M186 520l31 135h1024l-31 -135h-1024z" />
<glyph unicode="&#x2014;" horiz-adv-x="1542" d="M186 520l31 135h1385l-31 -135h-1385z" />
<glyph unicode="&#x2018;" horiz-adv-x="274" d="M360 1524l168 12l-69 -401h-64z" />
<glyph unicode="&#x2019;" horiz-adv-x="325" d="M313 1135l103 401l164 -12l-203 -389h-64z" />
<glyph unicode="&#x201a;" horiz-adv-x="325" d="M39 -158l102 400l162 -13l-201 -389z" />
<glyph unicode="&#x201c;" horiz-adv-x="542" d="M381 1524l168 12l-70 -401h-63zM618 1524l168 12l-69 -401h-64z" />
<glyph unicode="&#x201d;" horiz-adv-x="563" d="M313 1135l103 401l164 -12l-203 -389h-64zM551 1135l102 401l164 -12l-203 -389h-63z" />
<glyph unicode="&#x201e;" horiz-adv-x="563" d="M39 -158l102 400l162 -13l-201 -389zM274 -158l103 400l162 -13l-201 -389z" />
<glyph unicode="&#x2022;" horiz-adv-x="503" d="M197 614q18 76 82 130.5t141 54.5q75 0 118.5 -55t26.5 -130q-17 -77 -82 -130.5t-141 -53.5q-78 0 -120 53t-25 131z" />
<glyph unicode="&#x2026;" horiz-adv-x="1224" d="M92 80q7 35 39 59.5t68 24.5q32 0 52.5 -26t14.5 -58q-8 -36 -38.5 -62t-65.5 -26q-37 0 -57.5 25.5t-12.5 62.5zM541 80q7 35 38.5 59.5t67.5 24.5q32 0 53 -26t15 -58q-8 -35 -39 -61.5t-66 -26.5q-37 0 -57 25.5t-12 62.5zM989 80q7 35 39 59.5t68 24.5q32 0 52.5 -26 t14.5 -58q-8 -36 -38.5 -62t-65.5 -26q-37 0 -57.5 25.5t-12.5 62.5z" />
<glyph unicode="&#x202f;" horiz-adv-x="386" />
<glyph unicode="&#x2039;" horiz-adv-x="458" d="M152 553l340 397l96 -73l-277 -326l140 -324l-129 -73q-87 207 -152 352q-19 43 -18 47z" />
<glyph unicode="&#x203a;" horiz-adv-x="516" d="M127 227l279 324l-142 326l129 73l172 -397q-1 -4 -43 -52q-128 -147 -299 -347z" />
<glyph unicode="&#x205f;" horiz-adv-x="482" />
<glyph unicode="&#x20ac;" horiz-adv-x="1196" d="M178 557l29 135h115l30 144h-114l28 135h115l18 80q27 132 119.5 246.5t222.5 182.5t263 68q135 0 244 -79.5t145 -211.5l-185 -77q-22 81 -87.5 131.5t-155.5 50.5q-132 0 -246 -96t-141 -219l-17 -76h561l-28 -135h-562l-30 -144h561l-29 -135h-561l-14 -70 q-27 -124 48 -220.5t204 -96.5q91 0 178 49.5t143 132.5l139 -92q-91 -125 -225.5 -200.5t-273.5 -75.5q-95 0 -178 37.5t-137.5 104.5t-78 158t0.5 199l14 74h-115z" />
<glyph unicode="&#x2122;" horiz-adv-x="1310" d="M326 1446l18 92h490l-19 -92h-192q-11 0 -11 -8l-143 -668h-92l143 668q0 8 -4 8h-190zM735 770l164 768h133l78 -600l110 193l226 407h133l-162 -766h-92l131 621q-1 1 -86 -154t-170.5 -311t-87.5 -158h-72l-79 625l-134 -625h-92z" />
<glyph unicode="&#xe000;" horiz-adv-x="1024" d="M0 0v1024h1024v-1024h-1024z" />
<glyph unicode="&#xfb01;" horiz-adv-x="1132" d="M289 0l180 850h-158l33 158h158l37 176q24 114 106.5 182t188.5 68h180l-33 -158h-135q-112 0 -137 -115l-33 -153h295l-33 -158h-295l-180 -850h-174zM885 0l217 1024h174l-217 -1024h-174zM1149 1249q7 35 38.5 59.5t67.5 24.5q33 0 54 -26t14 -58q-8 -36 -38.5 -62 t-65.5 -26q-37 0 -57.5 25.5t-12.5 62.5z" />
</font>
</defs>
</svg>
