<?xml version="1.0" standalone="no"?>
<!DOCTYPE svg PUBLIC "-//W3C//DTD SVG 1.1//EN" "http://www.w3.org/Graphics/SVG/1.1/DTD/svg11.dtd" >
<svg xmlns="http://www.w3.org/2000/svg">
<metadata></metadata>
<defs>
<font id="nanami_inlineregular" horiz-adv-x="1228" >
<font-face units-per-em="2048" ascent="1536" descent="-512" />
<missing-glyph horiz-adv-x="593" />
<glyph horiz-adv-x="2048" />
<glyph horiz-adv-x="2048" />
<glyph unicode="&#xd;" horiz-adv-x="2048" />
<glyph unicode=" "  horiz-adv-x="593" />
<glyph unicode="&#x09;" horiz-adv-x="593" />
<glyph unicode="&#xa0;" horiz-adv-x="593" />
<glyph unicode="!" horiz-adv-x="491" d="M78 160q0 69 50 118.5t118 49.5q69 0 118.5 -49.5t49.5 -118.5q0 -68 -49.5 -118t-118.5 -50q-68 0 -118 50t-50 118zM80 416v1122h153v-1122h-153zM219 160q0 -12 8.5 -20.5t20.5 -8.5q11 0 19.5 8.5t8.5 20.5t-8.5 20t-19.5 8q-12 0 -20.5 -8t-8.5 -20zM262 416v1122 h152v-1122h-152z" />
<glyph unicode="&#x22;" horiz-adv-x="806" d="M84 877v620h131v-620h-131zM246 877v620h129v-620h-129zM432 877v620h129v-620h-129zM590 877v620h135v-620h-135z" />
<glyph unicode="#" horiz-adv-x="1296" d="M33 500v28h6v-28h-6zM39 385v115h373l-70 -500h-100l49 385h-252zM39 528v115h289l20 139h-248v111h369l-53 -365h-377zM100 924v116h283l57 394h115l-80 -510h-375zM371 0l71 500h338l-65 -500h-109l49 385h-104l-51 -385h-129zM446 528l54 365h338l-54 -365h-338z M504 924l80 510h118l-59 -394h105l55 394h121l-80 -510h-340zM588 643h102l23 139h-103zM743 0l70 500h385v-115h-283l-55 -385h-117zM815 528l53 365h387v-111h-284l-21 -139h248v-115h-383zM874 924l78 510h111l-55 -394h247v-116h-381z" />
<glyph unicode="$" horiz-adv-x="987" d="M49 322l115 51q15 -39 37 -73.5t60 -72.5t98 -62t135 -28v-315h-129v178q-132 30 -218 114.5t-98 207.5zM51 1049q0 179 80.5 293t233.5 149v184h124v-299q-127 -5 -207.5 -89.5t-80.5 -221.5q0 -98 73.5 -173.5t227.5 -135.5q136 -56 198 -134t62 -184 q0 -109 -75 -191.5t-179 -82.5q-124 0 -199 58t-119 163l140 64q12 -33 35 -60q48 -59 114 -59h10q42 0 72.5 31t30.5 73q0 28 -5 49.5t-18 38t-24 27t-36 21t-40 15.5t-49 15q-167 49 -268 166.5t-101 282.5zM229 1069q0 124 79.5 201.5t195.5 77.5q62 0 125.5 -48.5 t105.5 -125.5l-155 -72l-13 22q-17 37 -80 37q-36 0 -62 -30.5t-26 -69.5q0 -21 10.5 -40t23 -31.5t37.5 -26t39 -19.5l42 -18l27 -13q190 -82 276 -194t86 -283q0 -143 -79.5 -258t-203.5 -166v-190h-135v313q117 12 194 97.5t77 203.5q0 121 -64 202t-188 132 q-178 69 -245 137t-67 162zM518 1376v299h139v-194q82 -31 145 -91t91 -143l-133 -61q-45 90 -110 137.5t-132 52.5z" />
<glyph unicode="%" horiz-adv-x="1714" d="M53 1118q0 157 112 268t269 111q156 0 267.5 -111.5t111.5 -267.5t-111.5 -267.5t-267.5 -111.5q-157 0 -269 111t-112 268zM164 1120q0 -119 77.5 -194.5t194.5 -75.5t191.5 79.5t74.5 196.5q0 108 -79 184t-189 76q-114 0 -192 -78t-78 -188zM195 1120q0 98 65 167 t174 69q103 0 171.5 -71.5t68.5 -160.5q0 -105 -66 -175t-172 -70q-107 0 -174 67t-67 174zM317 1118q0 -47 34 -80.5t83 -33.5q47 0 81 33.5t34 80.5q0 49 -33.5 83t-81.5 34q-50 0 -83.5 -33.5t-33.5 -83.5zM408 94l737 1450l80 -41q-145 -265 -376 -732t-370 -722z M506 33q141 259 372 726.5t375 729.5l76 -37l-745 -1466zM901 379q0 157 112 268t269 111q156 0 267.5 -111.5t111.5 -267.5t-111.5 -267.5t-267.5 -111.5q-157 0 -269 111t-112 268zM1012 381q0 -119 77.5 -194.5t194.5 -75.5t191.5 79.5t74.5 196.5q0 108 -79 184t-189 76 q-114 0 -192 -78t-78 -188zM1042 381q0 98 65.5 166.5t174.5 68.5q103 0 171.5 -71t68.5 -160q0 -105 -66.5 -175.5t-171.5 -70.5q-107 0 -174.5 67.5t-67.5 174.5zM1165 379q0 -48 34 -81.5t83 -33.5q47 0 81 34t34 81q0 49 -33.5 83t-81.5 34q-50 0 -83.5 -34t-33.5 -83z " />
<glyph unicode="&#x26;" horiz-adv-x="1411" d="M63 449q0 119 57 223.5t159 181.5q-117 108 -117 285q0 153 116.5 263.5t272.5 110.5q154 0 264.5 -110t110.5 -264q0 -190 -166 -316l84 -80l131 248l129 -63l-213 -430l-350 338q116 48 184 127.5t68 183.5q0 93 -65.5 164t-180.5 71q-114 0 -179 -76.5t-65 -168.5 q0 -147 178 -291q-133 -74 -208.5 -171.5t-75.5 -213.5q0 -139 99.5 -238.5t238.5 -99.5q94 0 164 49.5t132 157.5l66 119l395 -338l-84 -107l-266 229q-61 -117 -165 -182t-236 -65q-129 0 -239 61.5t-174.5 168t-64.5 233.5zM227 461q0 106 73.5 200t207.5 164l366 -354 l-79 -141q-98 -172 -260 -172q-128 0 -218 88t-90 215zM334 1137q0 90 59.5 151.5t153.5 61.5q96 0 155.5 -61.5t59.5 -141.5q0 -91 -66 -172t-184 -119q-74 51 -126 131t-52 150zM387 457q0 -63 43.5 -106.5t106.5 -43.5q83 0 149 135l-194 185q-105 -80 -105 -170z M487 1133q0 -34 20 -72.5t32 -38.5q10 0 10 2q36 37 49.5 58.5t13.5 45.5q0 31 -20 48.5t-47 17.5q-30 0 -44 -17.5t-14 -43.5zM911 475l219 440l136 -67l-179 -334l304 -281l-78 -98z" />
<glyph unicode="'" horiz-adv-x="446" d="M80 870v627h129v-627h-129zM240 870v627h131v-627h-131z" />
<glyph unicode="(" horiz-adv-x="653" d="M102 358v697q0 324 244 516l98 -111q-94 -84 -138 -185t-44 -247v-643q0 -135 46 -238.5t141 -189.5l-103 -115q-244 189 -244 516zM291 385v649q0 132 38 223.5t134 182.5l106 -117q-77 -77 -98.5 -144t-21.5 -192v-563q0 -124 22 -193t98 -141l-102 -113 q-95 88 -135.5 187t-40.5 221z" />
<glyph unicode=")" horiz-adv-x="655" d="M102 90q77 72 99 141t22 193v563q0 125 -22 192t-99 144l107 117q96 -91 134 -182.5t38 -223.5v-649q0 -122 -41 -221t-135 -187zM219 -41l4 -2q95 86 141 189.5t46 238.5v643q0 146 -44 247t-139 185l99 111q243 -192 243 -516v-697q0 -328 -243 -516z" />
<glyph unicode="*" horiz-adv-x="890" d="M47 950v80l383 6l-274 -262l-60 60l131 116h-180zM47 1059v76h180q-4 4 -23 20t-48.5 43t-61.5 59l62 62l274 -270zM174 756l266 268l-6 -375h-86l6 176l-123 -129zM174 1337l55 56q6 -4 30.5 -28.5t55 -57t39.5 -41.5l-8 178h88l6 -383zM455 1061l6 383h82v-174l119 125 l61 -64zM459 1024l260 -266l-62 -62q-12 11 -56.5 61.5t-59.5 65.5v-174h-78zM467 1036l377 -6v-80q-15 0 -86 2t-88 2q3 -7 58 -59.5t67 -60.5l-58 -58zM467 1051l272 266l56 -57l-125 -125l174 6v-82z" />
<glyph unicode="+" horiz-adv-x="1071" d="M25 371v135h495v-496h-129v361h-366zM25 537v131h366v356h129v-487h-495zM551 10v496h500v-131h-369v-365h-131zM551 537v487h131v-356h369v-131h-500z" />
<glyph unicode="," horiz-adv-x="417" d="M29 246l131 26l76 -405l-97 -14zM195 279l118 24l49 -420l-102 -14z" />
<glyph unicode="-" horiz-adv-x="829" d="M76 436v135h678v-135h-678zM76 600v129h678v-129h-678z" />
<glyph unicode="." horiz-adv-x="419" d="M59 141q0 61 45 105.5t105 44.5q61 0 105 -44t44 -106q0 -60 -44 -104.5t-105 -44.5q-60 0 -105 44.5t-45 104.5zM186 141q0 -10 7 -17t16 -7q11 0 19 7t8 17t-8 17.5t-19 7.5q-9 0 -16 -7.5t-7 -17.5z" />
<glyph unicode="/" horiz-adv-x="604" d="M-6 39l428 1470l86 -26l-434 -1471zM106 2q66 225 205 707t224 766l79 -25q-70 -250 -236.5 -821t-189.5 -652z" />
<glyph unicode="0" d="M92 504v526q0 138 69.5 258t190.5 192t262 72t262 -72t191 -192t70 -258v-526q0 -138 -70 -257.5t-191 -191t-262 -71.5t-262 71.5t-190.5 191t-69.5 257.5zM244 553q0 -118 38.5 -209.5t123.5 -148t208 -56.5q174 0 270.5 114.5t96.5 299.5v440q0 183 -96.5 295.5 t-270.5 112.5q-182 0 -276 -113.5t-94 -294.5v-440zM274 547v446q0 170 85 273.5t255 103.5q163 0 249.5 -102t86.5 -275v-446q0 -175 -86.5 -278t-249.5 -103q-164 0 -252 106.5t-88 274.5zM438 508q0 -70 52.5 -123t123.5 -53q72 0 123 53t51 123v518q0 72 -51 125 t-123 53q-71 0 -123.5 -53.5t-52.5 -124.5v-518z" />
<glyph unicode="1" d="M328 1206v152h383v-1358h-158v1206h-225zM328 1386v150h571v-1536h-160v1386h-411z" />
<glyph unicode="2" d="M154 1270q182 266 467 266q212 0 356.5 -136.5t144.5 -340.5q0 -104 -53 -204t-139 -185l-320 -336h523v-158h-828l432 477q157 177 203.5 256t46.5 174q0 58 -24 114t-67.5 101.5t-111.5 73t-149 27.5q-129 0 -232 -63.5t-161 -161.5zM168 0v281l528 563 q107 112 107 198q0 71 -45.5 123t-136.5 52q-65 0 -139.5 -41.5t-129.5 -120.5l-90 96q58 95 155.5 156t217.5 61q72 0 134 -26t102 -67.5t62.5 -91.5t22.5 -100q0 -84 -46.5 -163.5t-186.5 -237.5l-461 -502l6 -35h865v-145h-965z" />
<glyph unicode="3" d="M166 188l63 105q180 -162 377 -162q163 0 255.5 93t92.5 251q0 132 -89 226.5t-212 121.5v2q93 57 142 143.5t49 182.5q0 109 -72 179.5t-192 70.5q-181 0 -322 -141l-63 118q80 75 182 120.5t213 45.5q183 0 292 -108t109 -275q0 -165 -125 -284q240 -150 240 -404 q0 -140 -69.5 -252.5t-184.5 -173.5t-252 -61q-135 0 -236.5 50t-197.5 152zM244 317l75 125q143 -133 256 -133q90 0 143.5 55t53.5 132q0 75 -63.5 131.5t-169.5 60.5l-123 2v119h149q149 0 257 -97t108 -231q0 -141 -84.5 -232t-247.5 -91q-83 0 -177 43.5t-177 115.5z M270 1239q66 67 145 101t158 34q117 0 180.5 -63.5t63.5 -161.5q0 -127 -80.5 -223.5t-175.5 -96.5h-145v111l55 2q94 3 147.5 48.5t53.5 115.5q0 51 -35 87t-86 36t-109 -28t-108 -75z" />
<glyph unicode="4" d="M80 268v267l616 1001h150l-656 -1090q0 -6 1.5 -13t1.5 -15h645v-418h-160v268h-598zM227 449l611 1026v-1026h-611zM494 596h184v326zM866 0v418h295v-148h-135v-270h-160zM866 449v1087h160v-944h135v-143h-295z" />
<glyph unicode="5" d="M172 139l68 117q155 -119 356 -119q178 0 286.5 112.5t108.5 291.5q0 167 -108 275t-265 108q-60 0 -112.5 -13t-77.5 -25.5t-72 -39.5l56 495h612v-149h-502l-18 -166q112 18 143 18q140 0 252.5 -64t178 -185t65.5 -279q0 -105 -42.5 -203t-115 -170t-174 -115.5 t-213.5 -43.5q-257 0 -426 155zM176 745l94 775h754v-150h-637l-63 -547l26 -12q58 40 118.5 61t147.5 21q138 0 242.5 -97.5t104.5 -254.5q0 -166 -101 -270.5t-272 -104.5q-90 0 -178 34.5t-156 86.5l72 125q66 -50 126.5 -71.5t135.5 -21.5q82 0 144.5 59t62.5 157 q0 90 -55 152.5t-150 62.5q-130 0 -223 -86z" />
<glyph unicode="6" d="M72 524q0 160 73 275l478 751l129 -84l-422 -624q-109 -159 -109 -326t110 -277t287 -110q169 0 280.5 111t111.5 280q0 76 -24 144.5t-70 124.5t-122.5 89t-172.5 33q-82 0 -156.5 -29t-126.5 -81l442 647l135 -86l-213 -324q199 -38 327 -176t128 -338 q0 -148 -73 -272.5t-198 -196t-272 -71.5q-110 0 -210.5 42.5t-173 114.5t-115.5 172t-43 211zM252 516q0 152 106 258.5t263 106.5q166 0 263 -105.5t97 -255.5q0 -153 -105 -257.5t-260 -104.5q-153 0 -258.5 97t-105.5 261zM420 524q0 -85 54 -139.5t140 -54.5 t140.5 54.5t54.5 139.5q0 86 -54.5 141.5t-140.5 55.5t-140 -55t-54 -142z" />
<glyph unicode="7" d="M166 1196v162h725l-529 -1292l-141 59l445 1071h-500zM166 1386v150h901v-246l-524 -1300l-152 63l543 1317l-4 16h-764z" />
<glyph unicode="8" d="M109 506q0 102 46 200t115 164q-94 113 -94 244q0 180 129 309t309 129t309.5 -129t129.5 -309q0 -69 -25 -125.5t-72 -118.5q70 -66 117 -164.5t47 -199.5q0 -138 -67.5 -258t-184.5 -192t-254 -72t-253.5 72t-184 192t-67.5 258zM252 498q0 -153 103.5 -259t265.5 -106 q150 0 252 104t102 265q0 122 -75 220t-210 138q98 29 152.5 99.5t54.5 164.5q0 124 -78 200.5t-198 76.5q-68 0 -123.5 -24.5t-89.5 -65t-52 -89t-18 -98.5q0 -185 209 -268q-144 -34 -219.5 -133t-75.5 -225zM281 498q0 138 98 237t242 99q127 0 226 -95.5t99 -236.5 q0 -149 -94 -244.5t-231 -95.5q-148 0 -244 98.5t-96 237.5zM369 1124q0 101 71 173.5t181 72.5q102 0 173.5 -66.5t71.5 -179.5q0 -104 -70 -175.5t-175 -71.5q-95 0 -173.5 70t-78.5 177zM444 498q0 -72 49 -121t121 -49q70 0 119 49t49 121q0 69 -49.5 118.5t-118.5 49.5 q-72 0 -121 -49t-49 -119zM512 1122q0 -41 30.5 -71.5t71.5 -30.5t71 30.5t30 71.5t-30 71t-71 30t-71.5 -30t-30.5 -71z" />
<glyph unicode="9" d="M72 1012q0 111 43 211t115.5 172t173 114.5t210.5 42.5q147 0 272 -71.5t198 -196t73 -272.5q0 -159 -74 -275l-489 -772l-131 84l436 645q109 159 109 326t-110.5 277t-287.5 110q-169 0 -282 -110.5t-113 -278.5q0 -159 111 -275t290 -116q167 0 275 108l-455 -669 l-135 88l225 344q-198 38 -326 176t-128 338zM244 1018q0 152 106.5 256t261.5 104q153 0 259 -97t106 -261q0 -148 -104.5 -255.5t-256.5 -107.5q-159 0 -265.5 104t-106.5 257zM420 1012q0 -87 54 -142t140 -55t140.5 55.5t54.5 141.5q0 85 -54.5 139.5t-140.5 54.5 t-140 -54.5t-54 -139.5z" />
<glyph unicode=":" horiz-adv-x="434" d="M68 141q0 61 44.5 105.5t104.5 44.5q61 0 105.5 -44.5t44.5 -105.5q0 -60 -44.5 -104.5t-105.5 -44.5q-60 0 -104.5 44.5t-44.5 104.5zM70 807q0 61 44.5 105t104.5 44q62 0 106 -44t44 -105q0 -60 -44.5 -105t-105.5 -45q-60 0 -104.5 45t-44.5 105zM195 141 q0 -10 6.5 -17t15.5 -7q11 0 19 7t8 17t-8 17.5t-19 7.5q-9 0 -15.5 -7.5t-6.5 -17.5zM197 807q0 -10 6.5 -17.5t15.5 -7.5q11 0 19 7.5t8 17.5t-8 17t-19 7q-9 0 -15.5 -7t-6.5 -17z" />
<glyph unicode=";" horiz-adv-x="421" d="M43 246l131 26l76 -405l-96 -14zM53 811q0 61 45 105.5t105 44.5q61 0 105 -44t44 -106q0 -60 -44 -104.5t-105 -44.5q-60 0 -105 44.5t-45 104.5zM180 811q0 -10 7 -17.5t16 -7.5q11 0 18.5 7.5t7.5 17.5t-7.5 17.5t-18.5 7.5q-9 0 -16 -7.5t-7 -17.5zM209 279l119 24 l49 -420l-103 -14z" />
<glyph unicode="&#x3c;" horiz-adv-x="1241" d="M33 410v217l1040 428l37 -92q-203 -82 -539.5 -226.5t-474.5 -201.5v-37l1014 -435l-31 -88zM129 516l991 418l39 -94l-778 -326l776 -319l-37 -101q-116 50 -314 134.5t-363 155t-314 132.5z" />
<glyph unicode="=" horiz-adv-x="1105" d="M84 170v129h940v-129h-940zM84 328v135h940v-135h-940zM84 539v125h940v-125h-940zM84 692v139h940v-139h-940z" />
<glyph unicode="&#x3e;" horiz-adv-x="1241" d="M33 840l37 94l989 -418q-168 -70 -494.5 -210t-494.5 -210l-35 99l776 319zM80 66l1012 432v37q-143 60 -476.5 202t-533.5 224l37 94l1038 -428v-217l-1044 -435z" />
<glyph unicode="?" horiz-adv-x="866" d="M43 1223q33 117 136 206t233 89q180 0 299.5 -101.5t119.5 -273.5q0 -85 -31.5 -155t-77 -114.5t-90.5 -81.5t-76.5 -72.5t-31.5 -70.5t12.5 -72.5t21.5 -54t36 -61.5l-154 -55q-53 75 -72.5 123t-19.5 114q0 104 174 244q156 126 156 254q0 92 -69 160.5t-171 68.5 q-93 0 -163 -53t-95 -141zM180 649q0 67 31 124t75 96.5t87.5 76t74.5 80t31 92.5q0 51 -43 51q-41 0 -71 -55l-156 51q21 79 82 127.5t147 48.5q94 0 151.5 -61t57.5 -139q0 -65 -33.5 -117t-113.5 -121q-98 -79 -139.5 -140.5t-41.5 -119.5q0 -122 97 -246l-133 -47 q-35 46 -69 134.5t-34 164.5zM309 160q0 68 49.5 118t116.5 50q71 0 120.5 -49t49.5 -119q0 -68 -49.5 -118t-120.5 -50q-66 0 -116 50.5t-50 117.5zM446 158q0 -12 8.5 -20.5t20.5 -8.5q11 0 20 8.5t9 20.5t-9 20t-20 8q-12 0 -20.5 -8t-8.5 -20z" />
<glyph unicode="@" horiz-adv-x="1712" d="M59 705q0 171 70 322.5t188.5 257.5t279 167t337.5 61q107 0 210 -24.5t195 -75.5t162 -122.5t111 -173t41 -220.5q0 -139 -57 -265t-160 -208q-58 -44 -132.5 -72t-148.5 -28q-153 0 -197 92q-86 -92 -225 -92q-145 0 -220 82t-75 233q0 141 57.5 256t154 178.5 t210.5 63.5q130 0 199 -78q6 9 14.5 27t11.5 24h84l-65 -227q-26 71 -88.5 123.5t-149.5 52.5q-93 0 -170 -59t-120.5 -158.5t-43.5 -214.5q0 -114 56.5 -169t150.5 -55q93 0 162.5 51t130.5 134q-4 -20 -4 -51q0 -65 33.5 -97t91.5 -32q131 0 227 65.5t142.5 173 t46.5 242.5q0 245 -172 391.5t-453 146.5q-177 0 -327.5 -56.5t-251.5 -152t-158 -223t-57 -268.5q0 -316 194 -486.5t526 -170.5h9q271 0 551 198l43 -59q-287 -223 -603 -223q-125 0 -243 29t-221.5 89t-180.5 144t-121.5 202t-44.5 255zM178 705v12q3 205 103.5 361 t272 238.5t388.5 82.5q149 0 265.5 -41t188 -111.5t108 -161t36.5 -194.5q0 -71 -13 -136.5t-42.5 -125t-73 -103t-109 -69t-145.5 -25.5q-55 0 -81.5 25.5t-26.5 89.5q0 38 18 112q12 45 55.5 200.5t67.5 250.5h94l-129 -526q-8 -27 -8 -37q0 -27 35 -27q79 0 147 80 q109 109 109 297q0 182 -138.5 294t-375.5 112q-174 0 -322.5 -79t-238 -221t-89.5 -315q0 -141 77.5 -254.5t211.5 -177t297 -63.5q304 0 516 149l37 -51q-147 -98 -267.5 -145.5t-287.5 -47.5q-315 0 -497.5 168t-182.5 439zM555 627q0 176 90.5 293.5t222.5 117.5 q90 0 151 -58t66 -122q0 -36 -8 -65l-30 -119q-23 -89 -114.5 -169.5t-184.5 -80.5q-100 0 -146.5 51t-46.5 152zM668 639q0 -137 102 -137q55 0 103.5 48.5t68.5 123.5l35 135q4 18 4 47q0 51 -29 78t-73 27q-87 0 -149 -96t-62 -226z" />
<glyph unicode="A" horiz-adv-x="1572" d="M41 0l618 1538h254l613 -1538h-158l-571 1374h-25l-571 -1374h-160zM233 0l168 414h770l168 -414h-186l-119 270h-495l-119 -270h-187zM412 444l372 885l373 -885h-745zM670 606h231l-115 289z" />
<glyph unicode="B" horiz-adv-x="1112" d="M86 0v1536h467q117 0 214 -62t149.5 -160.5t52.5 -209.5q0 -135 -70 -252q73 -67 114.5 -161.5t41.5 -201.5q0 -199 -140.5 -341.5t-341.5 -147.5h-487zM252 164h330q137 0 225 93t88 251q0 117 -75 203.5t-189 107.5q90 28 137 101t47 157q0 128 -85.5 210.5 t-233.5 82.5h-244v-1206zM283 193v600h315q109 0 187.5 -88t78.5 -197q0 -144 -80.5 -229.5t-197.5 -85.5h-303zM283 823v518h213q136 0 213 -75t77 -189q0 -111 -70.5 -182.5t-199.5 -71.5h-233zM440 354h123q59 0 98 43.5t39 104.5t-39 103t-98 42h-123v-293zM440 969h90 q45 4 70 33.5t25 68.5q0 41 -27.5 74t-75.5 37h-82v-213z" />
<glyph unicode="C" horiz-adv-x="1368" d="M55 770q0 159 62 304t166.5 249.5t249 166.5t303.5 62q283 0 481 -163q4 -4 6 -5l-100 -127q-63 60 -173 99t-223 39q-139 0 -255.5 -49.5t-194.5 -134.5t-121 -199t-43 -242t46 -241.5t127 -196.5t200 -131.5t258 -48.5q114 0 215 35t164 92l102 -125 q-13 -13 -32.5 -28.5t-65 -42.5t-97.5 -47.5t-131 -36t-163 -15.5q-159 0 -304 62.5t-249 168t-166 251t-62 304.5zM244 770q0 165 69.5 299t204 214.5t309.5 80.5q106 0 211 -37t166 -94l-102 -131q-118 96 -264 96q-185 -1 -306.5 -125t-121.5 -303q0 -189 121 -309.5 t307 -120.5q67 0 137.5 26t126.5 68l100 -129q-61 -56 -158 -90.5t-200 -34.5q-176 0 -314 79.5t-212 213.5t-74 297z" />
<glyph unicode="D" horiz-adv-x="1425" d="M86 0v1536h512q212 0 388 -96t280 -272.5t104 -397.5q0 -170 -61 -315t-166 -244t-246.5 -155t-300.5 -56h-510zM242 164h303q143 0 262.5 37t211.5 109.5t143.5 190t51.5 269.5q0 129 -46 240t-129.5 191.5t-208 126.5t-275.5 46h-313v-1210zM272 193v1153h283 q183 0 326 -70t224 -201.5t81 -304.5q0 -266 -168.5 -421.5t-472.5 -155.5h-273zM440 354h162q180 0 297 117t117 299q0 181 -112 296.5t-292 115.5h-172v-828z" />
<glyph unicode="E" horiz-adv-x="1044" d="M86 0v1536h881v-162h-717v-1208h717v-166h-881zM279 195v561h688v-160h-527v-242h527v-159h-688zM279 786v560h688v-164h-527v-232h527v-164h-688z" />
<glyph unicode="F" horiz-adv-x="991" d="M86 0v1536h881v-162h-719v-1374h-162zM276 0v762h691v-166h-527v-596h-164zM276 793v553h691v-164h-527v-232h527v-157h-691z" />
<glyph unicode="G" horiz-adv-x="1505" d="M61 764q0 213 100.5 393.5t277.5 286.5t390 106q100 0 189.5 -19t151.5 -50t95 -52.5t58 -42.5l4 -4l-102 -133q-151 144 -389 144q-142 0 -261 -51.5t-196.5 -138.5t-120.5 -199t-43 -234q0 -134 47 -251t128 -200t195.5 -130.5t245.5 -47.5q161 0 272.5 59t174.5 158 v351h-528v143h684v-559q-89 -131 -243.5 -220t-361.5 -89q-155 0 -297.5 62t-245.5 166.5t-164 249t-61 302.5zM246 770q0 179 77.5 314.5t211 206.5t301.5 71q222 0 368 -139l-94 -121q-125 94 -281 94q-116 0 -212 -58.5t-149.5 -157.5t-53.5 -216q0 -169 123.5 -296.5 t298.5 -127.5q166 0 235 90v100h-321v150h497v-313q-53 -85 -162 -141t-254 -56q-163 0 -297 79t-211 216.5t-77 304.5z" />
<glyph unicode="H" horiz-adv-x="1300" d="M88 0v1536h158v-1536h-158zM274 0v754h754v-754h-168v592h-418v-592h-168zM274 784v752h168v-590h418v590h168v-752h-754zM1057 0v1536h157v-1536h-157z" />
<glyph unicode="I" horiz-adv-x="520" d="M84 0v1536h162v-1536h-162zM274 0v1536h166v-1536h-166z" />
<glyph unicode="J" horiz-adv-x="929" d="M35 205l121 67q30 -50 100.5 -89.5t159.5 -39.5q134 0 203 77t69 216v1100h164v-1112q0 -183 -127.5 -311.5t-308.5 -128.5q-122 0 -224 59t-157 162zM182 287l166 94q15 -43 68 -43q35 0 58.5 25t23.5 61v1112h159v-1104q0 -124 -61 -192t-180 -68q-76 0 -139 35t-95 80 z" />
<glyph unicode="K" horiz-adv-x="1216" d="M84 0v1536h160v-1536h-160zM270 748h213l484 -748h-197l-332 545v-545h-166zM270 774l2 762h166v-549l334 549h189l-478 -762h-213zM508 762l491 774h187l-475 -770l485 -766h-195z" />
<glyph unicode="L" horiz-adv-x="942" d="M84 0v1536h156v-1378h665v-158h-821zM268 186v1350h170v-1182h467v-168h-637z" />
<glyph unicode="M" horiz-adv-x="1720" d="M84 0v1536h168v-1536h-168zM281 0v1536h45l516 -1417h22l535 1417h43v-1536h-160v846q-135 -399 -178 -516l-115 -330h-272l-271 842v-842h-165zM356 1536h158l340 -963l346 963h166l-514 -1372zM1473 0v1536h163v-1536h-163z" />
<glyph unicode="N" horiz-adv-x="1400" d="M84 0v1536h156v-1536h-156zM268 0v1487l860 -1487h-155l-535 872v-872h-170zM268 1536h164l531 -879v879h165v-1481zM1157 0v1536h160v-1536h-160z" />
<glyph unicode="O" horiz-adv-x="1679" d="M59 766q0 159 62 304.5t166 251t249 168t304 62.5t303.5 -62.5t249 -168t166 -251t61.5 -304.5t-61.5 -305t-166 -252t-249 -169t-303.5 -63q-212 0 -392 106.5t-284.5 288t-104.5 394.5zM215 770q0 -180 80 -325.5t226 -229.5t331 -84q264 0 438 181.5t174 457.5 q0 186 -83 331.5t-225.5 224.5t-317.5 79q-183 0 -327 -89t-220 -233t-76 -313zM244 770q0 159 71 295.5t209 222.5t314 86q114 0 212.5 -35.5t168 -95t119.5 -137.5t74 -163.5t24 -172.5q0 -172 -77.5 -311.5t-211 -218t-293.5 -78.5q-123 0 -234.5 44.5t-194.5 123 t-132 193t-49 247.5zM414 766q0 -178 125.5 -304t300.5 -126q178 0 302 125.5t124 304.5q0 116 -56.5 215.5t-154.5 158t-215 58.5q-175 0 -300.5 -127.5t-125.5 -304.5z" />
<glyph unicode="P" horiz-adv-x="1052" d="M84 0v1536h485q200 0 330.5 -136.5t130.5 -338.5q0 -133 -58.5 -244t-164.5 -176.5t-238 -65.5h-131v-575h-170v733h252q169 0 263 82t94 242t-100 238.5t-273 78.5h-264v-1374h-156zM268 764v582h236q162 0 252 -70t90 -219q0 -293 -326 -293h-252zM438 930h131 q55 0 81 42.5t26 88.5q0 24 -9 50t-34.5 48.5t-63.5 22.5h-131v-252z" />
<glyph unicode="Q" horiz-adv-x="1685" d="M63 770q0 159 62 304t166.5 249.5t249 166.5t303.5 62t303.5 -62t249 -166.5t166 -249.5t61.5 -304q0 -259 -141 -457l108 -120l-123 -113l-202 223q89 87 142.5 206.5t53.5 260.5q0 122 -44.5 235t-123 200t-196.5 139.5t-256 52.5q-122 0 -235 -45.5t-199 -125.5 t-137.5 -199t-51.5 -257q0 -112 33 -211t92 -174t136.5 -129.5t170 -82.5t189.5 -28q121 0 212.5 32t188.5 108l205 -226l-123 -112l-115 125q-163 -88 -364 -88q-159 0 -304 62.5t-249 168t-166 251t-62 304.5zM248 770q0 133 49.5 246.5t132.5 189t190 118t222 42.5 q133 0 246 -49.5t187.5 -132.5t116.5 -190.5t42 -223.5q0 -253 -191 -448l-229 249l121 105l92 -105q43 82 43 199q0 178 -124 303t-302 125q-175 0 -300.5 -125.5t-125.5 -302.5q0 -178 126.5 -306t301.5 -128q78 0 119 14l-86 105l110 96l232 -248q-87 -66 -177 -97.5 t-204 -31.5q-115 0 -222 43t-189 118.5t-131.5 189t-49.5 245.5z" />
<glyph unicode="R" horiz-adv-x="1196" d="M84 0v1536h512q202 0 337.5 -137.5t135.5 -341.5q0 -288 -227 -424l358 -633h-166l-411 760q145 22 214.5 102t69.5 193q0 147 -91 233t-288 86h-286v-1374h-158zM266 0v756h326l407 -756h-190l-317 586h-54v-586h-172zM266 784v562h262q182 0 266.5 -79.5t84.5 -211.5 q0 -115 -84 -193t-240 -78h-289zM438 924h146q61 0 96 37t35 96q0 52 -36 88.5t-95 36.5h-146v-258z" />
<glyph unicode="S" horiz-adv-x="1032" d="M66 1077q0 214 125 342.5t337 128.5q78 0 157 -30t146 -92.5t95 -145.5l-150 -70q-37 88 -108 140.5t-156 52.5q-144 0 -220.5 -86t-76.5 -211q0 -99 65 -176.5t214 -153.5q185 -96 248 -166.5t63 -169.5q0 -118 -80.5 -192t-200.5 -74q-105 0 -179.5 51t-115.5 142 l129 59q31 -45 65 -66.5t91 -21.5q46 0 78.5 28t32.5 78q0 28 -10 51t-24 39t-41.5 32t-48.5 25.5t-59 24.5q-170 68 -273 183.5t-103 277.5zM76 299l125 55q96 -211 329 -211q127 0 216.5 86t89.5 217q0 99 -70.5 182.5t-233.5 162.5q-166 82 -227 155t-61 160 q0 119 71 192.5t191 73.5q154 0 246 -172l-148 -67q-29 59 -92 59q-37 0 -64.5 -31.5t-27.5 -70.5q0 -26 13.5 -48.5t40.5 -40t48 -28t53 -23.5l27 -12q201 -89 286 -196.5t85 -295.5q0 -192 -130 -327t-317 -135q-225 0 -358 157q-55 64 -92 158z" />
<glyph unicode="T" horiz-adv-x="1079" d="M41 1182v178h477v-1358h-158v1180h-319zM41 1389v147h1001v-147h-1001zM549 2v1358h493v-178h-327v-1180h-166z" />
<glyph unicode="U" horiz-adv-x="1187" d="M76 444v1092h153v-1028q0 -163 105 -268t268 -105q160 0 255 104.5t95 270.5v1026h160v-1092q0 -98 -43 -185t-114 -146.5t-164 -94t-191 -34.5q-134 0 -253.5 57.5t-195 164.5t-75.5 238zM260 508v1028h170v-1053q0 -62 54.5 -103.5t115.5 -41.5q62 0 108 39.5t50 99.5 v1059h166v-1028q0 -153 -87 -247.5t-235 -94.5q-150 0 -246 96t-96 246z" />
<glyph unicode="V" horiz-adv-x="1404" d="M25 1536h165l506 -1364h23l479 1364h180l-542 -1536h-269zM225 1536h181l294 -899l291 899h178l-462 -1325z" />
<glyph unicode="W" horiz-adv-x="1763" d="M12 1536h154l393 -1372h29l295 1177h4l305 -1177h31q67 258 183 686t183 686h164l-412 -1536h-276l-184 721l-183 -721h-278zM199 1536h180l178 -729l184 729h283l180 -729l185 729h167l-344 -1323h-8l-309 1190h-21l-301 -1180h-6z" />
<glyph unicode="X" horiz-adv-x="1427" d="M18 0l478 766l-476 770h195l471 -766l-477 -770h-191zM242 0l460 743l461 -743h-194l-264 428l-267 -428h-196zM244 1536h192l269 -430l264 430h192l-459 -741zM717 770l477 766h190l-473 -770l482 -766h-197z" />
<glyph unicode="Y" horiz-adv-x="1255" d="M20 1536h175l421 -977v-559h-163v555zM225 1536h191l213 -537l213 537h186l-397 -948zM645 0v559l416 977h172l-426 -981v-555h-162z" />
<glyph unicode="Z" horiz-adv-x="1103" d="M51 1182v170h856l-717 -1166v-34h867v-152h-994v260l605 922h-617zM51 1380v156h998v-274l-545 -908h553v-172h-834l713 1164v34h-885z" />
<glyph unicode="[" horiz-adv-x="690" d="M86 -279l2 1903h537v-141h-383v-1614h383v-148h-539zM272 -102v1554h353v-133h-195v-1294h195v-127h-353z" />
<glyph unicode="\" horiz-adv-x="684" d="M8 1446l109 33l430 -1473l-115 -35q-388 1349 -424 1475zM143 1487l121 35l424 -1471l-110 -35z" />
<glyph unicode="]" horiz-adv-x="690" d="M86 25h195v1294h-195v133h352v-1554h-352v127zM86 -131h383v1614h-383v141h537l2 -1903h-539v148z" />
<glyph unicode="^" horiz-adv-x="1021" d="M39 819l381 690h186l369 -688l-96 -59l-351 661h-36l-349 -669zM172 735l338 643l340 -635l-111 -69l-227 432l-236 -434z" />
<glyph unicode="_" horiz-adv-x="1298" d="M0 -43h1298v-94h-1298v94zM0 -158h1298v-98h-1298v98z" />
<glyph unicode="`" horiz-adv-x="610" d="M47 1264l49 114q59 -23 195 -82t207 -86l-47 -114zM109 1405l57 133l395 -174l-53 -127q-60 24 -196 82.5t-203 85.5z" />
<glyph unicode="a" horiz-adv-x="1193" d="M57 512q0 142 71.5 264t193 193t262.5 71q132 0 243 -57v51h111v-385q-36 114 -129 185t-231 71q-88 0 -161.5 -34t-121 -89.5t-74 -125t-26.5 -142.5q0 -104 44.5 -193t135 -146.5t209.5 -57.5q134 0 227.5 71.5t126.5 178.5v-367h-111v39q-102 -55 -243 -55t-262.5 71 t-193 193t-71.5 264zM227 514q0 154 99.5 258.5t251.5 104.5q162 0 257 -106.5t95 -256.5q0 -90 -28 -161.5t-76.5 -115.5t-110 -67t-131.5 -23q-146 0 -251.5 101t-105.5 266zM389 512q0 -86 56.5 -142.5t138.5 -56.5q86 0 141 56t55 143t-55 143t-141 56 q-82 0 -138.5 -56.5t-56.5 -142.5zM969 0v1034h145v-1034h-145z" />
<glyph unicode="b" horiz-adv-x="1165" d="M82 0v1436h154v-1436h-154zM266 0v367q32 -105 131 -177.5t230 -72.5q119 0 208 57.5t132 146.5t43 193q0 73 -26.5 142.5t-74 125t-121 89.5t-161.5 34q-138 0 -231.5 -71t-129.5 -185v787h150v-435q86 37 198 37q141 0 262.5 -71t193 -193t71.5 -264 q0 -143 -71.5 -264.5t-193 -191.5t-262.5 -70q-125 0 -245 55v-39h-103zM274 514q0 150 95.5 256.5t257.5 106.5q152 0 251 -104.5t99 -258.5q0 -166 -102.5 -266.5t-247.5 -100.5q-65 0 -127 23t-113 67t-82 116t-31 161zM418 510q0 -86 55 -141.5t141 -55.5q83 0 139 56 t56 141t-56 141t-139 56q-86 0 -141 -55.5t-55 -141.5z" />
<glyph unicode="c" horiz-adv-x="1095" d="M57 514q0 143 70.5 264t193 191.5t267.5 70.5q129 0 246.5 -66t187.5 -165l-123 -80q-44 71 -128 120.5t-179 49.5q-169 0 -277 -110t-108 -275q0 -159 103 -271t276 -112q98 0 189 55.5t155 155.5l127 -66q-69 -133 -193.5 -212.5t-275.5 -79.5q-145 0 -267.5 70.5 t-193 192.5t-70.5 267zM238 514q0 147 97 249.5t255 102.5q187 0 282 -155l-118 -76q-26 24 -42 36t-49.5 24t-72.5 12q-80 0 -136.5 -56.5t-56.5 -136.5q0 -82 56.5 -139.5t136.5 -57.5q54 0 95 26.5t81 82.5l135 -70q-58 -90 -139 -143t-176 -53q-153 0 -250.5 100 t-97.5 254z" />
<glyph unicode="d" horiz-adv-x="1165" d="M25 510q0 107 42 204.5t113 168t168.5 112t204.5 41.5q111 0 197 -37v437h157v-787q-36 114 -129 185t-231 71q-88 0 -161.5 -34t-121 -89.5t-74 -125t-26.5 -142.5q0 -104 44.5 -193t135 -146.5t209.5 -57.5q134 0 227.5 71.5t126.5 178.5v-367h-110v39 q-113 -55 -244 -55q-107 0 -204.5 41.5t-168.5 112t-113 168t-42 204.5zM197 514q0 154 99 258.5t251 104.5q162 0 257 -106.5t95 -256.5q0 -90 -28 -161.5t-76.5 -115.5t-110 -67t-131.5 -23q-146 0 -251 101t-105 266zM356 510q0 -86 56 -141.5t141 -55.5t140 55.5 t55 141.5t-55 141.5t-140 55.5t-141 -55.5t-56 -141.5zM938 0v1436h145v-1436h-145z" />
<glyph unicode="e" horiz-adv-x="1110" d="M57 516q0 219 150.5 371.5t370.5 152.5q202 0 335.5 -142t133.5 -368v-133h-639q0 -39 61.5 -85t148.5 -46q76 0 142 15q47 11 133 49l47 -107q-82 -48 -159.5 -68t-180.5 -20q-159 0 -264.5 103t-114.5 268h705v18q0 173 -92.5 279t-262.5 106q-87 0 -161 -34.5 t-121 -90.5t-73 -123.5t-26 -136.5q0 -181 120.5 -300.5t289.5 -119.5q208 0 352 93l45 -101q-85 -55 -179 -83.5t-230 -28.5q-150 0 -272.5 71t-190.5 193t-68 268zM221 535q5 88 47.5 166t122.5 129t180 51q152 0 234.5 -90.5t93.5 -255.5h-678zM403 627h336 q0 45 -46.5 83t-123.5 38q-67 0 -115 -40t-51 -81z" />
<glyph unicode="f" horiz-adv-x="776" d="M45 717v153h260v-870h-145v717h-115zM45 901v123h115v84q0 156 77 241t222 85h215v-136h-193q-88 0 -132 -53.5t-44 -146.5v-197h-260zM336 0v870h395v-153h-237v-717h-158zM336 901v197q0 81 37.5 126.5t107.5 45.5h193v-135h-109q-71 0 -71 -66v-45h237v-123h-395z" />
<glyph unicode="g" horiz-adv-x="1187" d="M57 514q0 107 42.5 204.5t113.5 168t168.5 112t204.5 41.5q130 0 243 -55v39h111v-358q-44 116 -138 178.5t-218 62.5q-164 0 -274.5 -112t-110.5 -285q0 -170 107.5 -281.5t281.5 -111.5q116 0 210 61t142 189v-222q0 -188 -99 -310t-284 -122q-80 0 -149.5 31.5 t-102.5 69.5l92 98q86 -66 164 -66q70 0 129 48t76 122q-82 -30 -180 -30q-142 0 -264 71t-193.5 193t-71.5 264zM186 -319l99 110q39 -44 113.5 -75t158.5 -31q200 0 307 131.5t107 347.5v860h145v-883q0 -167 -69 -303.5t-198.5 -217.5t-295.5 -81q-103 0 -198.5 37.5 t-168.5 104.5zM231 510q0 155 95.5 261t257.5 106q153 0 250.5 -101t97.5 -266q0 -167 -97 -266t-247 -99q-155 0 -256 107t-101 258zM389 514q0 -86 56 -141.5t141 -55.5t139.5 55.5t54.5 141.5t-54.5 141.5t-139.5 55.5t-141 -55.5t-56 -141.5z" />
<glyph unicode="h" horiz-adv-x="1038" d="M82 0v1440h145v-1440h-145zM256 0v524q0 143 89 242.5t204 99.5q272 0 272 -309v-557h-153v578q0 54 -36.5 90.5t-90.5 36.5t-90.5 -36.5t-36.5 -90.5v-578h-158zM256 666v774h160v-418q45 16 125 16q220 0 340 -118.5t120 -337.5v-582h-151v553q0 167 -71 254.5 t-230 87.5q-93 0 -177 -66t-116 -163z" />
<glyph unicode="i" horiz-adv-x="485" d="M76 0v1024h151v-1024h-151zM76 1231q0 68 49.5 118t118.5 50q68 0 118 -50.5t50 -117.5q0 -69 -50 -118.5t-118 -49.5q-69 0 -118.5 49.5t-49.5 118.5zM219 1231q0 -12 8.5 -20.5t20.5 -8.5q11 0 19.5 8.5t8.5 20.5t-8.5 20.5t-19.5 8.5q-12 0 -20.5 -8.5t-8.5 -20.5z M256 0v1024h154v-1024h-154z" />
<glyph unicode="j" horiz-adv-x="610" d="M66 -133l88 10q29 10 39 28t10 54v1065h153v-1124q0 -87 -43 -136t-112 -49h-135v152zM66 -313h135q85 0 134.5 56.5t49.5 156.5v1124h152v-1182q0 -68 -20 -122.5t-51.5 -87.5t-73.5 -54.5t-82 -30t-81 -8.5h-161zM188 1231q0 68 49.5 118t118.5 50q68 0 118 -50.5 t50 -117.5q0 -69 -50 -118.5t-118 -49.5q-69 0 -118.5 49.5t-49.5 118.5zM332 1233q0 -12 8 -20.5t20 -8.5q11 0 20 8.5t9 20.5t-9 20.5t-20 8.5q-12 0 -20 -8.5t-8 -20.5z" />
<glyph unicode="k" horiz-adv-x="978" d="M82 0v1434h143v-1434h-143zM256 0v518h195l342 -518h-187l-190 305v-305h-160zM256 549v885h160v-711l188 301h166l-315 -475h-199zM477 532l330 492h172l-322 -508q21 -33 156 -249.5t170 -266.5h-149z" />
<glyph unicode="l" horiz-adv-x="491" d="M80 0v1434h149v-1434h-149zM258 0v1434h156v-1434h-156z" />
<glyph unicode="m" horiz-adv-x="1669" d="M82 0v1022h145v-1022h-145zM256 0v530q0 141 91 239.5t202 98.5q123 0 197.5 -87t74.5 -255v-526h-151v580q0 54 -36.5 90.5t-90.5 36.5q-51 0 -86.5 -33.5t-40.5 -83.5v-590h-160zM256 672v350h102v-23q75 41 185 41q177 0 293 -84q116 84 294 84q220 0 340.5 -118.5 t120.5 -337.5v-584h-151v555q0 157 -77 249.5t-228 92.5q-100 0 -182 -69.5t-117 -190.5q-24 125 -96 192.5t-191 67.5q-94 0 -174.5 -62t-118.5 -163zM850 0v528q2 79 27 144t65 107t90.5 64.5t104.5 22.5q139 0 206.5 -83.5t67.5 -227.5v-555h-154v580q0 54 -36.5 90.5 t-90.5 36.5q-50 0 -85.5 -33.5t-40.5 -83.5v-590h-154z" />
<glyph unicode="n" horiz-adv-x="1077" d="M82 0v1022h145v-1022h-145zM256 0v532q0 141 90.5 238.5t202.5 97.5q126 0 198 -94.5t72 -245.5v-528h-149v580q0 54 -36.5 90.5t-90.5 36.5q-49 0 -85.5 -33.5t-41.5 -83.5v-590h-160zM256 674v348h102v-23q75 41 185 41q220 0 340.5 -118.5t120.5 -337.5v-584h-156v524 q0 165 -78.5 269t-220.5 104q-97 0 -174.5 -61t-118.5 -162z" />
<glyph unicode="o" horiz-adv-x="1169" d="M57 514q0 143 70 264t192 191.5t267 70.5q143 0 264 -70.5t191.5 -191.5t70.5 -264q0 -145 -70.5 -267t-191.5 -192.5t-264 -70.5q-145 0 -267 70.5t-192 192.5t-70 267zM205 516q0 -115 55.5 -205.5t140 -136t179.5 -45.5q160 0 273.5 106.5t113.5 280.5 q0 166 -107.5 275.5t-281.5 109.5q-107 0 -194 -56.5t-133 -144t-46 -184.5zM238 516q0 149 98 252.5t242 103.5q163 0 260.5 -103.5t97.5 -252.5q0 -162 -102.5 -259t-253.5 -97q-134 0 -238 98.5t-104 257.5zM393 514q0 -82 55.5 -138.5t137.5 -56.5q80 0 136 56.5 t56 138.5q0 80 -56.5 136.5t-135.5 56.5q-81 0 -137 -56.5t-56 -136.5z" />
<glyph unicode="p" horiz-adv-x="1165" d="M82 -420v1444h149v-1444h-149zM262 367q32 -103 131 -176.5t223 -73.5q90 0 165 33.5t123.5 89t75 126.5t26.5 148q0 73 -26.5 142.5t-74 125t-121 89.5t-161.5 34q-138 0 -231.5 -71t-129.5 -185v375h107v-41q120 55 245 55q141 0 262.5 -70t193 -191.5t71.5 -264.5 t-71.5 -264.5t-193 -191.5t-262.5 -70q-112 0 -198 37v-443h-154v787zM270 514q0 150 95.5 256.5t257.5 106.5q152 0 251 -104.5t99 -258.5q0 -165 -105.5 -266t-251.5 -101q-63 0 -123.5 23t-111 67t-81 116t-30.5 161zM418 512q0 -86 55 -141.5t141 -55.5q83 0 139 56 t56 141t-56 141t-139 56q-86 0 -141 -55.5t-55 -141.5z" />
<glyph unicode="q" horiz-adv-x="1165" d="M51 512q0 143 71.5 264.5t193 191.5t262.5 70q125 0 245 -55v41h115v-375q-36 114 -129 185t-231 71q-88 0 -161.5 -34t-121 -89.5t-74 -125t-26.5 -142.5q0 -104 44.5 -193t135 -146.5t209.5 -57.5q134 0 227.5 71.5t126.5 178.5v-787h-162v443q-86 -37 -198 -37 q-141 0 -262.5 70t-193 191.5t-71.5 264.5zM227 514q0 154 99.5 258.5t251.5 104.5q162 0 257 -106.5t95 -256.5q0 -90 -28 -161.5t-76.5 -115.5t-110 -67t-131.5 -23q-146 0 -251.5 101t-105.5 266zM383 512q0 -85 56 -141t139 -56q86 0 141 55.5t55 141.5t-55 141.5 t-141 55.5q-83 0 -139 -56t-56 -141zM969 -420v1444h141v-1444h-141z" />
<glyph unicode="r" horiz-adv-x="733" d="M82 0v1024h149v-1024h-149zM262 0v553q0 60 15 115t45 102t81.5 75.5t118.5 28.5q160 0 191 -2v-165h-166q-59 0 -95 -33.5t-36 -83.5v-590h-154zM262 709v315h96v-25q75 41 185 41h16q49 0 154 -14v-125q-33 2 -142 2h-34q-219 0 -275 -194z" />
<glyph unicode="s" horiz-adv-x="763" d="M43 266l96 35q85 -190 242 -190q92 0 148.5 52t56.5 140q0 108 -156 199q-127 73 -173 120.5t-46 104.5q0 76 51 129t123 53q64 0 114.5 -42.5t73.5 -106.5l-124 -43q0 1 -3 4.5t-5 6t-6 7t-7.5 7.5t-8.5 6t-10.5 4.5t-11.5 1.5q-37 0 -37 -37q0 -19 43 -47t62 -33l8 -4 q48 -27 79 -49t69.5 -62t58.5 -95.5t20 -125.5q0 -132 -91 -224.5t-220 -92.5q-195 0 -291 141q-40 63 -55 141zM72 717q0 148 86.5 235.5t234.5 87.5q114 0 205.5 -71t103.5 -164l-104 -37q-23 74 -81 122t-124 48q-94 0 -152.5 -63t-58.5 -150q0 -62 41 -110t137 -103 q116 -67 155.5 -115t39.5 -92q0 -76 -45 -122t-137 -46q-65 0 -115.5 42t-93.5 130l108 39q16 -29 42.5 -51.5t54.5 -22.5q45 0 45 39q0 9 -7.5 18t-21.5 18t-27 15.5t-29.5 14.5t-23.5 12l-10 6q-82 49 -110 73q-112 97 -113 247z" />
<glyph unicode="t" horiz-adv-x="831" d="M25 717v141h372v-858h-147v717h-225zM25 889v135h225v274h147v-409h-372zM428 0v858h377v-141h-221v-717h-156zM428 889v409h156v-274h221v-135h-377z" />
<glyph unicode="u" horiz-adv-x="1075" d="M74 440v584h149v-584q0 -147 80 -230t225 -83q100 0 176.5 54.5t116.5 152.5v-334h-104v23q-72 -39 -182 -39q-220 0 -340.5 118.5t-120.5 337.5zM252 436v588h156v-580q0 -54 36.5 -90.5t90.5 -36.5q51 0 89 33.5t38 81.5v592h159v-549q0 -142 -86 -230.5t-207 -88.5 q-126 0 -201 74t-75 206zM850 0v1024h145v-1024h-145z" />
<glyph unicode="v" horiz-adv-x="989" d="M6 1024h150l327 -883h25l307 883h164l-358 -1024h-256zM186 1024h181l125 -428l129 428h161l-286 -838z" />
<glyph unicode="w" horiz-adv-x="1447" d="M12 1024h150l266 -922h21l280 772l281 -772h24l244 922h158l-279 -1024h-280l-154 459l-154 -459h-276zM190 1024h177l106 -459l125 461h252l131 -448l102 446h166l-229 -872l-281 770h-20l-279 -770z" />
<glyph unicode="x" horiz-adv-x="1073" d="M8 0l326 514l-318 510h170l322 -512l-322 -512h-178zM219 1024h193l120 -229l121 229h176l-305 -485zM221 0l303 485l307 -485h-180l-119 229l-116 -229h-195zM543 512l317 512h189l-320 -512l332 -512h-197z" />
<glyph unicode="y" horiz-adv-x="1001" d="M16 1024h160l318 -887l-185 -530l-159 4q178 512 178 528zM211 1024h168l123 -428l123 426h166l-283 -838zM342 -393l483 1415h158l-485 -1419z" />
<glyph unicode="z" horiz-adv-x="884" d="M76 0v221l325 473h-325v160h575l-440 -680v-33h604v-141h-739zM76 885v139h739v-229l-297 -463h297v-160h-567l442 680v33h-614z" />
<glyph unicode="{" horiz-adv-x="727" d="M49 551v262h92q152 0 152 215v240q0 142 22 213.5t95 117.5q86 48 266 48v-99h-94q-91 0 -132.5 -62t-41.5 -196v-200q0 -206 -42.5 -287.5t-154.5 -93.5v-35q54 -6 93.5 -34t61.5 -70.5t32 -88.5t10 -98v-295q0 -140 40 -202t134 -62h88v-105q-174 0 -260 48 q-73 46 -95 117.5t-22 211.5v242q0 204 -152 213h-92zM262 690v2q72 0 122 87t50 222v297q0 107 35 164.5t117 57.5h90v-113q-67 -7 -88 -42.5t-21 -127.5v-244q0 -127 -30 -198.5t-113 -112.5q83 -41 113 -112.5t30 -198.5v-242q0 -93 20 -129.5t83 -40.5v-104h-84 q-82 0 -116 51.5t-34 150.5v349q0 115 -50.5 192.5t-123.5 91.5z" />
<glyph unicode="|" horiz-adv-x="452" d="M82 0v1536h129v-1536h-129zM240 0v1536h135v-1536h-135z" />
<glyph unicode="}" horiz-adv-x="727" d="M49 1407v113h90q82 0 117 -57.5t35 -164.5v-297q0 -135 50 -222t122 -87v-2q-73 -14 -123.5 -91.5t-50.5 -192.5v-349q0 -99 -34 -150.5t-116 -51.5h-84v104q63 4 83 40.5t20 129.5v242q0 127 30 198.5t113 112.5q-83 41 -113 112.5t-30 198.5v244q0 92 -21 127.5 t-88 42.5zM49 1548v99q180 0 266 -48q73 -46 95 -117.5t22 -213.5v-240q0 -215 152 -215h92v-262h-92q-152 -9 -152 -213v-242q0 -140 -22 -211.5t-95 -117.5q-86 -48 -260 -48v105h88q94 0 134 62t40 202v295q0 52 10 98t32 88.5t61.5 70.5t93.5 34v35q-112 12 -154.5 93.5 t-42.5 287.5v200q0 134 -41.5 196t-132.5 62h-94z" />
<glyph unicode="~" horiz-adv-x="1198" d="M70 451q0 109 88.5 193.5t236.5 84.5q37 0 84.5 -13t73 -24t80.5 -35l14 -6q108 -51 152 -51q51 0 100 59l57 70l80 -67q-43 -103 -89.5 -153.5t-115.5 -51.5h-8q-51 2 -215 78q-60 29 -83 39.5t-64.5 23t-77.5 12.5h-14q-43 0 -81 -16t-63 -39t-45.5 -53t-30.5 -53 t-16 -43zM154 389q12 30 23.5 53t31 50.5t41 45.5t52.5 30t67 12h16q25 0 52.5 -7t40.5 -11.5t55 -24.5t53 -25q20 -9 63.5 -30t64.5 -29.5t54 -17.5t61 -9h17q47 2 87 28.5t64.5 65t38 69.5t19.5 56l73 -61q0 -51 -22 -100t-62.5 -89t-103.5 -64t-139 -24q-92 0 -252 78 q-108 51 -150 51q-49 0 -94 -53l-51 -64z" />
<glyph unicode="&#xa1;" horiz-adv-x="491" d="M78 1370q0 68 50 118t118 50q69 0 118.5 -50t49.5 -118q0 -69 -49.5 -118.5t-118.5 -49.5q-68 0 -118 49.5t-50 118.5zM80 -8v1122h153v-1122h-153zM219 1370q0 -12 8.5 -20.5t20.5 -8.5q11 0 19.5 8.5t8.5 20.5t-8.5 20.5t-19.5 8.5q-12 0 -20.5 -8.5t-8.5 -20.5z M262 -8v1122h152v-1122h-152z" />
<glyph unicode="&#xa2;" horiz-adv-x="1091" d="M41 514q0 170 99.5 306.5t258.5 191.5v192h127v-307q-167 -17 -258.5 -120t-91.5 -263q0 -46 9 -91t33.5 -95.5t62.5 -89.5t101 -67.5t144 -35.5v-299h-127v176q-160 55 -259 190.5t-99 311.5zM209 514q0 149 86 245.5t231 106.5v-700q-151 15 -234 110t-83 238zM352 514 q0 -80 47 -139v278q-47 -59 -47 -139zM557 137q94 5 162.5 30.5t113 65t89.5 105.5l118 -59q-55 -104 -146 -177t-202 -102v-164h-135v301zM557 166v702q217 -14 299 -151l-117 -70l-47 47v-360q39 29 74 82l127 -64q-61 -91 -137 -136.5t-199 -49.5zM557 897v307h135v-180 q97 -24 179.5 -82t134.5 -135l-123 -74q-104 164 -326 164z" />
<glyph unicode="&#xa3;" horiz-adv-x="1212" d="M61 627v145h295l29 -39q133 -180 133 -309q0 -99 -92.5 -168.5t-220.5 -69.5h-115v162h207q25 0 37 21t12 53q0 23 -32 84.5t-72 120.5h-181zM61 803v129h95q-1 3 -5 13t-6.5 17.5t-5 23.5t-2.5 36q0 211 139.5 351t350.5 140q225 0 374 -143l-129 -117 q-34 44 -102.5 77.5t-146.5 33.5q-155 0 -246.5 -101t-91.5 -251q0 -108 53 -209h-277zM90 0v156h574q156 0 254.5 83t107.5 230h135q0 -203 -144.5 -336t-359.5 -133h-567zM313 1014q0 140 84 229.5t226 89.5q70 0 132 -30t95 -70l-109 -98q-30 30 -110 30 q-62 0 -104 -38.5t-42 -90.5q0 -45 29 -104h277v-129h-416q-62 105 -62 211zM354 186q85 26 139 93.5t54 146.5q0 70 -30 142.5t-95 164.5l-27 39h396v-145h-150q55 -105 55 -191q0 -62 -8 -86h19q126 0 129 109v10h161q-9 -136 -100 -209.5t-235 -73.5h-308z" />
<glyph unicode="&#xa4;" horiz-adv-x="1368" d="M70 1128l69 70l260 -258q-100 -121 -100 -258q0 -69 27.5 -138t70.5 -118l-252 -258l-73 76l188 190q-74 117 -74 250q0 116 76 250zM164 1223l74 73l194 -192q141 74 260 74q68 0 123.5 -18t120.5 -56q35 33 102 100.5t90 89.5l76 -75l-246 -269q-122 113 -274 113 q-81 0 -142 -25t-120 -75zM170 143l250 258q130 -104 268 -104q134 0 258 104l256 -256l-69 -69l-187 188q-119 -76 -264 -76q-125 0 -254 76l-190 -188zM330 682q0 140 101 245t253 105q145 0 247.5 -98t102.5 -252q0 -143 -99.5 -245.5t-248.5 -102.5q-142 0 -249 100.5 t-107 247.5zM457 684q0 -93 68 -161t161 -68q92 0 159.5 67.5t67.5 161.5t-67.5 162.5t-159.5 68.5q-94 0 -161.5 -68.5t-67.5 -162.5zM971 426q41 49 67.5 119t26.5 137q0 79 -18 133t-66 111l248 268l67 -66l-190 -190q76 -123 76 -256q0 -121 -72 -248l190 -190l-73 -74z " />
<glyph unicode="&#xa5;" horiz-adv-x="1126" d="M-33 1536h170l252 -684h-297v139h103zM92 336v131h440l9 -27v-440h-154v336h-295zM92 498v131h262l-32 76h-230v118h309l117 -325h-426zM172 1536h176l215 -537l211 537h180l-399 -1057zM571 0v440l9 27h452v-131h-291v-336h-170zM594 498l119 325h321v-118h-229l-33 -76 h260v-131h-438zM725 852l264 684h172l-231 -545h104v-139h-309z" />
<glyph unicode="&#xa6;" horiz-adv-x="448" d="M80 -25v676h135v-676h-135zM80 866v672h135v-672h-135zM244 -25v676h129v-676h-129zM244 866v672h129v-672h-129z" />
<glyph unicode="&#xa7;" horiz-adv-x="1204" d="M49 -45l98 65q69 -101 177.5 -162t238.5 -61q144 0 229 70t85 162q0 79 -29 128t-111 107q80 36 133 71t80 70t37 66.5t10 69.5q0 42 -12.5 75.5t-44 68.5t-91.5 68.5t-149 67.5q-194 75 -211 84q-85 47 -114 95.5t-29 111.5q0 94 66 164t188 70q170 0 324 -158l-142 -92 l-18 18q-38 36 -69 55t-70 19q-42 0 -72.5 -27t-30.5 -67q0 -32 35.5 -53t114.5 -50q62 -21 143 -55q58 -24 100.5 -45.5t89 -54.5t76 -68.5t49 -85t19.5 -107.5q0 -110 -48 -191.5t-138 -154.5q65 -102 65 -190q0 -120 -62 -209.5t-159.5 -133.5t-214.5 -44h-29 q-232 0 -395 151q-72 69 -119 152zM59 594q0 108 36 183.5t116 146.5q-38 46 -55 88.5t-17 105.5q0 122 62.5 213t164 136.5t226.5 45.5q61 0 129.5 -12t140 -36.5t130 -70t85.5 -104.5l-125 -84q-156 168 -346 168q-72 0 -129.5 -23.5t-91.5 -61.5t-52 -82t-18 -89 q0 -66 21.5 -110t75.5 -88q-193 -151 -193 -312q0 -63 23.5 -107.5t91.5 -89t192 -89.5q145 -54 207 -91q115 -71 115 -204q0 -81 -80.5 -141t-202.5 -60q-244 0 -389 213l123 82q35 -48 107 -96t151 -48q37 0 68.5 18.5t31.5 51.5q0 16 -6.5 30t-23 27t-29.5 22.5t-43 22 t-46 19t-54 20.5q-13 3 -37.5 13.5t-32.5 13.5q-54 19 -97.5 40.5t-87.5 54.5t-74 72t-48.5 93.5t-18.5 118.5zM248 610q0 158 188 289l228 -92q83 -34 140 -64t89.5 -54t49.5 -51.5t21.5 -48.5t4.5 -52q0 -153 -258 -258q-19 13 -168 69q-92 33 -150.5 64t-90 63t-43 63 t-11.5 72zM420 627q0 -33 18.5 -54t55.5 -41l223 -92q31 20 45 41.5t14 55.5q0 64 -114 106l-191 74q-51 -44 -51 -90z" />
<glyph unicode="&#xa8;" horiz-adv-x="864" d="M72 1333q0 69 50 118.5t118 49.5q69 0 117.5 -49.5t48.5 -118.5q0 -68 -48.5 -117t-117.5 -49q-68 0 -118 49.5t-50 116.5zM215 1333q0 -12 7 -19t18 -7q12 0 20 7t8 19t-8 19.5t-20 7.5q-11 0 -18 -7.5t-7 -19.5zM459 1333q0 69 50 118.5t118 49.5q69 0 117.5 -49.5 t48.5 -118.5q0 -68 -48.5 -117t-117.5 -49q-68 0 -118 49.5t-50 116.5zM602 1333q0 -12 7 -19t18 -7q12 0 20 7t8 19t-8 19.5t-20 7.5q-11 0 -18 -7.5t-7 -19.5z" />
<glyph unicode="&#xa9;" horiz-adv-x="1564" d="M57 721q0 147 58 281t156 231.5t231.5 155t279.5 57.5q200 0 367 -97.5t262.5 -264t95.5 -363.5t-95.5 -363.5t-262.5 -264t-367 -97.5q-146 0 -279.5 57.5t-231.5 155t-156 231.5t-58 281zM123 717q0 -176 84.5 -324.5t238.5 -237.5t345 -89q98 0 193.5 31t177.5 90 t145 138t99 181t36 213q0 143 -51.5 266.5t-139.5 209t-207.5 134.5t-252.5 49q-181 0 -334.5 -87t-243.5 -239.5t-90 -334.5zM164 717q0 169 78.5 311t223 226.5t325.5 84.5q131 0 246 -47.5t196 -130t127.5 -197.5t46.5 -245q0 -118 -47.5 -230.5t-128.5 -197t-196.5 -136 t-243.5 -51.5q-118 0 -230.5 44t-201 121.5t-142 194.5t-53.5 253zM238 721q0 -148 72 -273.5t197 -198.5t275 -73q149 0 277 73t203 198.5t75 273.5q0 149 -75 275t-203 199t-277 73q-150 0 -275 -73t-197 -199t-72 -275zM399 721q0 164 115 278.5t279 114.5q147 0 254 -82 l-66 -78q-58 38 -96.5 51t-104.5 13q-128 0 -209.5 -86.5t-81.5 -200.5q0 -55 20.5 -108.5t57.5 -97.5t96 -71.5t130 -27.5q61 0 113 19t77 44l64 -75q-106 -84 -254 -84q-164 0 -279 114t-115 277zM516 731q0 107 77.5 184.5t186.5 77.5q99 0 185 -59l-60 -74 q-36 31 -112 31q-69 0 -119.5 -49.5t-50.5 -116.5q0 -71 50.5 -121.5t119.5 -50.5q65 0 112 31l62 -76q-80 -57 -176 -57q-109 0 -192 76.5t-83 203.5z" />
<glyph unicode="&#xaa;" horiz-adv-x="872" d="M72 1085q0 146 104.5 251.5t249.5 105.5q90 0 164 -39v35h74v-260q-25 76 -87.5 124t-154.5 48q-117 0 -187.5 -79.5t-70.5 -183.5q0 -109 71 -188.5t191 -79.5q90 0 153 48.5t85 119.5v-246h-74v27q-67 -37 -164 -37q-145 0 -249.5 104t-104.5 250zM186 1087 q0 103 66.5 173.5t169.5 70.5q109 0 172 -71.5t63 -172.5q0 -120 -66 -183.5t-165 -63.5q-100 0 -170 67t-70 180zM295 1085q0 -58 37.5 -95.5t93.5 -37.5q57 0 94 37.5t37 95.5t-37 96t-94 38q-56 0 -93.5 -38t-37.5 -96zM684 741v697h98v-697h-98z" />
<glyph unicode="&#xab;" horiz-adv-x="1060" d="M23 551l280 450l105 -83l-230 -357l217 -377l-106 -73zM213 561l215 340l104 -80l-180 -268q171 -251 185 -272l-117 -80zM494 551l280 450l105 -83l-230 -357l217 -377l-106 -73zM684 561l215 340l105 -80l-181 -268q171 -251 185 -272l-117 -80z" />
<glyph unicode="&#xac;" horiz-adv-x="1165" d="M27 578v129h903v-557h-139v428h-764zM27 737v133h1056v-720h-127v587h-929z" />
<glyph unicode="&#xad;" horiz-adv-x="829" d="M76 436v135h678v-135h-678zM76 600v129h678v-129h-678z" />
<glyph unicode="&#xae;" horiz-adv-x="1640" d="M57 750q0 205 103 381t278.5 279t380.5 103q210 0 386 -103t277 -278.5t101 -381.5q0 -154 -59.5 -295t-161.5 -244t-244 -164t-299 -61q-153 0 -294 61t-243.5 163.5t-163.5 244t-61 295.5zM129 745q0 -133 54 -259t145 -220.5t219.5 -151.5t269.5 -57q139 0 267.5 55 t222.5 148t150 221t56 267q0 135 -54.5 261t-147 220t-223 150.5t-275.5 56.5q-142 0 -269 -53.5t-218 -145.5t-144 -220.5t-53 -271.5zM160 745q0 135 49.5 257.5t135 212t208 142t260.5 52.5q137 0 262.5 -55.5t214.5 -147t142 -212t53 -246.5q0 -133 -54 -255.5 t-144 -211t-213.5 -141t-256.5 -52.5q-138 0 -261.5 55.5t-209 146.5t-136 210t-50.5 245zM242 750q0 -119 45.5 -226.5t123 -185t184 -123t224.5 -45.5q157 0 293 77t216.5 211t80.5 292q0 156 -80.5 289.5t-216.5 210.5t-293 77q-118 0 -224.5 -45.5t-184 -123t-123 -184 t-45.5 -224.5zM547 301v922h291q126 0 206 -83t80 -208q0 -89 -40.5 -155.5t-100.5 -90.5l203 -385h-96l-234 442q174 26 174 191q0 88 -55 140t-170 52h-168v-825h-90zM659 301v440h175l229 -440h-98l-185 354h-26v-354h-95zM659 762v340h146q105 0 155 -45t50 -123 q0 -80 -50 -126t-143 -46h-158zM752 856h84q65 0 65 80q0 32 -16 53t-49 21h-84v-154z" />
<glyph unicode="&#xaf;" horiz-adv-x="823" d="M72 1300v29h4v-29h-4zM76 1167v133h676v-133h-676zM76 1329v131h676v-131h-676z" />
<glyph unicode="&#xb0;" horiz-adv-x="802" d="M57 1106q0 141 101 241.5t243 100.5t243 -100.5t101 -241.5q0 -142 -100.5 -243t-243.5 -101t-243.5 101t-100.5 243zM141 1104q0 -105 75 -184.5t187 -79.5q109 0 186 74.5t77 195.5q0 105 -74.5 181.5t-190.5 76.5q-115 0 -187.5 -79t-72.5 -185zM168 1104 q0 96 64.5 167.5t168.5 71.5q108 0 174 -70.5t66 -162.5q0 -108 -66.5 -176t-171.5 -68q-99 0 -167 69t-68 169zM262 1106q0 -57 41 -98t98 -41t98.5 41t41.5 98t-41.5 97t-98.5 40t-98 -40t-41 -97z" />
<glyph unicode="&#xb1;" horiz-adv-x="1183" d="M51 12v125h1082v-125h-1082zM51 168v135h1082v-135h-1082zM51 524v127h520v-313h-125v186h-395zM51 682v135h395v215h125v-350h-520zM602 338v313h531v-127h-396v-186h-135zM602 682v350h135v-215h396v-135h-531z" />
<glyph unicode="&#xb2;" horiz-adv-x="778" d="M109 1376q111 162 284 162q129 0 217 -83t88 -208q0 -121 -116 -237l-195 -205h318v-96h-504l262 290q96 108 124.5 156.5t28.5 106.5q0 75 -59.5 133.5t-155.5 58.5q-79 0 -140.5 -38.5t-98.5 -98.5zM117 602v170l321 344q66 71 66 121q0 43 -27.5 74.5t-83.5 31.5 q-40 0 -85.5 -25t-78.5 -73l-55 60q36 58 95 94.5t132 36.5q86 0 140.5 -54.5t54.5 -119.5q0 -51 -27.5 -99.5t-113.5 -144.5l-281 -305l4 -23h527v-88h-588z" />
<glyph unicode="&#xb3;" horiz-adv-x="724" d="M94 725l37 61q107 -96 229 -96q97 0 153 56t56 151q0 80 -53.5 137.5t-126.5 73.5v2q56 35 85.5 87t29.5 110q0 65 -44.5 107t-115.5 42q-110 0 -194 -84l-39 72q107 100 239 100q110 0 176 -65.5t66 -165.5q0 -102 -76 -172q146 -92 146 -244q0 -128 -89.5 -211.5 t-216.5 -83.5q-82 0 -143.5 30.5t-118.5 92.5zM141 803l45 76q88 -82 156 -82q54 0 86.5 33t32.5 79t-39 80t-103 37l-73 2v72h90q89 0 154 -58.5t65 -140.5q0 -85 -51 -139.5t-150 -54.5q-51 0 -108 26t-105 70zM156 1358q81 84 184 84q71 0 109 -38.5t38 -98.5 q0 -76 -48.5 -134.5t-106.5 -58.5h-86v66l33 2q56 1 88 28.5t32 69.5q0 31 -21.5 53.5t-51.5 22.5q-64 0 -131 -64z" />
<glyph unicode="&#xb4;" horiz-adv-x="610" d="M47 1364l395 174l52 -121l-398 -174zM109 1214l397 175l55 -125l-403 -168z" />
<glyph unicode="&#xb6;" horiz-adv-x="1222" d="M33 1059q0 89 25.5 155.5t69 108t109.5 67t137.5 35t162.5 9.5h604v-1837h-137v1714h-433q-115 0 -193 -16t-123 -50t-64 -80t-19 -112q0 -211 416 -219v-1237h-133v1099q-207 7 -314.5 101.5t-107.5 261.5zM618 -403v1683h357v-1683h-125v1544h-102v-1544h-130z" />
<glyph unicode="&#xb7;" horiz-adv-x="419" d="M59 756q0 61 45 105t105 44q61 0 105 -43.5t44 -105.5q0 -60 -44 -105t-105 -45q-60 0 -105 45t-45 105zM186 756q0 -10 7 -17.5t16 -7.5q11 0 19 7.5t8 17.5t-8 17t-19 7q-9 0 -16 -7t-7 -17z" />
<glyph unicode="&#xb8;" horiz-adv-x="565" d="M68 -307l51 49q80 -72 153 -72q67 0 106.5 40t39.5 106q0 44 -33 74t-82 30q-26 0 -78 -10l78 108h84l-22 -34q65 -12 104 -58.5t39 -122.5q0 -69 -37.5 -120t-89 -73t-105.5 -22q-40 0 -83.5 15.5t-71.5 36.5q-31 22 -53 53zM121 -100l65 118h86l-86 -124l21 -13 q35 15 100 15q33 0 61.5 -25t28.5 -57q0 -52 -33.5 -85.5t-87.5 -33.5q-11 0 -22.5 2t-20 4.5t-20.5 8t-18.5 8.5t-18 10t-15 9.5t-15.5 10.5l-11 8l45 41q43 -22 84 -22q15 0 25 7t10 19q0 31 -125 31z" />
<glyph unicode="&#xb9;" horiz-adv-x="485" d="M27 1319v100h252v-811h-103v711h-149zM27 1438v98h374v-928h-102v830h-272z" />
<glyph unicode="&#xba;" horiz-adv-x="845" d="M51 1092q0 153 109.5 261.5t263.5 108.5q155 0 264 -108t109 -262q0 -155 -109 -264t-264 -109q-154 0 -263.5 109t-109.5 264zM143 1090q0 -113 81 -200t202 -87q119 0 202 81.5t83 211.5q0 114 -80 197t-207 83q-124 0 -202.5 -85.5t-78.5 -200.5zM172 1090 q0 104 69.5 182t182.5 78q117 0 188.5 -77t71.5 -177q0 -118 -72 -191.5t-186 -73.5q-107 0 -180.5 75.5t-73.5 183.5zM274 1092q0 -62 44.5 -107t105.5 -45t106 45t45 107q0 61 -44.5 105t-106.5 44t-106 -44t-44 -105z" />
<glyph unicode="&#xbb;" horiz-adv-x="1060" d="M23 281q35 53 184 272l-180 268l102 80l217 -340l-207 -360zM150 918l106 83l281 -450l-267 -440l-108 73l219 377zM494 281q35 53 184 272l-180 268l102 80l217 -340l-207 -360zM621 918l106 83l281 -450l-267 -440l-108 73l219 377z" />
<glyph unicode="&#xbc;" horiz-adv-x="1746" d="M88 1319v100h252v-811h-102v711h-150zM88 1438v98h375v-928h-103v830h-272zM508 57l424 1471l84 -27l-432 -1470zM614 20l430 1473l72 -23q-25 -88 -424 -1474zM979 162v162l373 608h90l-398 -662q0 -2 1.5 -6t1.5 -10h391v-254h-97v162h-362zM1067 272l371 623v-623 h-371zM1229 362h112v197zM1454 0v254h180v-90h-82v-164h-98zM1454 272v660h98v-574h82v-86h-180z" />
<glyph unicode="&#xbd;" horiz-adv-x="1818" d="M88 1319v100h252v-811h-102v711h-150zM88 1438v98h375v-928h-103v830h-272zM508 57l424 1471l84 -27l-432 -1470zM614 20l430 1473l72 -23q-25 -88 -424 -1474zM1096 817q111 162 284 162q129 0 217.5 -83t88.5 -208q0 -120 -117 -237l-195 -205h318v-96h-504l262 290 q97 109 125.5 157t28.5 105q0 75 -59.5 134t-155.5 59q-79 0 -141.5 -38.5t-98.5 -98.5zM1104 43v170l321 344q66 71 66 121q0 43 -27.5 74.5t-83.5 31.5q-40 0 -85 -25t-78 -73l-56 59q36 58 95.5 95t132.5 37q86 0 140 -55t54 -120q0 -51 -27.5 -99t-113.5 -144l-281 -305 l4 -23h527v-88h-588z" />
<glyph unicode="&#xbe;" horiz-adv-x="1828" d="M94 684l37 61q107 -96 229 -96q97 0 153 56t56 151q0 80 -53.5 137.5t-126.5 73.5v2q56 35 85.5 87t29.5 110q0 65 -44.5 107t-115.5 42q-110 0 -194 -84l-39 72q107 100 239 100q110 0 176 -65.5t66 -165.5q0 -102 -76 -172q146 -92 146 -244q0 -128 -89.5 -211.5 t-216.5 -83.5q-82 0 -143.5 30.5t-118.5 92.5zM141 762l45 76q88 -82 156 -82q54 0 86.5 33t32.5 79t-39 80t-103 37l-73 2v72h90q89 0 154 -58.5t65 -140.5q0 -85 -51 -139.5t-150 -54.5q-51 0 -108 26t-105 70zM156 1317q81 84 184 84q71 0 109 -38.5t38 -98.5 q0 -76 -48.5 -134.5t-106.5 -58.5h-86v66l33 2q56 1 88 28.5t32 69.5q0 31 -21.5 53.5t-51.5 22.5q-64 0 -131 -64zM600 57l424 1471l84 -27l-432 -1470zM707 20l430 1473l71 -23q-25 -88 -424 -1474zM1081 162v162l373 608h90l-397 -662q0 -2 1 -6t1 -10h391v-254h-96v162 h-363zM1169 272l371 623v-623h-371zM1331 362h113v197zM1556 0v254h181v-90h-82v-164h-99zM1556 272v660h99v-574h82v-86h-181z" />
<glyph unicode="&#xbf;" horiz-adv-x="866" d="M43 367q0 62 17 116t44 93t59.5 72.5t65.5 60t60 50.5t44 49.5t17 51.5q0 35 -12 72t-22 56t-35 61l151 53q53 -74 73.5 -122.5t20.5 -113.5q0 -51 -39 -108t-135 -135q-155 -125 -155 -254q0 -92 68.5 -161t170.5 -69q92 0 162.5 53.5t93.5 141.5l139 -47 q-33 -117 -135.5 -206t-232.5 -89q-180 0 -300 101.5t-120 273.5zM227 369q0 65 33.5 116t114.5 121q98 79 139 140.5t41 119.5q0 71 -25.5 128.5t-72.5 117.5l135 47q35 -45 68.5 -134t33.5 -165q0 -67 -31 -124t-75 -96.5t-87.5 -76t-74.5 -80t-31 -92.5q0 -51 43 -51 q19 0 39 15t33 40l156 -53q-21 -78 -82.5 -126t-147.5 -48q-94 0 -151.5 61.5t-57.5 139.5zM229 1350q0 68 49.5 118t120.5 50q66 0 116 -50.5t50 -117.5q0 -68 -49.5 -118t-116.5 -50q-71 0 -120.5 49t-49.5 119zM371 1352q0 -12 8.5 -20.5t19.5 -8.5q12 0 20.5 8.5 t8.5 20.5t-8.5 20t-20.5 8q-11 0 -19.5 -8t-8.5 -20z" />
<glyph unicode="&#xc0;" horiz-adv-x="1572" d="M41 0l618 1538h254l613 -1538h-158l-571 1374h-25l-571 -1374h-160zM233 0l168 414h770l168 -414h-186l-119 270h-495l-119 -270h-187zM412 444l372 885l373 -885h-745zM528 1704l50 115q59 -23 194.5 -82t206.5 -86l-47 -115zM590 1845l57 133l395 -174l-53 -127 q-60 24 -196 82.5t-203 85.5zM670 606h231l-115 289z" />
<glyph unicode="&#xc1;" horiz-adv-x="1572" d="M41 0l618 1538h254l613 -1538h-158l-571 1374h-25l-571 -1374h-160zM233 0l168 414h770l168 -414h-186l-119 270h-495l-119 -270h-187zM412 444l372 885l373 -885h-745zM528 1804l396 174l51 -120l-397 -175zM590 1655l397 174l55 -125l-403 -168zM670 606h231l-115 289z " />
<glyph unicode="&#xc2;" horiz-adv-x="1572" d="M41 0l618 1538h254l613 -1538h-158l-571 1374h-25l-571 -1374h-160zM233 0l168 414h770l168 -414h-186l-119 270h-495l-119 -270h-187zM412 444l372 885l373 -885h-745zM461 1817l323 137l326 -135l-55 -129l-271 133l-268 -135zM526 1661l258 127l258 -125l-49 -115 q-204 89 -207 90q-118 -50 -192 -82q-18 -8 -19 -8zM670 606h231l-115 289z" />
<glyph unicode="&#xc3;" horiz-adv-x="1572" d="M41 0l618 1538h254l613 -1538h-158l-571 1374h-25l-571 -1374h-160zM233 0l168 414h770l168 -414h-186l-119 270h-495l-119 -270h-187zM412 444l372 885l373 -885h-745zM434 1710q20 94 75 149.5t142 55.5q57 0 142 -29q56 -18 71 -18t30.5 4.5t30 13t24 15t20.5 15 t12 9.5l84 -78q-77 -121 -141 -121q-54 0 -129 31q-93 39 -146 39q-42 0 -81.5 -38.5t-65.5 -98.5zM522 1645q23 61 58.5 94t74.5 33q7 0 13.5 -0.5t14 -1.5t12.5 -2t14 -4t13.5 -4t15 -5t15 -6t17.5 -7t18 -7q82 -33 140 -33q74 0 153 129l58 -51q-26 -92 -85 -148.5 t-139 -56.5q-14 0 -31 3t-27.5 5.5t-33 9.5t-30.5 9q-71 22 -93 22t-39.5 -11t-29 -25t-13.5 -15zM670 606h231l-115 289z" />
<glyph unicode="&#xc4;" horiz-adv-x="1572" d="M41 0l618 1538h254l613 -1538h-158l-571 1374h-25l-571 -1374h-160zM233 0l168 414h770l168 -414h-186l-119 270h-495l-119 -270h-187zM412 444l372 885l373 -885h-745zM426 1743q0 69 50 118.5t118 49.5q69 0 117.5 -49.5t48.5 -118.5q0 -68 -48.5 -117t-117.5 -49 q-68 0 -118 49.5t-50 116.5zM569 1743q0 -12 7 -19.5t18 -7.5q12 0 20.5 7.5t8.5 19.5t-8.5 19t-20.5 7q-11 0 -18 -7t-7 -19zM670 606h231l-115 289zM813 1743q0 69 50 118.5t118 49.5q69 0 117.5 -49.5t48.5 -118.5q0 -68 -48.5 -117t-117.5 -49q-68 0 -118 49.5 t-50 116.5zM956 1743q0 -12 7 -19.5t18 -7.5q12 0 20.5 7.5t8.5 19.5t-8.5 19t-20.5 7q-11 0 -18 -7t-7 -19z" />
<glyph unicode="&#xc5;" horiz-adv-x="1572" d="M41 0l618 1538h17q-53 30 -85 83t-32 116q0 92 66.5 157.5t160.5 65.5t160 -65.5t66 -157.5q0 -63 -32 -116t-85 -83h18l613 -1538h-158l-571 1374h-25l-571 -1374h-160zM233 0l168 414h770l168 -414h-186l-119 270h-495l-119 -270h-187zM412 444l372 885l373 -885h-745z M614 1735q0 -68 50 -121t124 -53q72 0 122.5 49.5t50.5 128.5q0 68 -49.5 119t-125.5 51q-75 0 -123.5 -52.5t-48.5 -121.5zM633 1735q0 63 42 110t111 47q71 0 114.5 -46t43.5 -107q0 -71 -44 -115.5t-112 -44.5q-66 0 -110.5 45t-44.5 111zM670 606h231l-115 289z M694 1737q0 -38 27.5 -65t64.5 -27t65 27t28 65q0 36 -28 63t-65 27t-64.5 -26.5t-27.5 -63.5z" />
<glyph unicode="&#xc6;" horiz-adv-x="1849" d="M41 0l618 1536h1127v-162h-1014l-571 -1374h-160zM233 0l168 414h668v-248h717v-166h-881v270h-366l-119 -270h-187zM412 444l381 906h276v-906h-657zM670 606h235v576zM1098 195v561h688v-160h-526v-242h526v-159h-688zM1098 786v560h688v-164h-526v-232h526v-164h-688z " />
<glyph unicode="&#xc7;" horiz-adv-x="1368" d="M55 770q0 159 62 304t166.5 249.5t249 166.5t303.5 62q283 0 481 -163q4 -4 6 -5l-100 -127q-63 60 -173 99t-223 39q-139 0 -255.5 -49.5t-194.5 -134.5t-121 -199t-43 -242q0 -158 66 -290t190 -218t285 -106l-172 -262l20 -13q35 15 100 15q33 0 62 -25t29 -57 q0 -52 -33.5 -85.5t-87.5 -33.5q-27 0 -59.5 13.5t-43.5 20.5t-39 27l45 41q43 -22 84 -22q15 0 25 7t10 19q0 31 -125 31l-53 68l70 125q-234 79 -382.5 284.5t-148.5 460.5zM244 770q0 165 69.5 299t204 214.5t309.5 80.5q106 0 211 -37t166 -94l-102 -131 q-118 96 -264 96q-185 -1 -306.5 -125t-121.5 -303q0 -189 121 -309.5t307 -120.5q67 0 137.5 26t126.5 68l100 -129q-61 -56 -158 -90.5t-200 -34.5q-176 0 -314 79.5t-212 213.5t-74 297zM463 -307l51 49q80 -72 154 -72q67 0 106 40t39 106q0 44 -33 74t-82 30 q-25 0 -77 -10l161 244q20 -2 62 -2q114 0 215 35t164 92l102 -125q-13 -13 -32.5 -28.5t-65 -42.5t-97.5 -47.5t-131 -36t-163 -15.5q-24 0 -74 4l-2 -4q65 -12 104 -58.5t39 -122.5q0 -69 -37.5 -120t-88.5 -73t-105 -22q-40 0 -84.5 15.5t-71.5 36.5q-31 22 -53 53z" />
<glyph unicode="&#xc8;" horiz-adv-x="1044" d="M86 0v1536h881v-162h-717v-1208h717v-166h-881zM264 1710l49 115q59 -23 195 -82t207 -86l-47 -115zM279 195v561h688v-160h-527v-242h527v-159h-688zM279 786v560h688v-164h-527v-232h527v-164h-688zM326 1851l57 134l395 -175l-53 -127q-60 24 -196 82.5t-203 85.5z " />
<glyph unicode="&#xc9;" horiz-adv-x="1044" d="M86 0v1536h881v-162h-717v-1208h717v-166h-881zM264 1806l395 174l52 -120l-398 -174zM279 195v561h688v-160h-527v-242h527v-159h-688zM279 786v560h688v-164h-527v-232h527v-164h-688zM326 1657l397 174l55 -125l-403 -168z" />
<glyph unicode="&#xca;" horiz-adv-x="1044" d="M86 0v1536h881v-162h-717v-1208h717v-166h-881zM197 1817l323 137l326 -135l-55 -129l-271 133l-268 -135zM262 1661l258 127l258 -125l-49 -115q-204 89 -207 90q-118 -50 -192 -82q-18 -8 -19 -8zM279 195v561h688v-160h-527v-242h527v-159h-688zM279 786v560h688v-164 h-527v-232h527v-164h-688z" />
<glyph unicode="&#xcb;" horiz-adv-x="1044" d="M86 0v1536h881v-162h-717v-1208h717v-166h-881zM162 1743q0 69 50 118.5t118 49.5q69 0 117.5 -49.5t48.5 -118.5q0 -68 -48.5 -117t-117.5 -49q-68 0 -118 49.5t-50 116.5zM279 195v561h688v-160h-527v-242h527v-159h-688zM279 786v560h688v-164h-527v-232h527v-164 h-688zM305 1743q0 -12 7 -19.5t18 -7.5q12 0 20 7.5t8 19.5t-8 19t-20 7q-11 0 -18 -7t-7 -19zM549 1743q0 69 50 118.5t118 49.5q69 0 117.5 -49.5t48.5 -118.5q0 -68 -48.5 -117t-117.5 -49q-68 0 -118 49.5t-50 116.5zM692 1743q0 -12 7 -19.5t18 -7.5q12 0 20 7.5 t8 19.5t-8 19t-20 7q-11 0 -18 -7t-7 -19z" />
<glyph unicode="&#xcc;" horiz-adv-x="520" d="M6 1706l49 115q59 -23 195 -82t207 -86l-47 -115zM68 1847l57 133l395 -174l-53 -127q-60 24 -196 82.5t-203 85.5zM84 0v1536h162v-1536h-162zM274 0v1536h166v-1536h-166z" />
<glyph unicode="&#xcd;" horiz-adv-x="520" d="M6 1808l395 174l52 -120l-398 -174zM68 1659l397 174l55 -125l-403 -168zM84 0v1536h162v-1536h-162zM274 0v1536h166v-1536h-166z" />
<glyph unicode="&#xce;" horiz-adv-x="520" d="M-61 1817l323 137l326 -135l-56 -129l-270 133l-268 -135zM4 1661l258 127l258 -125l-49 -115q-204 89 -207 90q-118 -50 -192 -82q-18 -8 -19 -8zM84 0v1536h162v-1536h-162zM274 0v1536h166v-1536h-166z" />
<glyph unicode="&#xcf;" horiz-adv-x="520" d="M-98 1743q0 69 50 118.5t118 49.5q69 0 117.5 -49.5t48.5 -118.5q0 -68 -48.5 -117t-117.5 -49q-68 0 -118 49.5t-50 116.5zM45 1743q0 -12 7 -19.5t18 -7.5q12 0 20 7.5t8 19.5t-8 19t-20 7q-11 0 -18 -7t-7 -19zM84 0v1536h162v-1536h-162zM274 0v1536h166v-1536h-166z M289 1743q0 69 50 118.5t118 49.5q69 0 117.5 -49.5t48.5 -118.5q0 -68 -48.5 -117t-117.5 -49q-68 0 -118 49.5t-50 116.5zM432 1743q0 -12 7 -19.5t18 -7.5q12 0 20 7.5t8 19.5t-8 19t-20 7q-11 0 -18 -7t-7 -19z" />
<glyph unicode="&#xd0;" horiz-adv-x="1591" d="M51 584v135h355v-555h303q143 0 262.5 37t211.5 109.5t143.5 190t51.5 269.5q0 129 -46 240t-129.5 191.5t-208 126.5t-275.5 46h-313v-626h-355v135h199v653h512q212 0 388 -96t280 -272.5t104 -397.5q0 -170 -61 -315t-166 -244t-246.5 -155t-300.5 -56h-510v584h-199z M436 193v526h363v-135h-195v-230h162q180 0 297 117t117 299q0 181 -112 296.5t-292 115.5h-172v-299h195v-135h-363v598h283q183 0 326 -70t224 -201.5t81 -304.5q0 -266 -168.5 -421.5t-472.5 -155.5h-273z" />
<glyph unicode="&#xd1;" horiz-adv-x="1400" d="M106 0v1536h156v-1536h-156zM291 0v1487l860 -1487h-156l-534 872v-872h-170zM291 1536h164l530 -879v879h166v-1481zM348 1710q20 94 75 149.5t142 55.5q57 0 142 -29q56 -18 71 -18t30.5 4.5t30 13t24 15t20.5 15t12 9.5l84 -78q-77 -121 -141 -121q-54 0 -129 31 q-93 39 -146 39q-42 0 -81.5 -38.5t-65.5 -98.5zM436 1645q23 61 58.5 94t74.5 33q7 0 13.5 -0.5t14 -1.5t12.5 -2t14 -4t13.5 -4t15 -5t15 -6t17.5 -7t18 -7q82 -33 140 -33q74 0 153 129l58 -51q-26 -92 -85 -148.5t-139 -56.5q-14 0 -31 3t-27.5 5.5t-33 9.5t-30.5 9 q-72 22 -93 22q-22 0 -39.5 -11t-29 -25t-13.5 -15zM1180 0v1536h159v-1536h-159z" />
<glyph unicode="&#xd2;" horiz-adv-x="1679" d="M59 766q0 159 62 304.5t166 251t249 168t304 62.5q68 0 133 -12l-391 164l49 115q59 -23 194.5 -82t206.5 -86l-47 -113q179 -35 324 -145t228 -275t83 -352q0 -159 -61.5 -305t-166 -252t-249 -169t-303.5 -63q-212 0 -392 106.5t-284.5 288t-104.5 394.5zM215 770 q0 -180 80 -325.5t226 -229.5t331 -84q264 0 438 181.5t174 457.5q0 186 -83 331.5t-225.5 224.5t-317.5 79q-183 0 -327 -89t-220 -233t-76 -313zM244 770q0 159 71 295.5t209 222.5t314 86q114 0 212.5 -35.5t168 -95t119.5 -137.5t74 -163.5t24 -172.5 q0 -172 -77.5 -311.5t-211 -218t-293.5 -78.5q-123 0 -234.5 44.5t-194.5 123t-132 193t-49 247.5zM414 766q0 -178 125.5 -304t300.5 -126q178 0 302 125.5t124 304.5q0 116 -56.5 215.5t-154.5 158t-215 58.5q-175 0 -300.5 -127.5t-125.5 -304.5zM643 1845l57 133 l396 -174l-54 -127q-60 24 -196 82.5t-203 85.5z" />
<glyph unicode="&#xd3;" horiz-adv-x="1679" d="M59 766q0 159 62 304.5t166 251t249 168t304 62.5t303.5 -62.5t249 -168t166 -251t61.5 -304.5t-61.5 -305t-166 -252t-249 -169t-303.5 -63q-212 0 -392 106.5t-284.5 288t-104.5 394.5zM215 770q0 -180 80 -325.5t226 -229.5t331 -84q264 0 438 181.5t174 457.5 q0 186 -83 331.5t-225.5 224.5t-317.5 79q-183 0 -327 -89t-220 -233t-76 -313zM244 770q0 159 71 295.5t209 222.5t314 86q114 0 212.5 -35.5t168 -95t119.5 -137.5t74 -163.5t24 -172.5q0 -172 -77.5 -311.5t-211 -218t-293.5 -78.5q-123 0 -234.5 44.5t-194.5 123 t-132 193t-49 247.5zM414 766q0 -178 125.5 -304t300.5 -126q178 0 302 125.5t124 304.5q0 116 -56.5 215.5t-154.5 158t-215 58.5q-175 0 -300.5 -127.5t-125.5 -304.5zM582 1810l395 175l51 -121l-397 -174zM643 1661l397 174l56 -125l-404 -168z" />
<glyph unicode="&#xd4;" horiz-adv-x="1679" d="M59 766q0 159 62 304.5t166 251t249 168t304 62.5t303.5 -62.5t249 -168t166 -251t61.5 -304.5t-61.5 -305t-166 -252t-249 -169t-303.5 -63q-212 0 -392 106.5t-284.5 288t-104.5 394.5zM215 770q0 -180 80 -325.5t226 -229.5t331 -84q264 0 438 181.5t174 457.5 q0 186 -83 331.5t-225.5 224.5t-317.5 79q-183 0 -327 -89t-220 -233t-76 -313zM244 770q0 159 71 295.5t209 222.5t314 86q114 0 212.5 -35.5t168 -95t119.5 -137.5t74 -163.5t24 -172.5q0 -172 -77.5 -311.5t-211 -218t-293.5 -78.5q-123 0 -234.5 44.5t-194.5 123 t-132 193t-49 247.5zM414 766q0 -178 125.5 -304t300.5 -126q178 0 302 125.5t124 304.5q0 116 -56.5 215.5t-154.5 158t-215 58.5q-175 0 -300.5 -127.5t-125.5 -304.5zM514 1817l324 137l325 -135l-55 -129l-270 133l-269 -135zM580 1661l258 127l258 -125l-49 -115 q-204 89 -207 90q-118 -50 -192 -82q-18 -8 -19 -8z" />
<glyph unicode="&#xd5;" horiz-adv-x="1679" d="M59 766q0 159 62 304.5t166 251t249 168t304 62.5t303.5 -62.5t249 -168t166 -251t61.5 -304.5t-61.5 -305t-166 -252t-249 -169t-303.5 -63q-212 0 -392 106.5t-284.5 288t-104.5 394.5zM215 770q0 -180 80 -325.5t226 -229.5t331 -84q264 0 438 181.5t174 457.5 q0 186 -83 331.5t-225.5 224.5t-317.5 79q-183 0 -327 -89t-220 -233t-76 -313zM244 770q0 159 71 295.5t209 222.5t314 86q114 0 212.5 -35.5t168 -95t119.5 -137.5t74 -163.5t24 -172.5q0 -172 -77.5 -311.5t-211 -218t-293.5 -78.5q-123 0 -234.5 44.5t-194.5 123 t-132 193t-49 247.5zM414 766q0 -178 125.5 -304t300.5 -126q178 0 302 125.5t124 304.5q0 116 -56.5 215.5t-154.5 158t-215 58.5q-175 0 -300.5 -127.5t-125.5 -304.5zM487 1710q20 94 75.5 149.5t142.5 55.5q56 0 141 -29q56 -18 72 -18q15 0 30.5 4.5t29.5 13t24 15 t20.5 15t11.5 9.5l84 -78q-77 -121 -141 -121q-54 0 -129 31q-93 39 -146 39q-42 0 -81.5 -38.5t-65.5 -98.5zM575 1645q23 61 59 94t75 33q7 0 13.5 -0.5t14 -1.5t12.5 -2t14 -4t13.5 -4t15 -5t15 -6t17.5 -7t18 -7q47 -19 74.5 -26t64.5 -7q75 0 154 129l57 -51 q-26 -92 -84.5 -148.5t-138.5 -56.5q-14 0 -31 3t-27.5 5.5t-34 9.5t-30.5 9q-71 22 -92 22q-22 0 -39.5 -11t-29 -25t-13.5 -15z" />
<glyph unicode="&#xd6;" horiz-adv-x="1679" d="M59 766q0 159 62 304.5t166 251t249 168t304 62.5t303.5 -62.5t249 -168t166 -251t61.5 -304.5t-61.5 -305t-166 -252t-249 -169t-303.5 -63q-212 0 -392 106.5t-284.5 288t-104.5 394.5zM215 770q0 -180 80 -325.5t226 -229.5t331 -84q264 0 438 181.5t174 457.5 q0 186 -83 331.5t-225.5 224.5t-317.5 79q-183 0 -327 -89t-220 -233t-76 -313zM244 770q0 159 71 295.5t209 222.5t314 86q114 0 212.5 -35.5t168 -95t119.5 -137.5t74 -163.5t24 -172.5q0 -172 -77.5 -311.5t-211 -218t-293.5 -78.5q-123 0 -234.5 44.5t-194.5 123 t-132 193t-49 247.5zM414 766q0 -178 125.5 -304t300.5 -126q178 0 302 125.5t124 304.5q0 116 -56.5 215.5t-154.5 158t-215 58.5q-175 0 -300.5 -127.5t-125.5 -304.5zM479 1743q0 69 50 118.5t118 49.5q69 0 117.5 -49.5t48.5 -118.5q0 -68 -48.5 -117t-117.5 -49 q-68 0 -118 49.5t-50 116.5zM623 1743q0 -12 6.5 -19.5t17.5 -7.5q12 0 20.5 7.5t8.5 19.5t-8.5 19t-20.5 7q-24 0 -24 -26zM866 1743q0 69 50 118.5t118 49.5q69 0 117.5 -49.5t48.5 -118.5q0 -68 -48.5 -117t-117.5 -49q-68 0 -118 49.5t-50 116.5zM1010 1743 q0 -12 6.5 -19.5t17.5 -7.5q12 0 20.5 7.5t8.5 19.5t-8.5 19t-20.5 7q-24 0 -24 -26z" />
<glyph unicode="&#xd7;" horiz-adv-x="1079" d="M68 260l260 260l-252 252l88 88l340 -346l-344 -346zM180 145l346 347l355 -349l-88 -88l-256 254l-258 -258zM184 881l97 96l251 -252l263 262l92 -94l-361 -354zM551 514l358 356l92 -92l-262 -260l258 -258l-94 -94z" />
<glyph unicode="&#xd8;" horiz-adv-x="1662" d="M59 766q0 159 62 304.5t166 251t249 168t304 62.5q32 0 102 -8l25 86l96 -2l-72 -242q-78 19 -153 19q-183 0 -327 -89t-220 -233t-76 -313q0 -215 112.5 -378t303.5 -226l-80 -270l-88 -2l45 157q-202 97 -325.5 290t-123.5 425zM244 770q0 159 71 295.5t209 222.5 t314 86q73 0 145 -16l-344 -1159q-176 62 -285.5 214t-109.5 357zM414 766q0 -112 52.5 -208t143.5 -155l230 795q-175 0 -300.5 -127.5t-125.5 -304.5zM584 -102l80 258q89 -25 188 -25q264 0 438 181.5t174 457.5q0 228 -122.5 391.5t-321.5 218.5l72 246h82l-37 -133 q215 -91 349 -288.5t134 -438.5q0 -159 -61.5 -305t-166 -252t-249 -169t-303.5 -63q-65 0 -135 13l-27 -92h-94zM672 186q53 179 169 583t169 583q135 -37 234 -131.5t145.5 -211t46.5 -239.5q0 -172 -77.5 -311.5t-211 -218t-293.5 -78.5q-96 0 -182 24zM805 336h35 q178 0 302 125.5t124 304.5q0 121 -63 224t-167 159q-42 -145 -121.5 -426t-109.5 -387z" />
<glyph unicode="&#xd9;" horiz-adv-x="1187" d="M76 444v1092h153v-1028q0 -163 105 -268t268 -105q160 0 255 104.5t95 270.5v1026h160v-1092q0 -98 -43 -185t-114 -146.5t-164 -94t-191 -34.5q-134 0 -253.5 57.5t-195 164.5t-75.5 238zM260 508v1028h170v-1053q0 -62 54.5 -103.5t115.5 -41.5q62 0 108 39.5t50 99.5 v1059h166v-1028q0 -153 -87 -247.5t-235 -94.5q-150 0 -246 96t-96 246zM336 1706l49 115q59 -23 194.5 -82t206.5 -86l-47 -115zM397 1847l58 133l395 -174l-53 -127q-60 24 -196 82.5t-204 85.5z" />
<glyph unicode="&#xda;" horiz-adv-x="1187" d="M76 444v1092h153v-1028q0 -163 105 -268t268 -105q160 0 255 104.5t95 270.5v1026h160v-1092q0 -98 -43 -185t-114 -146.5t-164 -94t-191 -34.5q-134 0 -253.5 57.5t-195 164.5t-75.5 238zM260 508v1028h170v-1053q0 -62 54.5 -103.5t115.5 -41.5q62 0 108 39.5t50 99.5 v1059h166v-1028q0 -153 -87 -247.5t-235 -94.5q-150 0 -246 96t-96 246zM336 1806l395 174l51 -120l-397 -174zM397 1657l398 174l55 -125l-404 -168z" />
<glyph unicode="&#xdb;" horiz-adv-x="1187" d="M76 444v1092h153v-1028q0 -163 105 -268t268 -105q160 0 255 104.5t95 270.5v1026h160v-1092q0 -98 -43 -185t-114 -146.5t-164 -94t-191 -34.5q-134 0 -253.5 57.5t-195 164.5t-75.5 238zM260 508v1028h170v-1053q0 -62 54.5 -103.5t115.5 -41.5q62 0 108 39.5t50 99.5 v1059h166v-1028q0 -153 -87 -247.5t-235 -94.5q-150 0 -246 96t-96 246zM268 1817l324 137l326 -135l-56 -129l-270 133l-268 -135zM334 1661l258 127l258 -125l-49 -115q-204 89 -207 90q-118 -50 -192 -82q-18 -8 -19 -8z" />
<glyph unicode="&#xdc;" horiz-adv-x="1187" d="M76 444v1092h153v-1028q0 -163 105 -268t268 -105q160 0 255 104.5t95 270.5v1026h160v-1092q0 -98 -43 -185t-114 -146.5t-164 -94t-191 -34.5q-134 0 -253.5 57.5t-195 164.5t-75.5 238zM233 1743q0 69 50 118.5t118 49.5q69 0 117.5 -49.5t48.5 -118.5 q0 -68 -48.5 -117t-117.5 -49q-68 0 -118 49.5t-50 116.5zM260 508v1028h170v-1053q0 -62 54.5 -103.5t115.5 -41.5q62 0 108 39.5t50 99.5v1059h166v-1028q0 -153 -87 -247.5t-235 -94.5q-150 0 -246 96t-96 246zM377 1743q0 -12 6.5 -19.5t17.5 -7.5q12 0 20.5 7.5 t8.5 19.5t-8.5 19t-20.5 7q-24 0 -24 -26zM621 1743q0 69 49.5 118.5t117.5 49.5q69 0 117.5 -49.5t48.5 -118.5q0 -68 -48.5 -117t-117.5 -49q-68 0 -117.5 49.5t-49.5 116.5zM764 1743q0 -12 6.5 -19.5t17.5 -7.5q12 0 20.5 7.5t8.5 19.5t-8.5 19t-20.5 7q-24 0 -24 -26z " />
<glyph unicode="&#xdd;" horiz-adv-x="1255" d="M20 1536h175l421 -977v-559h-163v555zM225 1536h191l213 -537l213 537h186l-397 -948zM371 1804l395 174l51 -120l-397 -175zM432 1655l397 174l56 -125l-404 -168zM645 0v559l416 977h172l-426 -981v-555h-162z" />
<glyph unicode="&#xde;" horiz-adv-x="1044" d="M82 0v1536h168v-1536h-168zM279 0v455h233q178 0 270 83t92 236q0 155 -94.5 243.5t-271.5 88.5h-229v430h157v-272h125q136 2 243.5 -61t165.5 -172t58 -243q0 -133 -58.5 -243.5t-164.5 -175t-238 -64.5h-131v-305h-157zM279 483v594h229q165 0 250.5 -80t85.5 -223 q0 -141 -83.5 -216t-248.5 -75h-233zM436 659h131q55 0 81 41.5t26 87.5q0 43 -26 82t-81 39h-131v-250z" />
<glyph unicode="&#xdf;" horiz-adv-x="1107" d="M82 0v1536h467q117 0 214 -62t149.5 -160.5t52.5 -209.5q0 -135 -70 -252q73 -67 114.5 -161.5t41.5 -201.5q0 -131 -49.5 -243t-136.5 -179t-191 -67h-187v156h113q141 0 225 85.5t84 237.5q0 119 -72 213t-186 117q77 37 120.5 113.5t43.5 175.5q0 108 -86.5 190 t-228.5 82h-262v-1370h-156zM266 0v1341h238q123 0 202.5 -75.5t79.5 -167.5q0 -143 -74 -214t-182 -71h-43v121q54 0 94 41t40 96q0 45 -27 76t-76 35h-80v-1182h-172zM487 184v160h113q42 17 69 59.5t27 90.5q0 43 -22.5 83t-59.5 60q-5 4 -14.5 6t-28.5 5t-28 5l-56 4 v125h119q107 0 191 -89.5t84 -213.5q0 -142 -77 -218.5t-204 -76.5h-113z" />
<glyph unicode="&#xe0;" horiz-adv-x="1193" d="M57 512q0 142 71.5 264t193 193t262.5 71q132 0 243 -57v51h111v-385q-36 114 -129 185t-231 71q-88 0 -161.5 -34t-121 -89.5t-74 -125t-26.5 -142.5q0 -104 44.5 -193t135 -146.5t209.5 -57.5q134 0 227.5 71.5t126.5 178.5v-367h-111v39q-102 -55 -243 -55t-262.5 71 t-193 193t-71.5 264zM227 514q0 154 99.5 258.5t251.5 104.5q162 0 257 -106.5t95 -256.5q0 -90 -28 -161.5t-76.5 -115.5t-110 -67t-131.5 -23q-146 0 -251.5 101t-105.5 266zM340 1264l49 114q59 -23 195 -82t207 -86l-48 -114zM389 512q0 -86 56.5 -142.5t138.5 -56.5 q86 0 141 56t55 143t-55 143t-141 56q-82 0 -138.5 -56.5t-56.5 -142.5zM401 1405l58 133l395 -174l-53 -127q-60 24 -196 82.5t-204 85.5zM969 0v1034h145v-1034h-145z" />
<glyph unicode="&#xe1;" horiz-adv-x="1193" d="M57 512q0 142 71.5 264t193 193t262.5 71q132 0 243 -57v51h111v-385q-36 114 -129 185t-231 71q-88 0 -161.5 -34t-121 -89.5t-74 -125t-26.5 -142.5q0 -104 44.5 -193t135 -146.5t209.5 -57.5q134 0 227.5 71.5t126.5 178.5v-367h-111v39q-102 -55 -243 -55t-262.5 71 t-193 193t-71.5 264zM227 514q0 154 99.5 258.5t251.5 104.5q162 0 257 -106.5t95 -256.5q0 -90 -28 -161.5t-76.5 -115.5t-110 -67t-131.5 -23q-146 0 -251.5 101t-105.5 266zM340 1364l395 174l51 -121l-397 -174zM389 512q0 -86 56.5 -142.5t138.5 -56.5q86 0 141 56 t55 143t-55 143t-141 56q-82 0 -138.5 -56.5t-56.5 -142.5zM401 1214l398 175l55 -125l-403 -168zM969 0v1034h145v-1034h-145z" />
<glyph unicode="&#xe2;" horiz-adv-x="1193" d="M57 512q0 142 71.5 264t193 193t262.5 71q132 0 243 -57v51h111v-385q-36 114 -129 185t-231 71q-88 0 -161.5 -34t-121 -89.5t-74 -125t-26.5 -142.5q0 -104 44.5 -193t135 -146.5t209.5 -57.5q134 0 227.5 71.5t126.5 178.5v-367h-111v39q-102 -55 -243 -55t-262.5 71 t-193 193t-71.5 264zM227 514q0 154 99.5 258.5t251.5 104.5q162 0 257 -106.5t95 -256.5q0 -90 -28 -161.5t-76.5 -115.5t-110 -67t-131.5 -23q-146 0 -251.5 101t-105.5 266zM272 1407l324 137l326 -135l-56 -129l-270 133l-268 -135zM338 1251l258 127l258 -125l-49 -114 q-204 89 -207 90q-118 -50 -192 -82q-18 -8 -19 -8zM389 512q0 -86 56.5 -142.5t138.5 -56.5q86 0 141 56t55 143t-55 143t-141 56q-82 0 -138.5 -56.5t-56.5 -142.5zM969 0v1034h145v-1034h-145z" />
<glyph unicode="&#xe3;" horiz-adv-x="1193" d="M57 512q0 142 71.5 264t193 193t262.5 71q132 0 243 -57v51h111v-385q-36 114 -129 185t-231 71q-88 0 -161.5 -34t-121 -89.5t-74 -125t-26.5 -142.5q0 -104 44.5 -193t135 -146.5t209.5 -57.5q134 0 227.5 71.5t126.5 178.5v-367h-111v39q-102 -55 -243 -55t-262.5 71 t-193 193t-71.5 264zM227 514q0 154 99.5 258.5t251.5 104.5q162 0 257 -106.5t95 -256.5q0 -90 -28 -161.5t-76.5 -115.5t-110 -67t-131.5 -23q-146 0 -251.5 101t-105.5 266zM244 1300q20 94 75 149.5t142 55.5q59 0 141 -28q59 -19 72 -19q15 0 30.5 5t30 13t24.5 15 t20 15.5t12 9.5l83 -78q-77 -121 -141 -121q-54 0 -129 31q-91 38 -145 38q-43 0 -82.5 -38.5t-65.5 -98.5zM332 1235q23 61 58.5 94t74.5 33q7 0 13.5 -0.5t14 -1.5t12.5 -2t14 -4t13.5 -4t15 -5t15 -6t17.5 -7t18 -7q47 -19 74.5 -26t64.5 -7q75 0 154 129l57 -51 q-26 -92 -84.5 -148.5t-138.5 -56.5q-14 0 -31 3t-27.5 5.5t-34 9.5t-30.5 9q-71 22 -92 22q-22 0 -39.5 -11t-29 -25t-13.5 -15zM389 512q0 -86 56.5 -142.5t138.5 -56.5q86 0 141 56t55 143t-55 143t-141 56q-82 0 -138.5 -56.5t-56.5 -142.5zM969 0v1034h145v-1034h-145z " />
<glyph unicode="&#xe4;" horiz-adv-x="1193" d="M57 512q0 142 71.5 264t193 193t262.5 71q132 0 243 -57v51h111v-385q-36 114 -129 185t-231 71q-88 0 -161.5 -34t-121 -89.5t-74 -125t-26.5 -142.5q0 -104 44.5 -193t135 -146.5t209.5 -57.5q134 0 227.5 71.5t126.5 178.5v-367h-111v39q-102 -55 -243 -55t-262.5 71 t-193 193t-71.5 264zM227 514q0 154 99.5 258.5t251.5 104.5q162 0 257 -106.5t95 -256.5q0 -90 -28 -161.5t-76.5 -115.5t-110 -67t-131.5 -23q-146 0 -251.5 101t-105.5 266zM236 1333q0 69 49.5 118.5t117.5 49.5q69 0 117.5 -49.5t48.5 -118.5q0 -68 -48.5 -117 t-117.5 -49q-68 0 -117.5 49.5t-49.5 116.5zM379 1333q0 -26 24 -26q12 0 20.5 7t8.5 19t-8.5 19.5t-20.5 7.5q-11 0 -17.5 -7.5t-6.5 -19.5zM389 512q0 -86 56.5 -142.5t138.5 -56.5q86 0 141 56t55 143t-55 143t-141 56q-82 0 -138.5 -56.5t-56.5 -142.5zM623 1333 q0 69 50 118.5t118 49.5q69 0 117 -49.5t48 -118.5q0 -68 -48 -117t-117 -49q-68 0 -118 49.5t-50 116.5zM766 1333q0 -12 7 -19t18 -7q12 0 20 7t8 19t-8 19.5t-20 7.5q-11 0 -18 -7.5t-7 -19.5zM969 0v1034h145v-1034h-145z" />
<glyph unicode="&#xe5;" horiz-adv-x="1193" d="M57 512q0 142 71.5 264t193 193t262.5 71q132 0 243 -57v51h111v-385q-36 114 -129 185t-231 71q-88 0 -161.5 -34t-121 -89.5t-74 -125t-26.5 -142.5q0 -104 44.5 -193t135 -146.5t209.5 -57.5q134 0 227.5 71.5t126.5 178.5v-367h-111v39q-102 -55 -243 -55t-262.5 71 t-193 193t-71.5 264zM227 514q0 154 99.5 258.5t251.5 104.5q162 0 257 -106.5t95 -256.5q0 -90 -28 -161.5t-76.5 -115.5t-110 -67t-131.5 -23q-146 0 -251.5 101t-105.5 266zM369 1327q0 92 66.5 157.5t160.5 65.5t159.5 -65.5t65.5 -157.5q0 -94 -65.5 -160.5 t-159.5 -66.5t-160.5 66.5t-66.5 160.5zM389 512q0 -86 56.5 -142.5t138.5 -56.5q86 0 141 56t55 143t-55 143t-141 56q-82 0 -138.5 -56.5t-56.5 -142.5zM424 1325q0 -68 50 -121t124 -53q71 0 121.5 49.5t50.5 128.5q0 68 -49 119t-125 51q-75 0 -123.5 -52.5 t-48.5 -121.5zM442 1325q0 63 42.5 110.5t111.5 47.5q71 0 114.5 -46.5t43.5 -107.5q0 -71 -44 -115.5t-112 -44.5q-66 0 -111 45t-45 111zM504 1327q0 -38 27.5 -65t64.5 -27t64.5 27t27.5 65q0 37 -27.5 63.5t-64.5 26.5t-64.5 -26.5t-27.5 -63.5zM969 0v1034h145v-1034 h-145z" />
<glyph unicode="&#xe6;" horiz-adv-x="1830" d="M57 512q0 142 71.5 264t193 193t262.5 71q132 0 243 -57v51h111v-385q-36 114 -129 185t-231 71q-88 0 -161.5 -34t-121 -89.5t-74 -125t-26.5 -142.5q0 -104 44.5 -193t135 -146.5t209.5 -57.5q134 0 227.5 71.5t126.5 178.5v-367h-111v39q-102 -55 -243 -55t-262.5 71 t-193 193t-71.5 264zM227 514q0 154 99.5 258.5t251.5 104.5q162 0 257 -106.5t95 -256.5q0 -90 -28 -161.5t-76.5 -115.5t-110 -67t-131.5 -23q-146 0 -251.5 101t-105.5 266zM389 512q0 -86 56.5 -142.5t138.5 -56.5q86 0 141 56t55 143t-55 143t-141 56 q-82 0 -138.5 -56.5t-56.5 -142.5zM969 0v360q46 -117 149.5 -186.5t229.5 -69.5q208 0 352 93l45 -101q-85 -55 -179.5 -83.5t-230.5 -28.5q-119 0 -221 45v-29h-145zM969 506h704v18q0 173 -92 279t-262 106q-125 0 -216 -66.5t-134 -168.5v360h145v-37q100 43 211 43 q202 0 335.5 -142t133.5 -368v-133h-639q0 -39 62 -85t149 -46q75 0 141 15q47 11 133 49l48 -107q-82 -48 -159.5 -68t-180.5 -20q-159 0 -264.5 103t-114.5 268zM969 535q5 88 47.5 166t122.5 129t180 51q152 0 234.5 -90.5t93.5 -255.5h-678zM1151 627h336q0 45 -46.5 83 t-123.5 38q-67 0 -115 -40t-51 -81z" />
<glyph unicode="&#xe7;" horiz-adv-x="1095" d="M57 514q0 143 70.5 264t193 191.5t267.5 70.5q129 0 246.5 -66t187.5 -165l-123 -80q-44 71 -128 120.5t-179 49.5q-169 0 -277 -110t-108 -275q0 -159 103 -271t276 -112l-140 -237l21 -13q35 15 100 15q33 0 61.5 -25t28.5 -57q0 -52 -33.5 -85.5t-86.5 -33.5 q-27 0 -59.5 13.5t-43.5 20.5t-39 27l45 41q43 -22 84 -22q15 0 25 7t10 19q0 31 -125 31l-53 68l57 104q-168 48 -274.5 188.5t-106.5 321.5zM238 514q0 147 97 249.5t255 102.5q187 0 282 -155l-118 -76q-26 24 -42 36t-49.5 24t-72.5 12q-80 0 -136.5 -56.5t-56.5 -136.5 q0 -82 56.5 -139.5t136.5 -57.5q54 0 95 26.5t81 82.5l135 -70q-58 -90 -139 -143t-176 -53q-153 0 -250.5 100t-97.5 254zM328 -307l51 49q80 -72 153 -72q67 0 106.5 40t39.5 106q0 44 -33 74t-82 30q-26 0 -78 -10l133 221q89 9 171 63.5t141 147.5l127 -66 q-66 -125 -179.5 -203t-252.5 -87v-2q65 -12 104 -58.5t39 -122.5q0 -69 -37.5 -120t-88.5 -73t-105 -22q-40 0 -84.5 15.5t-71.5 36.5q-31 22 -53 53z" />
<glyph unicode="&#xe8;" horiz-adv-x="1110" d="M57 516q0 219 150.5 371.5t370.5 152.5q202 0 335.5 -142t133.5 -368v-133h-639q0 -39 61.5 -85t148.5 -46q76 0 142 15q47 11 133 49l47 -107q-82 -48 -159.5 -68t-180.5 -20q-159 0 -264.5 103t-114.5 268h705v18q0 173 -92.5 279t-262.5 106q-87 0 -161 -34.5 t-121 -90.5t-73 -123.5t-26 -136.5q0 -181 120.5 -300.5t289.5 -119.5q208 0 352 93l45 -101q-85 -55 -179 -83.5t-230 -28.5q-150 0 -272.5 71t-190.5 193t-68 268zM221 535q5 88 47.5 166t122.5 129t180 51q152 0 234.5 -90.5t93.5 -255.5h-678zM297 1264l49 114 q59 -23 195 -82t207 -86l-48 -114zM358 1405l58 133l395 -174l-53 -127q-60 24 -196 82.5t-204 85.5zM403 627h336q0 45 -46.5 83t-123.5 38q-67 0 -115 -40t-51 -81z" />
<glyph unicode="&#xe9;" horiz-adv-x="1110" d="M57 516q0 219 150.5 371.5t370.5 152.5q202 0 335.5 -142t133.5 -368v-133h-639q0 -39 61.5 -85t148.5 -46q76 0 142 15q47 11 133 49l47 -107q-82 -48 -159.5 -68t-180.5 -20q-159 0 -264.5 103t-114.5 268h705v18q0 173 -92.5 279t-262.5 106q-87 0 -161 -34.5 t-121 -90.5t-73 -123.5t-26 -136.5q0 -181 120.5 -300.5t289.5 -119.5q208 0 352 93l45 -101q-85 -55 -179 -83.5t-230 -28.5q-150 0 -272.5 71t-190.5 193t-68 268zM221 535q5 88 47.5 166t122.5 129t180 51q152 0 234.5 -90.5t93.5 -255.5h-678zM297 1364l395 174l51 -121 l-397 -174zM358 1214l398 175l55 -125l-403 -168zM403 627h336q0 45 -46.5 83t-123.5 38q-67 0 -115 -40t-51 -81z" />
<glyph unicode="&#xea;" horiz-adv-x="1110" d="M57 516q0 219 150.5 371.5t370.5 152.5q202 0 335.5 -142t133.5 -368v-133h-639q0 -39 61.5 -85t148.5 -46q76 0 142 15q47 11 133 49l47 -107q-82 -48 -159.5 -68t-180.5 -20q-159 0 -264.5 103t-114.5 268h705v18q0 173 -92.5 279t-262.5 106q-87 0 -161 -34.5 t-121 -90.5t-73 -123.5t-26 -136.5q0 -181 120.5 -300.5t289.5 -119.5q208 0 352 93l45 -101q-85 -55 -179 -83.5t-230 -28.5q-150 0 -272.5 71t-190.5 193t-68 268zM221 535q5 88 47.5 166t122.5 129t180 51q152 0 234.5 -90.5t93.5 -255.5h-678zM229 1407l324 137 l326 -135l-56 -129l-270 133l-268 -135zM295 1251l258 127l258 -125l-49 -114q-204 89 -207 90q-118 -50 -192 -82q-18 -8 -19 -8zM403 627h336q0 45 -46.5 83t-123.5 38q-67 0 -115 -40t-51 -81z" />
<glyph unicode="&#xeb;" horiz-adv-x="1110" d="M57 516q0 219 150.5 371.5t370.5 152.5q202 0 335.5 -142t133.5 -368v-133h-639q0 -39 61.5 -85t148.5 -46q76 0 142 15q47 11 133 49l47 -107q-82 -48 -159.5 -68t-180.5 -20q-159 0 -264.5 103t-114.5 268h705v18q0 173 -92.5 279t-262.5 106q-87 0 -161 -34.5 t-121 -90.5t-73 -123.5t-26 -136.5q0 -181 120.5 -300.5t289.5 -119.5q208 0 352 93l45 -101q-85 -55 -179 -83.5t-230 -28.5q-150 0 -272.5 71t-190.5 193t-68 268zM195 1333q0 69 49.5 118.5t117.5 49.5q69 0 117.5 -49.5t48.5 -118.5q0 -68 -48.5 -117t-117.5 -49 q-68 0 -117.5 49.5t-49.5 116.5zM221 535q5 88 47.5 166t122.5 129t180 51q152 0 234.5 -90.5t93.5 -255.5h-678zM338 1333q0 -26 24 -26q12 0 20.5 7t8.5 19t-8.5 19.5t-20.5 7.5q-11 0 -17.5 -7.5t-6.5 -19.5zM403 627h336q0 45 -46.5 83t-123.5 38q-67 0 -115 -40 t-51 -81zM582 1333q0 69 50 118.5t118 49.5q69 0 117 -49.5t48 -118.5q0 -68 -48 -117t-117 -49q-68 0 -118 49.5t-50 116.5zM725 1333q0 -12 7 -19t18 -7q12 0 20 7t8 19t-8 19.5t-20 7.5q-11 0 -18 -7.5t-7 -19.5z" />
<glyph unicode="&#xec;" horiz-adv-x="468" d="M-20 1264l49 114q59 -23 194.5 -82t206.5 -86l-47 -114zM41 1405l57 133l396 -174l-54 -127q-60 24 -196 82.5t-203 85.5zM76 0v1024h151v-1024h-151zM256 0v1024h154v-1024h-154z" />
<glyph unicode="&#xed;" horiz-adv-x="468" d="M-20 1364l395 174l51 -121l-397 -174zM41 1214l397 175l56 -125l-404 -168zM76 0v1024h151v-1024h-151zM256 0v1024h154v-1024h-154z" />
<glyph unicode="&#xee;" horiz-adv-x="468" d="M-88 1407l324 137l325 -135l-55 -129l-270 133l-269 -135zM-23 1251l259 127l258 -125l-50 -114q-197 85 -206 90q-118 -50 -192 -82q-18 -8 -19 -8zM76 0v1024h151v-1024h-151zM256 0v1024h154v-1024h-154z" />
<glyph unicode="&#xef;" horiz-adv-x="468" d="M-125 1333q0 69 50 118.5t118 49.5q69 0 117.5 -49.5t48.5 -118.5q0 -68 -48.5 -117t-117.5 -49q-68 0 -118 49.5t-50 116.5zM18 1333q0 -12 7 -19t18 -7q12 0 20.5 7t8.5 19t-8.5 19.5t-20.5 7.5q-11 0 -18 -7.5t-7 -19.5zM76 0v1024h151v-1024h-151zM256 0v1024h154 v-1024h-154zM262 1333q0 69 50 118.5t118 49.5q69 0 117.5 -49.5t48.5 -118.5q0 -68 -48.5 -117t-117.5 -49q-68 0 -118 49.5t-50 116.5zM406 1333q0 -26 24 -26q12 0 20.5 7t8.5 19t-8.5 19.5t-20.5 7.5q-11 0 -17.5 -7.5t-6.5 -19.5z" />
<glyph unicode="&#xf0;" horiz-adv-x="1177" d="M47 524q0 200 128 338t327 176l-33 49l-66 -45l-75 103l207 147l331 -491q-52 52 -126 81t-156 29q-96 0 -172.5 -33t-122.5 -89t-70 -124.5t-24 -144.5q0 -169 111 -280t280 -111q177 0 287 110t110 277t-109 326l-315 469l205 147l82 -106l-94 -66l307 -487 q74 -116 74 -275q0 -148 -73 -272.5t-198 -196t-272 -71.5t-272 71.5t-198 196t-73 272.5zM223 520q0 -153 105 -257.5t260 -104.5q153 0 258.5 97t105.5 261q0 152 -105.5 258.5t-262.5 106.5q-166 0 -263.5 -105.5t-97.5 -255.5zM242 1270l75 53l-55 86l135 86l119 -176 l-207 -148zM395 524q0 86 54.5 141.5t140.5 55.5t140 -55t54 -142q0 -85 -54 -139.5t-140 -54.5t-140.5 54.5t-54.5 139.5zM424 1513l131 84l45 -71l76 53l69 -94l-204 -148z" />
<glyph unicode="&#xf1;" horiz-adv-x="1077" d="M82 0v1022h145v-1022h-145zM186 1300q20 94 75 149.5t142 55.5q60 0 142 -28q59 -19 71 -19q15 0 30.5 5t30 13t24.5 15t20 15.5t12 9.5l84 -78q-77 -121 -141 -121q-54 0 -129 31q-91 38 -146 38q-42 0 -81.5 -38.5t-65.5 -98.5zM256 0v532q0 141 90.5 238.5t202.5 97.5 q126 0 198 -94.5t72 -245.5v-528h-149v580q0 54 -36.5 90.5t-90.5 36.5q-49 0 -85.5 -33.5t-41.5 -83.5v-590h-160zM256 674v348h102v-23q75 41 185 41q220 0 340.5 -118.5t120.5 -337.5v-584h-156v524q0 165 -78.5 269t-220.5 104q-97 0 -174.5 -61t-118.5 -162zM274 1235 q23 61 59 94t75 33q7 0 13.5 -0.5t14 -1.5t12.5 -2t14 -4t13.5 -4t15 -5t15 -6t17.5 -7t18 -7q47 -19 74.5 -26t64.5 -7q75 0 154 129l57 -51q-26 -92 -84.5 -148.5t-138.5 -56.5q-14 0 -31 3t-27.5 5.5t-34 9.5t-30.5 9q-72 22 -92 22q-22 0 -39.5 -11t-29 -25t-13.5 -15z " />
<glyph unicode="&#xf2;" horiz-adv-x="1169" d="M57 514q0 143 70 264t192 191.5t267 70.5q143 0 264 -70.5t191.5 -191.5t70.5 -264q0 -145 -70.5 -267t-191.5 -192.5t-264 -70.5q-145 0 -267 70.5t-192 192.5t-70 267zM205 516q0 -115 55.5 -205.5t140 -136t179.5 -45.5q160 0 273.5 106.5t113.5 280.5 q0 166 -107.5 275.5t-281.5 109.5q-107 0 -194 -56.5t-133 -144t-46 -184.5zM238 516q0 149 98 252.5t242 103.5q163 0 260.5 -103.5t97.5 -252.5q0 -162 -102.5 -259t-253.5 -97q-134 0 -238 98.5t-104 257.5zM328 1264l49 114q59 -23 194.5 -82t206.5 -86l-47 -114z M389 1405l57 133l396 -174l-54 -127q-60 24 -196 82.5t-203 85.5zM393 514q0 -82 55.5 -138.5t137.5 -56.5q80 0 136 56.5t56 138.5q0 80 -56.5 136.5t-135.5 56.5q-81 0 -137 -56.5t-56 -136.5z" />
<glyph unicode="&#xf3;" horiz-adv-x="1169" d="M57 514q0 143 70 264t192 191.5t267 70.5q143 0 264 -70.5t191.5 -191.5t70.5 -264q0 -145 -70.5 -267t-191.5 -192.5t-264 -70.5q-145 0 -267 70.5t-192 192.5t-70 267zM205 516q0 -115 55.5 -205.5t140 -136t179.5 -45.5q160 0 273.5 106.5t113.5 280.5 q0 166 -107.5 275.5t-281.5 109.5q-107 0 -194 -56.5t-133 -144t-46 -184.5zM238 516q0 149 98 252.5t242 103.5q163 0 260.5 -103.5t97.5 -252.5q0 -162 -102.5 -259t-253.5 -97q-134 0 -238 98.5t-104 257.5zM328 1364l395 174l51 -121l-397 -174zM389 1214l397 175 l56 -125l-404 -168zM393 514q0 -82 55.5 -138.5t137.5 -56.5q80 0 136 56.5t56 138.5q0 80 -56.5 136.5t-135.5 56.5q-81 0 -137 -56.5t-56 -136.5z" />
<glyph unicode="&#xf4;" horiz-adv-x="1169" d="M57 514q0 143 70 264t192 191.5t267 70.5q143 0 264 -70.5t191.5 -191.5t70.5 -264q0 -145 -70.5 -267t-191.5 -192.5t-264 -70.5q-145 0 -267 70.5t-192 192.5t-70 267zM205 516q0 -115 55.5 -205.5t140 -136t179.5 -45.5q160 0 273.5 106.5t113.5 280.5 q0 166 -107.5 275.5t-281.5 109.5q-107 0 -194 -56.5t-133 -144t-46 -184.5zM238 516q0 149 98 252.5t242 103.5q163 0 260.5 -103.5t97.5 -252.5q0 -162 -102.5 -259t-253.5 -97q-134 0 -238 98.5t-104 257.5zM260 1407l324 137l325 -135l-55 -129l-270 133l-269 -135z M326 1251l258 127l258 -125l-49 -114q-204 89 -207 90q-118 -50 -192 -82q-18 -8 -19 -8zM393 514q0 -82 55.5 -138.5t137.5 -56.5q80 0 136 56.5t56 138.5q0 80 -56.5 136.5t-135.5 56.5q-81 0 -137 -56.5t-56 -136.5z" />
<glyph unicode="&#xf5;" horiz-adv-x="1169" d="M57 514q0 143 70 264t192 191.5t267 70.5q143 0 264 -70.5t191.5 -191.5t70.5 -264q0 -145 -70.5 -267t-191.5 -192.5t-264 -70.5q-145 0 -267 70.5t-192 192.5t-70 267zM205 516q0 -115 55.5 -205.5t140 -136t179.5 -45.5q160 0 273.5 106.5t113.5 280.5 q0 166 -107.5 275.5t-281.5 109.5q-107 0 -194 -56.5t-133 -144t-46 -184.5zM231 1300q20 94 75.5 149.5t142.5 55.5q59 0 141 -28q59 -19 72 -19q15 0 30.5 5t29.5 13t24 15t20 15.5t12 9.5l84 -78q-77 -121 -141 -121q-54 0 -129 31q-91 38 -146 38q-42 0 -81.5 -38.5 t-65.5 -98.5zM238 516q0 149 98 252.5t242 103.5q163 0 260.5 -103.5t97.5 -252.5q0 -162 -102.5 -259t-253.5 -97q-134 0 -238 98.5t-104 257.5zM319 1235q23 61 59 94t75 33q7 0 13.5 -0.5t14 -1.5t12.5 -2t14 -4t13.5 -4t15 -5t15 -6t17.5 -7t18 -7q47 -19 74.5 -26 t64.5 -7q75 0 154 129l57 -51q-26 -92 -84.5 -148.5t-138.5 -56.5q-14 0 -31 3t-27.5 5.5t-34 9.5t-30.5 9q-72 22 -92 22q-22 0 -39.5 -11t-29 -25t-13.5 -15zM393 514q0 -82 55.5 -138.5t137.5 -56.5q80 0 136 56.5t56 138.5q0 80 -56.5 136.5t-135.5 56.5 q-81 0 -137 -56.5t-56 -136.5z" />
<glyph unicode="&#xf6;" horiz-adv-x="1169" d="M57 514q0 143 70 264t192 191.5t267 70.5q143 0 264 -70.5t191.5 -191.5t70.5 -264q0 -145 -70.5 -267t-191.5 -192.5t-264 -70.5q-145 0 -267 70.5t-192 192.5t-70 267zM205 516q0 -115 55.5 -205.5t140 -136t179.5 -45.5q160 0 273.5 106.5t113.5 280.5 q0 166 -107.5 275.5t-281.5 109.5q-107 0 -194 -56.5t-133 -144t-46 -184.5zM223 1333q0 69 50 118.5t118 49.5q69 0 117.5 -49.5t48.5 -118.5q0 -68 -48.5 -117t-117.5 -49q-68 0 -118 49.5t-50 116.5zM238 516q0 149 98 252.5t242 103.5q163 0 260.5 -103.5t97.5 -252.5 q0 -162 -102.5 -259t-253.5 -97q-134 0 -238 98.5t-104 257.5zM367 1333q0 -26 24 -26q12 0 20.5 7t8.5 19t-8.5 19.5t-20.5 7.5q-11 0 -17.5 -7.5t-6.5 -19.5zM393 514q0 -82 55.5 -138.5t137.5 -56.5q80 0 136 56.5t56 138.5q0 80 -56.5 136.5t-135.5 56.5 q-81 0 -137 -56.5t-56 -136.5zM610 1333q0 69 50 118.5t118 49.5q69 0 117.5 -49.5t48.5 -118.5q0 -68 -48.5 -117t-117.5 -49q-68 0 -118 49.5t-50 116.5zM754 1333q0 -26 24 -26q12 0 20.5 7t8.5 19t-8.5 19.5t-20.5 7.5q-11 0 -17.5 -7.5t-6.5 -19.5z" />
<glyph unicode="&#xf7;" horiz-adv-x="1073" d="M25 377v133h1024v-133h-1024zM25 539v129h1024v-129h-1024zM346 164q0 76 56 132t133 56t132.5 -56t55.5 -132q0 -75 -56 -132t-132 -57t-132.5 57t-56.5 132zM346 883q0 76 56 132t133 56t132.5 -55.5t55.5 -132.5q0 -75 -56 -132t-132 -57t-132.5 57t-56.5 132z M506 164q0 -13 8.5 -22t20.5 -9t22 9t10 22t-10 22t-22 9t-20.5 -9t-8.5 -22zM506 883q0 -13 8.5 -22t20.5 -9t22 9t10 22t-9.5 21.5t-22.5 8.5q-12 0 -20.5 -8.5t-8.5 -21.5z" />
<glyph unicode="&#xf8;" horiz-adv-x="1146" d="M57 514q0 143 70 264t192 191.5t267 70.5q7 0 20.5 -1t20.5 -1l30 103h84l-73 -250q-48 10 -90 10q-107 0 -194 -56.5t-133 -144t-46 -184.5q0 -132 69.5 -227.5t176.5 -136.5l-80 -269h-78l45 160q-128 67 -204.5 192.5t-76.5 278.5zM238 516q0 149 98 252.5t242 103.5 q31 0 81 -8l-200 -682q-97 37 -159 124.5t-62 209.5zM393 514q0 -75 45 -129l92 313q-61 -17 -99 -68t-38 -116zM406 -117l73 260q46 -14 101 -14q160 0 273.5 106.5t113.5 280.5q0 134 -74 234.5t-199 134.5l76 256h80l-43 -150q137 -64 221 -192.5t84 -284.5 q0 -145 -70.5 -267t-191.5 -192.5t-264 -70.5q-20 0 -66 4q-20 -70 -28 -105h-86zM489 172q72 245 98.5 343t98.5 343q117 -33 183.5 -127.5t66.5 -214.5q0 -162 -102.5 -259t-253.5 -97q-48 0 -91 12zM618 322q68 11 114 65t46 127q0 88 -65 143q-18 -64 -27 -97t-13 -46 t-18 -62t-37 -130z" />
<glyph unicode="&#xf9;" horiz-adv-x="1075" d="M74 440v584h149v-584q0 -147 80 -230t225 -83q100 0 176.5 54.5t116.5 152.5v-334h-104v23q-72 -39 -182 -39q-220 0 -340.5 118.5t-120.5 337.5zM252 436v588h156v-580q0 -54 36.5 -90.5t90.5 -36.5q51 0 89 33.5t38 81.5v592h159v-549q0 -142 -86 -230.5t-207 -88.5 q-126 0 -201 74t-75 206zM281 1264l49 114q59 -23 194.5 -82t206.5 -86l-47 -114zM342 1405l57 133l396 -174l-54 -127q-60 24 -196 82.5t-203 85.5zM850 0v1024h145v-1024h-145z" />
<glyph unicode="&#xfa;" horiz-adv-x="1075" d="M74 440v584h149v-584q0 -147 80 -230t225 -83q100 0 176.5 54.5t116.5 152.5v-334h-104v23q-72 -39 -182 -39q-220 0 -340.5 118.5t-120.5 337.5zM252 436v588h156v-580q0 -54 36.5 -90.5t90.5 -36.5q51 0 89 33.5t38 81.5v592h159v-549q0 -142 -86 -230.5t-207 -88.5 q-126 0 -201 74t-75 206zM283 1364l395 174l51 -121l-397 -174zM344 1214l397 175l56 -125l-404 -168zM850 0v1024h145v-1024h-145z" />
<glyph unicode="&#xfb;" horiz-adv-x="1075" d="M74 440v584h149v-584q0 -147 80 -230t225 -83q100 0 176.5 54.5t116.5 152.5v-334h-104v23q-72 -39 -182 -39q-220 0 -340.5 118.5t-120.5 337.5zM213 1407l324 137l325 -135l-55 -129l-270 133l-269 -135zM252 436v588h156v-580q0 -54 36.5 -90.5t90.5 -36.5 q51 0 89 33.5t38 81.5v592h159v-549q0 -142 -86 -230.5t-207 -88.5q-126 0 -201 74t-75 206zM279 1251l258 127l258 -125l-50 -114q-197 85 -206 90q-118 -50 -192 -82q-18 -8 -19 -8zM850 0v1024h145v-1024h-145z" />
<glyph unicode="&#xfc;" horiz-adv-x="1075" d="M74 440v584h149v-584q0 -147 80 -230t225 -83q100 0 176.5 54.5t116.5 152.5v-334h-104v23q-72 -39 -182 -39q-220 0 -340.5 118.5t-120.5 337.5zM174 1333q0 69 50 118.5t118 49.5q69 0 117.5 -49.5t48.5 -118.5q0 -68 -48.5 -117t-117.5 -49q-68 0 -118 49.5t-50 116.5 zM252 436v588h156v-580q0 -54 36.5 -90.5t90.5 -36.5q51 0 89 33.5t38 81.5v592h159v-549q0 -142 -86 -230.5t-207 -88.5q-126 0 -201 74t-75 206zM317 1333q0 -12 7 -19t18 -7q12 0 20.5 7t8.5 19t-8.5 19.5t-20.5 7.5q-11 0 -18 -7.5t-7 -19.5zM561 1333q0 69 50 118.5 t118 49.5q69 0 117.5 -49.5t48.5 -118.5q0 -68 -48.5 -117t-117.5 -49q-68 0 -118 49.5t-50 116.5zM705 1333q0 -26 24 -26q12 0 20.5 7t8.5 19t-8.5 19.5t-20.5 7.5q-11 0 -17.5 -7.5t-6.5 -19.5zM850 0v1024h145v-1024h-145z" />
<glyph unicode="&#xfd;" horiz-adv-x="1001" d="M16 1024h160l318 -887l-185 -530l-159 4q178 512 178 528zM211 1024h168l123 -428l123 426h166l-283 -838zM244 1364l395 174l51 -121l-397 -174zM305 1214l397 175l56 -125l-404 -168zM342 -393l483 1415h158l-485 -1419z" />
<glyph unicode="&#xfe;" horiz-adv-x="1153" d="M82 -420v1854h149v-1854h-149zM262 367q32 -103 131 -176.5t223 -73.5q90 0 165 33.5t123.5 89t75 126.5t26.5 148q0 73 -26.5 142.5t-74 125t-121 89.5t-161.5 34q-138 0 -231.5 -71t-129.5 -185v785h154v-439q55 25 95.5 34t102.5 9q141 0 262.5 -70t193 -191.5 t71.5 -264.5t-71.5 -264.5t-193 -191.5t-262.5 -70q-112 0 -198 37v-443h-154v787zM270 514q0 150 95.5 256.5t257.5 106.5q152 0 251 -104.5t99 -258.5q0 -165 -105.5 -266t-251.5 -101q-63 0 -123.5 23t-111 67t-81 116t-30.5 161zM418 512q0 -86 55 -141.5t141 -55.5 q83 0 139 56t56 141t-56 141t-139 56q-86 0 -141 -55.5t-55 -141.5z" />
<glyph unicode="&#xff;" horiz-adv-x="1001" d="M16 1024h160l318 -887l-185 -530l-159 4q178 512 178 528zM139 1333q0 69 50 118.5t118 49.5q69 0 117.5 -49.5t48.5 -118.5q0 -68 -48.5 -117t-117.5 -49q-68 0 -118 49.5t-50 116.5zM211 1024h168l123 -428l123 426h166l-283 -838zM283 1333q0 -26 24 -26q12 0 20.5 7 t8.5 19t-8.5 19.5t-20.5 7.5q-11 0 -17.5 -7.5t-6.5 -19.5zM342 -393l483 1415h158l-485 -1419zM526 1333q0 69 50 118.5t118 49.5q69 0 117.5 -49.5t48.5 -118.5q0 -68 -48.5 -117t-117.5 -49q-68 0 -118 49.5t-50 116.5zM670 1333q0 -26 24 -26q12 0 20.5 7t8.5 19 t-8.5 19.5t-20.5 7.5q-11 0 -17.5 -7.5t-6.5 -19.5z" />
<glyph unicode="&#x152;" horiz-adv-x="2220" d="M59 766q0 159 62 304.5t166 251t249 168t304 62.5q230 0 428 -129v113h880v-162h-716v-393q-62 194 -223 309t-371 115q-183 0 -327 -89t-220 -233t-76 -313q0 -180 80 -325.5t226 -229.5t331 -84q207 0 363 116.5t217 309.5v-391h716v-166h-880v106q-194 -129 -428 -129 q-212 0 -392 106.5t-284.5 288t-104.5 394.5zM244 770q0 159 71 295.5t209 222.5t314 86q142 0 258 -54t188 -141.5t111 -193.5t39 -215q0 -172 -77 -311.5t-210 -218t-293 -78.5q-123 0 -234.5 44.5t-194.5 123t-132 193t-49 247.5zM414 766q0 -178 125.5 -304t300.5 -126 q178 0 302 125.5t124 304.5q0 116 -56.5 215.5t-154.5 158t-215 58.5q-175 0 -300.5 -127.5t-125.5 -304.5zM1460 195v561h688v-160h-526v-242h526v-159h-688zM1460 786v560h688v-164h-526v-232h526v-164h-688z" />
<glyph unicode="&#x153;" horiz-adv-x="1824" d="M57 514q0 143 70 264t192 191.5t267 70.5q103 0 196.5 -38t165.5 -107q70 69 164 107t199 38q202 0 335.5 -142t133.5 -368v-133h-639q0 -39 62 -85t149 -46q75 0 141 15q47 11 133 49l47 -107q-82 -48 -159.5 -68t-180.5 -20q-144 0 -243 84.5t-125 226.5q-7 35 -7 60 h701v18q0 173 -92 279t-262 106q-131 0 -225 -76.5t-134 -189.5q-38 116 -135.5 187t-232.5 71q-107 0 -194 -56.5t-133 -144t-46 -184.5q0 -115 55.5 -205.5t140 -136t179.5 -45.5q126 0 224.5 69.5t139.5 192.5q43 -131 149 -209t240 -78q209 0 353 93l45 -101 q-85 -55 -179.5 -83.5t-230.5 -28.5q-223 0 -371 145q-72 -69 -166 -107t-198 -38q-145 0 -267 70.5t-192 192.5t-70 267zM238 516q0 149 98 252.5t242 103.5q162 0 257 -103.5t95 -252.5q0 -163 -99.5 -259.5t-250.5 -96.5q-134 0 -238 98.5t-104 257.5zM393 514 q0 -82 55.5 -138.5t137.5 -56.5q80 0 136 56.5t56 138.5q0 80 -56.5 136.5t-135.5 56.5q-81 0 -137 -56.5t-56 -136.5zM961 535q5 88 46 165.5t119.5 129t178.5 51.5q152 0 234 -90.5t93 -255.5h-671zM1137 627h336q0 45 -46.5 83t-123.5 38q-67 0 -115 -40t-51 -81z" />
<glyph unicode="&#x178;" horiz-adv-x="1255" d="M20 1536h175l421 -977v-559h-163v555zM225 1536h191l213 -537l213 537h186l-397 -948zM266 1743q0 69 50 118.5t118 49.5q69 0 117.5 -49.5t48.5 -118.5q0 -68 -48.5 -117t-117.5 -49q-68 0 -118 49.5t-50 116.5zM410 1743q0 -12 6.5 -19.5t17.5 -7.5q12 0 20.5 7.5 t8.5 19.5t-8.5 19t-20.5 7q-24 0 -24 -26zM645 0v559l416 977h172l-426 -981v-555h-162zM653 1743q0 69 50 118.5t118 49.5q69 0 117.5 -49.5t48.5 -118.5q0 -68 -48.5 -117t-117.5 -49q-68 0 -118 49.5t-50 116.5zM797 1743q0 -12 6.5 -19.5t17.5 -7.5q12 0 20.5 7.5 t8.5 19.5t-8.5 19t-20.5 7q-24 0 -24 -26z" />
<glyph unicode="&#x2c6;" horiz-adv-x="737" d="M43 1407l324 137l325 -135l-55 -129l-270 133l-269 -135zM109 1251l258 127l258 -125l-50 -114q-197 85 -206 90q-118 -50 -192 -82q-18 -8 -19 -8z" />
<glyph unicode="&#x2dc;" horiz-adv-x="841" d="M68 1300q20 94 75 149.5t142 55.5q59 0 141 -28q59 -19 72 -19q15 0 30.5 5t29.5 13t24 15t20 15.5t12 9.5l84 -78q-77 -121 -141 -121q-54 0 -129 31q-91 38 -145 38q-43 0 -82.5 -38.5t-65.5 -98.5zM156 1235q23 61 58.5 94t74.5 33q7 0 13.5 -0.5t14 -1.5t12.5 -2 t14 -4t13.5 -4t15 -5t15 -6t17.5 -7t18 -7q47 -19 74.5 -26t64.5 -7q75 0 154 129l57 -51q-26 -92 -84.5 -148.5t-138.5 -56.5q-14 0 -31 3t-27.5 5.5t-34 9.5t-30.5 9q-71 22 -92 22q-22 0 -39.5 -11t-29 -25t-13.5 -15z" />
<glyph unicode="&#x2000;" horiz-adv-x="992" />
<glyph unicode="&#x2001;" horiz-adv-x="1985" />
<glyph unicode="&#x2002;" horiz-adv-x="992" />
<glyph unicode="&#x2003;" horiz-adv-x="1985" />
<glyph unicode="&#x2004;" horiz-adv-x="661" />
<glyph unicode="&#x2005;" horiz-adv-x="496" />
<glyph unicode="&#x2006;" horiz-adv-x="330" />
<glyph unicode="&#x2007;" horiz-adv-x="330" />
<glyph unicode="&#x2008;" horiz-adv-x="248" />
<glyph unicode="&#x2009;" horiz-adv-x="397" />
<glyph unicode="&#x200a;" horiz-adv-x="110" />
<glyph unicode="&#x2010;" horiz-adv-x="829" d="M76 436v135h678v-135h-678zM76 600v129h678v-129h-678z" />
<glyph unicode="&#x2011;" horiz-adv-x="829" d="M76 436v135h678v-135h-678zM76 600v129h678v-129h-678z" />
<glyph unicode="&#x2012;" horiz-adv-x="829" d="M76 436v135h678v-135h-678zM76 600v129h678v-129h-678z" />
<glyph unicode="&#x2013;" horiz-adv-x="1177" d="M78 436v131h1024v-131h-1024zM78 596v133h1024v-133h-1024z" />
<glyph unicode="&#x2014;" horiz-adv-x="1513" d="M78 436v131h1358v-131h-1358zM78 596v133h1358v-133h-1358z" />
<glyph unicode="&#x2018;" horiz-adv-x="411" d="M39 1452l131 27l76 -408l-96 -12zM205 1485l119 24l49 -419l-103 -15z" />
<glyph unicode="&#x2019;" horiz-adv-x="413" d="M57 1090l49 419l117 -24l-65 -410zM184 1071l74 408l133 -27l-110 -393z" />
<glyph unicode="&#x201a;" horiz-adv-x="411" d="M63 -111l39 422l123 -26l-67 -408zM188 -127l76 403l121 -24l-98 -393z" />
<glyph unicode="&#x201c;" horiz-adv-x="776" d="M55 1452l131 27l76 -408l-96 -12zM221 1485l119 24l49 -419l-102 -15zM401 1452l131 27l76 -408l-96 -12zM567 1485l119 24l49 -419l-102 -15z" />
<glyph unicode="&#x201d;" horiz-adv-x="778" d="M57 1090l49 419l117 -24l-65 -410zM184 1071l74 408l133 -27l-110 -393zM399 1090l50 419l116 -24l-65 -410zM526 1071l74 408l133 -27l-110 -393z" />
<glyph unicode="&#x201e;" horiz-adv-x="759" d="M63 -111l39 422l123 -26l-67 -408zM188 -127l76 403l121 -24l-98 -393zM389 -111l39 422l123 -26l-68 -408zM514 -127l76 403l121 -24l-99 -393z" />
<glyph unicode="&#x2022;" horiz-adv-x="645" d="M57 606q0 110 78.5 188t188.5 78t187 -78t77 -188t-77 -187t-187 -77q-111 0 -189 77t-78 187zM219 610q0 -43 31 -73.5t74 -30.5q42 0 73 31t31 73q0 41 -31.5 73t-72.5 32q-42 0 -73.5 -31.5t-31.5 -73.5z" />
<glyph unicode="&#x2026;" horiz-adv-x="1404" d="M78 141q0 61 44.5 105.5t104.5 44.5q61 0 105.5 -44.5t44.5 -105.5q0 -60 -44.5 -104.5t-105.5 -44.5q-60 0 -104.5 44.5t-44.5 104.5zM205 141q0 -10 6.5 -17t15.5 -7q11 0 19 7t8 17t-8 17.5t-19 7.5q-9 0 -15.5 -7.5t-6.5 -17.5zM551 141q0 61 44.5 105.5t104.5 44.5 q62 0 106 -44.5t44 -105.5q0 -60 -44.5 -104.5t-105.5 -44.5q-60 0 -104.5 44.5t-44.5 104.5zM678 141q0 -10 6.5 -17t15.5 -7q11 0 19 7t8 17t-8 17.5t-19 7.5q-9 0 -15.5 -7.5t-6.5 -17.5zM1028 141q0 61 45 105.5t105 44.5q61 0 105 -44t44 -106q0 -60 -44 -104.5 t-105 -44.5q-60 0 -105 44.5t-45 104.5zM1155 141q0 -10 7 -17t16 -7q11 0 18.5 7t7.5 17t-7.5 17.5t-18.5 7.5q-9 0 -16 -7.5t-7 -17.5z" />
<glyph unicode="&#x202f;" horiz-adv-x="397" />
<glyph unicode="&#x2039;" horiz-adv-x="579" d="M23 551l280 450l105 -83l-230 -357l217 -377l-106 -73zM213 561l215 340l104 -80l-180 -268q171 -251 185 -272l-117 -80z" />
<glyph unicode="&#x203a;" horiz-adv-x="583" d="M23 281q35 53 184 272l-180 268l102 80l217 -340l-207 -360zM150 918l106 83l281 -450l-267 -440l-108 73l219 377z" />
<glyph unicode="&#x205f;" horiz-adv-x="496" />
<glyph unicode="&#x20ac;" horiz-adv-x="1181" d="M49 455v118h268v-81q0 -159 98 -257t259 -98q310 0 352 248h129q-2 -87 -29.5 -157t-83 -125.5t-148.5 -86t-218 -30.5q-131 0 -246 63t-188 172t-84 238zM49 604v113h107v65h-107v119h268v-297h-268zM49 932v115h109q9 87 46.5 168.5t100.5 149t159.5 108t211.5 40.5 q210 0 332 -113.5t127 -295.5h-121q-16 115 -104.5 190.5t-237.5 75.5q-90 0 -161 -30t-111.5 -78t-61.5 -102t-21 -109v-119h-268zM350 500v73h490v-120h-330q0 -47 51 -83t115 -36q52 0 85 7.5t45 16t28 25.5l6 2h157q-20 -104 -101 -159.5t-218 -55.5q-145 0 -236.5 85 t-91.5 245zM350 604v297h490v-121h-334v-61h334v-115h-490zM350 932v121q0 49 18.5 97t55.5 91t102.5 69.5t149.5 26.5q136 0 215.5 -68.5t91.5 -164.5h-139q-28 30 -44 39q-40 22 -124 22q-64 0 -115 -35.5t-51 -82.5h330v-115h-490z" />
<glyph unicode="&#x2122;" horiz-adv-x="1411" d="M16 1358v90h240v-680h-80v590h-160zM16 1462v74h504v-74h-504zM272 768v680h248v-90h-166v-590h-82zM578 766v770h84v-770h-84zM676 766v770h22l258 -711h13l266 711h22v-770h-79v424q-10 -27 -41.5 -118t-49.5 -140l-57 -166h-137l-135 422v-422h-82zM713 1536h80 l170 -483l174 483h82l-256 -688zM1272 766v770h84v-770h-84z" />
<glyph unicode="&#xe000;" horiz-adv-x="1024" d="M0 0v1024h1024v-1024h-1024z" />
<glyph unicode="&#xfb01;" horiz-adv-x="1243" d="M45 717v153h260v-870h-145v717h-115zM45 901v123h115v84q0 156 77 241t222 85h215v-136h-193q-88 0 -132 -53.5t-44 -146.5v-197h-260zM336 0v870h395v-153h-237v-717h-158zM336 901v197q0 81 37.5 126.5t107.5 45.5h193v-135h-109q-71 0 -71 -66v-45h237v-123h-395z M854 0v1024h152v-1024h-152zM854 1231q0 68 49.5 118t118.5 50q68 0 118 -50.5t50 -117.5q0 -69 -50 -118.5t-118 -49.5q-69 0 -118.5 49.5t-49.5 118.5zM997 1231q0 -12 8.5 -20.5t20.5 -8.5q11 0 20 8.5t9 20.5t-9 20.5t-20 8.5q-12 0 -20.5 -8.5t-8.5 -20.5zM1034 0v1024 h154v-1024h-154z" />
<glyph unicode="&#xfb02;" horiz-adv-x="1247" d="M45 717v153h260v-870h-145v717h-115zM45 901v123h115v84q0 156 77 241t222 85h215v-136h-193q-88 0 -132 -53.5t-44 -146.5v-197h-260zM336 0v870h395v-153h-237v-717h-158zM336 901v197q0 81 37.5 126.5t107.5 45.5h193v-135h-109q-71 0 -71 -66v-45h237v-123h-395z M838 0v1434h149v-1434h-149zM1016 0v1434h155v-1434h-155z" />
</font>
</defs>
</svg>
