<?xml version="1.0" standalone="no"?>
<!DOCTYPE svg PUBLIC "-//W3C//DTD SVG 1.1//EN" "http://www.w3.org/Graphics/SVG/1.1/DTD/svg11.dtd" >
<svg xmlns="http://www.w3.org/2000/svg">
<metadata></metadata>
<defs>
<font id="nanamithin" horiz-adv-x="1228" >
<font-face units-per-em="2048" ascent="1536" descent="-512" />
<missing-glyph horiz-adv-x="593" />
<glyph horiz-adv-x="2048" />
<glyph horiz-adv-x="2048" />
<glyph unicode="&#xd;" horiz-adv-x="2048" />
<glyph unicode=" "  horiz-adv-x="593" />
<glyph unicode="&#x09;" horiz-adv-x="593" />
<glyph unicode="&#xa0;" horiz-adv-x="593" />
<glyph unicode="!" horiz-adv-x="251" d="M80 39q0 19 13.5 32t33.5 13q19 0 32 -13t13 -32q0 -20 -13 -33.5t-32 -13.5q-20 0 -33.5 13.5t-13.5 33.5zM94 152v1386h66v-1386h-66z" />
<glyph unicode="&#x22;" horiz-adv-x="485" d="M109 942v596h65v-596h-65zM315 942v596h66v-596h-66z" />
<glyph unicode="#" horiz-adv-x="1312" d="M59 471v66h322l53 405h-309v66h324l61 473h63q0 -45 -59 -473h367l61 473l62 2l-9 -74q-2 -17 -8.5 -76.5t-16.5 -143.5t-24 -181h309v-66h-321l-55 -405h309v-66h-322l-63 -471h-64v8l62 463h-371l-63 -471l-60 -2l60 473h-308zM446 537h367l55 405h-368z" />
<glyph unicode="$" horiz-adv-x="888" d="M61 1165q0 142 98 252.5t240 130.5v166h66v-162q98 -5 184 -56t135 -136l-59 -27q-37 69 -111.5 111.5t-160.5 42.5q-127 0 -227.5 -94.5t-100.5 -216.5q0 -182 166 -287q47 -29 170 -79.5t166 -74.5q204 -117 204 -350q0 -155 -106.5 -271t-259.5 -128v-176h-66v176 q-77 4 -140 28.5t-101.5 61t-60.5 73.5t-29 72l63 8q31 -81 114 -130.5t187 -49.5q135 0 234.5 101.5t99.5 236.5q0 134 -83 218t-263 153q-80 31 -136.5 62t-111 78.5t-83 114.5t-28.5 152z" />
<glyph unicode="%" horiz-adv-x="1804" d="M76 1167q0 154 107 261.5t261 107.5t261.5 -107.5t107.5 -261.5t-107.5 -261t-261.5 -107t-261 107t-107 261zM139 1167q0 -127 88.5 -216t216.5 -89q127 0 215.5 88.5t88.5 216.5q0 127 -88 215t-216 88t-216.5 -88t-88.5 -215zM446 20l834 1526l59 -33l-833 -1525z M991 367q0 154 107.5 261t261.5 107t261.5 -107t107.5 -261t-107.5 -261.5t-261.5 -107.5t-261.5 107.5t-107.5 261.5zM1055 367q0 -128 89 -217t216 -89t215 89t88 217q0 127 -87.5 215t-215.5 88t-216.5 -88t-88.5 -215z" />
<glyph unicode="&#x26;" horiz-adv-x="1411" d="M86 424q0 268 320 446q-39 32 -55.5 45.5t-52 51t-52.5 68t-32 78t-15 99.5q0 140 98.5 239t237.5 99q138 0 227.5 -87.5t89.5 -213.5q0 -67 -17.5 -122.5t-45.5 -95t-72.5 -73.5t-88.5 -57t-104 -47l437 -420l260 477l57 -32l-260 -471l-10 -21l18 -18l336 -332l-41 -43 q-4 0 -16 10t-48.5 45.5t-100.5 100.5t-177 180l-55 -101q-72 -134 -165 -190.5t-231 -56.5q-183 0 -312.5 129.5t-129.5 312.5zM152 424q0 -155 110.5 -266t265.5 -111q102 0 187 48.5t141 150.5l74 131q-304 304 -471 448q-66 -34 -116 -69.5t-96 -84t-70.5 -111 t-24.5 -136.5zM264 1212q0 -43 14.5 -84.5t33 -70.5t51.5 -62.5t52 -49.5t52 -42q169 57 244 135.5t75 210.5q0 101 -70 168.5t-181 67.5t-191 -80.5t-80 -192.5z" />
<glyph unicode="'" horiz-adv-x="266" d="M109 942v596h65v-596h-65z" />
<glyph unicode="(" horiz-adv-x="444" d="M82 317v809q0 321 237 508l54 -39q-120 -106 -173 -206.5t-53 -235.5v-862q0 -135 53 -236t173 -207l-54 -38q-237 187 -237 507z" />
<glyph unicode=")" horiz-adv-x="442" d="M82 -152q118 108 171.5 208.5t53.5 234.5v862q0 134 -53.5 234t-171.5 208l53 39q238 -188 238 -508v-809q0 -319 -238 -507z" />
<glyph unicode="*" horiz-adv-x="880" d="M53 1059v63l338 -12l-241 225l47 45l223 -239l-12 338h65l-12 -340l225 241l43 -45l-240 -225l338 12v-63l-338 10l242 -223l-47 -45l-223 239l12 -338h-65l12 338l-225 -239l-43 45l239 223z" />
<glyph unicode="+" horiz-adv-x="950" d="M35 494v65h407v408h66v-408h407v-65h-407v-408h-66v408h-407z" />
<glyph unicode="," horiz-adv-x="212" d="M37 231l76 13l6 -398l-17 -2l-10 62l-22 133z" />
<glyph unicode="-" horiz-adv-x="806" d="M106 580v65h596v-65h-596z" />
<glyph unicode="." horiz-adv-x="237" d="M80 33q0 17 12 29t29 12t29 -12t12 -29t-12 -29t-29 -12t-29 12t-12 29z" />
<glyph unicode="/" horiz-adv-x="571" d="M31 10l450 1532l64 -14l-449 -1536z" />
<glyph unicode="0" d="M164 432v672q0 86 35.5 167t95 142t144 98t177.5 37q118 0 221.5 -60.5t164.5 -163t61 -220.5v-672q0 -118 -61 -220.5t-164.5 -163t-221.5 -60.5q-93 0 -177.5 37t-144 98t-95 142t-35.5 167zM231 428q0 -149 115 -264t270 -115q154 0 266.5 111.5t112.5 267.5v676 q0 155 -112.5 267t-266.5 112q-106 0 -195 -53.5t-139.5 -140.5t-50.5 -185v-676z" />
<glyph unicode="1" d="M446 1470v66h330v-1536h-65v1470h-265z" />
<glyph unicode="2" d="M184 57l672 666q87 85 142 183t55 190q0 166 -113 275.5t-281 109.5q-155 0 -265 -97t-138 -247l-57 32q28 159 156.5 268t303.5 109q196 0 327.5 -128t131.5 -322q0 -209 -223 -428l-608 -602h829v-66h-923z" />
<glyph unicode="3" d="M195 160l32 57q75 -77 178.5 -122.5t202.5 -45.5q105 0 188 35t133 94t75.5 131t25.5 152q0 63 -28 125.5t-79 116t-134.5 88t-184.5 38.5h-160v58h156q149 0 245.5 87.5t96.5 209.5q0 59 -22 113.5t-64.5 98.5t-112.5 70.5t-159 26.5q-78 0 -165.5 -44t-148.5 -114 l-30 56q72 72 164 116.5t188 44.5q187 0 300.5 -107t113.5 -259q0 -95 -54.5 -176.5t-126.5 -118.5q-14 -7 -28.5 -13t-20.5 -8.5t-6 -3.5t15 -6t38.5 -15t40.5 -20q113 -66 172.5 -161t59.5 -209q0 -129 -57.5 -235t-168 -169t-254.5 -63q-123 0 -232.5 48.5t-188.5 123.5z " />
<glyph unicode="4" d="M123 401l719 1135h49v-1120h219v-66h-219v-350h-66v350h-700zM211 416h614v977z" />
<glyph unicode="5" d="M168 211l37 61q67 -103 169.5 -163t227.5 -60q190 0 321.5 131t131.5 320q0 190 -121.5 311t-312.5 121q-100 0 -193.5 -36t-153.5 -101l-55 24l123 717h649v-66h-565q-17 0 -23.5 -6.5t-9.5 -21.5l-92 -541q62 46 147 71t173 25q215 0 357 -141t142 -356 q0 -142 -65 -260t-183 -187t-264 -69q-135 0 -251 62.5t-189 164.5z" />
<glyph unicode="6" d="M88 508q0 193 113 334l487 706l55 -37l-366 -530q116 53 237 53q143 0 264 -69.5t191 -190.5t70 -266q0 -147 -69 -267.5t-189 -188.5t-267 -68q-226 0 -376 150t-150 374zM154 508q0 -196 132.5 -327.5t327.5 -131.5q193 0 326 132t133 327q0 126 -61.5 232t-167 167.5 t-230.5 61.5q-195 0 -327.5 -133t-132.5 -328z" />
<glyph unicode="7" d="M205 1470v66h811l10 -35l-686 -1515l-61 26l657 1458h-731z" />
<glyph unicode="8" d="M172 426q0 138 77.5 251t201.5 163q-94 45 -150.5 135.5t-56.5 206.5q0 152 106.5 261t259.5 109t260 -109t107 -261q0 -116 -56.5 -205.5t-152.5 -134.5q128 -50 207.5 -163.5t79.5 -252.5q0 -183 -129.5 -312.5t-315.5 -129.5q-184 0 -311 129t-127 313zM238 426 q0 -156 108.5 -266.5t263.5 -110.5q158 0 268.5 110.5t110.5 266.5t-110.5 267.5t-268.5 111.5q-155 0 -263.5 -111.5t-108.5 -267.5zM309 1182q0 -131 87 -220.5t214 -89.5t214 89.5t87 220.5q0 124 -88 214.5t-213 90.5t-213 -90.5t-88 -214.5z" />
<glyph unicode="9" d="M88 1024q0 224 150.5 374t373.5 150q226 0 376.5 -150t150.5 -374q0 -193 -113 -334l-483 -708l-56 36l363 533q-116 -53 -238 -53q-143 0 -263.5 69.5t-190.5 190.5t-70 266zM154 1024q0 -126 61 -232t166.5 -167.5t230.5 -61.5q195 0 328 133t133 328 q0 196 -132.5 327.5t-328.5 131.5q-193 0 -325.5 -131.5t-132.5 -327.5z" />
<glyph unicode=":" horiz-adv-x="141" d="M29 33q0 17 12 29t29 12t29 -12t12 -29t-12 -29t-29 -12t-29 12t-12 29zM29 834q0 17 12 28.5t29 11.5t29 -11.5t12 -28.5t-12 -29t-29 -12t-29 12t-12 29z" />
<glyph unicode=";" horiz-adv-x="161" d="M35 834q0 17 12 28.5t29 11.5t29 -11.5t12 -28.5t-12 -29t-29 -12t-29 12t-12 29zM37 231l76 13l6 -398l-17 -2l-10 62l-22 133z" />
<glyph unicode="&#x3c;" horiz-adv-x="1263" d="M45 483v66l1077 446l27 -59l-999 -420l999 -418l-27 -59z" />
<glyph unicode="=" horiz-adv-x="1095" d="M104 371v65h889v-65h-889zM104 582v65h889v-65h-889z" />
<glyph unicode="&#x3e;" horiz-adv-x="1263" d="M45 98l999 418l-999 420l27 59l1077 -446v-66l-1077 -444z" />
<glyph unicode="?" horiz-adv-x="864" d="M51 1235q30 133 134.5 221t244.5 88q161 0 275 -114t114 -275q0 -76 -29 -143t-75.5 -118t-102.5 -99t-112 -92.5t-102.5 -90t-75.5 -102.5t-29 -119q0 -65 40.5 -110.5t104.5 -53.5l-16 -65q-86 12 -140.5 76.5t-54.5 152.5q0 69 29 131.5t75.5 111t102.5 95t112.5 93 t103 95t75.5 109.5t29 129q0 133 -95 228.5t-229 95.5q-116 0 -203 -73t-112 -185zM334 33q0 17 12 29t29 12t29 -12t12 -29t-12 -29t-29 -12t-29 12t-12 29z" />
<glyph unicode="@" horiz-adv-x="1746" d="M82 719q0 114 42 233.5t120.5 226t181.5 191.5t235 134.5t271 49.5q134 0 268 -41q138 -42 236 -116q231 -175 231 -463q0 -283 -217 -475q-129 -99 -264 -99q-86 0 -134 48.5t-48 128.5q-34 -44 -63 -73.5t-44.5 -40.5t-40.5 -26q-64 -37 -137 -37q-90 0 -163 78 t-73 209q0 214 121 350q119 138 246 138q84 0 135 -30t90 -114l64 127l41 -12l-127 -504q-6 -24 -6 -49q0 -58 36.5 -92.5t106.5 -34.5q73 0 140 32.5t115.5 85.5t84.5 119.5t54 137t18 135.5q0 154 -87 280.5t-241.5 199.5t-343.5 73q-149 0 -293 -67t-250 -175 t-172 -250.5t-68 -287.5v-11q0 -128 53 -246.5t144 -207.5t222 -142t278 -53q288 0 563 182l37 -49q-260 -198 -582 -198h-8q-216 0 -391.5 92t-278 260.5t-102.5 382.5zM551 662q0 -112 49 -177t150 -65q70 0 157 80q72 66 97 172l38 149q9 35 9 66q0 64 -39 114 q-27 33 -64 54.5t-76 21.5q-125 0 -223 -123t-98 -292z" />
<glyph unicode="A" horiz-adv-x="1210" d="M49 0l529 1536h53l528 -1536h-67l-140 403h-694l-137 -403h-72zM281 469h649l-326 944z" />
<glyph unicode="B" horiz-adv-x="958" d="M109 0v1536h256q169 0 288 -119.5t119 -288.5q0 -111 -54 -203t-147 -147q135 -28 225.5 -136t90.5 -249q0 -164 -114.5 -278.5t-278.5 -114.5h-385zM174 66h320q136 0 231.5 95t95.5 232t-95.5 233.5t-231.5 96.5h-320v-657zM174 788h191q142 0 242 99.5t100 240.5 q0 142 -99.5 242t-242.5 100h-191v-682z" />
<glyph unicode="C" horiz-adv-x="1509" d="M80 768q0 160 62 305t167 250t250 167t305 62q161 0 304 -59.5t251 -167.5l-47 -47q-100 100 -230.5 154.5t-277.5 54.5q-117 0 -226.5 -36t-198 -102.5t-155 -154.5t-103 -198t-36.5 -228q0 -116 36.5 -226t103 -198.5t155 -155t198.5 -103t226 -36.5q145 0 275.5 55 t230.5 154l47 -47q-108 -108 -250 -167.5t-303 -59.5q-160 0 -305 62t-250 167t-167 250t-62 305z" />
<glyph unicode="D" horiz-adv-x="1286" d="M109 0v1536h333q157 0 299.5 -60.5t245 -163t163 -245t60.5 -299.5t-60.5 -299.5t-163 -245t-245 -163t-299.5 -60.5h-333zM174 66h268q190 0 352 94.5t256.5 256.5t94.5 351q0 190 -94.5 352t-256.5 256t-352 94h-268v-1404z" />
<glyph unicode="E" horiz-adv-x="901" d="M109 0v1536h706v-66h-641v-614h641v-65h-641v-725h641v-66h-706z" />
<glyph unicode="F" horiz-adv-x="905" d="M109 0v1536h710v-66h-645v-614h645v-65h-645v-791h-65z" />
<glyph unicode="G" horiz-adv-x="1671" d="M82 768q0 160 62 305t167 250t250 167t305 62q164 0 308 -61t251 -172l-47 -49q-214 217 -512 217q-117 0 -226.5 -36t-198 -102.5t-155 -154.5t-103 -198t-36.5 -228q0 -116 36.5 -226t103 -198.5t155 -155t198.5 -103t226 -36.5q195 0 346 84.5t224 208.5v340h-602v66 h669v-424q-94 -150 -254 -245t-383 -95q-160 0 -305 62t-250 167t-167 250t-62 305z" />
<glyph unicode="H" horiz-adv-x="1105" d="M106 0v1536h66v-735h764v735h65v-1536h-65v735h-764v-735h-66z" />
<glyph unicode="I" horiz-adv-x="262" d="M106 0v1536h66v-1536h-66z" />
<glyph unicode="J" horiz-adv-x="811" d="M33 285h65q12 -99 90.5 -167.5t180.5 -68.5q111 0 193.5 80t82.5 190v1217h66v-1212q0 -140 -101 -240t-241 -100q-130 0 -227 86.5t-109 214.5z" />
<glyph unicode="K" horiz-adv-x="774" d="M106 0v1536h66v-709l465 711l82 -2l-514 -776l500 -760h-80l-453 692v-692h-66z" />
<glyph unicode="L" horiz-adv-x="843" d="M106 0v1536h66v-1470h641v-66h-707z" />
<glyph unicode="M" horiz-adv-x="1468" d="M104 0v1536h58l571 -1421l574 1421h57v-1536h-66v1358l-540 -1358h-47l-541 1358v-1358h-66z" />
<glyph unicode="N" horiz-adv-x="1230" d="M104 0v1536h58l901 -1401v1401h65v-1536h-57l-901 1401v-1401h-66z" />
<glyph unicode="O" horiz-adv-x="1732" d="M82 768q0 160 62 305t167 250t250 167t305 62t305.5 -62t250.5 -167t167 -250t62 -305t-62 -305t-167 -250t-250.5 -167t-305.5 -62t-305 62t-250 167t-167 250t-62 305zM147 768q0 -116 36.5 -226t103 -198.5t155 -155t198.5 -103t226 -36.5q118 0 228 36.5t198 103 t154.5 155t102.5 198t36 226.5q0 196 -96 361.5t-261.5 261.5t-361.5 96q-117 0 -226.5 -36t-198 -102.5t-155 -154.5t-103 -198t-36.5 -228z" />
<glyph unicode="P" horiz-adv-x="802" d="M104 0v1536h256q169 0 288.5 -119.5t119.5 -288.5q0 -167 -119.5 -286t-288.5 -119h-190v-723h-66zM170 788h190q142 0 242 99.5t100 240.5q0 142 -100 242t-242 100h-190v-682z" />
<glyph unicode="Q" horiz-adv-x="1734" d="M82 768q0 160 62 305t167 250t250 167t305 62t305.5 -62t250.5 -167t167 -250t62 -305q0 -185 -79 -343.5t-218 -270.5l108 -117l-49 -45l-113 123q-195 -131 -434 -131q-160 0 -305 62t-250 167t-167 250t-62 305zM147 768q0 -116 36.5 -226t103 -198.5t155 -155 t198.5 -103t226 -36.5q210 0 387 113l-266 278l49 45l273 -284q130 101 203 248.5t73 318.5q0 196 -96 361.5t-261.5 261.5t-361.5 96q-117 0 -226.5 -36t-198 -102.5t-155 -154.5t-103 -198t-36.5 -228z" />
<glyph unicode="R" horiz-adv-x="946" d="M104 0v1536h297q180 0 294 -119t114 -291q0 -147 -81 -256.5t-218 -152.5l416 -717h-78l-406 702h-272v-702h-66zM170 768h227q148 0 247 101.5t99 256.5q0 146 -94.5 245t-247.5 99h-231v-702z" />
<glyph unicode="S" horiz-adv-x="927" d="M82 1165q0 157 115 272t274 115q100 0 191.5 -52.5t142.5 -139.5l-60 -27q-37 69 -111.5 111.5t-160.5 42.5q-127 0 -227.5 -94.5t-100.5 -216.5q0 -182 166 -287q47 -29 170 -79.5t166 -74.5q205 -117 205 -350q0 -164 -118.5 -282.5t-282.5 -118.5q-84 0 -153.5 24 t-111.5 61.5t-67 76t-31 75.5l64 8q31 -81 114 -130.5t187 -49.5q135 0 234 101.5t99 236.5q0 134 -83 218t-263 153q-62 24 -109 47.5t-96.5 59t-81 76t-51.5 98.5t-20 126z" />
<glyph unicode="T" horiz-adv-x="1052" d="M37 1470v66h979v-66h-459v-1470h-65v1470h-455z" />
<glyph unicode="U" horiz-adv-x="993" d="M98 381v1155h66v-1155q0 -138 98 -236t236 -98q137 0 235 98t98 236v1155h66v-1153q0 -166 -116.5 -282.5t-282.5 -116.5t-283 116t-117 281z" />
<glyph unicode="V" horiz-adv-x="1181" d="M43 1536h74l475 -1419l475 1417l72 2l-521 -1536h-51z" />
<glyph unicode="W" horiz-adv-x="1783" d="M66 1536h69l365 -1395l368 1395h50l366 -1395l363 1393l69 -2l-403 -1532h-58l-364 1389l-361 -1389h-57z" />
<glyph unicode="X" horiz-adv-x="1167" d="M70 0l475 768l-471 770h67l443 -709l446 707h70l-479 -768l477 -768h-76l-438 707l-439 -707h-75z" />
<glyph unicode="Y" horiz-adv-x="954" d="M41 1536h68l368 -897l367 897h71l-405 -975v-561h-66v561z" />
<glyph unicode="Z" horiz-adv-x="1089" d="M41 1470v66h993l2 -59l-907 -1411h915v-66h-989l-2 57l899 1413h-911z" />
<glyph unicode="[" horiz-adv-x="415" d="M100 -301v1960h254v-66h-188v-1829h188v-65h-254z" />
<glyph unicode="\" horiz-adv-x="569" d="M31 1528l63 14l451 -1532l-66 -18z" />
<glyph unicode="]" horiz-adv-x="411" d="M100 -236h189v1829h-189v66h254v-1960h-254v65z" />
<glyph unicode="^" horiz-adv-x="966" d="M59 768l390 760h65l391 -754l-61 -26l-363 679l-358 -679z" />
<glyph unicode="_" horiz-adv-x="1339" d="M0 -135h1339v-66h-1339v66z" />
<glyph unicode="`" horiz-adv-x="524" d="M41 1305l27 59l413 -168l-26 -59z" />
<glyph unicode="a" horiz-adv-x="1232" d="M78 514q0 143 70.5 264t192.5 191.5t267 70.5q147 0 270 -73.5t191 -198.5v256h66v-1024h-66v256q-68 -125 -191 -198.5t-270 -73.5q-145 0 -267 70.5t-192.5 192.5t-70.5 267zM145 514q0 -127 61.5 -233.5t168 -168t233.5 -61.5q192 0 326.5 135t134.5 328 q0 192 -134.5 326.5t-326.5 134.5q-193 0 -328 -134.5t-135 -326.5z" />
<glyph unicode="b" horiz-adv-x="1202" d="M100 0v1434h66v-666q68 125 191 198.5t270 73.5q145 0 267 -70.5t192.5 -191.5t70.5 -264q0 -145 -70.5 -267t-192.5 -192.5t-267 -70.5q-147 0 -270 73.5t-191 198.5v-256h-66zM166 514q0 -193 134.5 -328t326.5 -135q193 0 328 134.5t135 328.5q0 192 -135 326.5 t-328 134.5q-192 0 -326.5 -134.5t-134.5 -326.5z" />
<glyph unicode="c" horiz-adv-x="1144" d="M78 514q0 143 70.5 264t192.5 191.5t267 70.5q146 0 267.5 -71.5t189.5 -194.5l-55 -35q-61 108 -167.5 172t-234.5 64q-193 0 -328 -134.5t-135 -326.5q0 -127 61.5 -233.5t168 -168t233.5 -61.5t234 64t168 170l57 -33q-68 -123 -190.5 -195.5t-268.5 -72.5 q-145 0 -267 70.5t-192.5 192.5t-70.5 267z" />
<glyph unicode="d" horiz-adv-x="1202" d="M45 514q0 143 70.5 264t192.5 191.5t267 70.5q147 0 270 -73.5t191 -198.5v666h66v-1434h-66v256q-68 -125 -191 -198.5t-270 -73.5q-145 0 -267 70.5t-192.5 192.5t-70.5 267zM113 514q0 -194 134.5 -328.5t327.5 -134.5q192 0 326.5 135t134.5 328q0 192 -134.5 326.5 t-326.5 134.5q-193 0 -327.5 -134.5t-134.5 -326.5z" />
<glyph unicode="e" horiz-adv-x="1134" d="M78 514q0 144 68.5 264.5t188.5 191t265 70.5q141 0 251.5 -71t169 -190.5t58.5 -264.5l-2 -37h-932q12 -180 146 -303t317 -123q107 0 204 38.5t167 111.5l35 -58q-169 -159 -406 -159q-145 0 -267 70.5t-192.5 192.5t-70.5 267zM145 543h869q-12 187 -123 309.5 t-291 122.5q-186 0 -314.5 -124.5t-140.5 -307.5z" />
<glyph unicode="f" horiz-adv-x="585" d="M47 958v66h156v236q0 82 45 128t119 46h112v-66h-112q-46 0 -72.5 -28.5t-26.5 -79.5v-236h271v-66h-271v-958h-65v958h-156z" />
<glyph unicode="g" horiz-adv-x="1222" d="M74 510q0 145 70.5 267t192.5 192.5t267 70.5q147 0 270 -73.5t191 -198.5v256h65v-702v-145q0 -187 -2 -187q-8 -133 -78.5 -244.5t-186 -176.5t-249.5 -65q-131 0 -243.5 60.5t-182.5 165.5l52 41q60 -93 159 -146t215 -53q185 0 318 131.5t133 316.5v236 q-68 -125 -191 -198.5t-270 -73.5q-145 0 -267 70.5t-192.5 191.5t-70.5 264zM141 510q0 -192 135 -326.5t328 -134.5q192 0 326.5 134.5t134.5 326.5q0 193 -134.5 328t-326.5 135q-127 0 -233.5 -61.5t-168 -168t-61.5 -233.5z" />
<glyph unicode="h" horiz-adv-x="942" d="M100 0v1434h66v-572q56 82 142 130t188 48q163 0 279 -114.5t116 -276.5v-649h-66v653q0 134 -96.5 228t-232.5 94t-233 -92.5t-97 -225.5v-657h-66z" />
<glyph unicode="i" horiz-adv-x="225" d="M66 1194q0 19 13.5 32t33.5 13q19 0 32 -13t13 -32q0 -20 -13 -33.5t-32 -13.5q-20 0 -33.5 13.5t-13.5 33.5zM80 0v1026h65v-1026h-65z" />
<glyph unicode="j" horiz-adv-x="380" d="M39 -463l47 47q19 -16 49 -16q35 0 61.5 26.5t26.5 61.5v1370h66v-1374q0 -59 -48 -104.5t-106 -45.5q-55 0 -96 35zM209 1194q0 19 13.5 32t33.5 13q19 0 32 -13t13 -32q0 -20 -13 -33.5t-32 -13.5q-20 0 -33.5 13.5t-13.5 33.5z" />
<glyph unicode="k" horiz-adv-x="593" d="M100 0v1434h66v-836l2 -6l309 432h76l-344 -489l375 -535h-82l-336 477v-477h-66z" />
<glyph unicode="l" horiz-adv-x="251" d="M100 0v1434h66v-1434h-66z" />
<glyph unicode="m" horiz-adv-x="1714" d="M100 0v1024h66v-162q56 82 142 130t188 48q121 0 217.5 -64.5t144.5 -170.5q48 106 145 170.5t218 64.5q163 0 280 -116t117 -281v-643h-66v643q0 136 -98 233t-233 97q-133 0 -229 -93t-101 -225v-655h-66v653q0 134 -96.5 228t-232.5 94t-233 -92.5t-97 -225.5v-657 h-66z" />
<glyph unicode="n" horiz-adv-x="983" d="M100 0v1024l66 -2v-160q56 82 142 130t188 48q163 0 279 -114.5t116 -276.5v-649h-66v653q0 134 -96.5 228t-232.5 94t-233 -92.5t-97 -225.5v-657h-66z" />
<glyph unicode="o" horiz-adv-x="1212" d="M78 514q0 143 70.5 264t192.5 191.5t267 70.5q143 0 264.5 -70.5t192 -191.5t70.5 -264q0 -145 -70.5 -267t-192 -192.5t-264.5 -70.5q-145 0 -267 70.5t-192.5 192.5t-70.5 267zM145 514q0 -127 61.5 -233.5t168 -168t233.5 -61.5q192 0 326.5 135t134.5 328 q0 192 -134.5 326.5t-326.5 134.5q-193 0 -328 -134.5t-135 -326.5z" />
<glyph unicode="p" horiz-adv-x="1202" d="M100 -418v1442h66v-256q68 125 191 198.5t270 73.5q145 0 267 -70.5t192.5 -192.5t70.5 -267q0 -143 -70.5 -264t-192.5 -191.5t-267 -70.5q-147 0 -270 73.5t-191 198.5v-674h-66zM166 510q0 -192 134.5 -326.5t326.5 -134.5q193 0 328 134.5t135 326.5 q0 194 -135 328.5t-328 134.5q-192 0 -326.5 -135t-134.5 -328z" />
<glyph unicode="q" horiz-adv-x="1202" d="M100 510q0 145 70.5 267t193 192.5t267.5 70.5q147 0 270 -73.5t191 -198.5v256h65v-1442h-65v674q-68 -125 -191 -198.5t-270 -73.5q-145 0 -267.5 70.5t-193 191.5t-70.5 264zM168 510q0 -192 135 -326.5t328 -134.5q192 0 326.5 134.5t134.5 326.5q0 193 -134.5 328 t-326.5 135q-193 0 -328 -134.5t-135 -328.5z" />
<glyph unicode="r" horiz-adv-x="618" d="M100 0v1024l66 -8v-154q55 81 141.5 127.5t188.5 46.5q73 0 88 -4l-9 -65q-36 4 -79 4q-137 0 -233.5 -90.5t-96.5 -223.5v-657h-66z" />
<glyph unicode="s" horiz-adv-x="667" d="M80 117l65 26q64 -94 179 -94q86 0 142 58.5t56 136.5q0 88 -44.5 138.5t-174.5 127.5q-126 66 -171.5 125t-45.5 149q0 104 79.5 180t182.5 76q67 0 130.5 -33t96.5 -87l-65 -31q-65 86 -170 86q-69 0 -128.5 -57t-59.5 -148q0 -63 42 -105t195 -135q111 -64 155 -130 t44 -158q0 -113 -76.5 -185.5t-194.5 -72.5q-81 0 -141.5 42.5t-95.5 90.5z" />
<glyph unicode="t" horiz-adv-x="710" d="M35 958v66h289v287h65v-287h287v-66h-287v-958h-65v958h-289z" />
<glyph unicode="u" horiz-adv-x="980" d="M92 375v649h66v-653q0 -134 96.5 -228t232.5 -94t233 92.5t97 225.5v657h66v-1024h-66v162q-56 -82 -142 -130t-188 -48q-164 0 -279.5 114t-115.5 277z" />
<glyph unicode="v" horiz-adv-x="837" d="M45 1024h72l303 -907l303 909l70 -2l-347 -1024h-53z" />
<glyph unicode="w" horiz-adv-x="1517" d="M68 1024h69l297 -897l301 897h49l301 -897l299 897h70l-340 -1024h-53l-301 899l-303 -899h-49z" />
<glyph unicode="x" horiz-adv-x="858" d="M68 0l321 512l-321 512h77l283 -449l283 447h73l-315 -510l322 -512h-78l-285 449l-283 -449h-77z" />
<glyph unicode="y" horiz-adv-x="892" d="M49 1024h78l328 -920l327 920h78l-520 -1446h-76l154 424z" />
<glyph unicode="z" horiz-adv-x="829" d="M59 0v53l619 905h-612v66h704v-53l-618 -905h614v-66h-707z" />
<glyph unicode="{" horiz-adv-x="614" d="M55 647v98q53 2 90.5 27t58 70.5t29.5 100t9 126.5v260q0 90 17 163t60.5 124t108.5 51h141v-65h-137q-45 0 -75 -39.5t-41 -89.5t-11 -105v-385q0 -135 -50 -209.5t-134 -77.5q84 -5 135 -79t51 -207v-385q0 -55 10.5 -105t40 -89.5t74.5 -39.5h137v-65h-141 q-49 0 -86.5 28t-58.5 77t-31 107t-10 125v261q0 97 -15.5 164t-58 111.5t-113.5 47.5z" />
<glyph unicode="|" horiz-adv-x="251" d="M100 -25v1602h66v-1602h-66z" />
<glyph unicode="}" horiz-adv-x="614" d="M55 -209h138q45 0 74.5 39.5t39.5 89t10 105.5v385q0 133 51.5 207t135.5 79q-84 3 -134.5 77.5t-50.5 209.5v385q0 55 -10.5 105t-40.5 89.5t-75 39.5h-138v65h142q65 0 108.5 -51t60.5 -124t17 -163v-260q0 -72 8.5 -126.5t29 -100t58 -70.5t90.5 -27v-98 q-53 -2 -90.5 -27t-58 -70t-29 -99.5t-8.5 -126.5v-261q0 -67 -10 -125t-31 -107t-58.5 -77t-86.5 -28h-142v65z" />
<glyph unicode="~" horiz-adv-x="1191" d="M86 444q0 18 14.5 46t42 59.5t80 53.5t117.5 22h27q51 -2 119 -26.5t123.5 -52.5t119.5 -52.5t107 -26.5h8q71 2 128.5 37t80.5 96l51 -20q0 -10 -5.5 -27.5t-22 -43.5t-41.5 -48.5t-70 -40t-101 -19.5h-16q-52 0 -121 23.5t-125.5 52t-122.5 54t-110 28.5h-29 q-32 0 -59 -5t-47 -15.5t-33.5 -19t-25.5 -25t-17.5 -24t-13.5 -24.5t-9 -18z" />
<glyph unicode="&#xa1;" horiz-adv-x="251" d="M80 1491q0 20 13.5 33.5t33.5 13.5q19 0 32 -13.5t13 -33.5q0 -19 -13 -32t-32 -13q-20 0 -33.5 13t-13.5 32zM94 -8v1386h66v-1386h-66z" />
<glyph unicode="&#xa2;" horiz-adv-x="1103" d="M59 514q0 136 64.5 252t177 188.5t248.5 83.5v181h65v-181q139 -6 252.5 -76.5t180.5 -187.5l-56 -35q-56 104 -155.5 166t-221.5 68v-922q121 6 220 69t157 165l58 -33q-67 -118 -181.5 -189t-253.5 -77v-164h-65v164q-209 17 -349.5 166t-140.5 362zM127 514 q0 -184 120.5 -315t301.5 -148v922q-180 -17 -301 -148t-121 -311z" />
<glyph unicode="&#xa3;" horiz-adv-x="1185" d="M98 770v66h113q-32 59 -45.5 110t-13.5 121q0 132 64.5 243.5t175.5 176.5t243 65q124 0 230.5 -60.5t174.5 -162.5l-57 -31q-62 88 -152 138.5t-196 50.5q-112 0 -208.5 -57t-153 -153.5t-56.5 -209.5q0 -68 17 -118.5t55 -112.5h518v-66h-479l10 -12q168 -220 168 -377 q0 -98 -45.5 -180.5t-124.5 -134.5h385q134 0 230 95t96 228h65q0 -160 -113.5 -274.5t-275.5 -114.5h-623v66h33q128 5 217.5 96.5t89.5 218.5q0 43 -15.5 93t-42.5 98.5t-48.5 82t-50.5 72.5t-31 43h-154z" />
<glyph unicode="&#xa4;" horiz-adv-x="1245" d="M90 1194q0 13 10 23q8 8 23 8q16 0 24 -8l170 -170q132 116 306 116q175 0 309 -121l168 168q9 9 24 9q14 0 23 -9q8 -8 8 -22q0 -17 -8 -25l-170 -170q110 -125 110 -299q0 -175 -114 -305l168 -168q8 -8 8 -24q0 -15 -8 -23q-10 -10 -23 -10q-14 0 -24 10l-168 168 q-131 -115 -303 -115q-177 0 -306 113l-165 -166q-17 -10 -25 -10q-13 0 -23 10t-10 23q0 7 10 24l166 166q-114 130 -114 307q0 172 114 305l-170 170q-10 10 -10 25zM221 694q0 -164 119 -282.5t283 -118.5t281.5 118.5t117.5 282.5q0 108 -55 201.5t-147 148t-197 54.5 q-164 0 -283 -120.5t-119 -283.5z" />
<glyph unicode="&#xa5;" horiz-adv-x="1247" d="M55 569v66h508l-94 227h-414v66h385l-250 608h68l369 -897l366 897h72l-254 -608h381v-66h-408l-94 -227h502v-66h-530l-3 -8v-561h-65v561l-4 8h-535z" />
<glyph unicode="&#xa6;" horiz-adv-x="251" d="M100 -25v650h66v-650h-66zM100 928v649h66v-649h-66z" />
<glyph unicode="&#xa7;" horiz-adv-x="1101" d="M70 500q0 36 8.5 66t34 73t81 98.5t142.5 126.5q-73 47 -112.5 98t-47.5 83.5t-8 74.5q0 98 56.5 168.5t141.5 102.5t185 32q121 0 244.5 -44t171.5 -97l-52 -53q-8 8 -25 22t-20 17q-121 90 -290 90q-151 0 -249 -60.5t-98 -183.5q0 -47 42.5 -104t95.5 -92 q44 -30 119.5 -66t145.5 -65t146 -69t132 -79.5t92 -94t36 -114.5q0 -66 -21 -117t-67.5 -93.5t-98 -74t-136.5 -73.5q45 -32 70 -53.5t53 -56t40.5 -76.5t12.5 -97q0 -125 -100.5 -209t-298.5 -84q-150 0 -254 59.5t-136 122.5l52 43q2 -6 8 -12q20 -26 28 -36t39 -36.5 t61 -39t84.5 -24t119.5 -11.5q62 0 118 12t106 38t79.5 73t29.5 110q0 66 -44.5 128t-114.5 106q-45 26 -117.5 55t-134 50.5t-128.5 55.5t-114 72t-77.5 99.5t-30.5 138.5zM135 502q0 -62 31.5 -115t77.5 -88t110 -66.5t117 -49t112.5 -37t82.5 -29.5q311 126 311 289 q0 130 -117 194q-27 16 -122 60.5t-209 97t-136 63.5q-2 0 -28 -19.5t-64.5 -53.5t-75.5 -73.5t-63.5 -86.5t-26.5 -86z" />
<glyph unicode="&#xa8;" horiz-adv-x="514" d="M92 1206q0 19 12 32t31 13q20 0 33.5 -13t13.5 -32q0 -20 -13.5 -33.5t-33.5 -13.5q-19 0 -31 13.5t-12 33.5zM334 1206q0 19 13 32t32 13t32 -13t13 -32q0 -20 -13 -33.5t-32 -13.5t-32 13.5t-13 33.5z" />
<glyph unicode="&#xa9;" horiz-adv-x="1640" d="M78 737q0 151 60 289t160 237.5t237 158.5t286 59q204 0 375 -100t269 -271t98 -373q0 -200 -98 -370.5t-269 -270.5t-375 -100q-148 0 -285.5 59t-237.5 158.5t-160 237t-60 286.5zM154 737q0 -136 52.5 -259t141.5 -212t212.5 -141.5t260.5 -52.5t262 52.5t215.5 141 t144.5 212t54 259.5q0 182 -91 336t-246.5 243t-338.5 89q-137 0 -260.5 -52.5t-212.5 -142t-141.5 -213t-52.5 -260.5zM381 735q0 191 137.5 329t337.5 138q63 0 122 -18t79.5 -30t60.5 -38q19 -11 37 -29l-35 -36q-59 47 -131 71.5t-137 24.5q-176 0 -291 -119t-115 -293 q0 -106 55.5 -200.5t150 -151.5t202.5 -57q67 0 138 23.5t124 68.5l8 6l39 -25l-26 -26q-11 -11 -30 -24.5t-54.5 -33t-87.5 -32.5t-109 -13q-99 0 -187.5 37.5t-151.5 101t-99.5 148.5t-36.5 178z" />
<glyph unicode="&#xaa;" horiz-adv-x="888" d="M78 1135q0 148 104.5 251t253.5 103q99 0 182 -49.5t127 -134.5v182h46v-709l-46 49v134q-45 -85 -127.5 -135t-181.5 -50q-149 0 -253.5 105t-104.5 254zM123 1135q0 -131 91.5 -222.5t221.5 -91.5q129 0 219 91.5t90 222.5q0 129 -90 219t-219 90q-131 0 -222 -90 t-91 -219z" />
<glyph unicode="&#xab;" horiz-adv-x="669" d="M45 559l262 408l53 -39l-237 -369l237 -369l-53 -38zM256 559l262 408l53 -39l-237 -369l237 -369l-53 -38z" />
<glyph unicode="&#xac;" horiz-adv-x="1558" d="M35 713v65h1042v-620h-63v555h-979z" />
<glyph unicode="&#xad;" horiz-adv-x="806" d="M106 580v65h596v-65h-596z" />
<glyph unicode="&#xae;" horiz-adv-x="1640" d="M78 737q0 151 60 289t160 237.5t237 158.5t286 59q204 0 375 -100t269 -271t98 -373q0 -200 -98 -370.5t-269 -270.5t-375 -100q-148 0 -285.5 59t-237.5 158.5t-160 237t-60 286.5zM154 737q0 -136 52.5 -259t141.5 -212t212.5 -141.5t260.5 -52.5t262 52.5t215.5 141 t144.5 212t54 259.5q0 182 -91 336t-246.5 243t-338.5 89q-137 0 -260.5 -52.5t-212.5 -142t-141.5 -213t-52.5 -260.5zM621 307v891h178q126 0 195 -75t69 -195q0 -88 -42.5 -158t-125.5 -104l160 -355h-70l-149 330q-5 8 -15 8h-123q-8 0 -8 -8v-334h-69zM686 723 q0 -6 10 -6h127q51 0 88 25t54 62.5t24.5 68.5t7.5 55q0 32 -7.5 64t-25 65.5t-54 54.5t-87.5 21h-127q-10 0 -10 -13v-397z" />
<glyph unicode="&#xaf;" horiz-adv-x="843" d="M98 1368v66h647v-66h-647z" />
<glyph unicode="&#xb0;" horiz-adv-x="815" d="M78 1153q0 137 97 233.5t233 96.5t232.5 -96.5t96.5 -233.5t-96.5 -233.5t-232.5 -96.5t-233 96.5t-97 233.5zM143 1153q0 -110 77.5 -187t187.5 -77t187 77t77 187t-77 187t-187 77t-187.5 -77t-77.5 -187z" />
<glyph unicode="&#xb1;" horiz-adv-x="956" d="M37 625v65h407v367h66v-367h408v-65h-408v-367h-66v367h-407zM39 129v66h881v-66h-881z" />
<glyph unicode="&#xb2;" horiz-adv-x="831" d="M156 649l405 402q53 50 86 109.5t33 115.5q0 101 -68 167t-170 66q-93 0 -159 -59t-84 -150l-33 21q15 96 93 161.5t183 65.5q119 0 199 -77t80 -195q0 -123 -135 -258l-367 -365h500v-39h-557z" />
<glyph unicode="&#xb3;" horiz-adv-x="806" d="M150 713l20 35q47 -47 108.5 -75t120.5 -28q124 0 190 73.5t66 176.5q0 82 -69.5 150.5t-188.5 72.5h-96v35h94q90 0 148.5 52.5t58.5 125.5q0 76 -56 131.5t-161 55.5q-47 0 -99 -26t-89 -69l-19 33q42 44 98 71t115 27q113 0 181.5 -64.5t68.5 -156.5q0 -58 -33.5 -107 t-77.5 -71q-7 -4 -15.5 -8t-12.5 -5.5t-4 -2.5q32 -11 57 -25q139 -82 139 -223q0 -120 -79 -201.5t-209 -81.5q-143 0 -256 105z" />
<glyph unicode="&#xb4;" horiz-adv-x="526" d="M41 1196l414 168l26 -59l-413 -168z" />
<glyph unicode="&#xb6;" horiz-adv-x="894" d="M43 1094q0 87 23 151t63 104.5t102 65t132 34t161 9.5h273v-1896h-66v1831h-143v-1833h-66v1183q-218 5 -348.5 98.5t-130.5 252.5z" />
<glyph unicode="&#xb7;" horiz-adv-x="229" d="M70 780q0 19 13.5 32t33.5 13q19 0 32 -13t13 -32q0 -20 -13 -33.5t-32 -13.5q-20 0 -33.5 13.5t-13.5 33.5z" />
<glyph unicode="&#xb8;" horiz-adv-x="534" d="M66 -385l43 49q3 -1 31 -16t53.5 -22t58.5 -7q52 0 99.5 34t47.5 91q0 53 -28.5 75.5t-63.5 22.5q-59 0 -80 -8l-24 -8l-43 24l106 150h58l-80 -104q3 0 22.5 3t44.5 3q68 0 111 -42t43 -114q0 -63 -34 -108t-82 -64.5t-101 -19.5q-51 0 -105 17.5t-77 43.5z" />
<glyph unicode="&#xb9;" horiz-adv-x="374" d="M90 1495v41h197v-922h-39v881h-158z" />
<glyph unicode="&#xba;" horiz-adv-x="864" d="M78 1128q0 147 103.5 250t252.5 103q146 0 249 -103.5t103 -249.5q0 -149 -102.5 -252.5t-249.5 -103.5q-149 0 -252.5 103.5t-103.5 252.5zM123 1128q0 -130 92.5 -222.5t222.5 -92.5q129 0 220.5 92.5t91.5 222.5q0 128 -91.5 219t-220.5 91q-130 0 -222.5 -91 t-92.5 -219z" />
<glyph unicode="&#xbb;" horiz-adv-x="671" d="M45 190l238 369l-238 369l53 39l262 -408l-262 -407zM256 190l238 369l-238 369l53 39l262 -408l-262 -407z" />
<glyph unicode="&#xbc;" horiz-adv-x="1388" d="M53 1481v55h228v-999h-56v944h-172zM348 10l451 1532l63 -14l-448 -1536zM682 262l467 737h45v-729h131v-55h-131v-215h-55v215h-455zM754 270h385v623z" />
<glyph unicode="&#xbd;" horiz-adv-x="1505" d="M53 1481v55h228v-999h-56v944h-172zM348 10l451 1532l63 -14l-448 -1536zM823 743q17 111 104 187t201 76q128 0 218 -90t90 -218q0 -64 -35.5 -133t-85.5 -114l-406 -396h527v-55h-607v53l447 434q42 42 73 100t31 111q0 110 -71 181t-181 71q-100 0 -168 -58.5 t-81 -156.5z" />
<glyph unicode="&#xbe;" horiz-adv-x="1611" d="M47 813h55q5 -109 75 -176.5t179 -67.5q110 0 182 71t72 183q0 103 -71 179.5t-172 84.5v43q61 17 99 66t38 111q0 78 -47 125t-125 47q-66 0 -109 -33.5t-57 -95.5l-51 14q19 75 79 122.5t138 47.5q93 0 160 -66t67 -161q0 -59 -29 -109t-77 -82q93 -30 153 -110.5 t60 -182.5q0 -127 -91 -218t-219 -91q-124 0 -214.5 87t-94.5 212zM582 10l450 1532l64 -14l-449 -1536zM915 262l467 737h45v-729h132v-55h-132v-215h-55v215h-454zM987 270h385v623z" />
<glyph unicode="&#xbf;" horiz-adv-x="864" d="M51 381q0 76 29 144t75.5 119t102.5 98.5t112.5 92t103 90t75.5 102t29 118.5q0 65 -41 110.5t-105 53.5l17 65q86 -12 140 -76.5t54 -152.5q0 -69 -29 -131.5t-75.5 -111t-102.5 -95l-112 -93t-102.5 -95t-75.5 -109.5t-29 -129q0 -134 95 -229t228 -95q117 0 204 73 t112 185l63 -14q-30 -134 -134.5 -221.5t-244.5 -87.5q-161 0 -275 114t-114 275zM455 1503q0 17 12 29t29 12t29 -12t12 -29t-12 -29t-29 -12t-29 12t-12 29z" />
<glyph unicode="&#xc0;" horiz-adv-x="1210" d="M49 0l529 1536h53l528 -1536h-67l-140 403h-694l-137 -403h-72zM281 469h649l-326 944zM385 1714l27 60l413 -168l-26 -60z" />
<glyph unicode="&#xc1;" horiz-adv-x="1210" d="M49 0l529 1536h53l528 -1536h-67l-140 403h-694l-137 -403h-72zM281 469h649l-326 944zM385 1606l414 168l26 -60l-413 -168z" />
<glyph unicode="&#xc2;" horiz-adv-x="1210" d="M49 0l529 1536h53l528 -1536h-67l-140 403h-694l-137 -403h-72zM281 469h649l-326 944zM424 1561l6 65l174 74l174 -74l6 -65q-20 0 -137 53q-9 4 -14 6.5t-13.5 6.5t-15.5 7q-148 -67 -167 -71q-7 -2 -13 -2z" />
<glyph unicode="&#xc3;" horiz-adv-x="1210" d="M49 0l529 1536h53l528 -1536h-67l-140 403h-694l-137 -403h-72zM266 1610q59 90 164 90q61 0 168 -35t164 -35q82 0 153 64l27 -25q-76 -90 -174 -90q-58 0 -170.5 35t-167.5 35q-73 0 -137 -64zM281 469h649l-326 944z" />
<glyph unicode="&#xc4;" horiz-adv-x="1210" d="M49 0l529 1536h53l528 -1536h-67l-140 403h-694l-137 -403h-72zM281 469h649l-326 944zM438 1616q0 19 12 32t31 13q20 0 33.5 -13t13.5 -32q0 -20 -13.5 -33.5t-33.5 -13.5q-19 0 -31 13.5t-12 33.5zM680 1616q0 19 13 32t32 13t32 -13t13 -32q0 -20 -13 -33.5 t-32 -13.5t-32 13.5t-13 33.5z" />
<glyph unicode="&#xc5;" horiz-adv-x="1210" d="M49 0l529 1536h53l528 -1536h-67l-140 403h-694l-137 -403h-72zM281 469h649l-326 944zM514 1640q0 39 25.5 65t66.5 26q38 0 64 -26.5t26 -64.5q0 -41 -25.5 -66.5t-64.5 -25.5q-41 0 -66.5 25.5t-25.5 66.5zM549 1640q0 -57 57 -57q24 0 40 15.5t16 41.5 q0 23 -16.5 39.5t-39.5 16.5q-26 0 -41.5 -16t-15.5 -40z" />
<glyph unicode="&#xc6;" horiz-adv-x="1521" d="M49 0l682 1536h737v-66h-641v-614h641v-65h-641v-725h641v-66h-706v403h-455l-186 -403h-72zM330 469h428v944z" />
<glyph unicode="&#xc7;" horiz-adv-x="1509" d="M80 768q0 160 62 305t167 250t250 167t305 62q161 0 304 -59.5t251 -167.5l-47 -47q-100 100 -230.5 154.5t-277.5 54.5q-117 0 -226.5 -36t-198 -102.5t-155 -154.5t-103 -198t-36.5 -228q0 -116 36.5 -226t103 -198.5t155 -155t198.5 -103t226 -36.5q145 0 275.5 55 t230.5 154l47 -47q-108 -108 -250 -167.5t-303 -59.5q-21 0 -61 4l-70 -92q3 0 23 3t45 3q67 0 110 -42t43 -114q0 -63 -34 -108t-82 -64.5t-101 -19.5q-51 0 -105 17.5t-77 43.5l43 49q3 -1 31 -16t53.5 -22t58.5 -7q52 0 100 34t48 91q0 53 -28.5 75.5t-63.5 22.5 q-59 0 -80 -8q-2 0 -25 -8l-43 24l101 142q-188 27 -341 136t-241 277.5t-88 362.5z" />
<glyph unicode="&#xc8;" horiz-adv-x="901" d="M109 0v1536h706v-66h-641v-614h641v-65h-641v-725h641v-66h-706zM229 1714l27 60l414 -168l-27 -60z" />
<glyph unicode="&#xc9;" horiz-adv-x="901" d="M109 0v1536h706v-66h-641v-614h641v-65h-641v-725h641v-66h-706zM229 1606l414 168l27 -60l-414 -168z" />
<glyph unicode="&#xca;" horiz-adv-x="901" d="M109 0v1536h706v-66h-641v-614h641v-65h-641v-725h641v-66h-706zM270 1561l6 65l175 74l174 -74l6 -65q-20 0 -137 53q-9 4 -14 6.5t-13.5 6.5t-15.5 7q-12 -5 -33 -15q-127 -58 -148 -58z" />
<glyph unicode="&#xcb;" horiz-adv-x="901" d="M109 0v1536h706v-66h-641v-614h641v-65h-641v-725h641v-66h-706zM285 1616q0 19 12 32t31 13q20 0 33.5 -13t13.5 -32q0 -20 -13.5 -33.5t-33.5 -13.5q-19 0 -31 13.5t-12 33.5zM526 1616q0 19 13 32t32 13t32 -13t13 -32q0 -20 -13 -33.5t-32 -13.5t-32 13.5t-13 33.5z " />
<glyph unicode="&#xcc;" horiz-adv-x="262" d="M-86 1714l27 60l413 -168l-26 -60zM106 0v1536h66v-1536h-66z" />
<glyph unicode="&#xcd;" horiz-adv-x="262" d="M-86 1606l414 168l26 -60l-413 -168zM106 0v1536h66v-1536h-66z" />
<glyph unicode="&#xce;" horiz-adv-x="262" d="M-47 1561l6 65l174 74l174 -74l6 -65q-20 0 -137 53q-9 4 -14 6.5t-13.5 6.5t-15.5 7q-148 -67 -167 -71q-7 -2 -13 -2zM106 0v1536h66v-1536h-66z" />
<glyph unicode="&#xcf;" horiz-adv-x="262" d="M-33 1616q0 19 12 32t31 13q20 0 33.5 -13t13.5 -32q0 -20 -13.5 -33.5t-33.5 -13.5q-19 0 -31 13.5t-12 33.5zM106 0v1536h66v-1536h-66zM209 1616q0 19 13 32t32 13t32 -13t13 -32q0 -20 -13 -33.5t-32 -13.5t-32 13.5t-13 33.5z" />
<glyph unicode="&#xd0;" horiz-adv-x="1497" d="M61 702v64h258v770h334q157 0 299.5 -60.5t245 -163t163 -245t60.5 -299.5t-60.5 -299.5t-163 -245t-245 -163t-299.5 -60.5h-334v702h-258zM385 66h268q190 0 352 94.5t256.5 256.5t94.5 351q0 190 -94.5 352t-256.5 256t-352 94h-268v-704h254v-66h-254v-634z" />
<glyph unicode="&#xd1;" horiz-adv-x="1230" d="M104 0v1536h58l901 -1401v1401h65v-1536h-57l-901 1401v-1401h-66zM276 1610q59 90 164 90q61 0 168 -35t164 -35q83 0 154 64l26 -25q-76 -90 -174 -90q-58 0 -170.5 35t-167.5 35q-73 0 -137 -64z" />
<glyph unicode="&#xd2;" horiz-adv-x="1732" d="M82 768q0 160 62 305t167 250t250 167t305 62t305.5 -62t250.5 -167t167 -250t62 -305t-62 -305t-167 -250t-250.5 -167t-305.5 -62t-305 62t-250 167t-167 250t-62 305zM147 768q0 -116 36.5 -226t103 -198.5t155 -155t198.5 -103t226 -36.5q118 0 228 36.5t198 103 t154.5 155t102.5 198t36 226.5q0 196 -96 361.5t-261.5 261.5t-361.5 96q-117 0 -226.5 -36t-198 -102.5t-155 -154.5t-103 -198t-36.5 -228zM645 1714l27 60l413 -168l-26 -60z" />
<glyph unicode="&#xd3;" horiz-adv-x="1732" d="M82 768q0 160 62 305t167 250t250 167t305 62t305.5 -62t250.5 -167t167 -250t62 -305t-62 -305t-167 -250t-250.5 -167t-305.5 -62t-305 62t-250 167t-167 250t-62 305zM147 768q0 -116 36.5 -226t103 -198.5t155 -155t198.5 -103t226 -36.5q118 0 228 36.5t198 103 t154.5 155t102.5 198t36 226.5q0 196 -96 361.5t-261.5 261.5t-361.5 96q-117 0 -226.5 -36t-198 -102.5t-155 -154.5t-103 -198t-36.5 -228zM645 1606l414 168l26 -60l-413 -168z" />
<glyph unicode="&#xd4;" horiz-adv-x="1732" d="M82 768q0 160 62 305t167 250t250 167t305 62t305.5 -62t250.5 -167t167 -250t62 -305t-62 -305t-167 -250t-250.5 -167t-305.5 -62t-305 62t-250 167t-167 250t-62 305zM147 768q0 -116 36.5 -226t103 -198.5t155 -155t198.5 -103t226 -36.5q118 0 228 36.5t198 103 t154.5 155t102.5 198t36 226.5q0 196 -96 361.5t-261.5 261.5t-361.5 96q-117 0 -226.5 -36t-198 -102.5t-155 -154.5t-103 -198t-36.5 -228zM686 1561l6 65l174 74l174 -74l7 -65q-21 0 -148 58q-21 10 -33 15q-16 -7 -43 -20q-117 -51 -137 -53z" />
<glyph unicode="&#xd5;" horiz-adv-x="1732" d="M82 768q0 160 62 305t167 250t250 167t305 62t305.5 -62t250.5 -167t167 -250t62 -305t-62 -305t-167 -250t-250.5 -167t-305.5 -62t-305 62t-250 167t-167 250t-62 305zM147 768q0 -116 36.5 -226t103 -198.5t155 -155t198.5 -103t226 -36.5q118 0 228 36.5t198 103 t154.5 155t102.5 198t36 226.5q0 196 -96 361.5t-261.5 261.5t-361.5 96q-117 0 -226.5 -36t-198 -102.5t-155 -154.5t-103 -198t-36.5 -228zM528 1610q59 90 164 90q61 0 168 -35t164 -35q83 0 154 64l26 -25q-76 -90 -174 -90q-58 0 -170.5 35t-167.5 35q-73 0 -137 -64z " />
<glyph unicode="&#xd6;" horiz-adv-x="1732" d="M82 768q0 160 62 305t167 250t250 167t305 62t305.5 -62t250.5 -167t167 -250t62 -305t-62 -305t-167 -250t-250.5 -167t-305.5 -62t-305 62t-250 167t-167 250t-62 305zM147 768q0 -116 36.5 -226t103 -198.5t155 -155t198.5 -103t226 -36.5q118 0 228 36.5t198 103 t154.5 155t102.5 198t36 226.5q0 196 -96 361.5t-261.5 261.5t-361.5 96q-117 0 -226.5 -36t-198 -102.5t-155 -154.5t-103 -198t-36.5 -228zM700 1616q0 19 12 32t31 13q20 0 34 -13t14 -32q0 -20 -14 -33.5t-34 -13.5q-19 0 -31 13.5t-12 33.5zM942 1616q0 19 13 32t32 13 t32 -13t13 -32q0 -20 -13 -33.5t-32 -13.5t-32 13.5t-13 33.5z" />
<glyph unicode="&#xd7;" horiz-adv-x="1044" d="M141 238l287 288l-287 289l45 45l289 -287l289 287l45 -45l-287 -289l287 -288l-45 -45l-289 286l-289 -286z" />
<glyph unicode="&#xd8;" horiz-adv-x="1712" d="M72 768q0 160 62 305t167 250t250 167t305 62q93 0 172 -20l25 84h63l-26 -100q241 -74 395.5 -280.5t154.5 -467.5q0 -160 -62 -305t-167 -250t-250 -167t-305 -62q-98 0 -205 26l-26 -98h-74l37 119q-230 84 -373 284.5t-143 452.5zM137 768q0 -227 131 -411t338 -263 l404 1376q-87 17 -154 17q-117 0 -226.5 -36t-198 -102.5t-155 -154.5t-103 -198t-36.5 -228zM670 74q92 -25 186 -25q118 0 228 36.5t198 103t154.5 155t102.5 198t36 226.5q0 240 -140.5 427t-363.5 257z" />
<glyph unicode="&#xd9;" horiz-adv-x="993" d="M98 381v1155h66v-1155q0 -138 98 -236t236 -98q137 0 235 98t98 236v1155h66v-1153q0 -166 -116.5 -282.5t-282.5 -116.5t-283 116t-117 281zM276 1714l27 60l414 -168l-27 -60z" />
<glyph unicode="&#xda;" horiz-adv-x="993" d="M98 381v1155h66v-1155q0 -138 98 -236t236 -98q137 0 235 98t98 236v1155h66v-1153q0 -166 -116.5 -282.5t-282.5 -116.5t-283 116t-117 281zM276 1606l414 168l27 -60l-414 -168z" />
<glyph unicode="&#xdb;" horiz-adv-x="993" d="M98 381v1155h66v-1155q0 -138 98 -236t236 -98q137 0 235 98t98 236v1155h66v-1153q0 -166 -116.5 -282.5t-282.5 -116.5t-283 116t-117 281zM315 1561l7 65l174 74l174 -74l6 -65q-20 0 -137 53q-9 4 -14 6.5t-13.5 6.5t-15.5 7q-12 -5 -33 -15q-127 -58 -148 -58z" />
<glyph unicode="&#xdc;" horiz-adv-x="993" d="M98 381v1155h66v-1155q0 -138 98 -236t236 -98q137 0 235 98t98 236v1155h66v-1153q0 -166 -116.5 -282.5t-282.5 -116.5t-283 116t-117 281zM330 1616q0 19 12 32t31 13q20 0 33.5 -13t13.5 -32q0 -20 -13.5 -33.5t-33.5 -13.5q-19 0 -31 13.5t-12 33.5zM571 1616 q0 19 13 32t32 13t32.5 -13t13.5 -32q0 -20 -13.5 -33.5t-32.5 -13.5t-32 13.5t-13 33.5z" />
<glyph unicode="&#xdd;" horiz-adv-x="954" d="M41 1536h68l368 -897l367 897h71l-405 -975v-561h-66v561zM256 1606l414 168l26 -60l-413 -168z" />
<glyph unicode="&#xde;" horiz-adv-x="821" d="M100 -2v1538h66v-336h190q169 0 288.5 -119t119.5 -288q0 -167 -119.5 -286.5t-288.5 -119.5h-190v-389h-66zM166 453h190q142 0 242 99.5t100 240.5q0 143 -100 242.5t-242 99.5h-190v-682z" />
<glyph unicode="&#xdf;" horiz-adv-x="946" d="M100 0v1182q0 165 95 259.5t223 94.5h12q156 -9 245 -122.5t89 -285.5q0 -111 -54 -203t-147 -147q135 -28 225.5 -136t90.5 -249q0 -164 -115 -278.5t-279 -114.5h-196v66h196q137 0 232.5 95.5t95.5 231.5q0 137 -96 233.5t-232 96.5h-196v65h65q143 0 243.5 99.5 t100.5 240.5q0 149 -72.5 241t-193.5 101h-14q-101 0 -176.5 -79.5t-75.5 -208.5v-1182h-66z" />
<glyph unicode="&#xe0;" horiz-adv-x="1232" d="M78 514q0 143 70.5 264t192.5 191.5t267 70.5q147 0 270 -73.5t191 -198.5v256h66v-1024h-66v256q-68 -125 -191 -198.5t-270 -73.5q-145 0 -267 70.5t-192.5 192.5t-70.5 267zM145 514q0 -127 61.5 -233.5t168 -168t233.5 -61.5q192 0 326.5 135t134.5 328 q0 192 -134.5 326.5t-326.5 134.5q-193 0 -328 -134.5t-135 -326.5zM395 1305l27 59l414 -168l-27 -59z" />
<glyph unicode="&#xe1;" horiz-adv-x="1232" d="M78 514q0 143 70.5 264t192.5 191.5t267 70.5q147 0 270 -73.5t191 -198.5v256h66v-1024h-66v256q-68 -125 -191 -198.5t-270 -73.5q-145 0 -267 70.5t-192.5 192.5t-70.5 267zM145 514q0 -127 61.5 -233.5t168 -168t233.5 -61.5q192 0 326.5 135t134.5 328 q0 192 -134.5 326.5t-326.5 134.5q-193 0 -328 -134.5t-135 -326.5zM395 1196l414 168l27 -59l-414 -168z" />
<glyph unicode="&#xe2;" horiz-adv-x="1232" d="M78 514q0 143 70.5 264t192.5 191.5t267 70.5q147 0 270 -73.5t191 -198.5v256h66v-1024h-66v256q-68 -125 -191 -198.5t-270 -73.5q-145 0 -267 70.5t-192.5 192.5t-70.5 267zM145 514q0 -127 61.5 -233.5t168 -168t233.5 -61.5q192 0 326.5 135t134.5 328 q0 192 -134.5 326.5t-326.5 134.5q-193 0 -328 -134.5t-135 -326.5zM436 1151l6 66l174 73l175 -73l6 -66q-4 0 -8 0.5t-10.5 2.5t-12 4t-15 6t-17.5 7.5t-22.5 10t-26 12t-32 14.5t-37.5 17q-21 -9 -46.5 -21t-38.5 -18t-29 -13l-24 -10.5t-17 -6.5t-14.5 -4t-10.5 -1z" />
<glyph unicode="&#xe3;" horiz-adv-x="1232" d="M78 514q0 143 70.5 264t192.5 191.5t267 70.5q147 0 270 -73.5t191 -198.5v256h66v-1024h-66v256q-68 -125 -191 -198.5t-270 -73.5q-145 0 -267 70.5t-192.5 192.5t-70.5 267zM145 514q0 -127 61.5 -233.5t168 -168t233.5 -61.5q192 0 326.5 135t134.5 328 q0 192 -134.5 326.5t-326.5 134.5q-193 0 -328 -134.5t-135 -326.5zM279 1200q59 90 163 90q61 0 168 -34.5t164 -34.5q85 0 154 63l26 -24q-77 -91 -174 -91q-58 0 -170.5 35t-167.5 35q-74 0 -137 -63z" />
<glyph unicode="&#xe4;" horiz-adv-x="1232" d="M78 514q0 143 70.5 264t192.5 191.5t267 70.5q147 0 270 -73.5t191 -198.5v256h66v-1024h-66v256q-68 -125 -191 -198.5t-270 -73.5q-145 0 -267 70.5t-192.5 192.5t-70.5 267zM145 514q0 -127 61.5 -233.5t168 -168t233.5 -61.5q192 0 326.5 135t134.5 328 q0 192 -134.5 326.5t-326.5 134.5q-193 0 -328 -134.5t-135 -326.5zM451 1206q0 19 12 32t31 13q20 0 33.5 -13t13.5 -32q0 -20 -13.5 -33.5t-33.5 -13.5q-19 0 -31 13.5t-12 33.5zM692 1206q0 19 13 32t32 13t32 -13t13 -32q0 -20 -13 -33.5t-32 -13.5t-32 13.5t-13 33.5z " />
<glyph unicode="&#xe5;" horiz-adv-x="1232" d="M78 514q0 143 70.5 264t192.5 191.5t267 70.5q147 0 270 -73.5t191 -198.5v256h66v-1024h-66v256q-68 -125 -191 -198.5t-270 -73.5q-145 0 -267 70.5t-192.5 192.5t-70.5 267zM145 514q0 -127 61.5 -233.5t168 -168t233.5 -61.5q192 0 326.5 135t134.5 328 q0 192 -134.5 326.5t-326.5 134.5q-193 0 -328 -134.5t-135 -326.5zM524 1231q0 39 25.5 64.5t66.5 25.5q38 0 64.5 -26t26.5 -64q0 -41 -26 -66.5t-65 -25.5q-41 0 -66.5 25.5t-25.5 66.5zM559 1231q0 -57 57 -57q24 0 40 15.5t16 41.5q0 23 -16.5 39t-39.5 16 q-26 0 -41.5 -15.5t-15.5 -39.5z" />
<glyph unicode="&#xe6;" horiz-adv-x="2138" d="M78 514q0 143 70.5 264t192.5 191.5t267 70.5q147 0 270 -73.5t191 -198.5v256h66v-272q64 130 188.5 209t278.5 79q141 0 251.5 -71t169 -190.5t58.5 -264.5l-2 -37h-932q12 -180 146 -303t317 -123q107 0 203.5 38.5t166.5 111.5l35 -58q-169 -159 -405 -159 q-155 0 -282.5 80t-192.5 212v-276h-66v256q-68 -125 -191 -198.5t-270 -73.5q-145 0 -267 70.5t-192.5 192.5t-70.5 267zM145 514q0 -127 61.5 -233.5t168 -168t233.5 -61.5q192 0 326.5 135t134.5 328q0 192 -134.5 326.5t-326.5 134.5q-193 0 -328 -134.5t-135 -326.5z M1147 543h868q-12 187 -122.5 309.5t-290.5 122.5q-186 0 -314.5 -124.5t-140.5 -307.5z" />
<glyph unicode="&#xe7;" horiz-adv-x="1144" d="M78 514q0 143 70.5 264t192.5 191.5t267 70.5q146 0 267.5 -71.5t189.5 -194.5l-55 -35q-61 108 -167.5 172t-234.5 64q-193 0 -328 -134.5t-135 -326.5q0 -127 61.5 -233.5t168 -168t233.5 -61.5t234 64t168 170l57 -33q-67 -121 -186 -193t-263 -75l-67 -88q3 0 22.5 3 t44.5 3q68 0 111 -42t43 -114q0 -63 -34 -108t-82 -64.5t-101 -19.5q-51 0 -105 17.5t-77 43.5l43 49q3 -1 31 -16t53.5 -22t58.5 -7q52 0 100 34t48 91q0 53 -29 75.5t-64 22.5q-58 0 -79 -8q-2 0 -25 -8l-43 24l96 136q-206 17 -345.5 167.5t-139.5 360.5z" />
<glyph unicode="&#xe8;" horiz-adv-x="1134" d="M78 514q0 144 68.5 264.5t188.5 191t265 70.5q141 0 251.5 -71t169 -190.5t58.5 -264.5l-2 -37h-932q12 -180 146 -303t317 -123q107 0 204 38.5t167 111.5l35 -58q-169 -159 -406 -159q-145 0 -267 70.5t-192.5 192.5t-70.5 267zM145 543h869q-12 187 -123 309.5 t-291 122.5q-186 0 -314.5 -124.5t-140.5 -307.5zM346 1305l27 59l413 -168l-26 -59z" />
<glyph unicode="&#xe9;" horiz-adv-x="1134" d="M78 514q0 144 68.5 264.5t188.5 191t265 70.5q141 0 251.5 -71t169 -190.5t58.5 -264.5l-2 -37h-932q12 -180 146 -303t317 -123q107 0 204 38.5t167 111.5l35 -58q-169 -159 -406 -159q-145 0 -267 70.5t-192.5 192.5t-70.5 267zM145 543h869q-12 187 -123 309.5 t-291 122.5q-186 0 -314.5 -124.5t-140.5 -307.5zM346 1196l414 168l26 -59l-413 -168z" />
<glyph unicode="&#xea;" horiz-adv-x="1134" d="M78 514q0 144 68.5 264.5t188.5 191t265 70.5q141 0 251.5 -71t169 -190.5t58.5 -264.5l-2 -37h-932q12 -180 146 -303t317 -123q107 0 204 38.5t167 111.5l35 -58q-169 -159 -406 -159q-145 0 -267 70.5t-192.5 192.5t-70.5 267zM145 543h869q-12 187 -123 309.5 t-291 122.5q-186 0 -314.5 -124.5t-140.5 -307.5zM387 1151l6 66l174 73l174 -73l7 -66q-4 0 -8 0.5t-10.5 2.5t-12 4t-15 6t-17.5 7.5t-22.5 10t-26 12t-32 14.5t-37.5 17q-21 -9 -46.5 -21t-38.5 -18t-29 -13l-24 -10.5t-17 -6.5t-14.5 -4t-10.5 -1z" />
<glyph unicode="&#xeb;" horiz-adv-x="1134" d="M78 514q0 144 68.5 264.5t188.5 191t265 70.5q141 0 251.5 -71t169 -190.5t58.5 -264.5l-2 -37h-932q12 -180 146 -303t317 -123q107 0 204 38.5t167 111.5l35 -58q-169 -159 -406 -159q-145 0 -267 70.5t-192.5 192.5t-70.5 267zM145 543h869q-12 187 -123 309.5 t-291 122.5q-186 0 -314.5 -124.5t-140.5 -307.5zM401 1206q0 19 12 32t31 13q20 0 34 -13t14 -32q0 -20 -14 -33.5t-34 -13.5q-19 0 -31 13.5t-12 33.5zM643 1206q0 19 13 32t32 13t32 -13t13 -32q0 -20 -13 -33.5t-32 -13.5t-32 13.5t-13 33.5z" />
<glyph unicode="&#xec;" horiz-adv-x="266" d="M-84 1305l27 59l413 -168l-26 -59zM109 0v1026h65v-1026h-65z" />
<glyph unicode="&#xed;" horiz-adv-x="266" d="M-84 1196l414 168l26 -59l-413 -168zM109 0v1026h65v-1026h-65z" />
<glyph unicode="&#xee;" horiz-adv-x="266" d="M-45 1151l6 66l174 73l174 -73l6 -66q-5 0 -10.5 1t-14.5 4t-17 6.5l-24 10.5t-29 13t-38.5 18t-46.5 21q-21 -9 -46.5 -21t-38.5 -18t-29 -13l-24 -10.5t-17 -6.5t-14.5 -4t-10.5 -1zM109 0v1026h65v-1026h-65z" />
<glyph unicode="&#xef;" horiz-adv-x="266" d="M-31 1206q0 19 12 32t31 13q20 0 33.5 -13t13.5 -32q0 -20 -13.5 -33.5t-33.5 -13.5q-19 0 -31 13.5t-12 33.5zM109 0v1026h65v-1026h-65zM211 1206q0 19 13 32t32 13t32 -13t13 -32q0 -20 -13 -33.5t-32 -13.5t-32 13.5t-13 33.5z" />
<glyph unicode="&#xf0;" horiz-adv-x="1177" d="M61 508q0 145 70 266t191 190.5t264 69.5q121 0 237 -53l-215 313l-139 -100l-37 53l139 101l-108 159l55 37l107 -158l145 107l39 -55l-147 -107l337 -489q113 -141 113 -334q0 -224 -150 -374t-376 -150q-147 0 -267 68t-189 188.5t-69 267.5zM127 508q0 -195 133 -327 t326 -132q196 0 328.5 131.5t132.5 327.5q0 195 -133 328t-328 133q-125 0 -230.5 -61.5t-167 -167.5t-61.5 -232z" />
<glyph unicode="&#xf1;" horiz-adv-x="983" d="M100 0v1024l66 -2v-160q56 82 142 130t188 48q163 0 279 -114.5t116 -276.5v-649h-66v653q0 134 -96.5 228t-232.5 94t-233 -92.5t-97 -225.5v-657h-66zM154 1200q59 90 163 90q61 0 168 -34.5t164 -34.5q85 0 154 63l26 -24q-77 -91 -174 -91q-58 0 -170.5 35t-167.5 35 q-74 0 -137 -63z" />
<glyph unicode="&#xf2;" horiz-adv-x="1212" d="M78 514q0 143 70.5 264t192.5 191.5t267 70.5q143 0 264.5 -70.5t192 -191.5t70.5 -264q0 -145 -70.5 -267t-192 -192.5t-264.5 -70.5q-145 0 -267 70.5t-192.5 192.5t-70.5 267zM145 514q0 -127 61.5 -233.5t168 -168t233.5 -61.5q192 0 326.5 135t134.5 328 q0 192 -134.5 326.5t-326.5 134.5q-193 0 -328 -134.5t-135 -326.5zM385 1305l27 59l413 -168l-26 -59z" />
<glyph unicode="&#xf3;" horiz-adv-x="1212" d="M78 514q0 143 70.5 264t192.5 191.5t267 70.5q143 0 264.5 -70.5t192 -191.5t70.5 -264q0 -145 -70.5 -267t-192 -192.5t-264.5 -70.5q-145 0 -267 70.5t-192.5 192.5t-70.5 267zM145 514q0 -127 61.5 -233.5t168 -168t233.5 -61.5q192 0 326.5 135t134.5 328 q0 192 -134.5 326.5t-326.5 134.5q-193 0 -328 -134.5t-135 -326.5zM385 1196l414 168l26 -59l-413 -168z" />
<glyph unicode="&#xf4;" horiz-adv-x="1212" d="M78 514q0 143 70.5 264t192.5 191.5t267 70.5q143 0 264.5 -70.5t192 -191.5t70.5 -264q0 -145 -70.5 -267t-192 -192.5t-264.5 -70.5q-145 0 -267 70.5t-192.5 192.5t-70.5 267zM145 514q0 -127 61.5 -233.5t168 -168t233.5 -61.5q192 0 326.5 135t134.5 328 q0 192 -134.5 326.5t-326.5 134.5q-193 0 -328 -134.5t-135 -326.5zM426 1151l6 66l174 73l174 -73l6 -66q-5 0 -10.5 1t-14.5 4t-17 6.5l-24 10.5t-29 13t-38.5 18t-46.5 21q-21 -9 -46.5 -21t-38.5 -18t-29 -13l-24 -10.5t-17 -6.5t-14.5 -4t-10.5 -1z" />
<glyph unicode="&#xf5;" horiz-adv-x="1212" d="M78 514q0 143 70.5 264t192.5 191.5t267 70.5q143 0 264.5 -70.5t192 -191.5t70.5 -264q0 -145 -70.5 -267t-192 -192.5t-264.5 -70.5q-145 0 -267 70.5t-192.5 192.5t-70.5 267zM145 514q0 -127 61.5 -233.5t168 -168t233.5 -61.5q192 0 326.5 135t134.5 328 q0 192 -134.5 326.5t-326.5 134.5q-193 0 -328 -134.5t-135 -326.5zM268 1200q59 90 164 90q61 0 168 -34.5t164 -34.5q85 0 154 63l26 -24q-77 -91 -174 -91q-58 0 -170.5 35t-167.5 35q-74 0 -137 -63z" />
<glyph unicode="&#xf6;" horiz-adv-x="1212" d="M78 514q0 143 70.5 264t192.5 191.5t267 70.5q143 0 264.5 -70.5t192 -191.5t70.5 -264q0 -145 -70.5 -267t-192 -192.5t-264.5 -70.5q-145 0 -267 70.5t-192.5 192.5t-70.5 267zM145 514q0 -127 61.5 -233.5t168 -168t233.5 -61.5q192 0 326.5 135t134.5 328 q0 192 -134.5 326.5t-326.5 134.5q-193 0 -328 -134.5t-135 -326.5zM440 1206q0 19 12 32t31 13q20 0 33.5 -13t13.5 -32q0 -20 -13.5 -33.5t-33.5 -13.5q-19 0 -31 13.5t-12 33.5zM682 1206q0 19 13 32t32 13t32 -13t13 -32q0 -20 -13 -33.5t-32 -13.5t-32 13.5t-13 33.5z " />
<glyph unicode="&#xf7;" horiz-adv-x="950" d="M35 494v65h883v-65h-883zM432 322q0 17 12 28.5t29 11.5t29 -11.5t12 -28.5t-12 -29t-29 -12t-29 12t-12 29zM432 725q0 17 12 29t29 12t29 -12t12 -29t-12 -29t-29 -12t-29 12t-12 29z" />
<glyph unicode="&#xf8;" horiz-adv-x="1191" d="M68 514q0 143 70.5 264t192.5 191.5t267 70.5q47 0 102 -10l27 90h68l-31 -106q160 -55 260 -190.5t100 -309.5q0 -145 -70.5 -267t-191.5 -192.5t-264 -70.5q-60 0 -129 16l-29 -100h-71l34 118q-150 58 -242.5 193t-92.5 303zM135 514q0 -145 80 -262.5t209 -167.5 l258 883q-36 8 -84 8q-193 0 -328 -134.5t-135 -326.5zM487 63q53 -12 111 -12q192 0 326.5 135t134.5 328q0 151 -87.5 270t-226.5 166z" />
<glyph unicode="&#xf9;" horiz-adv-x="980" d="M92 375v649h66v-653q0 -134 96.5 -228t232.5 -94t233 92.5t97 225.5v657h66v-1024h-66v162q-56 -82 -142 -130t-188 -48q-164 0 -279.5 114t-115.5 277zM270 1305l27 59l414 -168l-27 -59z" />
<glyph unicode="&#xfa;" horiz-adv-x="980" d="M92 375v649h66v-653q0 -134 96.5 -228t232.5 -94t233 92.5t97 225.5v657h66v-1024h-66v162q-56 -82 -142 -130t-188 -48q-164 0 -279.5 114t-115.5 277zM270 1196l414 168l27 -59l-414 -168z" />
<glyph unicode="&#xfb;" horiz-adv-x="980" d="M92 375v649h66v-653q0 -134 96.5 -228t232.5 -94t233 92.5t97 225.5v657h66v-1024h-66v162q-56 -82 -142 -130t-188 -48q-164 0 -279.5 114t-115.5 277zM309 1151l6 66l174 73l175 -73l6 -66q-4 0 -8 0.5t-10.5 2.5t-12 4t-15 6t-17.5 7.5t-22.5 10t-26 12t-32 14.5 t-37.5 17q-21 -9 -46.5 -21t-38.5 -18t-29 -13l-24 -10.5t-17 -6.5t-14.5 -4t-10.5 -1z" />
<glyph unicode="&#xfc;" horiz-adv-x="980" d="M92 375v649h66v-653q0 -134 96.5 -228t232.5 -94t233 92.5t97 225.5v657h66v-1024h-66v162q-56 -82 -142 -130t-188 -48q-164 0 -279.5 114t-115.5 277zM324 1206q0 19 12 32t31 13q20 0 33.5 -13t13.5 -32q0 -20 -13.5 -33.5t-33.5 -13.5q-19 0 -31 13.5t-12 33.5z M565 1206q0 19 13 32t32 13t32 -13t13 -32q0 -20 -13 -33.5t-32 -13.5t-32 13.5t-13 33.5z" />
<glyph unicode="&#xfd;" horiz-adv-x="892" d="M49 1024h78l328 -920l327 920h78l-520 -1446h-76l154 424zM225 1196l414 168l27 -59l-414 -168z" />
<glyph unicode="&#xfe;" horiz-adv-x="1214" d="M100 -410v1846h66v-668q68 125 191 198.5t270 73.5q145 0 267 -70.5t192.5 -192.5t70.5 -267q0 -143 -70.5 -264t-192.5 -191.5t-267 -70.5q-147 0 -270 73.5t-191 198.5v-666h-66zM166 510q0 -192 134.5 -326.5t326.5 -134.5q193 0 328 134.5t135 326.5 q0 194 -135 328.5t-328 134.5q-192 0 -326.5 -135t-134.5 -328z" />
<glyph unicode="&#xff;" horiz-adv-x="892" d="M49 1024h78l328 -920l327 920h78l-520 -1446h-76l154 424zM281 1206q0 19 12 32t31 13q20 0 33.5 -13t13.5 -32q0 -20 -13.5 -33.5t-33.5 -13.5q-19 0 -31 13.5t-12 33.5zM522 1206q0 19 13 32t32 13t32 -13t13 -32q0 -20 -13 -33.5t-32 -13.5t-32 13.5t-13 33.5z" />
<glyph unicode="&#x152;" horiz-adv-x="2359" d="M82 768q0 160 62 305t167 250t250 167t305 62q238 0 433 -129.5t286 -339.5v453h707v-66h-641v-614h641v-65h-641v-725h641v-66h-707v453q-91 -210 -286 -339.5t-433 -129.5q-160 0 -305 62t-250 167t-167 250t-62 305zM147 768q0 -116 36.5 -226t103 -198.5t155 -155 t198.5 -103t226 -36.5q118 0 228 36.5t198 103t154.5 155t102.5 198t36 226.5q0 196 -96 361.5t-261.5 261.5t-361.5 96q-117 0 -226.5 -36t-198 -102.5t-155 -154.5t-103 -198t-36.5 -228z" />
<glyph unicode="&#x153;" horiz-adv-x="2127" d="M78 514q0 143 70.5 264t192.5 191.5t267 70.5q170 0 305.5 -98t190.5 -254q53 156 188 254t307 98q141 0 251.5 -71t169.5 -190.5t59 -264.5l-2 -37h-932q12 -180 146 -303t317 -123q107 0 203.5 38.5t166.5 111.5l35 -58q-169 -159 -405 -159q-173 0 -310 99t-192 257 q-55 -158 -191.5 -257t-306.5 -99q-145 0 -267 70.5t-192.5 192.5t-70.5 267zM145 514q0 -127 61.5 -233.5t168 -168t233.5 -61.5q192 0 326.5 135t134.5 328q0 192 -134.5 326.5t-326.5 134.5q-193 0 -328 -134.5t-135 -326.5zM1145 543h868q-12 187 -123 309.5t-291 122.5 q-186 0 -314 -124.5t-140 -307.5z" />
<glyph unicode="&#x178;" horiz-adv-x="954" d="M41 1536h68l368 -897l367 897h71l-405 -975v-561h-66v561zM311 1616q0 19 12 32t31 13q20 0 33.5 -13t13.5 -32q0 -20 -13.5 -33.5t-33.5 -13.5q-19 0 -31 13.5t-12 33.5zM553 1616q0 19 13 32t32 13t32 -13t13 -32q0 -20 -13 -33.5t-32 -13.5t-32 13.5t-13 33.5z" />
<glyph unicode="&#x2c6;" horiz-adv-x="565" d="M98 1151l6 66l175 73l174 -73l6 -66q-5 0 -10.5 1t-14.5 4t-17 6.5l-24 10.5t-29 13t-38.5 18t-46.5 21q-17 -8 -37.5 -17t-32 -14.5t-26 -12t-22.5 -10t-17.5 -7.5t-15 -6t-12 -4t-10.5 -2.5t-8 -0.5z" />
<glyph unicode="&#x2dc;" horiz-adv-x="851" d="M88 1200q59 90 164 90q61 0 168 -34.5t164 -34.5q84 0 153 63l27 -24q-77 -91 -174 -91q-58 0 -170.5 35t-167.5 35q-74 0 -137 -63z" />
<glyph unicode="&#x2000;" horiz-adv-x="887" />
<glyph unicode="&#x2001;" horiz-adv-x="1774" />
<glyph unicode="&#x2002;" horiz-adv-x="887" />
<glyph unicode="&#x2003;" horiz-adv-x="1774" />
<glyph unicode="&#x2004;" horiz-adv-x="591" />
<glyph unicode="&#x2005;" horiz-adv-x="443" />
<glyph unicode="&#x2006;" horiz-adv-x="295" />
<glyph unicode="&#x2007;" horiz-adv-x="295" />
<glyph unicode="&#x2008;" horiz-adv-x="221" />
<glyph unicode="&#x2009;" horiz-adv-x="354" />
<glyph unicode="&#x200a;" horiz-adv-x="98" />
<glyph unicode="&#x2010;" horiz-adv-x="806" d="M106 580v65h596v-65h-596z" />
<glyph unicode="&#x2011;" horiz-adv-x="806" d="M106 580v65h596v-65h-596z" />
<glyph unicode="&#x2012;" horiz-adv-x="806" d="M106 580v65h596v-65h-596z" />
<glyph unicode="&#x2013;" horiz-adv-x="1155" d="M98 547v65h959v-65h-959z" />
<glyph unicode="&#x2014;" horiz-adv-x="1517" d="M98 547v65h1321v-65h-1321z" />
<glyph unicode="&#x2018;" horiz-adv-x="206" d="M37 1530l76 12l6 -393l-17 4z" />
<glyph unicode="&#x2019;" horiz-adv-x="215" d="M78 1149l6 393l76 -12l-66 -377z" />
<glyph unicode="&#x201a;" horiz-adv-x="215" d="M78 -162l6 393l76 -12l-66 -377z" />
<glyph unicode="&#x201c;" horiz-adv-x="440" d="M74 1530l76 12l6 -393l-17 4zM264 1530l76 12l6 -393l-16 4z" />
<glyph unicode="&#x201d;" horiz-adv-x="444" d="M98 1149l6 393l76 -12l-65 -377zM289 1149l6 393l76 -12l-66 -377z" />
<glyph unicode="&#x201e;" horiz-adv-x="444" d="M98 -162l6 393l76 -12l-65 -377zM291 -162l6 393l76 -12l-66 -377z" />
<glyph unicode="&#x2022;" horiz-adv-x="393" d="M78 614q0 48 35 83.5t84 35.5q47 0 82.5 -36t35.5 -83q0 -49 -35 -83.5t-83 -34.5q-50 0 -84.5 34.5t-34.5 83.5z" />
<glyph unicode="&#x2026;" horiz-adv-x="1124" d="M129 39q0 19 13.5 32t33.5 13q19 0 32 -13t13 -32q0 -20 -13 -33.5t-32 -13.5q-20 0 -33.5 13.5t-13.5 33.5zM514 39q0 19 13.5 32t33.5 13q19 0 32 -13t13 -32q0 -20 -13 -33.5t-32 -13.5q-20 0 -33.5 13.5t-13.5 33.5zM903 39q0 19 13 32t32 13q20 0 33.5 -13t13.5 -32 q0 -20 -13.5 -33.5t-33.5 -13.5q-19 0 -32 13.5t-13 33.5z" />
<glyph unicode="&#x202f;" horiz-adv-x="354" />
<glyph unicode="&#x2039;" horiz-adv-x="438" d="M29 559l262 408l53 -39l-238 -369l238 -369l-53 -38z" />
<glyph unicode="&#x203a;" horiz-adv-x="438" d="M29 190l237 369l-237 369l53 39l262 -408l-262 -407z" />
<glyph unicode="&#x205f;" horiz-adv-x="443" />
<glyph unicode="&#x20ac;" horiz-adv-x="1155" d="M68 625v65h110v146h-110v65h110v203q0 115 59.5 217t164.5 164.5t229 62.5q119 0 220 -52.5t162 -148.5t64 -214l-65 -5v9q-3 99 -56 179t-139 123.5t-186 43.5q-106 0 -195 -53.5t-139.5 -140.5t-50.5 -185v-203h669v-65h-669v-146h669v-65h-669v-197q0 -149 115 -264 t270 -115q157 0 269 99t112 251h65q0 -117 -61.5 -212t-163 -147t-221.5 -52q-124 0 -229 62.5t-164.5 164.5t-59.5 217v193h-110z" />
<glyph unicode="&#x2122;" horiz-adv-x="1288" d="M33 1501v33h489v-33h-229v-735h-33v735h-227zM594 766v768h29l284 -711l287 711h29v-768h-33v680l-270 -680h-23l-270 680v-680h-33z" />
<glyph unicode="&#xe000;" horiz-adv-x="1024" d="M0 0v1024h1024v-1024h-1024z" />
<glyph unicode="&#xfb01;" horiz-adv-x="868" d="M125 958v66h156v236q0 82 45 128t118 46h113v-66h-113q-46 0 -72 -28.5t-26 -79.5v-236h270v-66h-270v-958h-65v958h-156zM721 1194q0 19 13.5 32t33.5 13q19 0 32 -13t13 -32q0 -20 -13 -33.5t-32 -13.5q-20 0 -33.5 13.5t-13.5 33.5zM735 0v1026h66v-1026h-66z" />
<glyph unicode="&#xfb02;" horiz-adv-x="978" d="M125 958v66h156v236q0 82 45 128t118 46h113v-66h-113q-46 0 -72 -28.5t-26 -79.5v-236h270v-66h-270v-958h-65v958h-156zM827 0v1434h66v-1434h-66z" />
</font>
</defs>
</svg>
